<svg width="298" height="200" viewBox="0 0 298 200" fill="none" xmlns="http://www.w3.org/2000/svg">
<path d="M128.585 101.037H111.166V135.999H128.585V101.037Z" fill="#313896"/>
<path d="M148.155 136H167.493L148.155 102.506V136Z" fill="#313896"/>
<path d="M147.927 99.9624H169.804L149.929 65.5371L138.99 84.4832L147.927 99.9624Z" fill="#313896"/>
<path d="M130.054 99.9626H146.687L138.37 85.5586L130.054 99.9626Z" fill="#313896"/>
<path d="M100 65L110.629 83.4088L121.257 65H100Z" fill="#313896"/>
<path d="M122.497 65L111.166 84.6279V99.9628H128.585V84.3395L139.751 65H122.497Z" fill="#313896"/>
<path d="M148.548 101.037L158.119 117.615C161.664 116.538 164.12 113.238 164.12 109.508C164.12 104.837 160.32 101.037 155.649 101.037L148.548 101.037Z" fill="#313896"/>
<path d="M129.66 101.037V135.999C139.271 135.966 147.08 128.137 147.08 118.518C147.08 108.9 139.271 101.071 129.66 101.037Z" fill="#313896"/>
<path d="M181.138 101.037C171.499 101.037 163.657 108.879 163.657 118.518C163.657 128.157 171.499 135.999 181.138 135.999C190.778 135.999 198.62 128.157 198.62 118.518C198.62 108.879 190.778 101.037 181.138 101.037Z" fill="#313896"/>
</svg>
