<svg width="298" height="200" viewBox="0 0 298 200" fill="none" xmlns="http://www.w3.org/2000/svg">
<path d="M108.472 134.075C100.343 132.611 93.7745 128.985 88.1612 122.849C84.4578 118.781 81.7559 113.482 80.3817 107.555C79.7761 104.998 79.7295 104.37 79.7295 100.117C79.7295 96.1655 79.7994 95.1196 80.2419 93.0974C81.7326 86.2872 84.8304 80.5926 89.7217 75.7115C94.7295 70.6909 100.692 67.5531 107.889 66.1353C111.057 65.5309 117.579 65.5774 120.723 66.2515C125.428 67.2742 129.877 69.1104 133.743 71.6904C137.517 74.2007 141.802 78.8726 144.202 83.1261C146.205 86.6358 148.278 92.958 148.301 95.5845C148.324 96.8163 148.65 95.9796 148.976 93.8412C149.605 89.8434 151.702 84.7066 154.334 80.7088C156.104 77.9893 160.809 73.3174 163.627 71.458C167.493 68.9012 171.919 67.0882 176.601 66.1353C179.792 65.5077 186.5 65.5774 189.761 66.2747C193.091 66.972 195.234 67.7158 198.262 69.1801C201.686 70.8536 204.528 72.899 207.346 75.7115C212.354 80.7088 215.615 86.8915 216.919 93.8412C217.571 97.258 217.525 103.65 216.826 106.904C215.335 113.83 212.354 119.339 207.369 124.313C202.268 129.38 196.771 132.379 189.761 133.866C186.896 134.47 178.837 134.47 176.018 133.843C166.166 131.704 158.084 125.894 153.006 117.317C151.073 114.063 149.233 108.81 148.86 105.533C148.697 104.045 148.301 103.464 148.301 104.696C148.278 106.904 146.74 111.924 145.04 115.388C140.358 124.755 132.02 131.286 121.538 133.75C118.93 134.354 111.15 134.54 108.472 134.075Z" fill="#424242"/>
<path d="M111.267 131.379C103.814 130.658 97.1293 127.497 91.8187 122.198C87.37 117.758 84.5517 112.575 83.1541 106.23C82.6417 103.789 82.5718 96.7696 83.061 94.3058C83.9228 89.9594 85.9725 85.241 88.6044 81.615C90.3513 79.1745 94.1246 75.5486 96.6169 73.8983C100.087 71.5972 104 69.9934 108.193 69.1567C110.965 68.5988 117.114 68.5988 119.932 69.1567C132.23 71.5972 141.663 80.5226 144.738 92.6556C145.53 95.8399 145.74 102.023 145.181 105.346C143.48 115.085 137.098 123.709 128.271 128.125C123.123 130.705 116.834 131.913 111.267 131.379ZM119.606 128.241C126.361 126.939 132.719 123.011 136.912 117.549C145.879 105.834 144.552 89.2853 133.861 79.221C125.639 71.5275 113.76 69.2961 103.208 73.5031C94.9631 76.7804 88.488 84.1718 86.1821 92.981C85.3902 96.0026 85.1805 101.604 85.7395 104.789C87.2302 113.342 92.4243 120.78 99.8544 124.987C105.771 128.334 112.945 129.519 119.606 128.241Z" fill="#FCFDFD"/>
<path d="M108.845 119.618C105.235 118.828 102.44 117.247 99.7381 114.528C97.6418 112.436 96.2676 110.204 95.2893 107.322C94.381 104.649 94.2412 100.721 94.94 97.7926C96.5005 91.3542 101.415 86.1942 107.727 84.4509C109.311 84.0093 128.62 81.8709 128.806 82.1266C128.853 82.1731 129.342 86.659 129.901 92.0747C130.577 98.9082 130.833 102.371 130.74 103.348C130.018 109.786 126.501 115.062 121.05 117.875C118.278 119.316 116.462 119.781 113.247 119.897C111.268 119.967 109.987 119.874 108.845 119.618ZM117.952 116.55C124.101 114.272 128.247 108.484 128.271 102.209C128.271 100.954 127.549 93.1207 127.199 90.4942L127.06 89.4715L126.128 91.1915C120.678 101.256 111.757 109.693 102.673 113.389C102.16 113.598 102.207 113.668 103.558 114.597C106.633 116.759 109.032 117.456 113.131 117.34C115.693 117.27 116.275 117.201 117.952 116.55ZM102.906 110.6C109.358 107.996 117.556 100.419 122.494 92.5163C123.636 90.6569 125.732 86.5196 126.058 85.4272C126.244 84.7531 126.757 84.7299 117.324 85.7061C109.148 86.5428 107.937 86.7753 105.445 88.0304C97.1993 92.1677 94.4508 102.79 99.5751 110.53C100.274 111.553 100.507 111.576 102.906 110.6Z" fill="#FCFDFD"/>
<path d="M173.923 106.741C172.362 106.206 171.035 104.881 170.662 103.464C170.499 102.859 170.406 101.255 170.476 99.396C170.545 96.4209 170.569 96.2814 171.244 95.3284C171.687 94.7009 172.409 94.0733 173.201 93.6782C174.319 93.0971 174.668 93.0273 176.811 93.0273C178.907 93.0273 179.327 93.0971 180.398 93.6317C181.819 94.329 182.657 95.2587 183.007 96.4673C183.333 97.6295 183.309 102.627 182.96 103.766C182.587 104.998 181.027 106.392 179.49 106.834C177.836 107.322 175.507 107.299 173.923 106.741ZM179.024 104.3C180.025 103.789 180.328 102.79 180.305 99.8144C180.305 97.5598 180.235 97.1182 179.816 96.5603C178.674 95.003 175.018 94.9798 173.876 96.5138C173.504 97.0252 173.434 97.5365 173.434 99.9073C173.434 102.975 173.643 103.789 174.598 104.3C175.414 104.742 178.185 104.742 179.024 104.3Z" fill="#FCFDFD"/>
<path d="M187.502 106.973C186.501 106.764 185.08 106.113 184.288 105.486C183.822 105.114 183.846 105.091 184.847 104.184C185.755 103.347 185.918 103.278 186.245 103.58C187.363 104.602 189.762 104.951 191.252 104.324C192.114 103.975 192.44 103.301 192.231 102.464C192.068 101.79 191.322 101.488 189.086 101.162C188.131 101.023 186.99 100.744 186.571 100.535C184.195 99.4192 183.799 96.1419 185.802 94.329C186.85 93.376 187.968 93.0273 189.878 93.0273C191.578 93.0273 192.487 93.2598 193.908 94.0965L194.979 94.7241L193.977 95.6073L192.999 96.4906L192.137 95.9792C191.043 95.3284 188.97 95.2819 188.061 95.8863C187.572 96.1884 187.432 96.4673 187.432 97.0949C187.432 98.1176 188.038 98.443 190.53 98.8149C193.838 99.2798 195.119 100.419 195.119 102.836C195.119 106.02 191.811 107.81 187.502 106.973Z" fill="#FCFDFD"/>
<path d="M156.92 100.489V93.9808L157.549 93.4927C158.154 93.0279 158.387 93.0046 162.044 93.0743C165.631 93.1441 165.98 93.1906 167.052 93.7252C169.8 95.143 170.126 99.6754 167.588 101.419C167.168 101.698 166.796 101.977 166.749 102C166.703 102.023 167.401 103.162 168.31 104.51L169.963 106.974H168.263H166.539L164.979 104.649L163.418 102.302L161.625 102.372L159.831 102.441L159.762 104.719L159.692 106.974H158.317H156.92V100.489ZM165.724 99.3965C166.144 99.1176 166.237 98.8154 166.237 97.8392C166.237 95.8171 165.794 95.5846 162.3 95.5846H159.715V97.6765V99.7684H162.463C164.56 99.7684 165.328 99.6754 165.724 99.3965Z" fill="#FCFDFD"/>
<path d="M195.794 105.881C198.636 98.6987 200.802 93.7711 201.198 93.4457C201.78 92.9576 202.549 92.9111 203.108 93.3295C203.434 93.5387 208.116 104.533 208.744 106.508C208.884 106.973 208.838 106.997 207.347 106.927L205.786 106.857L205.251 105.462C204.762 104.138 204.692 104.068 204.063 104.184C203.061 104.347 201.175 104.324 200.336 104.138C199.637 103.975 199.614 103.998 199.078 105.486L198.519 106.973H196.935H195.352L195.794 105.881ZM203.48 101.651C203.737 101.488 203.643 101.069 203.015 99.4192C202.409 97.8154 202.199 97.4668 202.06 97.8154C201.966 98.0479 201.571 99.0008 201.198 99.8841C200.569 101.348 200.546 101.534 200.895 101.674C201.477 101.906 203.108 101.883 203.48 101.651Z" fill="#FCFDFD"/>
</svg>
