<svg width="298" height="201" viewBox="0 0 298 201" fill="none" xmlns="http://www.w3.org/2000/svg">
<path d="M31.0708 97.6701C31.0708 95.907 31.0708 94.9268 30.4305 94.2867C29.7904 93.6465 28.8104 93.6465 27.0472 93.6465H23.0236C21.2606 93.6465 20.2803 93.6465 19.6402 94.2867C19 94.9268 19 95.907 19 97.6701V101.694C19 103.457 19 104.437 19.6402 105.077C20.2803 105.717 21.2606 105.717 23.0236 105.717H27.0472C28.8104 105.717 29.7904 105.717 30.4305 105.077C31.0708 104.437 31.0708 103.457 31.0708 101.694V97.6701Z" fill="#424242"/>
<path d="M79.2012 102.236C79.2012 104.224 77.4703 105.955 73.9437 105.955C69.4468 105.955 68.4833 102.828 68.4833 101.949H71.6779C71.6779 102.591 72.355 103.386 73.9437 103.386C75.5324 103.386 76.0916 102.821 76.0916 102.236C76.0916 101.651 75.8261 101.189 74.5006 100.977L72.5905 100.684C70.1054 100.282 68.6356 99.2099 68.6356 97.1982C68.6356 95.1865 70.3597 93.4113 73.6733 93.4113C77.3581 93.4113 78.9643 95.8594 78.9643 97.4177H75.7703C75.7703 96.6201 75.0347 95.9802 73.6733 95.9802C72.3119 95.9802 71.7453 96.4643 71.7453 97.1982C71.7453 97.7662 72.189 98.0642 73.3015 98.2298L75.3131 98.5377C77.7983 98.9162 79.2012 100.082 79.2012 102.236ZM90.4203 93.6479H95.3536V96.6201H90.4203V100.31C90.4203 102.067 91.1739 102.747 92.8545 102.747H95.3536V105.719H92.2499C88.8464 105.719 87.2222 103.949 87.2222 100.688V89H90.4203V93.6479ZM46.9166 102.983C45.174 102.983 43.9244 101.595 43.9244 99.6834C43.9244 97.7713 45.174 96.3834 46.9166 96.3834C48.6713 96.3834 49.9449 97.7713 49.9449 99.6834C49.9449 101.595 48.6713 102.983 46.9166 102.983ZM47.6125 93.4113C46.2474 93.4113 45.0011 93.9118 44.2009 94.809C44.2009 94.8092 44.2005 94.8096 44.2003 94.8097H43.9244V93.6479H40.7266V110.367H43.9244V104.558H44.2009C44.9416 105.366 46.1432 105.956 47.6125 105.956C50.8999 105.956 53.1428 103.311 53.1428 99.6834C53.1428 96.0558 50.8999 93.4113 47.6125 93.4113ZM120.847 96.1014C122.231 96.1014 123.321 96.9891 123.755 98.3384H117.959C118.39 96.9891 119.473 96.1014 120.847 96.1014ZM120.847 93.4113C117.392 93.4113 114.593 96.0558 114.593 99.6834C114.593 103.289 117.299 105.955 120.948 105.955C123.656 105.955 126.088 104.413 126.902 102.014H123.485C122.972 102.812 121.979 103.265 120.948 103.265C119.329 103.265 118.177 102.197 117.852 100.623H127.059L127.052 100.613C127.094 100.311 127.122 100.002 127.122 99.6834C127.122 96.0558 124.324 93.4113 120.847 93.4113ZM97.4012 93.6479H100.599V105.719H97.4012V93.6479ZM97.4012 89H100.599V91.9722H97.4012V89ZM81.2032 93.6479H84.4011V105.719H81.2032V93.6479ZM81.2032 89H84.4011V91.9722H81.2032V89ZM60.8434 102.983C59.0725 102.983 57.7874 101.595 57.7874 99.6834C57.7874 97.7713 59.0725 96.3834 60.8434 96.3834C62.6266 96.3834 63.9209 97.7713 63.9209 99.6834C63.9209 101.626 62.6556 102.983 60.8434 102.983ZM60.8434 93.4113C57.3884 93.4113 54.5893 96.0556 54.5893 99.6834C54.5893 103.289 57.3448 105.955 60.8434 105.955C64.3638 105.955 67.1188 103.311 67.1188 99.6834C67.1188 96.0556 64.3199 93.4113 60.8434 93.4113ZM110.938 93.6479H114.274L110.633 105.719H105.787L102.146 93.6479H105.482L107.957 102.747H108.464L110.938 93.6479ZM278.296 102.236C278.296 104.224 276.566 105.955 273.04 105.955C268.542 105.955 267.579 102.828 267.579 101.949H270.774C270.774 102.591 271.451 103.386 273.04 103.386C274.628 103.386 275.188 102.821 275.188 102.236C275.188 101.651 274.921 101.189 273.597 100.977L271.685 100.684C269.202 100.282 267.731 99.2099 267.731 97.1982C267.731 95.1865 269.455 93.4113 272.768 93.4113C276.454 93.4113 278.06 95.8594 278.06 97.4177H274.866C274.866 96.6201 274.13 95.9802 272.768 95.9802C271.408 95.9802 270.841 96.4643 270.841 97.1982C270.841 97.7662 271.285 98.0642 272.397 98.2298L274.409 98.5377C276.894 98.9162 278.296 100.082 278.296 102.236ZM236.4 99.5649C236.4 97.689 237.674 96.3273 239.429 96.3273C241.171 96.3273 242.42 97.6885 242.421 99.564V99.566C242.42 101.441 241.171 102.803 239.429 102.803C237.674 102.803 236.4 101.441 236.4 99.5649ZM242.421 94.8097H242.168C242.16 94.8 242.147 94.7861 242.144 94.7827C241.344 93.9023 240.098 93.4113 238.733 93.4113C235.445 93.4113 233.203 96.0058 233.203 99.5649C233.203 103.124 235.445 105.719 238.733 105.719C240.202 105.719 241.403 105.14 242.144 104.347H242.421V105.591C242.421 107.348 241.667 108.028 239.987 108.028H235.048V111H240.591C243.994 111 245.619 109.231 245.619 105.97V93.6479H242.421V94.8097ZM198.04 98.4197V105.719H194.842V98.9047C194.842 97.4054 193.779 96.3834 192.27 96.3834C190.761 96.3834 189.698 97.4054 189.698 98.9047V105.719H186.5V93.6479H189.698V94.8097H189.938C190.75 93.897 191.959 93.4113 193.341 93.4113C196.107 93.4113 198.04 95.4632 198.04 98.4197ZM214.109 89H217.306V105.719H214.109V89ZM259.848 96.1014C261.231 96.1014 262.321 96.9891 262.756 98.3384H256.961C257.392 96.9891 258.474 96.1014 259.848 96.1014ZM259.848 93.4113C256.394 93.4113 253.594 96.0558 253.594 99.6834C253.594 103.289 256.3 105.955 259.949 105.955C262.657 105.955 265.089 104.413 265.903 102.014H262.487C261.973 102.812 260.981 103.265 259.949 103.265C258.329 103.265 257.178 102.197 256.853 100.623H266.06L266.053 100.613C266.095 100.311 266.124 100.002 266.124 99.6834C266.124 96.0558 263.324 93.4113 259.848 93.4113ZM248.44 93.6479H251.638V105.719H248.44V93.6479ZM248.44 89H251.638V91.9722H248.44V89ZM225.38 102.983C223.609 102.983 222.324 101.595 222.324 99.6834C222.324 97.7713 223.609 96.3834 225.38 96.3834C227.163 96.3834 228.458 97.7713 228.458 99.6834C228.458 101.626 227.192 102.983 225.38 102.983ZM225.38 93.4113C221.925 93.4113 219.126 96.0556 219.126 99.6834C219.126 103.289 221.882 105.955 225.38 105.955C228.901 105.955 231.656 103.311 231.656 99.6834C231.656 96.0556 228.857 93.4113 225.38 93.4113ZM206.013 102.983C204.243 102.983 202.957 101.595 202.957 99.6834C202.957 97.7713 204.243 96.3834 206.013 96.3834C207.796 96.3834 209.091 97.7713 209.091 99.6834C209.091 101.626 207.825 102.983 206.013 102.983ZM206.013 93.4113C202.558 93.4113 199.759 96.0556 199.759 99.6834C199.759 103.289 202.515 105.955 206.013 105.955C209.534 105.955 212.289 103.311 212.289 99.6834C212.289 96.0556 209.49 93.4113 206.013 93.4113ZM138.077 93.6479H143.01V96.6201H138.077V100.31C138.077 102.067 138.831 102.747 140.511 102.747H143.01V105.719H139.906C136.503 105.719 134.879 103.949 134.879 100.688V89H138.077V93.6479ZM167.248 101.004H170.547C170.125 103.897 167.622 105.955 164.564 105.955C161.065 105.955 158.36 103.289 158.36 99.6834C158.36 96.0558 161.108 93.4113 164.564 93.4113C167.584 93.4113 170.115 95.3142 170.545 98.2616H167.238C166.874 97.0288 165.882 96.3834 164.564 96.3834C162.793 96.3834 161.558 97.7713 161.558 99.6834C161.558 101.595 162.793 102.983 164.564 102.983C165.909 102.983 166.943 102.222 167.248 101.004ZM183.906 98.4197V105.719H180.708V98.9047C180.708 97.4054 179.645 96.3834 178.136 96.3834C176.627 96.3834 175.564 97.4054 175.564 98.9047V105.719H172.366V89H175.564V94.8097H175.805C176.617 93.897 177.826 93.4113 179.208 93.4113C181.974 93.4113 183.906 95.4632 183.906 98.4197ZM150.538 96.1014C151.921 96.1014 153.012 96.9891 153.446 98.3384H147.65C148.081 96.9891 149.164 96.1014 150.538 96.1014ZM150.538 93.4113C147.083 93.4113 144.284 96.0558 144.284 99.6834C144.284 103.289 146.99 105.955 150.639 105.955C153.347 105.955 155.778 104.413 156.593 102.014H153.176C152.662 102.812 151.67 103.265 150.639 103.265C149.02 103.265 147.868 102.197 147.542 100.623H156.75L156.743 100.613C156.785 100.311 156.813 100.002 156.813 99.6834C156.813 96.0558 154.015 93.4113 150.538 93.4113Z" fill="#424242"/>
</svg>
