<svg width="133" height="100" viewBox="0 0 133 100" fill="none" xmlns="http://www.w3.org/2000/svg">
<path d="M43.1065 41.3771C49.3239 41.3771 50.8399 45.7486 50.8399 49.132C50.8399 52.1864 49.5433 56.7556 43.1066 56.7556H34.6711V41.3771H43.1065ZM40.5585 52.91H41.7444C43.0625 52.91 44.644 52.5154 44.644 49.0438C44.644 45.4852 43.1721 45.0014 41.7444 45.0014H40.5585V52.91ZM57.2594 45.2438V47.8575H57.3475C57.7862 46.4082 58.9731 44.9804 60.818 44.9804C61.104 44.9804 61.433 45.0245 61.719 45.0901V49.7034C61.3674 49.6153 60.9718 49.5271 60.5772 49.5271C58.9291 49.5271 57.6109 50.5818 57.6109 52.5815V56.7551H52.0751V45.2438L57.2594 45.2438ZM61.7193 52.5255H66.5079V56.7658H61.7193V52.5255ZM73.1011 51.2191H73.1892L75.6276 41.4226H81.274L83.6468 51.2191H83.734L85.6015 41.4226H90.8523L87.1615 56.7549H80.8334L78.2853 46.738H78.1982L75.7823 56.755H69.3231L65.7419 41.4226H71.2561L73.1011 51.2191ZM105.182 41.3772V45.0014H97.648V47.2215H104.853V50.735H97.648V53.1303H105.337V56.7556H91.7617V41.3772H105.182ZM115.931 41.3771C120.741 41.3771 121.62 43.9488 121.62 45.3755C121.62 47.1323 120.411 48.5611 118.501 48.9116V48.9998C120.037 49.2201 121.971 50.2307 121.971 52.6466C121.971 56.5352 117.577 56.7556 115.622 56.7556H106.682V41.3771H115.931ZM112.262 47.4623H113.646C115.666 47.4623 115.864 46.4077 115.864 45.9689C115.864 45.3325 115.402 44.4971 113.778 44.4971H112.262V47.4623ZM112.262 53.6346H113.754C115.644 53.6346 115.953 52.6025 115.953 52.0541C115.953 50.4942 114.128 50.4941 113.623 50.4941H112.262L112.262 53.6346ZM122.747 45.1972C122.747 43.095 124.442 41.412 126.533 41.412C128.624 41.412 130.32 43.095 130.32 45.1972C130.32 47.2994 128.624 48.9834 126.533 48.9834C124.442 48.9834 122.747 47.2994 122.747 45.1972M126.533 47.7606C127.862 47.7606 128.961 46.5993 128.961 45.1972C128.961 43.7961 127.862 42.6348 126.533 42.6348C125.204 42.6348 124.104 43.7961 124.104 45.1972C124.104 46.5993 125.204 47.7606 126.533 47.7606ZM126.88 43.5029C127.346 43.5029 128.118 43.5562 128.118 44.3721C128.118 44.9051 127.773 45.1459 127.435 45.2085V45.2392C127.722 45.2607 127.941 45.5108 128.009 45.8142L128.219 46.7664H126.979L126.871 45.9516C126.831 45.6789 126.631 45.6267 126.493 45.6267H126.215V46.7664H125.037V43.5029H126.88ZM126.167 44.9256H126.453C126.583 44.9256 126.94 44.9256 126.94 44.5699C126.94 44.2358 126.611 44.2358 126.483 44.2358H126.167V44.9256ZM17.6318 43.2894L22.1519 45.8149C22.2636 45.5085 22.3231 45.1897 22.3231 44.8586C22.3231 42.8753 20.2301 41.2692 17.6533 41.2692C15.0725 41.2692 12.9816 42.8753 12.9816 44.8586C12.9816 45.1825 13.039 45.4961 13.1415 45.7944L17.6318 43.2894ZM25.4846 50.5998L29.1026 52.7788L22.3235 61L25.4846 50.5998ZM25.6739 48.502L25.2681 46.697L32.2357 48.7521L27.9145 51.0654L28.509 49.1867L25.6739 48.502ZM24.862 45.5328L23.9426 44.2578L30.12 42.2827L28.5826 47.1471L27.9471 44.9077L24.862 45.5328ZM23.1614 43.271L21.8638 41.9006L23.5662 40.1572L21.7028 39H26.6462L23.1614 43.271ZM9.75101 50.5998L6.13292 52.7788L12.913 61L9.75101 50.5998ZM9.56183 48.502L9.96772 46.697L3 48.7521L7.32122 51.0654L6.72678 49.1867L9.56183 48.502ZM10.3736 45.5328L11.293 44.2578L5.11553 42.2827L6.65295 47.1471L7.28842 44.9077L10.3736 45.5328ZM12.0742 43.271L13.3718 41.9006L11.6693 40.1572L13.5327 39H8.58931L12.0742 43.271Z" fill="#424242"/>
<path d="M15.851 48.3699L16.6853 45.8966H18.6071L19.4896 48.3699H19.5187L20.0332 46.0914L17.6184 44.7148L15.2148 46.0831L15.8196 48.3699H15.851Z" fill="#424242"/>
<path d="M24.1649 48.4487L21.6446 47.0117L20.7354 49.7689H18.4867L17.6339 47.2383H17.6031L16.7514 49.7689H14.4903L13.5802 47.0138L11.0619 48.4477C11.0619 48.4477 10.1435 51.6968 13.6448 54.3658C14.8727 55.3016 15.789 55.9104 16.612 56.1913L16.4603 55.729H18.7716L18.6168 56.1984C19.4388 55.9227 20.35 55.3139 21.5708 54.3658C25.0454 51.6692 24.1649 48.4487 24.1649 48.4487ZM19.033 54.9347H16.1969L15.8904 54.0071H19.3394L19.033 54.9347ZM19.6008 53.2127H15.6281L15.3216 52.2852H19.9062L19.6008 53.2127ZM20.1686 51.4918H15.0592L14.7527 50.5643H20.474L20.1686 51.4918Z" fill="#424242"/>
</svg>
