<svg width="133" height="100" viewBox="0 0 133 100" fill="none" xmlns="http://www.w3.org/2000/svg">
<path d="M126.186 54.9648H126.173C125.047 54.9674 124.138 55.8785 124.141 56.9982C124.143 58.1178 125.06 59.0212 126.186 59.0186C127.312 59.016 128.221 58.1049 128.218 56.9853C128.213 55.8708 127.307 54.9674 126.186 54.9648ZM126.186 58.7689C125.218 58.7715 124.428 57.9943 124.426 57.0316C124.423 56.069 125.205 55.284 126.173 55.2814H126.186C127.155 55.2814 127.941 56.0638 127.941 57.0264C127.941 57.9891 127.155 58.7689 126.186 58.7689Z" fill="#424242"/>
<path d="M126.911 57.5022C126.865 57.1599 126.73 56.9772 126.528 56.9386V56.9232C126.792 56.8665 126.978 56.6323 126.978 56.3647C126.994 56.1819 126.916 56.0017 126.771 55.8885C126.556 55.7572 126.306 55.698 126.051 55.7161C125.834 55.7186 125.616 55.7367 125.401 55.7701V58.0685H125.769V57.0776H126.026C126.264 57.0416 126.486 57.2062 126.52 57.4431C126.523 57.4585 126.523 57.4739 126.526 57.4894C126.543 57.6927 126.596 57.8909 126.678 58.0762H127.064C126.984 57.8935 126.931 57.7004 126.911 57.5022ZM126.028 56.7971H125.761V56.0197C125.85 56.0043 125.937 55.9992 126.028 55.9992C126.442 55.9992 126.59 56.2051 126.59 56.411C126.59 56.6941 126.331 56.8047 126.028 56.8047" fill="#424242"/>
<path d="M82.3102 42.9295C78.4033 42.9295 75.2887 45.2768 74.6829 48.6125C74.1366 51.7294 76.4305 54.2183 79.8972 54.2183H85.6425C87.8375 54.2183 88.9767 55.1346 88.7025 56.666C88.4775 57.9349 87.1233 58.8513 85.5 58.8513H73.523C73.9528 58.1383 74.2479 57.3533 74.3955 56.5348C75.0142 53.0627 72.9353 50.8518 69.088 50.8518H62.7708C61.3598 50.8518 60.3293 49.8017 60.5468 48.5945C60.8497 47.3308 61.9786 46.4351 63.286 46.4196H72.0007C75.0039 46.4196 75.5114 42.9141 75.5114 42.9141H62.3643C58.4601 42.9141 55.3429 45.2614 54.7474 48.5971C54.1908 51.7243 56.4873 54.2028 59.9539 54.2028H65.699C67.8919 54.2028 69.0285 55.1192 68.7618 56.6506C68.5366 57.9195 67.1773 58.8358 65.5592 58.8358H54.706L50.6438 42.9295H45.8722C45.8722 42.9295 44.1117 45.8714 43.0243 47.619C40.4482 51.7346 43.4075 54.4886 43.4489 54.5375H39.0424L36.0728 59.5899L33.4553 54.5194C36.601 53.876 38.8249 51.7192 39.3376 48.8364C39.9201 45.596 37.8722 42.9269 34.755 42.9269H4.61363C1.61814 42.9295 1.11328 46.417 1.11328 46.417H9.95475L7.13016 62.3388C7.13016 62.3388 11.5574 62.7608 12.4532 57.7058C13.072 54.1514 14.4493 46.4273 14.4493 46.4273H30.3718C32.6708 46.4273 33.9343 47.3951 33.6521 48.9806C33.3828 50.5172 31.5576 51.7732 29.5226 51.7732H22.5477C19.3089 51.7758 18.3821 55.0213 18.3821 55.0213L17.0823 62.3413H21.5847L22.9077 54.8798H28.3006L32.0184 62.3413H39.291L41.8386 57.9272H49.849L50.693 62.3413H87.2833C90.7267 62.3413 93.7458 59.837 94.3308 56.5245C94.95 53.0523 92.8867 50.8414 89.0258 50.8414H82.7192C81.3107 50.8414 80.2726 49.7913 80.4901 48.5842C80.6169 47.8558 81.2021 47.1789 82.1418 46.7362C82.4732 46.5483 82.8435 46.4402 83.2267 46.4196H98.595L95.7758 62.3362C95.7758 62.3362 99.6725 62.7094 100.894 58.5603C100.941 58.3313 100.988 58.1073 101.026 57.8654L103.675 42.9295H82.3102ZM43.4593 54.5452L47.5163 47.7478L48.961 54.5349L43.4593 54.5452Z" fill="#424242"/>
<path d="M124.654 44.9167H105.325L105.07 46.3529H124.4L124.654 44.9167ZM123.132 42.9297H105.679L105.423 44.3659H122.875L123.132 42.9297ZM119.191 46.9166L118.94 48.3528H125.918L126.171 46.9166H119.191ZM121.358 52.9136H103.908L103.65 54.3498H121.102L121.358 52.9136ZM118.58 50.3552H125.56L125.819 48.919H118.839L118.58 50.3552ZM123.587 50.9163H105.645L105.392 52.3525H123.334L123.587 50.9163ZM119.065 54.9108H113.933L113.68 56.3471H118.813L119.065 54.9108ZM103.295 56.3471H107.717L107.975 54.9108H103.549L103.295 56.3471ZM120.59 56.903H115.448L115.191 58.3393H120.335L120.59 56.903ZM122.106 58.9055H116.972L116.721 60.3417H121.86L122.106 58.9055ZM118.239 62.3415H123.38L123.629 60.9053H118.495L118.239 62.3415ZM102.235 62.3415H106.66L106.922 60.9053H102.492L102.235 62.3415ZM102.59 60.3443H107.02L107.274 58.908H102.841L102.59 60.3443ZM103.191 56.9391L102.948 58.3443H107.378L107.629 56.9082H103.722L103.191 56.9391Z" fill="#424242"/>
<path d="M100.014 36.2581L99.1748 40.9914H103.522L103.566 40.7392C104.433 35.8541 100.014 36.2581 100.014 36.2581Z" fill="#424242"/>
</svg>
