<svg width="133" height="100" viewBox="0 0 133 100" fill="none" xmlns="http://www.w3.org/2000/svg">
<g clip-path="url(#clip0_1824_2661)">
<path d="M28.9204 50.2778C28.791 50.1205 28.6404 49.982 28.4727 49.8666C28.2939 49.7413 28.1072 49.6193 27.9127 49.5007C28.2268 49.2448 28.4989 48.9413 28.7192 48.6011C28.9886 48.1658 29.1212 47.6594 29.0998 47.1477V44.6403C29.1105 44.0946 29.0154 43.552 28.8198 43.0425C28.6435 42.5983 28.3446 42.2136 27.958 41.9331H27.9798C27.5923 41.6827 27.1749 41.482 26.7374 41.3357C26.3381 41.1939 25.9186 41.118 25.495 41.1108H19.0048C18.6539 41.1008 18.3078 41.1935 18.0089 41.3776C17.7328 41.5555 17.5947 41.9108 17.5947 42.4434V57.8487C17.5947 58.5592 18.0351 58.9144 18.9159 58.9144C19.2334 58.9173 19.5462 58.8369 19.823 58.6811C19.9485 58.62 20.054 58.5245 20.1274 58.4056C20.2007 58.2868 20.2387 58.1495 20.2371 58.0098L20.2589 43.3497H24.9367C25.4889 43.3497 25.8801 43.5052 26.1103 43.8162C26.335 44.1089 26.4569 44.4676 26.4574 44.8366V47.0822C26.4574 47.2456 26.4501 47.4084 26.4356 47.5706C26.4234 47.7248 26.3733 47.8735 26.2897 48.0036C26.1901 48.1443 26.0546 48.2555 25.8974 48.3259C25.6567 48.4284 25.3978 48.4815 25.1362 48.482C24.9255 48.2741 24.6881 48.0952 24.4303 47.9499C24.1911 47.8075 23.9189 47.7299 23.6406 47.725C23.3985 47.7237 23.1584 47.7706 22.9345 47.863C22.7106 47.9554 22.5073 48.0915 22.3365 48.2633C22.1656 48.4351 22.0306 48.6392 21.9393 48.8637C21.848 49.0883 21.8023 49.3288 21.8047 49.5712C21.8039 49.8126 21.8508 50.0518 21.9427 50.275C22.0347 50.4982 22.17 50.7009 22.3407 50.8715C22.5114 51.042 22.7142 51.1771 22.9373 51.2687C23.1604 51.3604 23.3995 51.4069 23.6406 51.4056C23.9354 51.4056 24.2261 51.3374 24.4902 51.2064C24.7543 51.0754 24.9845 50.8851 25.163 50.6503C25.8046 50.6951 26.2517 50.8764 26.5043 51.1941C26.7418 51.4695 26.8764 51.8189 26.8849 52.1827V55.0022C26.8884 55.3773 26.7708 55.7434 26.5496 56.0462C26.326 56.3572 25.9382 56.5127 25.386 56.5127H22.3178C21.6907 56.5127 21.3772 56.8825 21.3772 57.6221C21.3634 57.9109 21.4377 58.1972 21.5901 58.4428C21.6532 58.5421 21.7412 58.623 21.8454 58.6775C21.9496 58.732 22.0662 58.7581 22.1837 58.7533H25.4967C25.9275 58.7511 26.3549 58.6762 26.7609 58.5317C27.2357 58.3584 27.69 58.1333 28.1156 57.8604C29.0701 57.2831 29.5474 56.388 29.5474 55.1751V52.0098C29.5564 51.6665 29.4994 51.3246 29.3797 51.0028C29.2731 50.7346 29.1173 50.4886 28.9204 50.2778ZM34.4381 41C33.5573 41 33.117 41.3552 33.117 42.0657V57.8034C33.117 58.5138 33.5573 58.8691 34.4381 58.8691C35.3189 58.8691 35.766 58.5138 35.7794 57.8034V42.0657C35.7806 41.3552 35.3335 41 34.4381 41ZM50.2689 41.9768H50.2907C49.9097 41.7294 49.5047 41.5213 49.0818 41.3558C48.6976 41.1994 48.2876 41.1163 47.873 41.1108H42.994C42.5793 41.1163 42.1693 41.1994 41.7851 41.3558C41.3616 41.521 40.956 41.7291 40.5746 41.9768H40.5964C40.2075 42.259 39.8989 42.6379 39.7011 43.0761C39.4839 43.5684 39.3769 44.1022 39.3875 44.6403V55.1835C39.3722 55.7315 39.4806 56.2759 39.7044 56.7762C39.9102 57.2094 40.2173 57.5865 40.5997 57.8755C40.9679 58.146 41.3705 58.3661 41.7969 58.5301C42.1784 58.68 42.5841 58.759 42.994 58.7634H47.873C48.2828 58.7589 48.6885 58.6799 49.0701 58.5301C49.4963 58.366 49.8989 58.1459 50.2672 57.8755C51.0731 57.2836 51.476 56.3885 51.476 55.1902V44.6403C51.4866 44.1022 51.3796 43.5684 51.1625 43.0761C50.9649 42.6383 50.657 42.2594 50.2689 41.9768ZM48.8136 55.0073C48.8171 55.3823 48.6994 55.7485 48.4782 56.0512C48.2547 56.3622 47.8668 56.5178 47.3146 56.5178H43.554C43.0018 56.5178 42.6139 56.3622 42.3904 56.0512C42.1692 55.7485 42.0515 55.3823 42.0551 55.0073V44.84C42.0543 44.4726 42.1719 44.1148 42.3904 43.8196C42.6139 43.5085 43.0018 43.353 43.554 43.353H47.3146C47.8668 43.353 48.2547 43.5085 48.4782 43.8196C48.6967 44.1148 48.8143 44.4726 48.8136 44.84V55.0073ZM65.724 41.9768H65.7458C65.3649 41.7294 64.9599 41.5213 64.537 41.3558C64.1528 41.1995 63.7428 41.1164 63.3281 41.1108H58.4491C58.0344 41.1163 57.6244 41.1994 57.2403 41.3558C56.8173 41.5211 56.4123 41.7292 56.0314 41.9768H56.0532C55.6655 42.2594 55.3581 42.6383 55.1613 43.0761C54.9441 43.5684 54.8371 44.1022 54.8477 44.6403V47.282C54.8477 48.4512 55.2507 49.3463 56.0566 49.9673C56.877 50.5267 57.6751 50.8064 58.4508 50.8064H62.7698C63.322 50.8064 63.7098 50.9653 63.9334 51.2831C64.1511 51.5831 64.2684 51.9444 64.2687 52.3152V55.0006C64.2722 55.3756 64.1546 55.7418 63.9334 56.0445C63.7098 56.3555 63.322 56.511 62.7698 56.511H59.0091C58.457 56.511 58.0691 56.3555 57.8455 56.0445C57.6243 55.7418 57.5067 55.3756 57.5102 55.0006V53.7183C57.5102 53.0224 57.0631 52.6744 56.1689 52.6744C55.2747 52.6744 54.8343 53.0224 54.8477 53.7183V55.1835C54.8477 56.3818 55.2507 57.2769 56.0566 57.8688C56.4248 58.1393 56.8274 58.3594 57.2537 58.5234C57.6353 58.6732 58.0409 58.7523 58.4508 58.7566H63.3298C63.7397 58.7522 64.1453 58.6732 64.5269 58.5234C64.9532 58.3592 65.3557 58.1391 65.724 57.8688C66.5299 57.2769 66.9329 56.3818 66.9329 55.1835V52.1424C66.9423 51.6005 66.8348 51.0629 66.6177 50.5664C66.4257 50.1283 66.1164 49.7519 65.724 49.4789H65.7458C65.3689 49.2184 64.9633 49.0022 64.537 48.8344C64.1527 48.6787 63.7427 48.5961 63.3281 48.591H59.0091C58.457 48.591 58.0691 48.4394 57.8455 48.1362C57.6236 47.8384 57.5057 47.4756 57.5102 47.1041V44.84C57.5095 44.4726 57.6271 44.1148 57.8455 43.8196C58.068 43.5063 58.4558 43.3497 59.0091 43.3497H62.7698C63.322 43.3497 63.7098 43.5052 63.9334 43.8162C64.1519 44.1114 64.2694 44.4693 64.2687 44.8366V45.946C64.2687 46.642 64.7091 46.9899 65.5899 46.9899C66.4707 46.9899 66.9178 46.642 66.9312 45.946V44.6369C66.9418 44.0989 66.8348 43.565 66.6177 43.0727C66.4195 42.6362 66.1116 42.2585 65.724 41.9768ZM85.8302 41.3357C85.3335 41.1273 84.8025 41.0135 84.2642 41C84.0339 41.0011 83.8047 41.0309 83.5818 41.089C83.3526 41.1447 83.1309 41.2275 82.9212 41.3357C82.7153 41.4444 82.5266 41.5829 82.3612 41.7469C82.2015 41.9083 82.0745 42.0993 81.9873 42.3091C81.7336 43.1975 81.4614 44.1558 81.1708 45.1841C80.8802 46.2123 80.5857 47.2517 80.2872 48.3024C79.9888 49.353 79.6976 50.3891 79.4137 51.4106C79.1298 52.4322 78.8587 53.3815 78.6005 54.2587L75.0796 42.3829C74.9919 42.1644 74.8626 41.9649 74.699 41.7955C74.5357 41.6264 74.3467 41.4843 74.139 41.3743C73.9267 41.2621 73.7015 41.1764 73.4684 41.1192C73.2445 41.0594 73.0143 41.0267 72.7826 41.0218C72.2368 41.0152 71.6956 41.1221 71.1932 41.3357C70.954 41.4214 70.7487 41.582 70.6077 41.7935C70.4667 42.0051 70.3975 42.2565 70.4102 42.5105V57.805C70.4102 58.5155 70.8506 58.8708 71.7314 58.8708C72.6122 58.8708 73.0526 58.5155 73.0526 57.805V46.327L73.7014 46.238C74.0893 47.5259 74.4475 48.7007 74.7761 49.7625C75.1048 50.8243 75.4328 51.8638 75.7603 52.8808L77.3716 58.0534C77.438 58.289 77.5891 58.4916 77.7957 58.6224C78.0181 58.7595 78.2724 58.8359 78.5335 58.8439C79.1751 58.8585 79.578 58.6067 79.7423 58.0887L82.4249 49.2103L83.3286 46.327L83.9775 46.3941V57.8067C83.9775 58.5172 84.4179 58.8724 85.2987 58.8724C86.1795 58.8724 86.6198 58.5172 86.6198 57.8067V42.5105C86.636 42.2549 86.5674 42.0011 86.4246 41.7887C86.2817 41.5762 86.0728 41.4169 85.8302 41.3357ZM95.5429 51.7027C95.3175 51.6985 95.0938 51.741 94.8858 51.8277C94.6777 51.9143 94.4898 52.0432 94.334 52.2062C94.018 52.5295 93.841 52.9639 93.841 53.4162C93.841 53.8686 94.018 54.3029 94.334 54.6263C94.4898 54.7892 94.6777 54.9181 94.8858 55.0048C95.0938 55.0914 95.3175 55.134 95.5429 55.1298C95.7698 55.1329 95.9949 55.0899 96.2047 55.0034C96.4145 54.9168 96.6046 54.7885 96.7634 54.6263C96.9231 54.4679 97.0499 54.2794 97.1364 54.0717C97.2229 53.864 97.2674 53.6412 97.2674 53.4162C97.2674 53.1912 97.2229 52.9684 97.1364 52.7607C97.0499 52.553 96.9231 52.3645 96.7634 52.2062C96.6049 52.0433 96.415 51.9144 96.2051 51.8273C95.9953 51.7401 95.77 51.6966 95.5429 51.6993V51.7027ZM100.501 49.7155C99.6422 47.1331 98.7955 44.5692 97.9606 42.0238C97.8381 41.8088 97.6831 41.614 97.5012 41.4464C97.3364 41.2726 97.1211 41.1551 96.8858 41.1108C96.6321 41.0817 96.3862 41.0559 96.1481 41.0336C95.91 41.0112 95.7234 41 95.5881 41C95.454 41 95.2673 41.0112 95.0281 41.0336C94.7889 41.0559 94.5425 41.0895 94.2887 41.1343C94.0441 41.1599 93.8133 41.2608 93.6282 41.4229C93.4438 41.5818 93.3078 41.7895 93.2358 42.0221L88.1355 57.4039C87.912 58.0842 88.2255 58.5575 89.0761 58.8238H89.0543C89.1739 58.8529 89.2896 58.8786 89.4014 58.901C89.5157 58.9235 89.6319 58.9348 89.7484 58.9345C89.9584 58.9393 90.1623 58.8636 90.3185 58.7231C90.4817 58.5727 90.608 58.3866 90.6873 58.1793V58.2011L95.5881 43.2842L100.512 58.2011V58.1793C100.581 58.3922 100.709 58.581 100.881 58.7231C101.04 58.8592 101.242 58.9342 101.451 58.9345C101.561 58.9356 101.67 58.9244 101.777 58.901L102.102 58.8238C102.938 58.5575 103.251 58.0842 103.042 57.4039C102.205 54.8596 101.358 52.2957 100.501 49.7122V49.7155ZM117.938 57.0733L114.355 51.2109C114.548 51.108 114.738 51.0045 114.925 50.9004C115.107 50.7992 115.283 50.6871 115.451 50.5648C116.257 49.9729 116.66 49.0778 116.66 47.8794V44.6403C116.671 44.1022 116.564 43.5684 116.346 43.0761C116.148 42.6381 115.84 42.2592 115.451 41.9768H115.473C115.092 41.7294 114.687 41.5213 114.264 41.3558C113.88 41.1997 113.471 41.1166 113.057 41.1108H106.543C106.192 41.1008 105.846 41.1935 105.547 41.3776C105.271 41.5555 105.133 41.9108 105.133 42.4434V57.8269C105.133 58.5373 105.574 58.8926 106.454 58.8926C107.335 58.8926 107.776 58.5373 107.776 57.8269V43.3497H112.502C113.054 43.3497 113.442 43.5052 113.666 43.8162C113.884 44.1114 114.002 44.4693 114.001 44.8366V47.7032C114.002 48.0706 113.884 48.4284 113.666 48.7236C113.442 49.0347 113.054 49.1902 112.502 49.1902H109.878C109.251 49.1902 108.937 49.5678 108.937 50.3231C108.922 50.6087 108.996 50.8921 109.149 51.1337C109.214 51.2301 109.303 51.3082 109.407 51.3608C109.51 51.4133 109.626 51.4386 109.742 51.4341H111.466L115.696 58.4713L115.674 58.4495C115.754 58.6008 115.873 58.7275 116.019 58.8162C116.164 58.9049 116.332 58.9522 116.502 58.953C116.816 58.9281 117.117 58.821 117.376 58.6425V58.6643C117.883 58.3387 118.137 57.9986 118.137 57.6439C118.132 57.5445 118.109 57.4469 118.07 57.3552C118.034 57.2564 117.989 57.161 117.936 57.0699L117.938 57.0733ZM130.192 41.1108H119.696C119.129 41.1108 118.845 41.4806 118.846 42.2201C118.875 42.9731 119.159 43.3497 119.696 43.3497H123.613V57.8436C123.613 58.5541 124.053 58.9094 124.934 58.9094C125.815 58.9094 126.262 58.5541 126.275 57.8436V43.3497H130.192C130.73 43.3497 130.999 42.9726 130.999 42.2185C131.029 41.48 130.76 41.1108 130.192 41.1108Z" fill="#424242"/>
<path fill-rule="evenodd" clip-rule="evenodd" d="M3.68858 41.041H0.838314C0.615979 41.041 0.402751 41.1294 0.245537 41.2868C0.0883221 41.4442 0 41.6576 0 41.8802L0 58.1599C0 58.3825 0.0883221 58.5959 0.245537 58.7533C0.402751 58.9106 0.615979 58.9991 0.838314 58.9991H3.68858C3.91092 58.9991 4.12415 58.9106 4.28136 58.7533C4.43857 58.5959 4.5269 58.3825 4.5269 58.1599V41.8802C4.5269 41.6576 4.43857 41.4442 4.28136 41.2868C4.12415 41.1294 3.91092 41.041 3.68858 41.041ZM12.407 44.7333H9.55678C9.33445 44.7333 9.12122 44.8217 8.964 44.9791C8.80679 45.1365 8.71847 45.3499 8.71847 45.5725V54.2998C8.71847 54.5223 8.80679 54.7358 8.964 54.8931C9.12122 55.0505 9.33445 55.1389 9.55678 55.1389H12.407C12.6294 55.1389 12.8426 55.0505 12.9998 54.8931C13.157 54.7358 13.2454 54.5223 13.2454 54.2998V45.5725C13.2454 45.3499 13.157 45.1365 12.9998 44.9791C12.8426 44.8217 12.6294 44.7333 12.407 44.7333Z" fill="#7B7B7B"/>
</g>
<defs>
<clipPath id="clip0_1824_2661">
<rect width="131" height="18" fill="white" transform="translate(0 41)"/>
</clipPath>
</defs>
</svg>
