<svg width="133" height="100" viewBox="0 0 133 100" fill="none" xmlns="http://www.w3.org/2000/svg">
<g clip-path="url(#clip0_1824_2723)">
<path fill-rule="evenodd" clip-rule="evenodd" d="M94.0232 41.0732C99.246 39.7666 99.7937 47.3249 95.2157 48.462C92.7694 49.0697 90.9995 47.571 90.9494 45.4204C90.8994 43.2591 92.2523 41.5163 94.0232 41.0732ZM67.3689 67.2789L68.9364 67.2945C69.5352 66.3094 72.8205 60.7703 73.216 60.4625C73.6114 61.1761 74.0876 62.9621 74.3799 63.8207C74.7375 64.8744 75.1718 66.3359 75.5908 67.2877L77.1226 67.3024C77.1307 66.8446 74.0498 57.5631 73.686 57.2867C73.169 57.3916 72.2963 59.1109 71.9979 59.599C71.4665 60.4665 70.9607 61.2644 70.414 62.1475C69.9848 62.8425 67.4056 66.8623 67.3689 67.2789ZM95.0063 61.8966C95.4773 61.4535 95.9167 61.1654 96.4052 60.7762C96.9141 60.3694 100.471 57.7993 100.658 57.3818C100.057 57.0995 98.6226 57.2348 98.221 57.5494C97.5865 58.0454 94.1274 60.887 93.5154 61.135L93.9956 57.321L92.7765 57.3122C92.4424 57.3877 92.7336 57.2622 92.5272 57.423C92.3668 57.6915 91.0833 66.6172 91.1273 67.2985L92.612 67.2936C92.7714 66.5564 92.845 65.8164 92.9635 65.0224C93.0627 64.3549 93.0484 63.3434 93.4561 62.917C93.8842 62.9895 93.7913 63.0885 94.0999 63.4237L96.6106 66.2055C96.9223 66.5819 97.2768 66.9515 97.566 67.3004L99.5668 67.2857C99.4974 66.8152 97.7254 65.0607 97.2881 64.5441L95.0063 61.8966ZM127.192 58.5659C132.566 57.422 132.852 65.2547 127.965 66.082C122.667 66.9789 122.198 59.6284 127.192 58.5659ZM132.86 63.0718C134.337 55.7439 123.693 54.9558 122.301 61.58C120.749 68.9717 131.564 69.5019 132.86 63.0718ZM57.8011 60.1469C58.452 59.746 58.591 59.3108 59.5965 58.8805C61.7741 57.9493 65.1432 58.4041 65.3864 61.4653L60.8759 61.4947L60.7656 62.7797L65.2475 62.7954C64.8949 64.4461 63.5696 65.6556 61.8814 66.032C59.1387 66.6447 58.2794 65.4596 57.1911 64.4412L55.9638 65.1704C56.6239 68.3424 66.0363 69.101 66.9427 62.6611C67.3617 59.6862 65.8054 57.7748 63.403 57.2083C60.8248 56.6006 57.4935 57.8297 56.7414 59.4137C56.9836 59.7215 57.3801 59.9538 57.8011 60.1469ZM80.6092 61.3408C80.9832 59.8734 82.5109 58.6521 84.2746 58.4933C86.3173 58.31 87.8491 59.5235 87.9247 61.3428L80.6092 61.3408ZM80.3006 62.6827C81.6464 62.5788 89.0896 62.7935 89.3308 62.5651C89.6864 62.2279 89.3747 60.5272 89.2317 60.0911C88.2527 57.0985 84.3288 56.0115 81.3439 58.0679C78.9946 59.6862 77.6233 63.1414 79.9429 66.0536C81.8783 68.4825 86.7598 67.6631 88.2967 65.5086C88.1056 65.091 87.6478 64.7862 87.2186 64.5941C86.5994 65.0616 86.489 65.4429 85.4549 65.8468C83.1577 66.7456 80.2985 65.8664 80.3006 62.6827ZM5.1004 63.2973L32.6612 63.9452C32.3423 64.5676 29.3462 66.5006 28.8874 67.2181C27.7072 67.221 13.5461 64.7107 11.0579 64.3079C9.13268 63.9962 6.97757 63.707 5.1004 63.2973ZM6.47379 57.7543C6.82122 56.6349 7.48748 55.2312 7.97184 54.1667C13.4296 42.1681 20.3119 30.4606 28.3264 20.0764C30.9444 16.6849 32.4721 15.0833 35.1566 12.0682C35.5428 11.6339 36.0405 11.2154 36.4318 10.8106C36.7854 10.4459 37.2749 9.87939 37.7174 9.64611L26.9367 62.618L6.47379 57.7543ZM34.8132 32.4632C34.8428 31.5398 39.1153 10.8968 39.618 8.5522C39.8296 7.56514 40.2352 5.98016 40.2965 5.00977C39.5005 5.46066 36.1294 8.95016 35.0717 9.84607C34.4157 10.4018 34.0683 10.9772 33.3836 11.6114C32.8635 12.0937 32.3096 12.8259 31.7967 13.363C30.7227 14.4902 28.2201 17.5965 27.2095 18.8972C25.2659 21.3987 23.4235 23.9668 21.5443 26.6692L19.5731 29.6314C18.6769 31.0066 18.9651 30.2871 16.0671 31.2311C9.21546 33.462 3.1844 39.1305 0.92914 46.5133C-1.44977 54.3 1.01804 62.3965 5.17295 67.2259C12.5324 75.7801 24.5097 78.5178 34.8888 73.4463C40.9883 70.4674 45.5132 65.1165 47.2442 58.7737C49.7601 49.5539 46.3072 40.9193 39.0744 35.047C38.2927 34.4128 35.9526 32.8121 34.8132 32.4632ZM108.277 57.2896C107.11 57.2534 102.143 57.1201 101.424 57.3504C101.281 57.6611 101.211 58.1679 101.254 58.6051L103.857 58.6129C103.734 60.3743 102.61 66.4114 102.736 67.2975L103.908 67.2818C104.255 67.222 104.046 67.2641 104.17 67.1936C104.423 66.7103 105.311 59.7421 105.443 58.6129L108.156 58.5855L108.277 57.2896ZM114.818 58.5022C117.277 58.0542 119.11 59.498 119.104 61.7839C119.098 63.9628 117.532 65.6439 115.672 66.0428C110.05 67.2504 109.576 59.4559 114.818 58.5022ZM111.987 57.3298C111.71 57.2828 111.506 57.2749 111.221 57.2759C110.816 57.2779 110.771 57.2524 110.5 57.3759C110.278 57.8297 108.676 69.5441 108.59 70.8703C109.121 70.883 109.672 70.9281 110.178 70.7978L110.879 65.738C111.634 66.4124 111.93 67.0054 113.281 67.3828C114.413 67.6994 115.801 67.5651 116.834 67.1602C123.026 64.7323 121.219 55.8174 114.617 57.1456C113.298 57.4102 112.804 57.9052 111.884 58.4443L111.987 57.3298ZM130.274 48.8031C130.011 48.5473 128.094 47.2671 127.816 47.1563C127.092 47.5906 127.149 47.9376 126.021 48.3228C123.562 49.1618 120.221 48.1601 120.747 44.746C121.39 40.5733 126.963 40.3342 128.246 42.5151C128.733 42.4083 130.694 41.3712 131.055 41.1007C129.672 38.9109 126.769 37.5357 123.036 38.4708C120.351 39.1432 118.067 41.3271 117.597 44.3216C116.651 50.3459 122.333 52.42 126.849 51.036C128.082 50.6586 129.981 49.5549 130.274 48.8031ZM103.475 55.689L106.856 55.7017C107.18 55.0146 107.684 54.2569 108.096 53.5904L117.085 38.5355L113.695 38.5228C113.045 39.3197 110.078 44.7509 109.223 45.8703C108.915 45.5302 106.694 38.7511 106.632 38.5296L103.495 38.5257C103.687 39.5069 106.023 46.0625 106.552 47.6396C107.244 49.7009 107.409 49.0128 105.74 51.7839L103.475 55.689ZM55.9863 51.0958L59.2818 51.1056L60.6256 41.5682L65.3118 41.579L63.9967 51.0889L67.2146 51.1036C67.4526 50.6802 69.0049 39.7284 69.0416 38.5188L59.3309 38.5218C57.3811 38.5188 57.795 38.2052 57.5375 39.997C57.0112 43.661 56.3777 47.4377 55.9863 51.0958ZM77.611 41.1115C82.8123 40.2136 82.5824 47.9268 78.1608 48.61C72.939 49.4167 72.8215 41.9388 77.611 41.1115ZM80.6204 49.8333L80.4702 51.0967L83.6748 51.0997L85.3619 38.5345L82.142 38.5218L81.911 40.1999C81.1753 39.4128 80.6613 38.6943 79.1755 38.3414C75.7502 37.5269 71.7762 40.1764 71.068 44.0452C69.991 49.9235 75.9168 53.3541 79.898 50.3587C80.1718 50.1528 80.3445 49.9597 80.6204 49.8333ZM91.8405 39.7745L91.9979 38.5179C91.2243 38.5179 89.433 38.4061 88.828 38.6002L86.4798 55.6998L89.712 55.7076L90.5632 49.4226C91.2703 50.1175 91.629 50.8625 93.2486 51.2722C96.7005 52.1446 100.691 49.4177 101.405 45.5782C102.514 39.6078 96.4062 36.3124 92.5681 39.2628C92.2646 39.4951 92.1787 39.6255 91.8405 39.7745Z" fill="#424242"/>
</g>
<defs>
<clipPath id="clip0_1824_2723">
<rect width="133" height="71" fill="white" transform="translate(0 5)"/>
</clipPath>
</defs>
</svg>
