<svg width="298" height="200" viewBox="0 0 298 200" fill="none" xmlns="http://www.w3.org/2000/svg">
<path d="M100.846 87.2084L102.351 87.6609C102.22 88.1135 102.09 88.4367 101.893 88.6953C101.697 88.9538 101.37 89.2124 101.043 89.3417C100.716 89.471 100.323 89.5356 99.7996 89.5356C99.2108 89.5356 98.6874 89.471 98.2949 89.2771C97.9023 89.0831 97.5751 88.7599 97.3135 88.372C97.0517 87.9195 96.9209 87.3377 96.9209 86.6913C96.9209 85.7862 97.1826 85.0751 97.6406 84.558C98.164 84.0408 98.8182 83.8469 99.7342 83.8469C100.454 83.8469 100.977 83.9762 101.435 84.2994C101.828 84.558 102.155 85.0105 102.351 85.5923L100.846 85.9155C100.781 85.7216 100.716 85.5923 100.65 85.5277C100.519 85.3984 100.454 85.269 100.323 85.2044C100.192 85.1398 99.9959 85.0751 99.8651 85.0751C99.4725 85.0751 99.1453 85.2044 98.9491 85.5277C98.7528 85.7862 98.6874 86.1741 98.6874 86.6913C98.6874 87.3377 98.7528 87.7256 98.9491 87.9841C99.1453 88.2427 99.4071 88.3074 99.7342 88.3074C100.061 88.3074 100.323 88.2427 100.519 88.0488C100.65 87.7902 100.781 87.5317 100.846 87.2084Z" fill="#E31E24"/>
<path d="M103.528 83.9116H108.174V85.0752H105.229V85.9802H107.912V87.1438H105.229V88.1781H108.239V89.4711H103.528V83.9116Z" fill="#E31E24"/>
<path d="M109.09 83.9116H114.324V85.2691H112.557V89.4711H110.856V85.2691H109.09V83.9116Z" fill="#E31E24"/>
<path d="M117.137 88.2427H118.053C118.576 88.2427 118.838 88.0488 118.838 87.6609C118.838 87.3377 118.576 87.1438 118.053 87.1438H117.137V88.2427ZM117.137 86.0448H118.053C118.903 86.0448 119.558 86.1741 119.95 86.4973C120.343 86.8205 120.539 87.2731 120.539 87.8549C120.539 88.372 120.343 88.7599 119.95 89.0185C119.558 89.2771 119.034 89.4064 118.315 89.4064H115.305V83.8469H117.071V86.0448H117.137Z" fill="#E31E24"/>
<path d="M124.333 83.9116H126.623L127.539 87.2731L128.39 83.9116H130.679V89.4711H129.24V85.2045L128.128 89.4711H126.884L125.772 85.2045V89.4711H124.333V83.9116Z" fill="#E31E24"/>
<path d="M135.128 87.3378L134.539 85.3337L133.95 87.3378H135.128ZM135.52 88.566H133.557L133.296 89.4711H131.529L133.623 83.9116H135.52L137.614 89.4711H135.782L135.52 88.566Z" fill="#E31E24"/>
<path d="M142.916 85.2691H140.168V89.4711H138.467V83.9116H142.916V85.2691Z" fill="#E31E24"/>
<path d="M147.038 87.3378L146.448 85.3337L145.86 87.3378H147.038ZM147.43 88.566H145.467L145.205 89.4711H143.438L145.532 83.9116H147.43L149.524 89.4711H147.691L147.43 88.566Z" fill="#E31E24"/>
<path d="M153.842 86.4339C154.496 86.6279 154.823 87.0157 154.823 87.6622C154.823 88.1793 154.626 88.6319 154.169 89.0197C153.776 89.343 153.122 89.5369 152.402 89.5369C151.094 89.5369 150.243 89.0197 149.916 87.9208L151.552 87.7915C151.617 88.1793 151.879 88.3733 152.337 88.3733C152.598 88.3733 152.73 88.3087 152.86 88.1793C152.991 88.05 153.057 87.9208 153.057 87.6622C153.057 87.4682 152.991 87.2743 152.795 87.145C152.664 87.0157 152.402 86.9511 152.14 86.9511H151.683V85.9814H152.075C152.271 85.9814 152.467 85.9168 152.598 85.7875C152.73 85.6582 152.795 85.5289 152.795 85.335C152.795 85.0118 152.598 84.8825 152.206 84.8825C151.814 84.8825 151.617 85.0764 151.552 85.3996L149.981 85.2057C150.243 84.236 150.963 83.7835 152.271 83.7835C152.991 83.7835 153.514 83.9128 153.907 84.1713C154.3 84.43 154.496 84.8178 154.496 85.2703C154.561 85.8521 154.365 86.24 153.842 86.4339Z" fill="#E31E24"/>
<path d="M161.365 83.9116V89.4711H159.729V86.4327L157.636 89.4711H156V83.9116H157.636V87.0145L159.795 83.9116H161.365Z" fill="#E31E24"/>
<path d="M162.804 83.9116H164.57V85.8509H166.468V83.9116H168.234V89.4711H166.468V87.2085H164.57V89.4711H162.804V83.9116Z" fill="#E31E24"/>
<path d="M171.178 86.6925C171.178 87.2743 171.309 87.6622 171.505 87.9208C171.701 88.1793 172.028 88.3087 172.356 88.3087C172.748 88.3087 173.01 88.1793 173.206 87.9208C173.403 87.6622 173.534 87.2743 173.534 86.6279C173.534 86.1107 173.403 85.7228 173.206 85.4643C173.01 85.2057 172.683 85.0764 172.356 85.0764C172.028 85.0764 171.701 85.2057 171.505 85.4643C171.244 85.7228 171.178 86.1107 171.178 86.6925ZM169.411 86.6925C169.411 85.7875 169.673 85.0764 170.197 84.5592C170.72 84.0421 171.44 83.7835 172.356 83.7835C173.272 83.7835 173.991 84.0421 174.515 84.5592C175.038 85.0764 175.3 85.7228 175.3 86.6279C175.3 87.2743 175.169 87.7915 174.973 88.244C174.777 88.6319 174.45 88.9551 173.991 89.2137C173.599 89.4723 173.075 89.5369 172.421 89.5369C171.767 89.5369 171.244 89.4076 170.85 89.2137C170.458 89.0197 170.131 88.6965 169.869 88.244C169.542 87.8561 169.411 87.339 169.411 86.6925Z" fill="#E31E24"/>
<path d="M178.245 88.2428H179.161C179.488 88.2428 179.684 88.1782 179.815 88.1135C179.946 87.9842 180.012 87.8549 180.012 87.661C180.012 87.467 179.946 87.3378 179.815 87.2731C179.684 87.1438 179.488 87.1438 179.161 87.1438H178.31V88.2428H178.245ZM178.245 86.1095H179.03C179.292 86.1095 179.488 86.0449 179.619 85.9802C179.75 85.9155 179.75 85.7216 179.75 85.5923C179.75 85.4631 179.684 85.3337 179.619 85.2045C179.488 85.1398 179.357 85.0752 179.096 85.0752H178.31V86.1095H178.245ZM176.479 83.9116H179.75C180.273 83.9116 180.731 84.0409 180.993 84.2995C181.255 84.558 181.451 84.8813 181.451 85.2691C181.451 85.5923 181.32 85.8509 181.124 86.1095C180.993 86.2388 180.797 86.3681 180.535 86.4973C180.928 86.562 181.255 86.756 181.451 87.0145C181.647 87.2731 181.712 87.5317 181.712 87.9196C181.712 88.1782 181.647 88.4367 181.516 88.6953C181.385 88.9539 181.189 89.0832 180.928 89.2124C180.797 89.2771 180.535 89.3418 180.273 89.4064C179.881 89.4711 179.619 89.4711 179.488 89.4711H176.479V83.9116Z" fill="#E31E24"/>
<path d="M186.356 85.6579H187.534L186.487 87.4033L187.534 89.1487H186.356L185.113 87.4033L186.356 85.6579ZM188.319 85.6579H189.497L188.45 87.4033L189.497 89.1487H188.319L187.076 87.4033L188.319 85.6579Z" fill="#E31E24"/>
<path d="M190.022 83.9116H191.92L192.705 86.1742L193.49 83.9116H195.256L193.425 88.1781C193.294 88.5014 193.163 88.76 193.032 88.9539C192.901 89.1478 192.77 89.2771 192.509 89.4064C192.312 89.5357 191.985 89.6003 191.593 89.6003C191.397 89.6003 191.004 89.6003 190.546 89.5357V88.3721C190.807 88.3721 191.069 88.4367 191.2 88.4367C191.593 88.4367 191.854 88.3074 191.92 87.9842L190.022 83.9116Z" fill="#E31E24"/>
<path d="M202.126 88.1781V85.2691H200.752V85.3337C200.752 86.1095 200.621 87.0145 200.36 88.1781H202.126ZM204.481 90.6993H203.107V89.4711H199.509V90.6993H198.135V88.1781H198.723C199.051 87.2731 199.182 86.2388 199.182 85.1398V83.9116H203.892V88.1781H204.481V90.6993Z" fill="#E31E24"/>
<path d="M206.969 86.6925C206.969 87.2743 207.099 87.6622 207.295 87.9208C207.492 88.1793 207.819 88.3087 208.146 88.3087C208.538 88.3087 208.8 88.1793 208.997 87.9208C209.193 87.6622 209.324 87.2743 209.324 86.6279C209.324 86.1107 209.193 85.7228 208.997 85.4643C208.8 85.2057 208.473 85.0764 208.146 85.0764C207.819 85.0764 207.492 85.2057 207.295 85.4643C207.034 85.7228 206.969 86.1107 206.969 86.6925ZM205.202 86.6925C205.202 85.7875 205.464 85.0764 205.987 84.5592C206.51 84.0421 207.23 83.7835 208.146 83.7835C209.062 83.7835 209.782 84.0421 210.305 84.5592C210.828 85.0764 211.091 85.7228 211.091 86.6279C211.091 87.2743 210.959 87.7915 210.763 88.244C210.567 88.6319 210.24 88.9551 209.782 89.2137C209.389 89.4723 208.866 89.5369 208.212 89.5369C207.557 89.5369 207.034 89.4076 206.641 89.2137C206.249 89.0197 205.856 88.6965 205.66 88.244C205.332 87.8561 205.202 87.339 205.202 86.6925Z" fill="#E31E24"/>
<path d="M212.266 83.9116H214.556L215.406 87.2731L216.257 83.9116H218.547V89.4711H217.108V85.2045L216.061 89.4711H214.752L213.64 85.2045V89.4711H212.266V83.9116Z" fill="#E31E24"/>
<path d="M223.063 87.3378L222.474 85.3337L221.886 87.3378H223.063ZM223.39 88.566H221.427L221.166 89.4711H219.399L221.493 83.9116H223.39L225.484 89.4711H223.652L223.39 88.566Z" fill="#E31E24"/>
<path d="M229.276 85.6579H228.098L229.145 87.4033L228.098 89.1487H229.276L230.519 87.4033L229.276 85.6579ZM227.248 85.6579H226.07L227.117 87.4033L226.07 89.1487H227.248L228.491 87.4033L227.248 85.6579Z" fill="#E31E24"/>
<path fill-rule="evenodd" clip-rule="evenodd" d="M80.6932 106.021C80.2352 106.538 79.6463 106.926 79.0575 107.055C78.4687 107.184 77.4873 107.249 76.1788 107.249C76.0479 107.249 75.917 107.249 75.7862 107.249H70.9447V100.784H76.1788C78.0761 100.784 79.3847 101.043 80.2352 101.56C81.0857 102.077 81.4783 102.918 81.4783 104.017C81.4129 104.792 81.1512 105.439 80.6932 106.021ZM85.3385 99.8148C84.4879 98.5865 83.4411 97.8108 82.198 97.3583C80.9549 96.9058 79.4501 96.7118 77.6182 96.7118H70.8792V92.8331H84.4225V88.6958H65.9068V111.386H77.6182C79.6463 111.386 81.282 111.192 82.3943 110.74C83.5065 110.287 84.4879 109.512 85.3385 108.348C86.189 107.184 86.647 105.762 86.647 104.081C86.5816 102.401 86.189 100.978 85.3385 99.8148ZM74.7394 118.497C84.8805 118.497 93.1242 110.352 93.1242 100.332C93.1242 90.312 84.8805 82.1667 74.7394 82.1667C64.5983 82.1667 56.3545 90.312 56.3545 100.332C56.3545 110.287 64.5983 118.497 74.7394 118.497Z" fill="#E31E24"/>
<path fill-rule="evenodd" clip-rule="evenodd" d="M108.762 106.732C108.042 107.637 107.126 108.025 106.014 108.025C105.949 108.025 105.949 108.025 105.883 108.025C104.771 107.96 103.855 107.507 103.07 106.602C102.285 105.633 101.892 104.21 101.892 102.207C101.892 100.461 102.285 99.1682 103.07 98.2632C103.855 97.3581 104.771 96.9703 105.883 96.9056C106.996 96.9056 107.912 97.3581 108.697 98.2632C109.482 99.1682 109.809 100.526 109.809 102.4C109.874 104.404 109.482 105.827 108.762 106.732ZM112.361 95.6127C110.79 93.8027 108.173 93.027 105.883 93.0916C103.986 93.1562 102.285 93.8673 101.5 95.1602V93.6088H97.0508V118.174H101.827V109.964C102.874 111.063 104.378 111.645 105.883 111.774C108.239 111.968 110.79 111.063 112.361 109.253C113.8 107.637 114.585 105.31 114.585 102.336C114.52 99.4914 113.8 97.2935 112.361 95.6127Z" fill="#E31E24"/>
<path fill-rule="evenodd" clip-rule="evenodd" d="M119.101 93.6085H123.615V104.727L130.943 93.6085H135.654V111.386H131.074V100.008L123.615 111.386H119.101V93.6085Z" fill="#E31E24"/>
<path fill-rule="evenodd" clip-rule="evenodd" d="M157.047 98.8456L152.336 99.686C152.206 98.7809 151.813 98.0698 151.289 97.6173C150.7 97.1648 149.981 96.9062 149.13 96.9062C147.953 96.9062 146.971 97.2941 146.317 98.1345C145.598 98.9749 145.27 100.268 145.27 102.207C145.27 104.34 145.598 105.827 146.317 106.668C147.037 107.508 148.018 107.961 149.196 107.961C150.112 107.961 150.831 107.702 151.42 107.185C152.009 106.668 152.402 105.827 152.663 104.599L157.308 105.375C156.851 107.508 155.869 109.124 154.495 110.158C153.122 111.257 151.289 111.775 148.934 111.775C146.317 111.775 144.223 110.934 142.653 109.318C141.083 107.702 140.298 105.439 140.298 102.53C140.298 99.6213 141.083 97.2941 142.653 95.678C144.223 94.0619 146.317 93.2214 149 93.2214C151.159 93.2214 152.925 93.674 154.234 94.6437C155.542 95.5487 156.458 96.9709 157.047 98.8456Z" fill="#E31E24"/>
<path fill-rule="evenodd" clip-rule="evenodd" d="M159.729 93.6085H175.955V97.4226H170.198V111.386H165.422V97.4226H159.729V93.6085Z" fill="#E31E24"/>
<path fill-rule="evenodd" clip-rule="evenodd" d="M190.807 106.538C189.957 107.443 188.911 107.96 187.667 107.96C186.424 107.96 185.377 107.508 184.527 106.538C183.676 105.569 183.284 104.276 183.284 102.466C183.284 100.72 183.676 99.3627 184.527 98.393C185.377 97.488 186.424 96.9708 187.667 96.9708C188.911 96.9708 189.957 97.4233 190.807 98.393C191.658 99.3627 192.051 100.656 192.051 102.401C192.051 104.211 191.658 105.569 190.807 106.538ZM194.341 95.8072C192.574 94.0618 190.35 93.1567 187.667 93.1567C185.901 93.1567 184.33 93.5446 182.891 94.3203C181.452 95.0961 180.34 96.1951 179.554 97.6819C178.769 99.1687 178.377 100.656 178.377 102.207C178.377 104.276 178.769 105.957 179.554 107.379C180.34 108.801 181.452 109.9 182.956 110.611C184.462 111.322 186.032 111.71 187.667 111.71C190.35 111.71 192.509 110.805 194.275 109.059C196.042 107.314 196.892 105.051 196.892 102.401C196.958 99.7505 196.107 97.5526 194.341 95.8072Z" fill="#E31E24"/>
<path fill-rule="evenodd" clip-rule="evenodd" d="M202.257 93.6085H218.156V111.386H213.445V97.4226H206.968V105.374C206.968 107.378 206.706 108.8 206.249 109.64C205.79 110.481 205.267 110.998 204.678 111.257C204.09 111.515 203.173 111.644 201.93 111.644C201.145 111.644 200.164 111.515 198.921 111.321V107.895C199.051 107.895 199.313 107.895 199.706 107.895C200.229 107.96 200.556 107.96 200.884 107.96C201.537 107.96 201.93 107.766 202.061 107.313C202.192 106.925 202.257 105.762 202.257 103.822V93.6085Z" fill="#E31E24"/>
<path fill-rule="evenodd" clip-rule="evenodd" d="M236.147 107.701C235.755 108.154 234.904 108.348 233.465 108.348H229.016V103.822H232.091C232.353 103.822 232.614 103.822 232.81 103.822C234.119 103.887 235.1 104.016 235.624 104.275C236.278 104.598 236.605 105.18 236.605 106.02C236.736 106.731 236.54 107.249 236.147 107.701ZM240.662 103.111C240.008 102.206 239.157 101.624 238.175 101.366C237.194 101.107 235.755 100.978 233.857 100.978H229.081V93.6085H224.305V111.386H234.512C236.867 111.386 238.699 110.933 239.877 110.093C241.054 109.253 241.643 107.96 241.643 106.214C241.643 105.051 241.316 104.016 240.662 103.111Z" fill="#E31E24"/>
</svg>
