<svg width="80" height="87" viewBox="0 0 80 87" fill="none" xmlns="http://www.w3.org/2000/svg">
<circle cx="10" cy="53.5" r="4" fill="#ECECEC"/>
<path d="M38.9101 64.636H41.091C41.9341 64.0303 42.7449 63.3995 43.5211 62.7451H36.48C37.2562 63.3995 38.067 64.0303 38.9101 64.636Z" fill="#F05555"/>
<path d="M34.3998 60.8542H45.6013C46.2266 60.2406 46.8235 59.6099 47.3907 58.9633H32.6103C33.1775 59.6099 33.7745 60.2406 34.3998 60.8542Z" fill="#F05555"/>
<path d="M31.0713 57.0724H48.9298C49.3953 56.4543 49.8348 55.8237 50.2472 55.1815H29.7539C30.1662 55.8237 30.6057 56.4543 31.0713 57.0724Z" fill="#F05555"/>
<path d="M28.6369 53.2906H51.3641C51.6999 52.6695 52.011 52.039 52.2965 51.3996H27.7046C27.99 52.039 28.3011 52.6695 28.6369 53.2906Z" fill="#F05555"/>
<path d="M26.9446 49.5087H53.0564C53.2796 48.8856 53.4788 48.2551 53.6532 47.6178H26.3478C26.5223 48.2551 26.7215 48.8856 26.9446 49.5087Z" fill="#F05555"/>
<path d="M25.907 45.7269H54.0941C54.2146 45.1022 54.3116 44.4717 54.3844 43.836H25.6167C25.6895 44.4717 25.7865 45.1022 25.907 45.7269Z" fill="#F05555"/>
<path d="M25.4729 41.9451H54.5281C54.54 41.631 54.546 41.3157 54.546 40.9994C54.546 40.6833 54.54 40.3682 54.5281 40.0542H25.4729C25.4611 40.3682 25.4551 40.6833 25.4551 40.9994C25.4551 41.3157 25.4611 41.631 25.4729 41.9451Z" fill="#F05555"/>
<path d="M25.6167 38.1633H54.3844C54.3117 37.5276 54.2147 36.8971 54.0942 36.2724H25.9069C25.7864 36.8971 25.6894 37.5276 25.6167 38.1633Z" fill="#F05555"/>
<path d="M26.3477 34.3815H53.6534C53.4789 33.7442 53.2797 33.1137 53.0566 32.4906H26.9445C26.7214 33.1137 26.5222 33.7442 26.3477 34.3815Z" fill="#F05555"/>
<path d="M27.7044 30.5996H52.2967C52.0112 29.9603 51.7001 29.3298 51.3644 28.7087H28.6367C28.3009 29.3298 27.9899 29.9603 27.7044 30.5996Z" fill="#F05555"/>
<path d="M29.7536 26.8178H50.2475C49.8351 26.1756 49.3956 25.545 48.9301 24.9269H31.071C30.6055 25.545 30.166 26.1756 29.7536 26.8178Z" fill="#F05555"/>
<path d="M32.61 23.036H47.3911C46.8239 22.3894 46.2269 21.7587 45.6017 21.1451H34.3994C33.7741 21.7587 33.1772 22.3894 32.61 23.036Z" fill="#F05555"/>
<path d="M36.4795 19.2542H43.5216C42.7453 18.5998 41.9346 17.969 41.0916 17.3633H38.9095C38.0664 17.969 37.2557 18.5998 36.4795 19.2542Z" fill="#F05555"/>
<path d="M79.0005 40.9993C79.0005 55.5093 67.2378 67.272 52.7278 67.272C38.2178 67.272 26.4551 55.5093 26.4551 40.9993C26.4551 26.4893 38.2178 14.7266 52.7278 14.7266C67.2378 14.7266 79.0005 26.4893 79.0005 40.9993Z" stroke="#F05555" stroke-width="2"/>
<g filter="url(#filter0_d_2173_1916)">
<circle cx="27.2727" cy="40.9993" r="26.2727" stroke="#F05555" stroke-width="2" shape-rendering="crispEdges"/>
</g>
<defs>
<filter id="filter0_d_2173_1916" x="0" y="13.7266" width="63.8792" height="73.2116" filterUnits="userSpaceOnUse" color-interpolation-filters="sRGB">
<feFlood flood-opacity="0" result="BackgroundImageFix"/>
<feColorMatrix in="SourceAlpha" type="matrix" values="0 0 0 0 0 0 0 0 0 0 0 0 0 0 0 0 0 0 127 0" result="hardAlpha"/>
<feOffset dx="4.66667" dy="14"/>
<feGaussianBlur stdDeviation="2.33333"/>
<feComposite in2="hardAlpha" operator="out"/>
<feColorMatrix type="matrix" values="0 0 0 0 0 0 0 0 0 0 0 0 0 0 0 0 0 0 0.25 0"/>
<feBlend mode="normal" in2="BackgroundImageFix" result="effect1_dropShadow_2173_1916"/>
<feBlend mode="normal" in="SourceGraphic" in2="effect1_dropShadow_2173_1916" result="shape"/>
</filter>
</defs>
</svg>
