<svg width="80" height="81" viewBox="0 0 80 81" fill="none" xmlns="http://www.w3.org/2000/svg">
<circle cx="35" cy="61.5" r="4" fill="#ECECEC"/>
<circle cx="40" cy="40.5" r="39" stroke="#F05555" stroke-width="2"/>
<path d="M70.1109 40.5C70.1109 62.2875 56.4104 79.5 39.9998 79.5C23.5892 79.5 9.88867 62.2875 9.88867 40.5C9.88867 18.7125 23.5892 1.5 39.9998 1.5C56.4104 1.5 70.1109 18.7125 70.1109 40.5Z" stroke="#F05555" stroke-width="2"/>
<path d="M61.2228 40.5C61.2228 51.4085 58.7642 61.2348 54.8399 68.2986C50.8967 75.3963 45.609 79.5 40.0005 79.5C34.3921 79.5 29.1044 75.3963 25.1612 68.2986C21.2369 61.2348 18.7783 51.4085 18.7783 40.5C18.7783 29.5915 21.2369 19.7652 25.1612 12.7014C29.1044 5.60367 34.3921 1.5 40.0005 1.5C45.609 1.5 50.8967 5.60367 54.8399 12.7014C58.7642 19.7652 61.2228 29.5915 61.2228 40.5Z" stroke="#F05555" stroke-width="2"/>
<path d="M52.3327 40.5C52.3327 51.4681 50.8493 61.3564 48.4788 68.468C47.2917 72.0291 45.9003 74.8388 44.4039 76.7376C42.8985 78.6478 41.4026 79.5 39.9993 79.5C38.5961 79.5 37.1002 78.6478 35.5948 76.7376C34.0984 74.8388 32.707 72.0291 31.5199 68.468C29.1494 61.3564 27.666 51.4681 27.666 40.5C27.666 29.5319 29.1494 19.6436 31.5199 12.532C32.707 8.9709 34.0984 6.16124 35.5948 4.26237C37.1002 2.35223 38.5961 1.5 39.9993 1.5C41.4026 1.5 42.8985 2.35223 44.4039 4.26237C45.9003 6.16124 47.2917 8.9709 48.4788 12.532C50.8493 19.6436 52.3327 29.5319 52.3327 40.5Z" stroke="#F05555" stroke-width="2"/>
</svg>
