<svg width="298" height="200" viewBox="0 0 298 200" fill="none" xmlns="http://www.w3.org/2000/svg">
<g clip-path="url(#clip0_1450_5666)">
<path d="M195 58H103V143H195V58Z" fill="#ECECEC"/>
<path d="M123.685 94.3572V91.4108C123.685 90.021 123.288 89.6875 122.492 89.6875C121.697 89.6875 121.299 90.021 121.299 91.4108V94.802C121.299 96.8032 127.549 102.251 127.549 105.031V109.923C127.549 113.536 124.879 114.593 122.492 114.593C120.105 114.593 117.435 113.536 117.435 109.923V108.422L121.299 106.198V109.589C121.299 110.979 121.697 111.313 122.492 111.313C123.231 111.313 123.685 110.979 123.685 109.589V106.699C123.685 102.807 117.435 99.5272 117.435 95.0243V91.0773C117.435 87.4639 120.105 86.4076 122.492 86.4076C124.879 86.4076 127.549 87.4639 127.549 91.0773V92.078L123.685 94.3572Z" fill="#9B9B9B"/>
<path d="M149.595 110.868H152.721L153.801 114.593H145.731V86.4076H149.595V110.868Z" fill="#9B9B9B"/>
<path d="M180.566 86.4075V90.132H176.873V114.593H173.008V90.132H169.599L169.201 86.4075H180.566Z" fill="#9B9B9B"/>
<path d="M165.28 86.4075H159.484L156.529 114.593H160.052L160.905 107.088H163.632L164.371 114.593H168.292L165.28 86.4075ZM161.246 103.363L162.098 93.0229H162.553L163.235 103.363H161.246Z" fill="#9B9B9B"/>
<path d="M135.617 86.4075H131.582V114.593H135.446V89.7985C137.037 89.7985 137.833 89.8541 137.833 92.5225V99.2491C137.833 100.139 137.037 100.417 136.128 100.528L137.037 103.863C140.106 103.53 141.697 102.14 141.697 98.1373V91.9111C141.64 88.1307 139.879 86.4075 135.617 86.4075Z" fill="#9B9B9B"/>
<path d="M181.644 83.0161V80.4033H182.837C183.064 80.4033 183.235 80.4033 183.405 80.4588L183.689 80.6812C183.746 80.7923 183.803 80.9035 183.803 81.0704C183.803 81.237 183.746 81.4038 183.632 81.5151C183.519 81.6262 183.348 81.7375 183.064 81.7375L183.291 81.8486C183.405 81.9598 183.462 82.0709 183.576 82.1822L184.03 82.9048H183.576L183.235 82.349C183.121 82.1822 183.064 82.0709 183.007 82.0154L182.837 81.8486L182.666 81.793H182.496H181.984V83.0161H181.644ZM181.984 81.5706H182.723C182.894 81.5706 183.007 81.5706 183.121 81.5151L183.348 81.3483L183.405 81.1259L183.235 80.848C183.178 80.7923 183.007 80.7367 182.78 80.7367H181.984V81.5706Z" fill="#9B9B9B"/>
<path d="M180.167 81.7933C180.167 83.1275 181.304 84.2393 182.724 84.2393C184.088 84.2393 185.224 83.1275 185.224 81.7933C185.224 80.4591 184.088 79.3473 182.724 79.3473C181.304 79.3473 180.167 80.4591 180.167 81.7933ZM180.451 81.7933C180.451 80.5702 181.474 79.6252 182.667 79.6252C183.861 79.6252 184.884 80.5702 184.884 81.7933C184.884 82.9607 183.917 83.9614 182.667 83.9614C181.474 83.9614 180.451 83.0164 180.451 81.7933Z" fill="#9B9B9B"/>
</g>
<defs>
<clipPath id="clip0_1450_5666">
<rect width="92" height="85" fill="white" transform="translate(103 58)"/>
</clipPath>
</defs>
</svg>
