<svg width="133" height="100" viewBox="0 0 133 100" fill="none" xmlns="http://www.w3.org/2000/svg">
<path d="M10.7075 87.2992H16.2103C17.0767 87.2992 17.5964 86.7573 17.5964 86.0204C17.5964 85.2409 17.0545 84.7434 16.275 84.7434H10.7075V87.2992V87.2992ZM10.7075 82.3817H15.7997C16.3841 82.3817 16.7734 81.8408 16.7734 81.298C16.7734 80.7793 16.4923 80.1939 15.5815 80.1939H10.7075V82.3817V82.3817ZM15.7119 77.7676C17.8784 77.7676 19.4161 79.0233 19.4161 80.9735C19.4161 81.8408 19.1128 82.5769 18.485 83.0096C19.5891 83.5727 20.24 84.5474 20.24 86.0204C20.24 88.0787 18.5719 89.7468 16.2972 89.7468H8V77.7676H15.7119Z" fill="#001D4A"/>
<path d="M30.1173 87.7338C32.3699 87.7338 34.1249 86.2395 34.1249 83.7697C34.1249 81.2998 32.3699 79.8065 30.1173 79.8065C27.8639 79.8065 26.1098 81.2998 26.1098 83.7697C26.1098 86.2395 27.8639 87.7338 30.1173 87.7338V87.7338ZM30.1173 90.052C26.4778 90.052 23.4014 87.5387 23.4014 83.7697C23.4014 80.0007 26.4778 77.4883 30.1173 77.4883C33.756 77.4883 36.8324 80.0007 36.8324 83.7697C36.8324 87.5387 33.756 90.052 30.1173 90.052Z" fill="#001D4A"/>
<path d="M43.2592 84.614H47.5054C48.8915 84.614 49.8448 83.8558 49.8448 82.4697C49.8448 81.0836 48.8915 80.2375 47.5054 80.2375H43.2592V84.614ZM47.6136 77.7695C50.4301 77.7695 52.5523 79.6531 52.5523 82.4697C52.5523 84.3107 51.6424 85.6968 50.2341 86.4551L52.0761 89.7479H49.13L47.7217 87.0839H43.2592V89.7479H40.5518V77.7695H47.6136V77.7695Z" fill="#001D4A"/>
<path d="M67.7542 77.7676V80.2152H59.5883V82.4243H66.9322V84.8728H59.5883V87.2558H68.0575V89.7468H56.8809V77.7676H67.7542Z" fill="#001D4A"/>
<path d="M74.1905 77.7676L78.0242 84.1581H78.198L81.9023 77.7676H85L79.3678 86.7573V89.7468H76.7038V86.7573L71.0928 77.7676H74.1905Z" fill="#001D4A"/>
<path d="M15.9528 26.033C16.2588 27.0779 16.7554 28.12 17.4803 29.0576C18.4956 30.3698 19.5858 31.6375 20.4717 33.0338C21.6155 34.8351 22.1111 36.9165 22.6327 38.9684C22.7122 39.2791 22.7631 39.5306 23.1986 39.5389C25.3263 39.5842 27.3717 40.1113 29.4356 40.5912C34.0913 41.6731 38.2737 40.6643 41.6663 37.2383C43.4205 35.4666 45.3272 34.013 47.6241 33.0893C50.4037 31.9722 53.2138 30.9329 55.9878 29.8066C59.5895 28.3447 62.3663 26.0043 63.8939 22.3185C65.722 17.9078 63.3002 13.4027 58.589 12.5456C55.7299 12.025 53.0418 12.6075 50.4592 13.8383C48.0874 14.9682 45.7387 16.1472 43.341 17.218C39.2243 19.0572 34.9726 20.4886 30.5017 21.2117C27.7277 21.6611 24.9462 22.0781 22.3469 23.2534C20.2581 24.1984 18.1433 25.0833 15.9528 26.033ZM25.857 65.8637C27.6075 65.6954 29.2941 65.6224 30.9511 65.357C36.8155 64.4221 42.0427 62.2159 45.8894 57.4685C47.4835 55.5017 49.4577 54.1896 51.9266 53.7115C55.0881 53.0976 58.2607 52.5205 61.4453 52.0388C65.4871 51.4276 68.7448 49.642 70.9002 46.0857C73.5383 41.7304 72.5314 36.3312 68.4683 33.4739C65.5491 31.4211 62.2489 30.7211 58.7397 31.3425C55.5902 31.8992 52.6497 33.1586 49.6917 34.3274C47.1673 35.3251 45.0877 36.9036 43.2642 38.9499C40.3598 42.2122 36.5344 43.2783 32.2817 42.8678C30.6118 42.7069 28.9704 42.2658 27.3032 42.0568C26.0096 41.8941 24.6956 41.8941 23.2836 41.8155C24.9092 49.8075 25.6943 57.7552 25.857 65.8637V65.8637ZM22.9988 68.9448C22.9988 68.1311 23.0127 67.3765 22.9961 66.622C22.8583 60.4664 22.764 54.3061 21.7709 48.2078C20.9423 43.1221 19.9872 38.0631 18.3495 33.1605C17.5663 30.8155 16.3226 28.7802 14.4224 27.1583C13.5819 26.4408 13.04 25.5096 12.7783 24.5535C15.7429 23.4226 18.6084 22.1863 21.5684 21.2487C23.5278 20.6282 25.6138 20.3786 27.6592 20.0642C33.1685 19.219 38.3541 17.3844 43.3696 15.0219C46.0244 13.7717 48.6098 12.368 51.3043 11.214C54.156 9.99252 57.1603 9.66703 60.2331 10.355C65.894 11.6227 68.3842 17.3493 66.7262 22.2594C65.9513 24.5517 64.5966 26.4528 62.8527 28.0987C62.6733 28.268 62.4902 28.4326 62.3127 28.6036C62.2896 28.6267 62.2923 28.6757 62.2748 28.7479C62.9831 28.8413 63.6914 28.9004 64.3877 29.0308C69.4707 29.9786 73.1509 32.6963 74.7968 37.6997C75.9924 41.3337 75.2832 44.8105 73.26 48.009C70.6478 52.1387 66.7974 54.27 62.0196 54.9414C58.2616 55.4703 54.5148 56.0889 50.7689 56.7029C47.6823 57.2087 45.2587 58.7945 43.1736 61.1275C39.2853 65.4781 34.2014 67.5504 28.5285 68.3437C26.9038 68.5712 25.268 68.7219 23.6369 68.905C23.4603 68.9244 23.2809 68.9272 22.9988 68.9448V68.9448Z" fill="#001D4A"/>
<path d="M30.9398 59.8512C31.2145 59.8512 31.4151 59.8494 31.6158 59.8512C35.3154 59.8882 38.7303 58.8008 42.0286 57.2325C44.8175 55.9084 47.2836 54.1774 49.0682 51.6169C50.36 49.7639 52.0661 48.5285 54.24 47.9913C56.2706 47.4892 58.3188 47.0592 60.3697 46.6468C62.2163 46.275 63.8354 45.5371 65.0708 44.066C67.2392 41.4843 66.5512 38.0796 63.5423 36.5622C62.0915 35.8298 60.5158 35.4322 58.9476 35.7947C56.5378 36.3532 54.1623 37.0865 51.8081 37.8539C49.6009 38.5715 47.8467 39.9493 46.4773 41.8449C45.9178 42.6179 45.2835 43.3928 44.5271 43.9606C41.115 46.5201 37.297 47.638 33.0167 46.9843C31.8534 46.8077 30.6735 46.7355 29.4104 46.6052C30.2593 51.0668 30.9139 55.3998 30.9398 59.8512V59.8512ZM28.4802 62.7344C28.3442 56.5233 27.4417 50.4028 26.3164 44.2315C26.8342 44.2315 27.3012 44.188 27.758 44.2389C29.7137 44.458 31.6611 44.8177 33.6233 44.9176C38.1616 45.1497 42.172 43.9005 45.0893 40.2017C46.7362 38.1156 48.7797 36.65 51.257 35.7901C53.4836 35.0161 55.713 34.2199 57.9951 33.6457C60.5926 32.9929 63.1419 33.3979 65.511 34.6758C69.4973 36.8266 70.593 41.3289 68.0455 45.0739C66.2627 47.6944 63.6662 48.8965 60.6138 49.3931C58.0654 49.8083 55.5299 50.3279 53.012 50.9031C50.9934 51.3654 49.28 52.427 48.0548 54.1247C45.1864 58.099 41.0984 60.1832 36.6026 61.6923C34.0495 62.5495 31.404 62.6216 28.764 62.7899C28.6882 62.7945 28.6087 62.7603 28.4802 62.7344V62.7344Z" fill="#001D4A"/>
<path d="M22.2232 28.7357C22.2445 28.8143 22.276 28.9512 22.3176 29.0843C23.147 31.7271 24.4073 34.1664 25.8647 36.5067C25.996 36.7176 26.2946 36.8831 26.548 36.9515C30.7951 38.0944 34.5243 36.8609 37.7995 34.2071C39.6119 32.7387 41.4983 31.5393 43.6759 30.7034C47.3515 29.2942 50.9985 27.8064 54.6214 26.2668C56.6104 25.4216 58.1342 24.0013 58.9757 21.9587C59.9697 19.549 58.8684 17.4555 56.3265 16.921C54.9626 16.6334 53.619 16.8036 52.3439 17.3371C50.9818 17.9077 49.6512 18.5503 48.3049 19.1569C43.8229 21.1764 39.2596 22.9537 34.3921 23.8182C32.3226 24.1853 30.2939 24.6856 28.4011 25.6251C26.364 26.6367 24.3371 27.6705 22.2232 28.7357V28.7357ZM19.0137 27.3006C22.1419 25.9561 25.1758 24.4942 28.3271 23.3559C30.2356 22.6661 32.3254 22.4774 34.3329 22.0613C37.9669 21.3068 41.4345 20.0465 44.8216 18.5605C47.1888 17.523 49.5051 16.3699 51.8797 15.35C53.8705 14.4956 55.9585 14.2404 58.0806 14.8525C61.3327 15.7911 62.7345 18.7501 61.4585 22.0133C60.4894 24.4933 58.751 26.363 56.3931 27.5013C53.8104 28.7459 51.1113 29.751 48.4519 30.8347C46.2484 31.7326 43.9792 32.4964 42.0142 33.8825C41.33 34.3652 40.7049 34.9366 40.0844 35.5016C36.3959 38.8628 32.1812 40.015 27.3377 38.5734C26.5517 38.3385 25.762 38.1157 24.9816 37.8623C24.8059 37.805 24.5756 37.6774 24.5202 37.5276C23.6981 35.2991 22.2288 33.4636 20.9268 31.5264C20.0512 30.2244 19.4464 28.7958 19.0137 27.3006V27.3006Z" fill="#001D4A"/>
<path d="M35.1924 51.9385C35.2839 52.5756 35.3995 53.1785 35.4476 53.786C35.4892 54.3085 35.7176 54.4 36.204 54.3408C38.5564 54.0514 40.7497 53.2553 42.8876 52.2853C45.706 51.0083 48.137 49.2634 49.8144 46.5791C50.752 45.0801 52.1353 44.0778 53.8081 43.5516C55.5474 43.0042 57.32 42.5595 59.0825 42.0879C59.9739 41.8493 60.4806 41.3416 60.3373 40.7646C60.1986 40.2024 59.4773 39.8843 58.6211 40.1109C56.817 40.5871 55.0065 41.0568 53.2366 41.6412C51.4797 42.221 50.0419 43.29 49.0099 44.8675C48.2202 46.0751 47.3298 47.206 46.1388 48.0502C42.8857 50.3555 39.2998 51.7406 35.1924 51.9385V51.9385ZM32.3896 49.1941C32.9491 49.2514 33.4521 49.2939 33.9524 49.3559C37.3811 49.7822 40.488 48.7613 43.4766 47.2319C45.1105 46.396 46.5456 45.2836 47.5221 43.719C49.0275 41.3074 51.2513 39.9703 53.8922 39.1973C55.2904 38.7886 56.6811 38.3263 58.1051 38.0461C58.966 37.8759 59.9091 37.8796 60.7765 38.0313C62.2514 38.2893 63.2038 39.2925 63.3656 40.4863C63.5256 41.6616 62.8201 43.0338 61.5005 43.609C60.3678 44.1018 59.1232 44.3348 57.9266 44.6798C56.5091 45.0894 55.0758 45.4509 53.6768 45.9151C52.1945 46.4061 50.9749 47.3179 50.1177 48.6318C47.8827 52.0587 44.5816 54.0348 40.894 55.4985C38.7089 56.3659 36.474 57.0261 34.0966 57.0779C33.2866 57.0955 33.3051 57.1047 33.2191 56.3039C32.9935 54.2031 32.7429 52.1059 32.5006 50.0069C32.4729 49.7674 32.4359 49.5288 32.3896 49.1941V49.1941Z" fill="#001D4A"/>
<path d="M29.2853 33.3461C30.0306 33.0215 30.7158 32.7867 31.339 32.4399C32.395 31.8537 33.4418 31.2397 34.4386 30.5582C35.9208 29.5447 37.4318 28.5914 39.1877 28.1485C44.0839 26.9131 48.7462 25.0563 53.2966 22.9027C53.6313 22.7437 53.9466 22.4635 54.163 22.1621C54.3008 21.9688 54.3553 21.549 54.236 21.3826C54.0918 21.1819 53.7182 21.0423 53.4547 21.0561C53.1015 21.0765 52.7445 21.242 52.4135 21.3946C48.5668 23.157 44.6942 24.8446 40.5896 25.9348C39.0047 26.3564 37.3541 26.6264 35.858 27.2589C34.0354 28.0292 32.3442 29.1074 30.5974 30.0552C29.9002 30.4334 29.2058 30.8171 28.4808 31.2147C28.7471 31.9184 28.9977 32.5832 29.2853 33.3461V33.3461ZM25.2324 29.9118C28.5261 28.6866 31.1615 26.3379 34.531 25.5131C36.6236 24.9999 38.7374 24.5616 40.8041 23.9596C44.6961 22.8278 48.3856 21.1653 52.051 19.4537C53.0099 19.0061 53.9901 18.8036 55.0387 18.9488C56.3397 19.1291 57.1081 20.1823 56.8205 21.4658C56.4839 22.9702 55.4455 23.943 54.1269 24.5635C50.1129 26.4526 46.0286 28.1771 41.763 29.431C39.6834 30.0422 37.8386 31.0594 36.1455 32.4094C33.8662 34.2273 31.278 35.3462 28.356 35.6698C27.7226 35.7401 27.3897 35.5783 27.1669 34.9588C26.5695 33.3008 25.9093 31.665 25.2324 29.9118V29.9118Z" fill="#001D4A"/>
</svg>
