<svg width="133" height="100" viewBox="0 0 133 100" fill="none" xmlns="http://www.w3.org/2000/svg">
<g clip-path="url(#clip0_1838_2047)">
<path d="M10.0521 62.4466L3.09848 58.2333L5.5945 56.721L11.3001 60.1784C11.5109 60.3059 11.7702 60.3059 11.9809 60.1784L17.7546 56.6795L20.2506 58.1925L13.2289 62.4472C12.7487 62.7395 12.1999 62.8939 11.6405 62.8939C11.0812 62.8939 10.5323 62.7395 10.0521 62.4472V62.4466ZM23.3934 44.1432V52.5709L20.8974 51.058V44.1432C20.8974 43.8875 20.7674 43.6517 20.5573 43.5241L14.7836 40.0253V37L21.8053 41.2547C22.7879 41.8509 23.3934 42.9515 23.3934 44.1432V44.1432ZM0 44.1432V52.5709L2.49603 51.058V44.1432C2.49603 43.8875 2.62599 43.6517 2.83673 43.5241L8.61038 40.0253V37L1.58871 41.2547C0.605484 41.8509 0 42.9515 0 44.1438V44.1432ZM16.7774 54.3018L17.2748 53.398L11.6518 49.9907L5.98925 53.4221L6.47327 54.3011H16.7774V54.3018ZM5.40016 52.2998L11.0627 48.8684V41.8515H10.2404L4.94711 51.4752L5.40016 52.2998V52.2998ZM12.236 41.8515V48.8684L17.8597 52.2756L18.3425 51.3966L13.0917 41.8509H12.236V41.8515Z" fill="#D91745"/>
<path d="M39.9644 44.8607H30.8184V54.7055H33.612V47.1475H39.9644V44.8607ZM47.5375 49.9574C48.0586 49.9574 48.4685 49.94 48.7679 49.9054C49.0673 49.8707 49.2944 49.8063 49.4499 49.7135C49.6054 49.6082 49.6995 49.4689 49.7329 49.2944C49.7772 49.1087 49.7997 48.8641 49.7997 48.5614V48.4388C49.7997 48.1367 49.7772 47.8922 49.7329 47.7059C49.7198 47.6188 49.6875 47.5359 49.6385 47.4633C49.5895 47.3907 49.525 47.3304 49.4499 47.2868C49.295 47.1822 49.0673 47.1128 48.7679 47.0776C48.4685 47.0429 48.0586 47.0256 47.5375 47.0256H44.3109V49.958H47.5375V49.9574ZM44.3109 54.7055H41.5507V44.8607H48.0197C48.9398 44.8607 49.694 44.9072 50.2813 45.0007C50.8692 45.0935 51.3295 45.2681 51.6617 45.5244C51.9945 45.7689 52.2216 46.1236 52.3437 46.5891C52.4767 47.0429 52.5435 47.6359 52.5435 48.3695V48.6314C52.5435 49.3643 52.4767 49.9636 52.3431 50.4291C52.2216 50.8828 51.9945 51.2376 51.6617 51.4938C51.3295 51.7495 50.8692 51.9241 50.2813 52.0176C49.694 52.1104 48.9398 52.1568 48.0197 52.1568H44.3115V54.7055H44.3109ZM65.7512 54.7055H62.7414L61.8766 52.9424H55.956L55.1076 54.7055H52.1148L57.2198 44.8607H60.6292L65.7512 54.7055V54.7055ZM60.8788 50.8828L58.933 46.9209H58.8662L56.9538 50.8828H60.8788V50.8828ZM67.1893 54.7055V44.8607H74.8225C75.5434 44.8607 76.1416 44.9016 76.6183 44.9833C77.1066 45.0644 77.4941 45.2043 77.7825 45.4018C78.071 45.5881 78.2757 45.8382 78.3977 46.1527C78.5198 46.4666 78.5811 46.8566 78.5811 47.3221C78.5811 48.0086 78.4645 48.5206 78.2313 48.8579C77.9987 49.1953 77.6775 49.4281 77.2669 49.5562V49.5909C77.788 49.6837 78.1876 49.9109 78.4645 50.2718C78.7415 50.6327 78.8799 51.162 78.8799 51.8603C78.8799 52.4187 78.8137 52.8842 78.6807 53.2569C78.5597 53.6007 78.3466 53.9031 78.0655 54.1297C77.788 54.339 77.4388 54.49 77.0173 54.5835C76.5965 54.6646 76.0973 54.7055 75.5209 54.7055H67.1893V54.7055ZM75.0387 52.6106C75.4602 52.6106 75.7481 52.5295 75.9035 52.3667C76.0699 52.1921 76.1525 51.9358 76.1525 51.5991C76.1525 51.2493 76.0699 50.9992 75.9035 50.8482C75.7481 50.6965 75.4602 50.621 75.0387 50.621H69.9495V52.6112H75.0387V52.6106ZM74.9719 48.7354C75.2604 48.7354 75.4821 48.6722 75.6375 48.5435C75.8039 48.4159 75.8865 48.1776 75.8865 47.8285C75.8865 47.4558 75.8039 47.2057 75.6375 47.0776C75.4821 46.9494 75.2604 46.8857 74.9719 46.8857H69.9495V48.736H74.9719V48.7354ZM80.6988 54.7055H84.8728L90.3611 47.3394H90.4273V54.7055H93.1547V44.8607H88.9138L83.4924 52.2274H83.4426V44.8607H80.6988V54.7055ZM101.777 54.7055H98.9994V47.0776H94.9578V44.8614H105.834V47.0776H101.777V54.7055V54.7055ZM112.762 54.8274C112.084 54.832 111.405 54.8088 110.729 54.7581C110.086 54.7228 109.537 54.6473 109.082 54.5309C108.628 54.4027 108.257 54.2282 107.968 54.0072C107.683 53.7763 107.46 53.4761 107.319 53.1343C107.164 52.774 107.059 52.3314 107.004 51.8077C106.948 51.2846 106.92 50.6563 106.92 49.9227V49.6441C106.92 48.9106 106.948 48.2822 107.004 47.7585C107.059 47.2348 107.164 46.7928 107.319 46.4319C107.475 46.0598 107.691 45.7633 107.968 45.5417C108.257 45.3207 108.628 45.1517 109.082 45.0353C109.537 44.9189 110.086 44.8434 110.729 44.8087C111.405 44.7578 112.084 44.7344 112.762 44.7388H113.195C114.092 44.7388 114.568 44.7623 115.211 44.8087C115.865 44.8434 116.419 44.9189 116.874 45.0353C117.328 45.1517 117.695 45.3201 117.972 45.5417C118.26 45.7627 118.482 46.0592 118.637 46.4319C118.792 46.7928 118.898 47.2348 118.953 47.7585C119.008 48.2822 119.036 48.9099 119.036 49.6435V49.9227C119.036 50.6563 119.008 51.2846 118.953 51.8083C118.898 52.3314 118.792 52.7802 118.637 53.1517C118.494 53.4968 118.264 53.7977 117.972 54.0245C117.695 54.2461 117.328 54.4145 116.874 54.5309C116.419 54.6473 115.865 54.7228 115.211 54.7581C114.54 54.8093 113.867 54.8326 113.195 54.828H112.762V54.8274ZM113.094 52.5413C113.904 52.5413 114.241 52.5177 114.695 52.4713C115.161 52.4249 115.505 52.3141 115.726 52.1395C115.96 51.9538 116.098 51.6802 116.142 51.3193C116.198 50.9584 116.226 50.4699 116.226 49.8534V49.6961C116.226 49.0678 116.198 48.5732 116.142 48.2123C116.098 47.8402 115.96 47.5666 115.726 47.392C115.505 47.2063 115.161 47.0893 114.695 47.0429C114.241 46.9965 113.904 46.9729 113.094 46.9729H112.862C112.041 46.9729 111.699 46.9965 111.244 47.0429C110.79 47.0893 110.446 47.2057 110.213 47.392C109.992 47.5666 109.853 47.8402 109.797 48.2123C109.753 48.5732 109.731 49.0678 109.731 49.6961V49.8534C109.731 50.4699 109.753 50.9584 109.797 51.3193C109.853 51.6802 109.992 51.9532 110.213 52.1395C110.446 52.3141 110.79 52.4243 111.244 52.4713C111.699 52.5177 112.041 52.5413 112.862 52.5413H113.094ZM132.347 54.7055H129.552V50.9002H123.349V54.7055H120.556V44.8607H123.349V48.4568H129.552V44.8607H132.347V54.7055V54.7055Z" fill="black"/>
</g>
<defs>
<clipPath id="clip0_1838_2047">
<rect width="133" height="26" fill="white" transform="translate(0 37)"/>
</clipPath>
</defs>
</svg>
