<svg width="133" height="100" viewBox="0 0 133 100" fill="none" xmlns="http://www.w3.org/2000/svg">
<path d="M73.9475 37.2531L72.9424 42.2793L74.9525 41.646C79.9176 39.1932 90.9231 34.8205 108.914 33.001H107.416C96.1226 32.9566 84.8714 34.386 73.9475 37.2531" fill="#E60033"/>
<mask id="mask0_1838_2051" style="mask-type:alpha" maskUnits="userSpaceOnUse" x="72" y="33" width="37" height="10">
<path d="M73.9475 37.2531L72.9424 42.2793L74.9525 41.646C79.9176 39.1932 90.9231 34.8205 108.914 33.001H107.416C96.1226 32.9566 84.8714 34.386 73.9475 37.2531" fill="white"/>
</mask>
<g mask="url(#mask0_1838_2051)">
<path d="M108.914 33.002H72.9521V42.25H108.914V33.002Z" fill="#E60033"/>
</g>
<path d="M74.9932 41.6148C88.6426 37.6025 102.703 35.1508 116.905 34.3068C120.04 34.1158 121.849 34.1058 121.849 34.1058C121.196 33.9751 120.483 33.8544 119.719 33.7439C116.137 33.2647 112.528 33.0162 108.914 33C90.9235 34.8094 79.918 39.1821 74.9932 41.6047" fill="#E60033"/>
<mask id="mask1_1838_2051" style="mask-type:alpha" maskUnits="userSpaceOnUse" x="74" y="33" width="48" height="9">
<path d="M74.9932 41.6148C88.6426 37.6025 102.703 35.1508 116.905 34.3068C120.04 34.1158 121.849 34.1058 121.849 34.1058C121.196 33.9751 120.483 33.8544 119.719 33.7439C116.137 33.2647 112.528 33.0162 108.914 33C90.9235 34.8094 79.918 39.1821 74.9932 41.6047" fill="white"/>
</mask>
<g mask="url(#mask1_1838_2051)">
<path d="M121.849 33.0098H74.9932V41.6145H121.849V33.0098Z" fill="#E60033"/>
</g>
<path d="M19.4424 34.0865C26.0859 34.4283 35.4431 35.6346 37.2221 39.6856C37.408 40.0171 37.505 40.3912 37.5035 40.7713C37.5035 45.0535 23.2415 48.8131 23.2415 48.8131L32.2269 57.7395H42.4183C39.4301 54.4206 36.098 51.4283 32.4781 48.8131C39.5136 48.5819 45.4435 45.335 45.4435 40.329C45.4584 39.5411 45.3149 38.7583 45.0214 38.027C43.946 35.3732 40.8604 34.0664 36.8703 34.0664L19.4424 34.0865Z" fill="#E60033"/>
<mask id="mask2_1838_2051" style="mask-type:alpha" maskUnits="userSpaceOnUse" x="19" y="34" width="27" height="24">
<path d="M19.4424 34.0865C26.0859 34.4283 35.4431 35.6346 37.2221 39.6856C37.408 40.0171 37.505 40.3912 37.5035 40.7713C37.5035 45.0535 23.2415 48.8131 23.2415 48.8131L32.2269 57.7395H42.4183C39.4301 54.4206 36.098 51.4283 32.4781 48.8131C39.5136 48.5819 45.4435 45.335 45.4435 40.329C45.4584 39.5411 45.3149 38.7583 45.0214 38.027C43.946 35.3732 40.8604 34.0664 36.8703 34.0664L19.4424 34.0865Z" fill="white"/>
</mask>
<g mask="url(#mask2_1838_2051)">
<path d="M45.4435 34.0859H19.4424V57.7188H45.4435V34.0859Z" fill="#E60033"/>
</g>
<path d="M12.7487 34.0859L11.1406 37.8455H32.2471C32.2471 37.8455 36.1367 37.7651 37.2222 39.6851C35.4432 35.6641 26.0659 34.4277 19.4425 34.0859H12.7487Z" fill="#E60033"/>
<mask id="mask3_1838_2051" style="mask-type:alpha" maskUnits="userSpaceOnUse" x="11" y="34" width="27" height="6">
<path d="M12.7487 34.0859L11.1406 37.8455H32.2471C32.2471 37.8455 36.1367 37.7651 37.2222 39.6851C35.4432 35.6641 26.0659 34.4277 19.4425 34.0859H12.7487Z" fill="white"/>
</mask>
<g mask="url(#mask3_1838_2051)">
<path d="M37.2222 34.0859H11.1406V39.6851H37.2222V34.0859Z" fill="#E60033"/>
</g>
<path d="M15.3118 40.2578L9 57.6784H17.2617L23.5635 40.2578H15.3118Z" fill="#E60033"/>
<mask id="mask4_1838_2051" style="mask-type:alpha" maskUnits="userSpaceOnUse" x="9" y="40" width="15" height="18">
<path d="M15.3118 40.2578L9 57.6784H17.2617L23.5635 40.2578H15.3118Z" fill="white"/>
</mask>
<g mask="url(#mask4_1838_2051)">
<path d="M23.5635 40.2578H9V57.6784H23.5635V40.2578Z" fill="#E60033"/>
</g>
<path d="M100.693 40.0371C98.6827 40.2382 96.5921 40.4794 94.5418 40.7408L90.5215 57.7392H96.8735L101.085 40.0371H100.693Z" fill="#E60033"/>
<mask id="mask5_1838_2051" style="mask-type:alpha" maskUnits="userSpaceOnUse" x="90" y="40" width="12" height="18">
<path d="M100.693 40.0371C98.6827 40.2382 96.5921 40.4794 94.5418 40.7408L90.5215 57.7392H96.8735L101.085 40.0371H100.693Z" fill="white"/>
</mask>
<g mask="url(#mask5_1838_2051)">
<path d="M101.085 39.9961H90.5322V57.7384H101.085V39.9961Z" fill="#E60033"/>
</g>
<path d="M83.5461 42.3289C82.0921 48.8427 80.7587 54.09 79.546 58.0707C79.1854 59.4783 78.4965 60.7805 77.5358 61.8705C76.2668 62.9535 74.7282 63.6726 73.0834 63.9513V64.0016L72.2793 67.3992C74.2894 67.2384 79.5861 66.5247 82.8225 63.3783C84.4752 61.6145 85.6604 59.465 86.2699 57.1258L90.1896 41.3438C87.9182 41.6755 85.697 42.0173 83.5461 42.349" fill="#E60033"/>
<mask id="mask6_1838_2051" style="mask-type:alpha" maskUnits="userSpaceOnUse" x="72" y="41" width="19" height="27">
<path d="M83.5461 42.3289C82.0921 48.8427 80.7587 54.09 79.546 58.0707C79.1854 59.4783 78.4965 60.7805 77.5358 61.8705C76.2668 62.9535 74.7282 63.6726 73.0834 63.9513V64.0016L72.2793 67.3992C74.2894 67.2384 79.5861 66.5247 82.8225 63.3783C84.4752 61.6145 85.6604 59.465 86.2699 57.1258L90.1896 41.3438C87.9182 41.6755 85.697 42.0173 83.5461 42.349" fill="white"/>
</mask>
<g mask="url(#mask6_1838_2051)">
<path d="M90.1892 41.3145H72.2588V67.4001H90.1892V41.3145Z" fill="#E60033"/>
</g>
<path d="M72.5601 44.259L69.3037 57.7391H75.6658L79.1433 43.0527C76.7814 43.4548 74.5703 43.867 72.5601 44.2389" fill="#E60033"/>
<mask id="mask7_1838_2051" style="mask-type:alpha" maskUnits="userSpaceOnUse" x="69" y="43" width="11" height="15">
<path d="M72.5601 44.259L69.3037 57.7391H75.6658L79.1433 43.0527C76.7814 43.4548 74.5703 43.867 72.5601 44.2389" fill="white"/>
</mask>
<g mask="url(#mask7_1838_2051)">
<path d="M79.1337 43.0723H69.3242V57.7385H79.1337V43.0723Z" fill="#E60033"/>
</g>
<path d="M62.8119 39.4551C62.8119 39.4551 61.5153 46.6123 60.3394 50.6332C60.2107 51.1375 60.0358 51.6288 59.8167 52.1008V52.1008V52.1511C59.7472 52.286 59.67 52.4169 59.5856 52.5431C58.9725 53.4579 57.9373 54.0711 55.7965 54.2621C53.0526 54.4933 51.7259 53.7997 52.138 51.9098L55.1532 39.4852H48.3992L45.1226 53.5986C44.9416 54.3757 45.0758 55.1928 45.4959 55.8711C45.916 56.5493 46.5877 57.0335 47.3639 57.2174C48.4328 57.5878 49.5599 57.7615 50.6907 57.7301C61.1334 57.7301 64.7617 57.4989 66.1688 53.1965C66.9125 50.9247 69.4152 39.4551 69.4152 39.4551H62.8119Z" fill="#E60033"/>
<mask id="mask8_1838_2051" style="mask-type:alpha" maskUnits="userSpaceOnUse" x="45" y="39" width="25" height="19">
<path d="M62.8119 39.4551C62.8119 39.4551 61.5153 46.6123 60.3394 50.6332C60.2107 51.1375 60.0358 51.6288 59.8167 52.1008V52.1008V52.1511C59.7472 52.286 59.67 52.4169 59.5856 52.5431C58.9725 53.4579 57.9373 54.0711 55.7965 54.2621C53.0526 54.4933 51.7259 53.7997 52.138 51.9098L55.1532 39.4852H48.3992L45.1226 53.5986C44.9416 54.3757 45.0758 55.1928 45.4959 55.8711C45.916 56.5493 46.5877 57.0335 47.3639 57.2174C48.4328 57.5878 49.5599 57.7615 50.6907 57.7301C61.1334 57.7301 64.7617 57.4989 66.1688 53.1965C66.9125 50.9247 69.4152 39.4551 69.4152 39.4551H62.8119Z" fill="white"/>
</mask>
<g mask="url(#mask8_1838_2051)">
<path d="M69.4251 39.4551H44.8311V57.7402H69.4251V39.4551Z" fill="#E60033"/>
</g>
<path d="M101.014 50.2809C100.854 52.4823 102.08 56.2117 107.578 57.3979C112.703 58.5137 118.854 56.2921 120.402 55.6387L121.568 51.2359C118.892 53.1103 115.868 54.4297 112.673 55.116C107.055 56.1213 100.733 54.5732 101.215 48.9238C101.109 49.3593 101.042 49.8033 101.014 50.2507" fill="#E60033"/>
<mask id="mask9_1838_2051" style="mask-type:alpha" maskUnits="userSpaceOnUse" x="101" y="48" width="21" height="10">
<path d="M101.014 50.2809C100.854 52.4823 102.08 56.2117 107.578 57.3979C112.703 58.5137 118.854 56.2921 120.402 55.6387L121.568 51.2359C118.892 53.1103 115.868 54.4297 112.673 55.116C107.055 56.1213 100.733 54.5732 101.215 48.9238C101.109 49.3593 101.042 49.8033 101.014 50.2507" fill="white"/>
</mask>
<g mask="url(#mask9_1838_2051)">
<path d="M121.548 48.9531H100.733V58.5128H121.548V48.9531Z" fill="#E60033"/>
</g>
<path d="M115.176 43.1335C119.025 42.0378 119.196 47.5867 113.698 48.6824C108.201 49.7781 108.08 49.758 108.08 49.758C108.08 49.758 109.085 44.8525 115.176 43.1335M115.347 39.3036C111.88 39.3613 108.516 40.4921 105.718 42.5404C103.478 44.0499 101.875 46.3339 101.215 48.9538C100.733 54.6032 107.055 56.1613 112.673 55.146C115.87 54.4505 118.894 53.1208 121.568 51.2356C120.081 52.0097 108.985 57.5987 108.08 51.306C108.181 51.306 116.895 49.7781 118.372 49.4865C120.04 49.1649 123.659 47.9687 123.98 44.8122C124.087 43.7271 123.762 42.6435 123.076 41.7966C121.89 40.2988 119.608 39.2734 116.422 39.2734C116.08 39.2734 115.729 39.2734 115.417 39.2734" fill="#E60033"/>
<mask id="mask10_1838_2051" style="mask-type:alpha" maskUnits="userSpaceOnUse" x="101" y="39" width="23" height="17">
<path d="M115.176 43.1335C119.025 42.0378 119.196 47.5867 113.698 48.6824C108.201 49.7781 108.08 49.758 108.08 49.758C108.08 49.758 109.085 44.8525 115.176 43.1335M115.347 39.3036C111.88 39.3613 108.516 40.4921 105.718 42.5404C103.478 44.0499 101.875 46.3339 101.215 48.9538C100.733 54.6032 107.055 56.1613 112.673 55.146C115.87 54.4505 118.894 53.1208 121.568 51.2356C120.081 52.0097 108.985 57.5987 108.08 51.306C108.181 51.306 116.895 49.7781 118.372 49.4865C120.04 49.1649 123.659 47.9687 123.98 44.8122C124.087 43.7271 123.762 42.6435 123.076 41.7966C121.89 40.2988 119.608 39.2734 116.422 39.2734C116.08 39.2734 115.729 39.2734 115.417 39.2734" fill="white"/>
</mask>
<g mask="url(#mask10_1838_2051)">
<path d="M124.071 39.2637H100.733V57.599H124.071V39.2637Z" fill="#E60033"/>
</g>
</svg>
