<svg width="133" height="100" viewBox="0 0 133 100" fill="none" xmlns="http://www.w3.org/2000/svg">
<path d="M10.5075 41.8091C9.67786 41.692 9.34678 41.8506 9.00913 42.664C8.99637 42.6936 8.98046 42.7359 8.96851 42.768C8.64126 42.7067 8.30593 42.6504 7.94906 42.6014C4.8044 42.1611 2.42743 42.1803 1.19619 42.3118C0.469115 42.3793 0.0282299 42.5387 0.0107974 43.052C-0.415126 58.0718 11.9015 58.9653 11.9015 58.9653C12.7295 59.0834 13.0595 58.9238 13.3981 58.1136C13.4106 58.0814 13.4259 58.0412 13.4416 58.0079C13.7643 58.0683 14.1025 58.1246 14.4566 58.1733C17.6027 58.616 19.9796 58.594 21.2098 58.463C21.9381 58.3971 22.3788 58.2344 22.3971 57.7231C22.8206 42.7027 10.5075 41.8091 10.5075 41.8091V41.8091ZM17.1201 51.4253C16.7394 53.9786 16.1542 55.8241 15.7511 56.7527C15.4673 57.4365 15.1895 57.5655 14.4959 57.4692C14.4959 57.4692 4.15872 56.7197 4.51464 44.114C4.52905 43.6822 4.90117 43.5473 5.51157 43.4928C6.54378 43.3809 8.5382 43.3639 11.1783 43.7351C16.3379 44.4564 17.8621 46.4745 17.1201 51.4253" fill="url(#paint0_linear_1838_1973)"/>
<path d="M129.307 40.5699C128.384 40.5699 127.608 41.2957 127.608 42.2476C127.608 43.2175 128.384 43.9434 129.307 43.9434C130.229 43.9434 131 43.2175 131 42.2476C131 41.2957 130.229 40.5699 129.307 40.5699ZM129.307 43.6957C128.519 43.6957 127.915 43.0734 127.915 42.2476C127.915 41.4404 128.519 40.8182 129.307 40.8182C130.089 40.8182 130.693 41.4404 130.693 42.2476C130.693 43.0734 130.089 43.6957 129.307 43.6957" fill="#1D4E9E"/>
<path d="M130.102 41.8333C130.102 41.4548 129.881 41.2694 129.412 41.2694H128.65V43.2402H128.957V42.392H129.282L129.818 43.2402H130.147L129.584 42.3695C129.877 42.338 130.102 42.1894 130.102 41.8333V41.8333ZM129.277 42.1444H128.957V41.5172H129.363C129.57 41.5172 129.795 41.5581 129.795 41.8195C129.795 42.1308 129.549 42.1444 129.277 42.1444" fill="#1D4E9E"/>
<path d="M38.2275 58.5449H41.1929V54.3601C40.1915 54.2651 39.2033 54.1656 38.2275 54.062V58.5449Z" fill="#1D4E9E"/>
<path d="M25.5098 58.5449H28.6242V52.8188C27.5611 52.6542 26.5237 52.4834 25.5098 52.307V58.5449Z" fill="#1D4E9E"/>
<path d="M30.377 58.5449H33.337V53.4861C32.3324 53.3564 31.3456 53.2212 30.377 53.0812V58.5449Z" fill="#1D4E9E"/>
<path d="M109.122 58.5449H112.087V52.655C111.12 52.8097 110.131 52.9598 109.122 53.1046V58.5449Z" fill="#1D4E9E"/>
<path d="M55.4797 56.1747C54.467 56.1747 53.6444 55.8018 53.0509 55.218C51.8481 55.1562 50.6569 55.0887 49.4805 55.0135C50.4169 57.3757 52.7354 58.8438 55.4797 58.8438C58.0143 58.8438 60.1842 57.5885 61.239 55.5337C60.0422 55.5028 58.8549 55.4657 57.6788 55.4228C57.1095 55.8871 56.3684 56.1747 55.4797 56.1747" fill="#1D4E9E"/>
<path d="M63.1504 58.5449H66.1126V55.6219C65.1196 55.6116 64.1329 55.5958 63.1504 55.576V58.5449Z" fill="#1D4E9E"/>
<path d="M75.8902 58.8438C76.5817 58.8438 77.6194 58.742 78.2361 58.4443V55.953C77.8675 56.2255 77.1499 56.3236 76.6323 56.3236C75.8575 56.3236 75.426 56.0587 75.1997 55.6002C74.1571 55.6174 73.1089 55.6284 72.0537 55.6351C72.2407 57.769 73.1529 58.8438 75.8902 58.8438" fill="#1D4E9E"/>
<path d="M94.0134 58.8438C95.8884 58.8438 97.6436 58.176 99.0249 56.4719L96.9007 54.8659C96.16 55.779 95.1979 56.4719 93.7154 56.4719C92.5312 56.4719 91.5171 55.9183 90.9615 54.9613C90.0037 55.0251 89.0373 55.0842 88.0615 55.1397C89.0289 57.4295 91.3179 58.8438 94.0134 58.8438" fill="#1D4E9E"/>
<path d="M79.8281 58.5449H82.7882V55.3913C81.8086 55.4291 80.8233 55.4641 79.8281 55.4936V58.5449Z" fill="#1D4E9E"/>
<path d="M101.27 58.5449H104.235V53.7462C103.262 53.8622 102.273 53.9734 101.27 54.0798V58.5449Z" fill="#1D4E9E"/>
<path d="M43.0791 58.5449H46.0431V54.7728C45.0441 54.6964 44.056 54.6165 43.0791 54.5314V58.5449Z" fill="#1D4E9E"/>
<path d="M123.623 52.6169C123.623 54.4706 122.313 56.1747 120.143 56.1747C117.968 56.1747 116.659 54.4706 116.659 52.6169C116.659 52.351 116.689 52.0891 116.743 51.8338C115.757 52.0231 114.744 52.2078 113.706 52.3847C113.704 52.4629 113.696 52.5386 113.696 52.6169C113.696 56.1235 115.894 58.8438 119.547 58.8438C123.113 58.8438 126.489 56.9811 126.489 52.61V49.4948C125.379 49.8298 124.197 50.1537 122.95 50.4667C123.386 51.0795 123.623 51.8345 123.623 52.6169" fill="#1D4E9E"/>
<path d="M36.0008 46.3952C35.9217 46.3952 35.8588 46.3986 35.7854 46.3993C35.7102 46.3986 35.6473 46.3952 35.5682 46.3952C32.0977 46.3952 30.377 48.6422 30.377 51.0614V53.0805C31.3456 53.2205 32.3324 53.3557 33.337 53.4854V52.5438C33.337 51.7603 33.4297 50.6698 33.9443 49.9194C34.3263 49.4252 34.9185 49.1058 35.7826 49.0759C36.6463 49.1058 37.2373 49.4246 37.6193 49.918C38.1351 50.6685 38.2268 51.7597 38.2268 52.5438V54.0613C39.2026 54.1649 40.1907 54.2644 41.1922 54.3594V51.0614C41.1922 48.6422 39.4686 46.3952 36.0008 46.3952" fill="url(#paint1_linear_1838_1973)"/>
<path d="M106.894 46.3981C106.816 46.3981 106.752 46.4015 106.678 46.4022C106.603 46.4015 106.54 46.3981 106.461 46.3981C102.992 46.3981 101.27 48.6451 101.27 51.0643V54.082C102.273 53.9756 103.262 53.8645 104.235 53.7485V52.5467C104.235 51.7632 104.326 50.6727 104.841 49.9223C105.223 49.4275 105.814 49.1084 106.677 49.0781C107.539 49.1084 108.13 49.4261 108.512 49.9182C109.031 50.6697 109.122 51.7619 109.122 52.5467V53.1068C110.131 52.962 111.12 52.8119 112.087 52.6572V51.0643C112.087 48.6451 110.364 46.3981 106.894 46.3981" fill="url(#paint2_linear_1838_1973)"/>
<path d="M74.979 43.2597H72.0137V54.6432C72.0137 54.996 72.026 55.3261 72.053 55.6348C73.1082 55.6281 74.1564 55.6171 75.199 55.5999C75.0423 55.2845 74.979 54.8807 74.979 54.3975V49.2117H78.2354V46.693H74.979V43.2597" fill="url(#paint3_linear_1838_1973)"/>
<path d="M46.0431 45.7333C46.0431 44.4286 46.2901 43.2904 47.9427 43.2904C48.3633 43.2904 48.759 43.3655 49.1778 43.4636L49.3774 40.946C48.759 40.8194 48.1423 40.7731 47.4992 40.7731C43.8212 40.7731 43.0791 42.9193 43.0791 46.2039V54.532C44.056 54.6171 45.0441 54.697 46.0431 54.7734V49.2124H48.908V46.6937H46.0431V45.7333" fill="url(#paint4_linear_1838_1973)"/>
<path d="M25.5098 52.3086C26.5237 52.485 27.5611 52.6557 28.6242 52.8203V41.7561H25.5098V52.3086Z" fill="url(#paint5_linear_1838_1973)"/>
<path d="M123.526 40.5747V48.199H123.45C122.834 47.4393 121.648 46.3982 119.426 46.3982C116.118 46.3982 113.809 48.9951 113.707 52.3867C114.745 52.2098 115.758 52.025 116.744 51.8358C117.059 50.3165 118.282 49.0665 120.144 49.0665C121.396 49.0665 122.359 49.6351 122.951 50.4687C124.197 50.1557 125.379 49.8318 126.49 49.4968V40.5747H123.526Z" fill="url(#paint6_linear_1838_1973)"/>
<path d="M94.0134 46.399C90.432 46.399 87.5664 48.893 87.5664 52.6197C87.5664 53.5428 87.7435 54.3897 88.0615 55.1426C89.0373 55.087 90.0037 55.028 90.9615 54.9641C90.7419 54.5869 90.5863 54.1536 90.5307 53.657H99.5688V52.8441C99.5688 48.7187 97.3213 46.399 94.0134 46.399V46.399ZM90.5307 51.4392C90.7546 49.7342 91.839 48.6206 93.5927 48.6206C95.4446 48.6206 96.5813 49.7086 96.6052 51.4392H90.5307" fill="url(#paint7_linear_1838_1973)"/>
<path d="M70.2544 46.573C70.1174 46.5438 69.9835 46.5122 69.8395 46.4889C69.5822 46.4493 69.2769 46.4237 68.8946 46.4106C68.8506 46.4106 68.8169 46.399 68.7744 46.399C68.6953 46.399 68.631 46.4031 68.5593 46.4031C68.4838 46.4031 68.4198 46.399 68.3408 46.399C68.2983 46.399 68.2656 46.4106 68.2202 46.4106C67.8425 46.4237 67.5315 46.4493 67.2761 46.4889C67.133 46.5122 66.9992 46.5438 66.86 46.573C66.8516 46.5763 66.8435 46.5763 66.8368 46.5811C64.3827 47.1388 63.1504 49.031 63.1504 51.0652V55.579C64.1329 55.5989 65.1196 55.6147 66.1126 55.625V52.5476C66.1126 51.7538 66.2103 50.6493 66.7437 49.8971C66.8259 49.7928 66.9089 49.6912 67.0101 49.6064C67.0125 49.6064 67.0139 49.604 67.0139 49.604C67.3853 49.289 67.8931 49.103 68.5593 49.0783C69.1514 49.0996 69.6058 49.2666 69.9642 49.523L71.0774 46.83C70.8283 46.7317 70.5637 46.6447 70.2843 46.5811C70.2731 46.5763 70.2636 46.5763 70.2544 46.573Z" fill="url(#paint8_linear_1838_1973)"/>
<path d="M86.9564 46.5805C86.949 46.5757 86.9385 46.5757 86.9315 46.5724C86.7951 46.5432 86.6599 46.5116 86.5168 46.4883C86.26 46.4487 85.95 46.4231 85.5695 46.4101C85.5259 46.4101 85.4943 46.3984 85.4511 46.3984C85.3717 46.3984 85.3088 46.4025 85.2339 46.4025C85.1619 46.4025 85.0976 46.3984 85.0182 46.3984C84.9756 46.3984 84.9408 46.4101 84.8959 46.4101C84.5174 46.4231 84.2064 46.4487 83.9538 46.4883C83.808 46.5116 83.6741 46.5432 83.5367 46.5724C83.5293 46.5757 83.5184 46.5757 83.5114 46.5805C81.058 47.1382 79.8281 49.0304 79.8281 51.0646V55.4961C80.8233 55.4666 81.8086 55.4316 82.7882 55.3938V52.547C82.7882 51.7532 82.8877 50.6487 83.42 49.8965C83.5051 49.7922 83.5852 49.6906 83.6853 49.6058C83.6874 49.6058 83.6874 49.6035 83.6903 49.6035C84.0589 49.2884 84.5694 49.1024 85.2339 49.0777C85.8278 49.099 86.2804 49.2661 86.6384 49.5225L87.7544 46.8294C87.5018 46.7311 87.24 46.6441 86.9564 46.5805Z" fill="url(#paint9_linear_1838_1973)"/>
<path d="M55.4796 46.3957C51.8975 46.3957 49.0312 48.8897 49.0312 52.6164C49.0312 53.4894 49.1939 54.291 49.4803 55.013C50.6568 55.0882 51.848 55.1557 53.0508 55.2175C52.3723 54.5497 51.9959 53.606 51.9959 52.6164C51.9959 50.7688 53.3059 49.064 55.4796 49.064C57.6508 49.064 58.9598 50.7688 58.9598 52.6164C58.9598 53.7117 58.4998 54.7522 57.6786 55.4223C58.8547 55.4652 60.0421 55.5023 61.2389 55.5332C61.6729 54.6856 61.922 53.7056 61.922 52.6164C61.922 48.8897 59.0596 46.3957 55.4796 46.3957Z" fill="url(#paint10_linear_1838_1973)"/>
<defs>
<linearGradient id="paint0_linear_1838_1973" x1="-0.415116" y1="50.3876" x2="22.823" y2="50.3876" gradientUnits="userSpaceOnUse">
<stop stop-color="#00ADEF"/>
<stop offset="0.1875" stop-color="#00ADEF"/>
<stop offset="1" stop-color="#2C3797"/>
</linearGradient>
<linearGradient id="paint1_linear_1838_1973" x1="25.5086" y1="50.3771" x2="126.489" y2="50.3771" gradientUnits="userSpaceOnUse">
<stop stop-color="#1082CE"/>
<stop offset="0.351563" stop-color="#1082CE"/>
<stop offset="1" stop-color="#1C63B7"/>
</linearGradient>
<linearGradient id="paint2_linear_1838_1973" x1="25.5095" y1="50.2399" x2="126.49" y2="50.2399" gradientUnits="userSpaceOnUse">
<stop stop-color="#1082CE"/>
<stop offset="0.351563" stop-color="#1082CE"/>
<stop offset="1" stop-color="#1C63B7"/>
</linearGradient>
<linearGradient id="paint3_linear_1838_1973" x1="25.509" y1="49.4469" x2="126.489" y2="49.4469" gradientUnits="userSpaceOnUse">
<stop stop-color="#1082CE"/>
<stop offset="0.351563" stop-color="#1082CE"/>
<stop offset="1" stop-color="#1C63B7"/>
</linearGradient>
<linearGradient id="paint4_linear_1838_1973" x1="25.5092" y1="47.7732" x2="126.49" y2="47.7732" gradientUnits="userSpaceOnUse">
<stop stop-color="#1082CE"/>
<stop offset="0.351563" stop-color="#1082CE"/>
<stop offset="1" stop-color="#1C63B7"/>
</linearGradient>
<linearGradient id="paint5_linear_1838_1973" x1="25.5096" y1="47.2882" x2="126.49" y2="47.2882" gradientUnits="userSpaceOnUse">
<stop stop-color="#1082CE"/>
<stop offset="0.351563" stop-color="#1082CE"/>
<stop offset="1" stop-color="#1C63B7"/>
</linearGradient>
<linearGradient id="paint6_linear_1838_1973" x1="25.5099" y1="46.4807" x2="126.49" y2="46.4807" gradientUnits="userSpaceOnUse">
<stop stop-color="#1082CE"/>
<stop offset="0.351563" stop-color="#1082CE"/>
<stop offset="1" stop-color="#1C63B7"/>
</linearGradient>
<linearGradient id="paint7_linear_1838_1973" x1="25.5092" y1="50.7709" x2="126.49" y2="50.7709" gradientUnits="userSpaceOnUse">
<stop stop-color="#1082CE"/>
<stop offset="0.351563" stop-color="#1082CE"/>
<stop offset="1" stop-color="#1C63B7"/>
</linearGradient>
<linearGradient id="paint8_linear_1838_1973" x1="25.5091" y1="51.0118" x2="126.489" y2="51.0118" gradientUnits="userSpaceOnUse">
<stop stop-color="#1082CE"/>
<stop offset="0.351563" stop-color="#1082CE"/>
<stop offset="1" stop-color="#1C63B7"/>
</linearGradient>
<linearGradient id="paint9_linear_1838_1973" x1="25.5092" y1="50.9471" x2="126.49" y2="50.9471" gradientUnits="userSpaceOnUse">
<stop stop-color="#1082CE"/>
<stop offset="0.351563" stop-color="#1082CE"/>
<stop offset="1" stop-color="#1C63B7"/>
</linearGradient>
<linearGradient id="paint10_linear_1838_1973" x1="25.5089" y1="50.9642" x2="126.489" y2="50.9642" gradientUnits="userSpaceOnUse">
<stop stop-color="#1082CE"/>
<stop offset="0.351563" stop-color="#1082CE"/>
<stop offset="1" stop-color="#1C63B7"/>
</linearGradient>
</defs>
</svg>
