<svg width="628" height="628" viewBox="0 0 628 628" fill="none" xmlns="http://www.w3.org/2000/svg">
<path d="M473.151 314C473.151 400.521 455.124 478.776 426.05 535.346C396.935 591.994 356.982 626.5 313.27 626.5C269.558 626.5 229.605 591.994 200.49 535.346C171.416 478.776 153.389 400.521 153.389 314C153.389 227.479 171.416 149.224 200.49 92.6541C229.605 36.0057 269.558 1.5 313.27 1.5C356.982 1.5 396.935 36.0057 426.05 92.6541C455.124 149.224 473.151 227.479 473.151 314Z" stroke="#ADADAD" stroke-width="3"/>
<path d="M314 146.087C400.521 146.087 478.776 164.114 535.346 193.188C591.994 222.303 626.5 262.257 626.5 305.968C626.5 349.68 591.994 389.633 535.346 418.748C478.776 447.822 400.521 465.85 314 465.85C227.479 465.85 149.224 447.822 92.6541 418.748C36.0057 389.633 1.5 349.68 1.5 305.968C1.5 262.257 36.0057 222.303 92.6541 193.188C149.224 164.114 227.479 146.087 314 146.087Z" stroke="#ADADAD" stroke-width="3"/>
<circle cx="314" cy="314" r="312.5" stroke="#ADADAD" stroke-width="3"/>
</svg>
