<svg width="80" height="80" viewBox="0 0 80 80" fill="none" xmlns="http://www.w3.org/2000/svg">
<path d="M5.55073 20.1073L5.5252 20.1502L5.50122 20.194L5.47878 20.2387L5.45788 20.2845L5.43852 20.3312L5.4207 20.3788L5.40442 20.4275L5.38968 20.477L5.37648 20.5276L5.36481 20.5791L5.35468 20.6316L5.34608 20.6851L5.33901 20.7395L5.33347 20.7949L5.32945 20.8512L5.32697 20.9086L5.32601 20.9669L5.32657 21.0261L5.32865 21.0864L5.33225 21.1476L5.33737 21.2098L5.34401 21.2729L5.35215 21.337L5.3618 21.4021L5.37297 21.4682L5.38563 21.5352L5.3998 21.6032L5.41546 21.6722L5.43264 21.7421L5.45129 21.813L5.47144 21.8849L5.49308 21.9578L5.51621 22.0316L5.54081 22.1063L5.5669 22.1821L5.59446 22.2588L5.6235 22.3365L5.654 22.4151L5.68598 22.4947L5.71941 22.5753L5.7543 22.6568L5.79065 22.7393L5.82846 22.8227L5.8677 22.9071L5.9084 22.9925L5.95052 23.0788L5.9941 23.166L6.03911 23.2543L6.08554 23.3434L6.1334 23.4336L6.18267 23.5246L6.23336 23.6166L6.28547 23.7096L6.33899 23.8035L6.3939 23.8984L6.45021 23.9942L6.50792 24.0909L6.56702 24.1886L6.62749 24.2872L6.68936 24.3867L6.75259 24.4872L6.81719 24.5886L6.88316 24.6909L6.9505 24.7941L7.01919 24.8983L7.0892 25.0034L7.1606 25.1094L7.23331 25.2163L7.30736 25.3241L7.38274 25.4329L7.45944 25.5425L7.53747 25.6531L7.6168 25.7646L7.69744 25.8769L7.77938 25.9902L7.86261 26.1043L7.94714 26.2194L8.03295 26.3353L8.12003 26.4521L8.20839 26.5698L8.29801 26.6884L8.38889 26.8078L8.48103 26.9282L8.57442 27.0494L8.66903 27.1714L8.7649 27.2943L8.86198 27.4181L8.96029 27.5428L9.05982 27.6682L9.16056 27.7946L9.26249 27.9218L9.36563 28.0498L9.46995 28.1787L9.57546 28.3083L9.68213 28.4389L9.78999 28.5702L9.899 28.7024L10.0092 28.8354L10.1205 28.9692L10.2329 29.1038L10.3465 29.2392L10.4613 29.3755L10.5771 29.5125L10.6941 29.6503L10.8121 29.7889L10.9313 29.9283L11.0515 30.0684L11.1729 30.2094L11.2953 30.3511L11.4188 30.4935L11.5433 30.6368L11.6689 30.7808L11.7956 30.9255L11.9232 31.071L12.052 31.2172L12.1817 31.3642L12.3125 31.5119L12.4442 31.6603L12.577 31.8094L12.7108 31.9593L12.8455 32.1099L12.9812 32.2611L13.1179 32.4131L13.2556 32.5658L13.3942 32.7191L13.5338 32.8732L13.6742 33.0279L13.8157 33.1833L13.958 33.3394L14.1013 33.4961L14.2454 33.6535L14.3905 33.8115L14.5364 33.9702L47.0128 66.0822L47.173 66.2262L47.3325 66.3693L47.4914 66.5115L47.6495 66.6528L47.8071 66.7932L47.9639 66.9327L48.12 67.0713L48.2755 67.2089L48.4303 67.3456L48.5843 67.4814L48.7377 67.6162L48.8903 67.75L49.0423 67.8828L49.1935 68.0147L49.344 68.1456L49.4937 68.2755L49.6427 68.4044L49.791 68.5323L49.9385 68.6592L50.0852 68.785L50.2312 68.9099L50.3765 69.0336L50.5209 69.1564L50.6646 69.278L50.8075 69.3986L50.9497 69.5182L51.091 69.6366L51.2316 69.754L51.3713 69.8703L51.5103 69.9855L51.6484 70.0996L51.7858 70.2126L51.9223 70.3244L52.058 70.4351L52.1929 70.5447L52.3269 70.6532L52.4602 70.7605L52.5926 70.8666L52.7241 70.9716L52.8548 71.0754L52.9847 71.1781L53.1137 71.2795L53.2418 71.3798L53.3691 71.4789L53.4955 71.5768L53.6211 71.6734L53.7458 71.7689L53.8696 71.8631L53.9926 71.9561L54.1146 72.0479L54.2358 72.1385L54.3561 72.2278L54.4755 72.3158L54.594 72.4026L54.7116 72.4881L54.8283 72.5724L54.9441 72.6554L55.059 72.7371L55.173 72.8175L55.2861 72.8966L55.3983 72.9744L55.5095 73.0509L55.6198 73.1262L55.7292 73.2001L55.8377 73.2726L55.9453 73.3439L56.0519 73.4138L56.1576 73.4824L56.2623 73.5497L56.3661 73.6156L56.469 73.6801L56.5709 73.7433L56.6719 73.8052L56.772 73.8657L56.871 73.9248L56.9692 73.9825L57.0664 74.0388L57.1626 74.0938L57.2579 74.1474L57.3522 74.1996L57.4456 74.2504L57.538 74.2998L57.6294 74.3477L57.7199 74.3943L57.8094 74.4395L57.8979 74.4832L57.9855 74.5255L58.072 74.5664L58.1577 74.6059L58.2423 74.6439L58.326 74.6805L58.4087 74.7156L58.4904 74.7493L58.5712 74.7816L58.6509 74.8124L58.7297 74.8417L58.8075 74.8696L58.8844 74.896L58.9602 74.921L59.0351 74.9444L59.1089 74.9665L59.1818 74.987L59.2537 75.0061L59.3247 75.0236L59.3946 75.0397L59.4636 75.0543L59.5315 75.0675L59.5985 75.0791L59.6645 75.0892L59.7295 75.0979L59.7935 75.105L59.8566 75.1106L59.9186 75.1148L59.9797 75.1174L60.0398 75.1185L60.0988 75.1181L60.1569 75.1162L60.2141 75.1128L60.2702 75.1079L60.3253 75.1014L60.3795 75.0934L60.4327 75.0839L60.4848 75.0729L60.5361 75.0604L60.5863 75.0463L60.6355 75.0308L60.6838 75.0136L60.731 74.995L60.7773 74.9748L60.8227 74.9531L60.867 74.9299L60.9104 74.9051L60.9527 74.8788L60.9941 74.851L61.0346 74.8216L61.074 74.7907L61.1125 74.7583L61.15 74.7243L61.1866 74.6888L61.2222 74.6517L61.2568 74.6132L61.2904 74.573L61.3231 74.5314L61.3548 74.4882L61.3856 74.4435L61.4154 74.3972L61.4442 74.3494L61.4721 74.3001L61.499 74.2492L61.525 74.1968L61.55 74.1428L61.5741 74.0874L61.5972 74.0304L61.6194 73.9718L61.6406 73.9118L61.6609 73.8502L61.6803 73.787L61.6987 73.7224L61.7162 73.6562L61.7328 73.5885L61.7484 73.5193L61.7631 73.4485L61.7769 73.3763L61.7897 73.3025L61.8016 73.2272L61.8126 73.1503L61.8227 73.072L61.8319 72.9922L61.8402 72.9108L61.8475 72.8279L61.854 72.7436L61.8596 72.6577L61.8642 72.5703L61.868 72.4815L61.8708 72.3911L61.8728 72.2992L61.8739 72.2059L61.8741 72.1111L61.8734 72.0147L61.8718 71.9169L61.8694 71.8176L61.866 71.7169L61.8618 71.6146L61.8568 71.5109L61.8509 71.4058L61.8441 71.2991L61.8364 71.191L61.8279 71.0815L61.8186 70.9705L61.8084 70.858L61.7974 70.7441L61.7855 70.6288L61.7728 70.512L61.7592 70.3938L61.7448 70.2741L61.7296 70.1531L61.7136 70.0306L61.6967 69.9067L61.6791 69.7814L61.6606 69.6546L61.6413 69.5265L61.6212 69.397L61.6003 69.266L61.5786 69.1337L61.5561 69L61.5328 68.8649L61.5088 68.7284L61.4839 68.5906L61.4583 68.4514L61.4319 68.3108L61.4047 68.1689L61.3768 68.0256L61.3481 67.881L61.3186 67.7351L61.2884 67.5878L61.2574 67.4392L61.2257 67.2892L61.1933 67.138L61.1601 66.9854L61.1262 66.8315L61.0915 66.6763L61.0562 66.5199L61.0201 66.3621L60.9833 66.2031L60.9457 66.0428L60.9075 65.8812L60.8686 65.7183L60.8289 65.5542L60.7886 65.3889L60.7476 65.2223L60.7059 65.0545L60.6635 64.8854L60.6204 64.7151L60.5767 64.5436L60.5323 64.3709L60.4872 64.197L60.4415 64.0219L60.3951 63.8456L60.3481 63.6681L60.3005 63.4895L60.2521 63.3097L60.2032 63.1287L60.1536 62.9465L60.1034 62.7633L60.0526 62.5789L60.0012 62.3933L59.9491 62.2067L59.8964 62.0189L59.8432 61.83L59.7893 61.64L59.7349 61.449L59.6798 61.2568L59.6242 61.0636L59.568 60.8693L59.5112 60.6739L59.4539 60.4775L59.396 60.2801L59.3375 60.0816L59.2785 59.8821L59.2189 59.6816L59.1588 59.4801L59.0982 59.2776L59.037 59.074L58.9752 58.8696L58.8502 58.4577L43.5157 15.4462L43.4338 15.2472L43.3522 15.0493L43.2708 14.8525L43.1897 14.6568L43.1087 14.4623L43.0279 14.2688L42.9474 14.0765L42.8671 13.8853L42.787 13.6953L42.7071 13.5064L42.6274 13.3187L42.548 13.1322L42.4688 12.9468L42.3898 12.7627L42.3111 12.5797L42.2325 12.398L42.1543 12.2175L42.0762 12.0382L41.9984 11.8602L41.9208 11.6835L41.8434 11.508L41.7663 11.3337L41.6894 11.1608L41.6128 10.9891L41.5364 10.8187L41.4602 10.6497L41.3843 10.4819L41.3086 10.3155L41.2332 10.1504L41.158 9.98659L41.0831 9.82417L41.0084 9.66311L40.934 9.50341L40.8598 9.34509L40.7858 9.18814L40.7121 9.03259L40.6387 8.87843L40.5655 8.72567L40.4926 8.57432L40.4199 8.4244L40.3474 8.27589L40.2753 8.12883L40.2034 7.98321L40.1317 7.83903L40.0603 7.69632L39.9892 7.55507L39.9183 7.4153L39.8476 7.277L39.7772 7.14018L39.7071 7.00487L39.6373 6.87105L39.5677 6.73874L39.4983 6.60794L39.4293 6.47867L39.3604 6.35092L39.2919 6.22471L39.2236 6.10004L39.1556 5.97691L39.0878 5.85534L39.0203 5.73533L38.953 5.61689L38.886 5.50002L38.8193 5.38473L38.7528 5.27103L38.6866 5.15891L38.6207 5.04839L38.555 4.93948L38.4896 4.83217L38.4244 4.72648L38.3595 4.6224L38.2949 4.51995L38.2305 4.41914L38.1664 4.31996L38.1025 4.22242L38.039 4.12653L37.9756 4.03228L37.9125 3.9397L37.8497 3.84878L37.7872 3.75953L37.7249 3.67194L37.6628 3.58603L37.6011 3.5018L37.5395 3.41926L37.4783 3.3384L37.4173 3.25925L37.3565 3.18179L37.296 3.10603L37.2358 3.03198L37.1758 2.95964L37.1161 2.88901L37.0566 2.82011L36.9974 2.75292L36.9384 2.68747L36.8797 2.62374L36.8212 2.56175L36.763 2.50149L36.705 2.44297L36.6473 2.3862L36.5898 2.33117L36.5326 2.2779L36.4756 2.22637L36.4189 2.17661L36.3624 2.1286L36.3062 2.08236L36.2502 2.03788L36.1944 1.99516L36.1389 1.95422L36.0837 1.91505L36.0286 1.87765L35.9738 1.84203L35.9193 1.80819L35.865 1.77612L35.8109 1.74584L35.7571 1.71735L35.7035 1.69064L35.6501 1.66572L35.5969 1.6426L35.544 1.62125L35.4914 1.60171L35.4389 1.58397L35.3867 1.56801L35.3347 1.55385L35.2829 1.5415L35.2314 1.53094L35.1801 1.52219L35.129 1.51522L35.0781 1.51007L35.0275 1.50672L34.9771 1.50517L34.9268 1.50543L34.8768 1.50748L34.8271 1.51134L34.7775 1.51702L34.7282 1.52449L34.679 1.53377L34.6301 1.54485L34.5814 1.55774L34.5328 1.57243L34.4845 1.58892L34.4364 1.60722L34.3886 1.62733L34.3409 1.64923L34.2934 1.67294L34.2461 1.69845L34.199 1.72576L34.1521 1.75487L34.1054 1.78578L34.0589 1.81849L34.0126 1.85299L33.9665 1.88929L33.9206 1.92738L33.8748 1.96727L33.8293 2.00894L33.7839 2.05241L33.7388 2.09766L33.6938 2.14469L33.649 2.19352L33.6043 2.24412L33.5599 2.2965L33.5156 2.35067L33.4716 2.4066L33.4276 2.46431L33.3839 2.52378L33.3403 2.58504L33.2969 2.64805L33.2537 2.71283L33.2106 2.77936L33.1678 2.84766L33.125 2.91771L33.0825 2.9895L33.0401 3.06305L32.9978 3.13835L32.9558 3.21538L32.9138 3.29415L32.8721 3.37465L32.8305 3.4569L32.789 3.54086L32.7477 3.62654L32.7066 3.71395L32.6655 3.80308L32.6247 3.89392L32.584 3.98646L32.5434 4.08071L32.503 4.17665L32.4627 4.2743L32.4226 4.37364L32.3826 4.47466L32.3427 4.57737L32.303 4.68174L32.2634 4.7878L32.224 4.89552L32.1846 5.0049L32.1455 5.11593L32.1064 5.22863L32.0674 5.34297L32.0286 5.45895L31.99 5.57658L31.9514 5.69583L31.9129 5.8167L31.8746 5.93919L31.8364 6.06331L31.7984 6.18903L31.7604 6.31636L31.7225 6.44529L31.6848 6.5758L31.6472 6.70789L31.6097 6.84157L31.5723 6.97683L31.5349 7.11365L31.4978 7.25202L31.4607 7.39197L31.4237 7.53344L31.3868 7.67646L31.35 7.82102L31.3134 7.96711L31.2768 8.11472L31.2403 8.26383L31.2039 8.41446L31.1676 8.56658L31.1315 8.7202L31.0954 8.87531L31.0593 9.03189L31.0234 9.18994L30.9876 9.34946L30.9519 9.51043L30.9162 9.67285L30.8806 9.83671L30.8452 10.002L30.8097 10.1687L30.7744 10.3369L30.7392 10.5064L30.704 10.6774L30.669 10.8497L30.6339 11.0234L30.599 11.1985L30.5642 11.375L30.5294 11.5529L30.4947 11.7321L30.4601 11.9126L30.4255 12.0945L30.391 12.2776L30.3566 12.4622L30.3222 12.648L30.288 12.8351L30.2537 13.0235L30.2196 13.2132L30.1855 13.4042L30.1515 13.5964L30.1175 13.7899L30.0836 13.9847L30.0498 14.1806L30.016 14.3778L29.9823 14.5763L29.9486 14.7759L29.915 14.9767L29.8815 15.1788L29.848 15.382L29.8145 15.5863L29.7812 15.7919L29.7478 15.9986L29.7146 16.2064L29.6813 16.4153L29.6482 16.6254L29.582 17.0489L29.549 17.2623L24.6932 62.8721L24.681 63.0855L24.669 63.2978L24.6573 63.5091L24.6458 63.7193L24.6347 63.9283L24.6239 64.1363L24.6134 64.3431L24.6031 64.5488L24.5932 64.7534L24.5836 64.9568L24.5743 65.159L24.5653 65.3601L24.5566 65.56L24.5483 65.7587L24.5402 65.9562L24.5325 66.1525L24.5251 66.3476L24.5181 66.5414L24.5114 66.7341L24.505 66.9255L24.4989 67.1156L24.4932 67.3045L24.4878 67.4921L24.4828 67.6785L24.4782 67.8636L24.4738 68.0473L24.4699 68.2298L24.4663 68.411L24.463 68.5909L24.4601 68.7694L24.4576 68.9466L24.4555 69.1225L24.4537 69.297L24.4523 69.4702L24.4513 69.642L24.4506 69.8124L24.4504 69.9815L24.4505 70.1492L24.451 70.3155L24.4519 70.4804L24.4532 70.6439L24.4549 70.806L24.457 70.9666L24.4595 71.1259L24.4624 71.2837L24.4657 71.44L24.4694 71.595L24.4735 71.7484L24.4781 71.9004L24.483 72.051L24.4884 72.2001L24.4942 72.3477L24.5004 72.4938L24.5071 72.6384L24.5142 72.7815L24.5217 72.9231L24.5297 73.0632L24.5381 73.2018L24.5469 73.3389L24.5562 73.4745L24.566 73.6085L24.5762 73.741L24.5868 73.8719L24.5979 74.0013L24.6095 74.1292L24.6215 74.2555L24.634 74.3802L24.6469 74.5033L24.6603 74.6249L24.6742 74.7449L24.6886 74.8633L24.7034 74.9802L24.7187 75.0954L24.7345 75.209L24.7508 75.3211L24.7675 75.4315L24.7848 75.5403L24.8025 75.6475L24.8207 75.7531L24.8395 75.8571L24.8587 75.9594L24.8784 76.0602L24.8986 76.1592L24.9193 76.2567L24.9406 76.3525L24.9623 76.4466L24.9846 76.5391L25.0073 76.63L25.0306 76.7192L25.0544 76.8067L25.0787 76.8926L25.1036 76.9768L25.129 77.0593L25.1548 77.1402L25.1813 77.2194L25.2082 77.2969L25.2357 77.3727L25.2637 77.4469L25.2923 77.5194L25.3214 77.5901L25.351 77.6592L25.3812 77.7266L25.4119 77.7924L25.4432 77.8564L25.475 77.9187L25.5073 77.9793L25.5402 78.0382L25.5737 78.0954L25.6077 78.1509L25.6423 78.2047L25.6775 78.2568L25.7132 78.3072L25.7494 78.3559L25.7863 78.4029L25.8237 78.4481L25.8616 78.4917L25.9002 78.5335L25.9393 78.5736L25.9789 78.612L26.0192 78.6487L26.06 78.6836L26.1014 78.7169L26.1434 78.7484L26.186 78.7782L26.2291 78.8063L26.2728 78.8326L26.3171 78.8573L26.362 78.8802L26.4075 78.9014L26.4536 78.9209L26.5002 78.9387L26.5475 78.9547L26.5953 78.9691L26.6437 78.9817L26.6928 78.9926L26.7424 79.0017L26.7926 79.0092L26.8434 79.015L26.8948 79.019L26.9468 79.0213L26.9994 79.0219L27.0526 79.0208L27.1064 79.018L27.1608 79.0135L27.2158 79.0073L27.2715 78.9993L27.3277 78.9897L27.3845 78.9784L27.4419 78.9653L27.5 78.9506L27.5586 78.9342L27.6179 78.9161L27.6777 78.8962L27.7382 78.8747L27.7993 78.8515L27.861 78.8267L27.9233 78.8001L27.9862 78.7719L28.0497 78.7419L28.1138 78.7103L28.1786 78.6771L28.2439 78.6421L28.3099 78.6055L28.3765 78.5672L28.4437 78.5273L28.5115 78.4857L28.5799 78.4425L28.6489 78.3976L28.7185 78.351L28.7888 78.3029L28.8596 78.253L28.9311 78.2016L29.0032 78.1485L29.0759 78.0937L29.1492 78.0374L29.2231 77.9794L29.2977 77.9198L29.3728 77.8586L29.4486 77.7958L29.5249 77.7314L29.6019 77.6653L29.6795 77.5977L29.7577 77.5285L29.8365 77.4577L29.9159 77.3853L29.9959 77.3114L30.0765 77.2358L30.1577 77.1587L30.2395 77.0801L30.3219 76.9998L30.405 76.918L30.4886 76.8347L30.5728 76.7498L30.6577 76.6634L30.7431 76.5755L30.8291 76.486L30.9158 76.395L31.003 76.3025L31.0908 76.2085L31.1792 76.113L31.2682 76.0159L31.3578 75.9174L31.448 75.8174L31.5387 75.7159L31.6301 75.6129L31.722 75.5085L31.8145 75.4026L31.9077 75.2952L32.0013 75.1864L32.0956 75.0762L32.1904 74.9645L32.2859 74.8514L32.3819 74.7368L32.4784 74.6209L32.5756 74.5035L32.6733 74.3847L32.7715 74.2645L32.8704 74.143L32.9698 74.02L33.0697 73.8957L33.1702 73.77L33.2713 73.6429L33.3729 73.5145L33.4751 73.3848L33.5778 73.2537L33.6811 73.1212L33.7849 72.9874L33.8893 72.8524L33.9942 72.716L34.0997 72.5783L34.2056 72.4393L34.3122 72.299L34.4192 72.1574L34.5268 72.0146L34.6349 71.8705L34.7435 71.7251L34.8526 71.5785L34.9623 71.4307L35.0725 71.2816L35.1832 71.1313L35.2944 70.9798L35.4061 70.8271L35.5183 70.6732L35.631 70.518L35.7442 70.3617L35.8579 70.2043L35.9721 70.0456L36.0868 69.8859L36.2019 69.7249L36.3176 69.5628L36.4337 69.3996L36.5503 69.2353L36.6673 69.0699L36.7849 68.9033L36.9029 68.7357L37.0213 68.5669L37.1402 68.3971L37.2596 68.2263L37.3794 68.0543L37.4997 67.8813L37.6204 67.7073L37.7416 67.5323L37.8632 67.3562L62.0645 28.398L62.1695 28.2096L62.2737 28.022L62.3773 27.8353L62.4801 27.6494L62.5822 27.4643L62.6835 27.2801L62.7842 27.0968L62.884 26.9144L62.9831 26.7328L63.0814 26.5522L63.179 26.3724L63.2758 26.1935L63.3718 26.0156L63.467 25.8385L63.5614 25.6624L63.655 25.4873L63.7478 25.313L63.8398 25.1397L63.9309 24.9674L64.0212 24.796L64.1107 24.6256L64.1994 24.4562L64.2872 24.2877L64.3741 24.1203L64.4602 23.9538L64.5455 23.7883L64.6298 23.6238L64.7133 23.4604L64.7959 23.2979L64.8776 23.1365L64.9584 22.9761L65.0383 22.8167L65.1173 22.6584L65.1953 22.5011L65.2725 22.3449L65.3487 22.1897L65.424 22.0356L65.4984 21.8826L65.5718 21.7306L65.6443 21.5798L65.7158 21.43L65.7864 21.2813L65.8559 21.1337L65.9246 20.9871L65.9922 20.8417L66.0589 20.6974L66.1245 20.5543L66.1892 20.4122L66.2529 20.2713L66.3156 20.1315L66.3773 19.9928L66.4379 19.8553L66.4976 19.7189L66.5562 19.5837L66.6138 19.4496L66.6703 19.3166L66.7258 19.1849L66.7803 19.0543L66.8337 18.9249L66.8861 18.7966L66.9374 18.6695L66.9876 18.5436L67.0368 18.4189L67.0849 18.2954L67.1319 18.1731L67.1778 18.0519L67.2227 17.932L67.2665 17.8133L67.3091 17.6958L67.3507 17.5795L67.3911 17.4644L67.4305 17.3505L67.4687 17.2379L67.5058 17.1264L67.5418 17.0162L67.5767 16.9073L67.6104 16.7996L67.643 16.6931L67.6744 16.5878L67.7048 16.4838L67.7339 16.381L67.7619 16.2795L67.7888 16.1792L67.8145 16.0802L67.839 15.9824L67.8624 15.8859L67.8846 15.7907L67.9057 15.6967L67.9255 15.604L67.9442 15.5125L67.9617 15.4223L67.978 15.3334L67.9931 15.2458L68.007 15.1594L68.0197 15.0743L68.0312 14.9905L68.0416 14.908L68.0507 14.8267L68.0586 14.7467L68.0653 14.668L68.0707 14.5906L68.075 14.5145L68.078 14.4397L68.0798 14.3661L68.0804 14.2939L68.0798 14.2229L68.0779 14.1532L68.0748 14.0849L68.0705 14.0178L68.0649 13.952L68.0581 13.8875L68.05 13.8243L68.0407 13.7624L68.0301 13.7017L68.0183 13.6424L68.0053 13.5844L67.9909 13.5277L67.9754 13.4722L67.9586 13.4181L67.9405 13.3653L67.9211 13.3138L67.9005 13.2635L67.8786 13.2146L67.8555 13.167L67.8311 13.1206L67.8054 13.0756L67.7785 13.0318L67.7502 12.9894L67.7208 12.9482L67.69 12.9083L67.658 12.8698L67.6246 12.8325L67.5901 12.7965L67.5542 12.7618L67.517 12.7284L67.4786 12.6963L67.4389 12.6655L67.3979 12.636L67.3557 12.6077L67.3121 12.5807L67.2673 12.5551L67.2212 12.5307L67.1738 12.5076L67.1251 12.4857L67.0751 12.4652L67.0238 12.4459L66.9713 12.4279L66.9175 12.4112L66.8624 12.3957L66.806 12.3815L66.7483 12.3686L66.6894 12.357L66.6291 12.3466L66.5676 12.3375L66.5048 12.3296L66.4407 12.323L66.3754 12.3176L66.3087 12.3135L66.2408 12.3107L66.1716 12.3091L66.1011 12.3087L66.0294 12.3096L65.9563 12.3118L65.882 12.3152L65.8064 12.3198L65.7295 12.3256L65.6514 12.3327L65.572 12.341L65.4913 12.3505L65.4094 12.3612L65.3262 12.3732L65.2417 12.3864L65.156 12.4007L65.069 12.4163L64.9807 12.4331L64.8912 12.4511L64.8004 12.4703L64.7084 12.4907L64.6151 12.5123L64.5206 12.5351L64.4248 12.5591L64.3278 12.5842L64.2295 12.6105L64.13 12.638L64.0292 12.6667L63.9273 12.6965L63.8241 12.7275L63.7196 12.7597L63.6139 12.793L63.507 12.8274L63.3989 12.863L63.2896 12.8998L63.179 12.9376L63.0672 12.9766L62.9542 13.0168L62.84 13.0581L62.7247 13.1004L62.6081 13.1439L62.4903 13.1885L62.3713 13.2343L62.2511 13.2811L62.1297 13.329L62.0072 13.378L61.8834 13.4281L61.7585 13.4793L61.6325 13.5316L61.5052 13.5849L61.3768 13.6393L61.2472 13.6948L61.1165 13.7513L60.9846 13.8089L60.8516 13.8675L60.7174 13.9272L60.5821 13.9879L60.4457 14.0496L60.3081 14.1124L60.1694 14.1762L60.0296 14.241L59.8886 14.3068L59.7466 14.3737L59.6034 14.4415L59.4592 14.5103L59.3138 14.5802L59.1674 14.651L59.0198 14.7228L58.8712 14.7955L58.7215 14.8693L58.5708 14.9439L58.4189 15.0196L58.2661 15.0962L58.1121 15.1737L57.9571 15.2522L57.8011 15.3316L57.644 15.412L57.4859 15.4932L57.3268 15.5754L57.1666 15.6585L57.0054 15.7425L56.8432 15.8274L56.68 15.9132L56.5159 15.9998L56.3507 16.0874L56.1845 16.1758L56.0174 16.2651L55.8493 16.3552L55.6802 16.4462L55.5102 16.5381L55.3392 16.6308L55.1672 16.7243L54.9943 16.8186L54.8205 16.9138L54.6458 17.0098L54.4701 17.1066L54.2936 17.2042L54.1161 17.3026L53.9377 17.4018L53.7584 17.5018L53.5783 17.6026L53.3972 17.7041L53.2153 17.8064L53.0326 17.9094L52.8489 18.0132L52.6645 18.1178L52.4791 18.223L52.293 18.329L52.106 18.4358L13.7552 42.8021L13.578 42.9266L13.4018 43.0507L13.0525 43.2976L12.8794 43.4204L12.7073 43.5427L12.5362 43.6645L12.3662 43.7859L12.1973 43.9068L12.0294 44.0273L11.8626 44.1473L11.6969 44.2668L11.5322 44.3858L11.3687 44.5044L11.2063 44.6224L11.045 44.74L10.8849 44.8571L10.7259 44.9737L10.568 45.0898L10.4113 45.2054L10.2558 45.3205L10.1014 45.435L9.94823 45.5491L9.79623 45.6626L9.64544 45.7757L9.49585 45.8882L9.34748 46.0002L9.20033 46.1116L9.05442 46.2226L8.90973 46.3329L8.76631 46.4428L8.62413 46.5521L8.48323 46.6609L8.34359 46.7691L8.20524 46.8768L8.06816 46.984L7.93238 47.0906L7.7979 47.1966L7.66474 47.3021L7.53289 47.407L7.40237 47.5114L7.27318 47.6151L7.14533 47.7184L7.01883 47.821L6.89367 47.9231L6.76989 48.0246L6.64746 48.1256L6.52642 48.2259L6.40676 48.3257L6.28848 48.4249L6.17161 48.5236L6.05612 48.6216L5.94206 48.719L5.82942 48.8159L5.71819 48.9122L5.60839 49.0079L5.50002 49.1029L5.39311 49.1974L5.28764 49.2913L5.18362 49.3846L5.08106 49.4773L4.97998 49.5694L4.88036 49.6609L4.78223 49.7518L4.68558 49.842L4.59042 49.9317L4.49675 50.0208L4.40459 50.1092L4.31394 50.1971L4.2248 50.2843L4.13718 50.3709L4.05108 50.4569L3.96652 50.5423L3.88348 50.627L3.80199 50.7112L3.72205 50.7947L3.64366 50.8776L3.56682 50.9599L3.49154 51.0415L3.41783 51.1226L3.34568 51.203L3.27512 51.2828L3.20613 51.362L3.13872 51.4405L3.07291 51.5184L3.00869 51.5957L2.94607 51.6724L2.88505 51.7484L2.82563 51.8238L2.76782 51.8986L2.71162 51.9728L2.65705 52.0463L2.6041 52.1192L2.55277 52.1914L2.50308 52.2631L2.45501 52.3341L2.40858 52.4045L2.36379 52.4742L2.32065 52.5433L2.27915 52.6118L2.2393 52.6797L2.2011 52.7469L2.16457 52.8135L2.12968 52.8794L2.09647 52.9448L2.06492 53.0095L2.03503 53.0735L2.00682 53.137L1.98028 53.1998L1.95541 53.262L1.93223 53.3236L1.91072 53.3845L1.8909 53.4448L1.87276 53.5045L1.85631 53.5635L1.84155 53.622L1.82848 53.6798L1.8171 53.7369L1.80742 53.7935L1.79944 53.8494L1.79315 53.9047L1.78856 53.9594L1.78567 54.0135L1.78449 54.0669L1.78501 54.1198L1.78723 54.172L1.79116 54.2235L1.79681 54.2745L1.80416 54.3249L1.81321 54.3746L1.82397 54.4237L1.83644 54.4723L1.85063 54.5202L1.86654 54.5675L1.88415 54.6142L1.90347 54.6602L1.92451 54.7057L1.94727 54.7506L1.97173 54.7948L1.9979 54.8385L2.02579 54.8815L2.0554 54.924L2.08671 54.9658L2.11974 55.0071L2.15449 55.0478L2.19094 55.0878L2.2291 55.1273L2.26898 55.1662L2.31056 55.2045L2.35385 55.2422L2.39886 55.2793L2.44557 55.3159L2.49398 55.3518L2.54411 55.3872L2.59592 55.422L2.64945 55.4562L2.70468 55.4898L2.7616 55.5229L2.82023 55.5553L2.88055 55.5873L2.94256 55.6186L3.00626 55.6494L3.07166 55.6796L3.13875 55.7092L3.20753 55.7383L3.27798 55.7669L3.35011 55.7948L3.42394 55.8222L3.49943 55.8491L3.57661 55.8754L3.65545 55.9012L3.73596 55.9264L3.81813 55.951L3.90198 55.9752L3.98748 55.9987L4.07465 56.0218L4.16346 56.0443L4.25393 56.0663L4.34605 56.0877L4.43981 56.1086L4.53521 56.129L4.63226 56.1489L4.73093 56.1682L4.83123 56.187L4.93317 56.2053L5.03672 56.2231L5.1419 56.2403L5.24869 56.2571L5.35709 56.2733L5.4671 56.2891L5.57871 56.3043L5.69192 56.3191L5.80672 56.3333L5.92312 56.347L6.04109 56.3603L6.16064 56.373L6.28178 56.3853L6.40448 56.3971L6.52875 56.4084L6.65458 56.4192L6.78196 56.4295L6.91089 56.4394L7.04138 56.4488L7.17339 56.4577L7.30695 56.4662L7.44203 56.4741L7.57864 56.4817L7.71676 56.4887L7.85639 56.4953L7.99753 56.5015L8.14017 56.5072L8.2843 56.5124L8.42993 56.5172L8.57704 56.5216L8.72562 56.5255L8.87567 56.529L9.02718 56.532L9.18016 56.5347L9.33458 56.5368L9.49045 56.5386L9.64775 56.5399L9.80649 56.5408L9.96664 56.5413L10.1282 56.5414L10.2912 56.5411L10.4556 56.5403L10.6214 56.5392L10.7885 56.5376L10.9571 56.5357L11.127 56.5333L11.2983 56.5305L11.471 56.5274L11.645 56.5239L11.8204 56.5199L11.997 56.5156L12.1751 56.5109L12.3544 56.5059L12.5351 56.5004L12.717 56.4946L12.9003 56.4884L13.0848 56.4819L13.2707 56.4749L13.4578 56.4677L13.6461 56.46L13.8357 56.452L14.0266 56.4437L14.2187 56.435L14.4121 56.4259L14.6066 56.4165L14.8024 56.4068L14.9994 56.3967L15.1976 56.3863L15.397 56.3756L15.5975 56.3645L15.7992 56.3531L16.0021 56.3414L16.2061 56.3294L16.4113 56.317L16.6176 56.3044L16.825 56.2914L17.0336 56.2781L17.2432 56.2645L17.454 56.2506L17.6658 56.2364L17.8787 56.2219L18.0927 56.2071L63.6564 50.8403L63.8688 50.8049L64.0801 50.7695L64.2903 50.734L64.4994 50.6986L64.7073 50.663L64.9141 50.6275L65.1198 50.5918L65.3243 50.5562L65.5276 50.5205L65.7298 50.4848L65.9307 50.449L66.1305 50.4132L66.3291 50.3773L66.5264 50.3414L66.7225 50.3054L66.9174 50.2694L67.1111 50.2334L67.3035 50.1973L67.4946 50.1611L67.6844 50.1249L67.873 50.0887L68.0603 50.0524L68.2463 50.016L68.431 49.9796L68.6143 49.9431L68.7964 49.9066L68.9771 49.87L69.1565 49.8334L69.3345 49.7967L69.5111 49.7599L69.6864 49.7231L69.8603 49.6863L70.0329 49.6493L70.204 49.6123L70.3738 49.5753L70.5421 49.5381L70.709 49.5009L70.8745 49.4637L71.0386 49.4264L71.2012 49.389L71.3624 49.3515L71.5221 49.314L71.6804 49.2763L71.8371 49.2387L71.9925 49.2009L72.1463 49.1631L72.2986 49.1251L72.4495 49.0872L72.5988 49.0491L72.7466 49.0109L72.8929 48.9727L73.0377 48.9344L73.181 48.896L73.3227 48.8575L73.4628 48.8189L73.6014 48.7803L73.7385 48.7415L73.874 48.7027L74.0079 48.6637L74.1402 48.6247L74.2709 48.5856L74.4001 48.5464L74.5276 48.5071L74.6536 48.4677L74.7779 48.4281L74.9007 48.3885L75.0218 48.3488L75.1413 48.309L75.2591 48.2691L75.3754 48.229L75.4899 48.1889L75.6029 48.1487L75.7141 48.1083L75.8238 48.0678L75.9317 48.0273L76.038 47.9866L76.1426 47.9458L76.2456 47.9048L76.3468 47.8638L76.4464 47.8226L76.5443 47.7813L76.6405 47.7399L76.735 47.6984L76.8277 47.6567L76.9188 47.6149L77.0082 47.573L77.0958 47.531L77.1817 47.4888L77.266 47.4465L77.3484 47.404L77.4292 47.3614L77.5082 47.3187L77.5854 47.2759L77.661 47.2329L77.7347 47.1897L77.8068 47.1465L77.877 47.103L77.9456 47.0595L78.0123 47.0158L78.0773 46.9719L78.1406 46.9279L78.2021 46.8837L78.2618 46.8394L78.3197 46.7949L78.3758 46.7503L78.4302 46.7055L78.4828 46.6606L78.5337 46.6155L78.5827 46.5702L78.6299 46.5248L78.6754 46.4792L78.7191 46.4334L78.761 46.3875L78.8011 46.3414L78.8394 46.2951L78.8759 46.2487L78.9106 46.2021L78.9435 46.1553L78.9746 46.1084L79.0039 46.0613L79.0314 46.014L79.0571 45.9665L79.081 45.9188L79.1031 45.871L79.1234 45.8229L79.1419 45.7747L79.1585 45.7263L79.1734 45.6777L79.1865 45.629L79.1977 45.58L79.2072 45.5309L79.2148 45.4815L79.2207 45.432L79.2247 45.3822L79.2269 45.3323L79.2273 45.2822L79.2259 45.2319L79.2227 45.1813L79.2177 45.1306L79.2109 45.0797L79.2023 45.0286L79.1919 44.9773L79.1796 44.9257L79.1656 44.874L79.1498 44.822L79.1322 44.7699L79.1127 44.7175L79.0915 44.6649L79.0685 44.6121L79.0437 44.5592L79.0171 44.5059L78.9887 44.4525L78.9585 44.3989L78.9266 44.345L78.8928 44.2909L78.8573 44.2366L78.82 44.1821L78.7809 44.1274L78.74 44.0724L78.6974 44.0172L78.653 43.9618L78.6068 43.9062L78.5589 43.8504L78.5092 43.7943L78.4577 43.738L78.4045 43.6815L78.3495 43.6247L78.2928 43.5677L78.2343 43.5105L78.1741 43.453L78.1121 43.3954L78.0484 43.3374L77.983 43.2793L77.9158 43.2209L77.8469 43.1623L77.7763 43.1035L77.7039 43.0444L77.6299 42.9851L77.5541 42.9255L77.4766 42.8657L77.3975 42.8057L77.3166 42.7454L77.234 42.6849L77.1498 42.6242L77.0638 42.5632L76.9762 42.502L76.8869 42.4405L76.7959 42.3788L76.7033 42.3168L76.609 42.2547L76.513 42.1922L76.4154 42.1295L76.3162 42.0666L76.2153 42.0035L76.1127 41.9401L76.0086 41.8764L75.9028 41.8125L75.7954 41.7484L75.6863 41.684L75.5757 41.6194L75.4635 41.5546L75.3496 41.4895L75.2342 41.4241L75.1172 41.3585L74.9986 41.2927L74.8785 41.2266L74.7568 41.1603L74.6335 41.0937L74.5086 41.0269L74.3823 40.9598L74.2543 40.8925L74.1249 40.825L73.9939 40.7572L73.8614 40.6892L73.7274 40.6209L73.5919 40.5524L73.4548 40.4836L73.3163 40.4146L73.1763 40.3454L73.0348 40.2759L72.8919 40.2062L72.7475 40.1362L72.6016 40.066L72.4543 39.9955L72.3055 39.9249L72.1554 39.8539L72.0037 39.7828L71.8507 39.7114L71.6963 39.6397L71.5404 39.5679L71.3832 39.4958L71.2246 39.4234L71.0646 39.3508L70.9032 39.278L70.7404 39.205L70.5764 39.1317L70.4109 39.0582L70.2441 38.9845L70.076 38.9105L69.9066 38.8363L69.7359 38.7619L69.5639 38.6872L69.3905 38.6124L69.2159 38.5373L69.04 38.4619L68.8629 38.3864L68.6845 38.3106L68.5048 38.2347L68.3239 38.1584L68.1418 38.082L67.9584 38.0054L67.7738 37.9285L67.5881 37.8515L67.4011 37.7742L67.213 37.6967L67.0236 37.619L66.8331 37.5411L66.6415 37.4629L66.4487 37.3846L66.2548 37.3061L66.0597 37.2273L65.8635 37.1484L65.6662 37.0693L65.4679 36.9899L65.2684 36.9104L22.0844 22.0445L21.8769 21.9838L21.6704 21.9236L21.4648 21.864L21.2602 21.8048L21.0565 21.7462L20.8539 21.6881L20.6523 21.6305L20.4517 21.5735L20.2522 21.517L20.0537 21.4611L19.8562 21.4057L19.6598 21.3509L19.4644 21.2966L19.2701 21.2429L19.0769 21.1897L18.8848 21.1372L18.6938 21.0852L18.5038 21.0338L18.315 20.9829L18.1273 20.9327L17.9407 20.8831L17.7553 20.8341L17.571 20.7857L17.3878 20.7379L17.2058 20.6907L17.025 20.6441L16.8453 20.5982L16.6668 20.5528L16.4895 20.5082L16.3134 20.4641L16.1385 20.4207L15.9648 20.378L15.7923 20.3359L15.6211 20.2944L15.451 20.2537L15.2822 20.2135L15.1147 20.1741L14.9484 20.1353L14.7833 20.0972L14.6195 20.0598L14.457 20.0231L14.2957 19.9871L14.1358 19.9518L13.9771 19.9171L13.8197 19.8832L13.6636 19.85L13.5088 19.8175L13.3553 19.7857L13.2032 19.7546L13.0523 19.7243L12.9028 19.6947L12.7547 19.6658L12.6078 19.6377L12.4624 19.6103L12.3182 19.5836L12.1754 19.5577L12.034 19.5326L11.894 19.5082L11.7553 19.4846L11.618 19.4617L11.4821 19.4396L11.3476 19.4183L11.2145 19.3977L11.0827 19.378L10.9524 19.359L10.8235 19.3408L10.696 19.3234L10.5699 19.3068L10.4452 19.291L10.322 19.276L10.2001 19.2618L10.0797 19.2484L9.9608 19.2358L9.8433 19.2241L9.72724 19.2131L9.61263 19.203L9.49948 19.1938L9.38779 19.1853L9.27754 19.1777L9.16877 19.1709L9.06147 19.165L8.95564 19.1599L8.85128 19.1556L8.74841 19.1522L8.647 19.1497L8.5471 19.148L8.44868 19.1471L8.35174 19.1472L8.2563 19.1481L8.16236 19.1498L8.06992 19.1524L7.97898 19.1559L7.88955 19.1603L7.80163 19.1656L7.71521 19.1717L7.6303 19.1788L7.54691 19.1867L7.46504 19.1955L7.38469 19.2052L7.30585 19.2158L7.22854 19.2273L7.15275 19.2397L7.07849 19.253L7.00576 19.2672L6.93457 19.2823L6.8649 19.2983L6.79676 19.3153L6.73017 19.3331L6.66509 19.3519L6.60157 19.3716L6.53959 19.3922L6.47914 19.4137L6.42023 19.4362L6.36286 19.4595L6.30704 19.4839L6.25276 19.5091L6.20003 19.5353L6.14884 19.5624L6.09919 19.5904L6.0511 19.6194L6.00454 19.6493L5.95954 19.6802L5.91608 19.712L5.87417 19.7448L5.83381 19.7785L5.79499 19.8131L5.75772 19.8487L5.72199 19.8853L5.68782 19.9228L5.6552 19.9613L5.62412 20.0007L5.59458 20.041L5.56659 20.0824L5.54014 20.1246L5.51524 20.1679L5.49188 20.2121L5.47008 20.2573L5.4498 20.3034L5.43107 20.3505L5.41388 20.3985L5.39823 20.4475L5.38411 20.4975L5.37154 20.5485L5.36049 20.6004L5.35099 20.6533L5.34301 20.7071L5.33657 20.7619L5.33164 20.8177L5.32826 20.8745L5.32639 20.9322L5.32605 20.9909L5.32724 21.0506L5.32994 21.1112L5.33415 21.1728L5.3399 21.2354L5.34714 21.2989L5.3559 21.3634L5.36617 21.4289L5.37794 21.4954L5.39122 21.5628L5.406 21.6312L5.42227 21.7006L5.44005 21.7709L5.45932 21.8422L5.48007 21.9145L5.50232 21.9877L5.52605 22.0619L5.55126 22.1371L5.57795 22.2132L5.60611 22.2903L5.63575 22.3684L5.66685 22.4474L5.69942 22.5274L5.73344 22.6083L5.76893 22.6903L5.80588 22.7731L5.84427 22.857L5.88411 22.9418L5.92538 23.0275L5.9681 23.1142L6.01226 23.2019L6.05785 23.2905L6.10487 23.38L6.1533 23.4705L6.20316 23.562L6.25442 23.6544L6.3071 23.7478L6.36118 23.842L6.41667 23.9373L6.47354 24.0335L6.53182 24.1306L6.59148 24.2286L6.65253 24.3276L6.71495 24.4275L6.77874 24.5284L6.84389 24.6301L6.91043 24.7328L6.97831 24.8364L7.04755 24.941L7.11812 25.0464L7.19005 25.1528L7.26331 25.2601L7.3379 25.3683L7.41382 25.4774L7.49106 25.5875L7.56963 25.6984L7.64949 25.8102L7.73066 25.9229L7.81313 26.0366L7.89689 26.1511L7.98194 26.2665L8.06826 26.3828L8.15587 26.4999L8.24475 26.618L8.33488 26.7369L8.42627 26.8567L8.51892 26.9774L8.61281 27.099L8.70794 27.2214L8.8043 27.3447L8.90188 27.4688L9.00069 27.5938L9.10071 27.7196L9.20193 27.8463L9.30436 27.9738L9.40798 28.1022L9.51278 28.2314L9.61877 28.3614L9.72593 28.4923L9.83425 28.624L9.94374 28.7565L10.0544 28.8898L10.1662 29.0239L10.2791 29.1589L10.3931 29.2946L10.5083 29.4312L10.6246 29.5685L10.742 29.7066L10.8605 29.8456L10.9801 29.9853L11.1008 30.1257L11.2226 30.267L11.3455 30.409L11.4694 30.5518L11.5943 30.6953L11.7204 30.8396L11.8474 30.9847L11.9756 31.1305L12.1047 31.277L12.2349 31.4243L12.366 31.5722L12.4982 31.721L12.6314 31.8704L12.7655 32.0205L12.9007 32.1714L13.0368 32.323L13.1739 32.4752L13.3119 32.6282L13.4509 32.7818L13.5909 32.9361L13.7318 33.0911L13.8735 33.2468L14.0163 33.4031L14.1599 33.5601L14.3044 33.7178L14.4498 33.8761L14.5961 34.035L47.0781 66.1409L47.238 66.2846L47.3973 66.4273L47.5559 66.5692L47.7138 66.7101L47.871 66.8501L48.0276 66.9893L48.1835 67.1274L48.3386 67.2647L48.4931 67.401L48.6469 67.5364L48.8 67.6708L48.9523 67.8042L49.1039 67.9367L49.2549 68.0682L49.405 68.1987L49.5545 68.3282L49.7032 68.4566L49.8511 68.5841L49.9983 68.7106L50.1448 68.836L50.2905 68.9604L50.4354 69.0838L50.5796 69.206L50.7229 69.3273L50.8655 69.4475L51.0074 69.5666L51.1484 69.6846L51.2886 69.8015L51.428 69.9174L51.5667 70.0321L51.7045 70.1457L51.8415 70.2583L51.9777 70.3696L52.1131 70.4799L52.2476 70.589L52.3813 70.697L52.5142 70.8038L52.6462 70.9095L52.7774 71.014L52.9078 71.1174L53.0373 71.2195L53.166 71.3205L53.2938 71.4203L53.4207 71.5189L53.5468 71.6163L53.672 71.7125L53.7963 71.8074L53.9198 71.9012L54.0424 71.9937L54.1641 72.0849L54.2849 72.175L54.4048 72.2638L54.5239 72.3513L54.642 72.4376L54.7593 72.5226L54.8756 72.6063L54.991 72.6888L55.1056 72.77L55.2192 72.8499L55.3319 72.9285L55.4437 73.0057L55.5546 73.0817L55.6645 73.1564L55.7735 73.2298L55.8816 73.3018L55.9888 73.3725L56.095 73.4419L56.2003 73.51L56.3047 73.5767L56.4081 73.642L56.5106 73.706L56.6122 73.7687L56.7128 73.83L56.8124 73.8899L56.9111 73.9484L57.0089 74.0056L57.1057 74.0614L57.2015 74.1158L57.2964 74.1688L57.3903 74.2204L57.4833 74.2707L57.5753 74.3195L57.6664 74.3669L57.7564 74.4129L57.8455 74.4575L57.9337 74.5006L58.0208 74.5423L58.107 74.5827L58.1923 74.6215L58.2765 74.659L58.3598 74.695L58.4421 74.7295L58.5234 74.7626L58.6038 74.7943L58.6831 74.8245L58.7615 74.8532L58.8389 74.8805L58.9154 74.9064L58.9908 74.9307L59.0653 74.9536L59.1387 74.975L59.2112 74.9949L59.2828 75.0134L59.3533 75.0304L59.4228 75.0459L59.4914 75.0599L59.5589 75.0724L59.6255 75.0834L59.6911 75.0929L59.7557 75.1009L59.8193 75.1075L59.882 75.1125L59.9436 75.116L60.0043 75.118L60.0639 75.1185L60.1226 75.1175L60.1803 75.115L60.237 75.111L60.2928 75.1054L60.3475 75.0983L60.4013 75.0898L60.454 75.0796L60.5058 75.068L60.5566 75.0549L60.6064 75.0402L60.6553 75.024L60.7031 75.0062L60.75 74.987L60.7959 74.9662L60.8408 74.9438L60.8848 74.92L60.9277 74.8946L60.9697 74.8677L61.0107 74.8392L61.0508 74.8092L61.0898 74.7777L61.1279 74.7446L61.165 74.71L61.2012 74.6739L61.2364 74.6362L61.2706 74.597L61.3038 74.5563L61.3361 74.514L61.3675 74.4702L61.3978 74.4248L61.4272 74.3779L61.4557 74.3295L61.4832 74.2795L61.5097 74.228L61.5353 74.175L61.5599 74.1204L61.5836 74.0643L61.6064 74.0067L61.6282 73.9475L61.649 73.8869L61.6689 73.8246L61.6879 73.7609L61.706 73.6956L61.7231 73.6288L61.7392 73.5605L61.7545 73.4906L61.7688 73.4193L61.7822 73.3464L61.7947 73.272L61.8062 73.1961L61.8169 73.1186L61.8266 73.0397L61.8354 72.9592L61.8433 72.8772L61.8503 72.7938L61.8564 72.7088L61.8616 72.6223L61.8658 72.5343L61.8692 72.4448L61.8717 72.3539L61.8733 72.2614L61.8741 72.1674L61.8739 72.072L61.8728 71.9751L61.8709 71.8767L61.8681 71.7768L61.8644 71.6754L61.8599 71.5726L61.8545 71.4683L61.8482 71.3625L61.8411 71.2553L61.8331 71.1466L61.8242 71.0364L61.8145 70.9248L61.804 70.8118L61.7926 70.6973L61.7804 70.5814L61.7673 70.464L61.7535 70.3452L61.7387 70.225L61.7232 70.1034L61.7068 69.9803L61.6896 69.8558L61.6716 69.7299L61.6528 69.6026L61.6332 69.4739L61.6128 69.3438L61.5916 69.2123L61.5695 69.0794L61.5467 68.9451L61.5231 68.8095L61.4987 68.6725L61.4736 68.5341L61.4476 68.3943L61.4209 68.2532L61.3934 68.1107L61.3652 67.9669L61.3362 67.8217L61.3064 67.6752L61.2759 67.5274L61.2446 67.3782L61.2126 67.2278L61.1799 67.076L61.1464 66.9229L61.1122 66.7685L61.0772 66.6128L61.0415 66.4558L61.0052 66.2975L60.9681 66.1379L60.9302 65.9771L60.8917 65.815L60.8525 65.6516L60.8126 65.487L60.772 65.3212L60.7307 65.1541L60.6887 64.9858L60.646 64.8162L60.6027 64.6454L60.5587 64.4734L60.514 64.3002L60.4687 64.1258L60.4227 63.9502L60.3761 63.7734L60.3288 63.5955L60.2809 63.4164L60.2323 63.2361L60.1831 63.0546L60.1333 62.872L60.0828 62.6883L60.0317 62.5034L59.98 62.3174L59.9277 62.1303L59.8748 61.9421L59.8213 61.7527L59.7672 61.5623L59.7125 61.3708L59.6573 61.1782L59.6014 60.9846L59.545 60.7898L59.4879 60.5941L59.4304 60.3972L59.3722 60.1994L59.3135 60.0005L59.2543 59.8006L59.1945 59.5996L59.1342 59.3977L59.0733 59.1948L59.0119 58.9909L58.9499 58.786L43.6464 15.7653L43.4823 15.365L43.4006 15.1665L43.3191 14.969L43.2377 14.7727L43.1567 14.5775L43.0758 14.3833L42.9951 14.1903L42.9147 13.9985L42.8344 13.8078L42.7544 13.6182L42.6746 13.4298L42.5951 13.2426L42.5157 13.0565L42.4366 12.8717L42.3577 12.688L42.2791 12.5056L42.2006 12.3243L42.1224 12.1443L42.0445 11.9656L41.9667 11.7881L41.8892 11.6118L41.812 11.4368L41.735 11.2631L41.6582 11.0907L41.5816 10.9195L41.5053 10.7497L41.4293 10.5812L41.3534 10.4139L41.2779 10.248L41.2025 10.0835L41.1275 9.92026L41.0526 9.7584L40.978 9.59789L40.9037 9.43875L40.8296 9.28099L40.7558 9.12461L40.6822 8.96962L40.6088 8.81602L40.5358 8.66385L40.4629 8.51307L40.3903 8.36373L40.318 8.21582L40.246 8.06933L40.1741 7.9243L40.1026 7.78073L40.0313 7.63861L39.9602 7.49796L39.8895 7.35878L39.8189 7.22109L39.7487 7.08488L39.6787 6.95018L39.6089 6.81697L39.5394 6.68528L39.4702 6.5551L39.4012 6.42645L39.3325 6.29932L39.264 6.17373L39.1959 6.0497L39.1279 5.9272L39.0603 5.80626L38.9928 5.68689L38.9257 5.5691L38.8588 5.45287L38.7922 5.33823L38.7258 5.22517L38.6597 5.11369L38.5939 5.00383L38.5283 4.89557L38.463 4.78893L38.398 4.68389L38.3332 4.58047L38.2686 4.47869L38.2044 4.37854L38.1404 4.28003L38.0766 4.18316L38.0131 4.08794L37.9499 3.99437L37.8869 3.90246L37.8242 3.81222L37.7618 3.72364L37.6996 3.63674L37.6376 3.55152L37.576 3.46797L37.5146 3.38612L37.4534 3.30596L37.3925 3.22749L37.3318 3.15073L37.2715 3.07566L37.2113 3.0023L37.1514 2.93066L37.0918 2.86074L37.0324 2.79253L36.9733 2.72605L36.9144 2.6613L36.8558 2.59828L36.7975 2.53699L36.7393 2.47744L36.6815 2.41964L36.6239 2.36358L36.5665 2.30926L36.5094 2.2567L36.4525 2.20589L36.3959 2.15684L36.3395 2.10955L36.2833 2.06403L36.2275 2.02026L36.1718 1.97827L36.1164 1.93805L36.0612 1.8996L36.0063 1.86293L35.9516 1.82802L35.8971 1.79491L35.8429 1.76357L35.789 1.73402L35.7352 1.70625L35.6817 1.68027L35.6284 1.65608L35.5754 1.63369L35.5226 1.61308L35.47 1.59427L35.4176 1.57725L35.3655 1.56203L35.3136 1.5486L35.2619 1.53698L35.2105 1.52716L35.1593 1.51913L35.1083 1.51291L35.0575 1.50849L35.0069 1.50587L34.9566 1.50506L34.9064 1.50604L34.8565 1.50883L34.8068 1.51343L34.7574 1.51984L34.7081 1.52805L34.6591 1.53806L34.6102 1.54988L34.5616 1.56351L34.5131 1.57892L34.4649 1.59616L34.4169 1.6152L34.3691 1.63603L34.3215 1.65867L34.2741 1.68312L34.2269 1.70936L34.1799 1.7374L34.1331 1.76724L34.0864 1.79889L34.04 1.83232L33.9938 1.86756L33.9478 1.90459L33.9019 1.94341L33.8563 1.98403L33.8108 2.02643L33.7655 2.07062L33.7204 2.1166L33.6755 2.16437L33.6308 2.21392L33.5862 2.26524L33.5419 2.31835L33.4977 2.37324L33.4536 2.42989L33.4098 2.48833L33.3661 2.54853L33.3226 2.6105L33.2793 2.67423L33.2361 2.73972L33.1932 2.80697L33.1503 2.87598L33.1077 2.94674L33.0652 3.01925L33.0228 3.09351L32.9807 3.16952L32.9387 3.24726L32.8968 3.32674L32.8551 3.40794L32.8136 3.49089L32.7722 3.57555L32.7309 3.66195L32.6898 3.75005L32.6489 3.83987L32.6081 3.9314L32.5674 4.02465L32.527 4.11959L32.4866 4.21623L32.4464 4.31457L32.4063 4.41459L32.3663 4.51629L32.3265 4.61968L32.2869 4.72474L32.2473 4.83148L32.2079 4.93987L32.1687 5.04992L32.1295 5.16165L32.0905 5.275L32.0516 5.39002L32.0129 5.50667L31.9742 5.62496L31.9357 5.74487L31.8973 5.86641L31.8591 5.98956L31.8209 6.11433L31.7829 6.24071L31.7449 6.36868L31.7071 6.49825L31.6695 6.62942L31.6319 6.76216L31.5944 6.89648L31.557 7.03237L31.5198 7.16983L31.4826 7.30884L31.4456 7.44941L31.4087 7.59151L31.3718 7.73516L31.3351 7.88035L31.2985 8.02705L31.2619 8.17527L31.2255 8.32501L31.1891 8.47624L31.1529 8.62897L31.1167 8.78321L31.0807 8.93891L31.0447 9.09609L31.0088 9.25475L30.973 9.41486L30.9373 9.57642L30.9017 9.73943L30.8662 9.90388L30.8307 10.0698L30.7954 10.237L30.7601 10.4058L30.7249 10.5759L30.6897 10.7474L30.6547 10.9203L30.6197 11.0946L30.5848 11.2703L30.55 11.4473L30.5153 11.6257L30.4806 11.8054L30.446 11.9865L30.4114 12.1689L30.377 12.3526L30.3426 12.5377L30.3083 12.724L30.274 12.9117L30.2398 13.1006L30.2057 13.2909L30.1716 13.4823L30.1376 13.6751L30.1037 13.8691L30.0698 14.0643L30.036 14.2608L30.0023 14.4585L29.9686 14.6574L29.9349 14.8576L29.9013 15.0589L29.8678 15.2614L29.8344 15.4651L29.8009 15.6699L29.7676 15.8759L29.7343 16.0831L29.701 16.2914L29.6678 16.5008L29.6347 16.7113L29.6016 16.923L29.5355 17.3496L24.7007 62.7451L24.6882 62.9591L24.676 63.1721L24.6642 63.384L24.6526 63.5948L24.6413 63.8046L24.6303 64.0132L24.6196 64.2207L24.6092 64.427L24.5991 64.6323L24.5893 64.8364L24.5798 65.0393L24.5706 65.2411L24.5617 65.4416L24.5532 65.6411L24.545 65.8393L24.5371 66.0363L24.5295 66.2321L24.5222 66.4267L24.5153 66.6201L24.5087 66.8122L24.5025 67.0031L24.4965 67.1927L24.491 67.3811L24.4858 67.5682L24.4809 67.754L24.4763 67.9386L24.4722 68.1218L24.4684 68.3038L24.4649 68.4844L24.4618 68.6637L24.4591 68.8417L24.4567 69.0184L24.4547 69.1937L24.4531 69.3677L24.4518 69.5403L24.451 69.7116L24.4505 69.8815L24.4504 70.05L24.4506 70.2171L24.4513 70.3828L24.4524 70.5471L24.4538 70.7101L24.4557 70.8716L24.4579 71.0317L24.4606 71.1903L24.4637 71.3475L24.4671 71.5033L24.471 71.6576L24.4753 71.8105L24.48 71.9619L24.4852 72.1119L24.4907 72.2604L24.4967 72.4074L24.5031 72.5529L24.5099 72.6969L24.5172 72.8394L24.5249 72.9804L24.5331 73.1199L24.5416 73.2579L24.5507 73.3943L24.5602 73.5293L24.5701 73.6627L24.5804 73.7945L24.5913 73.9248L24.6026 74.0536L24.6143 74.1808L24.6265 74.3064L24.6392 74.4305L24.6523 74.553L24.6659 74.674L24.68 74.7933L24.6945 74.9111L24.7096 75.0273L24.7251 75.1419L24.7411 75.2549L24.7575 75.3663L24.7745 75.476L24.7919 75.5842L24.8099 75.6908L24.8283 75.7957L24.8472 75.899L24.8666 76.0007L24.8866 76.1007L24.907 76.1991L24.9279 76.2959L24.9494 76.391L24.9713 76.4845L24.9938 76.5763L25.0168 76.6665L25.0403 76.755L25.0643 76.8419L25.0888 76.9271L25.1139 77.0106L25.1394 77.0925L25.1655 77.1726L25.1922 77.2512L25.2193 77.328L25.247 77.4031L25.2753 77.4766L25.304 77.5484L25.3334 77.6185L25.3632 77.6869L25.3936 77.7536L25.4246 77.8186L25.456 77.882L25.4881 77.9436L25.5207 78.0035L25.5538 78.0617L25.5875 78.1183L25.6218 78.1731L25.6566 78.2262L25.6919 78.2776L25.7279 78.3273L25.7644 78.3752L25.8014 78.4215L25.8391 78.4661L25.8773 78.5089L25.916 78.55L25.9554 78.5894L25.9953 78.6271L26.0358 78.6631L26.0768 78.6974L26.1184 78.7299L26.1607 78.7607L26.2035 78.7898L26.2468 78.8172L26.2908 78.8429L26.3353 78.8668L26.3805 78.8891L26.4262 78.9096L26.4725 78.9283L26.5194 78.9454L26.5669 78.9608L26.615 78.9744L26.6636 78.9863L26.7129 78.9965L26.7628 79.005L26.8132 79.0118L26.8643 79.0168L26.9159 79.0201L26.9682 79.0218L27.021 79.0217L27.0745 79.0199L27.1285 79.0164L27.1832 79.0112L27.2384 79.0042L27.2943 78.9956L27.3508 78.9853L27.4078 78.9733L27.4655 78.9595L27.5238 78.9441L27.5827 78.927L27.6422 78.9082L27.7023 78.8877L27.763 78.8655L27.8243 78.8416L27.8863 78.816L27.9488 78.7888L28.012 78.7599L28.0757 78.7293L28.1401 78.697L28.2051 78.663L28.2707 78.6274L28.3369 78.5901L28.4038 78.5512L28.4712 78.5106L28.5393 78.4683L28.6079 78.4244L28.6772 78.3788L28.7471 78.3316L28.8176 78.2828L28.8887 78.2323L28.9604 78.1801L29.0327 78.1264L29.1057 78.071L29.1793 78.014L29.2534 77.9553L29.3282 77.8951L29.4036 77.8332L29.4796 77.7697L29.5562 77.7047L29.6334 77.638L29.7112 77.5697L29.7897 77.4999L29.8687 77.4284L29.9484 77.3554L30.0286 77.2808L30.1095 77.2046L30.191 77.1269L30.273 77.0476L30.3557 76.9667L30.439 76.8843L30.5228 76.8003L30.6073 76.7148L30.6924 76.6278L30.7781 76.5392L30.8643 76.4491L30.9512 76.3575L31.0387 76.2644L31.1267 76.1697L31.2154 76.0736L31.3046 75.976L31.3944 75.8768L31.4849 75.7762L31.5759 75.6741L31.6675 75.5706L31.7596 75.4655L31.8524 75.3591L31.9457 75.2511L32.0397 75.1417L32.1342 75.0309L32.2292 74.9186L32.3249 74.8049L32.4211 74.6898L32.5179 74.5732L32.6153 74.4553L32.7132 74.3359L32.8117 74.2152L32.9108 74.0931L33.0104 73.9695L33.1106 73.8447L33.2113 73.7184L33.3126 73.5908L33.4145 73.4618L33.5169 73.3315L33.6198 73.1999L33.7233 73.0669L33.8274 72.9326L33.932 72.797L34.0371 72.66L34.1428 72.5218L34.249 72.3823L34.3557 72.2415L34.463 72.0994L34.5708 71.9561L34.6791 71.8114L34.7879 71.6656L34.8973 71.5185L35.0071 71.3701L35.1175 71.2205L35.2284 71.0697L35.3398 70.9177L35.4517 70.7645L35.5641 70.6101L35.677 70.4545L35.7904 70.2977L35.9043 70.1398L36.0187 69.9807L36.1336 69.8204L36.249 69.659L36.3648 69.4965L36.4811 69.3328L36.5979 69.168L36.7152 69.0021L36.8329 68.8351L36.9511 68.6671L37.0697 68.4979L37.1888 68.3277L37.3084 68.1563L37.4284 67.984L37.5488 67.8106L37.6697 67.6361L37.7911 67.4607L37.9128 67.2842L38.035 67.1067L62.212 28.1331L62.316 27.9459L62.4193 27.7594L62.5218 27.5739L62.6236 27.3892L62.7246 27.2054L62.8249 27.0224L62.9245 26.8403L63.0232 26.6591L63.1213 26.4788L63.2185 26.2994L63.315 26.1209L63.4106 25.9433L63.5055 25.7667L63.5996 25.591L63.6929 25.4162L63.7854 25.2423L63.877 25.0694L63.9678 24.8975L64.0578 24.7265L64.1469 24.5565L64.2353 24.3875L64.3227 24.2194L64.4093 24.0523L64.495 23.8863L64.5799 23.7212L64.6639 23.5571L64.747 23.3941L64.8293 23.232L64.9106 23.071L64.991 22.9111L65.0705 22.7521L65.1492 22.5942L65.2269 22.4374L65.3037 22.2816L65.3795 22.1268L65.4544 21.9732L65.5284 21.8206L65.6014 21.6691L65.6735 21.5186L65.7447 21.3693L65.8148 21.221L65.884 21.0738L65.9522 20.9278L66.0195 20.7828L66.0857 20.639L66.151 20.4963L66.2153 20.3547L66.2786 20.2142L66.3408 20.0749L66.4021 19.9366L66.4623 19.7996L66.5216 19.6637L66.5798 19.5289L66.6369 19.3953L66.6931 19.2628L66.7481 19.1315L66.8022 19.0014L66.8552 18.8725L66.9071 18.7447L66.958 18.6181L67.0078 18.4927L67.0565 18.3685L67.1042 18.2454L67.1508 18.1236L67.1963 18.0029L67.2406 17.8835L67.284 17.7653L67.3262 17.6483L67.3673 17.5324L67.4073 17.4179L67.4462 17.3045L67.484 17.1923L67.5206 17.0814L67.5561 16.9717L67.5905 16.8632L67.6238 16.756L67.6559 16.65L67.6869 16.5453L67.7168 16.4418L67.7455 16.3395L67.773 16.2385L67.7994 16.1387L67.8246 16.0402L67.8487 15.943L67.8716 15.847L67.8933 15.7522L67.9139 15.6588L67.9333 15.5666L67.9514 15.4756L67.9685 15.386L67.9843 15.2976L67.9989 15.2104L68.0123 15.1246L68.0246 15.04L68.0356 14.9567L68.0454 14.8747L68.054 14.794L68.0614 14.7145L68.0676 14.6363L68.0726 14.5595L68.0764 14.4839L68.0789 14.4096L68.0802 14.3365L68.0803 14.2648L68.0792 14.1944L68.0768 14.1252L68.0732 14.0574L68.0683 13.9908L68.0623 13.9255L68.0549 13.8616L68.0464 13.7989L68.0365 13.7375L68.0255 13.6774L68.0131 13.6186L67.9996 13.5611L67.9848 13.5049L67.9687 13.4501L67.9513 13.3964L67.9327 13.3441L67.9129 13.2931L67.8918 13.2434L67.8694 13.195L67.8457 13.1479L67.8208 13.1021L67.7946 13.0576L67.7671 13.0144L67.7384 12.9724L67.7084 12.9318L67.6771 12.8925L67.6445 12.8544L67.6107 12.8177L67.5756 12.7822L67.5392 12.7481L67.5015 12.7152L67.4626 12.6836L67.4224 12.6533L67.3809 12.6243L67.3381 12.5966L67.294 12.5701L67.2486 12.545L67.202 12.5211L67.1541 12.4985L67.1049 12.4772L67.0544 12.4572L67.0026 12.4384L66.9495 12.4209L66.8952 12.4047L66.8396 12.3898L66.7827 12.3761L66.7245 12.3637L66.665 12.3526L66.6042 12.3427L66.5422 12.3341L66.4789 12.3268L66.4143 12.3207L66.3484 12.3158L66.2812 12.3122L66.2128 12.3099L66.143 12.3088L66.072 12.309L65.9998 12.3104L65.9262 12.313L65.8514 12.3169L65.7753 12.322L65.6979 12.3283L65.6192 12.3359L65.5393 12.3447L65.4581 12.3547L65.3756 12.3659L65.2919 12.3784L65.2069 12.3921L65.1207 12.407L65.0332 12.423L64.9444 12.4403L64.8544 12.4588L64.7631 12.4785L64.6705 12.4994L64.5768 12.5215L64.4817 12.5447L64.3854 12.5692L64.2879 12.5948L64.1891 12.6216L64.0891 12.6496L63.9879 12.6787L63.8854 12.709L63.7817 12.7405L63.6767 12.7731L63.5705 12.8069L63.4631 12.8418L63.3545 12.8778L63.2447 12.915L63.1336 12.9534L63.0214 12.9929L62.9079 13.0335L62.7932 13.0752L62.6773 13.118L62.5602 13.162L62.4419 13.207L62.3225 13.2532L62.2018 13.3005L62.0799 13.3488L61.9569 13.3983L61.8327 13.4488L61.7073 13.5005L61.5808 13.5532L61.453 13.6069L61.3242 13.6618L61.1941 13.7177L61.0629 13.7746L60.9306 13.8326L60.7971 13.8917L60.6624 13.9518L60.5267 14.0129L60.3898 14.0751L60.2517 14.1383L60.1126 14.2025L59.9723 14.2677L59.8309 14.334L59.6884 14.4012L59.5448 14.4694L59.4001 14.5387L59.2543 14.6089L59.1074 14.6801L58.9594 14.7523L58.8104 14.8254L58.6603 14.8996L58.5091 14.9746L58.3568 15.0507L58.2035 15.1277L58.0491 15.2056L57.8937 15.2844L57.7372 15.3642L57.5797 15.445L57.4212 15.5266L57.2616 15.6091L57.1011 15.6926L56.9395 15.777L56.7769 15.8622L56.6133 15.9484L56.4487 16.0354L56.2831 16.1233L56.1166 16.2121L55.949 16.3017L55.7805 16.3922L55.611 16.4835L55.4406 16.5757L55.2692 16.6688L55.0969 16.7626L54.9237 16.8573L54.7495 16.9528L54.5743 17.0492L54.3983 17.1463L54.2214 17.2442L54.0435 17.3429L53.8648 17.4425L53.6851 17.5428L53.5046 17.6438L53.3232 17.7457L53.141 17.8483L52.9579 17.9516L52.7739 18.0557L52.5891 18.1606L52.4034 18.2661L52.2169 18.3724L13.6829 42.8529L13.3303 43.1011L12.9819 43.3476L12.8091 43.4702L12.6375 43.5924L12.4668 43.714L12.2973 43.8352L12.1287 43.956L11.9613 44.0762L11.7949 44.196L11.6297 44.3153L11.4655 44.4342L11.3024 44.5525L11.1405 44.6704L10.9797 44.7878L10.82 44.9047L10.6614 45.021L10.504 45.1369L10.3478 45.2523L10.1928 45.3672L10.0389 45.4816L9.88617 45.5954L9.73466 45.7087L9.58436 45.8216L9.43527 45.9339L9.28739 46.0456L9.14075 46.1569L8.99533 46.2676L8.85116 46.3778L8.70824 46.4874L8.56659 46.5965L8.42619 46.7051L8.28707 46.8131L8.14924 46.9205L8.01269 47.0275L7.87744 47.1338L7.74351 47.2396L7.61087 47.3449L7.47956 47.4496L7.34958 47.5537L7.22094 47.6573L7.09364 47.7603L6.96768 47.8627L6.84308 47.9645L6.71985 48.0658L6.59798 48.1665L6.4775 48.2667L6.35841 48.3662L6.2407 48.4652L6.12439 48.5636L6.0095 48.6614L5.896 48.7586L5.78394 48.8552L5.67329 48.9512L5.56408 49.0467L5.4563 49.1415L5.34997 49.2358L5.24509 49.3294L5.14166 49.4224L5.03971 49.5149L4.93922 49.6067L4.84021 49.698L4.74267 49.7886L4.64663 49.8786L4.55208 49.9681L4.45903 50.0569L4.36748 50.1451L4.27744 50.2327L4.18892 50.3196L4.10192 50.406L4.01645 50.4917L3.93251 50.5769L3.8501 50.6614L3.76925 50.7453L3.68993 50.8285L3.61217 50.9112L3.53596 50.9932L3.46132 51.0746L3.38825 51.1554L3.31675 51.2356L3.24683 51.3151L3.17848 51.394L3.11173 51.4723L3.04656 51.55L2.98299 51.627L2.92101 51.7034L2.86065 51.7792L2.80188 51.8544L2.74473 51.9289L2.6892 52.0028L2.63529 52.0761L2.583 52.1487L2.53233 52.2207L2.48329 52.2921L2.4359 52.3628L2.39013 52.4329L2.34602 52.5024L2.30354 52.5713L2.26271 52.6395L2.22354 52.7071L2.18602 52.7741L2.15016 52.8404L2.11595 52.9061L2.08342 52.9712L2.05254 53.0357L2.02334 53.0995L1.99581 53.1627L1.96995 53.2252L1.94576 53.2872L1.92327 53.3485L1.90244 53.4091L1.88331 53.4692L1.86586 53.5286L1.85009 53.5874L1.83602 53.6456L1.82364 53.7031L1.81295 53.7601L1.80396 53.8163L1.79667 53.872L1.79108 53.9271L1.78718 53.9815L1.78498 54.0353L1.78449 54.0885L1.78571 54.1411L1.78863 54.1931L1.79325 54.2444L1.79959 54.2951L1.80764 54.3452L1.81738 54.3947L1.82885 54.4436L1.84202 54.4919L1.85691 54.5395L1.87351 54.5866L1.89181 54.633L1.91184 54.6788L1.93358 54.724L1.95702 54.7687L1.98218 54.8127L2.00906 54.8561L2.03765 54.8989L2.06795 54.9411L2.09996 54.9827L2.13369 55.0237L2.16912 55.0642L2.20628 55.104L2.24514 55.1432L2.28572 55.1819L2.32799 55.2199L2.37198 55.2574L2.41768 55.2943L2.46508 55.3306L2.51419 55.3663L2.565 55.4014L2.61753 55.436L2.67175 55.4699L2.72766 55.5033L2.78528 55.5362L2.84459 55.5684L2.9056 55.6001L2.9683 55.6312L3.0327 55.6618L3.09878 55.6917L3.16656 55.7212L3.23602 55.75L3.30717 55.7783L3.37998 55.8061L3.45449 55.8332L3.53066 55.8599L3.60852 55.886L3.68804 55.9115L3.76923 55.9365L3.85209 55.9609L3.93661 55.9848L4.02279 56.0082L4.11063 56.031L4.20011 56.0533L4.29126 56.0751L4.38404 56.0963L4.47848 56.117L4.57454 56.1371L4.67225 56.1568L4.77159 56.1759L4.87256 56.1945L4.97515 56.2126L5.07937 56.2302L5.18521 56.2472L5.29265 56.2638L5.4017 56.2798L5.51238 56.2954L5.62463 56.3104L5.73849 56.3249L5.85394 56.339L5.97098 56.3525L6.0896 56.3655L6.2098 56.3781L6.33157 56.3902L6.45491 56.4017L6.57981 56.4128L6.70628 56.4235L6.8343 56.4336L6.96386 56.4433L7.09497 56.4525L7.22761 56.4612L7.36179 56.4695L7.49749 56.4773L7.63472 56.4846L7.77345 56.4915L7.9137 56.4979L8.05546 56.5039L8.19871 56.5094L8.34344 56.5144L8.48967 56.5191L8.63739 56.5232L8.78656 56.527L8.93721 56.5303L9.08932 56.5332L9.24288 56.5356L9.3979 56.5376L9.55436 56.5392L9.71225 56.5404L9.87155 56.5411L10.0323 56.5414L10.1944 56.5413L10.358 56.5408L10.523 56.5399L10.6893 56.5386L10.857 56.5369L11.0262 56.5347L11.1967 56.5322L11.3685 56.5293L11.5417 56.526L11.7163 56.5223L11.8922 56.5182L12.0694 56.5138L12.248 56.5089L12.4278 56.5037L12.609 56.4981L12.7915 56.4921L12.9753 56.4858L13.1604 56.4791L13.3467 56.472L13.5343 56.4646L13.7232 56.4568L13.9133 56.4487L14.1047 56.4402L14.2973 56.4313L14.4912 56.4221L14.6862 56.4126L14.8825 56.4027L15.08 56.3925L15.2786 56.382L15.4785 56.3711L15.6795 56.3599L15.8817 56.3484L16.0851 56.3366L16.2896 56.3244L16.4952 56.3119L16.702 56.2991L16.9098 56.286L17.1188 56.2726L17.3289 56.2589L17.5401 56.2448L17.7524 56.2305L17.9657 56.2159L18.1802 56.201L63.7431 50.8259L63.955 50.7905L64.1659 50.755L64.3756 50.7196L64.5842 50.6841L64.7917 50.6485L64.998 50.613L65.2032 50.5773L65.4073 50.5417L65.6101 50.506L65.8118 50.4702L66.0123 50.4344L66.2115 50.3986L66.4096 50.3627L66.6065 50.3268L66.8021 50.2908L66.9965 50.2547L67.1896 50.2187L67.3815 50.1826L67.5721 50.1464L67.7614 50.1102L67.9495 50.0739L68.1362 50.0376L68.3217 50.0012L68.5058 49.9647L68.6887 49.9283L68.8702 49.8917L69.0503 49.8551L69.2291 49.8185L69.4066 49.7817L69.5827 49.745L69.7574 49.7081L69.9308 49.6712L70.1028 49.6343L70.2733 49.5972L70.4425 49.5601L70.6103 49.523L70.7766 49.4858L70.9415 49.4485L71.105 49.4111L71.267 49.3737L71.4276 49.3362L71.5867 49.2986L71.7444 49.261L71.9006 49.2233L72.0553 49.1855L72.2085 49.1476L72.3603 49.1097L72.5105 49.0717L72.6592 49.0336L72.8064 48.9954L72.9521 48.9571L73.0962 48.9187L73.2389 48.8803L73.3799 48.8418L73.5195 48.8032L73.6574 48.7645L73.7938 48.7257L73.9287 48.6868L74.062 48.6479L74.1936 48.6088L74.3237 48.5696L74.4522 48.5304L74.5791 48.491L74.7044 48.4516L74.8281 48.412L74.9502 48.3724L75.0707 48.3326L75.1895 48.2927L75.3067 48.2528L75.4222 48.2127L75.5361 48.1725L75.6484 48.1322L75.759 48.0918L75.8679 48.0513L75.9752 48.0107L76.0808 47.97L76.1848 47.9291L76.287 47.8881L76.3876 47.847L76.4865 47.8058L76.5837 47.7645L76.6792 47.723L76.773 47.6814L76.865 47.6397L76.9554 47.5979L77.0441 47.5559L77.131 47.5138L77.2163 47.4716L77.2998 47.4292L77.3815 47.3867L77.4616 47.3441L77.5399 47.3013L77.6164 47.2584L77.6912 47.2153L77.7643 47.1721L77.8356 47.1288L77.9052 47.0853L77.973 47.0417L78.039 46.9979L78.1033 46.954L78.1658 46.9099L78.2266 46.8657L78.2856 46.8213L78.3428 46.7768L78.3982 46.7321L78.4519 46.6872L78.5037 46.6422L78.5538 46.597L78.6022 46.5517L78.6487 46.5062L78.6934 46.4606L78.7364 46.4147L78.7775 46.3687L78.8169 46.3226L78.8544 46.2763L78.8902 46.2297L78.9242 46.1831L78.9564 46.1362L78.9867 46.0892L79.0153 46.042L79.0421 45.9946L79.0671 45.9471L79.0902 45.8993L79.1116 45.8514L79.1311 45.8033L79.1489 45.755L79.1648 45.7066L79.1789 45.6579L79.1913 45.609L79.2018 45.56L79.2105 45.5108L79.2174 45.4614L79.2225 45.4117L79.2258 45.3619L79.2273 45.3119L79.227 45.2617L79.2248 45.2113L79.2209 45.1607L79.2151 45.1099L79.2076 45.0589L79.1982 45.0077L79.1871 44.9563L79.1741 44.9047L79.1594 44.8528L79.1428 44.8008L79.1245 44.7486L79.1043 44.6961L79.0824 44.6435L79.0586 44.5906L79.0331 44.5375L79.0058 44.4842L78.9766 44.4307L78.9457 44.377L78.9131 44.323L78.8786 44.2688L78.8423 44.2145L78.8043 44.1599L78.7645 44.105L78.7229 44.05L78.6795 43.9947L78.6344 43.9392L78.5875 43.8835L78.5388 43.8276L78.4884 43.7714L78.4362 43.715L78.3823 43.6584L78.3266 43.6015L78.2691 43.5444L78.21 43.4871L78.149 43.4296L78.0864 43.3718L78.0219 43.3138L77.9558 43.2556L77.8879 43.1971L77.8183 43.1384L77.747 43.0794L77.674 43.0202L77.5992 42.9608L77.5228 42.9012L77.4446 42.8413L77.3647 42.7812L77.2832 42.7208L77.1999 42.6602L77.115 42.5994L77.0283 42.5383L76.94 42.477L76.85 42.4154L76.7584 42.3536L76.6651 42.2915L76.5701 42.2293L76.4735 42.1667L76.3752 42.104L76.2753 42.0409L76.1737 41.9777L76.0705 41.9142L75.9657 41.8504L75.8592 41.7865L75.7511 41.7222L75.6415 41.6578L75.5302 41.593L75.4173 41.5281L75.3028 41.4629L75.1867 41.3974L75.0691 41.3317L74.9499 41.2658L74.8291 41.1996L74.7067 41.1332L74.5828 41.0665L74.4573 40.9996L74.3303 40.9325L74.2018 40.8651L74.0717 40.7974L73.9401 40.7295L73.807 40.6614L73.6724 40.593L73.5362 40.5244L73.3986 40.4555L73.2595 40.3864L73.1189 40.3171L72.9768 40.2475L72.8332 40.1777L72.6882 40.1076L72.5418 40.0373L72.3939 39.9668L72.2445 39.896L72.0938 39.825L71.9416 39.7537L71.788 39.6822L71.6329 39.6105L71.4765 39.5385L71.3187 39.4663L71.1595 39.3939L70.999 39.3212L70.837 39.2483L70.6738 39.1752L70.5091 39.1018L70.3431 39.0282L70.1758 38.9544L70.0072 38.8803L69.8372 38.806L69.666 38.7315L69.4934 38.6568L69.3196 38.5818L69.1444 38.5066L68.968 38.4312L68.7904 38.3556L68.6114 38.2797L68.4313 38.2036L68.2499 38.1273L68.0672 38.0508L67.8834 37.9741L67.6983 37.8972L67.5121 37.82L67.3246 37.7426L67.136 37.6651L66.9462 37.5873L66.7552 37.5093L66.5631 37.4311L66.3698 37.3527L66.1754 37.274L65.9799 37.1952L65.7833 37.1162L65.5856 37.037L65.3867 36.9576L65.1868 36.878L22.2079 22.0807L21.9998 22.0197L21.5865 21.8993L21.3813 21.8398L21.1771 21.7809L20.9739 21.7225L20.7717 21.6646L20.5705 21.6072L20.3703 21.5504L20.1712 21.4942L19.9731 21.4385L19.7761 21.3833L19.5801 21.3287L19.3852 21.2746L19.1913 21.2211L18.9985 21.1682L18.8068 21.1159L18.6163 21.0642L18.4268 21.013L18.2384 20.9624L18.0512 20.9124L17.865 20.8631L17.6801 20.8143L17.4962 20.7661L17.3135 20.7186L17.132 20.6716L16.9517 20.6253L16.7725 20.5796L16.5945 20.5346L16.4177 20.4901L16.242 20.4464L16.0676 20.4032L15.8944 20.3607L15.7224 20.3189L15.5517 20.2777L15.3821 20.2372L15.2138 20.1974L15.0468 20.1582L14.881 20.1197L14.7164 20.0819L14.5531 20.0448L14.3911 20.0084L14.2304 19.9726L14.071 19.9376L13.9128 19.9032L13.7559 19.8696L13.6004 19.8367L13.4461 19.8045L13.2932 19.773L13.1416 19.7422L12.9913 19.7122L12.8423 19.6828L12.6947 19.6543L12.5484 19.6264L12.4035 19.5993L12.2599 19.573L12.1177 19.5474L11.9768 19.5225L11.8373 19.4985L11.6992 19.4752L11.5625 19.4526L11.4271 19.4308L11.2932 19.4098L11.1606 19.3896L11.0295 19.3701L10.8997 19.3515L10.7714 19.3336L10.6444 19.3165L10.5189 19.3003L10.3948 19.2848L10.2722 19.2701L10.1509 19.2562L10.0311 19.2432L9.91277 19.2309L9.79585 19.2195L9.68038 19.2089L9.56636 19.1992L9.45379 19.1902L9.3427 19.1821L9.23306 19.1748L9.12488 19.1684L9.01818 19.1628L8.91295 19.158L8.8092 19.1541L8.70692 19.1511L8.60613 19.1489L8.50682 19.1475L8.40902 19.147L8.31268 19.1474L8.21785 19.1487L8.12453 19.1508L8.03269 19.1538L7.94237 19.1576L7.85355 19.1624L7.76624 19.168L7.68044 19.1745L7.59615 19.1819L7.51337 19.1902L7.43212 19.1993L7.35239 19.2094L7.27418 19.2204L7.19748 19.2322L7.12232 19.245L7.04869 19.2587L6.97658 19.2732L6.906 19.2887L6.83696 19.3051L6.76945 19.3224L6.70348 19.3406L6.63903 19.3598L6.57613 19.3798L6.51477 19.4008L6.45496 19.4227L6.39667 19.4456L6.33994 19.4693L6.28474 19.494L6.2311 19.5196L6.17898 19.5462L6.12842 19.5737L6.07941 19.6021L6.03195 19.6315L5.98602 19.6618L5.94165 19.6931L5.89882 19.7253L5.85753 19.7584L5.81781 19.7925L5.77962 19.8275L5.74298 19.8635L5.70789 19.9005L5.67434 19.9383L5.64235 19.9772L5.61189 20.017L5.58299 20.0578L5.55563 20.0995" stroke="#F05555" stroke-width="2" />
</svg>
