<svg width="80" height="80" viewBox="0 0 80 80" fill="none" xmlns="http://www.w3.org/2000/svg">
<path d="M62.1144 40L62.1171 41.0154L62.1251 42.0297L62.1385 43.0415L62.157 44.0498L62.1805 45.0534L62.209 46.051L62.2421 47.0415L62.2796 48.0238L62.3213 48.9967L62.3667 49.9592L62.4157 50.9101L62.4676 51.8484L62.5222 52.773L62.579 53.683L62.6375 54.5772L62.6972 55.4548L62.7575 56.3148L62.8178 57.1564L62.9932 59.5619L63.0476 60.3214L63.0989 61.0585L63.1464 61.7725L63.1893 62.4629L63.227 63.1291L63.2588 63.7705L63.2838 64.3867L63.3013 64.9771L63.3107 65.5415L63.3111 66.0795L63.3017 66.5908L63.282 67.0751L63.251 67.5322L63.2081 67.9621L63.1525 68.3645L63.0836 68.7395L63.0006 69.087L62.9028 69.4072L62.7896 69.6999L62.6603 69.9656L62.5143 70.2041L62.3509 70.416L62.1696 70.6013L61.9699 70.7604L61.7511 70.8937L61.5129 71.0015L61.2547 71.0844L60.9761 71.1427L60.6767 71.177L60.3562 71.1879L60.0142 71.1758L59.6504 71.1415L59.2646 71.0856L58.8566 71.0088L58.4262 70.9116L57.9734 70.795L57.498 70.6596L57 70.5061L56.4794 70.3354L55.9363 70.1483L55.3708 69.9456L54.783 69.7281L54.1732 69.4967L53.5415 69.2521L52.8884 68.9954L52.214 68.7272L51.5189 68.4486L48.5398 67.2458L47.748 66.9273L46.9388 66.6034L46.1126 66.2748L45.2704 65.9424L44.4127 65.6069L43.5406 65.2691L42.6547 64.9298L41.756 64.5896L40.8454 64.2493L39.9238 63.9095L38.9922 63.5708L38.0516 63.234L37.1031 62.8994L36.1475 62.5678L35.1862 62.2396L34.2201 61.9154L33.2503 61.5954L32.278 61.2803L31.3044 60.9703L30.3305 60.6658L29.3575 60.3671L28.3866 60.0745L27.419 59.7882L26.4559 59.5084L25.4983 59.2351L24.5476 58.9687L23.6048 58.709L22.6712 58.4561L21.7478 58.2101L20.8359 57.9709L19.9365 57.7383L19.0508 57.5123L18.1799 57.2927L17.3247 57.0793L16.4865 56.8719L13.3225 56.096L12.5835 55.9137L11.8672 55.7352L11.1743 55.5602L10.5056 55.3881L9.86195 55.2183L9.24404 55.0505L8.65255 54.884L8.08811 54.7182L7.55133 54.5526L7.04274 54.3866L6.56285 54.2195L6.11212 54.0507L5.69095 53.8796L5.29969 53.7055L4.93867 53.5277L4.60814 53.3456L4.30831 53.1586L4.03933 52.9659L3.80132 52.7669L3.59434 52.561L3.41839 52.3475L3.27342 52.1258L3.15935 51.8951L3.07604 51.655L3.0233 51.4048L3.00088 51.1438L3.0085 50.8717L3.04582 50.5877L3.11248 50.2913L3.20803 49.9821L3.33203 49.6596L3.48395 49.3233L3.66325 48.9729L3.86933 48.6078L4.10157 48.2278L4.3593 47.8325L4.64182 47.4216L4.9484 46.9949L5.27828 46.5522L5.63065 46.0932L6.0047 45.6179L6.39958 45.1261L6.81442 44.6178L7.24832 44.0929L7.70037 43.5515L8.16964 42.9936L8.65519 42.4193L10.7408 39.9626L11.2931 39.3097L11.8559 38.6421L12.4281 37.96L13.0087 37.2641L13.5967 36.5547L14.1912 35.8324L14.7912 35.0978L15.3958 34.3515L16.004 33.5942L16.6148 32.8265L17.2274 32.0491L17.8408 31.2629L18.4543 30.4687L19.0669 29.6672L19.6779 28.8593L20.2863 28.046L20.8916 27.228L21.4929 26.4065L22.0895 25.5822L22.6807 24.7563L23.266 23.9297L23.8446 23.1035L24.4161 22.2787L24.9799 21.4563L25.5355 20.6375L26.0824 19.8232L26.6202 19.0146L27.1486 18.2128L27.6672 17.4189L28.1757 16.6339L28.6739 15.859L29.1615 15.0952L29.6384 14.3436L30.1044 13.6053L30.5595 12.8814L32.2699 10.1499L32.6702 9.51318L33.06 8.89682L33.4393 8.30177L33.8084 7.72894L34.1674 7.17919L34.5169 6.65337L34.8569 6.15227L35.188 5.67667L35.5105 5.2273L35.8247 4.80486L36.1313 4.41001L36.4305 4.04335L36.723 3.70547L37.0092 3.39689L37.2897 3.1181L37.5651 2.86953L37.8358 2.65157L38.1026 2.46457L38.3659 2.30882L38.6265 2.18458L38.8849 2.09203L39.1418 2.03132L39.3978 2.00255L39.6536 2.00577L39.9097 2.04096L40.1669 2.10808L40.4257 2.20702L40.6868 2.33761L40.9508 2.49967L41.2183 2.69291L41.4899 2.91705L41.7662 3.17174L42.0479 3.45656L42.3353 3.77107L42.6291 4.11478L42.9298 4.48715L43.2378 4.8876L43.5537 5.3155L43.8779 5.7702L44.2107 6.25099L44.5526 6.75712L44.9039 7.28783L45.265 7.84228L45.6361 8.41965L46.0175 9.01906L46.4094 9.63959L46.8119 10.2803L48.5311 13.0257L48.9884 13.7526L49.4566 14.4937L49.9357 15.2478L50.4254 16.0139L50.9257 16.7909L51.4362 17.5778L51.9568 18.3734L52.4871 19.1767L53.0268 19.9865L53.5755 20.8018L54.1328 21.6214L54.6982 22.4444L55.2711 23.2696L55.8512 24.0959L56.4377 24.9225L57.0301 25.7481L57.6277 26.5719L58.2298 27.3928L58.8358 28.2099L59.4448 29.0222L60.0561 29.8289L60.669 30.629L61.2825 31.4217L61.8959 32.2062L62.5082 32.9816L63.1186 33.7473L63.7261 34.5025L64.3298 35.2465L64.9288 35.9786L65.522 36.6984L66.1087 37.4051L66.6876 38.0983L67.258 38.7775L67.8188 39.4422L68.3689 40.092L70.4437 42.5361L70.926 43.1071L71.3919 43.6616L71.8404 44.1997L72.2705 44.7213L72.6814 45.2263L73.0722 45.7148L73.442 46.1868L73.7899 46.6425L74.1151 47.082L74.4169 47.5055L74.6945 47.9132L74.9472 48.3054L75.1742 48.6824L75.375 49.0445L75.5488 49.3921L75.6952 49.7256L75.8135 50.0454L75.9033 50.3519L75.9641 50.6457L75.9954 50.9273L75.997 51.1972L75.9685 51.4559L75.9097 51.7041L75.8202 51.9422L75.6999 52.171L75.5487 52.3911L75.3665 52.603L75.1533 52.8075L74.9091 53.0051L74.6339 53.1966L74.3279 53.3826L73.9912 53.5638L73.6241 53.7407L73.2268 53.9142L72.7996 54.0848L72.343 54.2532L71.8573 54.42L71.343 54.5859L70.8006 54.7515L70.2307 54.9174L69.6338 55.0841L69.0107 55.2523L68.3619 55.4225L67.6883 55.5951L66.9906 55.7708L66.2697 55.95L65.5263 56.1332L63.1704 56.7103L62.3464 56.9132L61.5047 57.1218L60.6463 57.3364L59.7723 57.5572L58.8837 57.7845L57.9817 58.0184L57.0674 58.259L56.1419 58.5064L55.2063 58.7606L54.2619 59.0217L53.3097 59.2895L52.3509 59.5641L51.3868 59.8453L50.4184 60.1329L49.447 60.4267L48.4738 60.7266L47.4998 61.0322L46.5263 61.3433L45.5545 61.6594L44.5853 61.9802L43.6201 62.3053L42.6598 62.6342L41.7056 62.9665L40.7586 63.3015L39.8197 63.6388L38.8901 63.9777L37.9706 64.3177L37.0623 64.6581L36.1661 64.9981L35.2829 65.3372L34.4136 65.6746L33.559 66.0095L32.72 66.3412L31.8972 66.6689L31.0913 66.9918L30.3032 67.3091L28.0511 68.2189L27.3397 68.5054L26.6487 68.782L25.9786 69.0479L25.3297 69.3023L24.7025 69.5443L24.0971 69.773L23.5138 69.9876L22.9527 70.1872L22.4141 70.3711L21.8981 70.5384L21.4046 70.6883L20.9337 70.82L20.4854 70.9328L20.0596 71.0259L19.656 71.0986L19.2747 71.1502L18.9153 71.1801L18.5777 71.1875L18.2614 71.172L17.9662 71.1329L17.6918 71.0697L17.4376 70.9819L17.2033 70.8689L16.9884 70.7305L16.7925 70.5661L16.6148 70.3755L16.455 70.1583L16.3124 69.9143L16.1864 69.6433L16.0763 69.345L15.9815 69.0194L15.9014 68.6663L15.8352 68.2858L15.7823 67.8779L15.7418 67.4425L15.7132 66.9799L15.6956 66.4901L15.6883 65.9735L15.6905 65.4302L15.7016 64.8605L15.7207 64.2648L15.7471 63.6436L15.7801 62.9971L15.8189 62.3261L15.8628 61.6308L15.9111 60.9121L15.9631 60.1704L16.1943 56.9887L16.2547 56.1434L16.3149 55.2797L16.3744 54.3987L16.4325 53.5013L16.4889 52.5883L16.543 51.6608L16.5944 50.7199L16.6427 49.7666L16.6874 48.8019L16.7283 47.827L16.7649 46.843L16.7971 45.8509L16.8246 44.852L16.8472 43.8475L16.8646 42.8384L16.8769 41.8259L16.8839 40.8113L16.8855 39.7958L16.8817 38.7805L16.8726 37.7667L16.8582 36.7554L16.8387 35.748L16.8141 34.7456L16.7847 33.7493L16.7507 32.7603L16.7123 31.7798L16.6699 30.8089L16.6237 29.8486L16.5741 28.9002L16.5216 27.9646L16.4665 27.0428L16.4093 26.136L16.3506 25.245L16.2907 24.3709L16.2304 23.5145L15.9957 20.2837L15.9418 19.5286L15.8912 18.7961L15.8446 18.0868L15.8026 17.4012L15.7661 16.7399L15.7356 16.1036L15.7121 15.4926L15.6961 14.9073L15.6885 14.3482L15.69 13.8156L15.7014 13.3097L15.7233 12.8308L15.7566 12.3792L15.802 11.9548L15.8602 11.5579L15.9319 11.1884L16.0178 10.8464L16.1187 10.5318L16.2351 10.2445L16.3677 9.98432L16.5172 9.75113L16.6841 9.54467L16.869 9.36465L17.0725 9.21076L17.2952 9.08262L17.5374 8.97983L17.7996 8.90195L18.0824 8.8485L18.386 8.81894L18.7108 8.81274L19.0572 8.82929L19.4254 8.86798L19.8156 8.92817L20.2281 9.00917L20.663 9.11027L21.1204 9.23076L21.6003 9.36987L22.1029 9.52685L22.628 9.7009L23.1756 9.8912L23.7456 10.097L24.3379 10.3173L24.9521 10.5515L25.5881 10.7985L26.2455 11.0576L26.9241 11.328L27.6233 11.6087L30.618 12.8178L31.4133 13.1374L32.226 13.4623L33.0554 13.7917L33.9009 14.1248L34.7615 14.4608L35.6364 14.799L36.525 15.1385L37.4261 15.4788L38.339 15.8191L39.2627 16.1587L40.1962 16.4971L41.1385 16.8335L42.0885 17.1675L43.0453 17.4985L44.0077 17.8259L44.9746 18.1493L45.945 18.4683L46.9176 18.7824L47.8915 19.0914L48.8653 19.3947L49.8379 19.6922L50.8082 19.9836L51.775 20.2686L52.7371 20.5471L53.6934 20.819L54.6426 21.0841L55.5836 21.3424L56.5153 21.5939L57.4365 21.8385L58.346 22.0764L59.2427 22.3076L60.1255 22.5323L60.9934 22.7507L61.8452 22.9628L62.6799 23.1691L65.8278 23.941L66.5623 24.1225L67.274 24.3002L67.9621 24.4746L68.6258 24.6462L69.2644 24.8155L69.877 24.9831L70.4631 25.1494L71.022 25.3151L71.5532 25.4807L72.0561 25.6469L72.5301 25.8143L72.9749 25.9835L73.3901 26.1552L73.7753 26.33L74.1302 26.5085L74.4546 26.6916L74.7482 26.8797L75.011 27.0736L75.2428 27.2739L75.4435 27.4813L75.6132 27.6964L75.752 27.9199L75.8599 28.1524L75.937 28.3945L75.9836 28.6468L76 28.91L75.9864 29.1845L75.9431 29.4709L75.8706 29.7698L75.7693 30.0816L75.6396 30.4069L75.4822 30.746L75.2974 31.0993L75.0861 31.4674L74.8486 31.8505L74.5859 32.2489L74.2984 32.6629L73.9871 33.0928L73.6526 33.5388L73.2959 34.001L72.9175 34.4797L72.5186 34.9748L72.0998 35.4864L71.6622 36.0147L71.2066 36.5594L70.734 37.1206L70.2453 37.6981L68.149 40.1675L67.5945 40.8233L67.0298 41.4939L66.4558 42.1788L65.8736 42.8775L65.2842 43.5895L64.6885 44.3143L64.0875 45.0513L63.4822 45.7999L62.8734 46.5594L62.2622 47.3291L61.6493 48.1082L61.0358 48.8961L60.4224 49.6919L59.8101 50.4947L59.1996 51.3038L58.5917 52.1181L57.9872 52.9369L57.3868 53.7591L56.7912 54.5837L56.2011 55.4098L55.6171 56.2364L55.0399 57.0625L54.4699 57.8869L53.9077 58.7086L53.3539 59.5266L52.8087 60.3399L52.2728 61.1472L51.7463 61.9475L51.2297 62.7397L50.7233 63.5227L50.2272 64.2955L49.7417 65.057L49.267 65.806L48.8032 66.5414L48.3504 67.2624L46.6488 69.9797L46.2505 70.6124L45.8629 71.2246L45.4857 71.8152L45.1186 72.3835L44.7615 72.9285L44.414 73.4494L44.0758 73.9454L43.7465 74.4158L43.4257 74.8598L43.113 75.2768L42.808 75.666L42.5102 76.0269L42.219 76.3589L41.9339 76.6616L41.6545 76.9343L41.3801 77.1768L41.1102 77.3885L40.8442 77.5693L40.5815 77.7187L40.3214 77.8366L40.0633 77.9227L39.8066 77.977L39.5507 77.9994L39.295 77.9897L39.0387 77.9481L38.7812 77.8746L38.522 77.7693L38.2604 77.6323L37.9958 77.464L37.7275 77.2645L37.4549 77.0342L37.1776 76.7734L36.8948 76.4826L36.6062 76.1622L36.311 75.8126L36.0089 75.4346L35.6993 75.0285L35.3818 74.5952L35.0559 74.1352L34.7213 73.6493L34.3775 73.1381L34.0242 72.6026L33.6612 72.0434L33.288 71.4616L32.9046 70.8579L32.5105 70.2332L32.1058 69.5885L30.3778 66.8293L29.9183 66.0995L29.4479 65.3558L28.9667 64.5991L28.4748 63.8307L27.9725 63.0516L27.4599 62.2629L26.9373 61.4657L26.4051 60.661L25.8636 59.85L25.3131 59.0338L24.7542 58.2134L24.1872 57.3899L23.6128 56.5644L23.0314 55.7379L22.4437 54.9114L21.8502 54.0861L21.2516 53.2628L20.6487 52.4426L20.042 51.6264L19.4324 50.8151L18.8207 50.0097L18.2077 49.211L17.5941 48.4199L16.9809 47.6372L16.3689 46.8636L15.759 46.1L15.1522 45.347L14.5494 44.6054L13.9515 43.8756L13.3594 43.1585L12.7743 42.4544L12.1969 41.764L11.6284 41.0877L11.0697 40.426L10.5218 39.7792L8.95287 37.9317L8.45805 37.3478L7.97894 36.7801L7.51648 36.2289L7.07161 35.6941L6.64527 35.1759L6.23835 34.6742L5.85174 34.189L5.48631 33.7203L5.14289 33.2678L4.82228 32.8316L4.52529 32.4113L4.25265 32.0067L4.00508 31.6176L3.78328 31.2436L3.5879 30.8845L3.41954 30.5397L3.27878 30.2091L3.16616 29.892L3.08218 29.588L3.02727 29.2967L3.00184 29.0175L3.00626 28.7499L3.04084 28.4934L3.10586 28.2473L3.20151 28.011L3.32799 27.784L3.48541 27.5657L3.67384 27.3553L3.8933 27.1523L4.14377 26.9559L4.42517 26.7656L4.73737 26.5806L5.08019 26.4003L5.4534 26.2241L5.85672 26.0513L6.28982 25.8812L6.75233 25.7131L7.24382 25.5465L7.76381 25.3808L8.31178 25.2152L8.88717 25.0492L9.48937 24.8822L10.1177 24.7137L10.7715 24.543L11.45 24.3698L12.1525 24.1934L12.878 24.0135L15.9938 23.2493L16.8215 23.0454L17.6666 22.8356L18.5282 22.6197L19.4052 22.3976L20.2966 22.169L21.2011 21.9337L22.1178 21.6918L23.0454 21.443L23.9829 21.1874L24.929 20.925L25.8826 20.6558L26.8425 20.3799L27.8076 20.0974L28.7767 19.8086L29.7485 19.5135L30.722 19.2124L31.696 18.9057L32.6692 18.5936L33.6406 18.2765L34.6091 17.9548L35.5734 17.6289L36.5325 17.2992L37.4854 16.9664L38.4308 16.6308L39.368 16.2932L40.2956 15.954L41.2129 15.6139L42.1189 15.2735L43.0125 14.9336L43.893 14.5948L44.7594 14.2579L45.6109 13.9235L46.4468 13.5926L47.2662 13.2658L48.0685 12.9439L51.0935 11.7227L51.8009 11.4382L52.4877 11.1636L53.1536 10.9L53.7981 10.648L54.421 10.4086L55.022 10.1827L55.6008 9.97106L56.1573 9.77452L56.6914 9.59392L57.2029 9.43008L57.6918 9.28378L58.1582 9.15581L58.602 9.04692L59.0233 8.95786L59.4224 8.88933L59.7993 8.84203L60.1543 8.81661L60.4876 8.81372L60.7996 8.83394L61.0906 8.87785L61.361 8.94597L61.6111 9.03882L61.8414 9.15684L62.0525 9.30047L62.2447 9.47008L62.4187 9.66601L62.575 9.88857L62.7143 10.138L62.837 10.4145L62.944 10.7183L63.0357 11.0494L63.113 11.408L63.1765 11.794L63.2268 12.2075L63.2648 12.6483L63.2912 13.1164L63.3067 13.6116L63.312 14.1336L63.3079 14.6823L63.2952 15.2572L63.2746 15.858L63.2468 16.4844L63.2125 17.1358L63.1726 17.8118L63.1278 18.5118L63.0787 19.2352L63.026 19.9814L62.7936 23.1797L62.7332 24.0288L62.6731 24.896L62.6138 25.7804L62.556 26.6811L62.5 27.597L62.4464 28.5273L62.3956 29.4708L62.348 30.4265L62.304 31.3933L62.264 32.3701L62.2282 33.3559L62.197 34.3494L62.1705 35.3495L62.1489 36.3551L62.1325 37.365L62.1213 38.3779L62.1154 39.3928L62.1149 40.4084L62.1197 41.4235L62.1299 42.4369L62.1453 43.4475L62.1658 44.454L62.1914 45.4553L62.2217 46.4502L62.2567 47.4375L62.2959 48.4162L62.3391 49.3851L62.386 50.343L62.4362 51.289L62.4893 52.2219L62.5448 53.1407L62.6024 54.0445L62.6614 54.9321L62.7214 55.8028L62.7817 56.6555L63.0154 59.8699L63.0686 60.6205L63.1185 61.3484L63.1642 62.053L63.2052 62.7337L63.2405 63.39L63.2697 64.0213L63.2918 64.6272L63.3061 65.2072L63.3119 65.761L63.3085 66.2883L63.2951 66.7887L63.2709 67.2622L63.2352 67.7084L63.1873 68.1272L63.1265 68.5186L63.052 68.8826L62.9631 69.2191L62.8592 69.5282L62.7396 69.81L62.6036 70.0647L62.4507 70.2925L62.2802 70.4936L62.0916 70.6684L61.8842 70.8171L61.6577 70.9401L61.4115 71.0378L61.1452 71.1107L60.8582 71.1594L60.5504 71.1842L60.2213 71.1857L59.8705 71.1647L59.4979 71.1216L59.1032 71.0572L58.6863 70.9721L58.2469 70.867L57.7849 70.7427L57.3004 70.6L56.7933 70.4395L56.2637 70.2621L55.7116 70.0686L55.1371 69.8599L54.5404 69.6367L53.9218 69.3999L53.2815 69.1503L52.6197 68.8889L51.937 68.6164L51.2336 68.3337L48.2236 67.1184L47.4247 66.7977L46.6086 66.4718L45.7758 66.1416L44.9273 65.8078L44.0637 65.4713L43.186 65.1328L42.2948 64.7931L41.3912 64.4528L40.4761 64.1126L39.5504 63.7731L38.615 63.4351L37.6711 63.0991L36.7196 62.7657L35.7616 62.4354L34.7982 62.1087L33.8305 61.7862L32.8596 61.4681L31.8866 61.155L30.9127 60.8472L29.9391 60.545L28.9668 60.2487L27.9971 59.9586L27.0311 59.6749L26.0701 59.3977L25.1152 59.1272L24.1675 58.8634L23.2283 58.6065L22.2986 58.3564L21.3797 58.1131L20.4727 57.8766L19.5787 57.6467L18.6988 57.4233L17.834 57.2062L16.9856 56.9952L16.1544 56.7901L13.0227 56.0222L12.2927 55.8415L11.5857 55.6645L10.9024 55.4907L10.2437 55.3196L9.61036 55.1507L9.00299 54.9834L8.4223 54.8173L7.86892 54.6517L7.3434 54.486L6.8463 54.3196L6.37808 54.1519L5.93919 53.9822L5.53001 53.81L5.15088 53.6345L4.80209 53.455L4.48388 53.271L4.19644 53.0818L3.9399 52.8867L3.71437 52.685L3.51986 52.4761L3.35637 52.2594L3.22385 52.0341L3.12217 51.7997L3.05117 51.5556L3.01065 51.3012L3.00035 51.0358L3.01995 50.7589L3.06912 50.47L3.14745 50.1686L3.2545 49.8541L3.38979 49.5261L3.55278 49.1842L3.74293 48.8279L3.9596 48.4568L4.20218 48.0707L4.46996 47.6692L4.76225 47.252L5.07829 46.8188L5.41731 46.3696L5.7785 45.9041L6.16103 45.4221L6.56404 44.9237L6.98665 44.4087L7.42796 43.8771L7.88704 43.3291L8.36297 42.7646L8.85479 42.1839L10.9616 39.7019L11.5182 39.043L12.0849 38.3695L12.6606 37.6818L13.2443 36.9804L13.8351 36.2658L14.4319 35.5385L15.0338 34.7991L15.64 34.0483L16.2493 33.2867L16.8609 32.515L17.474 31.734L18.0875 30.9445L18.7008 30.1472L19.3128 29.3431L19.9229 28.5329L20.5301 27.7176L21.1339 26.8981L21.7334 26.0753L22.3279 25.2503L22.9168 24.424L23.4995 23.5974L24.0753 22.7716L24.6438 21.9477L25.2043 21.1266L25.7565 20.3094L26.2998 19.4973L26.8339 18.6913L27.3583 17.8926L27.8729 17.1021L28.3773 16.321L28.8712 15.5504L29.3546 14.7914L29.8271 14.0451L30.2887 13.3124L30.7393 12.5945L32.0253 10.54L32.4321 9.8915L32.8282 9.26284L33.2138 8.65494L33.5889 8.06872L33.9539 7.50507L34.3091 6.96483L34.6547 6.44886L34.9911 5.95792L35.3187 5.49278L35.6378 5.05416L35.9489 4.64274L36.2524 4.25916L36.5489 3.904L36.8388 3.57784L37.1227 3.28118L37.401 3.01449L37.6744 2.77818L37.9435 2.57264L38.2088 2.39817L38.471 2.25507L38.7307 2.14355L38.9884 2.06379L39.2448 2.01591L39.5007 2L39.7565 2.01608L40.013 2.06412L40.2707 2.14405L40.5303 2.25573L40.7925 2.399L41.0579 2.57363L41.327 2.77935L41.6004 3.01581L41.8788 3.28266L42.1627 3.57948L42.4526 3.90579L42.7491 4.26109L43.0527 4.64483L43.3639 5.05639L43.683 5.49516L44.0106 5.96043L44.3471 6.4515L44.6927 6.96761L45.0479 7.50796L45.413 8.07173L45.7882 8.65807L46.1738 9.26608L46.57 9.89485L46.9768 10.5434L48.263 12.5983L48.7137 13.3162L49.1754 14.0489L49.648 14.7954L50.1313 15.5545L50.6253 16.3251L51.1297 17.1062L51.6444 17.8967L52.1689 18.6956L52.703 19.5016L53.2464 20.3137L53.7986 21.1309L54.3592 21.952L54.9277 22.776L55.5035 23.6018L56.0863 24.4283L56.6752 25.2546L57.2698 26.0796L57.8693 26.9024L58.473 27.7219L59.0803 28.5371L59.6904 29.3473L60.3024 30.1514L60.9157 30.9487L61.5292 31.7382L62.1423 32.5191L62.7539 33.2907L63.3632 34.0522L63.9693 34.803L64.5712 35.5423L65.1681 36.2696L65.7588 36.9841L66.3424 37.6855L66.9181 38.3731L67.4847 39.0465L68.0413 39.7053L70.1478 42.187L70.6396 42.7676L71.1154 43.332L71.5744 43.88L72.0156 44.4114L72.4381 44.9263L72.841 45.4247L73.2234 45.9066L73.5845 46.372L73.9234 46.8212L74.2393 47.2542L74.5315 47.6713L74.7991 48.0728L75.0416 48.4588L75.2581 48.8298L75.4481 49.186L75.611 49.5279L75.7461 49.8558L75.853 50.1702L75.9312 50.4716L75.9802 50.7604L75.9997 51.0372L75.9892 51.3025L75.9485 51.5569L75.8774 51.801L75.7755 52.0353L75.6428 52.2605L75.4792 52.4772L75.2845 52.6861L75.0588 52.8877L74.8021 53.0828L74.5145 53.272L74.1962 53.456L73.8472 53.6354L73.4679 53.8109L73.0586 53.9831L72.6195 54.1528L72.1512 54.3204L71.6539 54.4868L71.1282 54.6525L70.5747 54.8182L69.9939 54.9843L69.3864 55.1516L68.7529 55.3205L68.094 55.4916L67.4107 55.6654L66.7035 55.8424L65.9734 56.0232L62.8413 56.7912L62.01 56.9963L61.1614 57.2073L60.2966 57.4244L59.4167 57.6479L58.5226 57.8778L57.6155 58.1144L56.6965 58.3577L55.7668 58.6078L54.8276 58.8648L53.8798 59.1286L52.9249 59.3991L51.9638 59.6764L50.9978 59.9601L50.0281 60.2503L49.0558 60.5466L48.0822 60.8488L47.1083 61.1566L46.1353 61.4698L45.1644 61.7878L44.1967 62.1104L43.2333 62.4371L42.2754 62.7675L41.3239 63.1009L40.38 63.4369L39.4447 63.7749L38.5191 64.1143L37.604 64.4545L36.7004 64.7949L35.8094 65.1346L34.9317 65.4731L34.0682 65.8096L33.2197 66.1433L32.3871 66.4735L31.5711 66.7994L30.7723 67.1201L27.7626 68.3352L27.0594 68.6179L26.3767 68.8903L25.7151 69.1517L25.0749 69.4012L24.4564 69.6379L23.8598 69.861L23.2855 70.0697L22.7335 70.2631L22.2039 70.4404L21.697 70.6008L21.2126 70.7434L20.7508 70.8676L20.3115 70.9726L19.8946 71.0576L19.5001 71.1219L19.1276 71.1649L18.7769 71.1858L18.4479 71.1841L18.1402 71.1592L17.8534 71.1104L17.5871 71.0374L17.341 70.9395L17.1146 70.8164L16.9074 70.6675L16.7189 70.4927L16.5485 70.2914L16.3956 70.0635L16.2597 69.8086L16.1402 69.5266L16.0364 69.2174L15.9476 68.8807L15.8732 68.5166L15.8124 68.1251L15.7645 67.7061L15.7289 67.2598L15.7048 66.7862L15.6914 66.2856L15.6881 65.7582L15.6939 65.2042L15.7083 64.6241L15.7305 64.0181L15.7596 63.3866L15.795 62.7302L15.836 62.0494L15.8818 61.3446L15.9316 60.6166L15.9849 59.8659L16.2186 56.6511L16.2789 55.7982L16.3389 54.9275L16.3979 54.0398L16.4555 53.136L16.511 52.217L16.5641 51.2841L16.6142 50.338L16.6611 49.38L16.7043 48.4111L16.7435 47.4324L16.7784 46.445L16.8088 45.45L16.8343 44.4487L16.8548 43.4422L16.8702 42.4316L16.8803 41.4181L16.8852 40.403L16.8846 39.3875L16.8787 38.3726L16.8675 37.3597L16.851 36.3498L16.8294 35.3442L16.8029 34.3442L16.7716 33.3507L16.7358 32.365L16.6957 31.3882L16.6517 30.4214L16.6041 29.4658L16.5533 28.5224L16.4997 27.5922L16.4437 26.6763L16.3859 25.7757L16.3266 24.8914L16.2665 24.0243L16.2061 23.1753L15.9737 19.9774L15.921 19.2313L15.872 18.5081L15.8271 17.8082L15.7873 17.1323L15.7531 16.481L15.7253 15.8548L15.7047 15.2541L15.692 14.6793L15.688 14.1308L15.6933 13.6089L15.7089 13.1139L15.7353 12.6459L15.7734 12.2052L15.8238 11.7919L15.8874 11.406L15.9647 11.0476L16.0566 10.7166L16.1636 10.413L16.2864 10.1366L16.4257 9.88733L16.5821 9.66491L16.7562 9.46912L16.9486 9.29965L17.1597 9.15616L17.3902 9.03827L17.6404 8.94555L17.9109 8.87755L18.2019 8.83377L18.514 8.81367L18.8475 8.81669L19.2026 8.84222L19.5796 8.88964L19.9788 8.95827L20.4003 9.04744L20.8442 9.15643L21.3106 9.2845L21.7997 9.43089L22.3113 9.59483L22.8455 9.77551L23.4021 9.97213L23.9811 10.1839L24.5822 10.4099L25.2052 10.6493L25.8499 10.9013L26.5158 11.165L27.2028 11.4396L27.9102 11.7242L30.9356 12.9456L31.738 13.2675L32.5576 13.5943L33.3935 13.9253L34.2451 14.2596L35.1116 14.5966L35.9921 14.9354L36.8859 15.2753L37.7919 15.6157L38.7092 15.9558L39.6369 16.295L40.5741 16.6326L41.5196 16.9681L42.4725 17.301L43.4317 17.6306L44.396 17.9565L45.3645 18.2782L46.3359 18.5952L47.3091 18.9073L48.2831 19.214L49.2566 19.515L50.2284 19.8101L51.1975 20.0989L52.1625 20.3814L53.1224 20.6572L54.076 20.9264L55.0221 21.1888L55.9595 21.4443L56.887 21.6931L57.8036 21.935L58.7081 22.1702L59.5994 22.3988L60.4763 22.6209L61.3379 22.8367L62.1829 23.0465L63.0105 23.2504L65.3781 23.8305L66.1259 24.0144L66.8513 24.1944L67.5536 24.3707L68.232 24.5439L68.8856 24.7145L69.5139 24.8831L70.1159 25.05L70.6912 25.216L71.239 25.3816L71.7588 25.5474L72.2502 25.714L72.7125 25.8821L73.1455 26.0522L73.5486 26.225L73.9217 26.4013L74.2644 26.5816L74.5764 26.7666L74.8576 26.9569L75.1079 27.1533L75.3272 27.3564L75.5155 27.5668L75.6728 27.7852L75.7991 28.0122L75.8946 28.2485L75.9594 28.4947L75.9938 28.7513L75.9981 29.019L75.9725 29.2982L75.9175 29.5896L75.8333 29.8936L75.7205 30.2108L75.5796 30.5415L75.4111 30.8863L75.2156 31.2455L74.9937 31.6196L74.746 32.0088L74.4732 32.4134L74.1761 32.8338L73.8554 33.2702L73.5118 33.7227L73.1463 34.1915L72.7596 34.6768L72.3525 35.1785L71.9261 35.6969L71.4811 36.2317L71.0186 36.7831L70.5394 37.3508L70.0445 37.9348L68.4753 39.7825L67.9274 40.4294L67.3686 41.0912L66.8 41.7676L66.2227 42.4581L65.6375 43.1622L65.0454 43.8794L64.4475 44.6092L63.8446 45.351L63.2378 46.104L62.6279 46.8677L62.0159 47.6413L61.4027 48.424L60.7891 49.2152L60.176 50.0139L59.5643 50.8194L58.9548 51.6307L58.3482 52.4469L57.7452 53.2671L57.1467 54.0904L56.5532 54.9158L55.9655 55.7422L55.3842 56.5687L54.8098 57.3942L54.2429 58.2177L53.684 59.0381L53.1336 59.8543L52.5921 60.6652L52.0599 61.4699L51.5374 62.2671L51.0248 63.0557L50.5225 63.8348L50.0307 64.6031L49.5496 65.3597L49.0792 66.1034L48.6198 66.8331L46.892 69.5919L46.4874 70.2365L46.0934 70.8611L45.71 71.4647L45.3369 72.0464L44.9739 72.6055L44.6207 73.1409L44.2769 73.6519L43.9423 74.1377L43.6165 74.5976L43.299 75.0308L42.9895 75.4366L42.6874 75.8146L42.3923 76.1639L42.1037 76.4842L41.8209 76.7749L41.5436 77.0355L41.2711 77.2656L41.0028 77.4649L40.7382 77.6331L40.4766 77.7699L40.2174 77.875L39.96 77.9484L39.7037 77.9899L39.4479 77.9993L39.192 77.9768L38.9353 77.9224L38.6773 77.836L38.4172 77.718L38.1544 77.5684L37.8883 77.3875L37.6184 77.1756L37.344 76.933L37.0646 76.6601L36.7795 76.3573L36.4883 76.0251L36.1904 75.664L35.8853 75.2746L35.5726 74.8576L35.2518 74.4134L34.9224 73.9429L34.5842 73.4467L34.2366 72.9257L33.8795 72.3805L33.5124 71.8122L33.1351 71.2214L32.7474 70.6091L32.3491 69.9763L30.6473 67.2586L30.1944 66.5376L29.7305 65.8021L29.2557 65.053L28.7702 64.2915L28.2741 63.5187L27.7676 62.7356L27.2509 61.9433L26.7245 61.1429L26.1884 60.3356L25.6433 59.5224L25.0893 58.7043L24.5271 57.8826L23.9571 57.0581L23.3798 56.2321L22.7958 55.4055L22.2057 54.5794L21.6101 53.7547L21.0097 52.9326L20.4051 52.1139L19.7972 51.2995L19.1867 50.4905L18.5743 49.6877L17.961 48.892L17.3474 48.1041L16.7346 47.325L16.1234 46.5554L15.5146 45.7959L14.9093 45.0474L14.3083 44.3105L13.7127 43.5857L13.1233 42.8738L12.5411 42.1752L11.9672 41.4904L11.4026 40.8199L10.8481 40.1641L8.75208 37.695L8.26346 37.1176L7.79092 36.5565L7.33543 36.0118L6.8979 35.4837L6.47926 34.9721L6.08041 34.4771L5.70221 33.9986L5.34553 33.5364L5.01118 33.0905L4.69998 32.6607L4.41269 32.2467L4.15005 31.8484L3.91276 31.4654L3.70151 31.0974L3.51692 30.7441L3.35959 30.4051L3.23009 30.08L3.12893 29.7682L3.05658 29.4694L3.01348 29.183L3.00001 28.9086L3.01653 28.6455L3.06331 28.3932L3.14063 28.1511L3.24866 27.9187L3.38756 27.6952L3.55744 27.4802L3.75835 27.2728L3.99029 27.0725L4.25321 26.8787L4.54701 26.6906L4.87155 26.5076L5.22662 26.329L5.61197 26.1543L6.02731 25.9826L6.47228 25.8134L6.9465 25.646L7.44951 25.4798L7.98081 25.3142L8.53988 25.1485L9.12613 24.9822L9.73892 24.8146L10.3776 24.6453L11.0414 24.4737L11.7296 24.2993L12.4415 24.1215L13.1761 23.94L16.3244 23.168L17.1592 22.9617L18.0111 22.7495L18.8791 22.5312L19.762 22.3064L20.6588 22.0752L21.5683 21.8373L22.4895 21.5926L23.4213 21.3411L24.3623 21.0827L25.3116 20.8176L26.2679 20.5457L27.23 20.2671L28.1969 19.982L29.1672 19.6906L30.1398 19.3931L31.1137 19.0897L32.0875 18.7808L33.0601 18.4667L34.0305 18.1476L34.9974 17.8242L35.9597 17.4967L36.9165 17.1657L37.8665 16.8317L38.8087 16.4953L39.7422 16.1569L40.6658 15.8173L41.5786 15.477L42.4797 15.1368L43.3682 14.7972L44.2431 14.4591L45.1036 14.1231L45.9489 13.79L46.7783 13.4606L47.5909 13.1357L48.3862 12.8161L51.3804 11.6072L52.0796 11.3265L52.758 11.0563L53.4153 10.7972L54.0512 10.5502L54.6653 10.3161L55.2574 10.0958L55.8273 9.89017L56.3748 9.69994L56.8998 9.52598L57.4022 9.3691L57.8821 9.23007L58.3393 9.10969L58.7741 9.00869L59.1865 8.9278L59.5766 8.86772L59.9447 8.82914L60.2909 8.81271L60.6156 8.81904L60.9191 8.84872L61.2018 8.9023L61.4639 8.98031L61.706 9.08323L61.9286 9.2115L62.132 9.36553L62.3168 9.54568L62.4837 9.75228L62.633 9.98562L62.7656 10.2459L62.8819 10.5334L62.9826 10.8481L63.0685 11.1903L63.1401 11.5599L63.1982 11.957L63.2436 12.3815L63.2768 12.8333L63.2987 13.3123L63.31 13.8183L63.3115 14.3511L63.3038 14.9103L63.2878 15.4957L63.2642 16.1069L63.2337 16.7434L63.1971 17.4047L63.1552 18.0904L63.1085 18.7999L63.0579 19.5325L63.004 20.2877L62.7693 23.5189L62.7089 24.3754L62.6491 25.2496L62.5904 26.1407L62.5332 27.0476L62.4781 27.9694L62.4256 28.9051L62.376 29.8536L62.3299 30.8139L62.2875 31.7849L62.2491 32.7655L62.2151 33.7545L62.1857 34.7508L62.1612 35.7533L62.1417 36.7607L62.1273 37.772L62.1183 38.7858L62.1145 39.8011L62.1162 40.8167L62.1231 41.8312L62.1354 42.8437L62.1529 43.8527L62.1755 44.8573L62.203 45.8562L62.2352 46.8482L62.2719 47.8322L62.3128 48.807L62.3575 49.7716L62.4058 50.7249L62.4572 51.6658L62.5114 52.5931L62.5678 53.506L62.6259 54.4034L62.6854 55.2843L62.7456 56.1479L62.806 56.9931L63.0372 60.1744L63.0891 60.9159L63.1374 61.6346L63.1813 62.3296L63.2201 63.0006L63.2531 63.6469L63.2794 64.268L63.2985 64.8635L63.3095 65.4331L63.3117 65.9762L63.3044 66.4928L63.2867 66.9824L63.258 67.4449L63.2175 67.8801L63.1645 68.2879L63.0982 68.6683L63.018 69.0212L62.9232 69.3466L62.813 69.6448L62.6869 69.9157L62.5442 70.1595L62.3843 70.3766L62.2066 70.5671L62.0105 70.7313L61.7955 70.8696L61.5611 70.9824L61.3069 71.0701L61.0323 71.1332L60.737 71.1722L60.4206 71.1876L60.0828 71.18L59.7233 71.15L59.3419 71.0983L58.9382 71.0254L58.5123 70.9322L58.0638 70.8193L57.5928 70.6875L57.0992 70.5375L56.5831 70.3702L56.0444 70.1862L55.4832 69.9865L54.8998 69.7718L54.2943 69.5431L53.6669 69.301L53.0179 69.0466L52.3477 68.7806L51.6566 68.5039L50.9451 68.2174L48.6927 67.3074L47.9045 66.9901L47.0986 66.6672L46.2757 66.3395L45.4365 66.0078L44.5818 65.6728L43.7125 65.3354L42.8292 64.9963L41.9329 64.6563L41.0246 64.3159L40.1051 63.9759L39.1754 63.637L38.2364 63.2997L37.2894 62.9647L36.3351 62.6325L35.3748 62.3036L34.4096 61.9785L33.4404 61.6577L32.4685 61.3416L31.4951 61.0306L30.5211 60.725L29.5479 60.4252L28.5765 60.1313L27.6082 59.8438L26.644 59.5626L25.6853 59.2881L24.7332 59.0203L23.7887 58.7593L22.8532 58.5051L21.9278 58.2577L21.0135 58.0172L20.1116 57.7833L19.2231 57.5561L18.3492 57.3352L17.4909 57.1207L16.6492 56.9121L13.4698 56.1322L12.7265 55.9491L12.0056 55.7699L11.3081 55.5942L10.6346 55.4216L9.98598 55.2514L9.36297 55.0833L8.76625 54.9165L8.19647 54.7507L7.65423 54.5851L7.14008 54.4192L6.65453 54.2523L6.19805 54.0839L5.77106 53.9133L5.37393 53.7398L5.00697 53.5628L4.67045 53.3816L4.36459 53.1956L4.08956 53.0041L3.84548 52.8064L3.63242 52.6019L3.45039 52.39L3.29937 52.1699L3.17926 51.941L3.08994 51.7028L3.03123 51.4546L3.00289 51.1958L3.00466 50.9259L3.03619 50.6442L3.09714 50.3503L3.18707 50.0437L3.30554 49.7239L3.45203 49.3903L3.62601 49.0426L3.8269 48.6805L4.05407 48.3034L4.30686 47.9111L4.58459 47.5033L4.88652 47.0797L5.21189 46.6402L5.55992 46.1844L5.9298 45.7123L6.32066 45.2237L6.73166 44.7186L7.1619 44.1969L7.61047 43.6588L8.07644 43.1041L8.55888 42.5331L10.6339 40.0886L11.1841 39.4387L11.7449 38.7739L12.3154 38.0947L12.8944 37.4014L13.481 36.6946L14.0744 35.9748L14.6734 35.2426L15.2771 34.4985L15.8846 33.7433L16.495 32.9776L17.1073 32.2021L17.7207 31.4175L18.3342 30.6248L18.9471 29.8247L19.5584 29.018L20.1674 28.2056L20.7734 27.3885L21.3755 26.5676L21.9731 25.7438L22.5654 24.9181L23.1519 24.0916L23.7319 23.2652L24.3048 22.44L24.8701 21.6171L25.4274 20.7975L25.976 19.9822L26.5157 19.1725L27.0459 18.3692L27.5665 17.5737L28.077 16.7868L28.5772 16.0099L29.0669 15.2438L29.5459 14.4897L30.014 13.7488L30.4712 13.0219L32.1902 10.2769L32.5927 9.63628L32.9845 9.01585L33.3658 8.41656L33.7369 7.83931L34.0979 7.28498L34.4492 6.7544L34.7911 6.2484L35.1239 5.76775L35.448 5.31319L35.7638 4.88543L36.0718 4.48512L36.3725 4.1129L36.6662 3.76934L36.9536 3.45498L37.2352 3.17032L37.5115 2.9158L37.7831 2.69182L38.0506 2.49873L38.3146 2.33685L38.5757 2.20641L38.8345 2.10765L39.0916 2.04069L39.3478 2.00567L39.6035 2.00262L39.8595 2.03155L40.1164 2.09243L40.3748 2.18515L40.6354 2.30956L40.8988 2.46547L41.1656 2.65263L41.4364 2.87075L41.7117 3.11948L41.9923 3.39843L42.2785 3.70717L42.571 4.0452L42.8703 4.41201L43.1769 4.80701L43.4912 5.22959L43.8137 5.6791L44.1448 6.15483L44.4849 6.65606L44.8344 7.18202L45.1935 7.73189L45.5627 8.30484L45.942 8.9L46.3318 9.51647L46.7323 10.1533L48.4429 12.8851L48.898 13.6091L49.3641 14.3475L49.841 15.0991L50.3287 15.863L50.8269 16.638L51.3355 17.423L51.8541 18.217L52.3826 19.0189L52.9204 19.8275L53.4674 20.6417L54.023 21.4606L54.5869 22.283L55.1584 23.1079L55.7371 23.9341L56.3224 24.7607L56.9136 25.5866L57.5103 26.4108L58.1116 27.2323L58.7168 28.0502L59.3253 28.8636L59.9363 29.6714L60.5489 30.4729L61.1624 31.2671L61.7758 32.0532L62.3884 32.8305L62.9992 33.5982L63.6074 34.3555L64.2119 35.1017L64.8119 35.8362L65.4064 36.5584L65.9944 37.2678L66.5749 37.9636L67.1471 38.6456L67.7098 39.3132L68.2621 39.966L70.3474 42.4224L70.8329 42.9965L71.302 43.5543L71.754 44.0957L72.1878 44.6205L72.6025 45.1287L72.9973 45.6204L73.3712 46.0957L73.7235 46.5546L74.0533 46.9972L74.3597 47.4238L74.6421 47.8346L74.8997 48.2298L75.1318 48.6098L75.3378 48.9748L75.5169 49.3252L75.6687 49.6614L75.7925 49.9838L75.8879 50.2929L75.9544 50.5892L75.9916 50.8731L75.9991 51.1452L75.9765 51.4061L75.9236 51.6563L75.8401 51.8964L75.7259 52.1269L75.5808 52.3487L75.4046 52.5621L75.1975 52.768L74.9593 52.9669L74.6902 53.1596L74.3902 53.3466L74.0595 53.5286L73.6983 53.7064L73.3069 53.8805L72.8856 54.0516L72.4347 54.2204L71.9547 54.3875L71.4459 54.5535L70.909 54.7191L70.3444 54.8849L69.7528 55.0514L69.1347 55.2192L68.4909 55.389L67.8222 55.5611L67.1291 55.7362L66.4126 55.9146L65.6735 56.097L62.5091 56.873L61.6708 57.0805L60.8156 57.2939L59.9446 57.5135L59.0588 57.7395L58.1593 57.9721L57.2473 58.2114L56.3239 58.4574L55.3902 58.7103L54.4474 58.97L53.4967 59.2366L52.5391 59.5098L51.5759 59.7897L50.6083 60.076L49.6374 60.3687L48.6644 60.6674L47.6905 60.9719L46.7169 61.2819L45.7446 61.5971L44.7748 61.917L43.8087 62.2413L42.8474 62.5696L41.8919 62.9012L40.9434 63.2357L40.0029 63.5726L39.0713 63.9113L38.1498 64.2511L37.2392 64.5914L36.3406 64.9316L35.4548 65.2709L34.5827 65.6087L33.7252 65.9441L32.883 66.2765L32.0569 66.6051L31.2478 66.929L30.4561 67.2474L27.4774 68.4501L26.7824 68.7287L26.1081 68.9968L25.4551 69.2535L24.8236 69.4979L24.2139 69.7293L23.6262 69.9467L23.0608 70.1493L22.5178 70.3364L21.9974 70.507L21.4995 70.6603L21.0242 70.7956L20.5714 70.9122L20.1412 71.0092L19.7333 71.086L19.3476 71.1418L18.984 71.176L18.6421 71.1879L18.3216 71.1769L18.0224 71.1424L17.7439 71.084L17.4858 71.001L17.2477 70.893L17.029 70.7596L16.8294 70.6004L16.6482 70.4149L16.4849 70.203L16.339 69.9642L16.2098 69.6985L16.0966 69.4055L15.9989 69.0853L15.916 68.7376L15.8471 68.3625L15.7916 67.9599L15.7488 67.5299L15.7179 67.0726L15.6982 66.5881L15.6889 66.0767L15.6894 65.5386L15.6987 64.9741L15.7163 64.3835L15.7414 63.7672L15.7732 63.1257L15.8109 62.4594L15.8539 61.7688L15.9014 61.0547L15.9527 60.3174L16.0071 59.5578L16.1825 57.152L16.2429 56.3104L16.3031 55.4502L16.3628 54.5725L16.4213 53.6782L16.478 52.7682L16.5326 51.8435L16.5846 50.9052L16.6335 49.9542L16.679 48.9917L16.7206 48.0187L16.7581 47.0363L16.7912 46.0458L16.8196 45.0481L16.8431 44.0445L16.8616 43.0362L16.8749 42.0244L16.8829 41.0101L16.8856 39.9947L16.8829 38.9792L16.8748 37.965L16.8615 36.9532L16.8429 35.9449L16.8193 34.9414L16.7909 33.9438L16.7577 32.9533L16.7202 31.9711L16.6785 30.9982L16.633 30.0358L16.5841 29.0849L16.5321 28.1467L16.4775 27.2221L16.4207 26.3123L16.3622 25.4182L16.3025 24.5406L16.2422 23.6807L16.1819 22.8392L16.0065 20.4341L15.9521 19.6747L15.9008 18.9377L15.8534 18.2238L15.8105 17.5335L15.7728 16.8675L15.7411 16.2262L15.7161 15.6102L15.6986 15.0198L15.6893 14.4556L15.689 13.9178L15.6983 13.4066L15.7182 12.9225L15.7492 12.4655L15.7921 12.0357L15.8478 11.6334L15.9168 11.2586L15.9999 10.9112L16.0977 10.5912L16.211 10.2986L16.3404 10.0331L16.4865 9.79468L16.65 9.583L16.8314 9.39783L17.0312 9.23885L17.25 9.1057L17.4884 8.99798L17.7467 8.91527L18.0254 8.85706L18.3249 8.82287L18.6455 8.81214L18.9877 8.82428L19.3516 8.85869L19.7375 8.91472L20.1456 8.9917L20.5761 9.08892L21.029 9.20568L21.5046 9.34121L22.0027 9.49475L22.5234 9.66551L23.0666 9.8527L23.6323 10.0555L24.2202 10.2731L24.8301 10.5046L25.4618 10.7492L26.1151 11.006L26.7896 11.2742L27.4848 11.5529L30.4643 12.7559L31.2562 13.0744L32.0655 13.3983L32.8918 13.7269L33.7341 14.0594L34.5918 14.3948L35.464 14.7326L36.35 15.072L37.2487 15.4122L38.1594 15.7525L39.0811 16.0923L40.0127 16.4309L40.9533 16.7678L41.9019 17.1023L42.8575 17.4339L43.8189 17.7621L44.785 18.0863L45.7548 18.4062L46.7271 18.7213L47.7007 19.0313L48.6746 19.3358L49.6476 19.6344L50.6185 19.927L51.586 20.2133L52.5492 20.4931L53.5067 20.7663L54.4574 21.0327L55.4001 21.2924L56.3337 21.5452L57.257 21.7912L58.1688 22.0304L59.0682 22.2629L59.9538 22.4888L60.8247 22.7084L61.6797 22.9218L62.5179 23.1291L65.6814 23.905L66.4203 24.0872L67.1365 24.2657L67.8293 24.4407L68.4978 24.6128L69.1413 24.7825L69.7591 24.9504L70.3505 25.1169L70.9148 25.2826L71.4514 25.4482L71.9599 25.6143L72.4396 25.7814L72.8902 25.9502L73.3112 26.1213L73.7023 26.2955L74.0631 26.4733L74.3935 26.6553L74.6932 26.8424L74.962 27.0351L75.1998 27.2341L75.4067 27.4401L75.5825 27.6536L75.7272 27.8754L75.8412 28.1061L75.9243 28.3463L75.9769 28.5966L75.9992 28.8576L75.9914 29.1298L75.9539 29.4139L75.8871 29.7103L75.7914 30.0195L75.6672 30.3421L75.5152 30.6785L75.3357 31.029L75.1295 31.3941L74.8971 31.7743L74.6393 32.1696L74.3566 32.5806L74.0499 33.0074L73.7199 33.4502L73.3674 33.9092L72.9933 34.3846L72.5983 34.8765L72.1833 35.385L71.7494 35.9099L71.2972 36.4514L70.8279 37.0094L70.3422 37.5837L68.2563 40.0408L67.7039 40.6938L67.1411 41.3615L66.5689 42.0436L65.9882 42.7396L65.4002 43.4491L64.8056 44.1714L64.2056 44.9061L63.601 45.6524L62.9928 46.4098L62.382 47.1776L61.7694 47.955L61.1559 48.7412L60.5425 49.5355L59.9299 50.337L59.3189 51.1449L58.7105 51.9583L58.1052 52.7763L57.504 53.5979L56.9074 54.4221L56.3162 55.248L55.731 56.0746L55.1523 56.9008L54.5809 57.7256L54.0172 58.548L53.4616 59.3668L52.9147 60.1811L52.377 60.9896L51.8486 61.7914L51.3301 62.5853L50.8216 63.3702L50.3235 64.1451L49.836 64.9088L49.3591 65.6603L48.8932 66.3986L48.4382 67.1224L46.728 69.8535L46.3277 70.4901L45.938 71.1064L45.5587 71.7013L45.1897 72.274L44.8307 72.8236L44.4813 73.3493L44.1413 73.8503L43.8103 74.3258L43.4879 74.775L43.1736 75.1973L42.8672 75.592L42.5679 75.9585L42.2755 76.2962L41.9893 76.6047L41.7088 76.8833L41.4335 77.1317L41.1628 77.3495L40.896 77.5363L40.6327 77.6919L40.3721 77.816L40.1137 77.9084L39.8568 77.9689L39.6008 77.9975L39.3451 77.9941L39.0889 77.9588L38.8318 77.8915L38.573 77.7924L38.3119 77.6616L38.0478 77.4994L37.7803 77.306L37.5087 77.0817L37.2323 76.8269L36.9507 76.5419L36.6632 76.2272L36.3693 75.8833L36.0686 75.5108L35.7605 75.1102L35.4446 74.6822L35.1204 74.2273L34.7875 73.7464L34.4456 73.2402L34.0942 72.7093L33.733 72.1547L33.3619 71.5773L32.9805 70.9777L32.5885 70.3571L32.1859 69.7163L30.4665 66.9705L30.0092 66.2435L29.5409 65.5024L29.0618 64.7482L28.572 63.982L28.0717 63.205L27.5611 62.418L27.0404 61.6224L26.51 60.8191L25.9703 60.0092L25.4216 59.1939L24.8643 58.3743L24.2988 57.5513L23.7258 56.7261L23.1458 55.8997L22.5592 55.0732L21.9668 54.2476L21.3692 53.4238L20.767 52.6029L20.161 51.7858L19.552 50.9735L18.9406 50.1669L18.3278 49.3668L17.7142 48.5742L17.1009 47.7898L16.4886 47.0144L15.8782 46.2487L15.2708 45.4936L14.6671 44.7497L14.0681 44.0176L13.4749 43.2979L12.8883 42.5912L12.3093 41.8981L11.739 41.219L11.1783 40.5544L10.6282 39.9046L8.55373 37.4609L8.07147 36.89L7.60567 36.3355L7.15729 35.7975L6.72725 35.276L6.31646 34.7711L5.9258 34.2827L5.55616 33.8108L5.20836 33.3551L4.88323 32.9157L4.58154 32.4923L4.30408 32.0847L4.05155 31.6926L3.82465 31.3157L3.62404 30.9536L3.45035 30.6061L3.30414 30.2727L3.18598 29.953L3.09634 29.6465L3.03571 29.3528L3.00448 29.0712L3.00303 28.8014L3.03169 28.5428L3.09072 28.2947L3.18036 28.0565L3.30079 27.8278L3.45214 27.6078L3.6345 27.3959L3.84789 27.1915L4.09229 26.9938L4.36764 26.8024L4.67382 26.6164L5.01066 26.4353L5.37794 26.2583L5.77539 26.0849L6.20269 25.9143L6.65947 25.7459L7.14532 25.5791L7.65977 25.4132L8.20231 25.2476L8.77238 25.0817L9.36937 24.915L9.99265 24.7468L10.6415 24.5766L11.3153 24.4039L12.0131 24.2282L12.7342 24.049L13.4777 23.8659L15.8339 23.2886L16.658 23.0858L17.4998 22.8771L18.3583 22.6625L19.2324 22.4416L20.121 22.2143L21.023 21.9803L21.9374 21.7397L22.863 21.4923L23.7986 21.238L24.7431 20.9769L25.6953 20.709L26.6541 20.4345L27.6183 20.1533L28.5867 19.8656L29.5581 19.5717L30.5313 19.2718L31.5053 18.9662L32.4788 18.6551L33.4506 18.3389L34.4197 18.0181L35.3849 17.693L36.3452 17.364L37.2993 17.0318L38.2463 16.6967L39.1852 16.3594L40.1148 16.0205L41.0342 15.6805L41.9424 15.3402L42.8385 15.0001L43.7217 14.661L44.5909 14.3237L45.4454 13.9888L46.2844 13.6571L47.1071 13.3294L47.9128 13.0065L48.7009 12.6893L50.9527 11.7795L51.664 11.4931L52.3549 11.2166L53.0249 10.9507L53.6736 10.6964L54.3008 10.4545L54.906 10.2259L55.4892 10.0113L56.0501 9.81177L56.5886 9.62799L57.1045 9.4608L57.5979 9.31101L58.0687 9.17939L58.5169 9.0667L58.9426 8.9737L59.346 8.9011L59.7272 8.84959L60.0865 8.81984L60.4241 8.81248L60.7402 8.82813L61.0353 8.86736L61.3096 8.9307L61.5637 9.01867L61.7978 9.13173L62.0126 9.27031L62.2085 9.43481L62.386 9.62556L62.5458 9.84288L62.6883 10.087L62.8143 10.3582L62.9242 10.6566L63.0189 10.9824L63.099 11.3356L63.1651 11.7163L63.218 12.1244L63.2583 12.5599L63.2869 13.0226L63.3045 13.5125L63.3117 14.0293L63.3094 14.5728L63.2983 15.1426L63.2792 15.7384L63.2527 16.3598L63.2197 17.0063L63.1809 17.6775L63.1369 18.3729L63.0886 19.0917L63.0366 19.8335L62.8054 23.0157L62.745 23.8611L62.6848 24.7248L62.6253 25.606L62.5672 26.5035L62.5108 27.4165L62.4567 28.3441L62.4053 29.285L62.3571 30.2384L62.3124 31.2031L62.2715 32.1781L62.2349 33.1622L62.2027 34.1543L62.1753 35.1532L62.1527 36.1578L62.1353 37.167L62.123 38.1794L62.1161 39.194L62.1145 40.2095L62.1183 41.2248L62.1275 42.2387L62.1419 43.2499L62.1614 44.2573L62.186 45.2597L62.2154 46.2559L62.2495 47.2449L62.2879 48.2253L62.3303 49.1962L62.3766 50.1564L62.4261 51.1048L62.4787 52.0403L62.5338 52.962L62.591 53.8688L62.6497 54.7596L62.7096 55.6337L62.7699 56.49L63.0046 59.7203L63.0585 60.4753L63.109 61.2077L63.1556 61.9169L63.1976 62.6024L63.2341 63.2635L63.2645 63.8997L63.288 64.5106L63.3039 65.0957L63.3115 65.6547L63.3099 66.1872L63.2985 66.6929L63.2765 67.1716L63.2432 67.6231L63.1977 68.0473L63.1394 68.4441L63.0677 68.8135L62.9817 69.1553L62.8808 69.4698L62.7643 69.757L62.6316 70.017L62.482 70.25L62.315 70.4563L62.13 70.6362L61.9263 70.79L61.7036 70.918L61.4613 71.0206L61.1989 71.0984L60.9161 71.1517L60.6123 71.1812L60.2874 71.1872L59.9409 71.1706L59.5726 71.1318L59.1823 71.0715L58.7697 70.9903L58.3347 70.8891L57.8772 70.7686L57.3971 70.6293L56.8944 70.4723L56.3692 70.2981L55.8214 70.1078L55.2513 69.9019L54.659 69.6815L54.0446 69.4473L53.4085 69.2001L52.751 68.941L52.0723 68.6706L51.373 68.3898L48.3779 67.1806L47.5825 66.8609L46.7697 66.5359L45.9402 66.2065L45.0947 65.8734L44.234 65.5374L43.3589 65.1992L42.4703 64.8597L41.5691 64.5194L40.6561 64.1791L39.7324 63.8395L38.7989 63.5012L37.8566 63.1647L36.9065 62.8308L35.9497 62.4998L34.9872 62.1724L34.0203 61.849L33.0499 61.53L32.0772 61.2159L31.1034 60.907L30.1296 60.6037L29.157 60.3063L28.1867 60.0149L27.2199 59.7299L26.2578 59.4514L25.3016 59.1796L24.3524 58.9145L23.4114 58.6563L22.4798 58.4048L21.5587 58.1602L20.6493 57.9223L19.7526 57.6912L18.8699 57.4665L18.0021 57.2482L17.1504 57.0361L16.3158 56.8299L13.1683 56.0581L12.4339 55.8766L11.7223 55.6989L11.0343 55.5245L10.3707 55.3529L9.73235 55.1836L9.11983 55.0161L8.53387 54.8498L7.97509 54.6841L7.44408 54.5184L6.94137 54.3522L6.46746 54.1848L6.0228 54.0156L5.60777 53.8439L5.22273 53.6691L4.86798 53.4905L4.54377 53.3075L4.25029 53.1193L3.9877 52.9254L3.75608 52.7251L3.5555 52.5176L3.38594 52.3025L3.24736 52.0789L3.13965 51.8464L3.06267 51.6042L3.0162 51.3518L3 51.0886L3.01378 50.814L3.05719 50.5275L3.12984 50.2286L3.2313 49.9167L3.3611 49.5914L3.51871 49.2522L3.70359 48.8988L3.91512 48.5306L4.15267 48.1475L4.41558 47.749L4.70312 47.3349L5.01457 46.9049L5.34916 46.4588L5.70607 45.9965L6.08449 45.5178L6.48356 45.0226L6.9024 44.5108L7.34012 43.9825L7.7958 43.4377L8.2685 42.8764L8.75729 42.2989L10.8538 39.8291L11.4084 39.1732L11.9732 38.5025L12.5472 37.8176L13.1294 37.1188L13.7189 36.4067L14.3146 35.6819L14.9156 34.9448L15.521 34.1962L16.1298 33.4366L16.741 32.6669L17.3539 31.8876L17.9674 31.0997L18.5808 30.3039L19.1931 29.501L19.8036 28.6919L20.4115 27.8776L21.016 27.0588L21.6164 26.2366L22.2119 25.412L22.802 24.5858L23.3859 23.7592L23.9631 22.9332L24.5331 22.1088L25.0952 21.2871L25.649 20.4691L26.1941 19.6559L26.73 18.8486L27.2564 18.0484L27.773 17.2562L28.2794 16.4732L28.7754 15.7004L29.2608 14.9391L29.7354 14.1901L30.1992 13.4547L30.652 12.7339L32.3533 10.0169L32.7515 9.38432L33.1391 8.77229L33.5163 8.18175L33.8832 7.61361L34.2403 7.06873L34.5878 6.54794L34.9259 6.05204L35.2552 5.58179L35.5759 5.13793L35.8886 4.72112L36.1936 4.33204L36.4914 3.97128L36.7825 3.6394L37.0675 3.33693L37.3469 3.06433L37.6213 2.82204L37.8912 2.61045L38.1572 2.42987L38.4199 2.28061L38.68 2.16288L38.938 2.07689L39.1947 2.02277L39.4506 2.0006L39.7064 2.01041L39.9627 2.0522L40.2201 2.12589L40.4793 2.23137L40.741 2.36848L41.0056 2.53699L41.274 2.73663L41.5465 2.96711L41.8239 3.22804L42.1067 3.51902L42.3954 3.8396L42.6905 4.18927L42.9927 4.56748L43.3023 4.97365L43.6199 5.40714L43.9458 5.86728L44.2805 6.35335L44.6243 6.86462L44.9776 7.40029L45.3407 7.95954L45.714 8.54153L46.0975 9.14537L46.4915 9.77014L46.8963 10.4149L48.6246 13.1744L49.0841 13.9044L49.5546 14.6482L50.0358 15.4049L50.5278 16.1733L51.0302 16.9525L51.5428 17.7413L52.0654 18.5385L52.5977 19.3432L53.1393 20.1543L53.6898 20.9705L54.2488 21.7909L54.8158 22.6144L55.3902 23.44L55.9716 24.2665L56.5594 25.0929L57.1529 25.9182L57.7515 26.7415L58.3545 27.5617L58.9612 28.3779L59.5708 29.1891L60.1825 29.9945L60.7955 30.7931L61.4091 31.5842L62.0223 32.3669L62.6343 33.1404L63.2441 33.904L63.8509 34.6569L64.4538 35.3985L65.0516 36.1282L65.6436 36.8452L66.2288 37.5492L66.8061 38.2396L67.3745 38.9158L67.9332 39.5775L68.481 40.2242L70.0498 42.0714L70.5445 42.6552L71.0235 43.2228L71.4859 43.774L71.9307 44.3087L72.3569 44.8268L72.7637 45.3284L73.1502 45.8135L73.5155 46.2822L73.8588 46.7345L74.1793 47.1707L74.4762 47.5909L74.7487 47.9954L74.9961 48.3844L75.2178 48.7583L75.4131 49.1174L75.5813 49.462L75.7219 49.7926L75.8344 50.1097L75.9182 50.4135L75.9729 50.7048L75.9982 50.9839L75.9936 51.2514L75.9589 51.5079L75.8937 51.754L75.7979 51.9902L75.6713 52.2171L75.5137 52.4354L75.3251 52.6458L75.1055 52.8488L74.8548 53.0451L74.5733 53.2354L74.2609 53.4203L73.9179 53.6006L73.5446 53.7768L73.1411 53.9496L72.7078 54.1197L72.2452 54.2877L71.7535 54.4543L71.2334 54.6201L70.6853 54.7857L70.1097 54.9517L69.5074 55.1187L68.8789 55.2872L68.225 55.4579L67.5464 55.6311L66.8438 55.8075L66.1181 55.9875L65.3702 56.1715L63.0019 56.7517L62.1741 56.9557L61.3289 57.1655L60.4672 57.3814L59.5901 57.6036L58.6987 57.8322L57.7941 58.0675L56.8773 58.3095L55.9497 58.5583L55.0122 58.8139L54.066 59.0764L53.1124 59.3456L52.1524 59.6216L51.1873 59.9041L50.2182 60.193L49.2464 60.4881L48.2729 60.7892L47.2989 61.0959L46.3257 61.4081L45.3543 61.7252L44.3859 62.0469L43.4216 62.3729L42.4625 62.7025L41.5097 63.0354L40.5642 63.3709L39.6272 63.7086L38.6995 64.0478L37.7823 64.3879L36.8764 64.7283L35.9828 65.0682L35.1024 65.407L34.2361 65.7439L33.3846 66.0782L32.5489 66.4092L31.7295 66.7359L30.9273 67.0577L27.9027 68.2788L27.1954 68.5633L26.5087 68.8378L25.843 69.1014L25.1986 69.3533L24.5758 69.5926L23.9749 69.8184L23.3962 70.03L22.8398 70.2265L22.3058 70.407L21.7944 70.5707L21.3056 70.7169L20.8394 70.8448L20.3957 70.9536L19.9745 71.0425L19.5756 71.111L19.1988 71.1582L18.8439 71.1835L18.5107 71.1862L18.1988 71.1659L17.9079 71.1219L17.6377 71.0536L17.3877 70.9606L17.1574 70.8425L16.9465 70.6987L16.7543 70.529L16.5804 70.3329L16.4242 70.1102L16.285 69.8606L16.1624 69.584L16.0555 69.2801L15.9638 68.9488L15.8866 68.5901L15.8232 68.2039L15.7729 67.7903L15.735 67.3493L15.7087 66.8811L15.6932 66.3857L15.688 65.8636L15.6921 65.3148L15.7049 64.7397L15.7256 64.1387L15.7534 63.5122L15.7876 62.8607L15.8276 62.1846L15.8725 61.4845L15.9216 60.761L15.9742 60.0147L16.2067 56.8159L16.2671 55.9667L16.3272 55.0994L16.3865 54.2149L16.4443 53.3141L16.5003 52.3981L16.5539 51.4678L16.6047 50.5243L16.6522 49.5685L16.6962 48.6016L16.7362 47.6247L16.7719 46.6389L16.8032 45.6454L16.8297 44.6452L16.8512 43.6396L16.8676 42.6297L16.8788 41.6168L16.8846 40.6019L16.8851 39.5863L16.8803 38.5712L16.8701 37.5578L16.8546 36.5472L16.834 35.5407L16.8085 34.5395L16.7781 33.5446L16.7431 32.5573L16.7039 31.5787L16.6606 30.6099L16.6137 29.652L16.5635 28.7061L16.5104 27.7732L16.4549 26.8545L16.3973 25.9508L16.3383 25.0633L16.2783 24.1927L16.2179 23.3401L15.9843 20.1261L15.9311 19.3756L15.8813 18.6478L15.8355 17.9433L15.7946 17.2628L15.7593 16.6066L15.7302 15.9754L15.7081 15.3697L15.6938 14.7898L15.688 14.2361L15.6915 13.709L15.705 13.2087L15.7292 12.7354L15.765 12.2894L15.813 11.8707L15.8739 11.4794L15.9485 11.1156L16.0374 10.7793L16.1414 10.4703L16.2611 10.1886L16.3971 9.93401L16.5501 9.70636L16.7207 9.50537L16.9095 9.33078L17.1169 9.18223L17.3435 9.05935L17.5898 8.96174L17.8563 8.88894L18.1433 8.84046L18.4513 8.81577L18.7805 8.81431L19.1314 8.83548L19.5041 8.87866L19.8989 8.9432L20.316 9.0284L20.7555 9.13357L21.2175 9.25796L21.7022 9.40082L22.2094 9.56138L22.7391 9.73885L23.2914 9.93242L23.866 10.1413L24.4628 10.3645L25.0815 10.6014L25.722 10.851L26.3838 11.1125L27.0666 11.3851L27.7701 11.6678L30.7806 12.8832L31.5795 13.204L32.3958 13.53L33.2286 13.8602L34.0772 14.1939L34.9408 14.5304L35.8187 14.8689L36.7099 15.2087L37.6135 15.549L38.5287 15.8892L39.4545 16.2286L40.3899 16.5666L41.3339 16.9026L42.2854 17.236L43.2434 17.5663L44.2068 17.893L45.1746 18.2155L46.1455 18.5335L47.1185 18.8466L48.0924 19.1544L49.0661 19.4566L50.0383 19.7528L51.008 20.0429L51.9739 20.3266L52.9349 20.6037L53.8898 20.8742L54.8375 21.138L55.7766 21.3948L56.7062 21.6449L57.6251 21.8882L58.532 22.1247L59.426 22.3545L60.3058 22.5779L61.1704 22.7949L62.0188 23.0058L62.8499 23.2109L65.9812 23.9788L66.711 24.1594L67.418 24.3364L68.1011 24.5102L68.7596 24.6813L69.3929 24.8502L70.0001 25.0174L70.5807 25.1836L71.1339 25.3492L71.6593 25.5149L72.1562 25.6813L72.6243 25.849L73.063 26.0187L73.4721 26.191L73.851 26.3665L74.1997 26.5459L74.5177 26.7299L74.805 26.9192L75.0613 27.1143L75.2867 27.3161L75.4811 27.525L75.6444 27.7418L75.7768 27.9671L75.8783 28.2015L75.9491 28.4457L75.9895 28.7002L75.9996 28.9656L75.9799 29.2426L75.9305 29.5315L75.8521 29.8331L75.7449 30.1476L75.6094 30.4757L75.4463 30.8177L75.256 31.1741L75.0392 31.5452L74.7965 31.9314L74.5286 32.333L74.2362 32.7503L73.92 33.1835L73.5808 33.6328L73.2195 34.0984L72.8369 34.5804L72.4338 35.079L72.0111 35.5941L71.5697 36.1257L71.1105 36.6738L70.6345 37.2384L70.1426 37.8192L68.0355 40.3016L67.4788 40.9605L66.9121 41.634L66.3364 42.3218L65.7526 43.0233L65.1618 43.738L64.565 44.4654L63.963 45.2048L63.3568 45.9557L62.7475 46.7173L62.1358 47.4891L61.5228 48.2701L60.9092 49.0597L60.296 49.857L59.684 50.6612L59.0739 51.4714L58.4667 52.2867L57.863 53.1063L57.2635 53.929L56.669 54.7541L56.0801 55.5804L55.4975 56.4069L54.9217 57.2327L54.3533 58.0567L53.7928 58.8777L53.2407 59.6948L52.6974 60.5069L52.1634 61.3129L51.6389 62.1116L51.1244 62.902L50.6201 63.683L50.1262 64.4536L49.6429 65.2125L49.1705 65.9588L48.7089 66.6914L48.2583 67.4092L46.9725 69.4635L46.5657 70.1119L46.1697 70.7404L45.7842 71.3482L45.4091 71.9343L45.0442 72.4978L44.6891 73.0379L44.3435 73.5538L44.0071 74.0446L43.6796 74.5096L43.3606 74.9481L43.0495 75.3593L42.746 75.7428L42.4496 76.0978L42.1597 76.4238L41.8759 76.7203L41.5975 76.9868L41.3241 77.223L41.0551 77.4284L40.7898 77.6027L40.5276 77.7456L40.268 77.857L40.0103 77.9365L39.7538 77.9843L39.498 78L39.2422 77.9838L38.9857 77.9355L38.7279 77.8554L38.4683 77.7436L38.2061 77.6002L37.9407 77.4254L37.6716 77.2195L37.3981 76.9829L37.1197 76.7159L36.8358 76.4189L36.5458 76.0924L36.2493 75.737L35.9457 75.3531L35.6345 74.9414L35.3153 74.5025L34.9876 74.0371L34.6511 73.5459L34.3054 73.0296L33.9502 72.4891L33.585 71.9252L33.2098 71.3388L32.8241 70.7307L32.4279 70.1018L32.021 69.4531L30.7347 67.398L30.2839 66.68L29.8222 65.9472L29.3495 65.2007L28.8661 64.4415L28.3721 63.6708L27.8676 62.8897L27.3529 62.0991L26.8283 61.3002L26.2941 60.4942L25.7507 59.682L25.1985 58.8648L24.6378 58.0437L24.0693 57.2197L23.4934 56.3939L22.9107 55.5674L22.3217 54.7411L21.7271 53.916L21.1276 53.0933L20.5238 52.2739L19.9165 51.4586L19.3064 50.6485L18.6943 49.8444L18.0811 49.0472L17.4675 48.2577L16.8545 47.4768L16.2429 46.7053L15.6336 45.9438L15.0275 45.1931L14.4256 44.4538L13.8288 43.7267L13.2381 43.0121L12.6545 42.3109L12.0789 41.6233L11.5123 40.95L10.9558 40.2913L8.84955 37.81L8.3579 37.2294L7.88214 36.6651L7.42323 36.1172L6.98211 35.5858L6.55971 35.071L6.1569 34.5727L5.77459 34.091L5.41363 33.6256L5.07485 33.1765L4.75906 32.7436L4.46702 32.3265L4.1995 31.9252L3.95719 31.5392L3.74079 31.1683L3.55093 30.8122L3.38822 30.4704L3.25323 30.1425L3.14648 29.8282L3.06845 29.5269L3.01959 29.2381L3.0003 28.9614L3.01092 28.6961L3.05176 28.4418L3.12307 28.1977L3.22508 27.9635L3.35793 27.7383L3.52174 27.5216L3.71657 27.3128L3.94244 27.1112L4.19929 26.9162L4.48706 26.727L4.80559 26.5431L5.1547 26.3637L5.53415 26.1882L5.94364 26.016L6.38284 25.8464L6.85137 25.6787L7.34877 25.5123L7.87458 25.3466L8.42826 25.181L9.00923 25.0148L9.61687 24.8476L10.2505 24.6786L10.9095 24.5075L11.593 24.3337L12.3003 24.1566L13.0305 23.9759L16.1631 23.2077L16.9944 23.0026L17.843 22.7916L18.7079 22.5744L19.588 22.351L20.4821 22.121L21.3893 21.8844L22.3083 21.641L23.2381 21.3909L24.1774 21.1339L25.1251 20.87L26.0802 20.5994L27.0412 20.3222L28.0072 20.0384L28.977 19.7482L29.9493 19.4518L30.9229 19.1496L31.8968 18.8417L32.8698 18.5286L33.8407 18.2105L34.8084 17.8878L35.7717 17.5611L36.7296 17.2308L37.681 16.8974L38.6249 16.5613L39.5601 16.2233L40.4858 15.8839L41.4008 15.5437L42.3042 15.2034L43.1953 14.8636L44.0729 14.5251L44.9363 14.1887L45.7847 13.855L46.6172 13.5248L47.4332 13.1989L48.2319 12.8782L51.2411 11.6632L51.9443 11.3807L52.6268 11.1083L53.2883 10.847L53.9284 10.5976L54.5468 10.3609L55.1432 10.1379L55.7175 9.92925L56.2694 9.73593L56.7988 9.55873L57.3056 9.39843L57.7899 9.25585L58.2516 9.13176L58.6907 9.0269L59.1075 8.94202L59.5019 8.87781L59.8743 8.83497L60.2248 8.81415L60.5537 8.81598L60.8614 8.84104L61.1481 8.8899L61.4142 8.96309L61.6602 9.06109L61.8865 9.18436L62.0936 9.33332L62.2821 9.50833L62.4524 9.70974L62.6051 9.93781L62.7409 10.1928L62.8604 10.4749L62.9641 10.7843L63.0528 11.1211L63.1272 11.4854L63.1879 11.8771L63.2357 12.2962L63.2712 12.7427L63.2953 13.2164L63.3086 13.7171L63.3119 14.2446L63.306 14.7987L63.2916 15.379L63.2694 15.9852L63.2402 16.6168L63.2048 17.2733L63.1638 17.9543L63.118 18.6591L63.0681 19.3873L63.0148 20.1381L62.7811 23.3534L62.7207 24.2063L62.6608 25.0771L62.6018 25.9649L62.5442 26.8688L62.4887 27.7878L62.4357 28.7209L62.3855 29.667L62.3386 30.625L62.2954 31.594L62.2563 32.5728L62.2214 33.5602L62.1911 34.5552L62.1656 35.5566L62.1451 36.5631L62.1297 37.5737L62.1196 38.5872L62.1148 39.6023L62.1154 40.6179L62.1214 41.6327L62.1326 42.6457L62.1491 43.6555L62.1707 44.661L62.1973 45.6611L62.2286 46.6545L62.2644 47.6402L62.3045 48.6169L62.3485 49.5836L62.3961 50.5392L62.4469 51.4826L62.5006 52.4127L62.5566 53.3284L62.6144 54.2289L62.6737 55.1132L62.7338 55.9802L62.7942 56.8291L63.0266 60.0266L63.0792 60.7725L63.1283 61.4957L63.1731 62.1954L63.2129 62.8711L63.2471 63.5223L63.2748 64.1484L63.2954 64.749L63.308 65.3236L63.312 65.872L63.3066 66.3937L63.291 66.8886L63.2645 67.3564L63.2264 67.797L63.1759 68.2102L63.1122 68.5959L63.0348 68.9542L62.9429 69.2851L62.8358 69.5885L62.7129 69.8648L62.5735 70.1139L62.417 70.3362L62.2428 70.5318L62.0503 70.7012L61.8391 70.8445L61.6086 70.9623L61.3582 71.0549L61.0877 71.1227L60.7965 71.1664L60.4842 71.1864L60.1507 71.1832L59.7955 71.1576L59.4183 71.1101L59.019 71.0413L58.5974 70.952L58.1534 70.8429L57.6868 70.7148L57.1977 70.5683L56.6859 70.4043L56.1516 70.2235L55.5949 70.0268L55.0158 69.815L54.4146 69.5889L53.7914 69.3494L53.1467 69.0973L52.4806 68.8335L51.7936 68.5589L51.086 68.2742L48.0602 67.0527L47.2577 66.7308L46.4381 66.404L45.6021 66.073L44.7504 65.7386L43.8838 65.4016L43.0032 65.0628L42.1094 64.7229L41.2034 64.3825L40.2859 64.0424L39.3582 63.7033L38.421 63.3656L37.4754 63.0301L36.5225 62.6973L35.5633 62.3677L34.5989 62.0418L33.6305 61.7202L32.659 61.4031L31.6858 61.0911L30.7118 60.7844L29.7383 60.4834L28.7665 60.1884L27.7975 59.8996L26.8324 59.6172L25.8726 59.3413L24.919 59.0722L23.973 58.8098L23.0356 58.5543L22.1081 58.3056L21.1916 58.0638L20.2872 57.8286L19.396 57.6001L18.5191 57.378L17.6576 57.1622L16.8127 56.9525L15.9852 56.7485L13.6179 56.1685L12.8703 55.9846L12.145 55.8047L11.4428 55.6284L10.7645 55.4552L10.111 55.2846L9.48291 55.116L8.88099 54.9491L8.30589 54.7831L7.7582 54.6175L7.23851 54.4517L6.74733 54.2851L6.28512 54.117L5.85233 53.9469L5.44932 53.774L5.07643 53.5978L4.73393 53.4175L4.42206 53.2325L4.14098 53.0421L3.89083 52.8457L3.6717 52.6425L3.48359 52.4321L3.3265 52.2136L3.20035 51.9865L3.10501 51.7502L3.04033 51.504L3.00606 51.2473L3.00195 50.9796L3.02769 50.7003L3.08291 50.4089L3.1672 50.1048L3.28012 49.7875L3.42116 49.4567L3.58981 49.1118L3.78547 48.7525L4.00755 48.3784L4.25538 47.9891L4.52828 47.5844L4.82553 47.1639L5.14637 46.7275L5.49003 46.2749L5.85569 45.806L6.24252 45.3206L6.64965 44.8188L7.07619 44.3004L7.52124 43.7654L7.98388 43.214L8.46316 42.6461L8.95815 42.062L10.5275 40.2141L11.0756 39.5672L11.6344 38.9053L12.203 38.2288L12.7804 37.5382L13.3656 36.8341L13.9577 36.1168L14.5557 35.3869L15.1586 34.6451L15.7654 33.892L16.3753 33.1283L16.9873 32.3546L17.6005 31.5718L18.2141 30.7806L18.8272 29.9819L19.4389 29.1764L20.0484 28.3651L20.655 27.5488L21.2579 26.7286L21.8564 25.9053L22.4499 25.0799L23.0375 24.2534L23.6189 23.427L24.1932 22.6015L24.7601 21.778L25.3189 20.9576L25.8693 20.1415L26.4107 19.3305L26.9429 18.5259L27.4653 17.7288L27.9778 16.9402L28.4801 16.1612L28.9718 15.3929L29.4529 14.6364L29.9232 13.8928L30.3826 13.1631L32.1101 10.4046L32.5147 9.76015L32.9086 9.1357L33.292 8.5322L33.665 7.95056L34.028 7.39167L34.3812 6.85638L34.7248 6.3455L35.0594 5.85983L35.3852 5.4001L35.7026 4.96704L36.0121 4.56131L36.3141 4.18354L36.6092 3.83433L36.8978 3.51421L37.1805 3.2237L37.4578 2.96324L37.7303 2.73325L37.9986 2.53409L38.2632 2.36607L38.5248 2.22947L38.784 2.12449L39.0414 2.05129L39.2977 2.01001L39.5534 2.0007L39.8093 2.02337L40.066 2.078L40.3241 2.16449L40.5842 2.28271L40.847 2.43247L41.1131 2.61354L41.383 2.82562L41.6574 3.06839L41.9369 3.34146L42.222 3.6444L42.5132 3.97673L42.8112 4.33795L43.1163 4.72747L43.429 5.14471L43.7499 5.58899L44.0793 6.05965L44.4176 6.55595L44.7652 7.07713L45.1224 7.62238L45.4896 8.19088L45.8669 8.78176L46.2547 9.39413L46.653 10.0271L48.3551 12.7451L48.808 13.4662L49.272 14.2018L49.7468 14.951L50.2324 15.7125L50.7285 16.4854L51.2351 17.2686L51.7518 18.0609L52.2783 18.8613L52.8144 19.6687L53.3596 20.4819L53.9136 21.3L54.4758 22.1218L55.0459 22.9462L55.6232 23.7722L56.2073 24.5988L56.7974 25.4249L57.3931 26.2496L57.9935 27.0717L58.5981 27.8904L59.206 28.7047L59.8165 29.5137L60.4289 30.3165L61.0422 31.1122L61.6558 31.9L62.2686 32.6791L62.8798 33.4487L63.4886 34.208L64.0939 34.9565L64.6948 35.6934L65.2904 36.418L65.8798 37.1299L66.4619 37.8285L67.0357 38.5132L67.6004 39.1836L68.1548 39.8393L70.2505 42.3081L70.7391 42.8854L71.2115 43.4464L71.6669 43.991L72.1043 44.519L72.5229 45.0305L72.9216 45.5254L73.2997 46.0039L73.6563 46.466L73.9905 46.9118L74.3016 47.3415L74.5887 47.7554L74.8513 48.1536L75.0884 48.5366L75.2995 48.9044L75.484 49.2577L75.6412 49.5966L75.7705 49.9217L75.8715 50.2334L75.9437 50.5322L75.9867 50.8185L76 51.0928L75.9833 51.3559L75.9364 51.6081L75.8589 51.8501L75.7507 52.0825L75.6116 52.3059L75.4416 52.521L75.2405 52.7283L75.0084 52.9285L74.7453 53.1223L74.4514 53.3104L74.1267 53.4934L73.7714 53.6719L73.3859 53.8466L72.9704 54.0183L72.5253 54.1875L72.0509 54.3549L71.5478 54.5211L71.0163 54.6867L70.4571 54.8524L69.8707 55.0187L69.2578 55.1862L68.619 55.3556L67.955 55.5272L67.2667 55.7016L66.5547 55.8794L65.82 56.0609L62.6712 56.8331L61.8363 57.0394L60.9843 57.2516L60.1163 57.47L59.2333 57.6947L58.3365 57.926L57.4268 58.164L56.5056 58.4087L55.5738 58.6603L54.6327 58.9186L53.6834 59.1838L52.7271 59.4558L51.7649 59.7344L50.798 60.0195L49.8277 60.3109L48.855 60.6085L47.8812 60.9119L46.9074 61.2208L45.9348 61.535L44.9645 61.854L43.9976 62.1775L43.0352 62.505L42.0785 62.836L41.1285 63.17L40.1863 63.5065L39.253 63.8448L38.3294 64.1845L37.4166 64.5248L36.5156 64.865L35.6272 65.2046L34.7523 65.5427L33.8919 65.8787L33.0467 66.2117L32.2174 66.5411L31.4048 66.866L30.6097 67.1856L27.6159 68.3943L26.9168 68.6749L26.2385 68.9451L25.5813 69.2041L24.9455 69.4511L24.3315 69.6851L23.7395 69.9053L23.1698 70.1109L22.6224 70.301L22.0975 70.4749L21.5952 70.6317L21.1155 70.7706L20.6583 70.8909L20.2237 70.9918L19.8114 71.0726L19.4214 71.1325L19.0535 71.171L18.7073 71.1873L18.3827 71.1809L18.0793 71.1511L17.7968 71.0974L17.5347 71.0192L17.2927 70.9162L17.0703 70.7878L16.867 70.6336L16.6822 70.4533L16.5155 70.2466L16.3662 70.0131L16.2338 69.7527L16.1175 69.465L16.0169 69.1502L15.9311 68.8079L15.8595 68.4381L15.8015 68.0409L15.7562 67.6162L15.723 67.1643L15.7012 66.6851L15.6899 66.179L15.6885 65.6461L15.6962 65.0867L15.7123 64.5012L15.7359 63.8899L15.7664 63.2532L15.8031 62.5918L15.8451 61.9059L15.8917 61.1963L15.9424 60.4636L15.9962 59.7083L16.231 56.4766L16.2914 55.6201L16.3512 54.7457L16.4099 53.8546L16.4671 52.9476L16.5222 52.0257L16.5747 51.0899L16.6242 50.1413L16.6703 49.181L16.7128 48.21L16.7511 47.2293L16.7851 46.2403L16.8144 45.2439L16.8389 44.2415L16.8584 43.234L16.8727 42.2227L16.8818 41.2088L16.8855 40.1935L16.8838 39.178L16.8768 38.1634L16.8645 37.151L16.847 36.142L16.8243 35.1374L16.7968 34.1386L16.7646 33.1467L16.7279 32.1627L16.687 31.1879L16.6422 30.2233L16.5939 29.2701L16.5425 28.3293L16.4883 27.402L16.4319 26.4893L16.3737 25.5919L16.3143 24.7111L16.2541 23.8477L16.1937 23.0025L15.9626 19.8217L15.9106 19.0802L15.8623 18.3617L15.8185 17.6668L15.7797 16.9959L15.7468 16.3498L15.7204 15.7288L15.7014 15.1334L15.6904 14.564L15.6883 14.021L15.6957 13.5046L15.7134 13.0151L15.7422 12.5528L15.7828 12.1177L15.8358 11.7101L15.9022 11.3298L15.9825 10.9771L16.0774 10.6517L16.1876 10.3537L16.3138 10.083L16.4566 9.83925L16.6166 9.62235L16.7944 9.43202L16.9906 9.26793L17.2057 9.12975L17.4402 9.01709L17.6945 8.92951L17.9692 8.86656L18.2646 8.8277L18.5811 8.81242L18.919 8.82014L19.2786 8.85023L19.6602 8.90208L20.0639 8.97501L20.49 9.06833L20.9386 9.18131L21.4097 9.31323L21.9034 9.4633L22.4197 9.63076L22.9585 9.8148L23.5198 10.0146L24.1033 10.2293L24.7089 10.4582L25.3364 10.7003L25.9855 10.9548L26.6558 11.2208L27.347 11.4976L28.0587 11.7841L30.3114 12.6942L31.0997 13.0116L31.9057 13.3345L32.7287 13.6623L33.5679 13.994L34.4227 14.329L35.2921 14.6664L36.1755 15.0054L37.0718 15.3455L37.9802 15.6859L38.8998 16.0258L39.8295 16.3648L40.7685 16.702L41.7156 17.037L42.6699 17.3692L43.6302 17.6981L44.5955 18.0232L45.5647 18.344L46.5365 18.66L47.51 18.971L48.484 19.2766L49.4572 19.5764L50.4286 19.8702L51.3969 20.1577L52.361 20.4388L53.3197 20.7133L54.2718 20.9811L55.2162 21.2421L56.1517 21.4962L57.0771 21.7435L57.9912 21.9841L58.8931 22.2179L59.7815 22.4451L60.6554 22.6659L61.5136 22.8805L62.3551 23.089L65.5342 23.8688L66.2774 24.0519L66.9981 24.231L67.6955 24.4067L68.3689 24.5793L69.0174 24.7495L69.6402 24.9176L70.2368 25.0844L70.8064 25.2502L71.3485 25.4158L71.8625 25.5817L72.3479 25.7486L72.8043 25.917L73.2311 26.0876L73.6281 26.2611L73.9949 26.4381L74.3312 26.6193L74.6369 26.8054L74.9118 26.9969L75.1557 27.1946L75.3686 27.3992L75.5505 27.6112L75.7013 27.8313L75.8213 28.0602L75.9104 28.2985L75.969 28.5468L75.9972 28.8056L75.9952 29.0756L75.9636 29.3573L75.9025 29.6512L75.8124 29.9579L75.6938 30.2779L75.5471 30.6115L75.373 30.9592L75.172 31.3215L74.9447 31.6986L74.6917 32.091L74.4139 32.4989L74.1118 32.9225L73.7863 33.3622L73.4382 33.8181L73.0682 34.2903L72.6772 34.7789L72.2661 35.2841L71.8358 35.8058L71.3871 36.3441L70.9211 36.8989L70.4385 37.47L68.3632 39.9147L67.8129 40.5647L67.2521 41.2296L66.6816 41.9089L66.1025 42.6022L65.5159 43.3091L64.9225 44.029L64.3235 44.7613L63.7197 45.5054L63.1122 46.2607L62.5018 47.0265L61.8894 47.802L61.2761 48.5866L60.6626 49.3794L60.0497 50.1796L59.4384 50.9863L58.8294 51.7987L58.2234 52.6158L57.6214 53.4367L57.0238 54.2605L56.4315 55.0862L55.845 55.9127L55.2651 56.7391L54.6922 57.5643L54.1269 58.3872L53.5697 59.2068L53.0211 60.022L52.4815 60.8318L51.9513 61.635L51.4308 62.4305L50.9204 63.2173L50.4202 63.9942L49.9306 64.7602L49.4517 65.5142L48.9836 66.2551L48.5264 66.9819L46.8076 69.7265L46.4052 70.367L46.0134 70.9874L45.6322 71.5865L45.2612 72.1637L44.9002 72.7179L44.549 73.2483L44.2072 73.7542L43.8744 74.2347L43.5503 74.6891L43.2345 75.1168L42.9266 75.5169L42.626 75.889L42.3322 76.2324L42.0449 76.5466L41.7633 76.8311L41.487 77.0855L41.2154 77.3093L40.948 77.5022L40.684 77.6639L40.4229 77.7942L40.1642 77.8928L39.907 77.9596L39.6509 77.9944L39.3952 77.9973L39.1391 77.9682L38.8822 77.9072L38.6238 77.8143L38.3632 77.6897L38.0998 77.5336L37.833 77.3463L37.5622 77.128L37.2868 76.8791L37.0062 76.6L36.7199 76.2911L36.4274 75.9529L36.1281 75.586L35.8215 75.1908L35.5071 74.7681L35.1846 74.3185L34.8534 73.8426L34.5133 73.3412L34.1637 72.8152L33.8045 72.2652L33.4354 71.6921L33.056 71.0968L32.6661 70.4802L32.2656 69.8433L30.5547 67.1111L30.0996 66.387L29.6334 65.6486L29.1564 64.8969L28.6687 64.133L28.1704 63.3579L27.6618 62.5728L27.1431 61.7788L26.6146 60.9769L26.0767 60.1683L25.5297 59.354L24.974 58.5351L24.4102 57.7127L23.8386 56.8878L23.2599 56.0616L22.6746 55.235L22.0832 54.4091L21.4866 53.5849L20.8853 52.7634L20.28 51.9455L19.6715 51.1322L19.0605 50.3244L18.4479 49.5229L17.8344 48.7288L17.2209 47.9427L16.6084 47.1654L15.9976 46.3978L15.3894 45.6406L14.7849 44.8944L14.185 44.1599L13.5905 43.4378L13.0026 42.7285L12.422 42.0327L11.85 41.3509L11.2873 40.6834L10.7351 40.0307L8.65001 37.5745L8.16463 37.0005L7.69553 36.4428L7.24367 35.9015L6.80996 35.3768L6.39533 34.8687L6.00067 34.377L5.62684 33.9019L5.2747 33.4431L4.94506 33.0005L4.63873 32.574L4.35647 32.1633L4.099 31.7681L3.86703 31.3883L3.66122 31.0234L3.48221 30.673L3.33058 30.3369L3.20688 30.0146L3.11163 29.7055L3.04528 29.4093L3.00826 29.1254L3.00096 28.8534L3.02369 28.5926L3.07676 28.3424L3.16039 28.1024L3.27478 27.8719L3.42007 27.6502L3.59635 27.4368L3.80366 27.2309L4.04199 27.032L4.3113 26.8394L4.61145 26.6524L4.94231 26.4704L5.30365 26.2927L5.69521 26.1186L6.11669 25.9475L6.56774 25.7787L7.04792 25.6117L7.55682 25.4456L8.09389 25.28L8.65862 25.1143L9.25039 24.9477L9.86858 24.7799L10.5125 24.6101L11.1814 24.438L11.8746 24.2629L12.5912 24.0844L13.3304 23.9021L16.4952 23.1259L17.3336 22.9184L18.1889 22.705L19.06 22.4853L19.9459 22.2593L20.8454 22.0267L21.7575 21.7873L22.6809 21.5413L23.6147 21.2883L24.5575 21.0286L25.5083 20.762L26.4659 20.4887L27.4291 20.2088L28.3968 19.9224L29.3677 19.6298L30.3407 19.331L31.3146 19.0265L32.2882 18.7164L33.2605 18.4012L34.2302 18.0813L35.1963 17.7569L36.1576 17.4287L37.113 17.0971L38.0615 16.7625L39.002 16.4256L39.9335 16.087L40.855 15.7471L41.7655 15.4068L42.6641 15.0666L43.5498 14.7273L44.4218 14.3895L45.2793 14.0541L46.1214 13.7217L46.9473 13.3932L47.7564 13.0693L48.548 12.7509L51.5263 11.5485L52.2212 11.2699L52.8953 11.0019L53.5483 10.7452L54.1797 10.5008L54.7893 10.2695L55.3768 10.0522L55.9421 9.84963L56.485 9.66269L57.0053 9.49219L57.5031 9.33893L57.9783 9.20369L58.4309 9.08724L58.861 8.99033L59.2688 8.91368L59.6543 8.85798L60.0179 8.82392L60.3597 8.81213L60.68 8.82323L60.9791 8.8578L61.2575 8.91638L61.5155 8.99949L61.7535 9.1076L61.9721 9.24115L62.1716 9.40054L62.3527 9.58613L62.5159 9.79822L62.6617 10.0371L62.7909 10.303L62.9039 10.5961L63.0015 10.9165L63.0844 11.2643L63.1532 11.6396L63.2086 12.0423L63.2514 12.4724L63.2822 12.9299L63.3019 13.4145L63.3111 13.926L63.3106 14.4643L63.3012 15.0289L63.2835 15.6197L63.2585 16.2361L63.2267 16.8778L63.1889 17.5442L63.1459 18.2348L63.0984 18.9492L63.047 19.6865L62.9926 20.4462L62.8172 22.8523L62.7568 23.6941L62.6965 24.5543L62.6369 25.4321L62.5784 26.3265L62.5216 27.2366L62.4671 28.1614L62.4151 29.0998L62.3662 30.0508L62.3208 31.0134L62.2792 31.9865L62.2417 32.9689L62.2087 33.9595L62.1803 34.9571L62.1567 35.9607L62.1383 36.9691L62.125 37.9809L62.117 38.9952L62.1144 40.0107L62.1172 41.0261L62.1252 42.0403L62.1386 43.0521L62.1572 44.0604L62.1808 45.0639L62.2093 46.0614L62.2425 47.0519L62.28 48.0341L62.3217 49.0069L62.3672 49.9693L62.4162 50.9201L62.4682 51.8582L62.5228 52.7827L62.5796 53.6924L62.6381 54.5865L62.6978 55.4639L62.7581 56.3237L62.8184 57.1651L62.9937 59.57L63.0481 60.3292L63.0994 61.0661L63.1468 61.7799L63.1898 62.47L63.2274 63.136L63.2591 63.7771L63.284 64.393L63.3015 64.9832L63.3107 65.5473L63.311 66.085L63.3016 66.596L63.2817 67.08L63.2506 67.5369L63.2076 67.9664L63.1519 68.3686L63.0828 68.7433L62.9997 69.0905L62.9017 69.4104L62.7883 69.7029L62.6589 69.9682L62.5126 70.2065L62.3491 70.418L62.1676 70.6031L61.9677 70.7619L61.7487 70.8949L61.5103 71.0025L61.2519 71.0851L60.9731 71.1432L60.6735 71.1772L60.3527 71.1879L60.0105 71.1756L59.6465 71.1411L59.2604 71.0849L58.8522 71.0078L58.4216 70.9105L57.9685 70.7937L57.4929 70.658L56.9946 70.5044L56.4738 70.3335L55.9304 70.1463L55.3647 69.9434L54.7767 69.7258L54.1666 69.4942L53.5348 69.2495L52.8814 68.9926L52.2068 68.7244L51.5115 68.4456L48.5316 67.2425L47.7396 66.9239L46.9302 66.5999L46.1039 66.2713L45.2614 65.9389L44.4037 65.6034L43.5313 65.2656L42.6453 64.9262L41.7465 64.586L40.8358 64.2457L39.9141 63.9059L38.9824 63.5673L38.0417 63.2304L37.0931 62.8959L36.1375 62.5644L35.1761 62.2362L34.2099 61.912L33.2401 61.5921L32.2678 61.277L31.2941 60.9671L30.3202 60.6627L29.3473 60.364L28.3764 60.0715L27.4089 59.7852L26.4458 59.5055L25.4883 59.2323L24.5377 58.9659L23.595 58.7063L22.6614 58.4535L21.7382 58.2076L20.8264 57.9684L19.9272 57.7359L19.0416 57.51L18.1708 57.2905L17.3158 57.0771L16.4778 56.8698L13.3146 56.0941L12.5759 55.9118L11.8598 55.7334L11.1671 55.5584L10.4987 55.3863L9.85533 55.2166L9.2377 55.0488L8.64649 54.8823L8.08233 54.7165L7.54584 54.5509L7.03755 54.3849L6.55797 54.2177L6.10754 54.0489L5.68668 53.8778L5.29575 53.7036L4.93505 53.5258L4.60484 53.3437L4.30533 53.1566L4.03668 52.9639L3.79899 52.7648L3.59233 52.5588L3.4167 52.3452L3.27206 52.1234L3.15832 51.8927L3.07533 51.6524L3.0229 51.4021L3.0008 51.141L3.00873 50.8687L3.04637 50.5846L3.11333 50.2881L3.20919 49.9788L3.33348 49.6562L3.48569 49.3197L3.66527 48.9691L3.87163 48.6039L4.10414 48.2237L4.36214 47.8283L4.64492 47.4172L4.95175 46.9904L5.28186 46.5475L5.63447 46.0883L6.00874 45.6128L6.40383 45.1208L6.81887 44.6123L7.25297 44.0873L7.7052 43.5457L8.17465 42.9876L8.66036 42.4132L10.7465 39.9558L11.299 39.3028L11.8619 38.635L12.4341 37.9528L13.0148 37.2567L13.6029 36.5472L14.1975 35.8248L14.7976 35.09L15.4022 34.3436L16.0104 33.5862L16.6212 32.8184L17.2338 32.0409L17.8473 31.2547L18.4607 30.4603L19.0733 29.6587L19.6843 28.8508L20.2927 28.0374L20.8979 27.2194L21.4992 26.3978L22.0957 25.5736L22.6869 24.7476L23.2721 23.9211L23.8507 23.0949L24.4221 22.27L24.9858 21.4477L25.5413 20.6289L26.0881 19.8147L26.6258 19.0062L27.1541 18.2044L27.6726 17.4106L28.181 16.6257L28.6791 15.8509L29.1666 15.0872L29.6433 14.3358L30.1092 13.5976L30.5642 12.8738L32.2741 10.1431L32.6744 9.5066L33.064 8.89046L33.4432 8.29564L33.8122 7.72305L34.1712 7.17355L34.5205 6.64798L34.8604 6.14714L35.1914 5.67182L35.5138 5.22273L35.828 4.80058L36.1344 4.40601L36.4336 4.03966L36.726 3.70208L37.0122 3.39381L37.2926 3.11533L37.5679 2.86708L37.8386 2.64944L38.1054 2.46277L38.3687 2.30735L38.6292 2.18344L38.8876 2.09123L39.1445 2.03085L39.4005 2.00242L39.6563 2.00597L39.9124 2.0415L40.1696 2.10896L40.4284 2.20822L40.6895 2.33915L40.9535 2.50153L41.2211 2.69511L41.4928 2.91957L41.7692 3.17457L42.0508 3.4597L42.3383 3.77452L42.6322 4.11854L42.933 4.49121L43.2411 4.89195L43.5571 5.32014L43.8813 5.77511L44.2142 6.25617L44.5563 6.76257L44.9077 7.29352L45.2689 7.84823L45.6401 8.42583L46.0216 9.02546L46.4136 9.64621L46.8162 10.2871L48.5359 13.0332L48.9933 13.7603L49.4616 14.5015L49.9408 15.2558L50.4306 16.022L50.931 16.7992L51.4416 17.5861L51.9623 18.3818L52.4928 19.1852L53.0326 19.995L53.5813 20.8103L54.1387 21.63L54.7041 22.453L55.2772 23.2782L55.8573 24.1046L56.4439 24.9311L57.0363 25.7568L57.634 26.5805L58.2361 27.4014L58.8421 28.2184L59.4512 29.0307L60.0626 29.8373L60.6754 30.6373L61.289 31.43L61.9023 32.2143L62.5146 32.9897L63.125 33.7553L63.7324 34.5103L64.3361 35.2542L64.935 35.9863L65.5282 36.7059L66.1148 37.4124L66.6937 38.1055L67.2639 38.7845L67.8246 39.4491L68.3746 40.0987L70.4488 42.5422L70.931 43.113L71.3967 43.6674L71.845 44.2053L72.2749 44.7267L72.6856 45.2315L73.0762 45.7198L73.4457 46.1917L73.7934 46.6472L74.1184 47.0865L74.42 47.5098L74.6973 47.9174L74.9497 48.3094L75.1765 48.6863L75.3769 49.0482L75.5505 49.3957L75.6965 49.729L75.8146 50.0486L75.904 50.3551L75.9645 50.6487L75.9956 50.9302L75.9969 51.1999L75.9681 51.4586L75.9089 51.7066L75.8191 51.9447L75.6985 52.1734L75.547 52.3934L75.3645 52.6052L75.1509 52.8096L74.9063 53.0072L74.6308 53.1986L74.3245 53.3845L73.9875 53.5656L73.62 53.7426L73.2224 53.916L72.795 54.0866L72.338 54.255L71.852 54.4218L71.3374 54.5877L70.7948 54.7533L70.2245 54.9191L69.6274 55.0859L69.004 55.2541L68.355 55.4243L67.6811 55.597L66.9832 55.7727L66.262 55.9519L65.5183 56.1351L63.1618 56.7124L62.3376 56.9153L61.4957 57.124L60.6372 57.3387L59.763 57.5596L58.8743 57.787L57.9722 58.0209L57.0577 58.2616L56.1321 58.509L55.1964 58.7633L54.2519 59.0245L53.2996 59.2924L52.3408 59.567L51.3766 59.8482L50.4082 60.1359L49.4368 60.4298L48.4635 60.7298L47.4896 61.0354L46.5161 61.3465L45.5443 61.6627L44.5752 61.9836L43.61 62.3087L42.6498 62.6377L41.6957 62.97L40.7487 63.305L39.8099 63.6423L38.8804 63.9813L37.961 64.3213L37.0528 64.6616L36.1568 65.0017L35.2737 65.3407L34.4046 65.6781L33.5502 66.013L32.7112 66.3447L31.8886 66.6723L31.083 66.9952L30.295 67.3124L28.0435 68.222L27.3323 68.5083L26.6416 68.7849L25.9717 69.0507L25.323 69.3049L24.696 69.5468L24.0908 69.7753L23.5077 69.9898L22.947 70.1892L22.4086 70.3729L21.8928 70.54L21.3996 70.6897L20.9289 70.8213L20.4808 70.9338L20.0552 71.0267L19.6519 71.0992L19.2708 71.1506L18.9117 71.1803L18.5742 71.1875L18.2582 71.1717L17.9632 71.1324L17.689 71.0689L17.435 70.9808L17.201 70.8676L16.9863 70.7289L16.7905 70.5643L16.6131 70.3734L16.4534 70.1559L16.311 69.9116L16.1851 69.6403L16.0752 69.3417L15.9806 69.0158L15.9006 68.6625L15.8346 68.2817L15.7818 67.8734L15.7415 67.4378L15.7129 66.9749L15.6954 66.4848L15.6882 65.9679L15.6906 65.4243L15.7017 64.8544L15.7209 64.2584L15.7474 63.6369L15.7805 62.9902L15.8193 62.3189L15.8633 61.6234L15.9117 60.9044L15.9637 60.1625L16.1949 56.9799L16.2553 56.1344L16.3155 55.2706L16.375 54.3894L16.4331 53.4917L16.4895 52.5786L16.5436 51.651L16.595 50.71L16.6432 49.7565L16.6879 48.7918L16.7287 47.8167L16.7653 46.8326L16.7974 45.8405L16.8249 44.8415L16.8474 43.8369L16.8648 42.8277L16.877 41.8153L16.8839 40.8007L16.8855 39.7852L16.8816 38.7699L16.8725 37.756L16.8581 36.7448L16.8385 35.7374L16.8138 34.7351L16.7844 33.7389L16.7503 32.75L16.7119 31.7696L16.6694 30.7987L16.6232 29.8386L16.5736 28.8903L16.521 27.9548L16.4659 27.0332L16.4087 26.1265L16.3499 25.2357L16.2901 24.3618L16.2298 23.5056L15.9951 20.2756L15.9413 19.5208L15.8907 18.7885L15.8441 18.0794L15.8022 17.3941L15.7657 16.7331L15.7354 16.097L15.7119 15.4863L15.696 14.9013L15.6885 14.3425L15.6901 13.8101L15.7015 13.3045L15.7236 12.826L15.757 12.3746L15.8026 11.9505L15.8609 11.5539L15.9327 11.1847L16.0188 10.843L16.1198 10.5286L16.2364 10.2416L16.3692 9.98173L16.5188 9.74883L16.6859 9.54264L16.8711 9.3629L17.0748 9.20928L17.2976 9.08141L17.54 8.97889L17.8025 8.90127L18.0855 8.84806L18.3893 8.81876L18.7144 8.81279L19.061 8.82958L19.4294 8.8685L19.8198 8.92891L20.2326 9.01012L20.6677 9.11144L21.1253 9.23212L21.6055 9.37143L22.1083 9.52859L22.6336 9.70281L23.1815 9.89329L23.7517 10.0992L24.3442 10.3197L24.9586 10.554L25.5949 10.8012L26.2525 11.0604L26.9313 11.3309L27.6308 11.6117L30.6262 12.8211L31.4217 13.1408L32.2346 13.4658L33.0642 13.7952L33.9098 14.1283L34.7706 14.4644L35.6457 14.8025L36.5344 15.1421L37.4357 15.4824L38.3487 15.8227L39.2725 16.1623L40.206 16.5006L41.1484 16.837L42.0985 17.171L43.0554 17.5019L44.0178 17.8293L44.9848 18.1527L45.9552 18.4716L46.9279 18.7857L47.9017 19.0946L48.8755 19.3978L49.8481 19.6953L50.8184 19.9866L51.7851 20.2715L52.7472 20.55L53.7034 20.8218L54.6525 21.0868L55.5935 21.3451L56.525 21.5965L57.4461 21.8411L58.3554 22.0789L59.252 22.31L60.1347 22.5347L61.0024 22.7529L61.854 22.965L62.6886 23.1712L65.8357 23.9429L66.5699 24.1244L67.2814 24.302L67.9692 24.4764L68.6327 24.648L69.2709 24.8173L69.8833 24.9848L70.4691 25.1511L71.0278 25.3168L71.5586 25.4824L72.0612 25.6486L72.5349 25.816L72.9795 25.9853L73.3943 26.157L73.7792 26.3318L74.1338 26.5104L74.4578 26.6935L74.7512 26.8817L75.0136 27.0756L75.245 27.276L75.4455 27.4835L75.6149 27.6987L75.7533 27.9223L75.8608 28.1549L75.9376 28.3971L75.984 28.6495L76 28.9128L75.9861 29.1874L75.9425 29.474L75.8697 29.773L75.7681 30.085L75.6381 30.4103L75.4804 30.7496L75.2954 31.1031L75.0837 31.4713L74.846 31.8546L74.583 32.2531L74.2953 32.6673L73.9837 33.0974L73.649 33.5435L73.292 34.006L72.9135 34.4848L72.5143 34.9801L72.0953 35.4919L71.6575 36.0203L71.2018 36.5652L70.729 37.1265L70.2401 37.7042L68.1433 40.1743L67.5886 40.8303L67.0238 41.501L66.4498 42.186L65.8675 42.8849L65.278 43.597L64.6823 44.322L64.0812 45.0591L63.4758 45.8078L62.867 46.5674L62.2557 47.3372L61.6429 48.1165L61.0294 48.9044L60.416 49.7003L59.8037 50.5032L59.1932 51.3123L58.5853 52.1267L57.9809 52.9455L57.3805 53.7677L56.785 54.5924L56.1949 55.4185L55.611 56.2451L55.0338 57.0711L54.4639 57.8955L53.9019 58.7172L53.3481 59.5352L52.803 60.3484L52.2672 61.1556L51.7408 61.9558L51.2243 62.748L50.718 63.5309L50.2221 64.3036L49.7367 65.0649L49.2621 65.8138L48.7984 66.5491L48.3457 67.2699L46.6445 69.9864L46.2464 70.6189L45.8589 71.2309L45.4818 71.8213L45.1148 72.3893L44.7578 72.9341L44.4104 73.4547L44.0723 73.9505L43.7431 74.4206L43.4224 74.8643L43.1098 75.281L42.8048 75.6699L42.5071 76.0305L42.216 76.3623L41.931 76.6646L41.6516 76.937L41.3773 77.1791L41.1074 77.3906L40.8414 77.571L40.5787 77.7201L40.3187 77.8376L40.0606 77.9235L39.8039 77.9774L39.5481 77.9994L39.2923 77.9895L39.036 77.9475L38.7785 77.8736L38.5193 77.768L38.2576 77.6307L37.993 77.4621L37.7246 77.2622L37.452 77.0316L37.1746 76.7705L36.8918 76.4794L36.6031 76.1586L36.3079 75.8088L36.0057 75.4305L35.696 75.0241L35.3784 74.5905L35.0525 74.1302L34.7177 73.644L34.3739 73.1326L34.0205 72.5968L33.6573 72.0375L33.2841 71.4554L32.9005 70.8514L32.5063 70.2265L32.1015 69.5816L30.373 66.8218L29.9134 66.0918L29.4429 65.3479L28.9616 64.5911L28.4696 63.8226L27.9672 63.0434L27.4545 62.2546L26.9318 61.4572L26.3995 60.6525L25.8578 59.8415L25.3073 59.0252L24.7483 58.2047L24.1812 57.3812L23.6067 56.5557L23.0253 55.7292L22.4375 54.9028L21.8439 54.0774L21.2453 53.2542L20.6423 52.434L20.0356 51.6178L19.426 50.8066L18.8143 50.0013L18.2012 49.2027L17.5877 48.4117L16.9745 47.629L16.3625 46.8556L15.7527 46.0921L15.1459 45.3392L14.5431 44.5976L13.9452 43.8681L13.3533 43.151L12.7682 42.4471L12.1909 41.7569L11.6225 41.0807L11.0639 40.4191L10.5162 39.7725L8.9476 37.9255L8.45294 37.3418L7.97399 36.7743L7.51171 36.2232L7.06704 35.6886L6.6409 35.1705L6.23419 34.669L5.8478 34.184L5.48259 33.7154L5.1394 33.2632L4.81904 32.8271L4.5223 32.407L4.24992 32.0025L4.00262 31.6136L3.78109 31.2398L3.58599 30.8808L3.41792 30.5362L3.27746 30.2057L3.16513 29.8887L3.08145 29.5849L3.02685 29.2937L3.00173 29.0147L3.00647 28.7472L3.04137 28.4907L3.1067 28.2447L3.20268 28.0086L3.32948 27.7817L3.48722 27.5634L3.67598 27.3531L3.89577 27.1502L4.14656 26.9539L4.42829 26.7636L4.74081 26.5787L5.08395 26.3985L5.45748 26.2223L5.86111 26.0495L6.29452 25.8794L6.75734 25.7114L7.24913 25.5448L7.76941 25.379L8.31768 25.2134L8.89335 25.0474L9.49583 24.8804L10.1244 24.7119L10.7785 24.5412L11.4573 24.368L12.1599 24.1916L12.8857 24.0116L16.0024 23.2472L16.8302 23.0432L17.6756 22.8333L18.5373 22.6174L19.4145 22.3952L20.306 22.1665L21.2107 21.9312L22.1275 21.6892L23.0552 21.4404L23.9928 21.1847L24.939 20.9222L25.8926 20.6529L26.8526 20.377L27.8178 20.0944L28.7869 19.8055L29.7587 19.5103L30.7322 19.2092L31.7062 18.9024L32.6794 18.5903L33.6508 18.2731L34.6192 17.9514L35.5835 17.6254L36.5426 17.2957L37.4953 16.9629L38.4407 16.6273L39.3777 16.2896L40.3053 15.9504L41.2225 15.6103L42.1283 15.27L43.0218 14.93L43.9021 14.5913L44.7684 14.2543L45.6198 13.92L46.4555 13.5891L47.2747 13.2624L48.0769 12.9406L51.1011 11.7197L51.8082 11.4352L52.4948 11.1608L53.1604 10.8973L53.8048 10.6454L54.4274 10.4062L55.0282 10.1804L55.6068 9.96892L56.1631 9.77254L56.6969 9.59212L57.2082 9.42845L57.6969 9.28234L58.163 9.15456L58.6065 9.04588L59.0276 8.95703L59.4265 8.88872L59.8031 8.84165L60.1579 8.81647L60.491 8.81381L60.8028 8.83427L61.0936 8.87843L61.3637 8.94682L61.6136 9.03993L61.8437 9.15822L62.0546 9.30212L62.2466 9.472L62.4204 9.66821L62.5766 9.89104L62.7156 10.1408L62.8382 10.4176L62.945 10.7216L63.0366 11.053L63.1137 11.4119L63.177 11.7982L63.2273 12.212L63.2652 12.6531L63.2914 13.1215L63.3068 13.6169L63.312 14.1393L63.3078 14.6882L63.295 15.2634L63.2743 15.8645L63.2464 16.4911L63.2122 17.1428L63.1722 17.819L63.1273 18.5193L63.0782 19.2429L63.0255 19.9893L62.7929 23.1885L62.7325 24.0378L62.6724 24.9052L62.6132 25.7898L62.5554 26.6906L62.4994 27.6067L62.4458 28.5371L62.3951 29.4807L62.3475 30.4366L62.3036 31.4035L62.2636 32.3804L62.2279 33.3663L62.1967 34.3598L62.1702 35.36L62.1487 36.3657L62.1323 37.3756L62.1212 38.3886L62.1153 39.4035L62.1149 40.419L62.1198 41.4341L62.13 42.4475L62.1455 43.458L62.1661 44.4645L62.1917 45.4658L62.2221 46.4606L62.257 47.4479L62.2963 48.4264L62.3396 49.3952L62.3865 50.353L62.4367 51.2989L62.4899 52.2316L62.5454 53.1503L62.603 54.0539L62.662 54.9414L62.722 55.8118L62.7824 56.6643L63.016 59.8779L63.0692 60.6282L63.119 61.3559L63.1647 62.0603L63.2056 62.7408L63.2409 63.3968L63.2699 64.0278L63.292 64.6334L63.3062 65.2132L63.312 65.7667L63.3084 66.2937L63.2949 66.7939L63.2706 67.267L63.2348 67.7129L63.1868 68.1314L63.1258 68.5226L63.0511 68.8862L62.9621 69.2224L62.858 69.5313L62.7382 69.8128L62.6021 70.0673L62.449 70.2948L62.2783 70.4956L62.0895 70.6701L61.882 70.8185L61.6552 70.9412L61.4088 71.0387L61.1423 71.1114L60.8551 71.1597L60.5471 71.1843L60.2177 71.1856L59.8667 71.1644L59.4939 71.121L59.099 71.0564L58.6818 70.9711L58.2421 70.8658L57.78 70.7413L57.2952 70.5984L56.7879 70.4377L56.258 70.2602L55.7056 70.0665L55.1309 69.8576L54.534 69.6343L53.9152 69.3973L53.2746 69.1476L52.6127 68.8861L51.9297 68.6135L51.2262 68.3307L48.2153 67.1151L47.4162 66.7943L46.5999 66.4683L45.767 66.1381L44.9183 65.8043L44.0546 65.4678L43.1767 65.1293L42.2854 64.7895L41.3817 64.4492L40.4664 64.109L39.5406 63.7696L38.6052 63.4316L37.6612 63.0956L36.7096 62.7622L35.7515 62.432L34.7881 62.1053L33.8203 61.7828L32.8494 61.4648L31.8764 61.1518L30.9025 60.844L29.9288 60.5419L28.9566 60.2457L27.9869 59.9556L27.021 59.6719L26.06 59.3948L25.1052 59.1244L24.1576 58.8607L23.2184 58.6038L22.2889 58.3538L21.3701 58.1106L20.4632 57.8741L19.5694 57.6443L18.6896 57.421L17.8251 57.2039L16.9768 56.9931L16.1458 56.788L13.0149 56.0203L12.2852 55.8396L11.5784 55.6626L10.8954 55.4889L10.237 55.3178L9.60385 55.1489L8.99676 54.9817L8.41635 54.8155L7.86326 54.6499L7.33804 54.4842L6.84123 54.3178L6.37332 54.1501L5.93474 53.9804L5.52587 53.8081L5.14706 53.6326L4.79859 53.4531L4.4807 53.2691L4.19359 53.0798L3.93738 52.8846L3.71216 52.6829L3.51798 52.4739L3.35482 52.2571L3.22262 52.0317L3.12126 51.7972L3.05059 51.553L3.01039 51.2984L3.0004 51.0329L3.02032 50.7559L3.06979 50.4669L3.14843 50.1653L3.25578 49.8507L3.39135 49.5226L3.55464 49.1805L3.74506 48.824L3.96202 48.4528L4.20486 48.0666L4.4729 47.6649L4.76544 47.2475L5.08173 46.8142L5.42099 46.3648L5.78241 45.8991L6.16515 45.417L6.56837 44.9184L6.99118 44.4032L7.43268 43.8715L7.89195 43.3233L8.36805 42.7586L8.86004 42.1777L10.9674 39.695L11.5241 39.036L12.0909 38.3624L12.6667 37.6745L13.2505 36.973L13.8413 36.2582L14.4382 35.5308L15.0402 34.7913L15.6463 34.0403L16.2557 33.2786L16.8674 32.5069L17.4804 31.7258L18.094 30.9362L18.7072 30.1388L19.3192 29.3346L19.9293 28.5243L20.5365 27.709L21.1402 26.8894L21.7396 26.0667L22.3341 25.2416L22.923 24.4153L23.5056 23.5887L24.0813 22.763L24.6497 21.939L25.2101 21.118L25.7622 20.3009L26.3054 19.4888L26.8394 18.6829L27.3638 17.8842L27.8783 17.0939L28.3825 16.3129L28.8764 15.5424L29.3596 14.7835L29.832 14.0373L30.2935 13.3048L30.744 12.5871L32.0296 10.5331L32.4364 9.8848L32.8323 9.25635L33.2178 8.64867L33.5928 8.06269L33.9577 7.49927L34.3128 6.95929L34.6583 6.44357L34.9946 5.95291L35.3221 5.48804L35.6411 5.0497L35.9521 4.63857L36.2556 4.25528L36.552 3.90043L36.8418 3.57458L37.1256 3.27823L37.4039 3.01185L37.6773 2.77587L37.9463 2.57065L38.2116 2.39651L38.4738 2.25373L38.7334 2.14254L38.9911 2.06312L39.2475 2.01558L39.5034 2L39.7592 2.01642L40.0157 2.06479L40.2734 2.14505L40.5331 2.25707L40.7953 2.40068L41.0607 2.57563L41.3298 2.78167L41.6033 3.01846L41.8818 3.28562L42.1657 3.58275L42.4557 3.90937L42.7523 4.26497L43.056 4.649L43.3672 5.06086L43.6864 5.4999L44.0141 5.96545L44.3507 6.45679L44.6964 6.97315L45.0517 7.51376L45.4169 8.07777L45.7922 8.66434L46.1779 9.27257L46.5742 9.90156L46.9812 10.5503L48.2677 12.6057L48.7185 13.3238L49.1803 14.0567L49.653 14.8033L50.1364 15.5625L50.6306 16.3332L51.1351 17.1145L51.6498 17.9051L52.1745 18.704L52.7087 19.5101L53.2522 20.3223L53.8044 21.1395L54.3651 21.9606L54.9337 22.7846L55.5096 23.6104L56.0924 24.437L56.6814 25.2633L57.276 26.0883L57.8756 26.911L58.4794 27.7304L59.0867 28.5457L59.6968 29.3558L60.3089 30.1598L60.9221 30.957L61.5357 31.7464L62.1487 32.5272L62.7603 33.2987L63.3696 34.0602L63.9757 34.8108L64.5775 35.55L65.1743 36.2771L65.7649 36.9916L66.3485 37.6928L66.9241 38.3802L67.4906 39.0535L68.0471 39.7121L70.1531 42.1931L70.6446 42.7737L71.1203 43.3379L71.5791 43.8856L72.0201 44.4169L72.4425 44.9317L72.8451 45.4298L73.2273 45.9115L73.5882 46.3768L73.9269 46.8258L74.2425 47.2587L74.5344 47.6756L74.8018 48.0769L75.044 48.4628L75.2603 48.8336L75.45 49.1896L75.6125 49.5314L75.7474 49.8591L75.854 50.1734L75.9319 50.4747L75.9806 50.7634L75.9997 51.04L75.9889 51.3052L75.9479 51.5595L75.8765 51.8035L75.7743 52.0377L75.6413 52.2628L75.4773 52.4795L75.2823 52.6883L75.0563 52.8898L74.7993 53.0849L74.5113 53.274L74.1926 53.4579L73.8434 53.6372L73.4638 53.8127L73.0541 53.9849L72.6148 54.1545L72.1461 54.3222L71.6485 54.4886L71.1226 54.6543L70.5688 54.8199L69.9876 54.986L69.3799 55.1533L68.7461 55.3222L68.087 55.4934L67.4034 55.6672L66.696 55.8443L65.9656 56.0251L62.8326 56.7933L62.0012 56.9985L61.1525 57.2096L60.2875 57.4267L59.4073 57.6502L58.5131 57.8802L57.6059 58.1169L56.6868 58.3603L55.757 58.6105L54.8177 58.8675L53.8699 59.1314L52.9148 59.402L51.9537 59.6793L50.9877 59.9631L50.0179 60.2534L49.0456 60.5497L48.0719 60.852L47.098 61.1599L46.1251 61.4731L45.1542 61.7912L44.1866 62.1139L43.2232 62.4406L42.2653 62.7709L41.314 63.1044L40.3702 63.4404L39.435 63.7785L38.5094 64.1179L37.5944 64.4581L36.691 64.7984L35.8001 65.1382L34.9225 65.4766L34.0592 65.8131L33.2109 66.1468L32.3785 66.4769L31.5626 66.8028L30.764 67.1234L27.7551 68.3383L27.0521 68.6208L26.3697 68.8931L25.7083 69.1544L25.0683 69.4037L24.45 69.6403L23.8537 69.8633L23.2796 70.0718L22.7278 70.265L22.1985 70.4422L21.6918 70.6024L21.2076 70.7449L20.746 70.8689L20.307 70.9736L19.8904 71.0584L19.496 71.1225L19.1238 71.1652L18.7734 71.1859L18.4446 71.184L18.1371 71.1588L17.8505 71.1098L17.5845 71.0365L17.3386 70.9383L17.1123 70.8149L16.9053 70.6658L16.717 70.4907L16.5468 70.2891L16.3941 70.0609L16.2584 69.8058L16.139 69.5235L16.0354 69.214L15.9467 68.877L15.8725 68.5127L15.8118 68.1208L15.7641 67.7015L15.7286 67.2549L15.7046 66.7811L15.6913 66.2802L15.6881 65.7525L15.6941 65.1983L15.7085 64.6179L15.7307 64.0116L15.76 63.3799L15.7954 62.7232L15.8365 62.0421L15.8823 61.3371L15.9322 60.6088L15.9855 59.8579L16.2192 56.6422L16.2796 55.7892L16.3395 54.9183L16.3985 54.0304L16.456 53.1264L16.5116 52.2073L16.5646 51.2742L16.6147 50.328L16.6616 49.3699L16.7048 48.4009L16.7439 47.4221L16.7788 46.4346L16.809 45.4396L16.8345 44.4382L16.855 43.4316L16.8703 42.421L16.8804 41.4075L16.8852 40.3924L16.8846 39.3768L16.8786 38.362L16.8673 37.349L16.8508 36.3392L16.8292 35.3337L16.8026 34.3337L16.7712 33.3403L16.7354 32.3547L16.6953 31.378L16.6513 30.4113L16.6036 29.4558L16.5528 28.5125L16.4991 27.5825L16.4431 26.6668L16.3852 25.7664L16.326 24.8822L16.2659 24.0153L16.2055 23.1665L15.9731 19.9695L15.9205 19.2236L15.8715 18.5006L15.8267 17.801L15.7869 17.1254L15.7527 16.4743L15.725 15.8484L15.7045 15.2479L15.6919 14.6734L15.688 14.1252L15.6935 13.6036L15.7091 13.1088L15.7357 12.6412L15.7739 12.2008L15.8244 11.7877L15.8881 11.4021L15.9656 11.044L16.0576 10.7133L16.1648 10.4099L16.2878 10.1339L16.4273 9.88485L16.5839 9.66272L16.7582 9.46721L16.9507 9.29801L17.1621 9.15479L17.3927 9.03716L17.6431 8.94471L17.9138 8.87697L18.2051 8.83344L18.5174 8.81359L18.8511 8.81684L19.2065 8.84261L19.5837 8.89025L19.9831 8.95911L20.4048 9.04848L20.849 9.15768L21.3157 9.28594L21.8049 9.43252L22.3168 9.59664L22.8512 9.77749L23.4081 9.97428L23.9873 10.1862L24.5886 10.4123L25.2119 10.6519L25.8567 10.904L26.5229 11.1679L27.2101 11.4426L27.9178 11.7273L30.944 12.949L31.7465 13.2709L32.5662 13.5978L33.4024 13.9288L34.2541 14.2632L35.1208 14.6001L36.0015 14.939L36.8953 15.2789L37.8014 15.6192L38.7189 15.9593L39.6467 16.2985L40.584 16.6361L41.5296 16.9716L42.4825 17.3044L43.4417 17.634L44.4062 17.9599L45.3746 18.2815L46.3461 18.5985L47.3194 18.9106L48.2933 19.2172L49.2668 19.5182L50.2386 19.8132L51.2076 20.1019L52.1726 20.3843L53.1325 20.6601L54.086 20.9292L55.0319 21.1915L55.9692 21.447L56.8967 21.6956L57.8132 21.9375L58.7175 22.1726L59.6087 22.4011L60.4855 22.6232L61.3468 22.8389L62.1917 23.0486L63.0191 23.2525L65.3861 23.8324L66.1336 24.0163L66.8588 24.1962L67.5608 24.3725L68.239 24.5457L68.8924 24.7163L69.5203 24.8848L70.1221 25.0518L70.6971 25.2178L71.2446 25.3834L71.7641 25.5492L72.2552 25.7158L72.7172 25.8838L73.1499 26.054L73.5527 26.2269L73.9254 26.4032L74.2678 26.5835L74.5795 26.7685L74.8604 26.9589L75.1104 27.1554L75.3294 27.3585L75.5173 27.569L75.6742 27.7875L75.8002 28.0147L75.8954 28.2511L75.9599 28.4973L75.994 28.7541L75.998 29.0218L75.9721 29.3012L75.9167 29.5927L75.8323 29.8969L75.7192 30.2142L75.578 30.5451L75.4092 30.89L75.2134 31.2494L74.9912 31.6236L74.7432 32.013L74.4702 32.4178L74.1728 32.8383L73.8519 33.2748L73.5081 33.7275L73.1423 34.1965L72.7554 34.6819L72.3482 35.1839L71.9215 35.7024L71.4764 36.2374L71.0136 36.7889L70.5343 37.3569L70.0392 37.9411L68.4696 39.7892L67.9215 40.4363L67.3627 41.0983L66.794 41.7748L66.2166 42.4654L65.6313 43.1697L65.0392 43.887L64.4412 44.6169L63.8382 45.3588L63.2314 46.112L62.6215 46.8757L62.0095 47.6494L61.3962 48.4323L60.7827 49.2235L60.1696 50.0223L59.5579 50.8279L58.9484 51.6392L58.3418 52.4555L57.7389 53.2758L57.1404 54.0991L56.547 54.9244L55.9594 55.7509L55.3781 56.5774L54.8038 57.4029L54.237 58.2263L53.6782 59.0467L53.1278 59.8628L52.5865 60.6737L52.0544 61.4783L51.532 62.2754L51.0195 63.064L50.5173 63.8429L50.0256 64.6111L49.5446 65.3676L49.0744 66.1111L48.615 66.8407L46.8877 69.5988L46.4832 70.2432L46.0893 70.8675L45.706 71.4709L45.333 72.0524L44.9701 72.6112L44.617 73.1464L44.2734 73.6571L43.9389 74.1427L43.6131 74.6022L43.2958 75.0352L42.9863 75.4407L42.6843 75.8184L42.3892 76.1674L42.1007 76.4874L41.818 76.7777L41.5407 77.038L41.2683 77.2679L41 77.4669L40.7354 77.6347L40.4739 77.7712L40.2147 77.876L39.9573 77.949L39.701 77.9901L39.4452 77.9993L39.1893 77.9764L38.9326 77.9216L38.6745 77.835L38.4144 77.7166L38.1516 77.5667L37.8855 77.3854L37.6156 77.1732L37.3411 76.9303L37.0616 76.657L36.7765 76.3539L36.4852 76.0215L36.1872 75.6601L35.8821 75.2704L35.5693 74.853L35.2484 74.4086L34.9189 73.9378L34.5806 73.4414L34.2329 72.9201L33.8756 72.3747L33.5085 71.8061L33.1311 71.2151L32.7433 70.6026L32.3449 69.9696L30.6426 67.2511L30.1896 66.53L29.7256 65.7943L29.2507 65.0451L28.7651 64.2834L28.2688 63.5105L27.7622 62.7273L27.2455 61.9349L26.7189 61.1345L26.1828 60.3271L25.6375 59.5138L25.0835 58.6957L24.5212 57.8739L23.9511 57.0495L23.3737 56.2234L22.7896 55.3968L22.1995 54.5707L21.6038 53.7461L21.0033 52.924L20.3988 52.1053L19.7908 51.291L19.1803 50.4821L18.5679 49.6793L17.9545 48.8837L17.341 48.0959L16.7282 47.3169L16.117 46.5473L15.5083 45.788L14.903 45.0396L14.302 44.3028L13.7064 43.5782L13.1171 42.8664L12.5351 42.1679L11.9613 41.4832L11.3967 40.8129L10.8423 40.1573L8.74687 37.6889L8.25841 37.1116L7.78605 36.5507L7.33074 36.0062L6.89341 35.4783L6.47497 34.9669L6.07633 34.472L5.69835 33.9936L5.3419 33.5316L5.0078 33.0859L4.69684 32.6562L4.4098 32.2425L4.14742 31.8443L3.91041 31.4615L3.69943 31.0937L3.51512 30.7405L3.35809 30.4016L3.22888 30.0766L3.12801 29.765L3.05597 29.4663L3.01318 29.1801L3.00003 28.9057L3.01686 28.6428L3.06397 28.3906L3.1416 28.1486L3.24996 27.9163L3.38918 27.6929L3.55939 27.4779L3.76062 27.2707L3.99289 27.0705L4.25613 26.8767L4.55026 26.6886L4.87512 26.5057L5.2305 26.3272L5.61618 26.1524L6.03183 25.9808L6.47711 25.8116L6.95163 25.6443L7.45494 25.4781L7.98654 25.3125L8.54589 25.1468L9.13242 24.9804L9.74549 24.8129L10.3844 24.6435L11.0485 24.4719L11.737 24.2974L12.4491 24.1196L13.1839 23.9381L16.3331 23.1659L17.1681 22.9595L18.0202 22.7473L18.8883 22.5288L19.7713 22.3041L20.6683 22.0727L21.5779 21.8347L22.4993 21.59L23.4311 21.3384L24.3723 21.08L25.3216 20.8148L26.278 20.5428L27.2402 20.2642L28.207 19.979L29.1774 19.6875L30.1501 19.39L31.1239 19.0865L32.0977 18.7775L33.0703 18.4633L34.0406 18.1443L35.0075 17.8208L35.9698 17.4933L36.9265 17.1623L37.8764 16.8282L38.8186 16.4917L39.7519 16.1534L40.6754 15.8137L41.5881 15.4735L42.4891 15.1332L43.3774 14.7936L44.2522 14.4555L45.1126 14.1196L45.9577 13.7865L46.7869 13.4572L47.5994 13.1323L48.3944 12.8128L51.3878 11.6042L52.0868 11.3236L52.765 11.0535L53.4221 10.7945L54.0577 10.5477L54.6716 10.3137L55.2635 10.0936L55.8332 9.88809L56.3804 9.69803L56.9052 9.52425L57.4074 9.36755L57.887 9.22871L58.344 9.10853L58.7785 9.00773L59.1907 8.92706L59.5806 8.8672L59.9484 8.82886L60.2944 8.81265L60.6189 8.81923L60.9222 8.84915L61.2046 8.90299L61.4666 8.98126L61.7085 9.08444L61.9308 9.21298L62.134 9.36728L62.3187 9.54771L62.4853 9.75459L62.6345 9.98821L62.7669 10.2488L62.883 10.5365L62.9836 10.8516L63.0693 11.194L63.1408 11.5639L63.1988 11.9613L63.244 12.3861L63.2771 12.8382L63.2989 13.3175L63.3101 13.8237L63.3114 14.3568L63.3037 14.9163L63.2876 15.502L63.2639 16.1134L63.2334 16.7502L63.1967 17.4118L63.1547 18.0977L63.108 18.8075L63.0574 19.5403L63.0035 20.2957L62.7687 23.5278L62.7083 24.3845L62.6485 25.2589L62.5898 26.1501L62.5326 27.0572L62.4776 27.9792L62.4251 28.915L62.3756 29.8637L62.3294 30.8241L62.287 31.7952L62.2487 32.7758L62.2148 33.7649L62.1854 34.7613L62.161 35.7638L62.1415 36.7713L62.1272 37.7826L62.1182 38.7965L62.1145 39.8118" stroke="#F05555" stroke-width="2"/>
</svg>
