<svg width="120" height="120" viewBox="0 0 120 120" fill="none" xmlns="http://www.w3.org/2000/svg">
<g clip-path="url(#clip0_1233_10884)">
<path d="M17.6106 34.0359L17.5768 34.0926L17.545 34.1506L17.5153 34.2099L17.4876 34.2705L17.462 34.3323L17.4384 34.3954L17.4169 34.4598L17.3974 34.5254L17.3799 34.5923L17.3644 34.6606L17.351 34.7301L17.3396 34.8008L17.3303 34.8729L17.3229 34.9462L17.3176 35.0208L17.3143 35.0967L17.3131 35.1739L17.3138 35.2524L17.3165 35.3321L17.3213 35.4132L17.3281 35.4955L17.3369 35.5791L17.3477 35.664L17.3604 35.7502L17.3752 35.8376L17.392 35.9264L17.4107 36.0164L17.4315 36.1077L17.4542 36.2003L17.4789 36.2942L17.5056 36.3893L17.5342 36.4858L17.5649 36.5835L17.5974 36.6825L17.632 36.7828L17.6685 36.8843L17.7069 36.9872L17.7473 37.0913L17.7896 37.1967L17.8339 37.3033L17.8801 37.4113L17.9282 37.5205L17.9783 37.6309L18.0302 37.7427L18.0841 37.8557L18.1399 37.97L18.1976 38.0855L18.2572 38.2023L18.3186 38.3204L18.382 38.4397L18.4472 38.5602L18.5143 38.6821L18.5833 38.8052L18.6542 38.9295L18.7269 39.0551L18.8014 39.1819L18.8778 39.3099L18.9561 39.4393L19.0361 39.5698L19.118 39.7016L19.2018 39.8346L19.2873 39.9688L19.3746 40.1043L19.4638 40.241L19.5547 40.3789L19.6474 40.518L19.7419 40.6584L19.8382 40.7999L19.9362 40.9427L20.036 41.0867L20.1376 41.2318L20.2409 41.3782L20.3459 41.5258L20.4527 41.6745L20.5612 41.8245L20.6714 41.9756L20.7833 42.1279L20.8969 42.2814L21.0122 42.4361L21.1292 42.5919L21.2478 42.7489L21.3681 42.907L21.4901 43.0663L21.6138 43.2268L21.739 43.3884L21.8659 43.5511L21.9945 43.715L22.1246 43.88L22.2564 44.0462L22.3898 44.2134L22.5247 44.3818L22.6613 44.5513L22.7994 44.7219L22.9391 44.8936L23.0803 45.0664L23.2231 45.2403L23.3674 45.4153L23.5133 45.5914L23.6607 45.7685L23.8096 45.9468L23.9599 46.126L24.1118 46.3064L24.2652 46.4878L24.42 46.6702L24.5763 46.8538L24.7341 47.0383L24.8933 47.2238L25.054 47.4104L25.216 47.598L25.3795 47.7867L25.5444 47.9763L25.7107 48.1669L25.8784 48.3586L26.0474 48.5512L26.2178 48.7448L26.3896 48.9394L26.5627 49.1349L26.7372 49.3314L26.913 49.5289L27.09 49.7273L27.2684 49.9266L27.4481 50.1269L27.6291 50.3281L27.8114 50.5302L27.9949 50.7333L28.1796 50.9372L28.3656 51.142L28.5529 51.3478L28.7413 51.5544L28.931 51.7619L29.1219 51.9703L29.3139 52.1795L29.5071 52.3896L72.504 94.904L72.7161 95.0946L72.9273 95.2841L73.1376 95.4724L73.347 95.6595L73.5555 95.8454L73.7632 96.03L73.9699 96.2135L74.1757 96.3957L74.3806 96.5767L74.5846 96.7564L74.7876 96.9349L74.9897 97.1121L75.1909 97.288L75.3911 97.4626L75.5903 97.6359L75.7885 97.8079L75.9858 97.9785L76.1821 98.1478L76.3774 98.3158L76.5717 98.4824L76.765 98.6477L76.9573 98.8116L77.1486 98.974L77.3388 99.1351L77.528 99.2948L77.7162 99.4531L77.9033 99.6099L78.0894 99.7653L78.2744 99.9193L78.4584 100.072L78.6413 100.223L78.8231 100.372L79.0039 100.52L79.1836 100.667L79.3621 100.812L79.5396 100.956L79.716 101.098L79.8913 101.238L80.0654 101.377L80.2385 101.515L80.4104 101.651L80.5812 101.785L80.7509 101.918L80.9194 102.049L81.0868 102.179L81.253 102.306L81.4181 102.433L81.582 102.558L81.7448 102.681L81.9064 102.802L82.0668 102.922L82.2261 103.04L82.3842 103.157L82.541 103.272L82.6968 103.385L82.8513 103.497L83.0046 103.607L83.1567 103.715L83.3076 103.821L83.4573 103.926L83.6058 104.029L83.7531 104.13L83.8992 104.23L84.044 104.328L84.1876 104.424L84.33 104.518L84.4712 104.611L84.6111 104.702L84.7498 104.791L84.8872 104.878L85.0234 104.963L85.1584 105.047L85.2921 105.129L85.4245 105.209L85.5557 105.287L85.6857 105.364L85.8143 105.438L85.9417 105.511L86.0679 105.582L86.1928 105.651L86.3164 105.718L86.4387 105.784L86.5597 105.847L86.6795 105.909L86.798 105.969L86.9152 106.026L87.0311 106.083L87.1458 106.137L87.2592 106.189L87.3712 106.239L87.482 106.288L87.5915 106.334L87.6997 106.379L87.8066 106.421L87.9122 106.462L88.0165 106.501L88.1195 106.538L88.2212 106.573L88.3217 106.606L88.4208 106.637L88.5186 106.666L88.6151 106.693L88.7103 106.719L88.8042 106.742L88.8968 106.763L88.9881 106.783L89.0781 106.8L89.1667 106.815L89.2541 106.829L89.3402 106.84L89.4249 106.85L89.5084 106.857L89.5905 106.863L89.6714 106.866L89.7509 106.868L89.8291 106.867L89.9061 106.865L89.9817 106.86L90.056 106.853L90.129 106.845L90.2007 106.834L90.2711 106.822L90.3402 106.807L90.408 106.791L90.4745 106.772L90.5397 106.751L90.6036 106.729L90.6662 106.704L90.7274 106.677L90.7874 106.649L90.8461 106.618L90.9035 106.585L90.9597 106.55L91.0145 106.513L91.068 106.475L91.1203 106.434L91.1712 106.391L91.2209 106.346L91.2693 106.299L91.3164 106.25L91.3622 106.199L91.4067 106.145L91.45 106.09L91.492 106.033L91.5327 105.974L91.5722 105.913L91.6103 105.849L91.6473 105.784L91.6829 105.717L91.7173 105.647L91.7504 105.576L91.7823 105.502L91.8129 105.427L91.8423 105.349L91.8704 105.27L91.8973 105.188L91.9229 105.105L91.9473 105.019L91.9705 104.932L91.9924 104.842L92.0131 104.75L92.0325 104.657L92.0508 104.561L92.0678 104.463L92.0836 104.364L92.0981 104.262L92.1115 104.158L92.1236 104.052L92.1346 103.945L92.1443 103.835L92.1529 103.723L92.1602 103.61L92.1664 103.494L92.1714 103.376L92.1751 103.257L92.1778 103.135L92.1792 103.011L92.1794 102.886L92.1785 102.758L92.1764 102.629L92.1732 102.497L92.1688 102.364L92.1633 102.229L92.1566 102.091L92.1487 101.952L92.1398 101.811L92.1296 101.668L92.1184 101.523L92.106 101.376L92.0925 101.227L92.0779 101.076L92.0622 100.923L92.0453 100.769L92.0274 100.612L92.0083 100.454L91.9882 100.294L91.967 100.131L91.9447 99.9674L91.9213 99.8015L91.8968 99.6337L91.8713 99.4641L91.8447 99.2926L91.817 99.1192L91.7883 98.944L91.7585 98.767L91.7277 98.5882L91.6958 98.4075L91.6629 98.225L91.629 98.0407L91.594 97.8546L91.5581 97.6667L91.5211 97.477L91.4831 97.2856L91.4441 97.0923L91.4041 96.8973L91.3631 96.7006L91.3211 96.5021L91.2781 96.3018L91.2342 96.0998L91.1893 95.8961L91.1434 95.6906L91.0966 95.4835L91.0488 95.2746L91.0001 95.0641L90.9504 94.8518L90.8998 94.6379L90.8482 94.4223L90.7958 94.205L90.7424 93.9861L90.6881 93.7656L90.6328 93.5434L90.5767 93.3195L90.5197 93.0941L90.4618 92.867L90.403 92.6384L90.3434 92.4081L90.2828 92.1763L90.2214 91.9429L90.1592 91.7079L90.0961 91.4714L90.0321 91.2333L89.9673 90.9937L89.9017 90.7526L89.8352 90.51L89.7679 90.2658L89.6998 90.0202L89.6309 89.773L89.5612 89.5244L89.4907 89.2744L89.4194 89.0228L89.3473 88.7699L89.2744 88.5155L89.2008 88.2597L89.1264 88.0024L89.0512 87.7438L88.9753 87.4838L88.8986 87.2224L88.8212 86.9596L88.7431 86.6955L88.6642 86.43L88.5846 86.1632L88.5043 85.8951L88.4233 85.6256L88.3416 85.3549L88.1761 84.8096L67.874 27.8648L67.7657 27.6014L67.6576 27.3394L67.5499 27.0789L67.4424 26.8198L67.3352 26.5622L67.2283 26.3061L67.1216 26.0514L67.0153 25.7983L66.9092 25.5467L66.8035 25.2967L66.698 25.0482L66.5929 24.8012L66.488 24.5558L66.3834 24.312L66.2792 24.0698L66.1752 23.8292L66.0715 23.5903L65.9682 23.3529L65.8652 23.1172L65.7624 22.8832L65.66 22.6508L65.5579 22.4202L65.4561 22.1912L65.3547 21.9639L65.2535 21.7383L65.1527 21.5145L65.0522 21.2924L64.952 21.072L64.8521 20.8535L64.7526 20.6366L64.6534 20.4216L64.5545 20.2084L64.4559 19.9969L64.3577 19.7873L64.2598 19.5795L64.1623 19.3736L64.065 19.1695L63.9681 18.9673L63.8716 18.7669L63.7753 18.5684L63.6794 18.3718L63.5839 18.1771L63.4887 17.9843L63.3938 17.7934L63.2993 17.6045L63.2051 17.4175L63.1112 17.2324L63.0177 17.0493L62.9245 16.8682L62.8317 16.689L62.7392 16.5118L62.6471 16.3367L62.5553 16.1635L62.4638 15.9924L62.3727 15.8232L62.2819 15.6561L62.1915 15.4911L62.1015 15.3281L62.0117 15.1671L61.9223 15.0082L61.8333 14.8514L61.7446 14.6967L61.6563 14.544L61.5683 14.3935L61.4806 14.2451L61.3933 14.0988L61.3064 13.9546L61.2197 13.8125L61.1335 13.6726L61.0475 13.5348L60.962 13.3991L60.8767 13.2657L60.7919 13.1344L60.7073 13.0052L60.6231 12.8783L60.5393 12.7535L60.4558 12.6309L60.3726 12.5105L60.2898 12.3924L60.2073 12.2764L60.1252 12.1627L60.0434 12.0512L59.9619 11.9419L59.8808 11.8348L59.8 11.73L59.7196 11.6275L59.6395 11.5272L59.5598 11.4291L59.4803 11.3334L59.4013 11.2399L59.3225 11.1486L59.2441 11.0597L59.166 10.973L59.0883 10.8887L59.0109 10.8066L58.9338 10.7268L58.8571 10.6493L58.7806 10.5742L58.7046 10.5013L58.6288 10.4308L58.5534 10.3626L58.4783 10.2967L58.4035 10.2331L58.329 10.1719L58.2549 10.113L58.1811 10.0565L58.1076 10.0022L58.0344 9.95038L57.9616 9.90087L57.889 9.85371L57.8168 9.80891L57.7449 9.76645L57.6733 9.72636L57.602 9.68864L57.5311 9.65329L57.4604 9.6203L57.39 9.58968L57.32 9.56142L57.2503 9.53555L57.1808 9.51206L57.1117 9.49092L57.0429 9.47219L56.9743 9.45582L56.9061 9.44184L56.8382 9.43026L56.7705 9.42104L56.7032 9.41422L56.6361 9.40978L56.5693 9.40773L56.5029 9.40807L56.4367 9.4108L56.3708 9.41591L56.3051 9.42342L56.2398 9.43331L56.1748 9.44559L56.11 9.46026L56.0455 9.47732L55.9812 9.49678L55.9173 9.51861L55.8536 9.54284L55.7902 9.56946L55.7271 9.59846L55.6642 9.62985L55.6016 9.66362L55.5392 9.69978L55.4772 9.73833L55.4153 9.77924L55.3538 9.82255L55.2925 9.86823L55.2314 9.91629L55.1706 9.96671L55.1101 10.0195L55.0498 10.0747L54.9897 10.1322L54.9299 10.1922L54.8704 10.2544L54.811 10.3191L54.752 10.3861L54.6931 10.4554L54.6345 10.5271L54.5761 10.6012L54.518 10.6776L54.4601 10.7563L54.4024 10.8374L54.345 10.9208L54.2877 11.0066L54.2307 11.0947L54.1739 11.1851L54.1174 11.2778L54.061 11.3729L54.0049 11.4703L53.949 11.57L53.8933 11.6719L53.8378 11.7762L53.7825 11.8828L53.7274 11.9917L53.6725 12.1029L53.6178 12.2163L53.5633 12.332L53.509 12.45L53.455 12.5703L53.4011 12.6928L53.3474 12.8176L53.2938 12.9446L53.2405 13.0739L53.1874 13.2054L53.1344 13.3392L53.0817 13.4751L53.0291 13.6133L52.9766 13.7537L52.9244 13.8964L52.8723 14.0412L52.8205 14.1882L52.7687 14.3374L52.7172 14.4888L52.6658 14.6423L52.6146 14.798L52.5635 14.9559L52.5126 15.116L52.4619 15.2781L52.4113 15.4425L52.3609 15.6089L52.3106 15.7775L52.2605 15.9482L52.2106 16.121L52.1608 16.2958L52.1111 16.4728L52.0616 16.6519L52.0122 16.833L51.963 17.0162L51.9139 17.2015L51.8649 17.3888L51.8161 17.5782L51.7674 17.7696L51.7188 17.963L51.6704 18.1584L51.6221 18.3558L51.5739 18.5552L51.5259 18.7566L51.478 18.96L51.4302 19.1654L51.3825 19.3727L51.335 19.5819L51.2875 19.7931L51.2402 20.0062L51.193 20.2213L51.1459 20.4382L51.0989 20.6571L51.0521 20.8778L51.0053 21.1004L50.9587 21.3249L50.9121 21.5512L50.8657 21.7794L50.8193 22.0094L50.7731 22.2412L50.7269 22.4749L50.6809 22.7103L50.635 22.9475L50.5891 23.1865L50.5434 23.4273L50.4977 23.6699L50.4521 23.9142L50.4066 24.1602L50.3613 24.4079L50.3159 24.6574L50.2707 24.9085L50.2256 25.1614L50.1806 25.4159L50.1356 25.672L50.0907 25.9299L50.0459 26.1893L50.0012 26.4504L49.9565 26.7131L49.912 26.9774L49.8675 27.2433L49.8231 27.5108L49.7787 27.7798L49.7345 28.0504L49.6903 28.3225L49.6462 28.5962L49.6021 28.8713L49.5581 29.148L49.5142 29.4261L49.4266 29.9868L49.3829 30.2693L42.9542 90.654L42.9379 90.9366L42.922 91.2177L42.9065 91.4974L42.8914 91.7757L42.8767 92.0524L42.8623 92.3278L42.8484 92.6016L42.8349 92.8739L42.8217 93.1447L42.809 93.414L42.7967 93.6818L42.7848 93.948L42.7733 94.2126L42.7622 94.4757L42.7516 94.7372L42.7414 94.9971L42.7316 95.2554L42.7223 95.512L42.7134 95.7671L42.7049 96.0205L42.6969 96.2722L42.6893 96.5223L42.6822 96.7707L42.6756 97.0174L42.6694 97.2625L42.6637 97.5058L42.6584 97.7474L42.6537 97.9872L42.6494 98.2254L42.6455 98.4617L42.6422 98.6963L42.6394 98.9292L42.637 99.1603L42.6352 99.3895L42.6338 99.617L42.6329 99.8426L42.6326 100.066L42.6328 100.288L42.6334 100.509L42.6346 100.727L42.6363 100.943L42.6386 101.158L42.6414 101.371L42.6447 101.582L42.6485 101.79L42.6529 101.998L42.6578 102.203L42.6633 102.406L42.6693 102.607L42.6758 102.806L42.683 103.004L42.6906 103.199L42.6989 103.393L42.7077 103.584L42.7171 103.774L42.7271 103.961L42.7376 104.147L42.7488 104.33L42.7605 104.512L42.7728 104.691L42.7857 104.868L42.7992 105.044L42.8133 105.217L42.8279 105.389L42.8432 105.558L42.8592 105.725L42.8757 105.89L42.8928 106.053L42.9106 106.214L42.929 106.373L42.948 106.53L42.9676 106.684L42.9879 106.837L43.0088 106.987L43.0303 107.136L43.0525 107.282L43.0753 107.426L43.0988 107.568L43.123 107.708L43.1477 107.845L43.1732 107.981L43.1993 108.114L43.2261 108.245L43.2535 108.374L43.2816 108.501L43.3104 108.626L43.3399 108.748L43.37 108.869L43.4008 108.987L43.4323 109.103L43.4645 109.216L43.4974 109.328L43.531 109.437L43.5653 109.544L43.6003 109.649L43.636 109.752L43.6723 109.852L43.7094 109.95L43.7472 110.046L43.7857 110.14L43.825 110.231L43.8649 110.321L43.9056 110.408L43.947 110.492L43.9891 110.575L44.032 110.655L44.0755 110.733L44.1199 110.809L44.1649 110.882L44.2107 110.954L44.2572 111.023L44.3045 111.089L44.3525 111.154L44.4013 111.216L44.4508 111.276L44.501 111.333L44.5521 111.389L44.6038 111.442L44.6564 111.493L44.7096 111.541L44.7637 111.588L44.8185 111.632L44.8741 111.673L44.9304 111.713L44.9875 111.75L45.0454 111.785L45.1041 111.818L45.1635 111.848L45.2237 111.876L45.2847 111.902L45.3465 111.925L45.4091 111.947L45.4724 111.965L45.5365 111.982L45.6014 111.997L45.6671 112.009L45.7336 112.019L45.8008 112.026L45.8689 112.032L45.9378 112.035L46.0074 112.035L46.0778 112.034L46.1491 112.03L46.2211 112.024L46.2939 112.016L46.3676 112.006L46.442 111.993L46.5172 111.978L46.5933 111.961L46.6701 111.941L46.7478 111.919L46.8262 111.895L46.9055 111.869L46.9855 111.841L47.0664 111.81L47.1481 111.777L47.2305 111.742L47.3138 111.704L47.3979 111.665L47.4828 111.623L47.5685 111.579L47.6551 111.533L47.7424 111.484L47.8305 111.434L47.9195 111.381L48.0093 111.326L48.0998 111.268L48.1912 111.209L48.2834 111.147L48.3764 111.083L48.4702 111.018L48.5649 110.949L48.6603 110.879L48.7566 110.807L48.8536 110.732L48.9515 110.655L49.0502 110.576L49.1496 110.495L49.2499 110.412L49.351 110.327L49.4529 110.239L49.5556 110.15L49.6592 110.058L49.7635 109.965L49.8686 109.869L49.9745 109.771L50.0813 109.671L50.1888 109.569L50.2971 109.465L50.4062 109.358L50.5162 109.25L50.6269 109.14L50.7384 109.027L50.8507 108.913L50.9638 108.797L51.0777 108.678L51.1924 108.558L51.3079 108.435L51.4241 108.311L51.5412 108.184L51.659 108.056L51.7776 107.925L51.897 107.793L52.0172 107.659L52.1381 107.522L52.2599 107.384L52.3824 107.244L52.5056 107.102L52.6297 106.958L52.7545 106.812L52.88 106.664L53.0064 106.514L53.1334 106.362L53.2613 106.209L53.3899 106.053L53.5192 105.896L53.6494 105.737L53.7802 105.576L53.9118 105.413L54.0441 105.249L54.1772 105.082L54.311 104.914L54.4456 104.744L54.5809 104.572L54.7169 104.399L54.8536 104.223L54.9911 104.046L55.1292 103.867L55.2681 103.687L55.4077 103.504L55.548 103.32L55.6891 103.135L55.8308 102.947L55.9732 102.758L56.1163 102.567L56.2601 102.375L56.4046 102.181L56.5498 101.985L56.6957 101.788L56.8422 101.589L56.9894 101.388L57.1373 101.186L57.2859 100.982L57.4351 100.777L57.585 100.57L57.7355 100.361L57.8867 100.151L58.0385 99.9399L58.191 99.7268L58.3441 99.5122L58.4978 99.2961L58.6522 99.0786L58.8072 98.8595L58.9628 98.639L59.119 98.4171L59.2758 98.1937L59.4333 97.9689L59.5913 97.7426L59.75 97.515L59.9092 97.286L60.069 97.0556L60.2294 96.8238L60.3904 96.5907L92.4316 45.0123L92.5705 44.7629L92.7086 44.5145L92.8457 44.2673L92.9818 44.0212L93.117 43.7762L93.2512 43.5323L93.3844 43.2896L93.5166 43.0481L93.6477 42.8077L93.7779 42.5685L93.9071 42.3305L94.0352 42.0937L94.1623 41.8581L94.2884 41.6237L94.4134 41.3906L94.5373 41.1586L94.6601 40.928L94.7819 40.6986L94.9026 40.4704L95.0222 40.2435L95.1407 40.0179L95.258 39.7936L95.3743 39.5705L95.4894 39.3488L95.6034 39.1284L95.7162 38.9093L95.8279 38.6916L95.9384 38.4752L96.0477 38.2601L96.1559 38.0464L96.2629 37.834L96.3687 37.623L96.4732 37.4134L96.5766 37.2052L96.6788 36.9984L96.7797 36.7929L96.8794 36.5889L96.9778 36.3863L97.075 36.1851L97.171 35.9854L97.2657 35.787L97.3591 35.5901L97.4512 35.3947L97.5421 35.2008L97.6316 35.0082L97.7199 34.8172L97.8068 34.6276L97.8925 34.4396L97.9768 34.253L98.0598 34.0679L98.1414 33.8843L98.2217 33.7022L98.3007 33.5217L98.3783 33.3426L98.4545 33.1651L98.5294 32.9891L98.6029 32.8147L98.675 32.6418L98.7457 32.4704L98.8151 32.3006L98.883 32.1323L98.9495 31.9657L99.0146 31.8006L99.0783 31.637L99.1405 31.4751L99.2013 31.3147L99.2607 31.1559L99.3187 30.9988L99.3751 30.8432L99.4302 30.6892L99.4837 30.5368L99.5358 30.3861L99.5864 30.2369L99.6356 30.0894L99.6832 29.9435L99.7294 29.7992L99.774 29.6566L99.8172 29.5156L99.8588 29.3763L99.899 29.2386L99.9376 29.1025L99.9747 28.9681L100.01 28.8353L100.044 28.7042L100.077 28.5748L100.108 28.447L100.137 28.3209L100.165 28.1965L100.191 28.0737L100.216 27.9527L100.239 27.8333L100.261 27.7155L100.281 27.5995L100.299 27.4852L100.316 27.3725L100.331 27.2615L100.345 27.1523L100.357 27.0447L100.367 26.9388L100.376 26.8346L100.383 26.7321L100.389 26.6314L100.393 26.5323L100.396 26.4349L100.396 26.3392L100.395 26.2453L100.393 26.153L100.389 26.0625L100.383 25.9737L100.376 25.8866L100.367 25.8012L100.356 25.7175L100.344 25.6355L100.33 25.5553L100.314 25.4768L100.297 25.3999L100.278 25.3248L100.257 25.2515L100.235 25.1798L100.211 25.1099L100.185 25.0416L100.158 24.9751L100.129 24.9103L100.099 24.8473L100.066 24.7859L100.032 24.7263L99.9965 24.6683L99.9592 24.6121L99.9201 24.5576L99.8794 24.5049L99.837 24.4538L99.7929 24.4045L99.7471 24.3568L99.6996 24.3109L99.6504 24.2667L99.5996 24.2241L99.547 24.1833L99.4927 24.1442L99.4368 24.1068L99.3791 24.0712L99.3197 24.0372L99.2587 24.0049L99.1959 23.9743L99.1315 23.9454L99.0653 23.9182L98.9975 23.8926L98.9279 23.8688L98.8567 23.8466L98.7837 23.8262L98.7091 23.8074L98.6327 23.7903L98.5547 23.7749L98.4749 23.7611L98.3935 23.7491L98.3103 23.7386L98.2255 23.7299L98.1389 23.7228L98.0507 23.7174L97.9608 23.7136L97.8691 23.7115L97.7758 23.7111L97.6808 23.7122L97.5841 23.7151L97.4857 23.7195L97.3856 23.7256L97.2839 23.7333L97.1804 23.7427L97.0753 23.7537L96.9685 23.7663L96.86 23.7805L96.7499 23.7964L96.638 23.8138L96.5245 23.8328L96.4093 23.8535L96.2925 23.8757L96.174 23.8996L96.0538 23.925L95.9319 23.952L95.8084 23.9806L95.6833 24.0107L95.5565 24.0425L95.428 24.0758L95.2979 24.1106L95.1662 24.147L95.0328 24.185L94.8978 24.2244L94.7611 24.2655L94.6228 24.308L94.4829 24.3521L94.3414 24.3977L94.1982 24.4449L94.0535 24.4935L93.9071 24.5437L93.7591 24.5953L93.6095 24.6484L93.4584 24.7031L93.3056 24.7592L93.1512 24.8168L92.9953 24.8759L92.8377 24.9364L92.6786 24.9984L92.5179 25.0618L92.3557 25.1267L92.1919 25.193L92.0265 25.2608L91.8596 25.33L91.6911 25.4006L91.5211 25.4726L91.3496 25.5461L91.1765 25.6209L91.0019 25.6971L90.8258 25.7748L90.6481 25.8538L90.469 25.9341L90.2883 26.0159L90.1062 26.099L89.9226 26.1835L89.7375 26.2693L89.5509 26.3564L89.3628 26.4449L89.1733 26.5347L88.9823 26.6258L88.7898 26.7183L88.596 26.812L88.4006 26.9071L88.2039 27.0034L88.0057 27.101L87.8061 27.1999L87.6051 27.3L87.4027 27.4015L87.1988 27.5041L86.9936 27.608L86.787 27.7132L86.5791 27.8195L86.3697 27.9271L86.1591 28.0359L85.947 28.1459L85.7336 28.2571L85.5189 28.3695L85.3029 28.4831L85.0855 28.5978L84.8668 28.7137L84.6468 28.8308L84.4255 28.949L84.203 29.0684L83.9791 29.1888L83.754 29.3104L83.5276 29.4332L83.3 29.557L83.0711 29.6819L82.841 29.8079L82.6096 29.935L82.3771 30.0632L82.1433 30.1924L81.9083 30.3227L81.6722 30.454L81.4348 30.5864L81.1963 30.7198L80.9566 30.8542L80.7158 30.9896L80.4738 31.126L80.2307 31.2634L79.9865 31.4019L79.7411 31.5412L79.4946 31.6816L79.2471 31.8229L28.4728 64.0825L28.2382 64.2474L28.005 64.4117L27.5425 64.7385L27.3133 64.901L27.0854 65.063L26.8589 65.2243L26.6339 65.385L26.4102 65.5451L26.1879 65.7046L25.9671 65.8635L25.7477 66.0217L25.5297 66.1793L25.3133 66.3362L25.0982 66.4925L24.8847 66.6482L24.6727 66.8032L24.4622 66.9576L24.2532 67.1113L24.0457 67.2643L23.8398 67.4167L23.6354 67.5684L23.4326 67.7194L23.2314 67.8697L23.0317 68.0194L22.8337 68.1683L22.6372 68.3166L22.4424 68.4641L22.2493 68.611L22.0577 68.7571L21.8678 68.9026L21.6796 69.0473L21.493 69.1913L21.3082 69.3346L21.125 69.4772L20.9435 69.6191L20.7637 69.7602L20.5857 69.9006L20.4094 70.0402L20.2348 70.1791L20.062 70.3173L19.891 70.4547L19.7217 70.5914L19.5542 70.7273L19.3885 70.8625L19.2247 70.9969L19.0626 71.1305L18.9023 71.2634L18.7439 71.3955L18.5873 71.5268L18.4326 71.6574L18.2797 71.7872L18.1287 71.9162L17.9795 72.0445L17.8323 72.1719L17.6869 72.2986L17.5434 72.4245L17.4019 72.5496L17.2623 72.6739L17.1245 72.7974L16.9888 72.9201L16.8549 73.042L16.723 73.1632L16.5931 73.2835L16.4652 73.403L16.3392 73.5217L16.2152 73.6396L16.0931 73.7567L15.9731 73.873L15.8551 73.9885L15.7391 74.1032L15.6251 74.217L15.5132 74.33L15.4032 74.4423L15.2953 74.5537L15.1895 74.6643L15.0857 74.774L14.984 74.883L14.8843 74.9911L14.7867 75.0984L14.6912 75.2048L14.5978 75.3105L14.5065 75.4153L14.4172 75.5193L14.3301 75.6224L14.245 75.7248L14.1621 75.8263L14.0814 75.9269L14.0027 76.0268L13.9262 76.1258L13.8518 76.2239L13.7795 76.3213L13.7094 76.4178L13.6414 76.5135L13.5756 76.6083L13.512 76.7023L13.4505 76.7955L13.3912 76.8878L13.3341 76.9793L13.2792 77.07L13.2264 77.1598L13.1759 77.2488L13.1275 77.337L13.0813 77.4243L13.0373 77.5108L12.9956 77.5965L12.956 77.6813L12.9186 77.7653L12.8835 77.8485L12.8506 77.9308L12.8199 78.0123L12.7914 78.093L12.7652 78.1728L12.7411 78.2519L12.7194 78.33L12.6998 78.4074L12.6825 78.4839L12.6675 78.5596L12.6546 78.6345L12.6441 78.7085L12.6357 78.7818L12.6297 78.8542L12.6258 78.9257L12.6243 78.9965L12.625 79.0664L12.6279 79.1356L12.6331 79.2039L12.6406 79.2713L12.6503 79.338L12.6623 79.4039L12.6765 79.4689L12.6931 79.5331L12.7119 79.5966L12.7329 79.6592L12.7562 79.721L12.7818 79.782L12.8097 79.8422L12.8398 79.9016L12.8722 79.9602L12.9068 80.018L12.9438 80.075L12.9829 80.1312L13.0244 80.1866L13.0681 80.2412L13.1141 80.2951L13.1624 80.3481L13.2129 80.4004L13.2657 80.4519L13.3208 80.5026L13.3781 80.5525L13.4377 80.6016L13.4995 80.65L13.5636 80.6976L13.63 80.7444L13.6986 80.7905L13.7694 80.8358L13.8426 80.8803L13.9179 80.9241L13.9955 80.9671L14.0754 81.0093L14.1575 81.0508L14.2418 81.0916L14.3284 81.1316L14.4172 81.1708L14.5083 81.2093L14.6016 81.2471L14.6971 81.2841L14.7948 81.3204L14.8948 81.356L14.9969 81.3908L15.1013 81.4249L15.2079 81.4583L15.3167 81.4909L15.4277 81.5229L15.5409 81.5541L15.6563 81.5846L15.7739 81.6144L15.8937 81.6435L16.0156 81.6719L16.1398 81.6996L16.2661 81.7266L16.3946 81.7529L16.5252 81.7784L16.658 81.8034L16.793 81.8276L16.9301 81.8511L17.0693 81.874L17.2107 81.8962L17.3542 81.9177L17.4999 81.9385L17.6476 81.9587L17.7975 81.9782L17.9495 81.997L18.1036 82.0152L18.2598 82.0328L18.4181 82.0497L18.5784 82.0659L18.7409 82.0815L18.9054 82.0965L19.072 82.1108L19.2407 82.1245L19.4113 82.1375L19.5841 82.1499L19.7589 82.1617L19.9357 82.1729L20.1145 82.1835L20.2954 82.1935L20.4783 82.2028L20.6631 82.2116L20.85 82.2197L21.0388 82.2273L21.2297 82.2342L21.4225 82.2406L21.6172 82.2463L21.8139 82.2515L22.0126 82.2561L22.2132 82.2602L22.4157 82.2636L22.6202 82.2665L22.8265 82.2688L23.0348 82.2706L23.2449 82.2718L23.457 82.2725L23.6709 82.2726L23.8867 82.2721L24.1043 82.2711L24.3238 82.2696L24.5451 82.2675L24.7683 82.265L24.9933 82.2618L25.2201 82.2582L25.4487 82.254L25.679 82.2493L25.9112 82.2441L26.1451 82.2384L26.3808 82.2322L26.6182 82.2255L26.8574 82.2183L27.0983 82.2106L27.341 82.2024L27.5853 82.1937L27.8313 82.1846L28.079 82.1749L28.3284 82.1648L28.5795 82.1542L28.8322 82.1432L29.0865 82.1317L29.3425 82.1197L29.6001 82.1072L29.8593 82.0944L30.1201 82.081L30.3824 82.0673L30.6464 82.0531L30.9119 82.0384L31.179 82.0233L31.4476 82.0078L31.7177 81.9919L31.9893 81.9755L32.2625 81.9587L32.5371 81.9416L32.8132 81.924L33.0908 81.906L33.3698 81.8875L33.6502 81.8687L33.9321 81.8495L34.2154 81.83L94.5392 74.7246L94.8204 74.6777L95.1001 74.6309L95.3784 74.5839L95.6552 74.537L95.9305 74.4899L96.2043 74.4428L96.4766 74.3957L96.7473 74.3485L97.0165 74.3012L97.2842 74.2539L97.5503 74.2066L97.8147 74.1591L98.0776 74.1117L98.3389 74.0641L98.5986 74.0165L98.8566 73.9688L99.1129 73.9211L99.3677 73.8733L99.6207 73.8254L99.8721 73.7775L100.122 73.7295L100.37 73.6814L100.616 73.6333L100.86 73.5851L101.103 73.5368L101.344 73.4885L101.583 73.44L101.821 73.3915L102.057 73.343L102.29 73.2943L102.523 73.2456L102.753 73.1967L102.981 73.1478L103.208 73.0989L103.433 73.0498L103.655 73.0006L103.876 72.9514L104.096 72.9021L104.313 72.8526L104.528 72.8031L104.741 72.7535L104.953 72.7038L105.162 72.654L105.37 72.6041L105.576 72.5541L105.779 72.5041L105.981 72.4539L106.181 72.4036L106.378 72.3532L106.574 72.3026L106.768 72.252L106.959 72.2013L107.149 72.1505L107.337 72.0995L107.522 72.0484L107.706 71.9972L107.887 71.9459L108.067 71.8945L108.244 71.843L108.419 71.7913L108.592 71.7395L108.763 71.6876L108.932 71.6355L109.099 71.5834L109.263 71.5311L109.426 71.4786L109.586 71.426L109.744 71.3733L109.901 71.3205L110.054 71.2675L110.206 71.2143L110.356 71.1611L110.503 71.1076L110.648 71.054L110.791 71.0003L110.932 70.9464L111.07 70.8924L111.206 70.8382L111.341 70.7839L111.472 70.7294L111.602 70.6747L111.729 70.6199L111.854 70.5649L111.977 70.5097L112.098 70.4544L112.216 70.3989L112.332 70.3433L112.446 70.2874L112.557 70.2314L112.667 70.1752L112.774 70.1188L112.878 70.0623L112.98 70.0055L113.08 69.9486L113.178 69.8915L113.273 69.8342L113.366 69.7767L113.457 69.719L113.546 69.6611L113.632 69.6031L113.715 69.5448L113.797 69.4863L113.876 69.4276L113.953 69.3688L114.027 69.3097L114.099 69.2504L114.169 69.1909L114.236 69.1312L114.301 69.0712L114.363 69.0111L114.423 68.9507L114.481 68.8902L114.537 68.8294L114.59 68.7683L114.641 68.7071L114.689 68.6456L114.735 68.5839L114.778 68.522L114.82 68.4598L114.858 68.3974L114.895 68.3348L114.929 68.272L114.96 68.2088L114.99 68.1455L115.017 68.0819L115.041 68.0181L115.063 67.954L115.083 67.8897L115.1 67.8251L115.115 67.7603L115.127 67.6952L115.138 67.6299L115.145 67.5643L115.151 67.4985L115.154 67.4324L115.154 67.366L115.152 67.2994L115.148 67.2325L115.141 67.1653L115.132 67.0979L115.121 67.0302L115.107 66.9623L115.091 66.8941L115.072 66.8256L115.052 66.7568L115.028 66.6877L115.002 66.6184L114.974 66.5488L114.944 66.4789L114.911 66.4087L114.876 66.3383L114.838 66.2676L114.798 66.1965L114.756 66.1252L114.711 66.0536L114.664 65.9818L114.615 65.9096L114.563 65.8371L114.509 65.7644L114.453 65.6913L114.394 65.6179L114.333 65.5443L114.269 65.4704L114.203 65.3961L114.135 65.3216L114.065 65.2467L113.992 65.1716L113.917 65.0961L113.839 65.0204L113.76 64.9443L113.678 64.8679L113.593 64.7913L113.507 64.7143L113.418 64.637L113.327 64.5594L113.233 64.4815L113.137 64.4033L113.039 64.3247L112.939 64.2459L112.836 64.1667L112.732 64.0873L112.624 64.0075L112.515 63.9274L112.404 63.8469L112.29 63.7662L112.174 63.6851L112.056 63.6038L111.935 63.5221L111.812 63.4401L111.688 63.3577L111.561 63.2751L111.431 63.1921L111.3 63.1088L111.166 63.0252L111.031 62.9412L110.893 62.857L110.753 62.7724L110.61 62.6875L110.466 62.6023L110.32 62.5167L110.171 62.4308L110.02 62.3446L109.868 62.2581L109.713 62.1713L109.556 62.0841L109.397 61.9966L109.235 61.9088L109.072 61.8207L108.907 61.7322L108.74 61.6435L108.57 61.5544L108.399 61.4649L108.225 61.3752L108.05 61.2851L107.873 61.1947L107.693 61.104L107.512 61.013L107.328 60.9216L107.143 60.8299L106.956 60.7379L106.766 60.6456L106.575 60.553L106.382 60.4601L106.187 60.3668L105.99 60.2732L105.791 60.1793L105.591 60.0851L105.388 59.9906L105.183 59.8957L104.977 59.8006L104.769 59.7051L104.559 59.6093L104.347 59.5132L104.133 59.4168L103.918 59.3201L103.701 59.2231L103.482 59.1258L103.261 59.0282L103.038 58.9303L102.814 58.832L102.588 58.7335L102.36 58.6347L102.131 58.5355L101.9 58.4361L101.667 58.3364L101.432 58.2364L101.196 58.1361L100.958 58.0355L100.719 57.9346L100.478 57.8334L100.235 57.7319L99.9904 57.6302L99.7445 57.5281L99.4969 57.4258L99.2478 57.3232L98.9972 57.2203L98.745 57.1172L98.4912 57.0138L98.236 56.9101L97.9792 56.8061L97.721 56.7019L97.4613 56.5974L97.2001 56.4926L96.9374 56.3875L96.6733 56.2823L39.5003 36.6006L39.2255 36.5203L38.952 36.4406L38.6798 36.3616L38.409 36.2833L38.1394 36.2057L37.8711 36.1288L37.6042 36.0526L37.3387 35.9771L37.0745 35.9023L36.8116 35.8282L36.5502 35.7549L36.2902 35.6823L36.0315 35.6104L35.7743 35.5393L35.5185 35.469L35.2641 35.3994L35.0112 35.3305L34.7597 35.2625L34.5098 35.1952L34.2612 35.1287L34.0142 35.063L33.7687 34.9981L33.5247 34.934L33.2822 34.8707L33.0413 34.8082L32.8018 34.7466L32.564 34.6857L32.3277 34.6258L32.0929 34.5666L31.8598 34.5083L31.6282 34.4508L31.3982 34.3942L31.1699 34.3385L30.9431 34.2837L30.718 34.2297L30.4945 34.1766L30.2727 34.1243L30.0525 34.073L29.834 34.0226L29.6171 33.9731L29.4019 33.9244L29.1884 33.8768L28.9767 33.83L28.7666 33.7841L28.5582 33.7392L28.3515 33.6952L28.1466 33.6522L27.9434 33.6101L27.742 33.569L27.5423 33.5288L27.3443 33.4896L27.1482 33.4514L26.9538 33.4141L26.7612 33.3779L26.5703 33.3426L26.3813 33.3083L26.1941 33.275L26.0087 33.2427L25.8251 33.2114L25.6433 33.1811L25.4634 33.1519L25.2853 33.1237L25.109 33.0965L24.9346 33.0703L24.7621 33.0452L24.5914 33.0211L24.4226 32.9981L24.2556 32.9761L24.0906 32.9551L23.9274 32.9353L23.7661 32.9165L23.6067 32.8988L23.4493 32.8821L23.2937 32.8666L23.14 32.8521L22.9883 32.8387L22.8385 32.8264L22.6906 32.8152L22.5447 32.8051L22.4006 32.7961L22.2586 32.7883L22.1185 32.7815L21.9803 32.7759L21.8441 32.7714L21.7099 32.768L21.5776 32.7658L21.4473 32.7647L21.3189 32.7647L21.1926 32.7659L21.0682 32.7682L20.9458 32.7717L20.8254 32.7764L20.707 32.7822L20.5906 32.7891L20.4762 32.7973L20.3638 32.8066L20.2534 32.8171L20.145 32.8287L20.0386 32.8416L19.9342 32.8556L19.8319 32.8708L19.7316 32.8872L19.6332 32.9048L19.537 32.9236L19.4427 32.9436L19.3505 32.9649L19.2602 32.9873L19.1721 33.0109L19.0859 33.0358L19.0018 33.0618L18.9198 33.0891L18.8397 33.1176L18.7617 33.1473L18.6858 33.1783L18.6119 33.2105L18.54 33.2439L18.4702 33.2786L18.4024 33.3145L18.3367 33.3516L18.273 33.39L18.2114 33.4296L18.1518 33.4705L18.0943 33.5126L18.0388 33.5559L17.9853 33.6006L17.934 33.6464L17.8846 33.6936L17.8373 33.742L17.7921 33.7916L17.7489 33.8425L17.7077 33.8947L17.6686 33.9482L17.6316 34.0029L17.5966 34.0588L17.5636 34.1161L17.5327 34.1746L17.5038 34.2344L17.4769 34.2955L17.4522 34.3578L17.4294 34.4214L17.4087 34.4863L17.39 34.5525L17.3733 34.62L17.3587 34.6887L17.3461 34.7587L17.3356 34.83L17.327 34.9026L17.3205 34.9765L17.316 35.0516L17.3136 35.128L17.3131 35.2057L17.3147 35.2847L17.3183 35.365L17.3238 35.4466L17.3314 35.5294L17.341 35.6135L17.3526 35.6989L17.3662 35.7857L17.3818 35.8736L17.3994 35.9629L17.419 36.0534L17.4405 36.1453L17.464 36.2384L17.4895 36.3328L17.517 36.4285L17.5465 36.5254L17.5779 36.6237L17.6113 36.7232L17.6466 36.824L17.6839 36.9261L17.7231 37.0294L17.7643 37.1341L17.8074 37.24L17.8525 37.3471L17.8995 37.4556L17.9484 37.5653L17.9992 37.6763L18.0519 37.7886L18.1066 37.9021L18.1631 38.0169L18.2216 38.1329L18.282 38.2502L18.3442 38.3688L18.4083 38.4886L18.4743 38.6097L18.5422 38.7321L18.612 38.8556L18.6836 38.9805L18.757 39.1066L18.8323 39.2339L18.9095 39.3625L18.9885 39.4923L19.0693 39.6233L19.1519 39.7556L19.2364 39.8891L19.3226 40.0239L19.4107 40.1598L19.5006 40.297L19.5923 40.4354L19.6857 40.575L19.7809 40.7159L19.8779 40.8579L19.9767 41.0012L20.0772 41.1457L20.1795 41.2913L20.2835 41.4382L20.3892 41.5862L20.4967 41.7355L20.6059 41.8859L20.7168 42.0375L20.8294 42.1903L20.9436 42.3442L21.0596 42.4994L21.1773 42.6557L21.2966 42.8131L21.4176 42.9718L21.5403 43.1315L21.6646 43.2925L21.7905 43.4545L21.9181 43.6177L22.0473 43.7821L22.1781 43.9475L22.3105 44.1141L22.4445 44.2819L22.5802 44.4507L22.7173 44.6207L22.8561 44.7917L22.9964 44.9639L23.1383 45.1371L23.2817 45.3115L23.4267 45.4869L23.5731 45.6634L23.7211 45.841L23.8706 46.0197L24.0216 46.1994L24.1741 46.3802L24.3281 46.562L24.4835 46.7449L24.6404 46.9288L24.7988 47.1137L24.9586 47.2997L25.1198 47.4867L25.2825 47.6748L25.4465 47.8638L25.612 48.0538L25.7788 48.2449L25.9471 48.4369L26.1167 48.6299L26.2876 48.8239L26.46 49.0189L26.6336 49.2148L26.8086 49.4117L26.9849 49.6096L27.1626 49.8083L27.3415 50.0081L27.5217 50.2087L27.7032 50.4103L27.886 50.6128L28.07 50.8162L28.2553 51.0205L28.4418 51.2257L28.6295 51.4318L28.8184 51.6388L29.0086 51.8467L29.1999 52.0554L29.3925 52.265L29.5862 52.4754L72.5905 94.9818L72.8022 95.1719L73.013 95.3609L73.223 95.5487L73.4321 95.7353L73.6402 95.9207L73.8475 96.1049L74.0539 96.2879L74.2593 96.4696L74.4638 96.6501L74.6674 96.8293L74.8701 97.0072L75.0718 97.1839L75.2725 97.3593L75.4723 97.5333L75.6712 97.7061L75.869 97.8775L76.0659 98.0477L76.2618 98.2164L76.4567 98.3839L76.6506 98.5499L76.8435 98.7146L77.0353 98.8779L77.2262 99.0398L77.416 99.2003L77.6048 99.3595L77.7925 99.5171L77.9792 99.6734L78.1649 99.8282L78.3495 99.9816L78.533 100.133L78.7155 100.284L78.8969 100.433L79.0772 100.58L79.2564 100.726L79.4346 100.871L79.6116 101.014L79.7875 101.155L79.9623 101.295L80.136 101.433L80.3086 101.57L80.4801 101.706L80.6504 101.839L80.8196 101.971L80.9877 102.102L81.1546 102.231L81.3204 102.358L81.485 102.484L81.6485 102.608L81.8108 102.73L81.9719 102.851L82.1318 102.971L82.2906 103.088L82.4482 103.204L82.6046 103.318L82.7598 103.431L82.9139 103.542L83.0667 103.651L83.2183 103.758L83.3688 103.864L83.518 103.968L83.666 104.07L83.8128 104.171L83.9583 104.27L84.1027 104.367L84.2458 104.462L84.3877 104.556L84.5283 104.648L84.6678 104.738L84.8059 104.826L84.9429 104.913L85.0786 104.998L85.213 105.081L85.3462 105.162L85.4781 105.241L85.6088 105.318L85.7382 105.394L85.8664 105.468L85.9933 105.54L86.1189 105.61L86.2433 105.679L86.3663 105.745L86.4881 105.81L86.6087 105.872L86.7279 105.933L86.8459 105.992L86.9626 106.05L87.078 106.105L87.1921 106.158L87.305 106.21L87.4165 106.259L87.5268 106.307L87.6357 106.353L87.7434 106.396L87.8498 106.438L87.9548 106.478L88.0586 106.516L88.1611 106.553L88.2623 106.587L88.3622 106.619L88.4608 106.649L88.558 106.678L88.654 106.704L88.7487 106.728L88.8421 106.751L88.9341 106.771L89.0249 106.79L89.1143 106.807L89.2025 106.821L89.2893 106.834L89.3749 106.844L89.4591 106.853L89.542 106.86L89.6236 106.864L89.7039 106.867L89.7829 106.868L89.8606 106.866L89.937 106.863L90.0121 106.858L90.0859 106.85L90.1584 106.841L90.2295 106.83L90.2994 106.816L90.368 106.801L90.4352 106.783L90.5012 106.764L90.5659 106.742L90.6292 106.719L90.6913 106.693L90.752 106.666L90.8115 106.636L90.8697 106.605L90.9266 106.571L90.9821 106.535L91.0364 106.498L91.0894 106.458L91.1412 106.416L91.1916 106.373L91.2407 106.327L91.2886 106.279L91.3352 106.229L91.3805 106.177L91.4245 106.123L91.4673 106.067L91.5087 106.009L91.5489 105.949L91.5879 105.887L91.6255 105.823L91.6619 105.757L91.6971 105.689L91.7309 105.618L91.7636 105.546L91.7949 105.472L91.825 105.396L91.8539 105.317L91.8815 105.237L91.9079 105.155L91.933 105.07L91.9569 104.984L91.9795 104.895L92.001 104.805L92.0211 104.712L92.0401 104.618L92.0578 104.521L92.0743 104.423L92.0896 104.322L92.1037 104.22L92.1166 104.115L92.1282 104.009L92.1387 103.9L92.148 103.79L92.156 103.677L92.1629 103.563L92.1686 103.446L92.173 103.328L92.1764 103.207L92.1785 103.085L92.1794 102.961L92.1792 102.834L92.1778 102.706L92.1753 102.576L92.1716 102.443L92.1667 102.309L92.1607 102.173L92.1535 102.035L92.1452 101.895L92.1358 101.753L92.1252 101.609L92.1135 101.463L92.1007 101.315L92.0867 101.166L92.0716 101.014L92.0554 100.861L92.0382 100.705L92.0198 100.548L92.0003 100.389L91.9797 100.228L91.958 100.065L91.9353 99.9001L91.9114 99.7334L91.8865 99.5648L91.8606 99.3944L91.8335 99.2222L91.8054 99.0481L91.7763 98.8722L91.7461 98.6944L91.7148 98.5148L91.6825 98.3334L91.6492 98.1502L91.6149 97.9651L91.5795 97.7783L91.5431 97.5897L91.5057 97.3993L91.4673 97.2071L91.4279 97.0131L91.3875 96.8174L91.3461 96.6199L91.3037 96.4207L91.2604 96.2197L91.216 96.017L91.1707 95.8126L91.1245 95.6065L91.0772 95.3986L91.0291 95.1891L90.9799 94.9778L90.9299 94.7649L90.8789 94.5503L90.827 94.334L90.7741 94.1161L90.7203 93.8965L90.6657 93.6753L90.6101 93.4524L90.5536 93.2279L90.4962 93.0018L90.438 92.7741L90.3788 92.5448L90.3188 92.3139L90.2579 92.0814L90.1962 91.8474L90.1336 91.6118L90.0701 91.3746L90.0058 91.1359L89.9407 90.8957L89.8747 90.6539L89.8079 90.4107L89.7403 90.1659L89.6719 89.9197L89.6026 89.6719L89.5326 89.4227L89.4617 89.1721L89.3901 88.92L89.3177 88.6664L89.2445 88.4114L89.1706 88.155L89.0958 87.8972L89.0204 87.638L88.9441 87.3775L88.8672 87.1155L88.7895 86.8522L88.711 86.5875L88.6319 86.3215L88.552 86.0541L88.4714 85.7855L88.3901 85.5155L88.3081 85.2442L68.047 28.2873L67.8298 27.7573L67.7216 27.4945L67.6137 27.2331L67.506 26.9732L67.3987 26.7147L67.2916 26.4577L67.1848 26.2022L67.0783 25.9481L66.9721 25.6957L66.8661 25.4447L66.7605 25.1952L66.6551 24.9474L66.5501 24.701L66.4454 24.4563L66.3409 24.2132L66.2368 23.9716L66.1329 23.7317L66.0294 23.4934L65.9262 23.2567L65.8233 23.0217L65.7207 22.7884L65.6184 22.5567L65.5164 22.3267L65.4148 22.0984L65.3134 21.8718L65.2124 21.6469L65.1117 21.4238L65.0113 21.2024L64.9113 20.9828L64.8115 20.7649L64.7121 20.5488L64.6131 20.3345L64.5143 20.122L64.4159 19.9113L64.3178 19.7025L64.22 19.4954L64.1226 19.2902L64.0255 19.0869L63.9288 18.8854L63.8323 18.6858L63.7362 18.4881L63.6405 18.2922L63.5451 18.0983L63.45 17.9063L63.3553 17.7162L63.2609 17.528L63.1668 17.3418L63.0731 17.1576L62.9797 16.9753L62.8867 16.7949L62.794 16.6166L62.7016 16.4403L62.6096 16.2659L62.518 16.0935L62.4267 15.9232L62.3357 15.7549L62.2451 15.5886L62.1548 15.4244L62.0649 15.2622L61.9753 15.1021L61.886 14.9441L61.7971 14.7881L61.7086 14.6343L61.6204 14.4825L61.5325 14.3328L61.445 14.1852L61.3578 14.0398L61.271 13.8964L61.1846 13.7552L61.0984 13.6162L61.0127 13.4793L60.9272 13.3445L60.8421 13.2119L60.7574 13.0815L60.673 12.9532L60.5889 12.8272L60.5052 12.7033L60.4218 12.5816L60.3388 12.4621L60.2561 12.3449L60.1738 12.2298L60.0918 12.117L60.0102 12.0064L59.9288 11.898L59.8479 11.7919L59.7672 11.688L59.6869 11.5864L59.607 11.487L59.5274 11.3898L59.4481 11.295L59.3691 11.2024L59.2905 11.1121L59.2123 11.0241L59.1343 10.9384L59.0567 10.8549L58.9795 10.7738L58.9025 10.695L58.8259 10.6184L58.7496 10.5442L58.6737 10.4723L58.598 10.4027L58.5227 10.3354L58.4478 10.2705L58.3731 10.2079L58.2988 10.1476L58.2248 10.0897L58.1511 10.0341L58.0778 9.98084L58.0047 9.92993L57.932 9.88138L57.8596 9.83517L57.7875 9.79133L57.7157 9.74983L57.6442 9.71071L57.5731 9.67395L57.5022 9.63956L57.4317 9.60753L57.3615 9.57788L57.2916 9.5506L57.2219 9.52569L57.1526 9.50316L57.0836 9.48301L57.0149 9.46523L56.9465 9.44985L56.8784 9.43684L56.8106 9.42621L56.7431 9.41798L56.6758 9.41213L56.6089 9.40865L56.5422 9.40758L56.4759 9.40889L56.4098 9.41258L56.344 9.41867L56.2785 9.42715L56.2133 9.43802L56.1483 9.45128L56.0837 9.46693L56.0193 9.48496L55.9552 9.50537L55.8913 9.5282L55.8277 9.5534L55.7645 9.58098L55.7014 9.61096L55.6387 9.64332L55.5762 9.67807L55.5139 9.7152L55.4519 9.7547L55.3902 9.7966L55.3288 9.84087L55.2676 9.88752L55.2066 9.93654L55.1459 9.98794L55.0855 10.0417L55.0253 10.0979L54.9653 10.1564L54.9056 10.2172L54.8462 10.2805L54.7869 10.3461L54.728 10.414L54.6692 10.4843L54.6107 10.557L54.5524 10.632L54.4944 10.7094L54.4366 10.7891L54.379 10.8711L54.3216 10.9555L54.2645 11.0422L54.2076 11.1312L54.1509 11.2226L54.0944 11.3163L54.0381 11.4123L53.9821 11.5106L53.9263 11.6112L53.8706 11.7142L53.8152 11.8194L53.76 11.9269L53.705 12.0367L53.6502 12.1488L53.5956 12.2632L53.5412 12.3798L53.487 12.4987L53.433 12.6199L53.3792 12.7434L53.3255 12.8691L53.2721 12.997L53.2189 13.1272L53.1658 13.2596L53.1129 13.3943L53.0602 13.5312L53.0077 13.6703L52.9553 13.8116L52.9032 13.9551L52.8512 14.1008L52.7994 14.2487L52.7477 14.3988L52.6962 14.551L52.6449 14.7055L52.5938 14.8621L52.5428 15.0208L52.492 15.1818L52.4413 15.3448L52.3908 15.51L52.3404 15.6773L52.2902 15.8467L52.2402 16.0183L52.1903 16.1919L52.1405 16.3677L52.0909 16.5455L52.0414 16.7254L51.9921 16.9074L51.9429 17.0915L51.8939 17.2776L51.845 17.4657L51.7962 17.6559L51.7476 17.8481L51.6991 18.0423L51.6507 18.2386L51.6025 18.4368L51.5544 18.637L51.5064 18.8392L51.4585 19.0434L51.4108 19.2496L51.3631 19.4577L51.3156 19.6677L51.2682 19.8797L51.221 20.0936L51.1738 20.3094L51.1268 20.5271L51.0798 20.7467L51.033 20.9682L50.9863 21.1916L50.9397 21.4168L50.8932 21.6439L50.8468 21.8729L50.8005 22.1036L50.7543 22.3362L50.7082 22.5705L50.6622 22.8067L50.6163 23.0447L50.5705 23.2844L50.5247 23.5259L50.4791 23.7692L50.4336 24.0142L50.3881 24.2609L50.3428 24.5093L50.2975 24.7595L50.2523 25.0113L50.2072 25.2648L50.1622 25.52L50.1173 25.7769L50.0724 26.0354L50.0277 26.2955L49.983 26.5572L49.9384 26.8206L49.8938 27.0855L49.8494 27.3521L49.805 27.6202L49.7607 27.8898L49.7165 28.1611L49.6723 28.4338L49.6282 28.7081L49.5842 28.9838L49.5402 29.2611L49.4964 29.5398L49.4525 29.82L49.3651 30.3848L42.964 90.4859L42.9475 90.7693L42.9314 91.0513L42.9157 91.3318L42.9003 91.6109L42.8854 91.8886L42.8708 92.1648L42.8566 92.4395L42.8428 92.7127L42.8295 92.9844L42.8165 93.2546L42.8039 93.5233L42.7918 93.7904L42.7801 94.056L42.7687 94.32L42.7578 94.5824L42.7474 94.8433L42.7373 95.1025L42.7277 95.3601L42.7186 95.6161L42.7099 95.8705L42.7016 96.1232L42.6937 96.3743L42.6864 96.6237L42.6795 96.8714L42.673 97.1174L42.667 97.3618L42.6615 97.6044L42.6564 97.8453L42.6518 98.0844L42.6477 98.3219L42.6441 98.5575L42.641 98.7914L42.6383 99.0235L42.6362 99.2539L42.6345 99.4824L42.6334 99.7091L42.6327 99.934L42.6326 100.157L42.633 100.378L42.6339 100.598L42.6353 100.815L42.6372 101.031L42.6396 101.245L42.6426 101.457L42.6462 101.667L42.6502 101.875L42.6548 102.081L42.6599 102.286L42.6656 102.488L42.6719 102.688L42.6787 102.887L42.686 103.084L42.6939 103.278L42.7024 103.471L42.7115 103.661L42.7211 103.85L42.7313 104.037L42.7421 104.222L42.7535 104.404L42.7654 104.585L42.778 104.764L42.7911 104.94L42.8048 105.115L42.8192 105.287L42.8341 105.458L42.8497 105.626L42.8658 105.792L42.8826 105.957L42.9 106.119L42.918 106.279L42.9366 106.437L42.9559 106.593L42.9758 106.747L42.9963 106.899L43.0175 107.048L43.0393 107.196L43.0617 107.341L43.0848 107.484L43.1086 107.625L43.133 107.764L43.158 107.901L43.1837 108.036L43.2101 108.168L43.2372 108.298L43.2649 108.426L43.2933 108.552L43.3223 108.676L43.3521 108.798L43.3825 108.917L43.4136 109.034L43.4454 109.149L43.4779 109.262L43.511 109.373L43.5449 109.481L43.5795 109.587L43.6147 109.691L43.6507 109.793L43.6874 109.892L43.7247 109.99L43.7628 110.085L43.8016 110.177L43.8412 110.268L43.8814 110.356L43.9224 110.442L43.9641 110.526L44.0065 110.608L44.0496 110.687L44.0935 110.764L44.1381 110.839L44.1835 110.912L44.2296 110.982L44.2764 111.05L44.324 111.116L44.3723 111.179L44.4213 111.241L44.4712 111.3L44.5217 111.356L44.5731 111.411L44.6251 111.463L44.678 111.513L44.7316 111.56L44.7859 111.606L44.8411 111.649L44.8969 111.69L44.9536 111.728L45.011 111.764L45.0692 111.798L45.1282 111.83L45.188 111.86L45.2485 111.887L45.3098 111.912L45.3719 111.934L45.4348 111.955L45.4984 111.973L45.5628 111.988L45.6281 112.002L45.6941 112.013L45.7609 112.022L45.8285 112.029L45.8969 112.033L45.966 112.035L46.036 112.035L46.1068 112.033L46.1783 112.028L46.2507 112.021L46.3238 112.012L46.3978 112.001L46.4726 111.987L46.5481 111.971L46.6245 111.953L46.7016 111.932L46.7796 111.91L46.8584 111.885L46.938 111.858L47.0184 111.828L47.0996 111.797L47.1816 111.763L47.2644 111.727L47.348 111.689L47.4324 111.648L47.5176 111.605L47.6037 111.56L47.6905 111.513L47.7782 111.464L47.8667 111.412L47.956 111.358L48.0461 111.303L48.137 111.244L48.2287 111.184L48.3212 111.122L48.4145 111.057L48.5087 110.99L48.6036 110.921L48.6994 110.85L48.796 110.776L48.8934 110.701L48.9916 110.623L49.0906 110.544L49.1904 110.462L49.291 110.378L49.3924 110.292L49.4947 110.203L49.5977 110.113L49.7016 110.02L49.8062 109.926L49.9117 109.829L50.0179 109.73L50.125 109.629L50.2328 109.527L50.3415 109.422L50.4509 109.314L50.5612 109.205L50.6722 109.094L50.7841 108.981L50.8967 108.866L51.0101 108.749L51.1243 108.629L51.2394 108.508L51.3551 108.385L51.4717 108.259L51.5891 108.132L51.7072 108.003L51.8262 107.872L51.9459 107.738L52.0664 107.603L52.1876 107.466L52.3097 107.327L52.4325 107.186L52.5561 107.043L52.6804 106.898L52.8055 106.752L52.9314 106.603L53.058 106.452L53.1854 106.3L53.3136 106.146L53.4425 105.99L53.5722 105.832L53.7026 105.672L53.8337 105.51L53.9656 105.346L54.0983 105.181L54.2316 105.014L54.3657 104.845L54.5006 104.674L54.6362 104.502L54.7725 104.327L54.9095 104.151L55.0473 103.974L55.1857 103.794L55.3249 103.613L55.4648 103.43L55.6054 103.245L55.7467 103.059L55.8887 102.87L56.0314 102.681L56.1748 102.489L56.3189 102.296L56.4637 102.101L56.6092 101.905L56.7553 101.707L56.9021 101.507L57.0496 101.306L57.1978 101.103L57.3466 100.899L57.4961 100.693L57.6462 100.485L57.797 100.276L57.9485 100.065L58.1005 99.8532L58.2533 99.6396L58.4066 99.4244L58.5606 99.2077L58.7152 98.9895L58.8705 98.7699L59.0264 98.5488L59.1828 98.3262L59.3399 98.1023L59.4976 97.8769L59.6559 97.6501L59.8148 97.4219L59.9742 97.1923L60.1343 96.9613L60.2949 96.729L60.4561 96.4954L60.6179 96.2604L92.6269 44.6616L92.7646 44.4137L92.9013 44.1669L93.037 43.9212L93.1718 43.6767L93.3055 43.4333L93.4383 43.1911L93.5701 42.95L93.7009 42.7101L93.8307 42.4714L93.9594 42.2339L94.0871 41.9976L94.2138 41.7625L94.3394 41.5286L94.464 41.2959L94.5875 41.0645L94.7099 40.8344L94.8312 40.6055L94.9515 40.3778L95.0706 40.1514L95.1886 39.9264L95.3055 39.7026L95.4213 39.4801L95.536 39.2589L95.6495 39.039L95.7618 38.8205L95.873 38.6033L95.9831 38.3874L96.0919 38.1729L96.1996 37.9597L96.3061 37.7479L96.4114 37.5375L96.5155 37.3284L96.6184 37.1208L96.72 36.9145L96.8205 36.7096L96.9196 36.5062L97.0176 36.3042L97.1143 36.1036L97.2097 35.9044L97.3039 35.7067L97.3968 35.5104L97.4884 35.3155L97.5787 35.1222L97.6677 34.9302L97.7555 34.7398L97.8419 34.5508L97.927 34.3634L98.0108 34.1774L98.0932 33.9929L98.1743 33.81L98.2541 33.6285L98.3325 33.4485L98.4095 33.2701L98.4852 33.0932L98.5595 32.9179L98.6324 32.744L98.704 32.5718L98.7741 32.401L98.8429 32.2319L98.9103 32.0643L98.9762 31.8982L99.0407 31.7338L99.1038 31.5709L99.1655 31.4096L99.2257 31.2498L99.2845 31.0917L99.3418 30.9352L99.3977 30.7803L99.4522 30.6269L99.5051 30.4752L99.5566 30.3251L99.6066 30.1766L99.6551 30.0298L99.7022 29.8846L99.7477 29.7409L99.7918 29.599L99.8343 29.4587L99.8753 29.32L99.9149 29.1829L99.9529 29.0476L99.9893 28.9138L100.024 28.7817L100.058 28.6513L100.09 28.5226L100.12 28.3955L100.149 28.27L100.176 28.1463L100.201 28.0242L100.226 27.9038L100.248 27.7851L100.269 27.6681L100.288 27.5527L100.306 27.4391L100.322 27.3271L100.337 27.2168L100.35 27.1082L100.361 27.0013L100.371 26.8962L100.379 26.7927L100.386 26.6909L100.391 26.5908L100.394 26.4924L100.396 26.3957L100.396 26.3008L100.395 26.2075L100.392 26.116L100.387 26.0261L100.38 25.938L100.372 25.8516L100.363 25.7669L100.351 25.6839L100.338 25.6026L100.324 25.5231L100.307 25.4453L100.289 25.3692L100.27 25.2947L100.248 25.2221L100.225 25.1511L100.201 25.0819L100.174 25.0143L100.147 24.9485L100.117 24.8844L100.086 24.8221L100.053 24.7614L100.018 24.7025L99.9815 24.6452L99.9435 24.5897L99.9038 24.5359L99.8623 24.4839L99.8192 24.4335L99.7744 24.3848L99.728 24.3379L99.6798 24.2927L99.6299 24.2491L99.5783 24.2073L99.5251 24.1672L99.4701 24.1288L99.4135 24.0921L99.3551 24.0571L99.2951 24.0238L99.2333 23.9922L99.1699 23.9623L99.1047 23.9341L99.0379 23.9076L98.9693 23.8827L98.8991 23.8596L98.8272 23.8381L98.7535 23.8183L98.6782 23.8002L98.6011 23.7838L98.5224 23.7691L98.4419 23.756L98.3598 23.7446L98.276 23.7349L98.1904 23.7268L98.1032 23.7204L98.0143 23.7157L97.9236 23.7126L97.8313 23.7111L97.7373 23.7113L97.6416 23.7132L97.5442 23.7167L97.4452 23.7218L97.3444 23.7286L97.2419 23.737L97.1378 23.747L97.032 23.7586L96.9245 23.7719L96.8153 23.7868L96.7045 23.8033L96.592 23.8214L96.4778 23.8411L96.3619 23.8624L96.2444 23.8853L96.1252 23.9097L96.0043 23.9358L95.8818 23.9635L95.7577 23.9927L95.6318 24.0235L95.5044 24.0558L95.3752 24.0898L95.2445 24.1252L95.112 24.1623L94.978 24.2009L94.8423 24.241L94.705 24.2826L94.566 24.3258L94.4255 24.3705L94.2833 24.4168L94.1395 24.4645L93.9941 24.5138L93.847 24.5645L93.6984 24.6168L93.5481 24.6705L93.3963 24.7258L93.2429 24.7825L93.0879 24.8407L92.9313 24.9003L92.7731 24.9615L92.6133 25.024L92.452 25.0881L92.2891 25.1536L92.1247 25.2205L91.9587 25.2888L91.7911 25.3586L91.622 25.4298L91.4514 25.5024L91.2792 25.5764L91.1055 25.6518L90.9303 25.7286L90.7536 25.8068L90.5753 25.8863L90.3956 25.9673L90.2143 26.0496L90.0316 26.1332L89.8473 26.2183L89.6616 26.3046L89.4744 26.3923L89.2858 26.4813L89.0956 26.5717L88.9041 26.6633L88.711 26.7563L88.5166 26.8506L88.3207 26.9462L88.1233 27.043L87.9245 27.1411L87.7244 27.2405L87.5228 27.3412L87.3198 27.4431L87.1154 27.5463L86.9096 27.6507L86.7025 27.7563L86.494 27.8632L86.2841 27.9713L86.0728 28.0806L85.8603 28.1911L85.6463 28.3028L85.4311 28.4156L85.2145 28.5297L84.9966 28.6449L84.7774 28.7613L84.5568 28.8788L84.335 28.9975L84.1119 29.1173L83.8876 29.2382L83.6619 29.3603L83.435 29.4835L83.2069 29.6077L82.9775 29.7331L82.7469 29.8596L82.515 29.9871L82.282 30.1157L82.0477 30.2453L81.8123 30.376L81.5756 30.5078L81.3378 30.6406L81.0988 30.7744L80.8587 30.9092L80.6173 31.045L80.3749 31.1819L80.1313 31.3197L79.8866 31.4585L79.6408 31.5983L79.3939 31.739L28.3771 64.1497L27.9103 64.4784L27.449 64.8048L27.2203 64.9671L26.993 65.1288L26.7671 65.2898L26.5426 65.4503L26.3195 65.6101L26.0978 65.7694L25.8775 65.928L25.6587 66.0859L25.4414 66.2433L25.2255 66.4L25.0111 66.556L24.7982 66.7114L24.5868 66.8662L24.3768 67.0203L24.1685 67.1737L23.9616 67.3265L23.7563 67.4786L23.5526 67.63L23.3504 67.7807L23.1499 67.9307L22.9509 68.0801L22.7535 68.2288L22.5577 68.3768L22.3635 68.524L22.171 68.6706L21.9802 68.8165L21.7909 68.9616L21.6034 69.1061L21.4175 69.2498L21.2333 69.3928L21.0508 69.5351L20.8701 69.6766L20.691 69.8175L20.5137 69.9576L20.3381 70.0969L20.1642 70.2355L19.9921 70.3734L19.8218 70.5105L19.6533 70.6468L19.4865 70.7824L19.3216 70.9173L19.1584 71.0514L18.9971 71.1847L18.8376 71.3173L18.6799 71.4491L18.5241 71.5801L18.3701 71.7104L18.218 71.8398L18.0677 71.9685L17.9193 72.0965L17.7728 72.2236L17.6282 72.35L17.4856 72.4755L17.3448 72.6003L17.2059 72.7243L17.069 72.8475L16.934 72.9699L16.801 73.0915L16.6699 73.2123L16.5407 73.3323L16.4136 73.4515L16.2884 73.5698L16.1652 73.6874L16.044 73.8042L15.9248 73.9201L15.8076 74.0353L15.6924 74.1496L15.5793 74.2632L15.4681 74.3759L15.359 74.4877L15.252 74.5988L15.147 74.7091L15.044 74.8185L14.9431 74.9271L14.8443 75.0349L14.7476 75.1418L14.6529 75.248L14.5603 75.3533L14.4698 75.4577L14.3815 75.5614L14.2952 75.6642L14.211 75.7662L14.129 75.8674L14.0491 75.9677L13.9713 76.0672L13.8956 76.1659L13.8221 76.2637L13.7507 76.3607L13.6815 76.4569L13.6144 76.5522L13.5495 76.6467L13.4867 76.7404L13.4261 76.8332L13.3677 76.9252L13.3115 77.0164L13.2574 77.1067L13.2056 77.1962L13.1559 77.2848L13.1084 77.3727L13.0631 77.4597L13.02 77.5458L12.9792 77.6311L12.9405 77.7156L12.9041 77.7993L12.8698 77.8821L12.8378 77.9641L12.808 78.0453L12.7804 78.1256L12.7551 78.2051L12.732 78.2838L12.7111 78.3616L12.6925 78.4387L12.6761 78.5148L12.662 78.5902L12.6501 78.6647L12.6404 78.7385L12.633 78.8114L12.6278 78.8834L12.6249 78.9547L12.6243 79.0251L12.6259 79.0947L12.6298 79.1635L12.6359 79.2314L12.6443 79.2986L12.6549 79.3649L12.6678 79.4305L12.683 79.4952L12.7004 79.5591L12.7202 79.6222L12.7421 79.6845L12.7664 79.7459L12.7929 79.8066L12.8217 79.8665L12.8527 79.9256L12.886 79.9838L12.9216 80.0413L12.9594 80.098L12.9996 80.1539L13.0419 80.209L13.0866 80.2633L13.1335 80.3168L13.1827 80.3695L13.2342 80.4215L13.2879 80.4726L13.3439 80.523L13.4021 80.5726L13.4626 80.6214L13.5253 80.6695L13.5904 80.7168L13.6576 80.7633L13.7272 80.809L13.799 80.854L13.873 80.8982L13.9493 80.9417L14.0278 80.9844L14.1086 81.0263L14.1916 81.0675L14.2768 81.108L14.3643 81.1476L14.4541 81.1866L14.546 81.2248L14.6402 81.2623L14.7366 81.299L14.8353 81.335L14.9361 81.3703L15.0392 81.4048L15.1445 81.4386L15.252 81.4717L15.3617 81.504L15.4736 81.5357L15.5877 81.5666L15.704 81.5968L15.8224 81.6263L15.9431 81.6552L16.0659 81.6833L16.191 81.7107L16.3181 81.7373L16.4475 81.7634L16.579 81.7887L16.7127 81.8133L16.8485 81.8372L16.9865 81.8605L17.1266 81.8831L17.2689 81.905L17.4133 81.9262L17.5598 81.9468L17.7084 81.9667L17.8592 81.9859L18.012 82.0045L18.167 82.0225L18.324 82.0397L18.4831 82.0564L18.6444 82.0723L18.8077 82.0877L18.973 82.1024L19.1405 82.1164L19.3099 82.1299L19.4815 82.1426L19.655 82.1548L19.8307 82.1664L20.0083 82.1773L20.188 82.1876L20.3697 82.1974L20.5533 82.2065L20.739 82.215L20.9267 82.2229L21.1163 82.2302L21.308 82.2369L21.5016 82.243L21.6971 82.2485L21.8946 82.2535L22.0941 82.2578L22.2955 82.2616L22.4988 82.2649L22.704 82.2675L22.9111 82.2696L23.1202 82.2712L23.3311 82.2721L23.5439 82.2726L23.7586 82.2724L23.9751 82.2718L24.1935 82.2706L24.4138 82.2688L24.6358 82.2666L24.8597 82.2637L25.0854 82.2604L25.313 82.2565L25.5423 82.2522L25.7734 82.2473L26.0063 82.2419L26.2409 82.236L26.4773 82.2295L26.7155 82.2226L26.9553 82.2152L27.197 82.2073L27.4403 82.1989L27.6853 82.19L27.932 82.1807L28.1804 82.1709L28.4305 82.1606L28.6822 82.1498L28.9356 82.1385L29.1906 82.1268L29.4472 82.1147L29.7055 82.1021L29.9653 82.089L30.2268 82.0755L30.4898 82.0615L30.7544 82.0471L31.0205 82.0323L31.2882 82.0171L31.5574 82.0014L31.8282 81.9853L32.1004 81.9687L32.3742 81.9518L32.6494 81.9344L32.9261 81.9167L33.2043 81.8985L33.4839 81.8799L33.7649 81.861L34.0473 81.8416L34.3312 81.8219L94.6539 74.7055L94.9345 74.6587L95.2137 74.6117L95.4913 74.5648L95.7675 74.5178L96.0422 74.4707L96.3154 74.4236L96.5871 74.3765L96.8572 74.3293L97.1258 74.282L97.3928 74.2346L97.6582 74.1873L97.922 74.1398L98.1842 74.0923L98.4449 74.0447L98.7039 73.9971L98.9612 73.9494L99.2169 73.9016L99.4709 73.8538L99.7233 73.8059L99.974 73.758L100.223 73.7099L100.47 73.6618L100.716 73.6137L100.96 73.5654L101.202 73.5171L101.442 73.4687L101.68 73.4203L101.917 73.3718L102.152 73.3231L102.385 73.2745L102.617 73.2257L102.846 73.1768L103.074 73.1279L103.3 73.0789L103.524 73.0298L103.746 72.9806L103.966 72.9313L104.184 72.8819L104.401 72.8325L104.615 72.7829L104.828 72.7333L105.038 72.6836L105.247 72.6337L105.454 72.5838L105.659 72.5338L105.862 72.4836L106.063 72.4334L106.261 72.383L106.458 72.3326L106.653 72.282L106.846 72.2314L107.037 72.1806L107.226 72.1297L107.413 72.0787L107.597 72.0276L107.78 71.9764L107.961 71.925L108.139 71.8735L108.316 71.8219L108.49 71.7702L108.662 71.7184L108.832 71.6664L109 71.6143L109.166 71.5621L109.33 71.5097L109.492 71.4572L109.651 71.4046L109.808 71.3518L109.963 71.2989L110.116 71.2458L110.267 71.1926L110.416 71.1393L110.562 71.0858L110.707 71.0322L110.849 70.9784L110.988 70.9245L111.126 70.8704L111.261 70.8161L111.395 70.7617L111.525 70.7071L111.654 70.6524L111.781 70.5975L111.905 70.5425L112.027 70.4872L112.146 70.4318L112.264 70.3763L112.379 70.3205L112.492 70.2646L112.602 70.2085L112.71 70.1523L112.816 70.0958L112.92 70.0392L113.021 69.9824L113.12 69.9254L113.217 69.8682L113.312 69.8108L113.404 69.7532L113.493 69.6955L113.581 69.6375L113.666 69.5794L113.749 69.521L113.829 69.4624L113.907 69.4037L113.983 69.3447L114.056 69.2856L114.128 69.2262L114.196 69.1666L114.263 69.1068L114.326 69.0468L114.388 68.9865L114.447 68.9261L114.504 68.8654L114.559 68.8045L114.611 68.7434L114.661 68.6821L114.708 68.6205L114.753 68.5587L114.795 68.4967L114.836 68.4345L114.873 68.372L114.909 68.3092L114.942 68.2463L114.973 68.1831L115.001 68.1196L115.027 68.0559L115.05 67.992L115.071 67.9278L115.09 67.8634L115.106 67.7987L115.12 67.7338L115.132 67.6686L115.141 67.6032L115.148 67.5375L115.152 67.4716L115.154 67.4054L115.154 67.3389L115.151 67.2722L115.146 67.2052L115.138 67.1379L115.128 67.0704L115.116 67.0026L115.101 66.9345L115.084 66.8662L115.064 66.7976L115.042 66.7287L115.018 66.6595L114.991 66.5901L114.962 66.5204L114.931 66.4504L114.897 66.3801L114.861 66.3095L114.822 66.2387L114.781 66.1675L114.738 66.0961L114.692 66.0244L114.644 65.9524L114.594 65.8801L114.541 65.8075L114.486 65.7346L114.429 65.6615L114.369 65.588L114.307 65.5142L114.243 65.4401L114.176 65.3658L114.107 65.2911L114.035 65.2161L113.962 65.1409L113.886 65.0653L113.807 64.9894L113.727 64.9132L113.644 64.8368L113.558 64.76L113.471 64.6829L113.381 64.6054L113.289 64.5277L113.194 64.4497L113.098 64.3713L112.999 64.2927L112.897 64.2137L112.794 64.1344L112.688 64.0548L112.58 63.9749L112.47 63.8946L112.358 63.8141L112.243 63.7332L112.126 63.652L112.007 63.5705L111.885 63.4887L111.762 63.4066L111.636 63.3241L111.508 63.2413L111.378 63.1582L111.246 63.0748L111.111 62.991L110.975 62.907L110.836 62.8226L110.695 62.7379L110.552 62.6528L110.407 62.5675L110.259 62.4818L110.11 62.3958L109.958 62.3094L109.805 62.2228L109.649 62.1358L109.491 62.0485L109.331 61.9609L109.169 61.873L109.005 61.7847L108.839 61.6961L108.671 61.6072L108.501 61.518L108.328 61.4284L108.154 61.3385L107.978 61.2483L107.8 61.1578L107.619 61.067L107.437 60.9758L107.253 60.8843L107.067 60.7925L106.879 60.7004L106.689 60.6079L106.497 60.5152L106.303 60.4221L106.107 60.3287L105.909 60.235L105.71 60.141L105.508 60.0466L105.305 59.952L105.1 59.857L104.893 59.7617L104.684 59.6661L104.473 59.5702L104.26 59.474L104.046 59.3775L103.83 59.2807L103.612 59.1835L103.392 59.0861L103.171 58.9883L102.947 58.8903L102.722 58.7919L102.495 58.6933L102.267 58.5943L102.037 58.4951L101.805 58.3955L101.571 58.2957L101.336 58.1956L101.099 58.0951L100.861 57.9944L100.621 57.8934L100.379 57.7921L100.135 57.6905L99.8904 57.5886L99.6438 57.4865L99.3957 57.3841L99.1459 57.2814L98.8946 57.1784L98.6418 57.0751L98.3875 56.9716L98.1316 56.8678L97.8742 56.7637L97.6154 56.6593L97.3551 56.5547L97.0933 56.4498L96.83 56.3447L96.5654 56.2393L39.6637 36.6485L39.3882 36.5678L38.841 36.4084L38.5693 36.3296L38.299 36.2516L38.0299 36.1743L37.7622 36.0977L37.4959 36.0217L37.2309 35.9465L36.9672 35.872L36.705 35.7983L36.4441 35.7252L36.1846 35.6529L35.9266 35.5814L35.6699 35.5106L35.4147 35.4405L35.1609 35.3712L34.9086 35.3027L34.6577 35.235L34.4083 35.168L34.1604 35.1018L33.914 35.0365L33.6691 34.9719L33.4257 34.9081L33.1839 34.8452L32.9435 34.783L32.7048 34.7217L32.4675 34.6612L32.2319 34.6016L31.9978 34.5428L31.7652 34.4848L31.5343 34.4277L31.305 34.3714L31.0773 34.3161L30.8512 34.2615L30.6268 34.2079L30.4039 34.1552L30.1828 34.1033L29.9633 34.0524L29.7454 34.0023L29.5293 33.9532L29.3148 33.9049L29.102 33.8576L28.8909 33.8112L28.6815 33.7657L28.4738 33.7212L28.2678 33.6776L28.0636 33.6349L27.8611 33.5932L27.6604 33.5525L27.4614 33.5127L27.2642 33.4739L27.0688 33.4361L26.8751 33.3992L26.6832 33.3634L26.4931 33.3285L26.3048 33.2946L26.1183 33.2617L25.9337 33.2298L25.7508 33.199L25.5698 33.1691L25.3906 33.1403L25.2133 33.1125L25.0378 33.0857L24.8641 33.0599L24.6923 33.0352L24.5224 33.0116L24.3543 32.989L24.1882 32.9674L24.0239 32.9469L23.8615 32.9275L23.701 32.9091L23.5424 32.8919L23.3857 32.8757L23.2309 32.8605L23.078 32.8465L22.927 32.8336L22.778 32.8217L22.6309 32.811L22.4858 32.8013L22.3425 32.7928L22.2013 32.7854L22.062 32.7791L21.9246 32.7739L21.7892 32.7699L21.6557 32.767L21.5243 32.7652L21.3948 32.7646L21.2672 32.7651L21.1417 32.7667L21.0181 32.7695L20.8965 32.7735L20.777 32.7786L20.6594 32.7849L20.5438 32.7923L20.4302 32.8009L20.3186 32.8107L20.209 32.8217L20.1014 32.8338L19.9959 32.8471L19.8923 32.8617L19.7908 32.8774L19.6913 32.8942L19.5938 32.9123L19.4983 32.9316L19.4049 32.9521L19.3135 32.9738L19.2241 32.9968L19.1367 33.0209L19.0514 33.0462L18.9681 33.0728L18.8869 33.1006L18.8077 33.1296L18.7305 33.1598L18.6554 33.1913L18.5824 33.2239L18.5113 33.2579L18.4423 33.293L18.3754 33.3294L18.3105 33.3671L18.2477 33.406L18.1869 33.4461L18.1281 33.4875L18.0714 33.5301L18.0168 33.574L17.9642 33.6191L17.9136 33.6655L17.8651 33.7131L17.8186 33.762L17.7742 33.8122L17.7319 33.8636L17.6915 33.9163L17.6533 33.9703L17.6171 34.0255" stroke="#ECECEC" stroke-width="4"/>
</g>
<defs>
<clipPath id="clip0_1233_10884">
<rect width="120" height="120" fill="white"/>
</clipPath>
</defs>
</svg>
