<svg width="120" height="120" viewBox="0 0 120 120" fill="none" xmlns="http://www.w3.org/2000/svg">
<g clip-path="url(#clip0_1232_10736)">
<path d="M17.6107 34.0359L17.5769 34.0926L17.5451 34.1506L17.5154 34.2099L17.4878 34.2705L17.4621 34.3323L17.4385 34.3954L17.417 34.4598L17.3975 34.5254L17.38 34.5923L17.3645 34.6606L17.3511 34.7301L17.3397 34.8008L17.3304 34.8729L17.3231 34.9462L17.3177 35.0208L17.3144 35.0967L17.3132 35.1739L17.3139 35.2524L17.3167 35.3321L17.3214 35.4132L17.3282 35.4955L17.337 35.5791L17.3478 35.664L17.3606 35.7502L17.3753 35.8376L17.3921 35.9264L17.4109 36.0164L17.4316 36.1077L17.4543 36.2003L17.479 36.2942L17.5057 36.3893L17.5344 36.4858L17.565 36.5835L17.5976 36.6825L17.6321 36.7828L17.6686 36.8843L17.707 36.9872L17.7474 37.0913L17.7898 37.1967L17.834 37.3033L17.8802 37.4113L17.9283 37.5205L17.9784 37.6309L18.0303 37.7427L18.0842 37.8557L18.14 37.97L18.1977 38.0855L18.2573 38.2023L18.3188 38.3204L18.3821 38.4397L18.4473 38.5602L18.5145 38.6821L18.5834 38.8052L18.6543 38.9295L18.727 39.0551L18.8016 39.1819L18.878 39.3099L18.9562 39.4393L19.0363 39.5698L19.1182 39.7016L19.2019 39.8346L19.2874 39.9688L19.3748 40.1043L19.4639 40.241L19.5548 40.3789L19.6475 40.518L19.7421 40.6584L19.8383 40.7999L19.9364 40.9427L20.0362 41.0867L20.1377 41.2318L20.241 41.3782L20.3461 41.5258L20.4528 41.6745L20.5613 41.8245L20.6715 41.9756L20.7834 42.1279L20.897 42.2814L21.0123 42.4361L21.1293 42.5919L21.2479 42.7489L21.3683 42.907L21.4902 43.0663L21.6139 43.2268L21.7391 43.3884L21.8661 43.5511L21.9946 43.715L22.1248 43.88L22.2565 44.0462L22.3899 44.2134L22.5249 44.3818L22.6614 44.5513L22.7995 44.7219L22.9392 44.8936L23.0804 45.0664L23.2232 45.2403L23.3676 45.4153L23.5134 45.5914L23.6608 45.7685L23.8097 45.9468L23.9601 46.126L24.112 46.3064L24.2653 46.4878L24.4202 46.6702L24.5765 46.8538L24.7342 47.0383L24.8934 47.2238L25.0541 47.4104L25.2162 47.598L25.3796 47.7867L25.5445 47.9763L25.7108 48.1669L25.8785 48.3586L26.0475 48.5512L26.218 48.7448L26.3897 48.9394L26.5628 49.1349L26.7373 49.3314L26.9131 49.5289L27.0902 49.7273L27.2686 49.9266L27.4483 50.1269L27.6292 50.3281L27.8115 50.5302L27.995 50.7333L28.1798 50.9372L28.3658 51.142L28.553 51.3478L28.7415 51.5544L28.9311 51.7619L29.122 51.9703L29.314 52.1795L29.5072 52.3896L72.5041 94.904L72.7162 95.0946L72.9274 95.2841L73.1377 95.4724L73.3471 95.6595L73.5557 95.8454L73.7633 96.03L73.97 96.2135L74.1759 96.3957L74.3808 96.5767L74.5847 96.7564L74.7878 96.9349L74.9899 97.1121L75.191 97.288L75.3912 97.4626L75.5904 97.6359L75.7887 97.8079L75.9859 97.9785L76.1822 98.1478L76.3775 98.3158L76.5718 98.4824L76.7651 98.6477L76.9574 98.8116L77.1487 98.974L77.3389 99.1351L77.5281 99.2948L77.7163 99.4531L77.9034 99.6099L78.0895 99.7653L78.2746 99.9193L78.4585 100.072L78.6414 100.223L78.8233 100.372L79.004 100.52L79.1837 100.667L79.3622 100.812L79.5397 100.956L79.7161 101.098L79.8914 101.238L80.0655 101.377L80.2386 101.515L80.4105 101.651L80.5813 101.785L80.751 101.918L80.9195 102.049L81.0869 102.179L81.2531 102.306L81.4182 102.433L81.5821 102.558L81.7449 102.681L81.9065 102.802L82.0669 102.922L82.2262 103.04L82.3843 103.157L82.5412 103.272L82.6969 103.385L82.8514 103.497L83.0047 103.607L83.1568 103.715L83.3078 103.821L83.4575 103.926L83.606 104.029L83.7532 104.13L83.8993 104.23L84.0442 104.328L84.1878 104.424L84.3302 104.518L84.4713 104.611L84.6112 104.702L84.7499 104.791L84.8874 104.878L85.0236 104.963L85.1585 105.047L85.2922 105.129L85.4247 105.209L85.5559 105.287L85.6858 105.364L85.8145 105.438L85.9419 105.511L86.068 105.582L86.1929 105.651L86.3165 105.718L86.4388 105.784L86.5599 105.847L86.6796 105.909L86.7981 105.969L86.9153 106.026L87.0313 106.083L87.1459 106.137L87.2593 106.189L87.3713 106.239L87.4821 106.288L87.5916 106.334L87.6998 106.379L87.8067 106.421L87.9123 106.462L88.0166 106.501L88.1196 106.538L88.2214 106.573L88.3218 106.606L88.4209 106.637L88.5187 106.666L88.6152 106.693L88.7104 106.719L88.8043 106.742L88.8969 106.763L88.9882 106.783L89.0782 106.8L89.1669 106.815L89.2542 106.829L89.3403 106.84L89.4251 106.85L89.5085 106.857L89.5907 106.863L89.6715 106.866L89.751 106.868L89.8293 106.867L89.9062 106.865L89.9818 106.86L90.0561 106.853L90.1291 106.845L90.2008 106.834L90.2712 106.822L90.3403 106.807L90.4081 106.791L90.4746 106.772L90.5398 106.751L90.6037 106.729L90.6663 106.704L90.7276 106.677L90.7876 106.649L90.8463 106.618L90.9037 106.585L90.9598 106.55L91.0146 106.513L91.0681 106.475L91.1204 106.434L91.1713 106.391L91.221 106.346L91.2694 106.299L91.3165 106.25L91.3623 106.199L91.4068 106.145L91.4501 106.09L91.4921 106.033L91.5328 105.974L91.5723 105.913L91.6105 105.849L91.6474 105.784L91.683 105.717L91.7174 105.647L91.7505 105.576L91.7824 105.502L91.813 105.427L91.8424 105.349L91.8705 105.27L91.8974 105.188L91.923 105.105L91.9474 105.019L91.9706 104.932L91.9925 104.842L92.0132 104.75L92.0326 104.657L92.0509 104.561L92.0679 104.463L92.0837 104.364L92.0983 104.262L92.1116 104.158L92.1238 104.052L92.1347 103.945L92.1445 103.835L92.153 103.723L92.1604 103.61L92.1665 103.494L92.1715 103.376L92.1753 103.257L92.1779 103.135L92.1793 103.011L92.1796 102.886L92.1786 102.758L92.1766 102.629L92.1733 102.497L92.1689 102.364L92.1634 102.229L92.1567 102.091L92.1489 101.952L92.1399 101.811L92.1298 101.668L92.1185 101.523L92.1061 101.376L92.0926 101.227L92.078 101.076L92.0623 100.923L92.0455 100.769L92.0275 100.612L92.0085 100.454L91.9883 100.294L91.9671 100.131L91.9448 99.9674L91.9214 99.8015L91.8969 99.6337L91.8714 99.4641L91.8448 99.2926L91.8171 99.1192L91.7884 98.944L91.7586 98.767L91.7278 98.5882L91.6959 98.4075L91.663 98.225L91.6291 98.0407L91.5941 97.8546L91.5582 97.6667L91.5212 97.477L91.4832 97.2856L91.4442 97.0923L91.4042 96.8973L91.3632 96.7006L91.3212 96.5021L91.2783 96.3018L91.2343 96.0998L91.1894 95.8961L91.1435 95.6906L91.0967 95.4835L91.0489 95.2746L91.0002 95.0641L90.9505 94.8518L90.8999 94.6379L90.8483 94.4223L90.7959 94.205L90.7425 93.9861L90.6882 93.7656L90.633 93.5434L90.5768 93.3195L90.5198 93.0941L90.4619 92.867L90.4032 92.6384L90.3435 92.4081L90.283 92.1763L90.2216 91.9429L90.1593 91.7079L90.0962 91.4714L90.0322 91.2333L89.9674 90.9937L89.9018 90.7526L89.8353 90.51L89.7681 90.2658L89.6999 90.0202L89.631 89.773L89.5613 89.5244L89.4908 89.2744L89.4195 89.0228L89.3474 88.7699L89.2745 88.5155L89.2009 88.2597L89.1265 88.0024L89.0513 87.7438L88.9754 87.4838L88.8987 87.2224L88.8213 86.9596L88.7432 86.6955L88.6643 86.43L88.5847 86.1632L88.5044 85.8951L88.4234 85.6256L88.3417 85.3549L88.1762 84.8096L67.8741 27.8648L67.7658 27.6014L67.6577 27.3394L67.55 27.0789L67.4425 26.8198L67.3353 26.5622L67.2284 26.3061L67.1217 26.0514L67.0154 25.7983L66.9094 25.5467L66.8036 25.2967L66.6981 25.0482L66.593 24.8012L66.4881 24.5558L66.3835 24.312L66.2793 24.0698L66.1753 23.8292L66.0717 23.5903L65.9683 23.3529L65.8653 23.1172L65.7626 22.8832L65.6601 22.6508L65.558 22.4202L65.4563 22.1912L65.3548 21.9639L65.2536 21.7383L65.1528 21.5145L65.0523 21.2924L64.9521 21.072L64.8522 20.8535L64.7527 20.6366L64.6535 20.4216L64.5546 20.2084L64.4561 19.9969L64.3578 19.7873L64.2599 19.5795L64.1624 19.3736L64.0652 19.1695L63.9682 18.9673L63.8717 18.7669L63.7755 18.5684L63.6796 18.3718L63.584 18.1771L63.4888 17.9843L63.3939 17.7934L63.2994 17.6045L63.2052 17.4175L63.1113 17.2324L63.0178 17.0493L62.9246 16.8682L62.8318 16.689L62.7393 16.5118L62.6472 16.3367L62.5554 16.1635L62.4639 15.9924L62.3728 15.8232L62.2821 15.6561L62.1916 15.4911L62.1016 15.3281L62.0118 15.1671L61.9225 15.0082L61.8334 14.8514L61.7447 14.6967L61.6564 14.544L61.5684 14.3935L61.4807 14.2451L61.3934 14.0988L61.3065 13.9546L61.2199 13.8125L61.1336 13.6726L61.0477 13.5348L60.9621 13.3991L60.8769 13.2657L60.792 13.1344L60.7074 13.0052L60.6233 12.8783L60.5394 12.7535L60.4559 12.6309L60.3727 12.5105L60.2899 12.3924L60.2074 12.2764L60.1253 12.1627L60.0435 12.0512L59.9621 11.9419L59.8809 11.8348L59.8002 11.73L59.7197 11.6275L59.6396 11.5272L59.5599 11.4291L59.4805 11.3334L59.4014 11.2399L59.3226 11.1486L59.2442 11.0597L59.1662 10.973L59.0884 10.8887L59.011 10.8066L58.9339 10.7268L58.8572 10.6493L58.7808 10.5742L58.7047 10.5013L58.6289 10.4308L58.5535 10.3626L58.4784 10.2967L58.4036 10.2331L58.3292 10.1719L58.255 10.113L58.1812 10.0565L58.1077 10.0022L58.0346 9.95038L57.9617 9.90087L57.8892 9.85371L57.8169 9.80891L57.745 9.76645L57.6734 9.72636L57.6022 9.68864L57.5312 9.65329L57.4605 9.6203L57.3902 9.58968L57.3201 9.56142L57.2504 9.53555L57.181 9.51206L57.1118 9.49092L57.043 9.47219L56.9745 9.45582L56.9062 9.44184L56.8383 9.43026L56.7706 9.42104L56.7033 9.41422L56.6362 9.40978L56.5695 9.40773L56.503 9.40807L56.4368 9.4108L56.3709 9.41591L56.3053 9.42342L56.2399 9.43331L56.1749 9.44559L56.1101 9.46026L56.0456 9.47732L55.9814 9.49678L55.9174 9.51861L55.8537 9.54284L55.7903 9.56946L55.7272 9.59846L55.6643 9.62985L55.6017 9.66362L55.5394 9.69978L55.4773 9.73833L55.4155 9.77924L55.3539 9.82255L55.2926 9.86823L55.2315 9.91629L55.1707 9.96671L55.1102 10.0195L55.0499 10.0747L54.9898 10.1322L54.93 10.1922L54.8705 10.2544L54.8112 10.3191L54.7521 10.3861L54.6932 10.4554L54.6346 10.5271L54.5763 10.6012L54.5181 10.6776L54.4602 10.7563L54.4025 10.8374L54.3451 10.9208L54.2878 11.0066L54.2308 11.0947L54.1741 11.1851L54.1175 11.2778L54.0611 11.3729L54.005 11.4703L53.9491 11.57L53.8934 11.6719L53.8379 11.7762L53.7826 11.8828L53.7275 11.9917L53.6726 12.1029L53.6179 12.2163L53.5634 12.332L53.5092 12.45L53.4551 12.5703L53.4012 12.6928L53.3475 12.8176L53.294 12.9446L53.2406 13.0739L53.1875 13.2054L53.1346 13.3392L53.0818 13.4751L53.0292 13.6133L52.9768 13.7537L52.9245 13.8964L52.8725 14.0412L52.8206 14.1882L52.7689 14.3374L52.7173 14.4888L52.6659 14.6423L52.6147 14.798L52.5637 14.9559L52.5128 15.116L52.462 15.2781L52.4115 15.4425L52.361 15.6089L52.3108 15.7775L52.2607 15.9482L52.2107 16.121L52.1609 16.2958L52.1112 16.4728L52.0617 16.6519L52.0123 16.833L51.9631 17.0162L51.914 17.2015L51.865 17.3888L51.8162 17.5782L51.7675 17.7696L51.719 17.963L51.6705 18.1584L51.6222 18.3558L51.5741 18.5552L51.526 18.7566L51.4781 18.96L51.4303 19.1654L51.3826 19.3727L51.3351 19.5819L51.2877 19.7931L51.2403 20.0062L51.1931 20.2213L51.146 20.4382L51.0991 20.6571L51.0522 20.8778L51.0054 21.1004L50.9588 21.3249L50.9122 21.5512L50.8658 21.7794L50.8194 22.0094L50.7732 22.2412L50.7271 22.4749L50.681 22.7103L50.6351 22.9475L50.5892 23.1865L50.5435 23.4273L50.4978 23.6699L50.4522 23.9142L50.4068 24.1602L50.3614 24.4079L50.3161 24.6574L50.2708 24.9085L50.2257 25.1614L50.1807 25.4159L50.1357 25.672L50.0908 25.9299L50.046 26.1893L50.0013 26.4504L49.9567 26.7131L49.9121 26.9774L49.8676 27.2433L49.8232 27.5108L49.7789 27.7798L49.7346 28.0504L49.6904 28.3225L49.6463 28.5962L49.6022 28.8713L49.5582 29.148L49.5143 29.4261L49.4267 29.9868L49.383 30.2693L42.9543 90.654L42.938 90.9366L42.9221 91.2177L42.9066 91.4974L42.8915 91.7757L42.8768 92.0524L42.8625 92.3278L42.8485 92.6016L42.835 92.8739L42.8219 93.1447L42.8091 93.414L42.7968 93.6818L42.7849 93.948L42.7734 94.2126L42.7623 94.4757L42.7517 94.7372L42.7415 94.9971L42.7317 95.2554L42.7224 95.512L42.7135 95.7671L42.705 96.0205L42.697 96.2722L42.6895 96.5223L42.6823 96.7707L42.6757 97.0174L42.6695 97.2625L42.6638 97.5058L42.6585 97.7474L42.6538 97.9872L42.6495 98.2254L42.6457 98.4617L42.6423 98.6963L42.6395 98.9292L42.6371 99.1603L42.6353 99.3895L42.6339 99.617L42.6331 99.8426L42.6327 100.066L42.6329 100.288L42.6336 100.509L42.6348 100.727L42.6365 100.943L42.6387 101.158L42.6415 101.371L42.6448 101.582L42.6486 101.79L42.653 101.998L42.6579 102.203L42.6634 102.406L42.6694 102.607L42.676 102.806L42.6831 103.004L42.6908 103.199L42.699 103.393L42.7078 103.584L42.7172 103.774L42.7272 103.961L42.7378 104.147L42.7489 104.33L42.7606 104.512L42.7729 104.691L42.7858 104.868L42.7993 105.044L42.8134 105.217L42.8281 105.389L42.8434 105.558L42.8593 105.725L42.8758 105.89L42.8929 106.053L42.9107 106.214L42.9291 106.373L42.9481 106.53L42.9677 106.684L42.988 106.837L43.0089 106.987L43.0304 107.136L43.0526 107.282L43.0755 107.426L43.0989 107.568L43.1231 107.708L43.1479 107.845L43.1733 107.981L43.1994 108.114L43.2262 108.245L43.2536 108.374L43.2817 108.501L43.3105 108.626L43.34 108.748L43.3701 108.869L43.401 108.987L43.4325 109.103L43.4647 109.216L43.4976 109.328L43.5311 109.437L43.5654 109.544L43.6004 109.649L43.6361 109.752L43.6725 109.852L43.7096 109.95L43.7474 110.046L43.7859 110.14L43.8251 110.231L43.8651 110.321L43.9057 110.408L43.9471 110.492L43.9892 110.575L44.0321 110.655L44.0757 110.733L44.12 110.809L44.165 110.882L44.2108 110.954L44.2573 111.023L44.3046 111.089L44.3526 111.154L44.4014 111.216L44.4509 111.276L44.5012 111.333L44.5522 111.389L44.6039 111.442L44.6565 111.493L44.7098 111.541L44.7638 111.588L44.8186 111.632L44.8742 111.673L44.9306 111.713L44.9877 111.75L45.0456 111.785L45.1042 111.818L45.1637 111.848L45.2239 111.876L45.2849 111.902L45.3466 111.925L45.4092 111.947L45.4725 111.965L45.5366 111.982L45.6015 111.997L45.6672 112.009L45.7337 112.019L45.801 112.026L45.869 112.032L45.9379 112.035L46.0075 112.035L46.078 112.034L46.1492 112.03L46.2212 112.024L46.2941 112.016L46.3677 112.006L46.4421 111.993L46.5174 111.978L46.5934 111.961L46.6702 111.941L46.7479 111.919L46.8263 111.895L46.9056 111.869L46.9856 111.841L47.0665 111.81L47.1482 111.777L47.2307 111.742L47.3139 111.704L47.398 111.665L47.4829 111.623L47.5687 111.579L47.6552 111.533L47.7425 111.484L47.8307 111.434L47.9196 111.381L48.0094 111.326L48.1 111.268L48.1913 111.209L48.2835 111.147L48.3765 111.083L48.4704 111.018L48.565 110.949L48.6604 110.879L48.7567 110.807L48.8537 110.732L48.9516 110.655L49.0503 110.576L49.1498 110.495L49.25 110.412L49.3511 110.327L49.4531 110.239L49.5558 110.15L49.6593 110.058L49.7636 109.965L49.8687 109.869L49.9746 109.771L50.0814 109.671L50.1889 109.569L50.2972 109.465L50.4064 109.358L50.5163 109.25L50.627 109.14L50.7385 109.027L50.8508 108.913L50.9639 108.797L51.0778 108.678L51.1925 108.558L51.308 108.435L51.4243 108.311L51.5413 108.184L51.6591 108.056L51.7778 107.925L51.8971 107.793L52.0173 107.659L52.1383 107.522L52.26 107.384L52.3825 107.244L52.5057 107.102L52.6298 106.958L52.7546 106.812L52.8802 106.664L53.0065 106.514L53.1336 106.362L53.2614 106.209L53.39 106.053L53.5194 105.896L53.6495 105.737L53.7803 105.576L53.9119 105.413L54.0443 105.249L54.1773 105.082L54.3111 104.914L54.4457 104.744L54.581 104.572L54.717 104.399L54.8537 104.223L54.9912 104.046L55.1294 103.867L55.2682 103.687L55.4078 103.504L55.5482 103.32L55.6892 103.135L55.8309 102.947L55.9733 102.758L56.1164 102.567L56.2603 102.375L56.4048 102.181L56.5499 101.985L56.6958 101.788L56.8424 101.589L56.9896 101.388L57.1375 101.186L57.286 100.982L57.4352 100.777L57.5851 100.57L57.7356 100.361L57.8868 100.151L58.0386 99.9399L58.1911 99.7268L58.3442 99.5122L58.4979 99.2961L58.6523 99.0786L58.8073 98.8595L58.9629 98.639L59.1191 98.4171L59.276 98.1937L59.4334 97.9689L59.5914 97.7426L59.7501 97.515L59.9093 97.286L60.0691 97.0556L60.2295 96.8238L60.3905 96.5907L92.4317 45.0123L92.5707 44.7629L92.7087 44.5145L92.8458 44.2673L92.9819 44.0212L93.1171 43.7762L93.2513 43.5323L93.3845 43.2896L93.5167 43.0481L93.6479 42.8077L93.7781 42.5685L93.9072 42.3305L94.0353 42.0937L94.1624 41.8581L94.2885 41.6237L94.4135 41.3906L94.5374 41.1586L94.6603 40.928L94.782 40.6986L94.9027 40.4704L95.0223 40.2435L95.1408 40.0179L95.2582 39.7936L95.3744 39.5705L95.4895 39.3488L95.6035 39.1284L95.7163 38.9093L95.828 38.6916L95.9385 38.4752L96.0479 38.2601L96.156 38.0464L96.263 37.834L96.3688 37.623L96.4734 37.4134L96.5767 37.2052L96.6789 36.9984L96.7798 36.7929L96.8795 36.5889L96.978 36.3863L97.0752 36.1851L97.1711 35.9854L97.2658 35.787L97.3592 35.5901L97.4513 35.3947L97.5422 35.2008L97.6318 35.0082L97.72 34.8172L97.807 34.6276L97.8926 34.4396L97.9769 34.253L98.0599 34.0679L98.1416 33.8843L98.2219 33.7022L98.3008 33.5217L98.3784 33.3426L98.4547 33.1651L98.5295 32.9891L98.603 32.8147L98.6751 32.6418L98.7459 32.4704L98.8152 32.3006L98.8831 32.1323L98.9496 31.9657L99.0147 31.8006L99.0784 31.637L99.1407 31.4751L99.2015 31.3147L99.2609 31.1559L99.3188 30.9988L99.3753 30.8432L99.4303 30.6892L99.4838 30.5368L99.5359 30.3861L99.5866 30.2369L99.6357 30.0894L99.6833 29.9435L99.7295 29.7992L99.7741 29.6566L99.8173 29.5156L99.8589 29.3763L99.8991 29.2386L99.9377 29.1025L99.9748 28.9681L100.01 28.8353L100.044 28.7042L100.077 28.5748L100.108 28.447L100.137 28.3209L100.165 28.1965L100.191 28.0737L100.216 27.9527L100.239 27.8333L100.261 27.7155L100.281 27.5995L100.299 27.4852L100.316 27.3725L100.331 27.2615L100.345 27.1523L100.357 27.0447L100.368 26.9388L100.376 26.8346L100.384 26.7321L100.389 26.6314L100.393 26.5323L100.396 26.4349L100.396 26.3392L100.396 26.2453L100.393 26.153L100.389 26.0625L100.383 25.9737L100.376 25.8866L100.367 25.8012L100.356 25.7175L100.344 25.6355L100.33 25.5553L100.314 25.4768L100.297 25.3999L100.278 25.3248L100.257 25.2515L100.235 25.1798L100.211 25.1099L100.186 25.0416L100.158 24.9751L100.129 24.9103L100.099 24.8473L100.066 24.7859L100.032 24.7263L99.9967 24.6683L99.9593 24.6121L99.9203 24.5576L99.8795 24.5049L99.8371 24.4538L99.793 24.4045L99.7472 24.3568L99.6997 24.3109L99.6506 24.2667L99.5997 24.2241L99.5471 24.1833L99.4928 24.1442L99.4369 24.1068L99.3792 24.0712L99.3199 24.0372L99.2588 24.0049L99.1961 23.9743L99.1316 23.9454L99.0654 23.9182L98.9976 23.8926L98.928 23.8688L98.8568 23.8466L98.7838 23.8262L98.7092 23.8074L98.6328 23.7903L98.5548 23.7749L98.475 23.7611L98.3936 23.7491L98.3104 23.7386L98.2256 23.7299L98.139 23.7228L98.0508 23.7174L97.9609 23.7136L97.8693 23.7115L97.7759 23.7111L97.6809 23.7122L97.5842 23.7151L97.4858 23.7195L97.3858 23.7256L97.284 23.7333L97.1806 23.7427L97.0754 23.7537L96.9686 23.7663L96.8601 23.7805L96.75 23.7964L96.6381 23.8138L96.5246 23.8328L96.4094 23.8535L96.2926 23.8757L96.1741 23.8996L96.0539 23.925L95.9321 23.952L95.8086 23.9806L95.6834 24.0107L95.5566 24.0425L95.4281 24.0758L95.298 24.1106L95.1663 24.147L95.0329 24.185L94.8979 24.2244L94.7612 24.2655L94.623 24.308L94.483 24.3521L94.3415 24.3977L94.1984 24.4449L94.0536 24.4935L93.9072 24.5437L93.7593 24.5953L93.6097 24.6484L93.4585 24.7031L93.3057 24.7592L93.1513 24.8168L92.9954 24.8759L92.8378 24.9364L92.6787 24.9984L92.518 25.0618L92.3558 25.1267L92.192 25.193L92.0266 25.2608L91.8597 25.33L91.6912 25.4006L91.5212 25.4726L91.3497 25.5461L91.1766 25.6209L91.002 25.6971L90.8259 25.7748L90.6482 25.8538L90.4691 25.9341L90.2885 26.0159L90.1063 26.099L89.9227 26.1835L89.7376 26.2693L89.551 26.3564L89.3629 26.4449L89.1734 26.5347L88.9824 26.6258L88.79 26.7183L88.5961 26.812L88.4007 26.9071L88.204 27.0034L88.0058 27.101L87.8062 27.1999L87.6052 27.3L87.4028 27.4015L87.199 27.5041L86.9938 27.608L86.7872 27.7132L86.5792 27.8195L86.3699 27.9271L86.1592 28.0359L85.9471 28.1459L85.7338 28.2571L85.519 28.3695L85.303 28.4831L85.0856 28.5978L84.8669 28.7137L84.6469 28.8308L84.4257 28.949L84.2031 29.0684L83.9792 29.1888L83.7541 29.3104L83.5277 29.4332L83.3001 29.557L83.0712 29.6819L82.8411 29.8079L82.6098 29.935L82.3772 30.0632L82.1434 30.1924L81.9084 30.3227L81.6723 30.454L81.4349 30.5864L81.1964 30.7198L80.9567 30.8542L80.7159 30.9896L80.4739 31.126L80.2308 31.2634L79.9866 31.4019L79.7412 31.5412L79.4948 31.6816L79.2472 31.8229L28.4729 64.0825L28.2383 64.2474L28.0051 64.4117L27.5426 64.7385L27.3134 64.901L27.0855 65.063L26.8591 65.2243L26.634 65.385L26.4103 65.5451L26.188 65.7046L25.9672 65.8635L25.7478 66.0217L25.5299 66.1793L25.3134 66.3362L25.0984 66.4925L24.8848 66.6482L24.6728 66.8032L24.4623 66.9576L24.2533 67.1113L24.0458 67.2643L23.8399 67.4167L23.6355 67.5684L23.4327 67.7194L23.2315 67.8697L23.0319 68.0194L22.8338 68.1683L22.6374 68.3166L22.4426 68.4641L22.2494 68.611L22.0578 68.7571L21.8679 68.9026L21.6797 69.0473L21.4931 69.1913L21.3083 69.3346L21.1251 69.4772L20.9436 69.6191L20.7639 69.7602L20.5858 69.9006L20.4095 70.0402L20.235 70.1791L20.0622 70.3173L19.8911 70.4547L19.7218 70.5914L19.5544 70.7273L19.3887 70.8625L19.2248 70.9969L19.0627 71.1305L18.9024 71.2634L18.744 71.3955L18.5874 71.5268L18.4327 71.6574L18.2798 71.7872L18.1288 71.9162L17.9797 72.0445L17.8324 72.1719L17.687 72.2986L17.5436 72.4245L17.402 72.5496L17.2624 72.6739L17.1247 72.7974L16.9889 72.9201L16.8551 73.042L16.7232 73.1632L16.5932 73.2835L16.4653 73.403L16.3393 73.5217L16.2153 73.6396L16.0933 73.7567L15.9733 73.873L15.8552 73.9885L15.7392 74.1032L15.6252 74.217L15.5133 74.33L15.4034 74.4423L15.2955 74.5537L15.1896 74.6643L15.0858 74.774L14.9841 74.883L14.8844 74.9911L14.7869 75.0984L14.6913 75.2048L14.5979 75.3105L14.5066 75.4153L14.4173 75.5193L14.3302 75.6224L14.2452 75.7248L14.1623 75.8263L14.0815 75.9269L14.0028 76.0268L13.9263 76.1258L13.8519 76.2239L13.7796 76.3213L13.7095 76.4178L13.6416 76.5135L13.5758 76.6083L13.5121 76.7023L13.4507 76.7955L13.3914 76.8878L13.3342 76.9793L13.2793 77.07L13.2266 77.1598L13.176 77.2488L13.1276 77.337L13.0814 77.4243L13.0374 77.5108L12.9957 77.5965L12.9561 77.6813L12.9188 77.7653L12.8836 77.8485L12.8507 77.9308L12.82 78.0123L12.7915 78.093L12.7653 78.1728L12.7413 78.2519L12.7195 78.33L12.6999 78.4074L12.6826 78.4839L12.6676 78.5596L12.6548 78.6345L12.6442 78.7085L12.6359 78.7818L12.6298 78.8542L12.626 78.9257L12.6244 78.9965L12.6251 79.0664L12.628 79.1356L12.6332 79.2039L12.6407 79.2713L12.6504 79.338L12.6624 79.4039L12.6767 79.4689L12.6932 79.5331L12.712 79.5966L12.733 79.6592L12.7563 79.721L12.7819 79.782L12.8098 79.8422L12.8399 79.9016L12.8723 79.9602L12.9069 80.018L12.9439 80.075L12.9831 80.1312L13.0245 80.1866L13.0683 80.2412L13.1143 80.2951L13.1625 80.3481L13.213 80.4004L13.2658 80.4519L13.3209 80.5026L13.3782 80.5525L13.4378 80.6016L13.4996 80.65L13.5637 80.6976L13.6301 80.7444L13.6987 80.7905L13.7696 80.8358L13.8427 80.8803L13.918 80.9241L13.9957 80.9671L14.0755 81.0093L14.1576 81.0508L14.242 81.0916L14.3285 81.1316L14.4174 81.1708L14.5084 81.2093L14.6017 81.2471L14.6972 81.2841L14.7949 81.3204L14.8949 81.356L14.9971 81.3908L15.1014 81.4249L15.208 81.4583L15.3168 81.4909L15.4278 81.5229L15.541 81.5541L15.6564 81.5846L15.774 81.6144L15.8938 81.6435L16.0158 81.6719L16.1399 81.6996L16.2662 81.7266L16.3947 81.7529L16.5253 81.7784L16.6581 81.8034L16.7931 81.8276L16.9302 81.8511L17.0694 81.874L17.2108 81.8962L17.3543 81.9177L17.5 81.9385L17.6477 81.9587L17.7976 81.9782L17.9496 81.997L18.1037 82.0152L18.2599 82.0328L18.4182 82.0497L18.5786 82.0659L18.741 82.0815L18.9055 82.0965L19.0721 82.1108L19.2408 82.1245L19.4115 82.1375L19.5842 82.1499L19.759 82.1617L19.9358 82.1729L20.1147 82.1835L20.2955 82.1935L20.4784 82.2028L20.6633 82.2116L20.8501 82.2197L21.039 82.2273L21.2298 82.2342L21.4226 82.2406L21.6173 82.2463L21.8141 82.2515L22.0127 82.2561L22.2133 82.2602L22.4158 82.2636L22.6203 82.2665L22.8267 82.2688L23.0349 82.2706L23.2451 82.2718L23.4571 82.2725L23.671 82.2726L23.8868 82.2721L24.1044 82.2711L24.3239 82.2696L24.5453 82.2675L24.7684 82.265L24.9934 82.2618L25.2202 82.2582L25.4488 82.254L25.6792 82.2493L25.9113 82.2441L26.1452 82.2384L26.3809 82.2322L26.6184 82.2255L26.8575 82.2183L27.0985 82.2106L27.3411 82.2024L27.5854 82.1937L27.8314 82.1846L28.0791 82.1749L28.3285 82.1648L28.5796 82.1542L28.8323 82.1432L29.0866 82.1317L29.3426 82.1197L29.6002 82.1072L29.8594 82.0944L30.1202 82.081L30.3826 82.0673L30.6465 82.0531L30.912 82.0384L31.1791 82.0233L31.4477 82.0078L31.7178 81.9919L31.9895 81.9755L32.2626 81.9587L32.5372 81.9416L32.8133 81.924L33.0909 81.906L33.3699 81.8875L33.6504 81.8687L33.9322 81.8495L34.2155 81.83L94.5393 74.7246L94.8205 74.6777L95.1003 74.6309L95.3785 74.5839L95.6553 74.537L95.9306 74.4899L96.2044 74.4428L96.4767 74.3957L96.7475 74.3485L97.0167 74.3012L97.2843 74.2539L97.5504 74.2066L97.8149 74.1591L98.0777 74.1117L98.339 74.0641L98.5987 74.0165L98.8567 73.9688L99.1131 73.9211L99.3678 73.8733L99.6208 73.8254L99.8722 73.7775L100.122 73.7295L100.37 73.6814L100.616 73.6333L100.861 73.5851L101.103 73.5368L101.344 73.4885L101.584 73.44L101.821 73.3915L102.057 73.343L102.291 73.2943L102.523 73.2456L102.753 73.1967L102.981 73.1478L103.208 73.0989L103.433 73.0498L103.656 73.0006L103.877 72.9514L104.096 72.9021L104.313 72.8526L104.528 72.8031L104.742 72.7535L104.953 72.7038L105.163 72.654L105.37 72.6041L105.576 72.5541L105.779 72.5041L105.981 72.4539L106.181 72.4036L106.379 72.3532L106.574 72.3026L106.768 72.252L106.96 72.2013L107.149 72.1505L107.337 72.0995L107.522 72.0484L107.706 71.9972L107.887 71.9459L108.067 71.8945L108.244 71.843L108.419 71.7913L108.592 71.7395L108.763 71.6876L108.932 71.6355L109.099 71.5834L109.264 71.5311L109.426 71.4786L109.586 71.426L109.745 71.3733L109.901 71.3205L110.055 71.2675L110.206 71.2143L110.356 71.1611L110.503 71.1076L110.648 71.054L110.791 71.0003L110.932 70.9464L111.07 70.8924L111.207 70.8382L111.341 70.7839L111.473 70.7294L111.602 70.6747L111.729 70.6199L111.855 70.5649L111.977 70.5097L112.098 70.4544L112.216 70.3989L112.332 70.3433L112.446 70.2874L112.558 70.2314L112.667 70.1752L112.774 70.1188L112.878 70.0623L112.981 70.0055L113.081 69.9486L113.178 69.8915L113.274 69.8342L113.367 69.7767L113.457 69.719L113.546 69.6611L113.632 69.6031L113.716 69.5448L113.797 69.4863L113.876 69.4276L113.953 69.3688L114.027 69.3097L114.099 69.2504L114.169 69.1909L114.236 69.1312L114.301 69.0712L114.363 69.0111L114.424 68.9507L114.481 68.8902L114.537 68.8294L114.59 68.7683L114.641 68.7071L114.689 68.6456L114.735 68.5839L114.778 68.522L114.82 68.4598L114.858 68.3974L114.895 68.3348L114.929 68.272L114.961 68.2088L114.99 68.1455L115.017 68.0819L115.041 68.0181L115.063 67.954L115.083 67.8897L115.1 67.8251L115.115 67.7603L115.128 67.6952L115.138 67.6299L115.145 67.5643L115.151 67.4985L115.154 67.4324L115.154 67.366L115.152 67.2994L115.148 67.2325L115.142 67.1653L115.133 67.0979L115.121 67.0302L115.107 66.9623L115.091 66.8941L115.073 66.8256L115.052 66.7568L115.028 66.6877L115.003 66.6184L114.975 66.5488L114.944 66.4789L114.911 66.4087L114.876 66.3383L114.838 66.2676L114.798 66.1965L114.756 66.1252L114.711 66.0536L114.664 65.9818L114.615 65.9096L114.563 65.8371L114.509 65.7644L114.453 65.6913L114.394 65.6179L114.333 65.5443L114.269 65.4704L114.203 65.3961L114.135 65.3216L114.065 65.2467L113.992 65.1716L113.917 65.0961L113.84 65.0204L113.76 64.9443L113.678 64.8679L113.593 64.7913L113.507 64.7143L113.418 64.637L113.327 64.5594L113.233 64.4815L113.137 64.4033L113.039 64.3247L112.939 64.2459L112.836 64.1667L112.732 64.0873L112.625 64.0075L112.515 63.9274L112.404 63.8469L112.29 63.7662L112.174 63.6851L112.056 63.6038L111.935 63.5221L111.813 63.4401L111.688 63.3577L111.561 63.2751L111.431 63.1921L111.3 63.1088L111.166 63.0252L111.031 62.9412L110.893 62.857L110.753 62.7724L110.611 62.6875L110.466 62.6023L110.32 62.5167L110.171 62.4308L110.02 62.3446L109.868 62.2581L109.713 62.1713L109.556 62.0841L109.397 61.9966L109.236 61.9088L109.072 61.8207L108.907 61.7322L108.74 61.6435L108.57 61.5544L108.399 61.4649L108.226 61.3752L108.05 61.2851L107.873 61.1947L107.693 61.104L107.512 61.013L107.328 60.9216L107.143 60.8299L106.956 60.7379L106.767 60.6456L106.575 60.553L106.382 60.4601L106.187 60.3668L105.99 60.2732L105.791 60.1793L105.591 60.0851L105.388 59.9906L105.184 59.8957L104.977 59.8006L104.769 59.7051L104.559 59.6093L104.347 59.5132L104.134 59.4168L103.918 59.3201L103.701 59.2231L103.482 59.1258L103.261 59.0282L103.039 58.9303L102.814 58.832L102.588 58.7335L102.36 58.6347L102.131 58.5355L101.9 58.4361L101.667 58.3364L101.432 58.2364L101.196 58.1361L100.958 58.0355L100.719 57.9346L100.478 57.8334L100.235 57.7319L99.9905 57.6302L99.7446 57.5281L99.4971 57.4258L99.248 57.3232L98.9973 57.2203L98.7451 57.1172L98.4914 57.0138L98.2361 56.9101L97.9794 56.8061L97.7211 56.7019L97.4614 56.5974L97.2002 56.4926L96.9376 56.3875L96.6735 56.2823L39.5004 36.6006L39.2256 36.5203L38.9521 36.4406L38.68 36.3616L38.4091 36.2833L38.1395 36.2057L37.8712 36.1288L37.6044 36.0526L37.3388 35.9771L37.0746 35.9023L36.8118 35.8282L36.5503 35.7549L36.2903 35.6823L36.0316 35.6104L35.7744 35.5393L35.5186 35.469L35.2642 35.3994L35.0113 35.3305L34.7599 35.2625L34.5099 35.1952L34.2614 35.1287L34.0143 35.063L33.7688 34.9981L33.5248 34.934L33.2823 34.8707L33.0414 34.8082L32.8019 34.7466L32.5641 34.6857L32.3278 34.6258L32.093 34.5666L31.8599 34.5083L31.6283 34.4508L31.3984 34.3942L31.17 34.3385L30.9432 34.2837L30.7181 34.2297L30.4946 34.1766L30.2728 34.1243L30.0526 34.073L29.8341 34.0226L29.6172 33.9731L29.4021 33.9244L29.1886 33.8768L28.9768 33.83L28.7667 33.7841L28.5583 33.7392L28.3517 33.6952L28.1467 33.6522L27.9435 33.6101L27.7421 33.569L27.5424 33.5288L27.3444 33.4896L27.1483 33.4514L26.9539 33.4141L26.7613 33.3779L26.5705 33.3426L26.3814 33.3083L26.1942 33.275L26.0088 33.2427L25.8252 33.2114L25.6434 33.1811L25.4635 33.1519L25.2854 33.1237L25.1091 33.0965L24.9347 33.0703L24.7622 33.0452L24.5915 33.0211L24.4227 32.9981L24.2557 32.9761L24.0907 32.9551L23.9275 32.9353L23.7662 32.9165L23.6069 32.8988L23.4494 32.8821L23.2938 32.8666L23.1401 32.8521L22.9884 32.8387L22.8386 32.8264L22.6907 32.8152L22.5448 32.8051L22.4008 32.7961L22.2587 32.7883L22.1186 32.7815L21.9804 32.7759L21.8442 32.7714L21.71 32.768L21.5777 32.7658L21.4474 32.7647L21.3191 32.7647L21.1927 32.7659L21.0683 32.7682L20.946 32.7717L20.8256 32.7764L20.7071 32.7822L20.5908 32.7891L20.4763 32.7973L20.3639 32.8066L20.2535 32.8171L20.1451 32.8287L20.0387 32.8416L19.9344 32.8556L19.832 32.8708L19.7317 32.8872L19.6334 32.9048L19.5371 32.9236L19.4428 32.9436L19.3506 32.9649L19.2604 32.9873L19.1722 33.0109L19.086 33.0358L19.0019 33.0618L18.9199 33.0891L18.8398 33.1176L18.7619 33.1473L18.6859 33.1783L18.612 33.2105L18.5401 33.2439L18.4703 33.2786L18.4026 33.3145L18.3368 33.3516L18.2731 33.39L18.2115 33.4296L18.1519 33.4705L18.0944 33.5126L18.0389 33.5559L17.9855 33.6006L17.9341 33.6464L17.8847 33.6936L17.8374 33.742L17.7922 33.7916L17.749 33.8425L17.7079 33.8947L17.6687 33.9482L17.6317 34.0029L17.5967 34.0588L17.5637 34.1161L17.5328 34.1746L17.5039 34.2344L17.4771 34.2955L17.4523 34.3578L17.4295 34.4214L17.4088 34.4863L17.3901 34.5525L17.3735 34.62L17.3588 34.6887L17.3462 34.7587L17.3357 34.83L17.3272 34.9026L17.3206 34.9765L17.3162 35.0516L17.3137 35.128L17.3132 35.2057L17.3148 35.2847L17.3184 35.365L17.324 35.4466L17.3316 35.5294L17.3412 35.6135L17.3527 35.6989L17.3663 35.7857L17.3819 35.8736L17.3995 35.9629L17.4191 36.0534L17.4406 36.1453L17.4642 36.2384L17.4897 36.3328L17.5171 36.4285L17.5466 36.5254L17.578 36.6237L17.6114 36.7232L17.6467 36.824L17.684 36.9261L17.7232 37.0294L17.7644 37.1341L17.8075 37.24L17.8526 37.3471L17.8996 37.4556L17.9485 37.5653L17.9993 37.6763L18.0521 37.7886L18.1067 37.9021L18.1633 38.0169L18.2217 38.1329L18.2821 38.2502L18.3443 38.3688L18.4085 38.4886L18.4745 38.6097L18.5423 38.7321L18.6121 38.8556L18.6837 38.9805L18.7571 39.1066L18.8324 39.2339L18.9096 39.3625L18.9886 39.4923L19.0694 39.6233L19.152 39.7556L19.2365 39.8891L19.3228 40.0239L19.4109 40.1598L19.5007 40.297L19.5924 40.4354L19.6858 40.575L19.7811 40.7159L19.8781 40.8579L19.9768 41.0012L20.0773 41.1457L20.1796 41.2913L20.2836 41.4382L20.3893 41.5862L20.4968 41.7355L20.606 41.8859L20.7169 42.0375L20.8295 42.1903L20.9438 42.3442L21.0597 42.4994L21.1774 42.6557L21.2968 42.8131L21.4177 42.9718L21.5404 43.1315L21.6647 43.2925L21.7907 43.4545L21.9182 43.6177L22.0474 43.7821L22.1782 43.9475L22.3107 44.1141L22.4447 44.2819L22.5803 44.4507L22.7175 44.6207L22.8562 44.7917L22.9965 44.9639L23.1384 45.1371L23.2818 45.3115L23.4268 45.4869L23.5733 45.6634L23.7213 45.841L23.8708 46.0197L24.0218 46.1994L24.1743 46.3802L24.3282 46.562L24.4837 46.7449L24.6406 46.9288L24.7989 47.1137L24.9587 47.2997L25.1199 47.4867L25.2826 47.6748L25.4466 47.8638L25.6121 48.0538L25.779 48.2449L25.9472 48.4369L26.1168 48.6299L26.2878 48.8239L26.4601 49.0189L26.6337 49.2148L26.8087 49.4117L26.9851 49.6096L27.1627 49.8083L27.3416 50.0081L27.5218 50.2087L27.7033 50.4103L27.8861 50.6128L28.0701 50.8162L28.2554 51.0205L28.4419 51.2257L28.6296 51.4318L28.8186 51.6388L29.0087 51.8467L29.2001 52.0554L29.3926 52.265L29.5863 52.4754L72.5906 94.9818L72.8023 95.1719L73.0131 95.3609L73.2231 95.5487L73.4322 95.7353L73.6403 95.9207L73.8476 96.1049L74.054 96.2879L74.2594 96.4696L74.464 96.6501L74.6675 96.8293L74.8702 97.0072L75.0719 97.1839L75.2727 97.3593L75.4725 97.5333L75.6713 97.7061L75.8691 97.8775L76.066 98.0477L76.2619 98.2164L76.4568 98.3839L76.6507 98.5499L76.8436 98.7146L77.0354 98.8779L77.2263 99.0398L77.4161 99.2003L77.6049 99.3595L77.7927 99.5171L77.9794 99.6734L78.165 99.8282L78.3496 99.9816L78.5332 100.133L78.7156 100.284L78.897 100.433L79.0773 100.58L79.2565 100.726L79.4347 100.871L79.6117 101.014L79.7876 101.155L79.9625 101.295L80.1362 101.433L80.3088 101.57L80.4802 101.706L80.6506 101.839L80.8198 101.971L80.9878 102.102L81.1547 102.231L81.3205 102.358L81.4851 102.484L81.6486 102.608L81.8109 102.73L81.972 102.851L82.132 102.971L82.2907 103.088L82.4483 103.204L82.6047 103.318L82.76 103.431L82.914 103.542L83.0668 103.651L83.2185 103.758L83.3689 103.864L83.5181 103.968L83.6661 104.07L83.8129 104.171L83.9585 104.27L84.1028 104.367L84.2459 104.462L84.3878 104.556L84.5285 104.648L84.6679 104.738L84.8061 104.826L84.943 104.913L85.0787 104.998L85.2131 105.081L85.3463 105.162L85.4783 105.241L85.6089 105.318L85.7384 105.394L85.8665 105.468L85.9934 105.54L86.119 105.61L86.2434 105.679L86.3665 105.745L86.4883 105.81L86.6088 105.872L86.7281 105.933L86.846 105.992L86.9627 106.05L87.0781 106.105L87.1922 106.158L87.3051 106.21L87.4166 106.259L87.5269 106.307L87.6358 106.353L87.7435 106.396L87.8499 106.438L87.955 106.478L88.0588 106.516L88.1612 106.553L88.2624 106.587L88.3623 106.619L88.4609 106.649L88.5582 106.678L88.6541 106.704L88.7488 106.728L88.8422 106.751L88.9343 106.771L89.025 106.79L89.1145 106.807L89.2026 106.821L89.2895 106.834L89.375 106.844L89.4592 106.853L89.5421 106.86L89.6238 106.864L89.7041 106.867L89.7831 106.868L89.8608 106.866L89.9372 106.863L90.0122 106.858L90.086 106.85L90.1585 106.841L90.2297 106.83L90.2995 106.816L90.3681 106.801L90.4354 106.783L90.5013 106.764L90.566 106.742L90.6293 106.719L90.6914 106.693L90.7522 106.666L90.8116 106.636L90.8698 106.605L90.9267 106.571L90.9823 106.535L91.0366 106.498L91.0896 106.458L91.1413 106.416L91.1917 106.373L91.2409 106.327L91.2887 106.279L91.3353 106.229L91.3806 106.177L91.4246 106.123L91.4674 106.067L91.5088 106.009L91.5491 105.949L91.588 105.887L91.6256 105.823L91.6621 105.757L91.6972 105.689L91.7311 105.618L91.7637 105.546L91.795 105.472L91.8252 105.396L91.854 105.317L91.8816 105.237L91.908 105.155L91.9331 105.07L91.957 104.984L91.9797 104.895L92.0011 104.805L92.0213 104.712L92.0402 104.618L92.058 104.521L92.0745 104.423L92.0898 104.322L92.1038 104.22L92.1167 104.115L92.1284 104.009L92.1388 103.9L92.1481 103.79L92.1561 103.677L92.163 103.563L92.1687 103.446L92.1732 103.328L92.1765 103.207L92.1786 103.085L92.1796 102.961L92.1793 102.834L92.1779 102.706L92.1754 102.576L92.1717 102.443L92.1668 102.309L92.1608 102.173L92.1536 102.035L92.1453 101.895L92.1359 101.753L92.1253 101.609L92.1136 101.463L92.1008 101.315L92.0868 101.166L92.0717 101.014L92.0556 100.861L92.0383 100.705L92.0199 100.548L92.0004 100.389L91.9798 100.228L91.9581 100.065L91.9354 99.9001L91.9116 99.7334L91.8867 99.5648L91.8607 99.3944L91.8336 99.2222L91.8055 99.0481L91.7764 98.8722L91.7462 98.6944L91.7149 98.5148L91.6827 98.3334L91.6493 98.1502L91.615 97.9651L91.5796 97.7783L91.5432 97.5897L91.5058 97.3993L91.4674 97.2071L91.428 97.0131L91.3876 96.8174L91.3462 96.6199L91.3038 96.4207L91.2605 96.2197L91.2161 96.017L91.1708 95.8126L91.1246 95.6065L91.0774 95.3986L91.0292 95.1891L90.9801 94.9778L90.93 94.7649L90.879 94.5503L90.8271 94.334L90.7742 94.1161L90.7205 93.8965L90.6658 93.6753L90.6102 93.4524L90.5537 93.2279L90.4964 93.0018L90.4381 92.7741L90.379 92.5448L90.3189 92.3139L90.2581 92.0814L90.1963 91.8474L90.1337 91.6118L90.0702 91.3746L90.0059 91.1359L89.9408 90.8957L89.8748 90.6539L89.808 90.4107L89.7404 90.1659L89.672 89.9197L89.6027 89.6719L89.5327 89.4227L89.4619 89.1721L89.3902 88.92L89.3178 88.6664L89.2446 88.4114L89.1707 88.155L89.096 87.8972L89.0205 87.638L88.9443 87.3775L88.8673 87.1155L88.7896 86.8522L88.7111 86.5875L88.632 86.3215L88.5521 86.0541L88.4715 85.7855L88.3902 85.5155L88.3082 85.2442L68.0472 28.2873L67.8299 27.7573L67.7217 27.4945L67.6138 27.2331L67.5062 26.9732L67.3988 26.7147L67.2917 26.4577L67.1849 26.2022L67.0784 25.9481L66.9722 25.6957L66.8662 25.4447L66.7606 25.1952L66.6553 24.9474L66.5502 24.701L66.4455 24.4563L66.341 24.2132L66.2369 23.9716L66.1331 23.7317L66.0295 23.4934L65.9263 23.2567L65.8234 23.0217L65.7208 22.7884L65.6185 22.5567L65.5165 22.3267L65.4149 22.0984L65.3135 21.8718L65.2125 21.6469L65.1118 21.4238L65.0114 21.2024L64.9114 20.9828L64.8117 20.7649L64.7122 20.5488L64.6132 20.3345L64.5144 20.122L64.416 19.9113L64.3179 19.7025L64.2202 19.4954L64.1227 19.2902L64.0256 19.0869L63.9289 18.8854L63.8324 18.6858L63.7363 18.4881L63.6406 18.2922L63.5452 18.0983L63.4501 17.9063L63.3554 17.7162L63.261 17.528L63.1669 17.3418L63.0732 17.1576L62.9798 16.9753L62.8868 16.7949L62.7941 16.6166L62.7018 16.4403L62.6098 16.2659L62.5181 16.0935L62.4268 15.9232L62.3358 15.7549L62.2452 15.5886L62.1549 15.4244L62.065 15.2622L61.9754 15.1021L61.8861 14.9441L61.7972 14.7881L61.7087 14.6343L61.6205 14.4825L61.5326 14.3328L61.4451 14.1852L61.358 14.0398L61.2712 13.8964L61.1847 13.7552L61.0985 13.6162L61.0128 13.4793L60.9273 13.3445L60.8422 13.2119L60.7575 13.0815L60.6731 12.9532L60.589 12.8272L60.5053 12.7033L60.422 12.5816L60.3389 12.4621L60.2563 12.3449L60.1739 12.2298L60.0919 12.117L60.0103 12.0064L59.929 11.898L59.848 11.7919L59.7674 11.688L59.6871 11.5864L59.6071 11.487L59.5275 11.3898L59.4482 11.295L59.3693 11.2024L59.2907 11.1121L59.2124 11.0241L59.1344 10.9384L59.0568 10.8549L58.9796 10.7738L58.9026 10.695L58.826 10.6184L58.7497 10.5442L58.6738 10.4723L58.5982 10.4027L58.5229 10.3354L58.4479 10.2705L58.3732 10.2079L58.2989 10.1476L58.2249 10.0897L58.1512 10.0341L58.0779 9.98084L58.0048 9.92993L57.9321 9.88138L57.8597 9.83517L57.7876 9.79133L57.7158 9.74983L57.6444 9.71071L57.5732 9.67395L57.5024 9.63956L57.4318 9.60753L57.3616 9.57788L57.2917 9.5506L57.2221 9.52569L57.1528 9.50316L57.0838 9.48301L57.015 9.46523L56.9466 9.44985L56.8785 9.43684L56.8107 9.42621L56.7432 9.41798L56.6759 9.41213L56.609 9.40865L56.5423 9.40758L56.476 9.40889L56.4099 9.41258L56.3441 9.41867L56.2786 9.42715L56.2134 9.43802L56.1484 9.45128L56.0838 9.46693L56.0194 9.48496L55.9553 9.50537L55.8914 9.5282L55.8279 9.5534L55.7646 9.58098L55.7015 9.61096L55.6388 9.64332L55.5763 9.67807L55.514 9.7152L55.4521 9.7547L55.3903 9.7966L55.3289 9.84087L55.2677 9.88752L55.2067 9.93654L55.146 9.98794L55.0856 10.0417L55.0254 10.0979L54.9655 10.1564L54.9057 10.2172L54.8463 10.2805L54.7871 10.3461L54.7281 10.414L54.6693 10.4843L54.6108 10.557L54.5525 10.632L54.4945 10.7094L54.4367 10.7891L54.3791 10.8711L54.3217 10.9555L54.2646 11.0422L54.2077 11.1312L54.151 11.2226L54.0945 11.3163L54.0382 11.4123L53.9822 11.5106L53.9264 11.6112L53.8707 11.7142L53.8153 11.8194L53.7601 11.9269L53.7051 12.0367L53.6503 12.1488L53.5957 12.2632L53.5413 12.3798L53.4871 12.4987L53.4331 12.6199L53.3793 12.7434L53.3257 12.8691L53.2722 12.997L53.219 13.1272L53.1659 13.2596L53.113 13.3943L53.0603 13.5312L53.0078 13.6703L52.9555 13.8116L52.9033 13.9551L52.8513 14.1008L52.7995 14.2487L52.7478 14.3988L52.6964 14.551L52.645 14.7055L52.5939 14.8621L52.5429 15.0208L52.4921 15.1818L52.4414 15.3448L52.3909 15.51L52.3405 15.6773L52.2903 15.8467L52.2403 16.0183L52.1904 16.1919L52.1406 16.3677L52.091 16.5455L52.0416 16.7254L51.9922 16.9074L51.9431 17.0915L51.894 17.2776L51.8451 17.4657L51.7963 17.6559L51.7477 17.8481L51.6992 18.0423L51.6508 18.2386L51.6026 18.4368L51.5545 18.637L51.5065 18.8392L51.4586 19.0434L51.4109 19.2496L51.3633 19.4577L51.3158 19.6677L51.2684 19.8797L51.2211 20.0936L51.1739 20.3094L51.1269 20.5271L51.08 20.7467L51.0331 20.9682L50.9864 21.1916L50.9398 21.4168L50.8933 21.6439L50.8469 21.8729L50.8006 22.1036L50.7544 22.3362L50.7083 22.5705L50.6623 22.8067L50.6164 23.0447L50.5706 23.2844L50.5249 23.5259L50.4792 23.7692L50.4337 24.0142L50.3883 24.2609L50.3429 24.5093L50.2976 24.7595L50.2525 25.0113L50.2074 25.2648L50.1623 25.52L50.1174 25.7769L50.0726 26.0354L50.0278 26.2955L49.9831 26.5572L49.9385 26.8206L49.894 27.0855L49.8495 27.3521L49.8051 27.6202L49.7608 27.8898L49.7166 28.1611L49.6724 28.4338L49.6283 28.7081L49.5843 28.9838L49.5404 29.2611L49.4965 29.5398L49.4527 29.82L49.3652 30.3848L42.9641 90.4859L42.9476 90.7693L42.9315 91.0513L42.9158 91.3318L42.9004 91.6109L42.8855 91.8886L42.8709 92.1648L42.8567 92.4395L42.843 92.7127L42.8296 92.9844L42.8166 93.2546L42.8041 93.5233L42.7919 93.7904L42.7802 94.056L42.7689 94.32L42.758 94.5824L42.7475 94.8433L42.7375 95.1025L42.7279 95.3601L42.7187 95.6161L42.71 95.8705L42.7017 96.1232L42.6939 96.3743L42.6865 96.6237L42.6796 96.8714L42.6731 97.1174L42.6671 97.3618L42.6616 97.6044L42.6565 97.8453L42.652 98.0844L42.6479 98.3219L42.6442 98.5575L42.6411 98.7914L42.6385 99.0235L42.6363 99.2539L42.6347 99.4824L42.6335 99.7091L42.6329 99.934L42.6327 100.157L42.6331 100.378L42.634 100.598L42.6354 100.815L42.6373 101.031L42.6398 101.245L42.6428 101.457L42.6463 101.667L42.6503 101.875L42.6549 102.081L42.6601 102.286L42.6658 102.488L42.672 102.688L42.6788 102.887L42.6861 103.084L42.6941 103.278L42.7025 103.471L42.7116 103.661L42.7212 103.85L42.7314 104.037L42.7422 104.222L42.7536 104.404L42.7655 104.585L42.7781 104.764L42.7912 104.94L42.8049 105.115L42.8193 105.287L42.8342 105.458L42.8498 105.626L42.8659 105.792L42.8827 105.957L42.9001 106.119L42.9181 106.279L42.9367 106.437L42.956 106.593L42.9759 106.747L42.9964 106.899L43.0176 107.048L43.0394 107.196L43.0618 107.341L43.0849 107.484L43.1087 107.625L43.1331 107.764L43.1581 107.901L43.1839 108.036L43.2102 108.168L43.2373 108.298L43.265 108.426L43.2934 108.552L43.3224 108.676L43.3522 108.798L43.3826 108.917L43.4137 109.034L43.4455 109.149L43.478 109.262L43.5111 109.373L43.545 109.481L43.5796 109.587L43.6148 109.691L43.6508 109.793L43.6875 109.892L43.7249 109.99L43.763 110.085L43.8018 110.177L43.8413 110.268L43.8815 110.356L43.9225 110.442L43.9642 110.526L44.0066 110.608L44.0498 110.687L44.0936 110.764L44.1382 110.839L44.1836 110.912L44.2297 110.982L44.2765 111.05L44.3241 111.116L44.3724 111.179L44.4215 111.241L44.4713 111.3L44.5219 111.356L44.5732 111.411L44.6253 111.463L44.6781 111.513L44.7317 111.56L44.7861 111.606L44.8412 111.649L44.8971 111.69L44.9537 111.728L45.0112 111.764L45.0694 111.798L45.1283 111.83L45.1881 111.86L45.2486 111.887L45.3099 111.912L45.372 111.934L45.4349 111.955L45.4985 111.973L45.563 111.988L45.6282 112.002L45.6942 112.013L45.761 112.022L45.8286 112.029L45.897 112.033L45.9662 112.035L46.0361 112.035L46.1069 112.033L46.1784 112.028L46.2508 112.021L46.324 112.012L46.3979 112.001L46.4727 111.987L46.5482 111.971L46.6246 111.953L46.7018 111.932L46.7797 111.91L46.8585 111.885L46.9381 111.858L47.0185 111.828L47.0997 111.797L47.1817 111.763L47.2645 111.727L47.3481 111.689L47.4325 111.648L47.5178 111.605L47.6038 111.56L47.6907 111.513L47.7783 111.464L47.8668 111.412L47.9561 111.358L48.0462 111.303L48.1371 111.244L48.2288 111.184L48.3213 111.122L48.4147 111.057L48.5088 110.99L48.6038 110.921L48.6995 110.85L48.7961 110.776L48.8935 110.701L48.9917 110.623L49.0907 110.544L49.1905 110.462L49.2911 110.378L49.3926 110.292L49.4948 110.203L49.5978 110.113L49.7017 110.02L49.8063 109.926L49.9118 109.829L50.018 109.73L50.1251 109.629L50.2329 109.527L50.3416 109.422L50.451 109.314L50.5613 109.205L50.6723 109.094L50.7842 108.981L50.8968 108.866L51.0102 108.749L51.1245 108.629L51.2395 108.508L51.3553 108.385L51.4719 108.259L51.5892 108.132L51.7074 108.003L51.8263 107.872L51.946 107.738L52.0665 107.603L52.1878 107.466L52.3098 107.327L52.4326 107.186L52.5562 107.043L52.6805 106.898L52.8056 106.752L52.9315 106.603L53.0582 106.452L53.1856 106.3L53.3137 106.146L53.4426 105.99L53.5723 105.832L53.7027 105.672L53.8338 105.51L53.9657 105.346L54.0984 105.181L54.2318 105.014L54.3659 104.845L54.5007 104.674L54.6363 104.502L54.7726 104.327L54.9096 104.151L55.0474 103.974L55.1858 103.794L55.325 103.613L55.4649 103.43L55.6055 103.245L55.7468 103.059L55.8888 102.87L56.0315 102.681L56.1749 102.489L56.319 102.296L56.4638 102.101L56.6093 101.905L56.7554 101.707L56.9022 101.507L57.0497 101.306L57.1979 101.103L57.3467 100.899L57.4962 100.693L57.6463 100.485L57.7971 100.276L57.9486 100.065L58.1007 99.8532L58.2534 99.6396L58.4068 99.4244L58.5608 99.2077L58.7154 98.9895L58.8706 98.7699L59.0265 98.5488L59.1829 98.3262L59.34 98.1023L59.4977 97.8769L59.656 97.6501L59.8149 97.4219L59.9743 97.1923L60.1344 96.9613L60.295 96.729L60.4562 96.4954L60.618 96.2604L92.627 44.6616L92.7647 44.4137L92.9014 44.1669L93.0371 43.9212L93.1719 43.6767L93.3057 43.4333L93.4384 43.1911L93.5702 42.95L93.701 42.7101L93.8308 42.4714L93.9595 42.2339L94.0872 41.9976L94.2139 41.7625L94.3395 41.5286L94.4641 41.2959L94.5876 41.0645L94.71 40.8344L94.8313 40.6055L94.9516 40.3778L95.0707 40.1514L95.1887 39.9264L95.3057 39.7026L95.4214 39.4801L95.5361 39.2589L95.6496 39.039L95.762 38.8205L95.8732 38.6033L95.9832 38.3874L96.0921 38.1729L96.1997 37.9597L96.3062 37.7479L96.4115 37.5375L96.5156 37.3284L96.6185 37.1208L96.7202 36.9145L96.8206 36.7096L96.9198 36.5062L97.0177 36.3042L97.1144 36.1036L97.2098 35.9044L97.304 35.7067L97.3969 35.5104L97.4885 35.3155L97.5788 35.1222L97.6679 34.9302L97.7556 34.7398L97.842 34.5508L97.9271 34.3634L98.0109 34.1774L98.0933 33.9929L98.1744 33.81L98.2542 33.6285L98.3326 33.4485L98.4096 33.2701L98.4853 33.0932L98.5596 32.9179L98.6326 32.744L98.7041 32.5718L98.7743 32.401L98.843 32.2319L98.9104 32.0643L98.9763 31.8982L99.0408 31.7338L99.1039 31.5709L99.1656 31.4096L99.2258 31.2498L99.2846 31.0917L99.342 30.9352L99.3978 30.7803L99.4523 30.6269L99.5052 30.4752L99.5567 30.3251L99.6067 30.1766L99.6553 30.0298L99.7023 29.8846L99.7479 29.7409L99.7919 29.599L99.8344 29.4587L99.8755 29.32L99.915 29.1829L99.953 29.0476L99.9895 28.9138L100.024 28.7817L100.058 28.6513L100.09 28.5226L100.12 28.3955L100.149 28.27L100.176 28.1463L100.202 28.0242L100.226 27.9038L100.248 27.7851L100.269 27.6681L100.288 27.5527L100.306 27.4391L100.322 27.3271L100.337 27.2168L100.35 27.1082L100.361 27.0013L100.371 26.8962L100.38 26.7927L100.386 26.6909L100.391 26.5908L100.394 26.4924L100.396 26.3957L100.396 26.3008L100.395 26.2075L100.392 26.116L100.387 26.0261L100.38 25.938L100.372 25.8516L100.363 25.7669L100.351 25.6839L100.338 25.6026L100.324 25.5231L100.307 25.4453L100.289 25.3692L100.27 25.2947L100.248 25.2221L100.226 25.1511L100.201 25.0819L100.175 25.0143L100.147 24.9485L100.117 24.8844L100.086 24.8221L100.053 24.7614L100.018 24.7025L99.9816 24.6452L99.9436 24.5897L99.9039 24.5359L99.8625 24.4839L99.8193 24.4335L99.7746 24.3848L99.7281 24.3379L99.6799 24.2927L99.63 24.2491L99.5785 24.2073L99.5252 24.1672L99.4703 24.1288L99.4136 24.0921L99.3552 24.0571L99.2952 24.0238L99.2335 23.9922L99.17 23.9623L99.1049 23.9341L99.038 23.9076L98.9695 23.8827L98.8992 23.8596L98.8273 23.8381L98.7536 23.8183L98.6783 23.8002L98.6012 23.7838L98.5225 23.7691L98.442 23.756L98.3599 23.7446L98.2761 23.7349L98.1905 23.7268L98.1033 23.7204L98.0144 23.7157L97.9238 23.7126L97.8314 23.7111L97.7374 23.7113L97.6417 23.7132L97.5444 23.7167L97.4453 23.7218L97.3445 23.7286L97.2421 23.737L97.1379 23.747L97.0321 23.7586L96.9246 23.7719L96.8155 23.7868L96.7046 23.8033L96.5921 23.8214L96.4779 23.8411L96.362 23.8624L96.2445 23.8853L96.1253 23.9097L96.0045 23.9358L95.8819 23.9635L95.7578 23.9927L95.632 24.0235L95.5045 24.0558L95.3753 24.0898L95.2446 24.1252L95.1122 24.1623L94.9781 24.2009L94.8424 24.241L94.7051 24.2826L94.5662 24.3258L94.4256 24.3705L94.2834 24.4168L94.1396 24.4645L93.9942 24.5138L93.8471 24.5645L93.6985 24.6168L93.5483 24.6705L93.3964 24.7258L93.243 24.7825L93.088 24.8407L92.9314 24.9003L92.7732 24.9615L92.6135 25.024L92.4521 25.0881L92.2893 25.1536L92.1248 25.2205L91.9588 25.2888L91.7913 25.3586L91.6222 25.4298L91.4515 25.5024L91.2794 25.5764L91.1057 25.6518L90.9304 25.7286L90.7537 25.8068L90.5754 25.8863L90.3957 25.9673L90.2144 26.0496L90.0317 26.1332L89.8475 26.2183L89.6617 26.3046L89.4746 26.3923L89.2859 26.4813L89.0958 26.5717L88.9042 26.6633L88.7112 26.7563L88.5167 26.8506L88.3208 26.9462L88.1234 27.043L87.9247 27.1411L87.7245 27.2405L87.5229 27.3412L87.3199 27.4431L87.1155 27.5463L86.9098 27.6507L86.7026 27.7563L86.4941 27.8632L86.2842 27.9713L86.073 28.0806L85.8604 28.1911L85.6465 28.3028L85.4312 28.4156L85.2146 28.5297L84.9967 28.6449L84.7775 28.7613L84.557 28.8788L84.3352 28.9975L84.1121 29.1173L83.8877 29.2382L83.6621 29.3603L83.4352 29.4835L83.207 29.6077L82.9776 29.7331L82.747 29.8596L82.5152 29.9871L82.2821 30.1157L82.0478 30.2453L81.8124 30.376L81.5757 30.5078L81.3379 30.6406L81.0989 30.7744L80.8588 30.9092L80.6175 31.045L80.375 31.1819L80.1315 31.3197L79.8868 31.4585L79.641 31.5983L79.3941 31.739L28.3772 64.1497L27.9105 64.4784L27.4491 64.8048L27.2204 64.9671L26.9931 65.1288L26.7672 65.2898L26.5427 65.4503L26.3196 65.6101L26.0979 65.7694L25.8777 65.928L25.6588 66.0859L25.4415 66.2433L25.2256 66.4L25.0112 66.556L24.7983 66.7114L24.5869 66.8662L24.377 67.0203L24.1686 67.1737L23.9618 67.3265L23.7565 67.4786L23.5527 67.63L23.3506 67.7807L23.15 67.9307L22.951 68.0801L22.7536 68.2288L22.5578 68.3768L22.3637 68.524L22.1711 68.6706L21.9803 68.8165L21.7911 68.9616L21.6035 69.1061L21.4176 69.2498L21.2334 69.3928L21.051 69.5351L20.8702 69.6766L20.6911 69.8175L20.5138 69.9576L20.3382 70.0969L20.1644 70.2355L19.9923 70.3734L19.822 70.5105L19.6534 70.6468L19.4866 70.7824L19.3217 70.9173L19.1585 71.0514L18.9972 71.1847L18.8377 71.3173L18.68 71.4491L18.5242 71.5801L18.3702 71.7104L18.2181 71.8398L18.0678 71.9685L17.9194 72.0965L17.7729 72.2236L17.6284 72.35L17.4857 72.4755L17.3449 72.6003L17.206 72.7243L17.0691 72.8475L16.9341 72.9699L16.8011 73.0915L16.67 73.2123L16.5409 73.3323L16.4137 73.4515L16.2885 73.5698L16.1653 73.6874L16.0441 73.8042L15.9249 73.9201L15.8077 74.0353L15.6926 74.1496L15.5794 74.2632L15.4683 74.3759L15.3592 74.4877L15.2521 74.5988L15.1471 74.7091L15.0441 74.8185L14.9433 74.9271L14.8444 75.0349L14.7477 75.1418L14.653 75.248L14.5605 75.3533L14.47 75.4577L14.3816 75.5614L14.2953 75.6642L14.2112 75.7662L14.1291 75.8674L14.0492 75.9677L13.9714 76.0672L13.8957 76.1659L13.8222 76.2637L13.7508 76.3607L13.6816 76.4569L13.6145 76.5522L13.5496 76.6467L13.4868 76.7404L13.4262 76.8332L13.3678 76.9252L13.3116 77.0164L13.2575 77.1067L13.2057 77.1962L13.156 77.2848L13.1085 77.3727L13.0632 77.4597L13.0202 77.5458L12.9793 77.6311L12.9406 77.7156L12.9042 77.7993L12.8699 77.8821L12.8379 77.9641L12.8081 78.0453L12.7806 78.1256L12.7552 78.2051L12.7321 78.2838L12.7113 78.3616L12.6926 78.4387L12.6762 78.5148L12.6621 78.5902L12.6502 78.6647L12.6405 78.7385L12.6331 78.8114L12.628 78.8834L12.6251 78.9547L12.6244 79.0251L12.626 79.0947L12.6299 79.1635L12.636 79.2314L12.6444 79.2986L12.655 79.3649L12.6679 79.4305L12.6831 79.4952L12.7006 79.5591L12.7203 79.6222L12.7423 79.6845L12.7665 79.7459L12.793 79.8066L12.8218 79.8665L12.8528 79.9256L12.8861 79.9838L12.9217 80.0413L12.9596 80.098L12.9997 80.1539L13.0421 80.209L13.0867 80.2633L13.1336 80.3168L13.1828 80.3695L13.2343 80.4215L13.288 80.4726L13.344 80.523L13.4022 80.5726L13.4627 80.6214L13.5255 80.6695L13.5905 80.7168L13.6578 80.7633L13.7273 80.809L13.7991 80.854L13.8731 80.8982L13.9494 80.9417L14.0279 80.9844L14.1087 81.0263L14.1917 81.0675L14.277 81.108L14.3645 81.1476L14.4542 81.1866L14.5461 81.2248L14.6403 81.2623L14.7367 81.299L14.8354 81.335L14.9362 81.3703L15.0393 81.4048L15.1446 81.4386L15.2521 81.4717L15.3618 81.504L15.4737 81.5357L15.5878 81.5666L15.7041 81.5968L15.8225 81.6263L15.9432 81.6552L16.0661 81.6833L16.1911 81.7107L16.3183 81.7373L16.4476 81.7634L16.5792 81.7887L16.7128 81.8133L16.8487 81.8372L16.9866 81.8605L17.1268 81.8831L17.269 81.905L17.4134 81.9262L17.5599 81.9468L17.7085 81.9667L17.8593 81.9859L18.0121 82.0045L18.1671 82.0225L18.3241 82.0397L18.4833 82.0564L18.6445 82.0723L18.8078 82.0877L18.9731 82.1024L19.1406 82.1164L19.3101 82.1299L19.4816 82.1426L19.6552 82.1548L19.8308 82.1664L20.0084 82.1773L20.1881 82.1876L20.3698 82.1974L20.5534 82.2065L20.7391 82.215L20.9268 82.2229L21.1165 82.2302L21.3081 82.2369L21.5017 82.243L21.6972 82.2485L21.8947 82.2535L22.0942 82.2578L22.2956 82.2616L22.4989 82.2649L22.7041 82.2675L22.9113 82.2696L23.1203 82.2712L23.3312 82.2721L23.544 82.2726L23.7587 82.2724L23.9752 82.2718L24.1936 82.2706L24.4139 82.2688L24.636 82.2666L24.8598 82.2637L25.0856 82.2604L25.3131 82.2565L25.5424 82.2522L25.7735 82.2473L26.0064 82.2419L26.241 82.236L26.4774 82.2295L26.7156 82.2226L26.9555 82.2152L27.1971 82.2073L27.4404 82.1989L27.6854 82.19L27.9321 82.1807L28.1805 82.1709L28.4306 82.1606L28.6823 82.1498L28.9357 82.1385L29.1907 82.1268L29.4473 82.1147L29.7056 82.1021L29.9654 82.089L30.2269 82.0755L30.4899 82.0615L30.7545 82.0471L31.0206 82.0323L31.2883 82.0171L31.5576 82.0014L31.8283 81.9853L32.1005 81.9687L32.3743 81.9518L32.6495 81.9344L32.9262 81.9167L33.2044 81.8985L33.484 81.8799L33.765 81.861L34.0475 81.8416L34.3313 81.8219L94.654 74.7055L94.9346 74.6587L95.2138 74.6117L95.4915 74.5648L95.7677 74.5178L96.0424 74.4707L96.3155 74.4236L96.5872 74.3765L96.8573 74.3293L97.1259 74.282L97.3929 74.2346L97.6583 74.1873L97.9221 74.1398L98.1844 74.0923L98.445 74.0447L98.704 73.9971L98.9613 73.9494L99.217 73.9016L99.4711 73.8538L99.7234 73.8059L99.9741 73.758L100.223 73.7099L100.47 73.6618L100.716 73.6137L100.96 73.5654L101.202 73.5171L101.442 73.4687L101.681 73.4203L101.917 73.3718L102.152 73.3231L102.385 73.2745L102.617 73.2257L102.846 73.1768L103.074 73.1279L103.3 73.0789L103.524 73.0298L103.746 72.9806L103.966 72.9313L104.184 72.8819L104.401 72.8325L104.615 72.7829L104.828 72.7333L105.039 72.6836L105.247 72.6337L105.454 72.5838L105.659 72.5338L105.862 72.4836L106.063 72.4334L106.262 72.383L106.458 72.3326L106.653 72.282L106.846 72.2314L107.037 72.1806L107.226 72.1297L107.413 72.0787L107.597 72.0276L107.78 71.9764L107.961 71.925L108.139 71.8735L108.316 71.8219L108.49 71.7702L108.662 71.7184L108.832 71.6664L109 71.6143L109.166 71.5621L109.33 71.5097L109.492 71.4572L109.651 71.4046L109.808 71.3518L109.964 71.2989L110.117 71.2458L110.267 71.1926L110.416 71.1393L110.562 71.0858L110.707 71.0322L110.849 70.9784L110.989 70.9245L111.126 70.8704L111.261 70.8161L111.395 70.7617L111.526 70.7071L111.654 70.6524L111.781 70.5975L111.905 70.5425L112.027 70.4872L112.146 70.4318L112.264 70.3763L112.379 70.3205L112.492 70.2646L112.602 70.2085L112.711 70.1523L112.817 70.0958L112.92 70.0392L113.022 69.9824L113.121 69.9254L113.217 69.8682L113.312 69.8108L113.404 69.7532L113.494 69.6955L113.581 69.6375L113.666 69.5794L113.749 69.521L113.829 69.4624L113.907 69.4037L113.983 69.3447L114.057 69.2856L114.128 69.2262L114.196 69.1666L114.263 69.1068L114.327 69.0468L114.388 68.9865L114.447 68.9261L114.504 68.8654L114.559 68.8045L114.611 68.7434L114.661 68.6821L114.708 68.6205L114.753 68.5587L114.796 68.4967L114.836 68.4345L114.874 68.372L114.909 68.3092L114.942 68.2463L114.973 68.1831L115.001 68.1196L115.027 68.0559L115.05 67.992L115.072 67.9278L115.09 67.8634L115.107 67.7987L115.12 67.7338L115.132 67.6686L115.141 67.6032L115.148 67.5375L115.152 67.4716L115.154 67.4054L115.154 67.3389L115.151 67.2722L115.146 67.2052L115.138 67.1379L115.128 67.0704L115.116 67.0026L115.101 66.9345L115.084 66.8662L115.064 66.7976L115.042 66.7287L115.018 66.6595L114.991 66.5901L114.962 66.5204L114.931 66.4504L114.897 66.3801L114.861 66.3095L114.822 66.2387L114.781 66.1675L114.738 66.0961L114.693 66.0244L114.645 65.9524L114.594 65.8801L114.541 65.8075L114.486 65.7346L114.429 65.6615L114.369 65.588L114.307 65.5142L114.243 65.4401L114.176 65.3658L114.107 65.2911L114.036 65.2161L113.962 65.1409L113.886 65.0653L113.807 64.9894L113.727 64.9132L113.644 64.8368L113.558 64.76L113.471 64.6829L113.381 64.6054L113.289 64.5277L113.194 64.4497L113.098 64.3713L112.999 64.2927L112.898 64.2137L112.794 64.1344L112.688 64.0548L112.58 63.9749L112.47 63.8946L112.358 63.8141L112.243 63.7332L112.126 63.652L112.007 63.5705L111.886 63.4887L111.762 63.4066L111.636 63.3241L111.508 63.2413L111.378 63.1582L111.246 63.0748L111.111 62.991L110.975 62.907L110.836 62.8226L110.695 62.7379L110.552 62.6528L110.407 62.5675L110.259 62.4818L110.11 62.3958L109.958 62.3094L109.805 62.2228L109.649 62.1358L109.491 62.0485L109.331 61.9609L109.169 61.873L109.005 61.7847L108.839 61.6961L108.671 61.6072L108.501 61.518L108.329 61.4284L108.154 61.3385L107.978 61.2483L107.8 61.1578L107.62 61.067L107.437 60.9758L107.253 60.8843L107.067 60.7925L106.879 60.7004L106.689 60.6079L106.497 60.5152L106.303 60.4221L106.107 60.3287L105.909 60.235L105.71 60.141L105.508 60.0466L105.305 59.952L105.1 59.857L104.893 59.7617L104.684 59.6661L104.473 59.5702L104.26 59.474L104.046 59.3775L103.83 59.2807L103.612 59.1835L103.392 59.0861L103.171 58.9883L102.947 58.8903L102.722 58.7919L102.496 58.6933L102.267 58.5943L102.037 58.4951L101.805 58.3955L101.572 58.2957L101.336 58.1956L101.099 58.0951L100.861 57.9944L100.621 57.8934L100.379 57.7921L100.136 57.6905L99.8906 57.5886L99.644 57.4865L99.3958 57.3841L99.146 57.2814L98.8948 57.1784L98.6419 57.0751L98.3876 56.9716L98.1317 56.8678L97.8744 56.7637L97.6155 56.6593L97.3552 56.5547L97.0934 56.4498L96.8302 56.3447L96.5655 56.2393L39.6638 36.6485L39.3883 36.5678L38.8411 36.4084L38.5695 36.3296L38.2991 36.2516L38.0301 36.1743L37.7624 36.0977L37.496 36.0217L37.231 35.9465L36.9674 35.872L36.7051 35.7983L36.4442 35.7252L36.1848 35.6529L35.9267 35.5814L35.67 35.5106L35.4148 35.4405L35.161 35.3712L34.9087 35.3027L34.6578 35.235L34.4085 35.168L34.1606 35.1018L33.9141 35.0365L33.6692 34.9719L33.4259 34.9081L33.184 34.8452L32.9437 34.783L32.7049 34.7217L32.4676 34.6612L32.232 34.6016L31.9979 34.5428L31.7654 34.4848L31.5344 34.4277L31.3051 34.3714L31.0774 34.3161L30.8513 34.2615L30.6269 34.2079L30.4041 34.1552L30.1829 34.1033L29.9634 34.0524L29.7455 34.0023L29.5294 33.9532L29.3149 33.9049L29.1021 33.8576L28.891 33.8112L28.6816 33.7657L28.4739 33.7212L28.268 33.6776L28.0637 33.6349L27.8613 33.5932L27.6605 33.5525L27.4615 33.5127L27.2643 33.4739L27.0689 33.4361L26.8752 33.3992L26.6833 33.3634L26.4932 33.3285L26.305 33.2946L26.1185 33.2617L25.9338 33.2298L25.7509 33.199L25.5699 33.1691L25.3907 33.1403L25.2134 33.1125L25.0379 33.0857L24.8642 33.0599L24.6924 33.0352L24.5225 33.0116L24.3545 32.989L24.1883 32.9674L24.024 32.9469L23.8616 32.9275L23.7011 32.9091L23.5425 32.8919L23.3858 32.8757L23.231 32.8605L23.0781 32.8465L22.9272 32.8336L22.7781 32.8217L22.631 32.811L22.4859 32.8013L22.3427 32.7928L22.2014 32.7854L22.0621 32.7791L21.9247 32.7739L21.7893 32.7699L21.6559 32.767L21.5244 32.7652L21.3949 32.7646L21.2674 32.7651L21.1418 32.7667L21.0183 32.7695L20.8967 32.7735L20.7771 32.7786L20.6595 32.7849L20.5439 32.7923L20.4303 32.8009L20.3187 32.8107L20.2091 32.8217L20.1015 32.8338L19.996 32.8471L19.8924 32.8617L19.7909 32.8774L19.6914 32.8942L19.5939 32.9123L19.4984 32.9316L19.405 32.9521L19.3136 32.9738L19.2242 32.9968L19.1369 33.0209L19.0515 33.0462L18.9683 33.0728L18.887 33.1006L18.8078 33.1296L18.7307 33.1598L18.6556 33.1913L18.5825 33.2239L18.5115 33.2579L18.4425 33.293L18.3755 33.3294L18.3106 33.3671L18.2478 33.406L18.187 33.4461L18.1282 33.4875L18.0715 33.5301L18.0169 33.574L17.9643 33.6191L17.9137 33.6655L17.8652 33.7131L17.8188 33.762L17.7744 33.8122L17.732 33.8636L17.6917 33.9163L17.6534 33.9703L17.6172 34.0255" stroke="#020202" stroke-width="4"/>
</g>
<defs>
<clipPath id="clip0_1232_10736">
<rect width="120" height="120" fill="white"/>
</clipPath>
</defs>
</svg>
