<svg width="298" height="298" viewBox="0 0 298 298" fill="none" xmlns="http://www.w3.org/2000/svg">
<g clip-path="url(#clip0_1971_2586)">
<path d="M217.927 149.344C217.927 187.079 210.062 221.143 197.443 245.7C184.77 270.361 167.62 284.904 149.236 284.904C130.852 284.904 113.702 270.361 101.029 245.7C88.4093 221.143 80.5449 187.079 80.5449 149.344C80.5449 111.608 88.4093 77.5445 101.029 52.9879C113.702 28.3267 130.852 13.7832 149.236 13.7832C167.62 13.7832 184.77 28.3267 197.443 52.9879C210.062 77.5445 217.927 111.608 217.927 149.344Z" stroke="#202020" stroke-opacity="0.4" stroke-width="4"/>
<path d="M149.342 76.7257C187.077 76.7257 221.141 84.5901 245.698 97.2094C270.359 109.883 284.902 127.033 284.902 145.417C284.902 163.8 270.359 180.951 245.698 193.624C221.141 206.243 187.077 214.107 149.342 214.107C111.606 214.107 77.5426 206.243 52.986 193.624C28.3248 180.951 13.7813 163.8 13.7813 145.417C13.7813 127.033 28.3248 109.883 52.986 97.2094C77.5426 84.5901 111.606 76.7257 149.342 76.7257Z" stroke="#202020" stroke-opacity="0.4" stroke-width="4"/>
<path d="M98.684 98.6859C125.367 72.0029 155.015 53.477 181.302 45.0361C207.701 36.5593 230.112 38.4025 243.112 51.4018C256.111 64.4011 257.954 86.812 249.477 113.211C241.036 139.499 222.51 169.146 195.828 195.829C169.145 222.512 139.497 241.038 113.209 249.479C86.8101 257.956 64.3992 256.113 51.3999 243.113C38.4006 230.114 36.5574 207.703 45.0342 181.304C53.4751 155.017 72.001 125.369 98.684 98.6859Z" stroke="#202020" stroke-opacity="0.4" stroke-width="4"/>
<path d="M102.169 195.819C75.6093 169.014 57.2199 139.281 48.8999 112.955C40.5445 86.5174 42.4906 64.1153 55.5496 51.1758C68.6085 38.2364 91.0276 36.4962 117.388 45.0943C143.636 53.656 173.198 72.3179 199.758 99.1232C226.318 125.929 244.708 155.661 253.028 181.987C261.383 208.425 259.437 230.827 246.378 243.767C233.319 256.706 210.9 258.446 184.54 249.848C158.292 241.287 128.729 222.625 102.169 195.819Z" stroke="#202020" stroke-opacity="0.4" stroke-width="4"/>
<circle cx="149.235" cy="149.237" r="139.382" stroke="#202020" stroke-opacity="0.4" stroke-width="4"/>
</g>
<defs>
<clipPath id="clip0_1971_2586">
<rect width="298" height="298" fill="white"/>
</clipPath>
</defs>
</svg>
