<svg width="298" height="298" viewBox="0 0 298 298" fill="none" xmlns="http://www.w3.org/2000/svg">
<g clip-path="url(#clip0_2424_1980)">
<path d="M217.926 149.344C217.926 187.079 210.062 221.143 197.442 245.7C184.769 270.361 167.619 284.904 149.235 284.904C130.851 284.904 113.701 270.361 101.028 245.7C88.4088 221.143 80.5444 187.079 80.5444 149.344C80.5444 111.608 88.4088 77.5445 101.028 52.9879C113.701 28.3267 130.851 13.7832 149.235 13.7832C167.619 13.7832 184.769 28.3267 197.442 52.9879C210.062 77.5445 217.926 111.608 217.926 149.344Z" stroke="#202020" stroke-opacity="0.2" stroke-width="4"/>
<path d="M149.341 76.7257C187.077 76.7257 221.141 84.5901 245.697 97.2094C270.358 109.883 284.902 127.033 284.902 145.417C284.902 163.8 270.358 180.951 245.697 193.624C221.141 206.243 187.077 214.107 149.341 214.107C111.606 214.107 77.5421 206.243 52.9855 193.624C28.3243 180.951 13.7808 163.8 13.7808 145.417C13.7808 127.033 28.3243 109.883 52.9855 97.2094C77.5421 84.5901 111.606 76.7257 149.341 76.7257Z" stroke="#202020" stroke-opacity="0.2" stroke-width="4"/>
<path d="M98.6845 98.6859C125.367 72.0029 155.015 53.477 181.303 45.0361C207.702 36.5593 230.113 38.4025 243.112 51.4018C256.111 64.4011 257.955 86.812 249.478 113.211C241.037 139.499 222.511 169.146 195.828 195.829C169.145 222.512 139.497 241.038 113.21 249.479C86.8106 257.956 64.3997 256.113 51.4004 243.113C38.4011 230.114 36.5579 207.703 45.0347 181.304C53.4756 155.017 72.0015 125.369 98.6845 98.6859Z" stroke="#202020" stroke-opacity="0.2" stroke-width="4"/>
<path d="M102.169 195.819C75.6088 169.014 57.2194 139.281 48.8994 112.955C40.544 86.5174 42.4902 64.1153 55.5491 51.1758C68.6081 38.2364 91.0271 36.4962 117.387 45.0943C143.636 53.656 173.198 72.3179 199.758 99.1232C226.318 125.929 244.707 155.661 253.027 181.987C261.383 208.425 259.437 230.827 246.378 243.767C233.319 256.706 210.9 258.446 184.539 249.848C158.291 241.287 128.729 222.625 102.169 195.819Z" stroke="#202020" stroke-opacity="0.2" stroke-width="4"/>
<circle cx="149.235" cy="149.237" r="139.382" stroke="#202020" stroke-opacity="0.2" stroke-width="4"/>
</g>
<defs>
<clipPath id="clip0_2424_1980">
<rect width="298" height="298" fill="white"/>
</clipPath>
</defs>
</svg>
