<svg width="289" height="40" viewBox="0 0 289 40" fill="none" xmlns="http://www.w3.org/2000/svg">
<path d="M39.8831 40H29.9127V15.8944L5.57249 40H0V0H9.97117V24.986L34.1356 0H39.8831V40Z" fill="#F05555"/>
<path d="M83.1693 0H91.8489V40H81.8785V15.0148L71.0866 27.5666H69.5613L58.7702 15.0148V40H48.7998V0H57.4802L70.324 14.8391L83.1693 0Z" fill="#F05555"/>
<path d="M110.736 32.6691H116.367C121.879 32.6691 124.167 30.7334 124.167 27.2732C124.167 24.3402 121.234 22.1118 117.715 22.1118H110.736V32.6691ZM131.323 7.33165H110.736V14.7802H119.416C130.208 14.7802 134.724 21.408 134.724 27.3901C134.724 32.0234 131.909 40 120.237 40H100.766V0H131.323V7.33165Z" fill="#F05555"/>
<path d="M159.652 9.56001L153.786 25.1029H166.103L159.652 9.56001ZM183.053 40H172.32L169.036 32.0822H151.148L148.156 40H137.599L153.728 0H165.283L183.053 40Z" fill="#F05555"/>
<path d="M243.934 40H233.964V15.8944L209.623 40H204.052V0H214.022V24.986L238.187 0H243.934V40Z" fill="white"/>
<path d="M288.921 7.33165H274.434V40H264.463V7.33165H249.977V0H288.921V7.33165Z" fill="white"/>
</svg>
