<svg width="620" height="620" viewBox="0 0 620 620" fill="none" xmlns="http://www.w3.org/2000/svg">
<path d="M290.167 562.581L227.446 563.465L177.224 525.883L147.088 455.419L141.716 362.758L161.974 262.049L204.78 168.667L263.591 96.8596L329.389 57.5667L392.11 56.6821L442.332 94.2639L472.468 164.728L477.84 257.39L457.582 358.098L414.776 451.48L355.965 523.288L290.167 562.581Z" stroke="#ADADAD"/>
<path d="M299.149 561L236.958 564.028L185.82 528.504L153.459 459.702L144.89 368.051L161.466 267.546L200.668 173.529L256.503 100.345L320.406 59.1466L382.598 56.1193L433.735 91.6433L466.097 160.445L474.666 252.096L458.089 352.601L418.887 446.618L363.053 519.802L299.149 561Z" stroke="#ADADAD"/>
<path d="M307.998 559.104L246.407 564.238L194.436 530.79L159.929 463.719L148.226 373.188L161.16 273.02L196.767 178.504L249.601 104.064L311.557 61.0441L373.148 55.91L425.119 89.3583L459.626 156.429L471.328 246.96L458.394 347.128L422.788 441.644L369.954 516.084L307.998 559.104Z" stroke="#ADADAD"/>
<path d="M316.702 556.898L255.783 564.1L203.06 532.742L166.488 467.468L151.72 378.163L161.055 278.462L193.079 183.583L242.894 108.006L302.854 63.25L363.773 56.0471L416.495 87.4053L453.067 152.68L467.835 241.984L458.5 341.686L426.476 436.564L376.661 512.142L316.702 556.898Z" stroke="#ADADAD"/>
<path d="M325.248 554.39L265.07 563.621L211.678 534.364L173.124 470.948L155.361 382.972L161.147 283.866L189.607 188.758L236.388 112.163L294.306 65.7575L354.484 56.5265L407.876 85.7831L446.43 149.199L464.193 237.175L458.408 336.281L429.948 431.389L383.167 507.984L325.248 554.39Z" stroke="#ADADAD"/>
<path d="M333.629 551.588L274.258 562.805L220.279 535.658L179.828 474.158L159.146 387.61L161.434 289.225L186.353 194.021L230.09 116.526L285.926 68.5585L345.297 57.3421L399.276 84.4889L439.727 145.989L460.409 232.537L458.121 330.922L433.202 426.126L389.465 503.621L333.629 551.588Z" stroke="#ADADAD"/>
<path d="M341.833 548.503L283.334 561.66L228.849 536.628L186.588 477.099L163.064 392.075L161.912 294.533L183.319 199.361L224.007 121.086L277.721 71.6447L336.22 58.4879L390.705 83.5198L432.966 143.049L456.491 228.073L457.643 325.615L436.236 420.786L395.548 499.061L341.833 548.503Z" stroke="#ADADAD"/>
<path d="M349.852 545.141L292.288 560.192L237.378 537.277L193.395 479.769L167.109 396.361L162.579 299.781L180.506 204.771L218.144 125.833L269.704 75.0062L327.268 59.956L382.177 82.8712L426.161 140.379L452.447 223.787L456.977 320.367L439.049 415.377L401.411 494.315L349.852 545.141Z" stroke="#ADADAD"/>
<path d="M357.675 541.513L301.105 558.408L245.852 537.608L200.235 482.169L171.272 400.465L163.43 304.963L177.915 210.241L212.507 130.756L261.88 78.6342L318.449 61.7396L373.702 82.5391L419.32 137.978L448.282 219.682L456.125 315.184L441.639 409.907L407.048 489.391L357.675 541.513Z" stroke="#ADADAD"/>
<path d="M365.294 537.628L309.777 556.316L254.261 537.628L207.101 484.301L175.548 404.385L164.462 310.074L175.548 215.762L207.101 135.847L254.261 82.5195L309.777 63.8316L365.294 82.5195L412.454 135.847L444.007 215.762L455.092 310.074L444.007 404.385L412.454 484.301L365.294 537.628Z" stroke="#ADADAD"/>
<path d="M372.7 533.495L318.293 553.924L262.593 537.34L213.981 486.165L179.927 408.118L165.672 315.106L173.404 221.326L201.931 141.094L246.855 86.6524L301.262 66.2238L356.962 82.8074L405.574 133.983L439.628 212.03L453.883 305.042L446.151 398.822L417.624 479.054L372.7 533.495Z" stroke="#ADADAD"/>
<path d="M379.886 529.125L326.641 551.24L270.836 536.751L220.865 487.763L184.401 411.661L167.054 320.054L171.483 226.924L197.001 146.488L239.668 91.0219L292.913 68.907L348.718 83.3964L398.689 132.385L435.153 208.486L452.5 300.093L448.071 393.223L422.554 473.659L379.886 529.125Z" stroke="#ADADAD"/>
<path d="M386.845 524.528L334.813 548.274L278.981 535.865L227.743 489.097L188.963 415.013L168.605 324.911L169.786 232.546L192.315 152.019L232.709 95.6188L284.741 71.8735L340.573 84.2818L391.811 131.051L430.591 205.135L450.949 295.236L449.769 387.601L427.239 468.129L386.845 524.528Z" stroke="#ADADAD"/>
<path d="M393.569 519.715L342.798 545.033L287.016 534.69L234.605 490.169L193.606 418.17L170.319 329.673L168.311 238.185L187.876 157.675L225.985 100.432L276.756 75.1135L332.538 85.4565L384.949 129.978L425.948 201.977L449.235 290.474L451.243 381.962L431.678 462.472L393.569 519.715Z" stroke="#ADADAD"/>
<path d="M400.053 514.697L350.589 541.529L294.932 533.233L241.442 490.983L198.321 421.134L172.193 334.334L167.058 243.833L183.689 163.447L219.502 105.451L268.966 78.6191L324.623 86.9156L378.113 129.165L421.234 199.014L447.362 285.814L452.497 376.316L435.866 456.701L400.053 514.697Z" stroke="#ADADAD"/>
<path d="M406.288 509.483L358.175 537.769L302.717 531.498L248.243 491.541L203.1 423.9L174.221 338.887L166.025 249.478L179.754 169.324L213.266 110.664L261.379 82.3783L316.837 88.6497L371.311 128.607L416.455 196.247L445.334 281.26L453.529 370.67L439.801 450.824L406.288 509.483Z" stroke="#ADADAD"/>
<path d="M412.271 504.087L365.55 533.765L310.364 529.495L255 491.847L207.935 426.47L176.398 343.329L165.212 255.114L176.075 175.295L207.284 116.062L254.005 86.3831L309.191 90.6535L364.555 128.302L411.62 193.678L443.157 276.819L454.344 365.034L443.48 444.853L412.271 504.087Z" stroke="#ADADAD"/>
<path d="M417.996 498.517L372.704 529.526L317.863 527.229L261.702 491.903L212.819 428.842L178.718 347.654L164.614 260.732L172.652 181.349L201.559 121.631L246.851 90.6216L301.693 92.9178L357.853 128.244L406.736 191.305L440.837 272.493L454.941 359.415L446.903 438.798L417.996 498.517Z" stroke="#ADADAD"/>
<path d="M423.458 492.787L379.632 525.063L325.204 524.712L268.341 491.717L217.743 431.017L181.176 351.859L164.232 266.325L169.488 187.478L196.097 127.361L239.924 95.0854L294.351 95.4366L351.215 128.431L401.812 189.131L438.379 268.289L455.323 353.823L450.068 432.67L423.458 492.787Z" stroke="#ADADAD"/>
<path d="M428.654 486.907L386.325 520.386L332.379 521.948L274.908 491.29L222.7 432.994L183.767 355.938L164.061 271.884L166.582 193.668L190.902 133.241L233.23 99.7619L287.176 98.1999L344.648 128.858L396.855 187.154L435.789 264.21L455.494 348.264L452.973 426.48L428.654 486.907Z" stroke="#ADADAD"/>
<path d="M433.578 480.889L392.778 515.506L339.381 518.947L281.394 490.629L227.682 434.774L186.484 359.888L164.099 277.401L163.937 199.911L185.977 139.259L226.778 104.642L280.174 101.2L338.161 129.519L391.873 185.374L433.071 260.26L455.456 342.747L455.619 420.237L433.578 480.889Z" stroke="#ADADAD"/>
<path d="M438.229 474.745L398.984 510.435L346.201 515.719L287.791 489.737L232.681 436.357L189.322 363.704L164.344 282.867L161.55 206.194L181.325 145.402L220.571 109.712L273.353 104.429L331.763 130.41L386.873 183.791L430.232 256.444L455.211 337.28L458.004 413.953L438.229 474.745Z" stroke="#ADADAD"/>
<path d="M442.604 468.487L404.939 505.184L352.833 512.272L294.092 488.621L237.691 437.744L192.275 367.383L164.79 288.277L159.423 212.509L176.951 151.66L214.616 114.964L266.722 107.876L325.462 131.527L381.864 182.403L427.279 252.764L454.764 331.871L460.131 407.639L442.604 468.487Z" stroke="#ADADAD"/>
<path d="M446.699 462.127L410.637 499.763L359.269 508.614L300.288 487.287L242.702 438.938L195.337 370.923L165.436 293.622L157.555 218.845L172.855 158.021L208.918 120.385L260.286 111.534L319.266 132.861L376.853 181.21L424.217 249.225L454.118 326.526L462 401.303L446.699 462.127Z" stroke="#ADADAD"/>
<path d="M450.515 455.674L416.074 494.184L365.503 504.756L306.373 485.739L247.709 439.938L198.503 374.318L166.277 298.895L155.944 225.19L169.04 164.473L203.481 125.963L254.053 115.391L313.183 134.408L371.847 180.209L421.053 245.829L453.278 321.252L463.611 394.957L450.515 455.674Z" stroke="#ADADAD"/>
<path d="M454.048 449.144L421.246 488.46L371.528 500.708L312.337 483.985L252.702 440.748L201.763 377.568L167.308 304.089L154.589 231.536L165.506 171.004L198.309 131.687L248.026 119.44L307.218 136.162L366.853 179.4L417.792 242.579L452.247 316.059L464.966 388.612L454.048 449.144Z" stroke="#ADADAD"/>
<path d="M457.299 442.545L426.149 482.602L377.34 496.478L318.174 482.031L257.676 441.369L205.114 380.67L168.525 309.197L153.487 237.871L162.255 177.602L193.406 137.546L242.214 123.669L301.38 138.116L361.878 178.778L414.44 239.478L451.029 310.95L466.068 382.276L457.299 442.545Z" stroke="#ADADAD"/>
<path d="M460.268 435.891L430.781 476.62L382.934 492.078L323.88 479.884L262.624 441.803L208.55 383.62L169.924 314.213L152.637 244.188L159.288 184.256L188.775 143.527L236.622 128.07L295.676 140.264L356.932 178.344L411.006 236.527L449.631 305.934L466.919 375.96L460.268 435.891Z" stroke="#ADADAD"/>
<path d="M462.952 429.194L435.138 470.528L388.302 487.517L329.445 477.55L267.537 442.054L212.062 386.418L171.498 319.13L152.034 250.474L156.602 190.954L184.416 149.619L231.252 132.631L290.109 142.598L352.017 178.093L407.493 233.73L448.056 301.018L467.52 369.674L462.952 429.194Z" stroke="#ADADAD"/>
<path d="M465.356 422.463L439.22 464.337L393.444 482.804L334.866 475.036L272.411 442.124L215.645 389.06L173.245 323.942L151.678 256.721L154.2 197.684L180.335 155.81L226.112 137.343L284.689 145.111L347.144 178.023L403.91 231.087L446.31 296.205L467.877 363.426L465.356 422.463Z" stroke="#ADADAD"/>
<path d="M467.477 415.712L443.023 458.059L398.352 477.952L340.135 472.351L277.238 442.016L219.292 391.547L175.156 328.644L151.563 262.92L152.077 204.436L176.531 162.089L221.202 142.196L279.42 147.797L342.317 178.132L400.262 228.601L444.398 291.505L467.992 357.228L467.477 415.712Z" stroke="#ADADAD"/>
<path d="M469.32 408.951L446.549 451.705L403.026 472.97L345.248 469.5L282.011 441.734L222.998 393.876L177.229 333.228L151.686 269.061L150.235 211.197L173.006 168.443L216.529 147.178L274.307 150.648L337.543 178.414L396.557 226.272L442.326 286.92L467.868 351.087L469.32 408.951Z" stroke="#ADADAD"/>
<path d="M470.884 402.191L449.794 445.287L407.461 467.868L350.199 466.492L286.725 441.281L226.754 396.046L179.455 337.691L152.043 275.135L148.67 217.957L169.76 174.861L212.093 152.28L269.355 153.655L332.829 178.867L392.8 224.101L440.099 282.457L467.511 345.013L470.884 402.191Z" stroke="#ADADAD"/>
<path d="M472.174 395.444L452.761 438.817L411.655 462.657L354.986 463.335L291.374 440.661L230.556 398.058L181.83 342.027L152.63 281.134L147.381 224.704L166.794 181.331L207.9 157.491L264.569 156.812L328.181 179.487L388.999 222.09L437.725 278.121L466.925 339.014L472.174 395.444Z" stroke="#ADADAD"/>
<path d="M473.191 388.721L455.449 432.307L415.606 457.348L359.601 460.037L295.951 439.878L234.396 399.91L184.347 346.231L153.441 287.048L146.365 231.427L164.107 187.841L203.95 162.8L259.954 160.111L323.605 180.27L385.159 220.238L435.208 273.917L466.114 333.1L473.191 388.721Z" stroke="#ADADAD"/>
<path d="M473.938 382.032L457.858 425.767L419.312 451.95L364.042 456.605L300.45 438.936L238.268 401.602L187 350.299L154.471 292.87L145.617 238.117L161.697 194.381L200.243 168.198L255.513 163.543L319.105 181.212L381.287 218.546L432.555 269.849L465.084 327.278L473.938 382.032Z" stroke="#ADADAD"/>
<path d="M474.421 375.387L459.991 419.21L422.772 446.475L368.305 453.048L304.867 437.839L242.165 403.134L189.782 354.225L155.715 298.592L145.135 244.76L159.564 200.937L196.784 173.672L251.25 167.099L314.688 182.308L377.39 217.013L429.773 265.922L463.84 321.555L474.421 375.387Z" stroke="#ADADAD"/>
<path d="M474.641 368.798L461.848 412.647L425.984 440.935L372.386 449.374L309.196 436.594L246.08 404.508L192.687 358.008L157.166 304.206L144.913 251.35L157.706 207.501L193.57 179.213L247.167 170.774L310.357 183.554L373.473 215.64L426.866 262.141L462.387 315.942L474.641 368.798Z" stroke="#ADADAD"/>
<path d="M474.605 362.274L463.433 406.089L428.95 435.338L376.285 445.591L313.433 435.204L250.01 405.722L195.709 361.641L158.82 309.704L144.949 257.875L156.122 214.06L190.605 184.811L243.269 174.558L306.121 184.945L369.544 214.426L423.845 258.507L460.734 310.444L474.605 362.274Z" stroke="#ADADAD"/>
<path d="M474.317 355.824L464.748 399.545L431.668 429.694L379.996 441.706L317.573 433.672L253.946 406.777L198.84 365.122L160.671 315.079L145.238 264.323L154.807 220.601L187.887 190.453L239.559 178.44L301.982 186.475L365.61 213.369L420.715 255.025L458.885 305.068L474.317 355.824Z" stroke="#ADADAD"/>
<path d="M473.782 349.459L465.795 393.03L434.14 424.016L383.519 437.731L321.61 432.007L257.881 407.677L202.074 368.449L162.71 320.325L145.773 270.688L153.76 227.118L185.415 196.132L236.036 182.417L297.946 188.141L361.674 212.471L417.481 251.699L456.846 299.823L473.782 349.459Z" stroke="#ADADAD"/>
<path d="M473.006 343.188L466.579 386.551L436.366 418.312L386.85 433.671L325.54 430.212L261.811 408.42L205.403 371.617L164.931 325.434L146.55 276.959L152.976 233.596L183.19 201.835L232.705 186.476L294.015 189.935L357.745 211.727L414.152 248.53L454.625 294.713L473.006 343.188Z" stroke="#ADADAD"/>
<path d="M471.993 337.02L467.103 380.12L438.346 412.593L389.989 429.537L329.36 428.293L265.728 409.01L208.82 374.625L167.326 330.401L147.561 283.127L152.451 240.028L181.208 207.554L229.565 190.611L290.194 191.855L353.826 211.138L410.734 245.523L452.228 289.747L471.993 337.02Z" stroke="#ADADAD"/>
<path d="M470.753 330.964L467.372 373.746L440.085 406.87L392.936 425.335L333.066 426.255L269.628 409.447L212.319 377.47L169.891 335.219L148.802 289.184L152.183 246.401L179.47 213.278L226.619 194.812L286.489 193.893L349.927 210.701L407.236 242.678L449.664 284.928L470.753 330.964Z" stroke="#ADADAD"/>
<path d="M469.289 325.027L467.39 367.44L441.582 401.152L395.688 421.075L336.654 424.104L273.504 409.734L215.892 380.15L172.616 339.884L150.265 295.121L152.165 252.708L177.973 218.996L223.867 199.073L282.901 196.044L346.051 210.414L403.663 239.998L446.939 280.264L469.289 325.027Z" stroke="#ADADAD"/>
<path d="M467.61 319.218L467.163 361.211L442.842 395.447L398.245 416.764L340.121 421.845L277.351 409.872L219.532 382.664L175.494 344.388L151.945 300.929L152.392 258.936L176.713 224.7L221.31 203.383L279.434 198.302L342.204 210.276L400.023 237.484L444.061 275.759L467.61 319.218Z" stroke="#ADADAD"/>
<path d="M465.722 313.545L466.695 355.069L443.866 389.768L400.608 412.413L343.463 419.486L281.163 409.865L223.231 385.01L178.517 348.729L153.832 306.603L152.86 265.078L175.689 230.379L218.947 207.735L276.092 200.662L338.392 210.283L396.324 235.138L441.037 271.418L465.722 313.545Z" stroke="#ADADAD"/>
<path d="M463.633 308.015L465.993 349.023L444.657 384.123L402.776 408.028L346.677 417.03L284.934 409.714L226.983 387.187L181.677 352.902L155.921 312.133L153.561 271.125L174.897 236.025L216.778 212.121L272.876 203.118L334.62 210.434L392.571 232.961L437.876 267.247L463.633 308.015Z" stroke="#ADADAD"/>
<path d="M461.351 302.635L465.063 343.081L445.221 378.52L404.75 403.617L349.763 414.485L288.659 409.423L230.78 389.195L184.967 356.901L158.203 317.513L154.491 277.067L174.333 241.628L214.804 216.531L269.791 205.663L330.894 210.725L388.774 230.954L434.586 263.248L461.351 302.635Z" stroke="#ADADAD"/>
<path d="M458.884 297.412L463.912 337.252L445.561 372.969L406.532 399.189L352.717 411.856L292.335 408.995L234.616 391.032L188.379 360.723L160.672 322.736L155.644 282.896L173.994 247.178L213.023 220.959L266.838 208.292L327.22 211.153L384.939 229.116L431.177 259.425L458.884 297.412Z" stroke="#ADADAD"/>
<path d="M456.238 292.352L462.544 331.544L445.68 367.479L408.122 394.752L355.537 409.15L295.954 408.433L238.481 392.699L191.901 364.364L163.316 327.796L157.01 288.604L173.875 252.669L211.432 225.396L264.018 210.998L323.6 211.715L381.073 227.449L427.653 255.784L456.238 292.352Z" stroke="#ADADAD"/>
<path d="M453.424 287.461L460.97 325.964L445.583 362.058L409.522 390.314L358.221 406.372L299.512 407.739L242.371 394.196L195.529 367.822L166.13 332.686L158.584 294.183L173.971 258.089L210.032 229.833L261.334 213.775L320.042 212.408L377.184 225.951L424.025 252.325L453.424 287.461Z" stroke="#ADADAD"/>
<path d="M450.45 282.745L459.195 320.522L445.277 356.715L410.734 385.883L360.767 403.53L303.005 406.92L246.277 395.524L199.253 371.094L169.105 337.403L160.36 299.626L174.277 263.433L208.821 234.266L258.787 216.619L316.549 213.229L373.278 224.625L420.302 249.054L450.45 282.745Z" stroke="#ADADAD"/>
<path d="M447.323 278.207L457.226 315.222L444.766 351.456L411.76 381.465L363.176 400.627L306.428 405.975L250.192 396.681L203.063 374.177L172.231 341.939L162.328 304.924L174.789 268.69L207.795 238.682L256.379 219.52L313.126 214.172L369.362 223.465L416.491 245.97L447.323 278.207Z" stroke="#ADADAD"/>
<path d="M444.055 273.856L455.073 310.074L444.055 346.292L412.602 377.07L365.445 397.672L309.777 404.912L254.11 397.672L206.952 377.07L175.5 346.292L164.482 310.074L175.5 273.856L206.952 243.078L254.11 222.475L309.777 215.235L365.445 222.475L412.602 243.078L444.055 273.856Z" stroke="#ADADAD"/>
<path d="M440.652 269.692L452.743 305.081L443.15 341.228L413.264 372.704L367.573 394.671L313.048 403.734L258.023 398.496L210.911 379.77L178.902 350.456L166.812 315.066L176.404 278.92L206.29 247.444L251.981 225.477L306.507 216.414L361.531 221.651L408.643 240.378L440.652 269.692Z" stroke="#ADADAD"/>
<path d="M437.125 265.722L450.244 300.252L442.059 336.272L413.748 368.374L369.561 391.629L316.236 402.444L261.925 399.155L214.932 382.277L182.429 354.427L169.311 319.897L177.496 283.877L205.806 251.774L249.993 228.52L303.318 217.705L357.629 220.993L404.623 237.872L437.125 265.722Z" stroke="#ADADAD"/>
<path d="M433.483 261.947L447.584 295.59L440.786 331.429L414.058 364.088L371.408 388.552L319.339 401.046L265.809 399.651L219.005 384.589L186.071 358.201L171.97 324.558L178.769 288.719L205.496 256.061L248.146 231.596L300.216 219.102L353.745 220.497L400.55 235.56L433.483 261.947Z" stroke="#ADADAD"/>
<path d="M429.736 258.372L444.774 291.101L439.34 326.708L414.199 359.851L373.116 385.446L322.353 399.546L269.669 399.985L223.123 386.705L189.82 361.776L174.782 329.046L180.216 293.439L205.357 260.297L246.44 234.701L297.203 220.601L349.887 220.163L396.433 233.443L429.736 258.372Z" stroke="#ADADAD"/>
<path d="M425.89 254.999L441.819 286.791L437.724 322.115L414.17 355.672L374.68 382.319L325.271 397.948L273.496 400.16L227.274 388.627L193.663 365.149L177.734 333.357L181.829 298.034L205.383 264.476L244.873 237.829L294.282 222.2L346.057 219.988L392.279 231.522L425.89 254.999Z" stroke="#ADADAD"/>
<path d="M421.959 251.83L438.733 282.664L435.95 317.654L413.981 351.555L376.107 379.175L328.096 396.257L277.288 400.179L231.454 390.353L197.595 368.318L180.821 337.484L183.604 302.494L205.573 268.593L243.447 240.973L291.458 223.891L342.266 219.969L388.101 229.795L421.959 251.83Z" stroke="#ADADAD"/>
<path d="M417.95 248.867L435.521 278.722L434.023 313.331L413.634 347.507L377.394 376.02L330.821 394.476L281.035 400.045L235.652 391.884L201.604 371.279L184.033 341.425L185.532 306.816L205.921 272.639L242.161 244.127L288.733 225.671L338.52 220.102L383.903 228.263L417.95 248.867Z" stroke="#ADADAD"/>
<path d="M413.874 246.113L432.194 274.971L431.95 309.153L413.133 343.536L378.543 372.861L333.445 392.613L284.733 399.76L239.859 393.222L205.681 374.035L187.36 345.176L187.605 310.995L206.421 276.612L241.012 247.287L286.11 227.535L334.822 220.387L379.696 226.926L413.874 246.113Z" stroke="#ADADAD"/>
<path d="M409.739 243.567L428.762 271.413L429.74 305.122L412.484 339.645L379.555 369.702L335.965 390.669L288.375 399.328L244.068 394.367L209.816 376.58L190.794 348.734L189.815 315.024L207.071 280.502L240 250.445L283.59 229.478L331.18 220.818L375.487 225.78L409.739 243.567Z" stroke="#ADADAD"/>
<path d="M405.555 241.231L425.232 268.052L427.399 301.246L411.691 335.841L380.432 366.551L338.377 388.652L291.956 398.754L248.27 395.321L213.999 378.917L194.323 352.096L192.155 318.902L207.864 284.307L239.123 253.596L281.177 231.496L327.599 221.394L371.284 224.827L405.555 241.231Z" stroke="#ADADAD"/>
<path d="M401.332 239.104L421.614 264.889L424.936 297.526L410.758 332.129L381.174 363.412L340.681 386.566L295.469 398.04L252.457 396.087L218.221 381.044L197.939 355.259L194.617 322.622L208.795 288.02L238.379 256.736L278.872 233.582L324.084 222.109L367.096 224.061L401.332 239.104Z" stroke="#ADADAD"/>
<path d="M397.08 237.186L417.92 261.925L422.36 293.966L409.694 328.512L381.786 360.291L342.876 384.416L298.911 397.189L256.621 396.665L222.473 382.961L201.633 358.222L197.193 326.182L209.859 291.635L237.767 259.857L276.677 235.731L320.642 222.959L362.932 223.483L397.08 237.186Z" stroke="#ADADAD"/>
<path d="M392.808 235.478L414.158 259.164L419.679 290.571L408.504 324.998L382.269 357.193L344.959 382.208L302.277 396.208L260.755 397.059L226.746 384.67L205.396 360.984L199.876 329.578L211.051 295.15L237.286 262.955L274.595 237.94L317.278 223.941L358.799 223.089L392.808 235.478Z" stroke="#ADADAD"/>
<path d="M388.525 233.977L410.337 256.605L416.9 287.342L407.191 321.588L382.624 354.122L346.929 379.945L305.56 395.098L264.85 397.272L231.03 386.171L209.217 363.542L202.655 332.806L212.364 298.559L236.93 266.025L272.626 240.202L313.995 225.049L354.704 222.875L388.525 233.977Z" stroke="#ADADAD"/>
<path d="M384.241 232.682L406.468 254.25L414.032 284.283L405.763 318.289L382.855 351.086L348.784 377.635L308.756 393.867L268.9 397.307L235.315 387.466L213.087 365.898L205.523 335.865L213.793 301.859L236.7 269.062L270.771 242.513L310.799 226.281L350.656 222.841L384.241 232.682Z" stroke="#ADADAD"/>
<path d="M379.963 231.593L402.558 252.098L411.084 281.396L404.225 315.104L382.964 348.087L350.524 375.281L311.86 392.518L272.895 397.168L239.592 388.556L216.997 368.05L208.472 338.752L215.33 305.044L236.591 272.061L269.032 244.867L307.695 227.631L346.66 222.981L379.963 231.593Z" stroke="#ADADAD"/>
<path d="M375.702 230.705L398.619 250.15L408.063 278.682L402.584 312.035L382.955 345.131L352.147 372.889L314.869 391.055L276.83 396.857L243.853 389.443L220.936 369.998L211.492 341.466L216.972 308.113L236.601 275.017L267.408 247.258L304.686 229.093L342.725 223.291L375.702 230.705Z" stroke="#ADADAD"/>
<path d="M371.466 230.018L394.658 248.405L404.978 276.144L400.845 309.087L382.828 342.223L353.654 370.465L317.778 389.485L280.697 396.38L248.088 390.131L224.896 371.744L214.576 344.005L218.709 311.061L236.725 277.926L265.9 249.683L301.776 230.664L338.857 223.768L371.466 230.018Z" stroke="#ADADAD"/>
<path d="M367.264 229.527L390.687 246.86L401.839 273.78L399.016 306.262L382.591 339.366L355.044 368.013L320.584 387.811L284.49 395.74L252.29 390.62L228.868 373.287L217.715 346.367L220.538 313.885L236.963 280.781L264.51 252.135L298.97 232.336L335.064 224.407L367.264 229.527Z" stroke="#ADADAD"/>
<path d="M363.105 229.23L386.713 245.517L398.653 271.594L397.104 303.564L382.245 336.566L356.318 365.539L323.283 386.041L288.202 394.943L256.449 390.917L232.841 374.631L220.901 348.554L222.451 316.584L237.309 283.582L263.237 254.609L296.271 234.107L331.352 225.204L363.105 229.23Z" stroke="#ADADAD"/>
<path d="M358.997 229.124L382.746 244.372L395.428 269.585L395.113 300.994L381.793 333.826L357.474 363.047L325.871 384.178L291.826 393.993L260.557 391.024L236.808 375.775L224.125 350.563L224.44 319.154L237.761 286.322L262.08 257.101L293.683 235.969L327.727 226.154L358.997 229.124Z" stroke="#ADADAD"/>
<path d="M354.948 229.204L378.795 243.424L392.175 267.753L393.052 298.554L381.24 331.15L358.515 360.543L328.346 382.229L295.358 392.896L264.606 390.945L240.759 376.724L227.379 352.395L226.502 321.594L238.314 288.998L261.039 259.605L291.208 237.919L324.196 227.252L354.948 229.204Z" stroke="#ADADAD"/>
<path d="M350.966 229.465L374.869 242.669L388.9 266.097L390.927 296.246L380.59 328.541L359.44 358.032L330.705 380.199L298.791 391.656L268.589 390.683L244.686 377.478L230.655 354.051L228.628 323.901L238.965 291.606L260.115 262.115L288.85 239.948L320.764 228.491L350.966 229.465Z" stroke="#ADADAD"/>
<path d="M347.058 229.903L370.976 242.106L385.612 264.617L388.744 294.073L379.846 326.004L360.249 355.519L332.945 378.094L302.118 390.28L272.496 390.244L248.578 378.042L233.943 355.531L230.811 326.075L239.708 294.143L259.305 264.628L286.61 242.054L317.436 229.867L347.058 229.903Z" stroke="#ADADAD"/>
<path d="M343.233 230.514L367.125 241.73L382.319 263.311L386.51 292.034L379.014 323.542L360.946 353.009L335.064 375.92L305.336 388.773L276.322 389.633L252.43 378.418L237.236 356.837L233.045 328.114L240.541 296.606L258.609 267.139L284.492 244.228L314.219 231.374L343.233 230.514Z" stroke="#ADADAD"/>
<path d="M339.497 231.292L363.324 241.537L379.029 262.178L384.232 290.13L378.096 321.157L361.529 350.506L337.059 373.681L308.439 387.141L280.058 388.855L256.231 378.61L240.525 357.969L235.323 330.017L241.459 298.991L258.026 269.641L282.496 246.466L311.116 233.006L339.497 231.292Z" stroke="#ADADAD"/>
<path d="M335.857 232.232L359.582 241.525L375.752 261.216L381.917 288.363L377.098 318.852L362.002 348.016L338.93 371.386L311.423 385.391L283.699 387.916L259.975 378.623L243.805 358.931L237.639 331.784L242.458 301.295L257.555 272.131L280.626 248.761L308.134 234.756L335.857 232.232Z" stroke="#ADADAD"/>
<path d="M332.319 233.327L355.904 241.688L372.491 260.423L379.57 286.732L376.023 316.631L362.363 345.543L340.673 369.039L314.281 383.528L287.235 386.82L263.651 378.459L247.063 359.724L239.984 333.414L243.531 303.516L257.191 274.604L278.881 251.108L305.274 236.619L332.319 233.327Z" stroke="#ADADAD"/>
<path d="M328.891 234.572L352.301 242.022L369.259 259.797L377.2 285.239L374.877 314.495L362.618 343.092L342.289 366.647L317.012 381.56L290.664 385.576L267.254 378.125L250.295 360.351L242.354 334.909L244.677 305.652L256.937 277.056L277.265 253.501L302.543 238.587L328.891 234.572Z" stroke="#ADADAD"/>
<path d="M325.578 235.961L348.779 242.523L366.062 259.334L374.813 283.881L373.665 312.448L362.767 340.668L343.777 364.216L319.611 379.494L293.977 384.188L270.777 377.626L253.494 360.815L244.742 336.268L245.89 307.701L256.789 279.481L275.778 255.933L299.945 240.655L325.578 235.961Z" stroke="#ADADAD"/>
<path d="M322.386 237.485L345.344 243.183L362.906 259.03L372.415 282.657L372.391 310.489L362.811 338.272L345.135 361.75L322.074 377.334L297.169 382.663L274.211 376.965L256.649 361.118L247.141 337.491L247.164 309.658L256.744 281.875L274.42 258.397L297.481 242.814L322.386 237.485Z" stroke="#ADADAD"/>
<path d="M319.32 239.14L342.004 243.998L359.799 258.883L370.012 281.568L371.059 308.623L362.755 335.913L346.362 359.258L324.399 375.089L300.235 381.007L277.55 376.149L259.756 361.265L249.543 338.579L248.496 311.525L256.8 284.235L273.192 260.89L295.156 245.059L319.32 239.14Z" stroke="#ADADAD"/>
<path d="M316.386 240.918L338.767 244.963L356.748 258.889L367.611 280.612L369.675 306.849L362.599 333.591L347.46 356.744L326.582 372.766L303.169 379.229L280.788 375.184L262.807 361.258L251.944 339.535L249.88 313.298L256.955 286.556L272.095 263.404L292.973 247.381L316.386 240.918Z" stroke="#ADADAD"/>
<path d="M313.587 242.812L335.637 246.071L353.761 259.043L365.219 279.789L368.243 305.171L362.348 331.314L348.428 354.215L328.621 370.372L305.968 377.335L283.919 374.077L265.794 361.104L254.336 340.359L251.312 314.977L257.207 288.834L271.127 265.933L290.934 249.776L313.587 242.812Z" stroke="#ADADAD"/>
<path d="M310.929 244.814L332.62 247.314L350.842 259.341L362.841 279.094L366.769 303.587L362.003 329.082L349.266 351.676L330.513 367.914L308.625 375.332L286.935 372.832L268.712 360.805L256.713 341.053L252.786 316.56L257.552 291.065L270.289 268.471L289.041 252.233L310.929 244.814Z" stroke="#ADADAD"/>
<path d="M308.417 246.918L329.723 248.689L348.001 259.78L360.485 278.528L365.257 302.101L361.568 326.902L349.975 349.134L332.258 365.4L311.139 373.229L289.833 371.459L271.555 360.368L259.071 341.62L254.299 318.047L257.988 293.246L269.581 271.014L287.297 254.748L308.417 246.918Z" stroke="#ADADAD"/>
<path d="M306.053 249.115L326.95 250.186L345.24 260.352L358.155 278.087L363.712 300.711L361.045 324.774L350.555 346.595L333.853 362.836L313.503 371.033L292.606 369.961L274.316 359.796L261.401 342.061L255.844 319.437L258.511 295.373L269.001 273.553L285.703 257.311L306.053 249.115Z" stroke="#ADADAD"/>
<path d="M303.839 251.398L324.306 251.8L342.567 261.054L355.856 277.769L362.139 299.419L360.438 322.705L351.007 344.064L335.296 360.231L315.715 368.751L295.248 368.348L276.987 359.095L263.698 342.38L257.415 320.729L259.116 297.443L268.546 276.084L284.258 259.917L303.839 251.398Z" stroke="#ADADAD"/>
<path d="M301.781 253.757L321.798 253.522L339.988 261.879L353.598 277.57L360.543 298.225L359.751 320.696L351.335 341.547L336.589 357.591L317.774 366.39L297.757 366.625L279.567 358.269L265.957 342.578L259.012 321.923L259.804 299.452L268.22 278.601L282.966 262.557L301.781 253.757Z" stroke="#ADADAD"/>
<path d="M299.881 256.187L319.427 255.346L337.508 262.821L351.382 277.488L358.93 297.128L358.986 318.75L351.538 339.049L337.728 354.923L319.674 363.961L300.128 364.801L282.047 357.326L268.173 342.659L260.625 323.019L260.569 301.397L268.017 281.098L281.827 265.224L299.881 256.187Z" stroke="#ADADAD"/>
<path d="M298.139 258.678L317.199 257.264L335.131 263.877L349.215 277.521L357.302 296.13L358.147 316.872L351.617 336.577L338.714 352.237L321.415 361.47L302.355 362.884L284.423 356.271L270.339 342.628L262.252 324.018L261.407 303.276L267.936 283.571L280.839 267.911L298.139 258.678Z" stroke="#ADADAD"/>
<path d="M296.559 261.222L315.117 259.268L332.862 265.038L347.103 277.662L355.666 295.229L357.239 315.063L351.577 334.136L339.549 349.538L322.995 358.926L304.437 360.88L286.691 355.11L272.451 342.486L263.887 324.919L262.315 305.086L267.976 286.012L280.005 270.61L296.559 261.222Z" stroke="#ADADAD"/>
<path d="M295.143 263.812L313.185 261.349L330.708 266.299L345.051 277.91L354.028 294.423L356.266 313.324L351.42 331.73L340.232 346.833L324.412 356.336L306.371 358.798L288.847 353.849L274.504 342.237L265.527 325.724L263.29 306.823L268.136 288.417L279.324 273.314L295.143 263.812Z" stroke="#ADADAD"/>
<path d="M293.891 266.438L311.404 263.502L328.67 267.653L343.063 278.261L352.391 293.714L355.23 311.661L351.146 329.367L340.763 344.132L325.665 353.71L308.151 356.646L290.885 352.495L276.493 341.888L267.165 326.434L264.326 308.487L268.41 290.781L278.793 276.016L293.891 266.438Z" stroke="#ADADAD"/>
<path d="M292.803 269.093L309.777 265.717L326.752 269.093L341.143 278.709L350.758 293.099L354.135 310.074L350.758 327.049L341.143 341.44L326.752 351.055L309.777 354.432L292.803 351.055L278.412 341.44L268.796 327.049L265.42 310.074L268.796 293.099L278.412 278.709L292.803 269.093Z" stroke="#ADADAD"/>
</svg>
