<svg width="32" height="32" viewBox="0 0 32 32" fill="none" xmlns="http://www.w3.org/2000/svg">
<g clip-path="url(#clip0_2392_1897)">
<path d="M30.75 16C30.75 24.1462 24.1462 30.75 16 30.75C7.8538 30.75 1.25 24.1462 1.25 16C1.25 7.8538 7.8538 1.25 16 1.25C24.1462 1.25 30.75 7.8538 30.75 16Z" fill="white" stroke="#F05555" stroke-width="2.5"/>
<path fill-rule="evenodd" clip-rule="evenodd" d="M16.5487 7.61038L23.7274 14.1516C23.9798 14.3816 24.0632 14.7359 23.94 15.0544C23.8167 15.3727 23.5163 15.5785 23.1749 15.5785H22.0281V22.1323C22.0281 22.3922 21.8174 22.6028 21.5576 22.6028H17.6229C17.3631 22.6028 17.1524 22.3921 17.1524 22.1323V18.153H14.8399V22.1323C14.8399 22.3921 14.6292 22.6028 14.3693 22.6028H10.4345C10.1747 22.6028 9.964 22.3921 9.964 22.1323V15.5785H8.81744C8.47597 15.5785 8.17566 15.3728 8.05231 15.0544C7.929 14.736 8.01238 14.3816 8.26478 14.1516L15.4435 7.61035C15.7585 7.32325 16.2336 7.32322 16.5487 7.61038ZM18.7428 8.33435H21.9028C22.1626 8.33435 22.3733 8.54501 22.3733 8.80485V11.6355L18.7428 8.33435Z" fill="#F05555" fill-opacity="0.7"/>
</g>
<defs>
<clipPath id="clip0_2392_1897">
<rect width="32" height="32" fill="white"/>
</clipPath>
</defs>
</svg>
