<svg width="32" height="32" viewBox="0 0 32 32" fill="none" xmlns="http://www.w3.org/2000/svg">
<path d="M19 4V11H26.001" stroke="#F05555" stroke-linecap="round" stroke-linejoin="round"/>
<path d="M25 28H6.99902C6.73381 28 6.47945 27.8946 6.29192 27.7071C6.10438 27.5196 5.99902 27.2652 5.99902 27V5C5.99902 4.73478 6.10438 4.48043 6.29192 4.29289C6.47945 4.10536 6.73381 4 6.99902 4H19L26 11V27C26 27.1313 25.9741 27.2614 25.9239 27.3827C25.8736 27.504 25.8 27.6143 25.7071 27.7071C25.6143 27.8 25.504 27.8736 25.3827 27.9239C25.2614 27.9741 25.1313 28 25 28Z" stroke="#F05555" stroke-linecap="round" stroke-linejoin="round"/>
<path d="M0.392857 15.3571C0.392857 14.2723 1.2723 13.3929 2.35714 13.3929H14.9286C16.0134 13.3929 16.8929 14.2723 16.8929 15.3571V21.6429C16.8929 22.7277 16.0134 23.6071 14.9286 23.6071H2.35714C1.2723 23.6071 0.392857 22.7277 0.392857 21.6429V15.3571Z" fill="#FBFBFB" stroke="#F05555" stroke-width="0.785714"/>
<path d="M3.14258 20.6054V16.1426H5.01572C5.21686 16.1426 5.40124 16.1845 5.56886 16.2683C5.73648 16.3521 5.88315 16.4631 6.00886 16.6014C6.13458 16.7397 6.23096 16.8948 6.29801 17.0666C6.36505 17.2384 6.39858 17.4144 6.39858 17.5946C6.39858 17.8418 6.34201 18.0786 6.22886 18.3049C6.11991 18.527 5.96277 18.7071 5.75744 18.8454C5.55629 18.9837 5.32163 19.0529 5.05344 19.0529H3.84658V20.6054H3.14258ZM3.84658 18.4306H5.00944C5.14353 18.4306 5.26086 18.395 5.36144 18.3237C5.46201 18.2483 5.53953 18.1477 5.59401 18.022C5.65267 17.8963 5.68201 17.7538 5.68201 17.5946C5.68201 17.4311 5.64848 17.2866 5.58144 17.1609C5.51439 17.0351 5.42639 16.9388 5.31744 16.8717C5.21267 16.8005 5.09744 16.7649 4.97172 16.7649H3.84658V18.4306Z" fill="#F05555"/>
<path d="M7.05887 20.6054V16.1426H8.64287C9.12478 16.1426 9.52706 16.2431 9.84973 16.4443C10.1724 16.6412 10.4133 16.9094 10.5726 17.2489C10.736 17.5841 10.8177 17.9571 10.8177 18.3677C10.8177 18.8203 10.7276 19.2142 10.5474 19.5494C10.3714 19.8847 10.12 20.1445 9.79316 20.3289C9.4663 20.5132 9.08287 20.6054 8.64287 20.6054H7.05887ZM10.1012 18.3677C10.1012 18.0534 10.0425 17.7769 9.92516 17.538C9.81202 17.295 9.64649 17.1064 9.42859 16.9723C9.21487 16.834 8.95297 16.7649 8.64287 16.7649H7.76287V19.9831H8.64287C8.95716 19.9831 9.22116 19.9119 9.43487 19.7694C9.65278 19.627 9.8183 19.4342 9.93144 19.1911C10.0446 18.9481 10.1012 18.6736 10.1012 18.3677Z" fill="#F05555"/>
<path d="M11.5583 20.6054V16.1426H14.5315V16.7649H12.2623V18.0974H14.1606V18.682H12.2623V20.6054H11.5583Z" fill="#F05555"/>
</svg>
