<svg width="80" height="80" viewBox="0 0 80 80" fill="none" xmlns="http://www.w3.org/2000/svg">
<path d="M57.5 40.027C57.5 49.6367 55.4973 58.3119 52.2832 64.5663C49.0557 70.8469 44.6863 74.5541 40 74.5541C35.3137 74.5541 30.9443 70.8469 27.7168 64.5663C24.5027 58.3119 22.5 49.6367 22.5 40.027C22.5 30.4173 24.5027 21.7421 27.7168 15.4877C30.9443 9.20716 35.3137 5.5 40 5.5C44.6863 5.5 49.0557 9.20716 52.2832 15.4877C55.4973 21.7421 57.5 30.4173 57.5 40.027Z" stroke="#F05555"/>
<path d="M40.027 21.5273C49.6367 21.5273 58.3119 23.5301 64.5663 26.7441C70.8469 29.9716 74.5541 34.341 74.5541 39.0273C74.5541 43.7137 70.8469 48.083 64.5663 51.3106C58.3119 54.5246 49.6367 56.5273 40.027 56.5273C30.4173 56.5273 21.7421 54.5246 15.4877 51.3106C9.20716 48.083 5.5 43.7137 5.5 39.0273C5.5 34.341 9.20716 29.9716 15.4877 26.7441C21.7421 23.5301 30.4173 21.5273 40.027 21.5273Z" stroke="#F05555"/>
<circle cx="40" cy="40" r="35.5" stroke="#F05555"/>
</svg>
