<svg width="80" height="80" viewBox="0 0 80 80" fill="none" xmlns="http://www.w3.org/2000/svg">
<path d="M52.7926 40C52.7926 49.6278 51.0602 58.3273 48.2737 64.6068C46.8802 67.747 45.2301 70.2665 43.4153 71.9962C41.6024 73.7242 39.6417 74.65 37.6114 74.65C35.581 74.65 33.6203 73.7242 31.8074 71.9962C29.9926 70.2665 28.3425 67.747 26.949 64.6068C24.1625 58.3273 22.4301 49.6278 22.4301 40C22.4301 30.3722 24.1625 21.6727 26.949 15.3932C28.3425 12.253 29.9926 9.73354 31.8074 8.00382C33.6203 6.27582 35.581 5.35 37.6114 5.35C39.6417 5.35 41.6024 6.27582 43.4153 8.00382C45.2301 9.73354 46.8802 12.253 48.2737 15.3932C51.0602 21.6727 52.7926 30.3722 52.7926 40Z" stroke="#F05555" stroke-width="0.7"/>
<path d="M55.1813 40C55.1813 49.6278 53.4489 58.3273 50.6624 64.6068C49.2689 67.747 47.6187 70.2665 45.804 71.9962C43.9911 73.7242 42.0304 74.65 40 74.65C37.9697 74.65 36.009 73.7242 34.196 71.9962C32.3813 70.2665 30.7311 67.747 29.3377 64.6068C26.5512 58.3273 24.8187 49.6278 24.8187 40C24.8187 30.3722 26.5512 21.6727 29.3377 15.3932C30.7311 12.253 32.3813 9.73354 34.196 8.00382C36.009 6.27582 37.9697 5.35 40 5.35C42.0304 5.35 43.9911 6.27582 45.804 8.00382C47.6187 9.73354 49.2689 12.253 50.6624 15.3932C53.4489 21.6727 55.1813 30.3722 55.1813 40Z" stroke="#F05555" stroke-width="0.7"/>
<path d="M57.5719 40C57.5719 49.6278 55.8395 58.3273 53.053 64.6068C51.6595 67.747 50.0094 70.2665 48.1946 71.9962C46.3817 73.7242 44.421 74.65 42.3906 74.65C40.3603 74.65 38.3996 73.7242 36.5867 71.9962C34.7719 70.2665 33.1218 67.747 31.7283 64.6068C28.9418 58.3273 27.2094 49.6278 27.2094 40C27.2094 30.3722 28.9418 21.6727 31.7283 15.3932C33.1218 12.253 34.7719 9.73354 36.5867 8.00382C38.3996 6.27582 40.3603 5.35 42.3906 5.35C44.421 5.35 46.3817 6.27582 48.1946 8.00382C50.0094 9.73354 51.6595 12.253 53.053 15.3932C55.8395 21.6727 57.5719 30.3722 57.5719 40Z" stroke="#F05555" stroke-width="0.7"/>
<path d="M46.41 27.609C54.949 33.111 61.7991 39.7573 65.9759 46.0406C70.1722 52.3531 71.5937 58.1701 69.5505 62.1196C67.5074 66.0691 62.2827 67.6037 55.2861 66.7042C48.3219 65.8089 39.7394 62.5114 31.2004 57.0094C22.6614 51.5075 15.8113 44.8611 11.6345 38.5778C7.4382 32.2653 6.01668 26.4483 8.05985 22.4988C10.103 18.5493 15.3277 17.0147 22.3243 17.9142C29.2885 18.8095 37.871 22.107 46.41 27.609Z" stroke="#F05555" stroke-width="0.7"/>
<path d="M47.6053 25.2999C56.1443 30.8019 62.9944 37.4483 67.1713 43.7316C71.3675 50.044 72.789 55.8611 70.7459 59.8105C68.7027 63.76 63.478 65.2946 56.4814 64.3952C49.5172 63.4998 40.9347 60.2024 32.3957 54.7004C23.8567 49.1984 17.0066 42.552 12.8298 36.2687C8.63351 29.9562 7.21199 24.1392 9.25516 20.1897C11.2983 16.2402 16.5231 14.7056 23.5196 15.6051C30.4838 16.5004 39.0664 19.7979 47.6053 25.2999Z" stroke="#F05555" stroke-width="0.7"/>
<path d="M48.8006 22.9908C57.3396 28.4928 64.1897 35.1392 68.3666 41.4225C72.5628 47.7349 73.9843 53.552 71.9412 57.5015C69.898 61.4509 64.6733 62.9856 57.6768 62.0861C50.7125 61.1907 42.13 57.8933 33.591 52.3913C25.052 46.8893 18.202 40.2429 14.0251 33.9596C9.82882 27.6471 8.40731 21.8301 10.4505 17.8806C12.4936 13.9311 17.7184 12.3965 24.7149 13.296C31.6791 14.1913 40.2617 17.4888 48.8006 22.9908Z" stroke="#F05555" stroke-width="0.7"/>
<path d="M33.59 27.609C25.051 33.111 18.2009 39.7573 14.0241 46.0406C9.8278 52.3531 8.40628 58.1701 10.4495 62.1196C12.4926 66.0691 17.7173 67.6037 24.7139 66.7042C31.6781 65.8089 40.2606 62.5114 48.7996 57.0094C57.3386 51.5075 64.1887 44.8611 68.3655 38.5778C72.5618 32.2653 73.9833 26.4483 71.9401 22.4988C69.897 18.5493 64.6723 17.0147 57.6757 17.9142C50.7115 18.8095 42.129 22.107 33.59 27.609Z" stroke="#F05555" stroke-width="0.7"/>
<path d="M32.3947 25.2999C23.8557 30.8019 17.0056 37.4483 12.8287 43.7316C8.63249 50.044 7.21097 55.8611 9.25414 59.8105C11.2973 63.76 16.522 65.2946 23.5186 64.3952C30.4828 63.4998 39.0653 60.2024 47.6043 54.7004C56.1433 49.1984 62.9934 42.552 67.1702 36.2687C71.3665 29.9562 72.788 24.1392 70.7448 20.1897C68.7017 16.2402 63.4769 14.7056 56.4804 15.6051C49.5162 16.5004 40.9336 19.7979 32.3947 25.2999Z" stroke="#F05555" stroke-width="0.7"/>
<path d="M31.1994 22.9908C22.6604 28.4928 15.8103 35.1392 11.6334 41.4225C7.43717 47.7349 6.01566 53.552 8.05883 57.5015C10.102 61.4509 15.3267 62.9856 22.3232 62.0861C29.2875 61.1907 37.87 57.8933 46.409 52.3913C54.948 46.8893 61.798 40.2429 65.9749 33.9596C70.1712 27.6471 71.5927 21.8301 69.5495 17.8806C67.5064 13.9311 62.2816 12.3965 55.2851 13.296C48.3209 14.1913 39.7383 17.4888 31.1994 22.9908Z" stroke="#F05555" stroke-width="0.7"/>
</svg>
