<svg width="80" height="80" viewBox="0 0 80 80" fill="none" xmlns="http://www.w3.org/2000/svg">
<path fill-rule="evenodd" clip-rule="evenodd" d="M7.63932 16.5308L27.6393 2H52.3607L72.3607 16.5309L80 40.0423L72.3607 63.5537L52.3607 78.0845H27.6393L7.63932 63.5537L0 40.0423L7.63932 16.5308ZM40 6.01622L30.717 3L49.283 3L40 6.01622ZM38.3819 6.54195L28.0213 3.17557L21.618 11.9889L38.3819 6.54195ZM22.0731 12.8925L38.9136 7.42067L32.4207 16.387L22.0731 12.8925ZM20.3067 13.7937L9.5034 28.6633L20.2618 25.2164L20.3067 13.7937ZM20.2577 26.2678L9.31256 29.7745L16.0195 39.0364L20.2304 33.2213L20.2577 26.2678ZM21.2358 31.8328L21.259 25.947L26.7786 24.1785L21.2358 31.8328ZM20.2236 34.9356L16.6368 39.8889L20.1849 44.7887L20.2236 34.9356ZM21.1795 46.1622L21.2291 33.5471L28.3862 23.6635L39.9094 19.9716L52.1207 24.0955L59.2616 33.9567L59.3601 46.4166L47.6657 62.131L28.2351 55.9057L21.1795 46.1622ZM20.1782 46.4845L16.0195 40.7414L9.40672 49.8733L20.1514 53.3157L20.1782 46.4845ZM21.1501 53.6357L21.1728 47.858L26.6275 55.3906L21.1501 53.6357ZM20.1473 54.3645L9.06119 50.8126L20.1015 66.0083L20.1473 54.3645ZM21.0981 66.8752L21.146 54.6845L27.6176 56.7579L39.2041 72.7582L21.0981 66.8752ZM53.7551 24.6475L59.248 32.2329L59.2026 26.4872L53.7551 24.6475ZM59.1942 25.4289L52.7433 23.2503L48.3993 17.2515L59.1024 13.8223L59.1942 25.4289ZM60.2053 26.8258L60.2591 33.6292L64.5089 39.498L71.1809 30.5324L60.2053 26.8258ZM71.0575 29.4353L60.1969 25.7675L60.1067 14.3629L71.0575 29.4353ZM51.109 22.6984L41.5132 19.4577L47.3972 17.5725L51.109 22.6984ZM39.9176 18.9189L46.78 16.7202L40.097 7.49138L33.4128 16.7221L39.9176 18.9189ZM31.8066 17.2351L27.7687 22.8112L21.2631 24.8956L21.3072 13.6893L31.8066 17.2351ZM32.7986 17.5702L38.3138 19.4327L29.3763 22.2962L32.7986 17.5702ZM48.6722 62.4535L59.3732 48.074L59.5144 65.9272L48.6722 62.4535ZM60.3628 46.7443L60.5084 65.1687L71.2409 50.3968L71.1921 50.4321L64.4979 41.1878L60.3628 46.7443ZM60.2727 35.353L60.3497 45.0869L63.8831 40.3388L60.2727 35.353ZM41.3402 7.50316L58.3242 13.0216L47.7822 16.3991L41.3402 7.50316ZM8.63928 30.5497V49.2281L15.4021 39.8889L8.63928 30.5497ZM41.0698 72.6692L59.0479 66.8278L48.0412 63.3014L41.0698 72.6692ZM47.0347 62.9789L40.1025 72.294L29.2253 57.2729L47.0347 62.9789ZM65.1236 40.3469L71.3607 48.96V31.9659L65.1236 40.3469ZM20 12.5146L25.7372 4.61804L10.717 15.5308L20 12.5146ZM10.717 64.5537L25.7372 75.4665L20 67.5699L10.717 64.5537ZM19 66.1935L8.63928 51.9332V62.8271L19 66.1935ZM7.63928 50.5568V60.3175L1.90211 42.6603L7.63928 50.5568ZM7.63928 31.229L1.23607 40.0423L7.63928 48.8555V31.229ZM7.63928 29.5277L1.90211 37.4242L7.63928 19.767V29.5277ZM8.63928 28.1513V17.2574L19 13.891L8.63928 28.1513ZM21.618 68.0956L28.0213 76.909L38.3819 73.5426L21.618 68.0956ZM40 74.0683L30.717 77.0845H49.283L40 74.0683ZM54.2627 75.4666L69.283 64.5537L59.9999 67.5699L54.2627 75.4666ZM58.3819 68.0956L41.618 73.5426L51.9787 76.909L58.3819 68.0956ZM60.9999 66.1935L71.3607 62.8271V51.9332L60.9999 66.1935ZM72.3607 50.5568V60.3176L78.0979 42.6602L72.3607 50.5568ZM78.0979 37.4243L72.3607 19.7669V29.5277L78.0979 37.4243ZM72.3607 48.8555L78.7639 40.0423L72.3607 31.229V48.8555ZM71.3607 28.1513V17.2574L60.9999 13.891L71.3607 28.1513ZM59.9999 12.5146L69.283 15.5309L54.2627 4.61797L59.9999 12.5146ZM58.3819 11.9889L41.618 6.54195L51.9787 3.17557L58.3819 11.9889Z" fill="#F05555"/>
</svg>
