<svg width="80" height="80" viewBox="0 0 80 80" fill="none" xmlns="http://www.w3.org/2000/svg">
<g clip-path="url(#clip0_1563_2224)">
<path d="M5.54975 20.1073L5.52423 20.1502L5.50024 20.194L5.4778 20.2387L5.4569 20.2845L5.43754 20.3312L5.41973 20.3788L5.40344 20.4275L5.38871 20.477L5.3755 20.5276L5.36383 20.5791L5.3537 20.6316L5.3451 20.6851L5.33803 20.7395L5.33249 20.7949L5.32847 20.8512L5.32599 20.9086L5.32503 20.9669L5.32559 21.0261L5.32767 21.0864L5.33128 21.1476L5.33639 21.2098L5.34303 21.2729L5.35117 21.337L5.36083 21.4021L5.37199 21.4682L5.38465 21.5352L5.39882 21.6032L5.41449 21.6722L5.43166 21.7421L5.45031 21.813L5.47046 21.8849L5.4921 21.9578L5.51523 22.0316L5.53983 22.1063L5.56593 22.1821L5.59348 22.2588L5.62252 22.3365L5.65303 22.4151L5.685 22.4947L5.71843 22.5753L5.75333 22.6568L5.78968 22.7393L5.82748 22.8227L5.86672 22.9071L5.90742 22.9925L5.94955 23.0788L5.99312 23.166L6.03813 23.2543L6.08456 23.3434L6.13242 23.4336L6.18169 23.5246L6.23239 23.6166L6.28449 23.7096L6.33801 23.8035L6.39292 23.8984L6.44924 23.9942L6.50694 24.0909L6.56604 24.1886L6.62652 24.2872L6.68838 24.3867L6.75161 24.4872L6.81621 24.5886L6.88218 24.6909L6.94952 24.7941L7.01821 24.8983L7.08823 25.0034L7.15962 25.1094L7.23233 25.2163L7.30638 25.3241L7.38176 25.4329L7.45846 25.5425L7.53649 25.6531L7.61583 25.7646L7.69646 25.8769L7.7784 25.9902L7.86163 26.1043L7.94616 26.2194L8.03197 26.3353L8.11906 26.4521L8.20741 26.5698L8.29703 26.6884L8.38792 26.8078L8.48005 26.9282L8.57344 27.0494L8.66806 27.1714L8.76392 27.2943L8.861 27.4181L8.95932 27.5428L9.05884 27.6682L9.15958 27.7946L9.26152 27.9218L9.36465 28.0498L9.46897 28.1786L9.57448 28.3083L9.68116 28.4389L9.78902 28.5702L9.89803 28.7024L10.0082 28.8354L10.1195 28.9692L10.232 29.1038L10.3456 29.2392L10.4603 29.3755L10.5761 29.5125L10.6931 29.6503L10.8111 29.7889L10.9303 29.9283L11.0506 30.0684L11.1719 30.2094L11.2943 30.3511L11.4178 30.4935L11.5423 30.6368L11.6679 30.7808L11.7946 30.9255L11.9223 31.071L12.051 31.2172L12.1807 31.3642L12.3115 31.5119L12.4433 31.6603L12.576 31.8094L12.7098 31.9593L12.8445 32.1099L12.9803 32.2611L13.117 32.4131L13.2546 32.5658L13.3932 32.7191L13.5328 32.8732L13.6733 33.0279L13.8147 33.1833L13.957 33.3394L14.1003 33.4961L14.2445 33.6535L14.3895 33.8115L14.5355 33.9702L47.0118 66.0822L47.172 66.2262L47.3315 66.3693L47.4904 66.5115L47.6486 66.6528L47.8061 66.7932L47.9629 66.9327L48.1191 67.0713L48.2745 67.2089L48.4293 67.3456L48.5834 67.4814L48.7367 67.6162L48.8894 67.75L49.0413 67.8828L49.1925 68.0147L49.343 68.1456L49.4927 68.2755L49.6417 68.4044L49.79 68.5323L49.9375 68.6592L50.0843 68.785L50.2303 68.9099L50.3755 69.0336L50.52 69.1564L50.6637 69.278L50.8066 69.3986L50.9487 69.5182L51.0901 69.6366L51.2306 69.754L51.3704 69.8703L51.5093 69.9855L51.6475 70.0996L51.7848 70.2126L51.9213 70.3244L52.057 70.4351L52.1919 70.5447L52.326 70.6532L52.4592 70.7605L52.5916 70.8666L52.7231 70.9716L52.8538 71.0754L52.9837 71.1781L53.1127 71.2795L53.2408 71.3798L53.3681 71.4789L53.4946 71.5768L53.6201 71.6734L53.7448 71.7689L53.8686 71.8631L53.9916 71.9561L54.1136 72.0479L54.2348 72.1385L54.3551 72.2278L54.4745 72.3158L54.593 72.4026L54.7106 72.4881L54.8273 72.5724L54.9431 72.6554L55.058 72.7371L55.172 72.8175L55.2851 72.8966L55.3973 72.9744L55.5085 73.0509L55.6188 73.1262L55.7283 73.2001L55.8367 73.2726L55.9443 73.3439L56.0509 73.4138L56.1566 73.4824L56.2613 73.5497L56.3651 73.6156L56.468 73.6801L56.57 73.7433L56.6709 73.8052L56.771 73.8657L56.8701 73.9248L56.9682 73.9825L57.0654 74.0388L57.1616 74.0938L57.2569 74.1474L57.3512 74.1996L57.4446 74.2504L57.537 74.2998L57.6284 74.3477L57.7189 74.3943L57.8084 74.4395L57.8969 74.4832L57.9845 74.5255L58.0711 74.5664L58.1567 74.6059L58.2413 74.6439L58.325 74.6805L58.4077 74.7156L58.4894 74.7493L58.5702 74.7816L58.65 74.8124L58.7287 74.8417L58.8066 74.8696L58.8834 74.896L58.9592 74.921L59.0341 74.9444L59.108 74.9665L59.1809 74.987L59.2528 75.0061L59.3237 75.0236L59.3936 75.0397L59.4626 75.0543L59.5306 75.0675L59.5975 75.0791L59.6635 75.0892L59.7285 75.0979L59.7926 75.105L59.8556 75.1106L59.9176 75.1148L59.9787 75.1174L60.0388 75.1185L60.0979 75.1181L60.156 75.1162L60.2131 75.1128L60.2692 75.1079L60.3244 75.1014L60.3785 75.0934L60.4317 75.0839L60.4839 75.0729L60.5351 75.0604L60.5853 75.0463L60.6345 75.0308L60.6828 75.0136L60.7301 74.995L60.7764 74.9748L60.8217 74.9531L60.866 74.9299L60.9094 74.9051L60.9518 74.8788L60.9932 74.851L61.0336 74.8216L61.0731 74.7907L61.1115 74.7583L61.1491 74.7243L61.1856 74.6888L61.2212 74.6517L61.2558 74.6132L61.2894 74.573L61.3221 74.5314L61.3538 74.4882L61.3846 74.4435L61.4144 74.3972L61.4432 74.3494L61.4711 74.3001L61.498 74.2492L61.524 74.1968L61.549 74.1428L61.5731 74.0874L61.5962 74.0304L61.6184 73.9718L61.6397 73.9118L61.66 73.8502L61.6793 73.787L61.6977 73.7224L61.7152 73.6562L61.7318 73.5885L61.7474 73.5193L61.7621 73.4485L61.7759 73.3763L61.7887 73.3025L61.8007 73.2272L61.8117 73.1503L61.8218 73.072L61.8309 72.9922L61.8392 72.9108L61.8466 72.8279L61.853 72.7436L61.8586 72.6577L61.8632 72.5703L61.867 72.4815L61.8698 72.3911L61.8718 72.2992L61.8729 72.2059L61.8731 72.1111L61.8724 72.0147L61.8708 71.9169L61.8684 71.8176L61.8651 71.7169L61.8609 71.6146L61.8558 71.5109L61.8499 71.4058L61.8431 71.2991L61.8355 71.191L61.827 71.0815L61.8176 70.9705L61.8074 70.858L61.7964 70.7441L61.7845 70.6288L61.7718 70.512L61.7582 70.3938L61.7439 70.2741L61.7286 70.1531L61.7126 70.0306L61.6958 69.9067L61.6781 69.7814L61.6596 69.6546L61.6403 69.5265L61.6202 69.397L61.5993 69.266L61.5776 69.1337L61.5551 69L61.5319 68.8649L61.5078 68.7284L61.4829 68.5906L61.4573 68.4514L61.4309 68.3108L61.4037 68.1689L61.3758 68.0256L61.3471 67.881L61.3176 67.7351L61.2874 67.5878L61.2565 67.4392L61.2248 67.2892L61.1923 67.138L61.1591 66.9854L61.1252 66.8315L61.0906 66.6763L61.0552 66.5199L61.0191 66.3621L60.9823 66.2031L60.9448 66.0428L60.9065 65.8812L60.8676 65.7183L60.828 65.5542L60.7876 65.3889L60.7466 65.2223L60.7049 65.0545L60.6625 64.8854L60.6195 64.7151L60.5757 64.5436L60.5313 64.3709L60.4863 64.197L60.4405 64.0219L60.3942 63.8456L60.3471 63.6681L60.2995 63.4895L60.2512 63.3097L60.2022 63.1287L60.1526 62.9465L60.1024 62.7633L60.0516 62.5789L60.0002 62.3933L59.9481 62.2067L59.8955 62.0189L59.8422 61.83L59.7884 61.64L59.7339 61.449L59.6789 61.2568L59.6232 61.0636L59.567 60.8693L59.5103 60.6739L59.4529 60.4775L59.395 60.2801L59.3365 60.0816L59.2775 59.8821L59.2179 59.6816L59.1578 59.4801L59.0972 59.2776L59.036 59.074L58.9743 58.8696L58.8493 58.4577L43.5147 15.4462L43.4329 15.2472L43.3513 15.0493L43.2699 14.8525L43.1887 14.6569L43.1077 14.4623L43.027 14.2688L42.9464 14.0765L42.8661 13.8853L42.786 13.6953L42.7061 13.5064L42.6265 13.3187L42.547 13.1322L42.4678 12.9468L42.3888 12.7627L42.3101 12.5797L42.2316 12.398L42.1533 12.2175L42.0752 12.0382L41.9974 11.8602L41.9198 11.6835L41.8424 11.508L41.7653 11.3337L41.6884 11.1608L41.6118 10.9891L41.5354 10.8187L41.4592 10.6497L41.3833 10.4819L41.3076 10.3155L41.2322 10.1504L41.157 9.98659L41.0821 9.82417L41.0074 9.66311L40.933 9.50341L40.8588 9.34509L40.7848 9.18814L40.7112 9.03259L40.6377 8.87843L40.5645 8.72567L40.4916 8.57432L40.4189 8.4244L40.3465 8.2759L40.2743 8.12883L40.2024 7.98321L40.1307 7.83903L40.0593 7.69632L39.9882 7.55507L39.9173 7.41529L39.8467 7.277L39.7763 7.14019L39.7062 7.00487L39.6363 6.87104L39.5667 6.73874L39.4974 6.60794L39.4283 6.47867L39.3595 6.35092L39.2909 6.22471L39.2226 6.10004L39.1546 5.97692L39.0868 5.85534L39.0193 5.73533L38.9521 5.61689L38.8851 5.50002L38.8183 5.38473L38.7519 5.27103L38.6857 5.1589L38.6197 5.04839L38.554 4.93947L38.4886 4.83217L38.4235 4.72649L38.3586 4.6224L38.2939 4.51995L38.2295 4.41914L38.1654 4.31996L38.1016 4.22242L38.038 4.12653L37.9746 4.03229L37.9116 3.9397L37.8488 3.84878L37.7862 3.75953L37.7239 3.67194L37.6619 3.58603L37.6001 3.50181L37.5386 3.41926L37.4773 3.3384L37.4163 3.25925L37.3555 3.18179L37.295 3.10603L37.2348 3.03198L37.1748 2.95964L37.1151 2.88901L37.0556 2.82011L36.9964 2.75292L36.9374 2.68747L36.8787 2.62374L36.8202 2.56175L36.762 2.50148L36.704 2.44297L36.6463 2.3862L36.5888 2.33118L36.5316 2.2779L36.4747 2.22637L36.4179 2.17661L36.3614 2.1286L36.3052 2.08236L36.2492 2.03788L36.1935 1.99517L36.138 1.95422L36.0827 1.91505L36.0277 1.87765L35.9729 1.84203L35.9183 1.80819L35.864 1.77612L35.8099 1.74584L35.7561 1.71735L35.7025 1.69064L35.6491 1.66573L35.596 1.6426L35.5431 1.62125L35.4904 1.60171L35.438 1.58397L35.3857 1.56801L35.3337 1.55386L35.282 1.5415L35.2304 1.53094L35.1791 1.52218L35.128 1.51523L35.0772 1.51007L35.0265 1.50672L34.9761 1.50517L34.9259 1.50543L34.8759 1.50748L34.8261 1.51135L34.7765 1.51702L34.7272 1.52449L34.678 1.53377L34.6291 1.54485L34.5804 1.55774L34.5319 1.57243L34.4836 1.58892L34.4355 1.60722L34.3876 1.62733L34.3399 1.64924L34.2924 1.67294L34.2451 1.69845L34.198 1.72577L34.1511 1.75488L34.1044 1.78578L34.0579 1.81849L34.0116 1.85299L33.9655 1.8893L33.9196 1.92737L33.8739 1.96727L33.8283 2.00894L33.783 2.0524L33.7378 2.09766L33.6928 2.14469L33.648 2.19352L33.6034 2.24413L33.5589 2.2965L33.5147 2.35067L33.4706 2.4066L33.4267 2.46431L33.3829 2.52378L33.3393 2.58504L33.296 2.64805L33.2527 2.71283L33.2097 2.77936L33.1668 2.84766L33.1241 2.91771L33.0815 2.9895L33.0391 3.06305L32.9969 3.13835L32.9548 3.21538L32.9129 3.29415L32.8711 3.37466L32.8295 3.45689L32.788 3.54086L32.7467 3.62654L32.7056 3.71395L32.6646 3.80308L32.6237 3.89392L32.583 3.98647L32.5425 4.08071L32.502 4.17665L32.4617 4.2743L32.4216 4.37363L32.3816 4.47466L32.3418 4.57737L32.302 4.68174L32.2624 4.7878L32.223 4.89552L32.1837 5.0049L32.1445 5.11593L32.1054 5.22863L32.0665 5.34297L32.0277 5.45895L31.989 5.57657L31.9504 5.69582L31.912 5.8167L31.8737 5.93919L31.8355 6.06331L31.7974 6.18903L31.7594 6.31636L31.7216 6.44529L31.6838 6.5758L31.6462 6.70789L31.6087 6.84157L31.5713 6.97682L31.534 7.11365L31.4968 7.25202L31.4597 7.39197L31.4227 7.53344L31.3858 7.67646L31.3491 7.82102L31.3124 7.96711L31.2758 8.11472L31.2393 8.26383L31.203 8.41445L31.1667 8.56658L31.1305 8.7202L31.0944 8.87531L31.0584 9.03189L31.0225 9.18994L30.9866 9.34946L30.9509 9.51043L30.9152 9.67285L30.8797 9.83671L30.8442 10.002L30.8088 10.1687L30.7735 10.3369L30.7382 10.5064L30.7031 10.6774L30.668 10.8497L30.633 11.0234L30.598 11.1985L30.5632 11.375L30.5284 11.5529L30.4937 11.7321L30.4591 11.9126L30.4245 12.0945L30.39 12.2776L30.3556 12.4622L30.3213 12.648L30.287 12.8351L30.2528 13.0235L30.2186 13.2132L30.1845 13.4042L30.1505 13.5964L30.1165 13.7899L30.0826 13.9847L30.0488 14.1806L30.015 14.3778L29.9813 14.5763L29.9476 14.7759L29.914 14.9767L29.8805 15.1788L29.847 15.382L29.8136 15.5863L29.7802 15.7919L29.7469 15.9986L29.7136 16.2064L29.6804 16.4153L29.6472 16.6254L29.581 17.0489L29.548 17.2623L24.6923 62.8721L24.68 63.0855L24.668 63.2978L24.6563 63.5091L24.6449 63.7193L24.6337 63.9283L24.6229 64.1363L24.6124 64.3431L24.6022 64.5488L24.5922 64.7534L24.5826 64.9568L24.5733 65.159L24.5643 65.3601L24.5556 65.56L24.5473 65.7587L24.5393 65.9562L24.5315 66.1525L24.5242 66.3476L24.5171 66.5414L24.5104 66.7341L24.504 66.9255L24.4979 67.1156L24.4922 67.3045L24.4869 67.4921L24.4818 67.6785L24.4772 67.8636L24.4729 68.0473L24.4689 68.2298L24.4653 68.411L24.462 68.5909L24.4592 68.7694L24.4566 68.9466L24.4545 69.1225L24.4527 69.297L24.4513 69.4702L24.4503 69.642L24.4496 69.8124L24.4494 69.9815L24.4495 70.1492L24.45 70.3155L24.4509 70.4804L24.4522 70.6439L24.4539 70.806L24.456 70.9666L24.4585 71.1259L24.4614 71.2837L24.4647 71.44L24.4684 71.595L24.4725 71.7484L24.4771 71.9004L24.482 72.051L24.4874 72.2001L24.4932 72.3477L24.4995 72.4938L24.5061 72.6384L24.5132 72.7815L24.5208 72.9231L24.5287 73.0632L24.5371 73.2018L24.546 73.3389L24.5553 73.4745L24.565 73.6085L24.5752 73.741L24.5858 73.8719L24.5969 74.0013L24.6085 74.1292L24.6205 74.2555L24.633 74.3802L24.6459 74.5033L24.6593 74.6249L24.6732 74.7449L24.6876 74.8633L24.7024 74.9802L24.7177 75.0954L24.7335 75.209L24.7498 75.3211L24.7665 75.4315L24.7838 75.5403L24.8015 75.6475L24.8198 75.7531L24.8385 75.8571L24.8577 75.9594L24.8774 76.0602L24.8976 76.1592L24.9184 76.2567L24.9396 76.3525L24.9613 76.4466L24.9836 76.5391L25.0064 76.63L25.0296 76.7192L25.0534 76.8067L25.0778 76.8926L25.1026 76.9768L25.128 77.0593L25.1539 77.1402L25.1803 77.2194L25.2072 77.2969L25.2347 77.3727L25.2627 77.4469L25.2913 77.5194L25.3204 77.5901L25.35 77.6592L25.3802 77.7266L25.4109 77.7924L25.4422 77.8564L25.474 77.9187L25.5064 77.9793L25.5393 78.0382L25.5727 78.0954L25.6068 78.1509L25.6413 78.2047L25.6765 78.2568L25.7122 78.3072L25.7485 78.3559L25.7853 78.4029L25.8227 78.4481L25.8607 78.4917L25.8992 78.5335L25.9383 78.5736L25.978 78.612L26.0182 78.6487L26.059 78.6836L26.1004 78.7169L26.1424 78.7484L26.185 78.7782L26.2281 78.8063L26.2718 78.8326L26.3162 78.8573L26.361 78.8802L26.4065 78.9014L26.4526 78.9209L26.4992 78.9387L26.5465 78.9547L26.5943 78.9691L26.6428 78.9817L26.6918 78.9926L26.7414 79.0017L26.7916 79.0092L26.8424 79.015L26.8938 79.019L26.9458 79.0213L26.9984 79.0219L27.0516 79.0208L27.1055 79.018L27.1599 79.0135L27.2149 79.0073L27.2705 78.9993L27.3267 78.9897L27.3835 78.9784L27.441 78.9653L27.499 78.9506L27.5576 78.9342L27.6169 78.9161L27.6768 78.8962L27.7372 78.8747L27.7983 78.8515L27.86 78.8267L27.9223 78.8001L27.9852 78.7719L28.0487 78.7419L28.1129 78.7103L28.1776 78.6771L28.2429 78.6421L28.3089 78.6055L28.3755 78.5672L28.4427 78.5273L28.5105 78.4857L28.5789 78.4425L28.6479 78.3976L28.7176 78.351L28.7878 78.3029L28.8587 78.253L28.9301 78.2016L29.0022 78.1485L29.0749 78.0937L29.1482 78.0374L29.2222 77.9794L29.2967 77.9198L29.3718 77.8586L29.4476 77.7958L29.5239 77.7314L29.6009 77.6653L29.6785 77.5977L29.7567 77.5285L29.8355 77.4577L29.9149 77.3853L29.9949 77.3114L30.0755 77.2358L30.1567 77.1587L30.2385 77.0801L30.321 76.9998L30.404 76.918L30.4876 76.8347L30.5719 76.7498L30.6567 76.6634L30.7421 76.5755L30.8282 76.486L30.9148 76.395L31.002 76.3025L31.0898 76.2085L31.1782 76.113L31.2672 76.0159L31.3568 75.9174L31.447 75.8174L31.5378 75.7159L31.6291 75.6129L31.721 75.5085L31.8136 75.4026L31.9067 75.2952L32.0004 75.1864L32.0946 75.0762L32.1895 74.9645L32.2849 74.8514L32.3809 74.7368L32.4774 74.6209L32.5746 74.5035L32.6723 74.3847L32.7706 74.2645L32.8694 74.143L32.9688 74.02L33.0687 73.8957L33.1693 73.77L33.2703 73.6429L33.372 73.5145L33.4741 73.3848L33.5769 73.2537L33.6801 73.1212L33.784 72.9874L33.8883 72.8524L33.9932 72.716L34.0987 72.5783L34.2047 72.4393L34.3112 72.299L34.4182 72.1574L34.5258 72.0146L34.6339 71.8705L34.7425 71.7251L34.8517 71.5785L34.9613 71.4307L35.0715 71.2816L35.1822 71.1313L35.2934 70.9798L35.4051 70.8271L35.5173 70.6732L35.63 70.518L35.7432 70.3617L35.8569 70.2043L35.9711 70.0456L36.0858 69.8859L36.2009 69.7249L36.3166 69.5628L36.4327 69.3996L36.5493 69.2353L36.6664 69.0699L36.7839 68.9033L36.9019 68.7357L37.0204 68.5669L37.1393 68.3971L37.2586 68.2263L37.3785 68.0543L37.4987 67.8813L37.6194 67.7073L37.7406 67.5323L37.8622 67.3562L62.0635 28.398L62.1685 28.2096L62.2728 28.022L62.3763 27.8353L62.4791 27.6494L62.5812 27.4643L62.6826 27.2801L62.7832 27.0968L62.883 26.9144L62.9821 26.7328L63.0805 26.5522L63.178 26.3724L63.2748 26.1935L63.3708 26.0156L63.466 25.8385L63.5604 25.6624L63.654 25.4873L63.7468 25.313L63.8388 25.1397L63.9299 24.9674L64.0203 24.796L64.1098 24.6256L64.1984 24.4562L64.2862 24.2877L64.3732 24.1203L64.4593 23.9538L64.5445 23.7883L64.6288 23.6238L64.7123 23.4604L64.7949 23.2979L64.8766 23.1365L64.9574 22.9761L65.0373 22.8167L65.1163 22.6584L65.1944 22.5011L65.2715 22.3449L65.3477 22.1897L65.423 22.0356L65.4974 21.8826L65.5708 21.7306L65.6433 21.5798L65.7148 21.43L65.7854 21.2813L65.855 21.1337L65.9236 20.9871L65.9912 20.8417L66.0579 20.6974L66.1236 20.5543L66.1883 20.4122L66.2519 20.2713L66.3146 20.1315L66.3763 19.9928L66.4369 19.8553L66.4966 19.7189L66.5552 19.5837L66.6128 19.4496L66.6693 19.3166L66.7248 19.1849L66.7793 19.0543L66.8327 18.9249L66.8851 18.7966L66.9364 18.6695L66.9866 18.5436L67.0358 18.4189L67.0839 18.2954L67.1309 18.1731L67.1769 18.0519L67.2217 17.932L67.2655 17.8133L67.3081 17.6958L67.3497 17.5795L67.3902 17.4644L67.4295 17.3505L67.4677 17.2379L67.5048 17.1264L67.5408 17.0162L67.5757 16.9073L67.6094 16.7996L67.642 16.6931L67.6735 16.5878L67.7038 16.4838L67.7329 16.381L67.761 16.2795L67.7878 16.1792L67.8135 16.0802L67.8381 15.9824L67.8614 15.8859L67.8836 15.7907L67.9047 15.6967L67.9245 15.604L67.9432 15.5125L67.9607 15.4223L67.977 15.3334L67.9921 15.2458L68.006 15.1594L68.0187 15.0743L68.0303 14.9905L68.0406 14.908L68.0497 14.8267L68.0576 14.7467L68.0643 14.668L68.0698 14.5906L68.074 14.5145L68.0771 14.4397L68.0789 14.3661L68.0795 14.2939L68.0788 14.2229L68.0769 14.1532L68.0738 14.0849L68.0695 14.0178L68.0639 13.952L68.0571 13.8875L68.049 13.8243L68.0397 13.7624L68.0291 13.7017L68.0173 13.6424L68.0043 13.5844L67.99 13.5277L67.9744 13.4722L67.9576 13.4181L67.9395 13.3653L67.9201 13.3138L67.8995 13.2635L67.8777 13.2146L67.8545 13.167L67.8301 13.1206L67.8044 13.0756L67.7775 13.0318L67.7493 12.9894L67.7198 12.9482L67.689 12.9083L67.657 12.8698L67.6237 12.8325L67.5891 12.7965L67.5532 12.7618L67.5161 12.7284L67.4776 12.6963L67.4379 12.6655L67.3969 12.636L67.3547 12.6077L67.3111 12.5807L67.2663 12.5551L67.2202 12.5307L67.1728 12.5076L67.1241 12.4857L67.0741 12.4652L67.0229 12.4459L66.9703 12.4279L66.9165 12.4112L66.8614 12.3957L66.805 12.3815L66.7474 12.3686L66.6884 12.357L66.6282 12.3466L66.5667 12.3375L66.5038 12.3296L66.4398 12.323L66.3744 12.3176L66.3078 12.3135L66.2398 12.3107L66.1706 12.3091L66.1001 12.3087L66.0284 12.3096L65.9553 12.3118L65.881 12.3151L65.8054 12.3197L65.7286 12.3256L65.6504 12.3327L65.571 12.341L65.4904 12.3505L65.4084 12.3612L65.3252 12.3732L65.2407 12.3864L65.155 12.4007L65.068 12.4163L64.9797 12.4332L64.8902 12.4511L64.7994 12.4703L64.7074 12.4907L64.6141 12.5123L64.5196 12.5351L64.4238 12.5591L64.3268 12.5842L64.2285 12.6105L64.129 12.638L64.0283 12.6667L63.9263 12.6965L63.8231 12.7275L63.7186 12.7597L63.613 12.793L63.5061 12.8274L63.3979 12.863L63.2886 12.8998L63.178 12.9376L63.0663 12.9766L62.9533 13.0168L62.8391 13.0581L62.7237 13.1004L62.6071 13.1439L62.4893 13.1885L62.3703 13.2343L62.2501 13.2811L62.1287 13.329L62.0062 13.378L61.8825 13.4281L61.7576 13.4793L61.6315 13.5316L61.5042 13.5849L61.3758 13.6393L61.2463 13.6948L61.1155 13.7513L60.9836 13.8089L60.8506 13.8675L60.7165 13.9272L60.5811 13.9879L60.4447 14.0496L60.3071 14.1124L60.1684 14.1762L60.0286 14.241L59.8877 14.3068L59.7456 14.3737L59.6025 14.4415L59.4582 14.5103L59.3129 14.5802L59.1664 14.651L59.0189 14.7228L58.8703 14.7955L58.7206 14.8693L58.5698 14.9439L58.418 15.0196L58.2651 15.0962L58.1111 15.1737L57.9561 15.2522L57.8001 15.3316L57.643 15.412L57.4849 15.4932L57.3258 15.5754L57.1656 15.6585L57.0044 15.7425L56.8423 15.8274L56.6791 15.9132L56.5149 15.9998L56.3497 16.0874L56.1835 16.1758L56.0164 16.2651L55.8483 16.3552L55.6792 16.4462L55.5092 16.5381L55.3382 16.6308L55.1662 16.7243L54.9934 16.8186L54.8196 16.9138L54.6448 17.0098L54.4692 17.1066L54.2926 17.2042L54.1151 17.3026L53.9367 17.4018L53.7575 17.5018L53.5773 17.6026L53.3963 17.7041L53.2144 17.8064L53.0316 17.9094L52.848 18.0132L52.6635 18.1178L52.4782 18.223L52.292 18.329L52.105 18.4358L13.7542 42.8021L13.577 42.9266L13.4009 43.0507L13.0515 43.2976L12.8784 43.4204L12.7063 43.5427L12.5352 43.6645L12.3652 43.7859L12.1963 43.9068L12.0284 44.0273L11.8616 44.1473L11.6959 44.2668L11.5313 44.3858L11.3677 44.5044L11.2053 44.6224L11.0441 44.74L10.8839 44.8571L10.7249 44.9737L10.567 45.0898L10.4103 45.2054L10.2548 45.3205L10.1004 45.435L9.94725 45.5491L9.79526 45.6626L9.64446 45.7757L9.49488 45.8882L9.3465 46.0002L9.19936 46.1116L9.05344 46.2226L8.90876 46.3329L8.76534 46.4428L8.62316 46.5521L8.48225 46.6609L8.34261 46.7691L8.20426 46.8768L8.06718 46.984L7.9314 47.0906L7.79693 47.1966L7.66377 47.3021L7.53191 47.407L7.4014 47.5114L7.2722 47.6151L7.14435 47.7184L7.01785 47.821L6.8927 47.9231L6.76891 48.0246L6.64649 48.1256L6.52544 48.2259L6.40578 48.3257L6.2875 48.4249L6.17063 48.5236L6.05515 48.6216L5.94109 48.7191L5.82844 48.8159L5.71722 48.9122L5.60742 49.0079L5.49905 49.1029L5.39213 49.1974L5.28666 49.2913L5.18265 49.3846L5.08009 49.4773L4.979 49.5694L4.87939 49.6609L4.78125 49.7518L4.6846 49.842L4.58944 49.9317L4.49577 50.0208L4.40361 50.1092L4.31296 50.1971L4.22382 50.2843L4.1362 50.3709L4.05011 50.4569L3.96554 50.5423L3.88251 50.627L3.80102 50.7112L3.72108 50.7947L3.64268 50.8776L3.56584 50.9599L3.49056 51.0415L3.41685 51.1226L3.34471 51.203L3.27414 51.2828L3.20516 51.362L3.13774 51.4405L3.07193 51.5184L3.00771 51.5957L2.94509 51.6724L2.88407 51.7484L2.82465 51.8238L2.76684 51.8986L2.71065 51.9728L2.65607 52.0463L2.60313 52.1192L2.55179 52.1914L2.5021 52.2631L2.45404 52.3341L2.4076 52.4045L2.36281 52.4742L2.31967 52.5433L2.27817 52.6118L2.23833 52.6797L2.20013 52.7469L2.16359 52.8135L2.12871 52.8794L2.09549 52.9448L2.06395 53.0095L2.03406 53.0735L2.00584 53.137L1.97931 53.1998L1.95443 53.262L1.93125 53.3236L1.90974 53.3845L1.88992 53.4448L1.87179 53.5045L1.85534 53.5635L1.84057 53.622L1.8275 53.6798L1.81612 53.7369L1.80644 53.7935L1.79846 53.8494L1.79217 53.9047L1.78759 53.9594L1.7847 54.0135L1.78351 54.0669L1.78403 54.1198L1.78625 54.172L1.79019 54.2235L1.79583 54.2745L1.80318 54.3249L1.81223 54.3746L1.82299 54.4237L1.83547 54.4723L1.84966 54.5202L1.86556 54.5675L1.88317 54.6142L1.9025 54.6602L1.92353 54.7057L1.94629 54.7506L1.97075 54.7948L1.99693 54.8385L2.02481 54.8815L2.05442 54.924L2.08574 54.9658L2.11877 55.0071L2.15351 55.0478L2.18997 55.0878L2.22812 55.1273L2.268 55.1662L2.30958 55.2045L2.35287 55.2422L2.39789 55.2793L2.44459 55.3159L2.49301 55.3518L2.54313 55.3872L2.59494 55.422L2.64848 55.4562L2.7037 55.4898L2.76062 55.5229L2.81925 55.5553L2.87957 55.5873L2.94158 55.6186L3.00528 55.6494L3.07068 55.6796L3.13777 55.7092L3.20655 55.7383L3.277 55.7669L3.34913 55.7948L3.42296 55.8222L3.49846 55.8491L3.57563 55.8754L3.65447 55.9012L3.73498 55.9264L3.81716 55.951L3.90101 55.9752L3.98651 55.9987L4.07367 56.0218L4.16249 56.0443L4.25296 56.0663L4.34507 56.0877L4.43883 56.1086L4.53424 56.129L4.63128 56.1489L4.72995 56.1682L4.83025 56.187L4.9322 56.2053L5.03574 56.2231L5.14092 56.2403L5.24771 56.2571L5.35611 56.2733L5.46613 56.2891L5.57773 56.3043L5.69094 56.3191L5.80575 56.3333L5.92214 56.347L6.04012 56.3603L6.15967 56.373L6.2808 56.3853L6.40351 56.3971L6.52778 56.4084L6.6536 56.4192L6.78099 56.4295L6.90992 56.4394L7.0404 56.4488L7.17241 56.4577L7.30597 56.4662L7.44105 56.4741L7.57766 56.4817L7.71578 56.4887L7.85541 56.4953L7.99655 56.5015L8.1392 56.5072L8.28333 56.5124L8.42896 56.5172L8.57606 56.5216L8.72464 56.5255L8.87469 56.529L9.0262 56.532L9.17918 56.5347L9.3336 56.5368L9.48947 56.5386L9.64677 56.5399L9.80551 56.5408L9.96566 56.5413L10.1272 56.5414L10.2902 56.5411L10.4546 56.5403L10.6204 56.5392L10.7876 56.5376L10.9561 56.5357L11.1261 56.5333L11.2974 56.5305L11.47 56.5274L11.644 56.5239L11.8194 56.5199L11.9961 56.5156L12.1741 56.5109L12.3534 56.5059L12.5341 56.5004L12.716 56.4946L12.8993 56.4884L13.0838 56.4819L13.2697 56.4749L13.4568 56.4677L13.6451 56.46L13.8348 56.452L14.0256 56.4437L14.2178 56.435L14.4111 56.4259L14.6057 56.4165L14.8014 56.4068L14.9984 56.3967L15.1966 56.3863L15.396 56.3756L15.5965 56.3645L15.7982 56.3531L16.0011 56.3414L16.2051 56.3294L16.4103 56.317L16.6166 56.3044L16.8241 56.2914L17.0326 56.2781L17.2423 56.2645L17.453 56.2506L17.6648 56.2364L17.8777 56.2219L18.0917 56.2071L63.6554 50.8403L63.8678 50.8049L64.0791 50.7695L64.2893 50.734L64.4984 50.6986L64.7063 50.663L64.9132 50.6275L65.1188 50.5918L65.3233 50.5562L65.5266 50.5205L65.7288 50.4848L65.9298 50.449L66.1295 50.4132L66.3281 50.3773L66.5254 50.3414L66.7216 50.3054L66.9165 50.2694L67.1101 50.2334L67.3025 50.1973L67.4936 50.1611L67.6835 50.1249L67.872 50.0887L68.0593 50.0524L68.2453 50.016L68.43 49.9796L68.6134 49.9431L68.7954 49.9066L68.9761 49.87L69.1555 49.8334L69.3335 49.7967L69.5102 49.7599L69.6855 49.7231L69.8594 49.6863L70.0319 49.6493L70.203 49.6123L70.3728 49.5753L70.5411 49.5381L70.708 49.5009L70.8735 49.4637L71.0376 49.4264L71.2002 49.389L71.3614 49.3515L71.5211 49.314L71.6794 49.2763L71.8362 49.2387L71.9915 49.2009L72.1453 49.1631L72.2977 49.1251L72.4485 49.0872L72.5978 49.0491L72.7457 49.0109L72.892 48.9727L73.0367 48.9344L73.18 48.896L73.3217 48.8575L73.4618 48.8189L73.6004 48.7803L73.7375 48.7415L73.873 48.7027L74.0069 48.6637L74.1392 48.6247L74.27 48.5856L74.3991 48.5464L74.5267 48.5071L74.6526 48.4677L74.777 48.4281L74.8997 48.3885L75.0208 48.3488L75.1403 48.309L75.2582 48.2691L75.3744 48.229L75.489 48.1889L75.6019 48.1487L75.7132 48.1083L75.8228 48.0678L75.9307 48.0273L76.037 47.9866L76.1417 47.9458L76.2446 47.9048L76.3459 47.8638L76.4454 47.8226L76.5433 47.7813L76.6395 47.7399L76.734 47.6984L76.8268 47.6567L76.9178 47.6149L77.0072 47.573L77.0948 47.531L77.1808 47.4888L77.265 47.4465L77.3474 47.404L77.4282 47.3615L77.5072 47.3187L77.5845 47.2759L77.66 47.2329L77.7338 47.1897L77.8058 47.1465L77.8761 47.103L77.9446 47.0595L78.0114 47.0158L78.0764 46.9719L78.1396 46.9279L78.2011 46.8837L78.2608 46.8394L78.3187 46.7949L78.3749 46.7503L78.4293 46.7055L78.4819 46.6606L78.5327 46.6155L78.5817 46.5702L78.629 46.5248L78.6744 46.4792L78.7181 46.4334L78.76 46.3875L78.8001 46.3414L78.8384 46.2951L78.8749 46.2487L78.9096 46.2021L78.9425 46.1553L78.9736 46.1084L79.0029 46.0613L79.0304 46.014L79.0561 45.9665L79.08 45.9188L79.1021 45.871L79.1224 45.8229L79.1409 45.7747L79.1576 45.7263L79.1724 45.6777L79.1855 45.629L79.1968 45.58L79.2062 45.5308L79.2138 45.4815L79.2197 45.432L79.2237 45.3822L79.2259 45.3323L79.2263 45.2822L79.2249 45.2319L79.2217 45.1813L79.2167 45.1306L79.2099 45.0797L79.2013 45.0286L79.1909 44.9773L79.1787 44.9257L79.1646 44.874L79.1488 44.822L79.1312 44.7699L79.1118 44.7175L79.0906 44.6649L79.0675 44.6121L79.0427 44.5592L79.0161 44.5059L78.9877 44.4525L78.9576 44.3989L78.9256 44.345L78.8919 44.2909L78.8563 44.2366L78.819 44.1821L78.7799 44.1274L78.7391 44.0724L78.6964 44.0172L78.652 43.9618L78.6058 43.9062L78.5579 43.8504L78.5082 43.7943L78.4567 43.738L78.4035 43.6815L78.3485 43.6247L78.2918 43.5677L78.2333 43.5105L78.1731 43.453L78.1111 43.3954L78.0474 43.3374L77.982 43.2793L77.9148 43.2209L77.8459 43.1623L77.7753 43.1035L77.703 43.0444L77.6289 42.9851L77.5531 42.9255L77.4757 42.8657L77.3965 42.8057L77.3156 42.7454L77.2331 42.6849L77.1488 42.6242L77.0628 42.5632L76.9752 42.502L76.8859 42.4405L76.7949 42.3788L76.7023 42.3168L76.608 42.2547L76.512 42.1922L76.4144 42.1295L76.3152 42.0666L76.2143 42.0035L76.1117 41.9401L76.0076 41.8764L75.9018 41.8125L75.7944 41.7484L75.6854 41.684L75.5747 41.6194L75.4625 41.5546L75.3487 41.4895L75.2332 41.4241L75.1162 41.3585L74.9977 41.2927L74.8775 41.2266L74.7558 41.1603L74.6325 41.0937L74.5077 41.0269L74.3813 40.9598L74.2534 40.8925L74.1239 40.825L73.9929 40.7572L73.8604 40.6892L73.7264 40.6209L73.5909 40.5524L73.4539 40.4836L73.3153 40.4146L73.1753 40.3454L73.0339 40.2759L72.8909 40.2062L72.7465 40.1362L72.6006 40.066L72.4533 39.9955L72.3046 39.9249L72.1544 39.8539L72.0028 39.7828L71.8497 39.7114L71.6953 39.6397L71.5394 39.5679L71.3822 39.4958L71.2236 39.4234L71.0636 39.3508L70.9022 39.278L70.7395 39.205L70.5754 39.1317L70.4099 39.0582L70.2432 38.9845L70.0751 38.9105L69.9057 38.8363L69.7349 38.7619L69.5629 38.6872L69.3896 38.6124L69.215 38.5373L69.0391 38.4619L68.8619 38.3864L68.6835 38.3106L68.5038 38.2347L68.3229 38.1584L68.1408 38.082L67.9574 38.0054L67.7729 37.9285L67.5871 37.8515L67.4001 37.7742L67.212 37.6967L67.0227 37.619L66.8322 37.5411L66.6405 37.4629L66.4477 37.3846L66.2538 37.3061L66.0587 37.2273L65.8625 37.1484L65.6653 37.0693L65.4669 36.9899L65.2674 36.9104L22.0835 22.0445L21.8759 21.9838L21.6694 21.9236L21.4638 21.864L21.2592 21.8048L21.0556 21.7462L20.8529 21.6881L20.6514 21.6305L20.4508 21.5735L20.2512 21.517L20.0527 21.4611L19.8552 21.4057L19.6588 21.3509L19.4634 21.2966L19.2692 21.2429L19.0759 21.1897L18.8838 21.1372L18.6928 21.0852L18.5029 21.0338L18.314 20.9829L18.1263 20.9327L17.9398 20.8831L17.7543 20.8341L17.57 20.7857L17.3868 20.7379L17.2048 20.6907L17.024 20.6441L16.8443 20.5982L16.6659 20.5528L16.4886 20.5082L16.3125 20.4641L16.1375 20.4207L15.9638 20.378L15.7914 20.3359L15.6201 20.2944L15.4501 20.2537L15.2813 20.2135L15.1137 20.1741L14.9474 20.1353L14.7823 20.0972L14.6185 20.0598L14.456 20.0231L14.2948 19.9871L14.1348 19.9518L13.9761 19.9171L13.8187 19.8832L13.6626 19.85L13.5078 19.8175L13.3543 19.7857L13.2022 19.7546L13.0514 19.7243L12.9019 19.6947L12.7537 19.6658L12.6069 19.6377L12.4614 19.6103L12.3172 19.5836L12.1745 19.5577L12.0331 19.5326L11.893 19.5082L11.7543 19.4846L11.6171 19.4617L11.4811 19.4396L11.3466 19.4183L11.2135 19.3977L11.0818 19.378L10.9514 19.359L10.8225 19.3408L10.695 19.3234L10.5689 19.3068L10.4442 19.291L10.321 19.276L10.1992 19.2618L10.0788 19.2484L9.95982 19.2358L9.84232 19.2241L9.72626 19.2131L9.61166 19.203L9.4985 19.1938L9.38681 19.1853L9.27656 19.1777L9.16779 19.1709L9.06049 19.165L8.95466 19.1599L8.8503 19.1556L8.74743 19.1522L8.64603 19.1497L8.54612 19.148L8.4477 19.1471L8.35076 19.1472L8.25533 19.1481L8.16139 19.1498L8.06894 19.1524L7.97801 19.1559L7.88857 19.1603L7.80065 19.1656L7.71423 19.1717L7.62932 19.1788L7.54594 19.1867L7.46406 19.1955L7.38371 19.2052L7.30488 19.2158L7.22756 19.2273L7.15177 19.2397L7.07751 19.253L7.00478 19.2672L6.93359 19.2823L6.86393 19.2983L6.79579 19.3153L6.72919 19.3331L6.66412 19.3519L6.6006 19.3716L6.53861 19.3922L6.47816 19.4137L6.41925 19.4362L6.36189 19.4595L6.30606 19.4839L6.25178 19.5091L6.19905 19.5353L6.14786 19.5624L6.09821 19.5904L6.05012 19.6194L6.00357 19.6493L5.95856 19.6802L5.91511 19.712L5.87319 19.7448L5.83283 19.7785L5.79401 19.8131L5.75674 19.8487L5.72102 19.8853L5.68684 19.9228L5.65422 19.9613L5.62315 20.0007L5.5936 20.041L5.56561 20.0824L5.53917 20.1246L5.51427 20.1679L5.49091 20.2121L5.4691 20.2573L5.44883 20.3034L5.43009 20.3505L5.4129 20.3985L5.39725 20.4475L5.38314 20.4975L5.37056 20.5485L5.35952 20.6004L5.35001 20.6533L5.34204 20.7071L5.33559 20.7619L5.33067 20.8177L5.32728 20.8745L5.32541 20.9322L5.32507 20.9909L5.32626 21.0506L5.32896 21.1112L5.33317 21.1728L5.33892 21.2354L5.34616 21.2989L5.35492 21.3634L5.36519 21.4289L5.37696 21.4954L5.39024 21.5628L5.40502 21.6312L5.42129 21.7006L5.43907 21.7709L5.45834 21.8422L5.4791 21.9145L5.50134 21.9877L5.52507 22.0619L5.55029 22.1371L5.57697 22.2132L5.60514 22.2903L5.63477 22.3684L5.66587 22.4474L5.69844 22.5274L5.73247 22.6084L5.76795 22.6903L5.8049 22.7731L5.84329 22.857L5.88313 22.9418L5.9244 23.0275L5.96712 23.1142L6.01129 23.2019L6.05687 23.2905L6.10389 23.38L6.15232 23.4705L6.20218 23.562L6.25344 23.6544L6.30613 23.7478L6.3602 23.842L6.41569 23.9373L6.47257 24.0335L6.53084 24.1306L6.5905 24.2286L6.65155 24.3276L6.71397 24.4275L6.77777 24.5284L6.84292 24.6301L6.90945 24.7328L6.97733 24.8364L7.04657 24.941L7.11714 25.0464L7.18907 25.1528L7.26234 25.2601L7.33693 25.3683L7.41284 25.4774L7.49008 25.5875L7.56865 25.6984L7.64851 25.8102L7.72968 25.9229L7.81216 26.0366L7.89591 26.1511L7.98096 26.2665L8.06729 26.3828L8.15489 26.4999L8.24377 26.618L8.33391 26.7369L8.42529 26.8567L8.51794 26.9774L8.61183 27.099L8.70697 27.2214L8.80332 27.3447L8.90091 27.4688L8.99971 27.5938L9.09973 27.7196L9.20095 27.8463L9.30339 27.9738L9.407 28.1022L9.5118 28.2314L9.61779 28.3614L9.72495 28.4923L9.83327 28.624L9.94276 28.7565L10.0534 28.8898L10.1652 29.0239L10.2781 29.1589L10.3922 29.2946L10.5073 29.4312L10.6236 29.5685L10.741 29.7066L10.8595 29.8456L10.9792 29.9853L11.0999 30.1257L11.2216 30.267L11.3445 30.409L11.4684 30.5518L11.5934 30.6953L11.7194 30.8396L11.8465 30.9847L11.9746 31.1305L12.1037 31.277L12.2339 31.4243L12.365 31.5722L12.4972 31.721L12.6304 31.8704L12.7646 32.0205L12.8997 32.1714L13.0358 32.323L13.1729 32.4752L13.311 32.6282L13.45 32.7818L13.5899 32.9361L13.7308 33.0911L13.8726 33.2468L14.0153 33.4031L14.1589 33.5601L14.3034 33.7178L14.4489 33.8761L14.5952 34.035L47.0772 66.1409L47.2371 66.2846L47.3963 66.4273L47.5549 66.5692L47.7128 66.7101L47.8701 66.8501L48.0266 66.9893L48.1825 67.1274L48.3377 67.2647L48.4921 67.401L48.6459 67.5364L48.799 67.6708L48.9513 67.8042L49.103 67.9367L49.2539 68.0682L49.4041 68.1987L49.5535 68.3282L49.7022 68.4566L49.8502 68.5841L49.9974 68.7106L50.1438 68.836L50.2895 68.9604L50.4344 69.0838L50.5786 69.206L50.722 69.3273L50.8646 69.4475L51.0064 69.5666L51.1474 69.6846L51.2876 69.8015L51.4271 69.9174L51.5657 70.0321L51.7035 70.1457L51.8405 70.2583L51.9767 70.3696L52.1121 70.4799L52.2466 70.589L52.3803 70.697L52.5132 70.8039L52.6453 70.9095L52.7765 71.014L52.9068 71.1174L53.0363 71.2195L53.165 71.3205L53.2928 71.4203L53.4197 71.5189L53.5458 71.6163L53.671 71.7125L53.7954 71.8074L53.9188 71.9012L54.0414 71.9937L54.1631 72.0849L54.2839 72.175L54.4039 72.2638L54.5229 72.3513L54.641 72.4376L54.7583 72.5226L54.8746 72.6063L54.9901 72.6888L55.1046 72.77L55.2182 72.8499L55.3309 72.9285L55.4427 73.0057L55.5536 73.0817L55.6635 73.1564L55.7725 73.2298L55.8807 73.3018L55.9878 73.3725L56.0941 73.4419L56.1994 73.51L56.3037 73.5767L56.4072 73.642L56.5097 73.706L56.6112 73.7687L56.7118 73.83L56.8115 73.8899L56.9102 73.9484L57.0079 74.0056L57.1047 74.0614L57.2006 74.1158L57.2954 74.1688L57.3894 74.2204L57.4823 74.2707L57.5743 74.3195L57.6654 74.3669L57.7555 74.4129L57.8446 74.4575L57.9327 74.5006L58.0199 74.5423L58.1061 74.5827L58.1913 74.6215L58.2755 74.659L58.3588 74.695L58.4411 74.7295L58.5225 74.7626L58.6028 74.7943L58.6822 74.8245L58.7606 74.8532L58.838 74.8805L58.9144 74.9064L58.9898 74.9307L59.0643 74.9536L59.1378 74.975L59.2103 74.9949L59.2818 75.0134L59.3523 75.0304L59.4218 75.0459L59.4904 75.0599L59.558 75.0724L59.6245 75.0834L59.6901 75.0929L59.7547 75.1009L59.8184 75.1075L59.881 75.1125L59.9426 75.116L60.0033 75.118L60.063 75.1185L60.1217 75.1175L60.1793 75.115L60.2361 75.111L60.2918 75.1054L60.3465 75.0983L60.4003 75.0898L60.4531 75.0796L60.5048 75.068L60.5557 75.0549L60.6055 75.0402L60.6543 75.024L60.7022 75.0062L60.749 74.987L60.7949 74.9662L60.8399 74.9438L60.8838 74.92L60.9268 74.8946L60.9687 74.8677L61.0098 74.8392L61.0498 74.8092L61.0889 74.7777L61.1269 74.7446L61.1641 74.71L61.2002 74.6739L61.2354 74.6362L61.2696 74.597L61.3029 74.5563L61.3352 74.514L61.3665 74.4702L61.3968 74.4248L61.4263 74.3779L61.4547 74.3295L61.4822 74.2795L61.5087 74.228L61.5343 74.175L61.559 74.1204L61.5827 74.0643L61.6054 74.0067L61.6272 73.9475L61.648 73.8869L61.668 73.8246L61.6869 73.7609L61.705 73.6956L61.7221 73.6288L61.7383 73.5605L61.7535 73.4906L61.7678 73.4193L61.7812 73.3464L61.7937 73.272L61.8053 73.1961L61.8159 73.1186L61.8256 73.0397L61.8344 72.9592L61.8423 72.8772L61.8493 72.7938L61.8554 72.7088L61.8606 72.6223L61.8649 72.5343L61.8683 72.4448L61.8708 72.3539L61.8724 72.2614L61.8731 72.1674L61.8729 72.072L61.8719 71.9751L61.8699 71.8767L61.8671 71.7768L61.8635 71.6754L61.8589 71.5726L61.8535 71.4683L61.8472 71.3625L61.8401 71.2553L61.8321 71.1466L61.8233 71.0364L61.8136 70.9248L61.803 70.8118L61.7916 70.6973L61.7794 70.5814L61.7664 70.464L61.7525 70.3452L61.7378 70.225L61.7222 70.1034L61.7058 69.9803L61.6887 69.8558L61.6707 69.7299L61.6518 69.6026L61.6322 69.4739L61.6118 69.3438L61.5906 69.2123L61.5686 69.0794L61.5457 68.9451L61.5221 68.8095L61.4978 68.6725L61.4726 68.5341L61.4466 68.3943L61.4199 68.2532L61.3925 68.1107L61.3642 67.9669L61.3352 67.8217L61.3054 67.6752L61.2749 67.5274L61.2436 67.3782L61.2116 67.2278L61.1789 67.076L61.1454 66.9229L61.1112 66.7685L61.0762 66.6128L61.0406 66.4558L61.0042 66.2975L60.9671 66.1379L60.9293 65.9771L60.8907 65.815L60.8515 65.6516L60.8116 65.487L60.771 65.3212L60.7297 65.1541L60.6877 64.9858L60.6451 64.8162L60.6017 64.6454L60.5577 64.4734L60.5131 64.3002L60.4677 64.1258L60.4217 63.9502L60.3751 63.7734L60.3278 63.5955L60.2799 63.4164L60.2313 63.2361L60.1821 63.0546L60.1323 62.872L60.0818 62.6883L60.0307 62.5034L59.9791 62.3174L59.9268 62.1303L59.8738 61.9421L59.8203 61.7527L59.7662 61.5623L59.7116 61.3708L59.6563 61.1782L59.6004 60.9846L59.544 60.7898L59.487 60.5941L59.4294 60.3972L59.3713 60.1994L59.3126 60.0005L59.2533 59.8006L59.1935 59.5996L59.1332 59.3977L59.0723 59.1948L59.0109 58.9909L58.949 58.786L43.6454 15.7653L43.4813 15.365L43.3996 15.1665L43.3181 14.969L43.2368 14.7727L43.1557 14.5775L43.0748 14.3833L42.9941 14.1903L42.9137 13.9985L42.8335 13.8078L42.7534 13.6182L42.6737 13.4298L42.5941 13.2426L42.5147 13.0565L42.4356 12.8717L42.3567 12.688L42.2781 12.5056L42.1997 12.3243L42.1215 12.1443L42.0435 11.9656L41.9658 11.7881L41.8883 11.6118L41.811 11.4368L41.734 11.2631L41.6572 11.0907L41.5806 10.9195L41.5043 10.7497L41.4283 10.5812L41.3525 10.4139L41.2769 10.248L41.2016 10.0835L41.1265 9.92026L41.0517 9.7584L40.9771 9.59789L40.9027 9.43875L40.8286 9.28099L40.7548 9.12461L40.6812 8.96962L40.6079 8.81603L40.5348 8.66385L40.4619 8.51307L40.3894 8.36372L40.3171 8.21581L40.245 8.06934L40.1732 7.9243L40.1016 7.78073L40.0303 7.6386L39.9593 7.49796L39.8885 7.35878L39.8179 7.22109L39.7477 7.08488L39.6777 6.95018L39.6079 6.81697L39.5384 6.68528L39.4692 6.55509L39.4002 6.42645L39.3315 6.29932L39.2631 6.17373L39.1949 6.0497L39.1269 5.9272L39.0593 5.80626L38.9919 5.68689L38.9247 5.5691L38.8578 5.45287L38.7912 5.33822L38.7249 5.22517L38.6588 5.11369L38.5929 5.00383L38.5274 4.89557L38.462 4.78893L38.397 4.68389L38.3322 4.58047L38.2677 4.47869L38.2034 4.37854L38.1394 4.28003L38.0756 4.18316L38.0121 4.08793L37.9489 3.99437L37.8859 3.90246L37.8232 3.81222L37.7608 3.72364L37.6986 3.63674L37.6367 3.55152L37.575 3.46797L37.5136 3.38612L37.4524 3.30596L37.3915 3.22749L37.3309 3.15073L37.2705 3.07566L37.2103 3.0023L37.1504 2.93066L37.0908 2.86074L37.0315 2.79253L36.9723 2.72605L36.9135 2.6613L36.8548 2.59828L36.7965 2.53699L36.7384 2.47744L36.6805 2.41964L36.6229 2.36358L36.5655 2.30926L36.5084 2.2567L36.4515 2.20589L36.3949 2.15684L36.3385 2.10955L36.2824 2.06403L36.2265 2.02027L36.1708 1.97828L36.1154 1.93805L36.0602 1.8996L36.0053 1.86293L35.9506 1.82802L35.8962 1.79491L35.842 1.76357L35.788 1.73402L35.7342 1.70625L35.6807 1.68027L35.6274 1.65609L35.5744 1.63369L35.5216 1.61309L35.469 1.59427L35.4167 1.57724L35.3645 1.56203L35.3126 1.5486L35.2609 1.53698L35.2095 1.52716L35.1583 1.51913L35.1073 1.51291L35.0565 1.50849L35.0059 1.50586L34.9556 1.50506L34.9055 1.50604L34.8556 1.50884L34.8059 1.51343L34.7564 1.51984L34.7071 1.52805L34.6581 1.53807L34.6092 1.54988L34.5606 1.56351L34.5122 1.57892L34.464 1.59616L34.4159 1.6152L34.3681 1.63603L34.3205 1.65868L34.2731 1.68311L34.2259 1.70936L34.1789 1.73741L34.1321 1.76724L34.0855 1.79889L34.0391 1.83232L33.9928 1.86756L33.9468 1.90459L33.9009 1.94341L33.8553 1.98403L33.8098 2.02643L33.7645 2.07062L33.7194 2.1166L33.6745 2.16437L33.6298 2.21392L33.5852 2.26525L33.5409 2.31835L33.4967 2.37324L33.4527 2.42989L33.4088 2.48833L33.3652 2.54853L33.3216 2.6105L33.2783 2.67423L33.2352 2.73971L33.1922 2.80697L33.1494 2.87599L33.1067 2.94674L33.0642 3.01925L33.0219 3.09351L32.9797 3.16952L32.9377 3.24725L32.8958 3.32674L32.8541 3.40794L32.8126 3.49089L32.7712 3.57556L32.73 3.66195L32.6889 3.75005L32.6479 3.83987L32.6071 3.93141L32.5665 4.02465L32.526 4.1196L32.4856 4.21623L32.4454 4.31457L32.4053 4.41459L32.3654 4.51629L32.3256 4.61967L32.2859 4.72473L32.2464 4.83148L32.207 4.93987L32.1677 5.04992L32.1285 5.16164L32.0895 5.275L32.0507 5.39002L32.0119 5.50667L31.9733 5.62496L31.9347 5.74487L31.8964 5.86641L31.8581 5.98956L31.8199 6.11433L31.7819 6.24071L31.744 6.36868L31.7062 6.49825L31.6685 6.62942L31.6309 6.76216L31.5934 6.89648L31.5561 7.03237L31.5188 7.16983L31.4817 7.30884L31.4446 7.44941L31.4077 7.59151L31.3708 7.73516L31.3341 7.88035L31.2975 8.02705L31.261 8.17527L31.2245 8.32501L31.1882 8.47624L31.1519 8.62897L31.1158 8.78321L31.0797 8.93891L31.0437 9.09609L31.0078 9.25474L30.9721 9.41486L30.9363 9.57642L30.9007 9.73943L30.8652 9.90388L30.8297 10.0698L30.7944 10.237L30.7591 10.4058L30.7239 10.5759L30.6888 10.7474L30.6537 10.9203L30.6187 11.0946L30.5838 11.2703L30.549 11.4473L30.5143 11.6257L30.4796 11.8054L30.445 11.9865L30.4105 12.1689L30.376 12.3527L30.3416 12.5377L30.3073 12.724L30.273 12.9117L30.2388 13.1006L30.2047 13.2909L30.1707 13.4823L30.1367 13.6751L30.1027 13.8691L30.0688 14.0643L30.035 14.2608L30.0013 14.4585L29.9676 14.6574L29.9339 14.8576L29.9004 15.0589L29.8668 15.2614L29.8334 15.4651L29.8 15.6699L29.7666 15.8759L29.7333 16.0831L29.7001 16.2914L29.6669 16.5008L29.6337 16.7113L29.6006 16.923L29.5346 17.3495L24.6997 62.7451L24.6872 62.9591L24.6751 63.1721L24.6632 63.384L24.6516 63.5948L24.6403 63.8046L24.6293 64.0132L24.6186 64.2207L24.6082 64.427L24.5981 64.6323L24.5883 64.8364L24.5788 65.0393L24.5696 65.2411L24.5608 65.4416L24.5522 65.6411L24.544 65.8393L24.5361 66.0363L24.5285 66.2321L24.5212 66.4267L24.5143 66.6201L24.5077 66.8122L24.5015 67.0031L24.4956 67.1927L24.49 67.3811L24.4848 67.5682L24.4799 67.754L24.4754 67.9386L24.4712 68.1218L24.4674 68.3038L24.4639 68.4844L24.4608 68.6637L24.4581 68.8417L24.4557 69.0184L24.4537 69.1937L24.4521 69.3677L24.4509 69.5403L24.45 69.7116L24.4495 69.8815L24.4494 70.05L24.4497 70.2171L24.4503 70.3828L24.4514 70.5472L24.4529 70.7101L24.4547 70.8716L24.457 71.0317L24.4596 71.1903L24.4627 71.3475L24.4662 71.5033L24.47 71.6576L24.4743 71.8105L24.479 71.9619L24.4842 72.1119L24.4897 72.2604L24.4957 72.4074L24.5021 72.5529L24.509 72.6969L24.5162 72.8394L24.5239 72.9804L24.5321 73.1199L24.5407 73.2579L24.5497 73.3943L24.5592 73.5293L24.5691 73.6627L24.5795 73.7945L24.5903 73.9248L24.6016 74.0536L24.6133 74.1808L24.6255 74.3065L24.6382 74.4305L24.6513 74.553L24.6649 74.674L24.679 74.7933L24.6936 74.9111L24.7086 75.0273L24.7241 75.1419L24.7401 75.2549L24.7566 75.3663L24.7735 75.476L24.791 75.5842L24.8089 75.6908L24.8273 75.7957L24.8462 75.899L24.8657 76.0007L24.8856 76.1007L24.906 76.1991L24.927 76.2959L24.9484 76.391L24.9703 76.4845L24.9928 76.5763L25.0158 76.6665L25.0393 76.755L25.0633 76.8419L25.0878 76.9271L25.1129 77.0106L25.1385 77.0925L25.1646 77.1726L25.1912 77.2512L25.2184 77.328L25.2461 77.4031L25.2743 77.4766L25.3031 77.5484L25.3324 77.6185L25.3622 77.6869L25.3926 77.7536L25.4236 77.8186L25.4551 77.882L25.4871 77.9436L25.5197 78.0035L25.5528 78.0617L25.5865 78.1183L25.6208 78.1731L25.6556 78.2262L25.691 78.2776L25.7269 78.3273L25.7634 78.3752L25.8005 78.4215L25.8381 78.4661L25.8763 78.5089L25.915 78.55L25.9544 78.5894L25.9943 78.6271L26.0348 78.6631L26.0758 78.6974L26.1175 78.7299L26.1597 78.7607L26.2025 78.7898L26.2459 78.8172L26.2898 78.8429L26.3344 78.8668L26.3795 78.8891L26.4252 78.9096L26.4715 78.9283L26.5184 78.9454L26.5659 78.9608L26.614 78.9744L26.6627 78.9863L26.7119 78.9965L26.7618 79.005L26.8122 79.0118L26.8633 79.0168L26.9149 79.0201L26.9672 79.0218L27.02 79.0217L27.0735 79.0199L27.1275 79.0164L27.1822 79.0112L27.2375 79.0042L27.2933 78.9956L27.3498 78.9853L27.4069 78.9733L27.4645 78.9595L27.5228 78.9441L27.5817 78.927L27.6412 78.9082L27.7013 78.8877L27.762 78.8655L27.8234 78.8416L27.8853 78.816L27.9478 78.7888L28.011 78.7599L28.0748 78.7293L28.1392 78.697L28.2041 78.663L28.2697 78.6274L28.336 78.5901L28.4028 78.5512L28.4702 78.5106L28.5383 78.4683L28.6069 78.4244L28.6762 78.3788L28.7461 78.3316L28.8166 78.2828L28.8877 78.2323L28.9594 78.1801L29.0318 78.1264L29.1047 78.071L29.1783 78.014L29.2524 77.9553L29.3272 77.8951L29.4026 77.8332L29.4786 77.7697L29.5552 77.7047L29.6324 77.638L29.7103 77.5697L29.7887 77.4999L29.8677 77.4284L29.9474 77.3554L30.0277 77.2808L30.1085 77.2046L30.19 77.1269L30.272 77.0476L30.3547 76.9667L30.438 76.8843L30.5219 76.8003L30.6063 76.7148L30.6914 76.6278L30.7771 76.5392L30.8634 76.4491L30.9502 76.3575L31.0377 76.2644L31.1258 76.1697L31.2144 76.0736L31.3036 75.976L31.3935 75.8768L31.4839 75.7762L31.5749 75.6741L31.6665 75.5706L31.7587 75.4655L31.8514 75.3591L31.9448 75.2511L32.0387 75.1417L32.1332 75.0309L32.2283 74.9186L32.3239 74.8049L32.4201 74.6898L32.5169 74.5732L32.6143 74.4553L32.7122 74.3359L32.8107 74.2152L32.9098 74.0931L33.0094 73.9695L33.1096 73.8447L33.2104 73.7184L33.3117 73.5908L33.4135 73.4618L33.5159 73.3315L33.6189 73.1999L33.7224 73.0669L33.8264 72.9326L33.931 72.797L34.0361 72.66L34.1418 72.5218L34.248 72.3823L34.3547 72.2415L34.462 72.0994L34.5698 71.956L34.6781 71.8114L34.7869 71.6656L34.8963 71.5185L35.0062 71.3701L35.1165 71.2205L35.2274 71.0697L35.3388 70.9177L35.4507 70.7645L35.5632 70.6101L35.6761 70.4545L35.7895 70.2977L35.9034 70.1398L36.0178 69.9807L36.1326 69.8204L36.248 69.659L36.3638 69.4965L36.4801 69.3328L36.5969 69.168L36.7142 69.0021L36.8319 68.8351L36.9501 68.6671L37.0687 68.4979L37.1878 68.3277L37.3074 68.1563L37.4274 67.984L37.5479 67.8106L37.6687 67.6361L37.7901 67.4607L37.9118 67.2842L38.034 67.1067L62.2111 28.1331L62.315 27.9459L62.4183 27.7594L62.5208 27.5739L62.6226 27.3892L62.7236 27.2054L62.8239 27.0224L62.9235 26.8403L63.0223 26.6591L63.1203 26.4788L63.2175 26.2994L63.314 26.1209L63.4097 25.9433L63.5046 25.7667L63.5986 25.591L63.6919 25.4162L63.7844 25.2423L63.876 25.0694L63.9668 24.8975L64.0568 24.7265L64.146 24.5565L64.2343 24.3875L64.3217 24.2194L64.4083 24.0523L64.4941 23.8863L64.5789 23.7212L64.6629 23.5571L64.7461 23.3941L64.8283 23.232L64.9096 23.071L64.99 22.9111L65.0696 22.7521L65.1482 22.5942L65.2259 22.4374L65.3027 22.2816L65.3785 22.1268L65.4534 21.9732L65.5274 21.8206L65.6005 21.6691L65.6725 21.5186L65.7437 21.3693L65.8138 21.221L65.883 21.0738L65.9513 20.9278L66.0185 20.7828L66.0848 20.639L66.15 20.4963L66.2143 20.3547L66.2776 20.2142L66.3399 20.0749L66.4011 19.9366L66.4614 19.7996L66.5206 19.6637L66.5788 19.5289L66.6359 19.3953L66.6921 19.2628L66.7472 19.1315L66.8012 19.0014L66.8542 18.8725L66.9061 18.7447L66.957 18.6181L67.0068 18.4927L67.0555 18.3685L67.1032 18.2454L67.1498 18.1236L67.1953 18.0029L67.2397 17.8835L67.283 17.7653L67.3252 17.6483L67.3663 17.5325L67.4063 17.4179L67.4452 17.3045L67.483 17.1923L67.5196 17.0814L67.5552 16.9717L67.5896 16.8632L67.6228 16.756L67.655 16.65L67.686 16.5453L67.7158 16.4418L67.7445 16.3395L67.772 16.2385L67.7984 16.1387L67.8237 16.0402L67.8477 15.943L67.8706 15.847L67.8924 15.7522L67.9129 15.6588L67.9323 15.5666L67.9505 15.4756L67.9675 15.386L67.9833 15.2976L67.9979 15.2104L68.0113 15.1246L68.0236 15.04L68.0346 14.9567L68.0444 14.8747L68.0531 14.794L68.0605 14.7145L68.0667 14.6364L68.0716 14.5595L68.0754 14.4839L68.0779 14.4096L68.0793 14.3365L68.0793 14.2648L68.0782 14.1944L68.0758 14.1252L68.0722 14.0574L68.0674 13.9908L68.0613 13.9255L68.0539 13.8616L68.0454 13.7989L68.0356 13.7375L68.0245 13.6774L68.0122 13.6186L67.9986 13.5611L67.9838 13.5049L67.9677 13.4501L67.9504 13.3964L67.9318 13.3441L67.9119 13.2931L67.8908 13.2434L67.8684 13.195L67.8447 13.1479L67.8198 13.1021L67.7936 13.0576L67.7661 13.0144L67.7374 12.9724L67.7074 12.9318L67.6761 12.8925L67.6436 12.8544L67.6097 12.8177L67.5746 12.7822L67.5382 12.7481L67.5006 12.7152L67.4616 12.6836L67.4214 12.6533L67.3799 12.6243L67.3371 12.5966L67.293 12.5701L67.2477 12.545L67.201 12.5211L67.1531 12.4985L67.1039 12.4772L67.0534 12.4572L67.0016 12.4384L66.9486 12.4209L66.8942 12.4047L66.8386 12.3898L66.7817 12.3761L66.7235 12.3637L66.664 12.3526L66.6033 12.3427L66.5412 12.3341L66.4779 12.3268L66.4133 12.3207L66.3474 12.3158L66.2802 12.3122L66.2118 12.3099L66.1421 12.3088L66.0711 12.309L65.9988 12.3104L65.9252 12.313L65.8504 12.3169L65.7743 12.322L65.6969 12.3283L65.6182 12.3359L65.5383 12.3447L65.4571 12.3547L65.3747 12.366L65.2909 12.3784L65.206 12.3921L65.1197 12.407L65.0322 12.423L64.9434 12.4403L64.8534 12.4588L64.7621 12.4785L64.6696 12.4994L64.5758 12.5215L64.4807 12.5447L64.3845 12.5692L64.2869 12.5948L64.1881 12.6216L64.0881 12.6496L63.9869 12.6787L63.8844 12.709L63.7807 12.7405L63.6757 12.7731L63.5695 12.8069L63.4622 12.8418L63.3535 12.8778L63.2437 12.915L63.1326 12.9534L63.0204 12.9929L62.9069 13.0335L62.7922 13.0752L62.6763 13.118L62.5592 13.162L62.441 13.207L62.3215 13.2532L62.2008 13.3005L62.079 13.3488L61.9559 13.3983L61.8317 13.4488L61.7063 13.5005L61.5798 13.5532L61.4521 13.6069L61.3232 13.6618L61.1931 13.7177L61.0619 13.7746L60.9296 13.8326L60.7961 13.8917L60.6615 13.9518L60.5257 14.0129L60.3888 14.0751L60.2508 14.1383L60.1116 14.2025L59.9713 14.2677L59.8299 14.334L59.6874 14.4012L59.5438 14.4694L59.3991 14.5387L59.2533 14.6089L59.1064 14.6801L58.9585 14.7523L58.8094 14.8254L58.6593 14.8996L58.5081 14.9746L58.3558 15.0507L58.2025 15.1277L58.0481 15.2056L57.8927 15.2844L57.7362 15.3642L57.5787 15.445L57.4202 15.5266L57.2607 15.6091L57.1001 15.6926L56.9385 15.777L56.7759 15.8622L56.6123 15.9484L56.4477 16.0354L56.2821 16.1233L56.1156 16.2121L55.948 16.3017L55.7795 16.3922L55.6101 16.4835L55.4396 16.5757L55.2683 16.6688L55.0959 16.7626L54.9227 16.8573L54.7485 16.9528L54.5734 17.0492L54.3973 17.1463L54.2204 17.2442L54.0425 17.3429L53.8638 17.4425L53.6842 17.5428L53.5037 17.6438L53.3223 17.7457L53.14 17.8483L52.9569 17.9516L52.7729 18.0557L52.5881 18.1606L52.4024 18.2661L52.2159 18.3724L13.6819 42.8529L13.3294 43.1011L12.9809 43.3476L12.8082 43.4702L12.6365 43.5923L12.4659 43.714L12.2963 43.8352L12.1278 43.956L11.9603 44.0762L11.794 44.196L11.6287 44.3153L11.4645 44.4342L11.3015 44.5525L11.1395 44.6704L10.9787 44.7878L10.819 44.9047L10.6605 45.021L10.5031 45.1369L10.3468 45.2523L10.1918 45.3672L10.0379 45.4816L9.88519 45.5954L9.73368 45.7087L9.58338 45.8216L9.43429 45.9339L9.28641 46.0456L9.13977 46.1569L8.99435 46.2676L8.85018 46.3778L8.70727 46.4874L8.56561 46.5965L8.42521 46.7051L8.28609 46.8131L8.14826 46.9205L8.01171 47.0275L7.87647 47.1338L7.74253 47.2396L7.60989 47.3449L7.47858 47.4496L7.3486 47.5537L7.21996 47.6573L7.09266 47.7603L6.9667 47.8627L6.84211 47.9645L6.71887 48.0658L6.59701 48.1665L6.47652 48.2667L6.35743 48.3662L6.23973 48.4652L6.12342 48.5636L6.00852 48.6614L5.89503 48.7586L5.78296 48.8552L5.67231 48.9512L5.5631 49.0467L5.45533 49.1415L5.34899 49.2358L5.24412 49.3294L5.14069 49.4224L5.03873 49.5149L4.93825 49.6067L4.83923 49.698L4.7417 49.7886L4.64566 49.8786L4.5511 49.9681L4.45806 50.0569L4.3665 50.1451L4.27646 50.2327L4.18794 50.3196L4.10095 50.406L4.01547 50.4917L3.93153 50.5769L3.84913 50.6614L3.76827 50.7453L3.68896 50.8285L3.61119 50.9112L3.53499 50.9932L3.46035 51.0746L3.38727 51.1554L3.31578 51.2356L3.24585 51.3151L3.1775 51.394L3.11075 51.4723L3.04559 51.55L2.98202 51.627L2.92004 51.7034L2.85968 51.7792L2.80091 51.8544L2.74375 51.9289L2.68822 52.0028L2.63431 52.0761L2.58202 52.1487L2.53135 52.2207L2.48232 52.2921L2.43492 52.3628L2.38916 52.4329L2.34504 52.5024L2.30257 52.5713L2.26174 52.6395L2.22257 52.7071L2.18504 52.7741L2.14918 52.8404L2.11498 52.9061L2.08244 52.9712L2.05157 53.0357L2.02236 53.0995L1.99483 53.1627L1.96897 53.2252L1.94479 53.2872L1.92229 53.3485L1.90147 53.4091L1.88233 53.4692L1.86488 53.5286L1.84911 53.5874L1.83505 53.6456L1.82266 53.7031L1.81198 53.7601L1.80298 53.8163L1.79569 53.872L1.7901 53.9271L1.7862 53.9815L1.784 54.0353L1.78352 54.0885L1.78473 54.1411L1.78765 54.193L1.79227 54.2444L1.79861 54.2951L1.80666 54.3452L1.8164 54.3947L1.82787 54.4436L1.84104 54.4919L1.85593 54.5395L1.87253 54.5866L1.89083 54.633L1.91086 54.6788L1.9326 54.724L1.95604 54.7687L1.9812 54.8127L2.00809 54.8561L2.03667 54.8989L2.06697 54.9411L2.09898 54.9827L2.13271 55.0237L2.16815 55.0642L2.2053 55.104L2.24417 55.1432L2.28474 55.1819L2.32702 55.2199L2.371 55.2574L2.41671 55.2943L2.46411 55.3306L2.51322 55.3663L2.56403 55.4014L2.61655 55.436L2.67077 55.4699L2.72669 55.5033L2.78431 55.5362L2.84362 55.5684L2.90463 55.6001L2.96733 55.6312L3.03172 55.6618L3.09781 55.6917L3.16558 55.7212L3.23505 55.75L3.30619 55.7783L3.37901 55.8061L3.45351 55.8332L3.52968 55.8599L3.60754 55.886L3.68706 55.9115L3.76825 55.9365L3.85111 55.9609L3.93563 55.9848L4.02181 56.0082L4.10965 56.031L4.19913 56.0533L4.29028 56.0751L4.38306 56.0963L4.4775 56.117L4.57356 56.1371L4.67127 56.1568L4.77061 56.1759L4.87159 56.1945L4.97418 56.2126L5.0784 56.2302L5.18423 56.2472L5.29167 56.2638L5.40073 56.2798L5.5114 56.2954L5.62365 56.3104L5.73751 56.3249L5.85297 56.339L5.97 56.3525L6.08863 56.3655L6.20883 56.3781L6.33059 56.3902L6.45394 56.4017L6.57884 56.4128L6.70531 56.4235L6.83332 56.4336L6.96288 56.4433L7.09399 56.4525L7.22663 56.4612L7.36081 56.4695L7.49651 56.4773L7.63374 56.4846L7.77248 56.4915L7.91272 56.4979L8.05448 56.5039L8.19773 56.5094L8.34247 56.5144L8.4887 56.5191L8.63641 56.5232L8.78558 56.527L8.93623 56.5303L9.08834 56.5332L9.24191 56.5356L9.39692 56.5376L9.55338 56.5392L9.71127 56.5404L9.87057 56.5411L10.0313 56.5414L10.1935 56.5413L10.357 56.5408L10.522 56.5399L10.6883 56.5386L10.8561 56.5369L11.0252 56.5347L11.1957 56.5322L11.3675 56.5293L11.5407 56.526L11.7153 56.5223L11.8912 56.5182L12.0684 56.5138L12.247 56.5089L12.4269 56.5037L12.608 56.4981L12.7905 56.4921L12.9743 56.4858L13.1594 56.4791L13.3457 56.472L13.5334 56.4646L13.7222 56.4568L13.9124 56.4487L14.1037 56.4402L14.2964 56.4313L14.4902 56.4221L14.6853 56.4126L14.8815 56.4027L15.079 56.3925L15.2777 56.382L15.4775 56.3711L15.6786 56.3599L15.8807 56.3484L16.0841 56.3366L16.2886 56.3244L16.4942 56.3119L16.701 56.2991L16.9089 56.286L17.1179 56.2726L17.328 56.2589L17.5392 56.2448L17.7514 56.2305L17.9648 56.2159L18.1792 56.201L63.7421 50.8259L63.954 50.7905L64.1649 50.755L64.3746 50.7196L64.5832 50.6841L64.7907 50.6485L64.9971 50.613L65.2023 50.5773L65.4063 50.5417L65.6091 50.506L65.8108 50.4702L66.0113 50.4344L66.2106 50.3986L66.4086 50.3627L66.6055 50.3268L66.8011 50.2908L66.9955 50.2547L67.1886 50.2187L67.3805 50.1826L67.5711 50.1464L67.7604 50.1102L67.9485 50.0739L68.1353 50.0376L68.3207 50.0012L68.5049 49.9647L68.6877 49.9283L68.8692 49.8917L69.0493 49.8551L69.2282 49.8185L69.4056 49.7817L69.5817 49.745L69.7565 49.7081L69.9298 49.6712L70.1018 49.6343L70.2724 49.5972L70.4415 49.5601L70.6093 49.523L70.7756 49.4858L70.9405 49.4485L71.104 49.4111L71.266 49.3737L71.4266 49.3362L71.5858 49.2986L71.7434 49.261L71.8996 49.2233L72.0543 49.1855L72.2075 49.1476L72.3593 49.1097L72.5095 49.0717L72.6582 49.0336L72.8054 48.9954L72.9511 48.9571L73.0953 48.9187L73.2379 48.8803L73.379 48.8418L73.5185 48.8032L73.6565 48.7645L73.7929 48.7257L73.9277 48.6868L74.061 48.6478L74.1927 48.6088L74.3228 48.5696L74.4513 48.5304L74.5782 48.491L74.7035 48.4516L74.8272 48.412L74.9492 48.3724L75.0697 48.3326L75.1885 48.2927L75.3057 48.2528L75.4212 48.2127L75.5352 48.1725L75.6474 48.1322L75.758 48.0918L75.867 48.0513L75.9742 48.0107L76.0799 47.97L76.1838 47.9291L76.286 47.8881L76.3866 47.847L76.4855 47.8058L76.5827 47.7645L76.6782 47.723L76.772 47.6814L76.8641 47.6397L76.9544 47.5979L77.0431 47.5559L77.1301 47.5138L77.2153 47.4716L77.2988 47.4292L77.3805 47.3867L77.4606 47.3441L77.5389 47.3013L77.6154 47.2584L77.6902 47.2153L77.7633 47.1721L77.8346 47.1288L77.9042 47.0853L77.972 47.0417L78.0381 46.9979L78.1023 46.954L78.1649 46.9099L78.2256 46.8657L78.2846 46.8213L78.3418 46.7768L78.3972 46.7321L78.4509 46.6872L78.5028 46.6422L78.5529 46.597L78.6012 46.5517L78.6477 46.5062L78.6924 46.4606L78.7354 46.4147L78.7765 46.3687L78.8159 46.3226L78.8535 46.2763L78.8892 46.2298L78.9232 46.1831L78.9554 46.1362L78.9858 46.0892L79.0143 46.042L79.0411 45.9946L79.0661 45.9471L79.0892 45.8993L79.1106 45.8514L79.1301 45.8033L79.1479 45.755L79.1638 45.7066L79.178 45.6579L79.1903 45.609L79.2008 45.56L79.2095 45.5108L79.2164 45.4614L79.2215 45.4117L79.2248 45.3619L79.2263 45.3119L79.226 45.2617L79.2238 45.2113L79.2199 45.1607L79.2142 45.1099L79.2066 45.0589L79.1973 45.0077L79.1861 44.9563L79.1732 44.9047L79.1584 44.8528L79.1418 44.8008L79.1235 44.7486L79.1033 44.6961L79.0814 44.6435L79.0577 44.5906L79.0321 44.5375L79.0048 44.4842L78.9757 44.4307L78.9448 44.377L78.9121 44.323L78.8776 44.2688L78.8413 44.2145L78.8033 44.1599L78.7635 44.105L78.7219 44.05L78.6785 43.9947L78.6334 43.9392L78.5865 43.8835L78.5379 43.8276L78.4874 43.7714L78.4352 43.715L78.3813 43.6584L78.3256 43.6015L78.2682 43.5444L78.209 43.4871L78.148 43.4296L78.0854 43.3718L78.021 43.3138L77.9548 43.2556L77.887 43.1971L77.8174 43.1384L77.746 43.0794L77.673 43.0202L77.5982 42.9608L77.5218 42.9012L77.4436 42.8413L77.3638 42.7812L77.2822 42.7208L77.1989 42.6602L77.114 42.5994L77.0274 42.5383L76.939 42.477L76.8491 42.4154L76.7574 42.3536L76.6641 42.2915L76.5691 42.2293L76.4725 42.1667L76.3742 42.104L76.2743 42.0409L76.1727 41.9777L76.0695 41.9142L75.9647 41.8504L75.8582 41.7865L75.7502 41.7222L75.6405 41.6578L75.5292 41.593L75.4163 41.5281L75.3018 41.4629L75.1858 41.3974L75.0681 41.3317L74.9489 41.2658L74.8281 41.1996L74.7057 41.1332L74.5818 41.0665L74.4564 40.9996L74.3294 40.9325L74.2008 40.8651L74.0707 40.7974L73.9391 40.7295L73.806 40.6614L73.6714 40.593L73.5352 40.5244L73.3976 40.4555L73.2585 40.3864L73.1179 40.3171L72.9758 40.2475L72.8323 40.1777L72.6873 40.1076L72.5408 40.0373L72.3929 39.9668L72.2436 39.896L72.0928 39.825L71.9406 39.7537L71.787 39.6822L71.632 39.6105L71.4756 39.5385L71.3178 39.4663L71.1586 39.3939L70.998 39.3212L70.8361 39.2483L70.6728 39.1752L70.5081 39.1018L70.3422 39.0282L70.1749 38.9544L70.0062 38.8803L69.8363 38.806L69.665 38.7315L69.4924 38.6568L69.3186 38.5818L69.1435 38.5066L68.9671 38.4312L68.7894 38.3556L68.6105 38.2797L68.4303 38.2036L68.2489 38.1273L68.0663 38.0508L67.8824 37.9741L67.6973 37.8972L67.5111 37.82L67.3236 37.7426L67.135 37.6651L66.9452 37.5873L66.7542 37.5093L66.5621 37.4311L66.3689 37.3527L66.1745 37.274L65.979 37.1952L65.7823 37.1162L65.5846 37.037L65.3858 36.9576L65.1859 36.878L22.2069 22.0807L21.9988 22.0197L21.5855 21.8993L21.3803 21.8398L21.1761 21.7809L20.9729 21.7225L20.7707 21.6646L20.5695 21.6072L20.3694 21.5504L20.1702 21.4942L19.9721 21.4385L19.7751 21.3833L19.5791 21.3287L19.3842 21.2746L19.1903 21.2211L18.9975 21.1682L18.8059 21.1159L18.6153 21.0642L18.4258 21.013L18.2374 20.9624L18.0502 20.9124L17.8641 20.8631L17.6791 20.8143L17.4953 20.7661L17.3126 20.7186L17.131 20.6716L16.9507 20.6253L16.7715 20.5796L16.5935 20.5346L16.4167 20.4901L16.2411 20.4464L16.0666 20.4032L15.8934 20.3607L15.7214 20.3189L15.5507 20.2777L15.3811 20.2372L15.2128 20.1974L15.0458 20.1582L14.88 20.1197L14.7154 20.0819L14.5522 20.0448L14.3902 20.0084L14.2294 19.9726L14.07 19.9376L13.9118 19.9032L13.755 19.8696L13.5994 19.8367L13.4452 19.8045L13.2922 19.773L13.1406 19.7422L12.9903 19.7122L12.8413 19.6828L12.6937 19.6543L12.5474 19.6264L12.4025 19.5993L12.2589 19.573L12.1167 19.5474L11.9758 19.5225L11.8364 19.4985L11.6982 19.4751L11.5615 19.4526L11.4262 19.4308L11.2922 19.4098L11.1597 19.3896L11.0285 19.3701L10.8987 19.3515L10.7704 19.3336L10.6435 19.3165L10.5179 19.3003L10.3938 19.2848L10.2712 19.2701L10.1499 19.2562L10.0302 19.2432L9.91179 19.231L9.79488 19.2195L9.6794 19.2089L9.56538 19.1992L9.45282 19.1902L9.34172 19.1821L9.23208 19.1748L9.1239 19.1684L9.0172 19.1628L8.91198 19.158L8.80823 19.1541L8.70594 19.1511L8.60515 19.1489L8.50585 19.1475L8.40804 19.147L8.3117 19.1474L8.21688 19.1487L8.12356 19.1508L8.03171 19.1538L7.94139 19.1576L7.85257 19.1624L7.76526 19.168L7.67946 19.1745L7.59518 19.1819L7.5124 19.1902L7.43114 19.1993L7.35141 19.2094L7.2732 19.2204L7.1965 19.2322L7.12134 19.245L7.04771 19.2587L6.9756 19.2732L6.90502 19.2887L6.83598 19.3051L6.76847 19.3224L6.7025 19.3406L6.63806 19.3598L6.57515 19.3798L6.5138 19.4008L6.45398 19.4227L6.39569 19.4456L6.33897 19.4693L6.28377 19.494L6.23012 19.5196L6.178 19.5462L6.12745 19.5737L6.07844 19.6021L6.03097 19.6315L5.98504 19.6618L5.94067 19.6931L5.89784 19.7253L5.85656 19.7584L5.81683 19.7925L5.77864 19.8275L5.742 19.8635L5.70691 19.9005L5.67337 19.9383L5.64137 19.9772L5.61092 20.017L5.58202 20.0578L5.55465 20.0995" stroke="#F05555"/>
</g>
<defs>
<clipPath id="clip0_1563_2224">
<rect width="80" height="80" fill="white"/>
</clipPath>
</defs>
</svg>
