<svg width="80" height="80" viewBox="0 0 80 80" fill="none" xmlns="http://www.w3.org/2000/svg">
<path d="M57.5 40.027C57.5 49.6367 55.4973 58.3119 52.2832 64.5663C49.0557 70.8469 44.6863 74.5541 40 74.5541C35.3137 74.5541 30.9443 70.8469 27.7168 64.5663C24.5027 58.3119 22.5 49.6367 22.5 40.027C22.5 30.4173 24.5027 21.7421 27.7168 15.4877C30.9443 9.20716 35.3137 5.5 40 5.5C44.6863 5.5 49.0557 9.20716 52.2832 15.4877C55.4973 21.7421 57.5 30.4173 57.5 40.027Z" stroke="#F05555"/>
<path d="M40.027 21.5273C49.6367 21.5273 58.3119 23.5301 64.5663 26.7441C70.8469 29.9716 74.5541 34.341 74.5541 39.0273C74.5541 43.7137 70.8469 48.083 64.5663 51.3106C58.3119 54.5246 49.6367 56.5273 40.027 56.5273C30.4173 56.5273 21.7421 54.5246 15.4877 51.3106C9.20716 48.083 5.5 43.7137 5.5 39.0273C5.5 34.341 9.20716 29.9716 15.4877 26.7441C21.7421 23.5301 30.4173 21.5273 40.027 21.5273Z" stroke="#F05555"/>
<path d="M27.1226 27.1216C33.9177 20.3265 41.4681 15.6083 48.1633 13.4585C54.8865 11.2996 60.5975 11.7679 63.9113 15.0816C67.225 18.3954 67.6932 24.1063 65.5344 30.8296C63.3846 37.5248 58.6664 45.0752 51.8713 51.8703C45.0762 58.6654 37.5258 63.3835 30.8306 65.5334C24.1074 67.6922 18.3964 67.224 15.0827 63.9102C11.7689 60.5965 11.3007 54.8855 13.4595 48.1623C15.6093 41.4671 20.3275 33.9167 27.1226 27.1216Z" stroke="#F05555"/>
<path d="M28.0078 51.8679C21.244 45.0417 16.5606 37.4696 14.4415 30.7646C12.3136 24.0315 12.8081 18.3228 16.1371 15.0243C19.466 11.7258 25.179 11.2838 31.8923 13.4735C38.5775 15.6541 46.1062 20.4069 52.87 27.2332C59.6338 34.0595 64.3172 41.6315 66.4362 48.3365C68.5641 55.0696 68.0696 60.7783 64.7407 64.0768C61.4118 67.3753 55.6987 67.8173 48.9855 65.6276C42.3002 63.447 34.7716 58.6942 28.0078 51.8679Z" stroke="#F05555"/>
<circle cx="40" cy="40" r="35.5" stroke="#F05555"/>
</svg>
