<svg width="848" height="850" viewBox="0 0 848 850" fill="none" xmlns="http://www.w3.org/2000/svg">
<g opacity="0.4" clip-path="url(#clip0_2402_1904)">
<path d="M633.34 776.099L633.494 776.095C651.271 775.497 666.776 771.302 679.581 763.631C713.262 743.458 727.981 698.803 721.031 637.893C713.86 575.055 685.17 500.01 638.048 420.845C592.555 457.105 541.779 492.087 487.125 524.826C419.801 565.153 350.613 599.548 287.035 624.288C222.144 649.541 166.197 663.453 125.153 664.556C178.765 754.139 258.724 816.178 350.379 839.275C433.547 860.234 520.64 847.048 595.594 802.149C595.609 802.138 595.613 802.134 595.624 802.126C608.516 794.406 621.163 785.681 633.223 776.197L633.34 776.099V776.099ZM680.066 764.44C667.16 772.171 651.557 776.407 633.682 777.032C621.629 786.502 608.986 795.219 596.109 802.935C596.102 802.939 596.087 802.946 596.079 802.95C520.9 847.984 433.565 861.205 350.15 840.185C258.013 816.968 177.674 754.519 123.934 664.349L123.521 663.657L124.325 663.634C165.332 662.701 221.479 648.788 286.692 623.408C350.221 598.69 419.361 564.322 486.644 524.017C541.429 491.203 592.315 456.127 637.887 419.772L638.304 419.438L638.579 419.9C734.1 580.172 751.158 721.855 680.066 764.44V764.44Z" fill="#202020"/>
<path d="M636.645 778.309C568.366 819.205 496.09 848.058 453.154 849.04L453.132 848.099C512.682 846.741 628.962 791.519 712.336 725.002L712.919 725.736C689.441 744.468 663.346 762.312 636.645 778.309Z" fill="#202020"/>
<path d="M584.211 687.87C467.506 757.78 343.971 807.099 270.601 808.777L270.574 807.836C372.477 805.511 571.417 711.041 714.048 597.252L714.635 597.986C674.489 630.014 629.865 660.522 584.211 687.87Z" fill="#202020"/>
<path d="M593.472 813.956C572.247 826.673 548.148 832.527 522.016 831.108C482.047 828.934 438.314 809.758 395.548 775.649C351.48 740.502 309.079 689.87 272.942 629.233L273.747 628.752C309.831 689.294 352.15 739.836 396.135 774.915C438.743 808.9 482.295 828.005 522.068 830.164C566.343 832.572 604.747 813.934 633.136 776.281L633.884 776.845C622.05 792.549 608.477 804.972 593.472 813.956V813.956Z" fill="#202020"/>
<path d="M634.768 795.015C634.67 795.071 634.573 795.124 634.467 795.169C622.031 800.527 550.826 698.671 457.283 541.714L458.092 541.229C565.252 721.042 624.449 798.465 634.095 794.304C634.159 794.274 634.223 794.244 634.287 794.206C635.784 793.307 636.675 789.466 633.057 776.693L633.963 776.437C637.062 787.389 637.329 793.48 634.768 795.015V795.015Z" fill="#202020"/>
<path d="M724.492 186.419C743.073 217.729 757.969 251.563 768.781 287.011C790.702 253.651 797.197 226.807 787.558 209.331C778.83 193.5 757.616 185.795 724.492 186.419ZM638.794 420.254C695.106 514.837 725.184 603.901 723.627 671.358C790.277 560.214 807.027 417.579 768.462 289.2C742.675 327.805 697.866 373.095 638.794 420.254V420.254ZM634.905 776.039C652.088 775.272 667.111 771.103 679.582 763.631C679.586 763.631 679.593 763.628 679.593 763.628C706.023 747.8 720.859 717.149 722.578 674.914C698.603 714.135 669.116 748.15 634.905 776.039V776.039ZM680.078 764.436C680.074 764.436 680.071 764.436 680.067 764.44C667.119 772.194 651.463 776.431 633.529 777.036L632.126 777.085L633.216 776.201C668.232 747.871 698.318 713.149 722.642 672.991C724.736 605.429 694.598 515.729 637.774 420.382L637.564 420.032L637.887 419.773C697.374 372.32 742.396 326.766 768.108 288.034C757.225 252.119 742.137 217.864 723.27 186.209L722.86 185.52L723.665 185.497C757.627 184.722 779.401 192.589 788.382 208.88C798.261 226.792 791.605 254.211 769.139 288.184C808.231 417.553 791.206 561.482 723.574 673.266C722.179 716.705 707.14 748.225 680.078 764.436V764.436Z" fill="#202020"/>
<path d="M712.919 725.737L712.336 725.003C766.956 681.432 796.293 641.71 788.907 621.345C785.496 611.925 774.049 607.173 755.813 607.587L755.791 606.646C774.47 606.221 786.229 611.191 789.791 621.022C797.32 641.782 767.862 681.906 712.919 725.737V725.737Z" fill="#202020"/>
<path d="M714.635 597.984L714.048 597.25C807.568 522.641 857.788 454.57 845.107 419.6C839.214 403.351 819.531 395.138 788.186 395.853L788.163 394.912C819.952 394.186 839.948 402.614 845.991 419.281C858.815 454.638 808.482 523.115 714.635 597.984V597.984Z" fill="#202020"/>
<path d="M682.849 753.25C667.502 762.441 651.083 770.395 633.679 777.005L633.344 776.124C714.943 745.135 775.069 684.453 802.642 605.251C818.58 559.475 823.19 510.002 816.35 458.203C809.264 404.58 790.232 351.483 759.781 300.388L760.59 299.906C791.108 351.11 810.178 404.328 817.278 458.079C824.142 510.024 819.516 559.645 803.529 605.559C781.744 668.133 739.703 719.19 682.849 753.25V753.25Z" fill="#202020"/>
<path d="M639.932 773.332C637.882 774.559 635.821 775.77 633.745 776.974L633.275 776.158C683.868 746.959 727.059 709.002 761.657 663.422C795.097 619.373 819.03 570.227 832.794 517.345C859.653 414.143 844.614 307.257 790.453 216.376L791.258 215.895C845.554 306.994 860.627 414.135 833.704 517.582C819.91 570.584 795.921 619.844 762.409 663.99C729.15 707.794 687.971 744.555 639.932 773.332V773.332Z" fill="#202020"/>
<path d="M210.449 430.042C266.125 523.361 340.711 610.683 420.508 675.947C500.246 741.169 575.821 776.726 633.344 776.098C712.976 711.613 766.197 614.87 783.199 503.677C800.209 392.457 778.976 279.804 723.412 186.444C682.428 187.434 626.39 201.339 561.312 226.666C497.783 251.384 428.643 285.752 361.364 326.054C306.707 358.793 255.938 393.778 210.449 430.042V430.042ZM633.682 777.031L633.517 777.035C575.753 777.735 499.893 742.095 419.914 676.677C339.932 611.262 265.185 523.715 209.433 430.17L209.219 429.817L209.538 429.561C255.144 393.184 306.06 358.086 360.883 325.245C428.203 284.921 497.395 250.526 560.973 225.786C626.293 200.368 682.552 186.437 723.664 185.496L723.939 185.492L724.078 185.729C779.86 279.319 801.186 392.292 784.128 503.824C767.081 615.307 713.694 712.298 633.806 776.929L633.682 777.031V777.031Z" fill="#202020"/>
<path d="M755.814 607.585C696.263 608.947 579.991 664.166 496.617 730.682L496.026 729.945C579.543 663.327 696.068 608.01 755.791 606.645L755.814 607.585V607.585Z" fill="#202020"/>
<path d="M788.185 395.855C686.286 398.183 487.343 492.654 344.716 606.439L344.129 605.705C486.903 491.807 686.091 397.247 788.163 394.914L788.185 395.855V395.855Z" fill="#202020"/>
<path d="M633.892 776.838L633.132 776.289C672.999 721.213 688.862 633.263 677.798 528.631C666.723 423.901 629.951 314.762 574.259 221.319L575.067 220.834C630.827 314.394 667.64 423.668 678.73 528.533C689.821 633.395 673.898 721.578 633.892 776.838V776.838Z" fill="#202020"/>
<path d="M633.959 776.432L633.061 776.696C613.746 711.266 504.675 501.385 389.918 308.841L390.726 308.359C505.517 500.96 614.633 710.939 633.959 776.432V776.432Z" fill="#202020"/>
<path d="M209.707 430.632C101.655 516.915 43.6696 595.618 58.3437 636.088C65.1806 654.937 87.9966 664.463 124.325 663.632L124.599 663.624L124.742 663.861C178.339 753.802 258.468 816.086 350.356 839.246C433.546 860.221 520.647 847.038 595.624 802.124C608.117 794.641 620.395 786.206 632.136 777.045C574.549 777.165 499.26 741.574 419.914 676.675C340.063 611.37 265.429 524.003 209.707 430.632V430.632ZM596.109 802.933C520.918 847.974 433.561 861.195 350.127 840.164C258.073 816.962 177.802 754.61 124.073 664.58C87.4588 665.366 64.4285 655.626 57.46 636.408C42.6241 595.494 100.899 516.234 209.538 429.559L209.963 429.225L210.237 429.687C265.933 523.142 340.609 610.599 420.508 675.946C500.321 741.228 575.963 776.793 633.505 776.093L634.889 776.074L633.798 776.932C621.7 786.45 609.019 795.198 596.109 802.933V802.933Z" fill="#202020"/>
<path d="M453.154 849.039C434.475 849.465 422.719 844.495 419.158 834.664C411.629 813.904 441.083 773.779 496.026 729.945L496.617 730.683C441.993 774.253 412.656 813.975 420.038 834.34C423.453 843.761 434.896 848.516 453.132 848.099L453.154 849.039Z" fill="#202020"/>
<path d="M270.6 808.776C238.811 809.503 218.815 801.075 212.772 784.412C199.948 749.051 250.281 680.574 344.128 605.705L344.715 606.439C251.195 681.052 200.975 749.118 213.656 784.088C219.549 800.341 239.232 808.554 270.573 807.836L270.6 808.776Z" fill="#202020"/>
<path d="M633.67 777.005C543.271 809.845 436.746 804.382 333.726 761.621C230.672 718.848 143.199 643.749 87.4209 550.163L88.2294 549.686C143.902 643.098 231.218 718.058 334.091 760.752C436.893 803.423 543.17 808.878 633.35 776.124L633.67 777.005Z" fill="#202020"/>
<path d="M633.743 776.973C535.142 832.301 420.915 847.959 312.1 821.067C203.225 794.159 112.54 727.782 56.75 634.177L57.5548 633.691C113.217 727.082 203.698 793.305 312.329 820.152C420.907 846.989 534.893 831.364 633.28 776.153L633.743 776.973V776.973Z" fill="#202020"/>
<path d="M124.6 663.626C165.584 662.636 221.625 648.735 286.692 623.411C350.218 598.693 419.358 564.321 486.644 524.016C541.301 491.277 592.074 456.296 637.563 420.031C581.898 326.72 507.309 239.409 427.518 174.149C347.781 108.931 272.206 73.3735 214.687 74.0056C135.055 138.491 81.8297 235.229 64.8239 346.415C47.8144 457.635 69.0434 570.28 124.6 663.626V663.626ZM487.125 524.825C419.794 565.156 350.605 599.551 287.035 624.287C221.723 649.705 165.467 663.637 124.348 664.574L124.073 664.581L123.934 664.348C68.1596 570.762 46.8366 457.804 63.8951 346.276C80.9497 234.793 134.336 137.802 214.224 73.1742L214.348 73.0688H214.514C272.274 72.3653 348.131 108.005 428.113 173.419C508.091 238.834 582.838 326.366 638.582 419.899L638.793 420.253L638.473 420.513C592.868 456.89 541.948 491.988 487.125 524.825V524.825Z" fill="#202020"/>
<path d="M373.465 334.272C256.756 404.182 133.225 453.501 59.8584 455.175L59.832 454.235C161.735 451.91 360.682 357.447 503.306 243.65L503.892 244.388C463.747 276.412 419.119 306.924 373.465 334.272V334.272Z" fill="#202020"/>
<path d="M275.722 172.72C207.443 213.619 135.17 242.472 92.2345 243.454L92.2119 242.513C151.762 241.151 268.042 185.936 351.409 119.416L351.995 120.153C328.518 138.882 302.422 156.726 275.722 172.72Z" fill="#202020"/>
<path d="M273.748 628.754L272.944 629.236C217.192 535.691 180.382 426.424 169.292 321.563C158.205 216.701 174.132 128.522 214.138 73.2656L214.898 73.8149C175.031 128.887 159.164 216.833 170.228 321.465C181.303 426.191 218.064 535.323 273.748 628.754V628.754Z" fill="#202020"/>
<path d="M458.093 541.229L457.284 541.714C342.501 349.117 233.393 139.154 214.066 73.6715L214.969 73.4082C234.28 138.826 343.34 348.692 458.093 541.229V541.229Z" fill="#202020"/>
<path d="M215.89 73.0585C273.48 72.9344 348.765 108.525 428.112 173.42C507.955 238.725 582.589 326.077 638.303 419.438C746.355 333.158 804.341 254.455 789.667 213.985C782.83 195.132 760.014 185.61 723.686 186.438L723.411 186.445L723.268 186.208C669.679 96.2829 589.561 34.0101 497.681 10.8497C414.487 -10.1211 327.378 3.06562 252.406 47.9756C239.913 55.4587 227.634 63.8937 215.89 73.0585ZM638.048 420.845L637.773 420.382C582.081 326.939 507.413 239.493 427.518 174.15C347.709 108.875 272.063 73.3106 214.524 74.0104L213.137 74.0254L214.227 73.1676C226.329 63.6529 239.01 54.9019 251.921 47.1667C327.115 2.12878 414.476 -11.0955 497.91 9.93546C589.956 33.1373 670.217 95.474 723.938 185.493C760.548 184.707 783.582 194.444 790.551 213.665C805.386 254.576 747.111 333.835 638.473 420.514L638.048 420.845V420.845Z" fill="#202020"/>
<path d="M503.894 244.386L503.308 243.649C596.828 169.043 647.048 100.973 634.367 66.0026C628.474 49.7497 608.791 41.5367 577.449 42.2553L577.427 41.3147C609.212 40.5886 629.207 49.0161 635.251 65.6829C648.075 101.044 597.738 169.517 503.894 244.386V244.386Z" fill="#202020"/>
<path d="M351.997 120.152L351.41 119.415C406.03 75.8406 435.371 36.1225 427.989 15.7575C424.574 6.34055 413.13 1.58131 394.891 1.99892L394.869 1.05836C413.548 0.633227 425.307 5.60313 428.872 15.4377C436.394 36.1978 406.944 76.3184 351.997 120.152Z" fill="#202020"/>
<path d="M760.59 299.908L759.781 300.389C704.116 206.988 616.804 132.036 513.935 89.3421C411.133 46.6782 304.856 41.2229 214.675 73.9808L214.359 73.0967C304.755 40.2597 411.272 45.7188 514.296 88.4768C617.35 131.246 704.819 206.333 760.59 299.908V299.908Z" fill="#202020"/>
<path d="M791.258 215.895L790.453 216.376C734.799 122.997 644.329 56.7852 535.702 29.9416C427.12 3.10919 313.134 18.7376 214.747 73.9449L214.288 73.1284C312.885 17.8007 427.108 2.13472 535.923 29.0273C644.799 55.9349 735.476 122.301 791.258 215.895V215.895Z" fill="#202020"/>
<path d="M360.883 325.247C428.21 284.919 497.403 250.525 560.977 225.784C625.86 200.536 681.811 186.623 722.859 185.521C669.269 95.9752 589.329 33.9544 497.677 10.858C414.48 -10.1128 327.375 3.07014 252.406 47.9764C239.526 55.6928 226.875 64.4136 214.807 73.9095L214.687 74.0036L214.536 74.0112C196.756 74.6094 181.247 78.8005 168.445 86.4717C134.761 106.649 120.042 151.299 126.988 212.202C134.155 275.032 162.846 350.07 209.963 429.228C255.456 392.967 306.229 357.986 360.883 325.247V325.247ZM724.491 186.42L723.686 186.439C682.676 187.379 626.529 201.288 561.315 226.661C497.794 251.382 428.65 285.751 361.364 326.056C306.579 358.874 255.697 393.945 210.129 430.3L209.707 430.635L209.429 430.172C113.919 269.919 96.8646 128.248 167.96 85.6666C180.867 77.9314 196.474 73.6989 214.348 73.0743C226.412 63.5935 239.052 54.8801 251.921 47.1675C327.108 2.12954 414.469 -11.0872 497.907 9.94754C590.039 33.1682 670.36 95.5952 724.077 185.727L724.491 186.42V186.42Z" fill="#202020"/>
<path d="M577.449 42.257C475.55 44.5858 276.61 139.048 133.979 252.841L133.389 252.104C276.159 138.209 475.351 43.649 577.427 41.3164L577.449 42.257V42.257Z" fill="#202020"/>
<path d="M394.89 1.99916C335.344 3.35733 219.067 58.5721 135.693 125.096L135.106 124.359C218.623 57.7369 335.144 2.42429 394.868 1.05859L394.89 1.99916Z" fill="#202020"/>
<path d="M575.069 220.835L574.26 221.32C538.184 160.786 495.869 110.251 451.888 75.1793C409.276 41.1949 365.731 22.0939 325.962 19.9306C281.68 17.5303 243.279 36.161 214.894 73.8211L214.146 73.253C242.727 35.3408 281.409 16.5672 326.014 18.9939C365.979 21.1647 409.708 40.3371 452.471 74.4419C496.546 109.585 538.936 160.21 575.069 220.835Z" fill="#202020"/>
<path d="M390.727 308.36L389.918 308.841C282.769 129.051 223.58 51.6386 213.93 55.7996C212.332 56.5069 211.204 60.1112 214.968 73.4108L214.066 73.6666C210.963 62.7109 210.7 56.6236 213.261 55.0886C213.359 55.0321 213.456 54.9795 213.558 54.9343C225.994 49.5731 297.192 151.417 390.727 308.36V308.36Z" fill="#202020"/>
<path d="M168.445 86.4696C142.015 102.301 127.172 132.948 125.453 175.183C149.427 135.962 178.911 101.955 213.126 74.0616C195.936 74.8329 180.912 79.0015 168.445 86.4696V86.4696ZM124.404 178.739C57.7535 289.883 40.996 432.51 79.5504 560.871C105.337 522.266 150.142 476.98 209.218 429.816C152.914 335.248 122.847 246.2 124.404 178.739ZM79.2308 563.057C57.3098 596.416 50.8188 623.264 60.4537 640.743C69.1822 656.571 90.3962 664.28 123.52 663.652C104.939 632.346 90.0427 598.516 79.2308 563.057V563.057ZM125.152 664.555L124.348 664.573C90.3849 665.352 68.6143 657.485 59.6338 641.195C49.7546 623.283 56.411 595.86 78.8772 561.886C39.7925 432.533 56.8209 288.615 124.457 176.831C125.852 133.396 140.895 101.876 167.96 85.6644C180.904 77.9104 196.56 73.6742 214.502 73.0684L215.905 73.0195L214.814 73.9037C179.799 102.23 149.713 136.948 125.386 177.102C123.295 244.668 153.425 334.364 210.238 429.689L210.448 430.042L210.129 430.298C150.638 477.755 105.616 523.308 79.9039 562.037C90.791 597.959 105.879 632.214 124.742 663.862L125.152 664.555V664.555Z" fill="#202020"/>
<path d="M59.8595 455.173C28.0705 455.903 8.07499 447.475 2.03158 430.809C-10.7923 395.447 39.5405 326.97 133.388 252.102L133.979 252.839C40.4506 327.448 -9.76571 395.519 2.91529 430.489C8.80826 446.738 28.4917 454.951 59.8331 454.232L59.8595 455.173Z" fill="#202020"/>
<path d="M92.2354 243.453C73.5561 243.879 61.7965 238.905 58.2351 229.078C50.71 208.318 80.1636 168.193 135.107 124.359L135.694 125.097C81.0737 168.671 51.7292 208.389 59.1189 228.754C62.5336 238.171 73.9773 242.927 92.2128 242.513L92.2354 243.453V243.453Z" fill="#202020"/>
<path d="M88.2307 549.685L87.4221 550.162C56.908 498.966 37.8414 445.756 30.7412 392.016C23.8818 340.075 28.5111 290.458 44.494 244.547C72.1613 165.077 132.483 104.181 214.352 73.0977L214.687 73.9743C133.073 104.968 72.9586 165.657 45.3853 244.856C29.4438 290.627 24.8332 340.097 31.6739 391.892C38.7552 445.508 57.7805 498.597 88.2307 549.685Z" fill="#202020"/>
<path d="M57.5546 633.693L56.7498 634.178C2.46449 543.094 -12.6045 435.968 14.3182 332.529C28.1123 279.526 52.1017 230.267 85.6168 186.117C120.294 140.436 163.564 102.429 214.281 73.1328L214.755 73.9455C164.132 103.125 120.967 141.105 86.3651 186.685C52.9252 230.733 28.9923 279.884 15.2282 332.766C-11.6305 435.961 3.40092 542.831 57.5546 633.693V633.693Z" fill="#202020"/>
<path d="M422.479 848.973C424.04 848.969 425.608 848.961 427.153 848.954C430.282 848.939 433.31 848.928 436.036 848.954C447.754 848.506 462.556 847.524 472.849 846.509C480.465 845.752 491.089 844.236 499.907 842.637C510.4 840.741 524.92 837.513 536.036 834.609C544.118 832.498 558.126 828.171 565.426 825.53C574.538 822.234 584.838 818.506 597.519 812.795C604.371 809.71 614.721 805.045 631.621 795.707C635.134 793.766 638.748 791.685 642.362 789.518C657.889 780.218 673.214 769.567 687.911 757.859C707.278 742.426 721.524 727.9 727.609 721.7C734.107 715.074 742.091 705.921 749.063 697.858C751.572 694.961 754.55 691.146 757.175 687.779C757.901 686.846 758.604 685.947 759.262 685.115C765.129 677.655 772.225 667.267 775.937 661.741C779.604 656.278 784.071 648.907 787.663 642.986L788.765 641.165C794.421 631.834 801.701 617.963 806.88 606.639C814.604 589.731 822.961 567.015 827.763 552.703C831.633 541.172 835.397 525.698 837.623 515.054C839.748 504.919 842.689 490.174 843.712 479.2C845.382 461.363 847.104 435.215 846.942 415.343C846.837 402.341 845.182 385.572 844.475 378.966C843.471 369.575 841.508 356.535 839.586 346.517C833.562 315.068 826.202 294.263 820.828 279.071C817.03 268.337 810.231 251.365 803.555 238.852C802.367 236.617 801.088 234.191 799.765 231.67C795.688 223.916 791.07 215.135 787.024 208.397C780.969 198.321 772.658 185.661 766.34 176.907C760.191 168.381 751.105 156.071 743.219 147.648C741.012 145.293 738.601 142.655 736.112 139.924C730.711 134.006 725.127 127.888 720.219 123.088C708.568 111.688 699.592 103.58 692.777 98.3057C670.789 81.2665 652.767 68.5877 639.218 60.6231C611.566 44.3701 593.285 36.9133 577.159 30.3369C565.362 25.5212 549.165 20.4798 540.56 17.9064C532.385 15.4572 520.527 12.485 510.355 10.333C494.778 7.03728 475.192 4.44507 469.559 3.73024C463.636 2.97403 456.441 2.51506 449.48 2.06359C446.352 1.86043 443.328 1.66855 440.59 1.4541C430.395 0.667788 417.21 0.97629 412.017 1.14559C399.727 1.54439 383.661 2.84987 375.177 3.59103C374.989 3.60608 355.78 5.32923 329.632 11.1532C322.291 12.786 299.971 17.7597 271.183 28.753C264.305 31.379 255.366 34.957 241.233 41.5748C231.82 45.9804 224.329 50.0662 216.405 54.3927C215.288 55.0022 211.197 57.2972 205.748 60.5628C201.212 63.2792 196.981 65.9203 193.164 68.4184C180.431 76.7367 172.545 82.6774 168.758 85.5329C154.501 96.2742 140.481 108.441 127.085 121.699C119.97 128.739 111.099 138.186 105.007 145.198C97.3498 154.013 87.8579 166.282 84.1348 171.15C82.2319 173.63 65.5985 196.76 56.1066 214.424C50.9356 224.051 43.6211 238.194 38.6044 249.01C34.7421 257.329 30.3911 268.329 27.6006 275.854C19.722 297.126 13.4981 319.142 9.10938 341.298C0.177784 386.385 -1.43928 432.221 4.30703 477.537C5.61951 487.868 8.05642 502.183 10.3692 513.15C11.7757 519.817 13.9193 527.763 15.9914 535.446C16.9391 538.948 17.8492 542.33 18.6352 545.4C21.1548 555.197 25.8669 568.787 30.6355 580.021C38.059 597.5 49.9315 622.876 60.9879 641.676C70.9349 658.595 85.5978 679.513 97.4815 693.735C105.574 703.411 113.953 712.854 119.899 718.994C127.785 727.14 138.454 737.313 146.457 744.314C154.204 751.094 164.531 759.427 172.153 765.052C179.457 770.436 189.009 776.741 197.436 782.302C199.208 783.472 200.923 784.601 202.54 785.673C211.546 791.651 224.073 798.228 230.737 801.617C238.815 805.726 249.258 810.387 258.476 814.503C260.683 815.489 262.812 816.437 264.809 817.336C275.444 822.122 290.761 827.551 302.92 830.846C319.85 835.436 344.494 841.828 363.004 844.349C368.776 845.132 375.658 845.918 382.853 846.625C341.82 840.636 301.611 826.681 264.531 805.447C264.41 805.376 264.279 805.301 264.154 805.233C261.703 803.818 259.266 802.385 256.836 800.906C204.254 768.984 158.442 722.008 124.363 665.066L123.934 664.348C68.1595 570.762 46.8365 457.804 63.8949 346.276C80.9496 234.793 134.336 137.802 214.224 73.1739L214.814 73.9038C135.107 138.385 81.8408 235.165 64.8238 346.415C47.803 457.732 69.0809 570.468 124.743 663.862L125.171 664.585C159.175 721.395 204.871 768.257 257.321 800.105C308.098 830.933 365.208 847.833 422.479 848.973V848.973ZM642.847 790.323C639.221 792.498 635.596 794.586 632.076 796.531C615.142 805.887 604.77 810.56 597.903 813.653C585.196 819.379 574.873 823.111 565.768 826.407C558.423 829.059 544.377 833.405 536.273 835.523C525.134 838.431 510.588 841.663 500.077 843.563C491.228 845.165 480.578 846.689 472.943 847.442C462.632 848.465 447.803 849.447 436.051 849.891C436.051 849.894 436.047 849.891 436.044 849.891V849.895C431.538 849.996 426.973 850.004 422.468 849.913C417.763 849.921 412.325 849.891 407.703 849.597C392.92 848.668 375.324 846.971 362.88 845.278C344.313 842.754 319.628 836.35 302.675 831.753C290.472 828.446 275.098 822.998 264.421 818.194C262.425 817.295 260.296 816.343 258.092 815.361C248.864 811.245 238.409 806.576 230.308 802.456C223.626 799.059 211.065 792.46 202.017 786.455C200.404 785.383 198.693 784.258 196.914 783.084C188.479 777.52 178.919 771.211 171.601 765.808C163.955 760.172 153.602 751.816 145.84 745.026C137.818 738.009 127.123 727.809 119.226 719.645C113.265 713.494 104.867 704.032 96.7594 694.337C84.8494 680.085 70.1489 659.111 60.1793 642.154C49.1004 623.313 37.2054 597.895 29.7705 580.389C24.9832 569.118 20.2523 555.472 17.7289 545.63C16.9429 542.567 16.0253 539.189 15.0851 535.69C13.0092 527.996 10.8619 520.039 9.45162 513.342C7.13128 502.353 4.68685 488.011 3.37438 477.654C-2.38697 432.24 -0.762392 386.302 8.18425 341.118C12.588 318.913 18.8232 296.844 26.7206 275.527C29.5148 267.991 33.8772 256.96 37.7507 248.615C42.7787 237.78 50.1008 223.623 55.2792 213.98C64.7975 196.263 81.4836 173.065 83.3865 170.575C87.1171 165.706 96.624 153.411 104.292 144.585C110.403 137.55 119.297 128.084 126.424 121.03C139.853 107.745 153.899 95.548 168.19 84.7804C171.988 81.9211 179.893 75.9655 192.649 67.6284C196.477 65.1302 200.719 62.4778 205.262 59.7577C210.73 56.4845 214.833 54.1746 215.954 53.5688C223.893 49.2347 231.392 45.1414 240.831 40.7207C254.994 34.0954 263.955 30.5062 270.852 27.8726C299.7 16.8568 322.069 11.8755 329.417 10.2352C355.633 4.39994 374.91 2.66931 375.098 2.65426C383.59 1.91309 399.674 0.607589 411.983 0.205028C417.195 0.0357267 430.421 -0.276511 440.665 0.517324C443.396 0.72801 446.416 0.92363 449.537 1.12303C456.517 1.5745 463.726 2.04099 469.679 2.7972C475.32 3.51203 494.936 6.11176 510.546 9.41501C520.745 11.567 532.629 14.5467 540.831 17.0035C549.451 19.5881 565.681 24.6333 577.516 29.4603C593.668 36.0518 611.983 43.5236 639.695 59.8141C653.279 67.7976 671.33 80.499 693.353 97.5608C700.197 102.862 709.2 110.992 720.881 122.418C725.803 127.234 731.396 133.362 736.807 139.292C739.297 142.016 741.7 144.649 743.904 147.004C751.827 155.473 760.94 167.813 767.103 176.354C773.432 185.131 781.766 197.814 787.832 207.915C791.89 214.668 796.515 223.468 800.596 231.23C801.916 233.751 803.194 236.173 804.387 238.408C811.088 250.97 817.91 267.995 821.716 278.755C827.097 293.977 834.472 314.823 840.508 346.34C842.433 356.381 844.404 369.451 845.408 378.864C846.119 385.486 847.773 402.292 847.882 415.336C848.044 435.246 846.318 461.427 844.648 479.29C843.622 490.306 840.673 505.092 838.545 515.25C836.311 525.912 832.539 541.431 828.654 553.004C823.844 567.338 815.473 590.085 807.734 607.03C802.544 618.381 795.244 632.301 789.57 641.654L788.468 643.471C784.872 649.404 780.397 656.782 776.716 662.267C773 667.805 765.885 678.212 759.999 685.695C759.345 686.53 758.645 687.425 757.916 688.358C755.283 691.733 752.297 695.559 749.774 698.475C742.794 706.545 734.799 715.714 728.278 722.358C722.186 728.569 707.91 743.122 688.498 758.592C673.771 770.33 658.408 781.004 642.847 790.323V790.323Z" fill="#202020"/>
<path d="M210.305 76.5068H210.316C211.395 76.4805 213.313 75.7355 215.205 74.6031C215.961 74.1516 216.66 73.6663 217.284 73.166C218.999 71.8003 219.345 70.9424 219.281 70.7844C219.281 70.7844 219.187 70.6942 218.796 70.7017C217.717 70.7243 215.803 71.4729 213.911 72.6016C213.155 73.0568 212.456 73.5384 211.828 74.0388C210.113 75.4082 209.767 76.2698 209.834 76.4241C209.834 76.4241 209.925 76.5144 210.305 76.5068V76.5068ZM207.792 79.7235C210.034 79.242 213.114 77.9177 216.145 76.1005C217.657 75.1938 219.059 74.2306 220.312 73.2261C223.497 70.6866 224.663 68.7415 224.396 68.0079C224.242 67.5752 223.452 67.5301 222.997 67.5376C220.797 67.5865 216.92 69.0914 213.121 71.3676C211.613 72.2705 210.21 73.2374 208.958 74.2382C205.769 76.7814 204.603 78.7265 204.87 79.4602C205.006 79.8439 205.645 79.9229 206.104 79.9304C207.172 79.0162 208.24 78.1095 209.315 77.2104C209.116 77.0787 209.007 76.9018 208.951 76.7438C208.556 75.6565 210.218 74.1253 211.245 73.3014C211.903 72.7784 212.636 72.2705 213.43 71.7965C215.479 70.57 217.525 69.7875 218.774 69.7611C219.706 69.7385 220.045 70.1298 220.165 70.4646C220.56 71.5482 218.898 73.0831 217.871 73.9071C217.213 74.43 216.48 74.9379 215.686 75.4082C213.727 76.5858 211.767 77.3496 210.508 77.4399C209.598 78.1961 208.695 78.9598 207.792 79.7235ZM216.63 76.9056C212.734 79.2419 208.868 80.7431 206.461 80.8598L206.457 80.8635L206.292 80.8673H206.277L204.976 80.8974L205.149 80.7506C204.427 80.5512 204.114 80.1449 203.987 79.7837C203.486 78.4105 205.085 76.1193 208.368 73.5045C209.658 72.4774 211.091 71.4842 212.64 70.5587C216.626 68.1697 220.586 66.6535 222.974 66.5971C224.542 66.5632 225.095 67.1727 225.28 67.6843C225.78 69.0576 224.181 71.345 220.898 73.9635C219.612 74.9906 218.176 75.9801 216.63 76.9056V76.9056Z" fill="#202020"/>
<path d="M167.618 90.5878C154.162 103.112 147.4 113.94 149.604 120.02C150.826 123.387 154.944 125.103 161.518 124.99C162.383 123.963 163.252 122.943 164.124 121.924C156.516 121.86 153.872 119.076 153.011 116.698C150.939 110.994 156.29 101.63 167.618 90.5878ZM165.121 120.976L165.147 120.972C179.468 120.644 204.453 111.009 228.804 96.4269C238.442 90.6518 247.393 84.4817 255.411 78.0859C274.361 62.9654 284.563 49.2369 282.032 42.2579C280.889 39.1089 276.997 37.5175 270.78 37.6605C256.456 37.9878 231.47 47.6229 207.12 62.2092C197.481 67.9805 188.531 74.1505 180.517 80.5464C161.563 95.6669 151.36 109.399 153.891 116.374C155.031 119.523 158.915 121.111 165.121 120.976V120.976ZM162.785 124.948C178.336 124.166 204.57 113.925 230.15 98.6015C240.511 92.3975 250.131 85.7646 258.743 78.8948C279.118 62.6381 290.084 47.875 287.357 40.358C286.128 36.957 281.935 35.2414 275.237 35.3956C269.299 35.5311 261.672 37.1526 253.03 39.9893C259.807 37.969 265.839 36.8328 270.758 36.7199C279.174 36.528 282.014 39.4513 282.916 41.9382C285.631 49.4213 275.568 63.2099 255.997 78.8233C247.946 85.2417 238.961 91.4381 229.285 97.2319C204.551 112.051 180.096 121.487 165.376 121.909C164.508 122.917 163.643 123.929 162.785 124.948V124.948ZM230.631 99.4065C204.051 115.332 177.775 125.475 161.965 125.923L160.713 125.953L160.724 125.934C152.496 125.889 149.649 122.902 148.72 120.34C145.813 112.319 156.621 97.5141 177.636 80.7495C186.286 73.8496 195.939 67.1942 206.334 60.9676C233.035 44.9743 259.427 34.8125 275.211 34.4551C284.232 34.2481 287.279 37.3783 288.245 40.0382C291.156 48.0631 280.344 62.8676 259.329 79.6322C250.68 86.5284 241.03 93.1838 230.631 99.4065V99.4065Z" fill="#202020"/>
<path d="M125.802 176.421C153.793 175.424 201.847 156.801 248.667 128.757C267.388 117.542 284.777 105.555 300.347 93.1322C337.276 63.6737 357.125 36.8452 352.146 23.1205C349.86 16.8112 342.162 13.6245 329.887 13.903C327.281 13.9631 324.513 14.1738 321.583 14.5312C322.839 14.4372 324.058 14.3807 325.242 14.3544C337.513 14.0722 345.238 17.3567 347.592 23.8465C352.53 37.4621 333.286 63.7189 297.368 92.3759C282.325 104.374 265.53 115.95 247.449 126.782C201.866 154.088 155.023 172.155 127.98 172.881C127.25 174.054 126.521 175.236 125.802 176.421ZM249.153 129.562C200.99 158.415 153.402 176.737 124.964 177.388L124.106 177.407L124.55 176.673C125.46 175.164 126.385 173.663 127.318 172.166L127.453 171.951L127.705 171.944C154.557 171.331 201.369 153.287 246.968 125.973C265.011 115.164 281.773 103.614 296.782 91.6385C332.373 63.2448 351.503 37.3907 346.708 24.1664C344.508 18.0941 337.092 15.0241 325.265 15.295C314.073 15.5508 299.151 18.8202 282.1 24.7532H282.096L279.294 25.7465H279.291L278.975 24.8586C279.919 24.52 280.855 24.1889 281.788 23.8654L282.698 23.5418L287.805 21.7999C304.525 16.1904 318.676 13.222 329.864 12.9624C342.583 12.6727 350.593 16.0737 353.03 22.8006C358.148 36.9204 338.187 64.1478 300.933 93.8696C285.33 106.319 267.907 118.328 249.153 129.562V129.562Z" fill="#202020"/>
<path d="M111.227 140.481C103.345 151.813 100.287 161.249 102.811 167.569C105.225 173.611 112.784 176.678 124.687 176.452C125.405 175.267 126.131 174.082 126.864 172.9C115.368 173.006 108 169.872 105.541 163.811C103.217 158.1 105.255 150.086 111.227 140.481V140.481ZM125.224 177.381L124.965 177.389C112.491 177.675 104.526 174.398 101.938 167.919C97.245 156.173 110.054 135.338 137.086 110.759C140.147 107.907 143.434 104.98 146.86 102.068L147.476 102.776L141.587 107.998C140.263 109.156 138.973 110.308 137.717 111.451C113.536 133.961 102.126 152.915 106.414 163.457C108.775 169.277 116.139 172.212 127.706 171.945L128.579 171.926L128.116 172.667C127.187 174.157 126.266 175.658 125.36 177.159L125.224 177.381Z" fill="#202020"/>
<path d="M96.7814 233.107C136.332 231.903 204.638 205.492 271.168 165.639C297.658 149.77 322.256 132.813 344.286 115.236C396.594 73.5126 424.693 35.4799 417.623 15.9802C414.743 8.03807 405.89 3.56104 391.882 2.88383C403.209 4.29844 410.459 8.70775 413.058 15.8748C420.105 35.3031 392.547 72.8429 341.15 113.851C319.601 131.041 295.544 147.621 269.645 163.137C204.31 202.272 137.186 228.164 98.4737 229.172C97.9021 230.481 97.3418 231.79 96.7814 233.107V233.107ZM271.649 166.444C204.581 206.621 135.663 233.164 96.0744 234.067L95.3486 234.085L95.6307 233.412C96.3264 231.779 97.0221 230.146 97.7329 228.521L97.8532 228.246L98.1541 228.239C136.663 227.359 203.791 201.489 269.159 162.328C295.025 146.835 319.049 130.277 340.563 113.114C391.637 72.3688 419.075 35.2317 412.174 16.1984C408.985 7.4023 398.29 2.95905 381.25 3.35033C378.373 3.41428 375.289 3.61743 372.085 3.95603L368.535 4.3774L368.419 3.44442C369.622 3.2864 370.807 3.14714 371.98 3.02299L374.913 2.67315C378.787 2.22544 382.491 1.9583 385.921 1.87553C403.822 1.46921 415.092 6.23599 418.507 15.6604C425.72 35.5477 397.504 73.9866 344.873 115.973C322.809 133.573 298.173 150.56 271.649 166.444V166.444Z" fill="#202020"/>
<path d="M68.0987 195.929C62.8713 206.787 61.8861 215.659 65.2895 222.017C69.3548 229.605 79.8809 233.447 95.7509 233.134C96.3075 231.818 96.8678 230.505 97.4395 229.195C81.6446 229.432 71.5134 225.636 67.324 217.897C64.3079 212.325 64.5975 204.88 68.0987 195.929V195.929ZM96.379 234.064L96.0743 234.067C79.4258 234.451 68.7906 230.542 64.4583 222.461C59.4942 213.191 63.4166 198.92 75.7968 181.2L77.6809 178.514C78.2337 177.709 78.8091 176.896 79.3957 176.072L80.1629 176.618L78.4593 179.048C67.0908 195.625 63.5257 208.902 68.1513 217.45C72.1639 224.865 82.5359 228.597 98.154 228.24L98.8911 228.221L98.594 228.898C97.8832 230.523 97.1875 232.149 96.4955 233.785L96.379 234.064V234.064Z" fill="#202020"/>
<path d="M75.8722 293.853C125.942 292.445 212.655 258.95 297.109 208.363C330.658 188.261 361.826 166.786 389.73 144.521C455.17 92.3163 490.878 44.3852 482.916 19.4302C480.272 11.142 473.011 5.74692 461.281 3.33532C470.45 6.2172 476.215 11.394 478.475 18.7944C486.094 43.7682 450.841 91.1801 386.47 142.539C358.998 164.457 328.322 185.601 295.296 205.38C211.986 255.29 126.386 288.3 77.0455 289.575C76.6431 290.997 76.2558 292.423 75.8722 293.853V293.853ZM297.59 209.168C212.655 260.045 125.389 293.661 75.2667 294.804L74.6387 294.819L74.8004 294.214C75.2667 292.464 75.7443 290.722 76.2332 288.988L76.331 288.653L76.6732 288.642C125.81 287.517 211.433 254.518 294.815 204.574C327.803 184.815 358.445 163.694 385.883 141.801C449.95 90.6948 485.079 43.6667 477.576 19.0691C474.5 8.99001 464.538 3.19612 447.965 1.86052L444.602 1.65357L444.651 0.716797C445.81 0.761944 446.934 0.833399 448.028 0.923693L450.736 1.08547C469.186 2.1088 480.314 8.18488 483.811 19.1406C491.893 44.4793 456.069 92.8017 390.321 145.255C362.375 167.546 331.177 189.048 297.59 209.168Z" fill="#202020"/>
<path d="M35.5045 257.258C32.5486 267.122 33.0676 275.162 37.0652 281.238C42.8379 290.008 55.564 294.259 74.8901 293.872C75.2737 292.446 75.6685 291.02 76.0634 289.598C56.9178 289.936 44.2443 285.632 38.3927 276.802C34.963 271.626 34.0002 265.083 35.5045 257.258ZM75.6159 294.797L75.2662 294.805C55.3948 295.26 42.2775 290.869 36.2793 281.757C30.9203 273.612 31.5446 262.167 38.1446 247.743L39.961 243.796C40.1828 243.3 40.4122 242.803 40.6529 242.299L41.5028 242.698L40.8184 244.184C34.6734 257.852 34.1206 268.653 39.1787 276.283C44.9062 284.925 57.5195 289.079 76.6726 288.642L77.3082 288.627L77.1352 289.24C76.6501 290.975 76.1725 292.717 75.7061 294.459L75.6159 294.797V294.797Z" fill="#202020"/>
<path d="M63.2816 357.347C122.64 355.759 225.607 316.011 325.882 255.947C365.674 232.109 402.637 206.635 435.735 180.228C473.714 149.934 503.991 120.276 523.302 94.467C541.97 69.5196 550.123 48.6202 546.878 34.034C544.907 25.1551 538.792 18.763 528.676 14.9706C536.258 18.9398 540.932 24.8014 542.621 32.4801C549.349 63.0672 508.181 117.379 432.493 177.763C399.76 203.873 363.218 229.058 323.874 252.628C275.557 281.571 225.897 306.252 180.265 324.01C133.591 342.174 93.3595 352.17 63.8758 352.922C63.669 354.393 63.4734 355.868 63.2816 357.347V357.347ZM326.363 256.755C277.444 286.056 227.172 311.049 180.987 329.021C133.523 347.49 92.6374 357.614 62.7551 358.295L62.2061 358.306L62.2775 357.768C62.5069 355.974 62.7476 354.183 62.9996 352.396L63.0522 352.004L63.4546 351.993C122.008 350.654 224.035 311.334 323.392 251.819C362.699 228.275 399.208 203.11 431.907 177.026C469.393 147.12 499.287 117.846 518.361 92.3677C536.803 67.7362 544.874 47.0965 541.703 32.6833C539.413 22.2732 531.376 15.313 517.819 11.9909L516.8 11.7539L516.796 11.7502L517.007 10.8359C517.349 10.9112 517.691 10.994 518.026 11.073L518.03 11.0767L522.644 12.1602C536.897 15.5801 545.359 22.8714 547.796 33.8308C554.681 64.7866 513.009 119.787 436.325 180.965C403.19 207.399 366.193 232.895 326.363 256.755V256.755Z" fill="#202020"/>
<path d="M13.6966 322.132C12.4781 330.989 14.0989 338.303 18.5328 343.946C25.8849 353.288 40.6192 357.802 62.3258 357.362C62.5176 355.891 62.7169 354.416 62.9238 352.945C41.2848 353.355 26.543 348.792 19.0969 339.375C15.4077 334.706 13.6025 328.931 13.6966 322.132ZM63.157 358.288L62.7545 358.295C40.5102 358.807 25.3847 354.176 17.7957 344.525C12.1283 337.321 10.8873 327.528 14.1102 315.421L15.34 310.865C15.4302 310.518 15.528 310.172 15.6221 309.83V309.826L16.5284 310.071L16.2501 311.102C13.2378 322.655 14.4412 331.967 19.8377 338.792C27.1522 348.047 41.8264 352.486 63.454 351.994L64.0031 351.978L63.9279 352.528C63.6797 354.311 63.439 356.098 63.2059 357.889L63.157 358.288V358.288Z" fill="#202020"/>
<path d="M59.1679 422.427C92.8786 421.558 138.913 410.117 192.345 389.327C244.644 368.973 301.566 340.681 356.961 307.498C402.062 280.481 443.953 251.606 481.469 221.677C565.479 154.657 612.75 93.6592 607.918 58.5047C606.624 49.133 601.574 41.9433 592.883 37.0862C599.156 41.8755 602.867 48.2902 603.947 56.2436C608.726 91.4169 561.744 152.17 478.28 218.762C441.061 248.446 399.513 277.088 354.779 303.886C299.84 336.795 243.377 364.861 191.498 385.046C138.432 405.7 92.6943 417.059 59.1754 417.916C59.1679 419.421 59.1641 420.922 59.1679 422.427ZM357.442 308.303C302.006 341.513 245.032 369.835 192.687 390.204C138.902 411.133 92.574 422.604 58.7091 423.379L58.2314 423.39V422.909C58.2239 421.092 58.2277 419.271 58.239 417.457L58.2427 416.998L58.6978 416.987C92.149 416.223 137.95 404.876 191.156 384.169C242.99 364.003 299.4 335.959 354.298 303.081C398.994 276.301 440.508 247.69 477.693 218.024C560.898 151.647 607.749 91.2137 603.014 56.3677C601.562 45.6792 595.18 37.8537 584.053 33.102H584.049L583.346 32.8085L583.707 31.9395C583.944 32.041 584.184 32.1389 584.417 32.2404H584.421L589.006 34.1516C600.637 39.0689 607.312 47.218 608.847 58.3806C613.724 93.8586 566.325 155.183 482.056 222.415C444.505 252.37 402.581 281.268 357.442 308.303V308.303Z" fill="#202020"/>
<path d="M2.61563 389.213C2.72845 397.136 5.20672 403.75 10.0129 408.923C18.7903 418.367 35.0063 422.915 58.2285 422.449C58.2247 420.944 58.2285 419.439 58.2398 417.938C34.9875 418.4 18.6925 413.799 9.80226 404.266C5.94005 400.123 3.537 395.082 2.61563 389.213ZM59.1724 423.367L58.7098 423.378C34.965 423.92 18.3465 419.273 9.32466 409.563C3.39408 403.186 0.893216 394.71 1.88227 384.371L2.38243 379.412C2.40499 379.156 2.43136 378.904 2.46144 378.648L3.39409 378.746V378.75L3.31887 379.502C2.3975 389.416 4.81184 397.535 10.4905 403.626C19.2491 413.02 35.4689 417.52 58.6985 416.986L59.1837 416.974L59.1799 417.46C59.1649 419.273 59.1649 421.09 59.1686 422.908L59.1724 423.367V423.367Z" fill="#202020"/>
<path d="M63.7192 487.885C100.634 486.956 151.065 474.431 209.599 451.655C266.841 429.378 329.144 398.408 389.777 362.091C439.143 332.519 484.994 300.913 526.06 268.151C615.049 197.161 666.901 131.559 664.769 92.657C664.231 82.8563 660.237 75.0045 652.881 69.267C657.958 74.7035 660.749 81.5471 661.185 89.7224C663.28 128.677 611.619 194.147 522.995 264.844C482.166 297.421 436.567 328.851 387.472 358.257C327.188 394.367 265.227 425.169 208.298 447.324C150.083 469.977 99.9043 482.441 63.1287 483.386C63.3205 484.891 63.5161 486.388 63.7192 487.885V487.885ZM390.258 362.896C329.58 399.243 267.228 430.236 209.942 452.531C151.08 475.436 100.386 487.991 63.328 488.837L62.9031 488.845L62.8504 488.431C62.5985 486.617 62.3578 484.804 62.1284 482.987L62.0645 482.471L62.5834 482.46C99.2989 481.621 149.568 469.168 207.956 446.444C264.84 424.311 326.748 393.536 386.99 357.452C436.045 328.065 481.609 296.661 522.412 264.107C610.796 193.598 662.324 128.425 660.249 89.7714C659.658 78.7931 654.709 70.2791 645.541 64.4552L645.029 64.1316L645.522 63.334H645.525L646.044 63.6613H646.052L650.399 66.3777C659.936 72.4086 665.085 81.231 665.709 92.6081C667.856 131.811 615.869 197.71 526.647 268.892C485.546 301.676 439.662 333.306 390.258 362.896V362.896Z" fill="#202020"/>
<path d="M2.41128 457.453C5.91247 478.119 26.6714 488.627 62.7738 487.908C62.5708 486.411 62.3714 484.91 62.1796 483.409C28.7548 484.093 8.33058 475.162 2.41128 457.453ZM63.8494 488.826L63.3267 488.837C24.1969 489.729 2.65946 477.618 1.03861 453.807L0.715202 448.694L0.673828 448.058L1.61021 448.002L1.65537 448.634C3.28374 471.636 24.3548 483.333 62.5821 482.46L63.007 482.449L63.0597 482.871C63.2891 484.684 63.526 486.494 63.7817 488.303L63.8494 488.826V488.826Z" fill="#202020"/>
<path d="M77.1366 552.559C116.383 551.589 170.025 538.27 232.291 514.041C293.135 490.366 359.364 457.446 423.811 418.841C476.283 387.412 525.022 353.815 568.668 318.995C659.864 246.241 715 177.926 716.165 136.244C716.447 126.067 713.522 117.647 707.456 111.172C711.416 117.116 713.296 124.31 713.063 132.655C712.488 152.922 699.175 179.961 674.572 210.842C649.192 242.693 611.585 278.833 565.806 315.349C522.299 350.056 473.722 383.54 421.426 414.868C357.198 453.337 291.194 486.152 230.542 509.752C168.544 533.876 115.101 547.157 75.9294 548.173C76.328 549.64 76.7304 551.1 77.1366 552.559V552.559ZM424.292 419.647C359.8 458.281 293.526 491.223 232.633 514.918C170.07 539.267 116.18 552.608 76.7981 553.511L76.4334 553.519L76.3318 553.165C75.8354 551.393 75.3465 549.617 74.8689 547.841L74.7109 547.262L75.3089 547.247C114.424 546.355 167.987 533.086 230.2 508.876C290.803 485.29 356.762 452.506 420.941 414.06C473.203 382.754 521.746 349.296 565.219 314.616C656.025 242.174 710.946 174.141 712.119 132.628C712.439 121.372 708.821 112.274 701.352 105.589H701.348L700.969 105.25L701.585 104.543L701.976 104.885C701.976 104.885 701.98 104.889 701.984 104.889L705.948 108.392C713.676 115.295 717.429 124.675 717.106 136.27C716.534 156.616 703.18 183.768 678.472 214.777C652.99 246.764 615.225 283.054 569.255 319.729C525.574 354.575 476.802 388.194 424.292 419.647V419.647Z" fill="#202020"/>
<path d="M13.3108 525.382C19.4933 543.885 41.121 553.272 76.1704 552.583C75.7605 551.124 75.3581 549.664 74.9633 548.2C42.6779 548.874 21.6106 541.022 13.3108 525.382ZM77.4002 553.498L76.7985 553.513C39.1203 554.371 16.5675 543.727 11.5808 522.73L10.2646 517.057L11.186 516.85L11.3026 517.38C16.1915 537.768 38.3268 548.095 75.3092 547.249L75.6816 547.245L75.7756 547.598C76.2532 549.374 76.7383 551.143 77.2385 552.915L77.4002 553.498V553.498Z" fill="#202020"/>
<path d="M99.5867 615.141C140.21 614.148 195.747 600.367 260.228 575.277C323.196 550.773 391.735 516.702 458.434 476.747C512.746 444.215 563.188 409.448 608.361 373.409C700.245 300.105 755.768 232.844 760.694 188.867C761.864 178.4 760.048 169.521 755.29 162.433C763.425 180.364 756.291 206.832 734.306 239.695C708.733 277.931 664.286 322.814 605.773 369.493C560.653 405.49 510.267 440.219 456.027 472.714C389.411 512.616 320.951 546.642 258.046 571.119C193.78 596.131 138.386 609.897 97.7628 610.969C98.3645 612.361 98.97 613.753 99.5867 615.141V615.141ZM458.919 477.556C392.175 517.533 323.584 551.631 260.566 576.153C195.822 601.349 140.055 615.156 99.2934 616.089L98.9775 616.097L98.8534 615.811C98.1012 614.11 97.3566 612.406 96.6271 610.702L96.3525 610.059L97.0445 610.043C137.622 609.118 193.175 595.356 257.704 570.243C320.564 545.784 388.974 511.781 455.542 471.905C509.752 439.433 560.096 404.73 605.187 368.755C663.624 322.141 708.004 277.329 733.527 239.172C758.314 202.114 764.109 173.366 750.277 156.041L749.98 155.673L750.706 155.078H750.71L754.444 159.691C760.533 167.309 762.951 177.159 761.627 188.976C756.674 233.194 701.024 300.685 608.947 374.143C563.737 410.208 513.265 445.001 458.919 477.556Z" fill="#202020"/>
<path d="M35.5883 591.761C43.9144 607.721 65.5985 615.794 98.5683 615.159C97.9554 613.774 97.3499 612.386 96.7519 610.99C66.5725 611.63 45.6669 605.016 35.5883 591.761ZM99.9974 616.073L99.2941 616.088C63.9551 616.893 41.2557 607.815 33.6403 589.831L31.3613 584.346L32.2301 583.992L32.4105 584.421C39.8567 601.98 62.2102 610.84 97.0453 610.042L97.3649 610.038L97.4927 610.328C98.2223 612.032 98.9632 613.733 99.7116 615.426L99.9974 616.073V616.073Z" fill="#202020"/>
<path d="M131.214 674.393C172.183 673.399 228.195 659.502 293.239 634.193C356.731 609.486 425.841 575.133 493.093 534.847C547.856 502.044 598.715 466.991 644.264 430.651C700.844 385.512 744.592 341.832 770.781 304.33C795.158 269.413 803.484 241.233 795 222.557C800.125 241.388 791.205 267.908 768.807 299.988C742.561 337.588 698.73 381.355 642.053 426.573C596.455 462.947 545.547 498.037 490.735 530.874C423.419 571.194 354.241 605.581 290.674 630.318C225.795 655.566 169.859 669.479 128.826 670.581C129.612 671.861 130.413 673.129 131.214 674.393V674.393ZM493.578 535.656C426.281 575.965 357.122 610.344 293.581 635.069C228.296 660.476 172.07 674.4 130.97 675.337L130.703 675.344L130.56 675.119C129.567 673.55 128.574 671.97 127.593 670.382L127.164 669.682L127.98 669.663C168.983 668.723 225.122 654.818 290.328 629.445C353.85 604.723 422.982 570.359 490.25 530.065C545.028 497.255 595.906 462.187 641.466 425.839C698.076 380.677 741.842 336.971 768.036 299.45C793.443 263.066 801.408 233.983 791.085 215.36L790.87 214.98L791.686 214.518L794.669 219.804C805.161 238.765 797.166 268.179 771.548 304.868C745.31 342.445 701.498 386.193 644.851 431.389C599.268 467.751 548.375 502.83 493.578 535.656V535.656Z" fill="#202020"/>
<path d="M69.6824 655.473C79.6482 668.611 99.9558 674.98 130.116 674.416C129.319 673.156 128.522 671.884 127.736 670.609C100.306 671.199 80.8365 666.113 69.6824 655.473V655.473ZM131.801 675.319L130.97 675.338C98.3913 676.083 77.0006 668.844 67.3846 653.825L64.1504 648.69L64.9477 648.189L65.1808 648.562C74.6051 663.302 95.7363 670.398 127.98 669.664L128.255 669.657L128.394 669.886C129.372 671.474 130.361 673.05 131.354 674.616L131.801 675.319V675.319Z" fill="#202020"/>
<path d="M170.191 726.542C210.422 725.579 265.452 711.929 329.346 687.068C391.694 662.802 459.563 629.065 525.612 589.505C579.382 557.293 629.328 522.868 674.057 487.184C777.355 404.775 834.247 329.263 824.074 288.593C828.508 330.79 771.883 403.925 672.414 483.278C627.537 519.076 577.434 553.61 523.487 585.924C457.239 625.608 389.152 659.453 326.59 683.799C262.835 708.611 207.854 722.298 167.479 723.427C168.382 724.472 169.281 725.511 170.191 726.542V726.542ZM526.093 590.311C460.003 629.901 392.089 663.659 329.688 687.945C265.576 712.892 210.355 726.564 169.995 727.49L169.777 727.494L169.63 727.328C168.457 725.992 167.287 724.642 166.122 723.287L165.479 722.531L166.468 722.509C206.823 721.587 262.071 707.9 326.247 682.926C388.765 658.599 456.799 624.777 523.006 585.119C576.915 552.827 626.985 518.316 671.827 482.541C778.051 397.8 835.326 320.335 821.306 280.373L821.141 279.91L822.024 279.594L824.04 285.211C838.165 325.463 780.92 403.135 674.644 487.921C629.88 523.632 579.901 558.079 526.093 590.311V590.311Z" fill="#202020"/>
<path d="M113.903 712.419C124.688 722.268 143.183 727.024 168.959 726.569C168.06 725.538 167.162 724.496 166.266 723.457C142.905 723.961 125.347 720.256 113.903 712.419V712.419ZM170.997 727.464L169.993 727.49C141.469 728.141 121.593 722.513 110.921 710.763L107.25 706.663L106.953 706.331L107.653 705.703L107.946 706.03C118.453 717.614 138.14 723.156 166.466 722.509L166.691 722.505L166.834 722.675C167.996 724.029 169.162 725.372 170.336 726.708L170.997 727.464V727.464Z" fill="#202020"/>
<path d="M214.657 769.752C253.155 768.834 305.812 755.775 366.961 731.982C426.616 708.769 491.548 676.489 554.735 638.637C606.185 607.821 653.971 574.886 696.764 540.743C745.141 502.147 783.921 464.298 808.915 431.281C831.204 401.837 842.321 376.608 841.332 357.891C839.094 399.407 785.956 465.164 695.73 537.151C652.704 571.474 604.658 604.589 552.933 635.575C489.408 673.626 424.119 706.076 364.129 729.424C303.146 753.156 250.534 766.275 211.852 767.412C212.784 768.194 213.717 768.977 214.657 769.752V769.752ZM555.216 639.446C491.984 677.321 427.003 709.623 367.299 732.859C305.959 756.727 253.121 769.812 214.507 770.696H214.33L214.194 770.587C212.889 769.511 211.592 768.427 210.298 767.333L209.354 766.527L210.588 766.501C249.282 765.617 302.254 752.494 363.787 728.548C423.732 705.222 488.968 672.791 552.448 634.766C604.139 603.803 652.147 570.71 695.143 536.413C743.765 497.624 782.733 459.58 807.847 426.401C832.133 394.309 843.205 367.21 839.873 348.03L839.783 347.548L840.708 347.375L841.746 353.116C848.707 393.38 794.726 463.79 697.351 541.477C654.524 575.646 606.703 608.607 555.216 639.446V639.446Z" fill="#202020"/>
<path d="M166.377 760.379C176.993 766.951 192.716 770.108 213.216 769.777C212.287 769.006 211.358 768.227 210.433 767.444C191.915 767.851 177.155 765.477 166.377 760.379ZM215.766 770.661L214.506 770.695C190.674 771.237 173.074 767.17 162.195 758.603L157.998 755.247C157.994 755.247 157.994 755.243 157.994 755.243L157.667 754.984L158.257 754.254L158.577 754.506C169.325 763.009 186.827 767.042 210.587 766.5L210.768 766.496L210.903 766.613C212.197 767.704 213.494 768.788 214.792 769.86L215.766 770.661V770.661Z" fill="#202020"/>
<path d="M263.594 803.828C299.43 802.985 348.462 790.825 405.398 768.669C460.932 747.059 521.377 717.014 580.202 681.776C628.098 653.086 672.587 622.423 712.427 590.64C792.575 526.7 841.971 466.839 846.687 428.475C838.462 467.456 789.457 525.564 711.976 587.378C671.823 619.413 626.988 650.317 578.716 679.233C519.433 714.745 458.51 745.024 402.525 766.811C345.863 788.862 296.948 801.093 260.89 802.244C261.789 802.778 262.692 803.305 263.594 803.828V803.828ZM580.683 682.585C521.814 717.849 461.319 747.917 405.737 769.55C348.631 791.77 299.441 803.952 263.485 804.772L263.354 804.776L263.241 804.708C261.827 803.888 260.417 803.06 259.01 802.221L257.607 801.386L259.24 801.348C295.338 800.521 344.769 788.278 402.187 765.934C458.119 744.17 518.993 713.91 578.231 678.424C626.469 649.53 671.267 618.653 711.393 586.644C796.629 518.645 847.311 455.251 846.976 417.068L846.969 416.519L847.909 416.504L847.999 422.332C848.259 460.545 797.798 523.739 713.01 591.377C673.139 623.183 628.617 653.872 580.683 682.585V682.585Z" fill="#202020"/>
<path d="M226.059 798.735C235.265 802.328 247.243 804.051 261.785 803.863C260.898 803.34 260.01 802.817 259.126 802.29C246.103 802.576 235.036 801.384 226.059 798.735ZM265.158 804.736L263.485 804.77C244.84 805.195 230.218 802.573 220.034 796.974L215.014 794.16L215.476 793.344H215.48L215.834 793.543C225.953 799.149 240.556 801.771 259.239 801.346L259.375 801.342L259.491 801.414C260.894 802.249 262.3 803.077 263.711 803.893L265.158 804.736V804.736Z" fill="#202020"/>
<path d="M315.958 828.552C348.299 827.792 392.555 816.821 443.956 796.825C494.074 777.318 548.63 750.199 601.72 718.401C644.945 692.505 685.094 664.834 721.05 636.147C786.414 584.002 828.895 535.375 839.789 500.672C826.552 535.537 784.462 582.802 721.189 633.276C684.842 662.276 644.261 690.248 600.565 716.418C546.908 748.559 491.769 775.971 441.094 795.685C390.269 815.467 346.321 826.52 313.765 827.728C314.495 828.006 315.224 828.277 315.958 828.552V828.552ZM602.201 719.206C549.067 751.035 494.465 778.175 444.298 797.698C392.751 817.754 348.348 828.751 315.89 829.493L315.713 829.462C314.22 828.909 312.727 828.341 311.238 827.766L309.034 826.912L311.4 826.855C344.065 826.11 388.798 815.027 440.759 794.812C491.378 775.113 546.472 747.724 600.084 715.613C643.742 689.462 684.289 661.512 720.602 632.539C792.721 575.006 837.24 521.733 842.738 486.383L842.839 485.717L843.768 485.848L843.667 486.526V486.533L842.899 491.688C837.33 526.925 793.131 579.845 721.637 636.884C685.651 665.594 645.464 693.292 602.201 719.206V719.206Z" fill="#202020"/>
<path d="M292.574 826.903C298.662 828.077 305.623 828.641 313.386 828.588C312.697 828.329 312.013 828.065 311.328 827.798C304.484 827.949 298.222 827.648 292.574 826.903ZM318.35 829.435L315.89 829.491C302.826 829.788 291.886 828.423 283.379 825.424L277.96 823.464L278.28 822.58L278.663 822.719C287.185 825.767 298.204 827.159 311.4 826.854L311.58 826.888C313.062 827.463 314.551 828.028 316.044 828.581L318.35 829.435V829.435Z" fill="#202020"/>
<path d="M370.194 843.6C370.39 843.638 370.589 843.671 370.788 843.709C426.623 842.422 524.092 804.864 619 748.012C656.551 725.522 691.423 701.481 722.656 676.564C770.506 638.392 804.093 602.662 819.249 574.102C802.886 602.451 769.72 637.176 723.378 674.152C691.686 699.43 656.306 723.817 618.21 746.639C524.171 802.968 427.605 840.639 370.194 843.6V843.6ZM619.482 748.818C524.442 805.748 426.796 843.363 370.717 844.642C369.07 844.349 367.528 844.051 365.982 843.743L361.812 842.908L366.065 842.814C422.753 841.516 521.539 803.449 617.729 745.83C655.787 723.031 691.134 698.671 722.791 673.415C779.837 627.906 816.857 585.856 827.037 555.005L827.3 554.17L828.199 554.46L827.928 555.299L826.322 560.272C816.097 590.867 779.494 632.425 723.242 677.301C691.98 702.241 657.066 726.304 619.482 748.818V748.818Z" fill="#202020"/>
<path d="M375.282 844.537L370.717 844.643C363.56 844.804 357.096 844.394 351.488 843.416L345.742 842.355L345.911 841.43L346.303 841.501C352.034 842.54 358.683 842.984 366.065 842.814C367.704 843.13 369.246 843.428 370.788 843.71L375.282 844.537V844.537Z" fill="#202020"/>
<path d="M452.631 846.066C499.752 837.187 566.459 809.151 631.703 770.069C662.687 751.509 691.472 731.671 717.247 711.107C743.67 690.027 765.233 669.368 780.269 650.896C765.072 668.947 744.027 688.879 718.548 709.207C692.261 730.177 662.913 750.411 631.308 769.339C566.625 808.086 500.493 836.194 452.631 846.066V846.066ZM632.185 770.877C553.737 817.868 473.131 848.914 426.837 849.975C425.25 849.96 423.681 849.941 422.113 849.907V848.967C469.122 847.895 551.048 816.322 630.827 768.53C662.39 749.625 691.708 729.417 717.965 708.469C757.517 676.915 786.346 646.324 799.136 622.336V622.333L799.775 621.121L800.606 621.558C800.396 621.96 800.185 622.366 799.967 622.776L797.515 627.457C784.593 651.385 757.043 680.561 717.834 711.844C692.024 732.431 663.21 752.292 632.185 770.877V770.877Z" fill="#202020"/>
<path d="M426.833 849.973C425.957 849.991 425.092 849.999 424.242 849.999L418.511 849.931H418.499L418.18 849.924L418.195 848.984L418.511 848.987C419.676 848.999 420.884 848.995 422.113 848.965C423.697 848.999 425.261 849.017 426.825 849.029L426.833 849.973Z" fill="#202020"/>
<path d="M610.96 800.232C620.479 795.172 630.046 789.77 639.557 784.07C648.725 778.581 657.642 772.941 666.265 767.185C657.638 772.922 648.733 778.551 639.579 784.032C630.057 789.736 620.482 795.15 610.96 800.232V800.232ZM640.042 784.879C590.465 814.574 539.214 836.32 502.95 843.047L497.606 843.984L495.557 844.333L495.406 843.408L497.448 843.058C534.683 836.414 587.637 814.047 639.098 783.223C663.384 768.675 685.944 753.125 706.143 737.012C727.056 720.33 743.686 704.449 755.573 689.807L757.649 687.203L758.386 687.786C757.713 688.648 757.018 689.521 756.303 690.401L752.727 694.889C741.163 708.885 725.251 723.994 705.432 739.807C685.726 755.526 663.726 770.691 640.042 784.879Z" fill="#202020"/>
<path d="M642.748 790.312C632.155 796.659 621.358 802.513 610.666 807.713L604.946 810.418C602.043 811.787 599.121 813.119 596.266 814.379H596.263L595.883 813.522C598.365 812.419 601.452 810.997 604.224 809.714L604.555 809.564C617.082 803.653 629.763 796.87 642.244 789.39C653.839 782.445 664.982 775.068 675.357 767.46C677.96 765.523 680.716 763.431 683.082 761.633L683.969 760.963L684.541 761.708C681.75 763.879 678.847 766.072 675.918 768.217C674.56 769.232 673.244 770.207 672.044 771.072C662.797 777.735 652.944 784.206 642.748 790.312V790.312Z" fill="#202020"/>
</g>
<defs>
<clipPath id="clip0_2402_1904">
<rect width="848" height="850" fill="white"/>
</clipPath>
</defs>
</svg>
