<svg width="1387" height="1767" viewBox="0 0 1387 1767" fill="none" xmlns="http://www.w3.org/2000/svg">
<path opacity="0.025641" fill-rule="evenodd" clip-rule="evenodd" d="M854.509 1666.59C770.81 1691.33 710.986 1422.12 626.07 1330.35C548.223 1246.22 447.233 1287.42 386.469 1160.77C324.788 1032.2 325.191 857.804 328.005 709.073C330.712 565.978 359.845 444.72 402.005 339.687C446.913 227.806 496.129 110.827 576.509 89.9694C658.341 68.7349 755.263 121.333 832.848 227.889C904.678 326.54 926.906 491.834 971.376 632.279C1012.18 761.156 1090.01 886.427 1082.17 1015.3C1074.31 1144.44 970.053 1137.36 934.458 1239.19C890.344 1365.39 940.257 1641.24 854.509 1666.59Z" stroke="#F05555" stroke-width="5"/>
<path opacity="0.0512821" fill-rule="evenodd" clip-rule="evenodd" d="M784.077 1662.19C699.353 1679.29 663.76 1410.73 587.972 1313.69C518.494 1224.74 415.279 1256.49 366.354 1127.37C316.69 996.301 332.263 825.642 347.98 680.311C363.102 540.487 402.394 424.28 453.125 325.06C507.163 219.37 565.895 109.057 647.007 95.4693C729.585 81.6359 820.624 141.348 887.893 252.227C950.172 354.883 957.718 518.552 989.368 659.788C1018.41 789.392 1084.29 918.61 1065.34 1044.08C1046.35 1169.81 944.114 1154.02 900.138 1250.67C845.637 1370.44 870.876 1644.66 784.077 1662.19Z" stroke="#F05555" stroke-width="5"/>
<path opacity="0.0769231" fill-rule="evenodd" clip-rule="evenodd" d="M715.403 1651.59C630.341 1661.07 618.407 1395.28 552.013 1293.87C491.147 1200.9 386.578 1223.13 349.456 1092.62C311.772 960.142 341.866 794.518 369.916 653.684C396.903 518.187 445.697 407.864 504.31 315.138C566.745 216.366 634.208 113.473 715.403 107.122C798.065 100.657 882.727 166.866 939.521 281.098C992.103 386.857 985.421 547.622 1004.45 688.503C1021.92 817.782 1075.76 949.836 1046.24 1070.96C1016.65 1192.34 917.15 1168.15 865.424 1258.93C801.317 1371.44 802.548 1641.87 715.403 1651.59Z" stroke="#F05555" stroke-width="5"/>
<path opacity="0.102564" fill-rule="evenodd" clip-rule="evenodd" d="M649.023 1635.08C564.3 1637.01 575.27 1376.04 518.451 1271.13C466.364 1174.96 361.308 1187.67 335.854 1056.83C310.017 924.017 353.874 764.637 393.595 629.325C431.81 499.141 489.383 395.458 555.137 309.832C625.178 218.623 700.532 123.817 781.171 124.614C863.268 125.425 941.119 197.483 987.37 314.102C1030.19 422.071 1009.84 578.719 1016.57 718.141C1022.74 846.081 1064.55 979.874 1025.06 1095.78C985.492 1211.94 889.404 1179.69 830.61 1264.01C757.745 1368.51 735.819 1633.1 649.023 1635.08Z" stroke="#F05555" stroke-width="5"/>
<path opacity="0.128205" fill-rule="evenodd" clip-rule="evenodd" d="M585.435 1612.98C501.714 1607.49 534.657 1353.28 487.516 1245.75C444.299 1147.18 339.61 1150.47 325.6 1020.32C311.378 888.21 368.144 736.189 418.79 607.342C467.517 483.378 533.087 387.01 605.196 309.011C682.006 225.926 764.36 139.787 843.823 147.585C924.721 155.525 995.391 232.758 1031.12 350.811C1064.2 460.108 1030.85 611.504 1025.66 748.413C1020.9 874.047 1050.79 1008.51 1002.02 1118.4C953.147 1228.53 861.116 1188.63 795.982 1265.96C715.26 1361.8 671.205 1618.6 585.435 1612.98Z" stroke="#F05555" stroke-width="5"/>
<path opacity="0.153846" fill-rule="evenodd" clip-rule="evenodd" d="M525.098 1585.66C443.021 1572.95 496.85 1327.3 459.405 1218.03C425.078 1117.86 321.594 1111.89 318.712 983.414C315.787 852.999 384.519 709.352 445.271 587.826C503.721 470.904 576.459 382.443 654.099 312.515C736.802 238.027 825.228 161.04 902.912 175.641C982 190.506 1045.18 272.222 1070.49 390.779C1093.92 500.542 1048.33 645.633 1031.71 779.033C1016.47 901.447 1034.64 1035.53 977.335 1138.69C919.903 1242.07 832.523 1194.99 761.816 1264.87C674.185 1351.48 609.184 1598.69 525.098 1585.66Z" stroke="#F05555" stroke-width="5"/>
<path opacity="0.179487" fill-rule="evenodd" clip-rule="evenodd" d="M468.429 1553.54C388.612 1533.84 462.094 1298.42 434.29 1188.27C408.801 1087.3 307.33 1072.29 315.181 946.42C323.151 818.648 402.83 684.283 472.804 570.84C540.127 461.695 619.161 381.642 701.482 320.144C789.172 254.636 882.708 187.191 958.04 208.345C1034.73 229.881 1090.19 315.373 1105.26 433.532C1119.22 542.928 1062.22 680.753 1034.75 809.714C1009.54 928.054 1016.29 1060.76 951.234 1156.56C886.041 1252.55 803.86 1198.78 728.373 1260.85C634.819 1337.77 550.199 1573.72 468.429 1553.54Z" stroke="#F05555" stroke-width="5"/>
<path opacity="0.205128" fill-rule="evenodd" clip-rule="evenodd" d="M415.797 1517.05C338.827 1490.67 430.599 1267 412.305 1156.8C395.535 1055.78 296.854 1032.05 314.966 909.656C333.352 785.416 422.892 661.127 501.151 556.431C576.445 455.703 660.87 384.47 747.004 331.675C838.753 275.437 936.42 217.827 1008.85 245.237C1082.59 273.141 1130.15 361.695 1135.25 478.591C1139.97 586.817 1072.48 716.515 1034.79 840.177C1000.2 953.655 995.909 1084.04 923.95 1171.91C851.838 1259.97 775.35 1200.05 695.9 1254.01C597.434 1320.89 494.651 1544.08 415.797 1517.05Z" stroke="#F05555" stroke-width="5"/>
<path opacity="0.230769" fill-rule="evenodd" clip-rule="evenodd" d="M367.524 1476.66C293.952 1443.93 402.54 1233.38 393.555 1123.94C385.318 1023.6 290.169 991.523 318 873.424C346.252 753.539 444.515 640.003 530.077 544.619C612.397 452.85 701.288 390.754 790.352 346.849C885.223 300.081 986.028 252.502 1055.05 285.824C1125.32 319.749 1164.87 410.648 1160.32 525.458C1156.11 631.752 1079.1 752.561 1031.91 870.145C988.596 978.045 973.705 1105.2 895.719 1184.7C817.566 1264.36 747.212 1198.87 664.628 1244.52C562.279 1301.09 442.896 1510.19 367.524 1476.66Z" stroke="#F05555" stroke-width="5"/>
<path opacity="0.25641" fill-rule="evenodd" clip-rule="evenodd" d="M323.881 1432.85C254.222 1394.17 378.056 1197.94 378.111 1090.02C378.162 991.08 287.241 951.081 324.188 838.019C361.693 723.248 467.5 621.02 559.348 535.408C647.716 453.04 740.134 400.308 831.244 365.392C928.295 328.2 1031.24 290.751 1096.39 329.602C1162.7 369.156 1194.2 461.691 1180.4 573.639C1167.63 677.283 1082.12 788.55 1026.18 899.357C974.852 1001.04 949.889 1124.14 866.777 1194.88C783.489 1265.78 719.652 1195.32 634.77 1232.53C529.572 1278.64 395.246 1472.48 323.881 1432.85Z" stroke="#F05555" stroke-width="5"/>
<path opacity="0.282051" fill-rule="evenodd" clip-rule="evenodd" d="M285.087 1386.14C219.812 1341.94 357.243 1161.04 366.01 1055.37C374.046 958.499 288 911.074 333.405 803.722C379.495 694.749 491.638 604.262 588.734 528.777C682.15 456.153 777.151 412.914 869.429 387.003C967.724 359.402 1071.83 332.086 1132.66 376.046C1194.58 420.801 1218.03 514.27 1195.45 622.633C1174.55 722.959 1081.61 824.141 1017.74 927.558C959.125 1022.46 924.677 1140.73 837.359 1202.45C749.857 1264.3 692.864 1189.51 606.515 1218.23C499.5 1253.83 351.96 1431.43 285.087 1386.14Z" stroke="#F05555" stroke-width="5"/>
<path opacity="0.307692" fill-rule="evenodd" clip-rule="evenodd" d="M251.31 1337.04C190.845 1287.78 340.167 1123.06 357.257 1020.33C372.925 926.151 292.349 871.842 345.506 770.8C399.467 668.231 516.72 589.795 618.011 524.687C715.463 462.046 812.108 428.341 904.69 411.365C1003.31 393.282 1107.61 376.007 1163.73 424.623C1220.86 474.117 1236.35 567.834 1205.49 671.948C1176.93 768.34 1077.64 859.004 1006.69 954.508C941.585 1042.15 898.296 1154.88 807.701 1207.4C716.913 1260.02 667.029 1181.56 580.037 1201.83C472.224 1226.95 313.254 1387.5 251.31 1337.04Z" stroke="#F05555" stroke-width="5"/>
<path opacity="0.333333" fill-rule="evenodd" clip-rule="evenodd" d="M222.664 1286.07C167.39 1232.25 326.852 1084.39 351.827 985.227C374.723 894.319 300.155 833.714 360.322 739.501C421.398 643.864 542.533 577.667 646.965 523.08C747.438 470.562 844.802 446.339 936.845 438.148C1034.89 429.422 1138.43 422.008 1189.5 474.797C1241.49 528.54 1249.15 621.839 1210.58 721.101C1174.88 813 1070.36 892.827 993.21 979.986C922.412 1059.97 870.974 1166.55 778.028 1209.76C684.885 1253.07 642.316 1171.58 555.484 1183.51C447.87 1198.3 279.291 1341.2 222.664 1286.07Z" stroke="#F05555" stroke-width="5"/>
<path opacity="0.358974" fill-rule="evenodd" clip-rule="evenodd" d="M199.211 1233.76C149.456 1175.91 317.285 1045.39 349.661 950.375C379.342 863.27 311.258 797.001 377.661 710.055C445.067 621.796 568.861 567.905 675.387 523.88C777.876 481.523 875.054 466.645 965.744 467.01C1062.35 467.399 1164.22 469.577 1209.95 526.033C1256.5 583.509 1256.51 675.749 1210.83 769.62C1168.54 856.527 1059.91 925.309 977.46 1003.78C901.799 1075.79 842.943 1175.67 748.564 1209.59C653.984 1243.58 618.875 1159.74 532.983 1163.52C426.534 1168.2 250.184 1293.02 199.211 1233.76Z" stroke="#F05555" stroke-width="5"/>
<path opacity="0.384615" fill-rule="evenodd" clip-rule="evenodd" d="M180.961 1180.62C137.002 1119.29 311.418 1006.43 350.671 916.084C386.656 833.262 325.47 761.992 397.312 682.672C470.24 602.153 595.492 560.516 703.083 526.992C806.596 494.739 902.716 488.984 991.275 497.604C1085.61 506.786 1184.95 518.204 1225.08 577.802C1265.94 638.476 1258.55 729.046 1206.39 817.053C1158.1 898.532 1046.47 956.172 959.633 1025.71C879.945 1089.52 814.437 1182.23 719.522 1206.93C624.406 1231.69 596.84 1146.17 512.635 1142.06C408.277 1136.96 225.995 1243.46 180.961 1180.62Z" stroke="#F05555" stroke-width="5"/>
<path opacity="0.410256" fill-rule="evenodd" clip-rule="evenodd" d="M167.874 1127.18C129.936 1062.93 309.171 967.855 354.742 882.648C396.519 804.534 342.577 728.957 419.05 657.536C496.679 585.037 622.215 555.488 729.868 532.309C833.443 510.009 927.67 513.073 1013.36 529.576C1104.64 547.155 1200.62 567.386 1234.97 629.585C1269.94 692.908 1255.43 781.228 1197.46 862.969C1143.79 938.648 1030.25 985.155 939.934 1045.61C857.058 1101.08 785.685 1186.22 691.107 1201.89C596.328 1217.58 576.33 1131.06 494.522 1119.38C393.134 1104.9 206.74 1193 167.874 1127.18Z" stroke="#F05555" stroke-width="5"/>
<path opacity="0.435897" fill-rule="evenodd" clip-rule="evenodd" d="M159.859 1073.92C128.113 1007.33 310.426 930.014 361.729 850.346C408.761 777.311 362.343 698.14 442.632 634.813C524.134 570.53 648.822 552.794 755.573 539.709C858.278 527.12 949.822 538.627 1031.96 562.578C1119.46 588.09 1211.32 616.633 1239.73 680.884C1268.66 746.296 1247.36 831.824 1184.26 906.967C1125.84 976.536 1011.46 1012.03 918.581 1063.32C833.348 1110.39 756.914 1187.67 663.511 1194.54C569.909 1201.43 557.444 1114.56 478.698 1095.7C381.105 1072.33 192.383 1142.15 159.859 1073.92Z" stroke="#F05555" stroke-width="5"/>
<path opacity="0.461538" fill-rule="evenodd" clip-rule="evenodd" d="M156.783 1021.34C131.344 952.991 315.038 893.225 371.467 819.437C423.198 751.793 384.513 669.759 467.805 614.639C552.356 558.686 675.114 552.384 780.041 549.055C880.992 545.852 969.113 565.355 1047.07 596.26C1130.1 629.179 1217.14 665.47 1239.53 731.217C1262.32 798.152 1234.61 880.387 1167.07 948.668C1104.54 1011.88 990.365 1036.57 895.805 1078.73C809.033 1117.41 728.35 1186.61 636.916 1185.02C545.288 1183.43 540.267 1096.85 465.198 1071.26C372.162 1039.54 182.845 1091.36 156.783 1021.34Z" stroke="#F05555" stroke-width="5"/>
<path opacity="0.487179" fill-rule="evenodd" clip-rule="evenodd" d="M158.463 969.875C139.392 900.359 322.831 857.789 383.763 790.161C439.622 728.164 408.812 644.005 494.304 597.125C581.089 549.537 700.896 554.195 803.131 560.201C901.492 565.979 985.508 592.969 1058.7 630.281C1136.67 670.025 1218.24 713.442 1234.57 780.129C1251.18 848.021 1217.46 926.503 1146.19 987.729C1080.2 1044.41 967.211 1058.61 871.841 1091.74C784.325 1122.13 700.205 1183.09 611.488 1173.44C522.582 1163.77 524.86 1078.12 454.029 1046.29C366.245 1006.85 178 1041.09 158.463 969.875Z" stroke="#F05555" stroke-width="5"/>
<path opacity="0.512821" fill-rule="evenodd" clip-rule="evenodd" d="M164.678 919.968C151.984 849.867 333.605 823.987 398.409 762.734C457.817 706.581 434.953 621.04 521.861 582.359C610.082 543.093 725.985 558.146 824.719 572.991C919.712 587.273 999.005 621.184 1066.93 664.311C1139.28 710.249 1214.83 760.118 1225.1 827.194C1235.54 895.482 1196.24 969.797 1121.94 1023.84C1053.14 1073.88 942.28 1077.99 846.935 1102.26C759.443 1124.54 672.689 1177.2 587.382 1159.95C501.893 1142.66 511.271 1058.54 445.181 1021.02C363.273 974.518 177.683 991.786 164.678 919.968Z" stroke="#F05555" stroke-width="5"/>
<path opacity="0.538462" fill-rule="evenodd" clip-rule="evenodd" d="M175.169 872.018C168.806 801.908 347.133 792.072 415.174 737.349C477.551 687.182 462.636 600.994 550.198 570.397C639.083 539.338 750.206 564.142 844.696 587.261C935.605 609.505 1009.62 649.721 1071.84 698.031C1138.11 749.491 1207.14 805.096 1211.4 872.018C1215.74 940.15 1171.32 1009.93 1094.68 1056.74C1023.72 1100.08 915.857 1094.57 821.335 1110.26C734.597 1124.66 645.998 1169.03 564.733 1144.7C483.295 1120.32 499.527 1038.3 438.618 995.668C363.132 942.83 181.688 943.845 175.169 872.018Z" stroke="#F05555" stroke-width="5"/>
<path opacity="0.564103" fill-rule="evenodd" clip-rule="evenodd" d="M189.641 826.39C189.513 756.835 363.167 762.271 433.816 714.171C498.583 670.075 491.552 583.968 579.039 561.273C667.849 538.234 773.396 572.071 862.97 602.841C949.15 632.445 1017.42 678.309 1073.54 731.139C1133.33 787.414 1195.44 848.004 1193.8 914.243C1192.14 981.679 1143.08 1046.6 1064.78 1086.19C992.287 1122.83 888.238 1108.27 795.29 1115.7C709.997 1122.51 620.318 1158.68 543.664 1127.84C466.847 1096.93 489.639 1017.58 434.287 970.446C365.688 912.033 189.772 897.648 189.641 826.39Z" stroke="#F05555" stroke-width="5"/>
<path opacity="0.589744" fill-rule="evenodd" clip-rule="evenodd" d="M207.769 783.416C213.73 714.962 381.444 734.784 454.078 693.34C520.665 655.347 521.388 570.032 608.108 554.99C696.138 539.721 795.404 581.814 879.468 619.556C960.346 655.869 1022.45 706.689 1072.19 763.352C1125.17 823.709 1180.02 888.506 1172.65 953.55C1165.14 1019.77 1111.94 1079.57 1032.64 1111.99C959.223 1142.01 859.722 1119 769.049 1118.57C685.844 1118.17 595.823 1146.29 524.279 1109.55C452.583 1072.74 481.601 996.547 432.114 945.556C370.784 882.36 201.662 853.545 207.769 783.416Z" stroke="#F05555" stroke-width="5"/>
<path opacity="0.615385" fill-rule="evenodd" clip-rule="evenodd" d="M229.203 743.386C241.06 676.56 401.685 709.778 475.696 674.969C543.544 643.059 551.829 559.222 637.132 551.528C723.723 543.719 816.094 593.235 894.132 637.23C969.213 679.557 1024.83 734.614 1067.95 794.405C1113.88 858.095 1161.23 926.302 1148.31 989.659C1135.15 1054.16 1078.33 1108.61 998.665 1134C924.91 1157.51 830.615 1126.75 742.861 1118.9C662.334 1111.7 572.672 1131.98 506.667 1090C440.521 1047.93 475.39 975.382 432.008 921.189C378.244 854.025 217.055 811.848 229.203 743.386Z" stroke="#F05555" stroke-width="5"/>
<path opacity="0.641026" fill-rule="evenodd" clip-rule="evenodd" d="M253.568 706.551C271.083 641.852 423.596 687.391 498.395 659.141C566.966 633.242 582.559 551.545 665.841 550.84C750.382 550.124 835.341 606.191 906.922 655.682C975.791 703.297 1024.66 761.854 1061.01 824.058C1099.73 890.318 1139.42 961.131 1121.18 1022.34C1102.61 1084.65 1042.68 1133.57 963.263 1152.12C889.732 1169.29 801.216 1131.49 716.963 1116.73C639.65 1103.18 551.01 1115.91 490.897 1069.36C430.656 1022.71 470.967 954.247 433.86 897.521C387.873 827.219 235.624 772.833 253.568 706.551Z" stroke="#F05555" stroke-width="5"/>
<path opacity="0.666667" fill-rule="evenodd" clip-rule="evenodd" d="M280.473 673.12C303.366 611.02 446.877 667.73 521.899 645.911C590.675 625.907 613.265 546.978 693.977 552.854C775.908 558.819 853.037 620.531 917.815 674.736C980.138 726.887 1022.09 788.196 1051.59 852.096C1083.01 920.163 1114.94 992.773 1091.67 1051.39C1067.98 1111.06 1005.46 1154.34 926.851 1166.27C854.073 1177.32 771.824 1133.25 691.592 1112.13C617.967 1092.74 530.966 1098.23 477.023 1047.82C422.966 997.301 468.28 933.3 437.549 874.716C399.463 802.11 257.019 736.74 280.473 673.12Z" stroke="#F05555" stroke-width="5"/>
<path opacity="0.692308" fill-rule="evenodd" clip-rule="evenodd" d="M309.515 643.258C337.468 584.196 471.224 650.87 545.932 635.306C614.421 621.038 643.646 545.465 721.291 557.475C800.109 569.666 869.09 636.097 926.805 694.216C982.332 750.134 1017.28 813.445 1039.91 878.33C1064.01 947.445 1088.2 1021.05 1060.2 1076.67C1031.7 1133.29 967.113 1170.85 889.848 1176.45C818.315 1181.64 742.733 1132.09 666.971 1105.18C597.448 1080.48 512.653 1079.12 465.083 1025.56C417.411 971.879 467.262 912.691 442.939 852.919C412.794 778.84 280.877 703.766 309.515 643.258Z" stroke="#F05555" stroke-width="5"/>
<path opacity="0.717949" fill-rule="evenodd" clip-rule="evenodd" d="M340.279 617.083C372.94 561.462 496.328 636.847 570.218 627.322C637.956 618.589 673.404 546.921 747.544 564.58C822.805 582.507 883.422 652.72 933.9 713.947C982.464 772.855 1010.38 837.424 1026.21 902.593C1043.07 972.01 1059.59 1045.83 1027.21 1098.08C994.247 1151.27 928.095 1183.07 852.666 1182.66C782.831 1182.28 714.225 1128.08 643.313 1095.99C578.241 1066.54 496.166 1058.75 455.094 1002.75C413.934 946.631 467.834 892.556 449.882 832.257C427.635 757.525 306.82 674.065 340.279 617.083Z" stroke="#F05555" stroke-width="5"/>
<path opacity="0.74359" fill-rule="evenodd" clip-rule="evenodd" d="M372.351 594.672C409.333 542.857 521.885 625.676 594.487 621.932C661.045 618.499 702.259 551.236 772.517 574.034C843.837 597.177 895.973 670.234 939.126 733.764C980.643 794.885 1001.59 859.98 1010.74 924.753C1020.5 993.748 1029.5 1067.01 993.116 1115.56C956.072 1164.98 888.858 1191.04 815.708 1184.97C747.983 1179.36 686.572 1121.32 620.819 1084.69C560.482 1051.07 481.585 1037.3 447.061 979.581C412.463 921.736 469.907 873.024 458.226 812.844C443.749 738.259 334.463 647.756 372.351 594.672Z" stroke="#F05555" stroke-width="5"/>
<path opacity="0.769231" fill-rule="evenodd" clip-rule="evenodd" d="M405.311 576.059C446.204 528.374 547.591 617.334 618.474 619.079C683.455 620.678 729.94 558.273 796 585.677C863.059 613.495 906.697 688.47 942.522 753.504C976.989 816.074 991.088 880.983 993.773 944.704C996.634 1012.58 998.352 1084.55 958.351 1129.1C917.627 1174.45 849.839 1194.82 779.364 1183.49C714.117 1173 660.03 1111.95 599.673 1071.42C544.287 1034.22 468.969 1014.97 440.969 956.223C412.909 897.356 473.38 854.211 467.805 794.772C460.895 721.107 363.417 624.91 405.311 576.059Z" stroke="#F05555" stroke-width="5"/>
<path opacity="0.794872" fill-rule="evenodd" clip-rule="evenodd" d="M438.751 561.228C483.119 517.956 573.154 611.766 641.927 618.679C704.973 625.016 756.199 567.867 817.809 599.33C880.349 631.268 915.565 707.252 944.14 773.013C971.632 836.282 979.089 900.321 975.56 962.367C971.8 1028.46 966.535 1098.44 923.336 1138.73C879.357 1179.76 811.462 1194.54 744.011 1178.35C681.562 1163.36 634.841 1100.13 580.044 1056.34C529.761 1016.16 458.362 991.923 436.791 932.846C415.173 873.643 478.146 836.218 478.452 778.115C478.832 706.106 393.296 605.56 438.751 561.228Z" stroke="#F05555" stroke-width="5"/>
<path opacity="0.820513" fill-rule="evenodd" clip-rule="evenodd" d="M472.266 550.129C519.656 511.507 598.29 608.894 664.604 620.627C725.396 631.384 780.805 579.836 837.772 614.802C895.6 650.296 922.564 726.412 944.046 792.147C964.715 855.39 965.796 917.911 956.368 977.696C946.327 1041.38 934.443 1108.72 888.479 1144.54C841.685 1181.02 774.132 1190.34 710.001 1169.73C650.626 1150.64 611.226 1086.02 562.083 1039.63C516.989 997.055 449.79 968.367 434.483 909.613C419.143 850.735 484.089 819.136 489.996 762.93C497.317 693.273 423.716 589.697 472.266 550.129Z" stroke="#F05555" stroke-width="5"/>
<path opacity="0.846154" fill-rule="evenodd" clip-rule="evenodd" d="M505.47 542.664C555.413 508.885 622.729 608.605 686.28 624.792C744.539 639.631 803.548 593.971 855.744 631.884C908.729 670.37 927.697 745.777 942.318 810.767C956.386 873.295 951.417 933.687 936.464 990.668C920.535 1051.37 902.457 1115.45 854.175 1146.64C805.02 1178.39 738.233 1182.43 677.666 1157.83C621.592 1135.06 589.387 1069.83 545.924 1021.47C506.041 977.09 443.26 944.482 433.99 886.68C424.7 828.755 491.089 803.039 502.265 749.252C516.116 682.592 454.304 577.271 505.47 542.664Z" stroke="#F05555" stroke-width="5"/>
<path opacity="0.871795" fill-rule="evenodd" clip-rule="evenodd" d="M537.99 538.701C590.008 509.911 646.218 610.764 706.744 631.022C762.232 649.594 824.242 610.05 871.598 650.359C919.67 691.277 930.98 765.181 939.042 828.75C946.798 889.909 936.165 947.608 916.104 1001.29C894.735 1058.48 870.943 1118.76 820.796 1145.18C769.743 1172.08 704.118 1171.03 647.311 1142.91C594.717 1116.87 569.503 1051.77 531.677 1002.06C496.967 956.443 438.765 920.453 435.242 864.192C431.711 807.811 499.022 787.989 515.087 737.098C534.996 674.028 484.699 568.196 537.99 538.701Z" stroke="#F05555" stroke-width="5"/>
<path opacity="0.897436" fill-rule="evenodd" clip-rule="evenodd" d="M569.479 538.072C623.086 514.372 668.521 615.215 725.808 639.15C778.326 661.093 842.726 627.836 885.232 670.001C928.381 712.802 932.447 784.466 934.315 845.982C936.112 905.166 920.248 959.662 895.543 1009.6C869.227 1062.8 840.247 1118.79 788.693 1140.36C736.208 1162.32 672.116 1156.41 619.211 1125.21C570.231 1096.33 551.729 1032.07 519.436 981.608C489.803 935.301 436.278 896.465 438.158 842.289C440.043 787.999 507.76 774.036 528.292 726.472C553.739 667.523 514.559 562.352 569.479 538.072Z" stroke="#F05555" stroke-width="5"/>
<path opacity="0.923077" fill-rule="evenodd" clip-rule="evenodd" d="M599.61 540.573C654.322 522.018 689.424 621.773 743.301 648.988C792.693 673.937 858.865 647.075 896.567 690.574C934.838 734.729 932.144 803.473 928.241 862.36C924.486 919.015 903.872 969.849 875.022 1015.66C844.291 1064.46 810.691 1115.72 758.19 1132.4C704.74 1149.38 642.518 1138.86 593.61 1105.05C548.329 1073.74 536.197 1010.97 509.271 960.322C484.562 913.848 435.759 872.69 442.648 821.098C449.553 769.397 517.176 761.213 541.717 717.353C572.132 662.995 543.559 559.582 599.61 540.573Z" stroke="#F05555" stroke-width="5"/>
<path opacity="0.948718" fill-rule="evenodd" clip-rule="evenodd" d="M628.087 545.971C683.42 532.57 708.736 630.239 759.076 660.333C805.224 687.921 872.551 667.507 905.547 711.839C939.042 756.841 930.129 822.056 920.932 877.795C912.083 931.422 887.235 978.197 854.772 1019.55C820.191 1063.6 782.574 1109.78 729.58 1121.56C675.628 1133.56 615.584 1118.7 570.718 1082.72C529.179 1049.4 523.01 988.716 501.231 938.42C481.245 892.266 437.152 849.297 448.612 800.733C460.097 752.066 527.143 749.541 555.204 709.708C589.981 660.343 571.4 559.7 628.087 545.971Z" stroke="#F05555" stroke-width="5"/>
<path opacity="0.974359" fill-rule="evenodd" clip-rule="evenodd" d="M654.644 554.001C710.122 545.719 726.289 640.393 773.007 672.969C815.835 702.833 883.703 688.858 912.141 733.552C941.008 778.921 926.475 840.069 912.503 892.206C899.06 942.367 870.529 984.748 835.007 1021.38C797.169 1060.4 756.163 1101.18 703.123 1108.12C649.125 1115.18 591.534 1096.28 550.708 1058.56C512.911 1023.63 512.246 965.568 495.343 916.115C479.833 870.735 440.386 826.446 455.941 781.296C471.529 736.051 537.534 739.023 568.601 703.485C607.104 659.442 597.808 562.486 654.644 554.001Z" stroke="#F05555" stroke-width="5"/>
<path fill-rule="evenodd" clip-rule="evenodd" d="M679.046 564.386C734.204 561.144 741.942 652.007 784.995 686.677C824.463 718.46 892.269 710.861 916.341 755.477C940.776 800.767 921.262 857.388 903.073 905.534C885.574 951.856 853.934 989.571 815.927 1021.27C775.442 1055.04 731.696 1090.21 679.046 1092.38C625.445 1094.59 570.547 1071.96 533.72 1032.91C499.624 996.753 503.957 941.793 491.614 893.631C480.288 849.435 445.377 804.29 464.52 762.883C483.704 721.387 548.226 729.658 581.767 698.623C623.336 660.16 622.539 567.707 679.046 564.386Z" stroke="#F05555" stroke-width="5"/>
</svg>
