<svg width="298" height="298" viewBox="0 0 298 298" fill="none" xmlns="http://www.w3.org/2000/svg">
<path fill-rule="evenodd" clip-rule="evenodd" d="M29.2655 53.6662L103.265 0H194.735L268.734 53.6662L297 140.5L268.734 227.334L194.735 281H103.265L29.2655 227.334L1 140.5L29.2655 53.6662ZM149 14.833L114.653 3.69326L183.347 3.69326L149 14.833ZM143.013 16.7746L104.679 4.34169L80.9868 36.8915L143.013 16.7746ZM82.6704 40.2288L144.98 20.02L120.957 53.1351L82.6704 40.2288ZM76.135 43.5573L36.1626 98.4744L75.9688 85.7441L76.135 43.5573ZM75.9535 89.6272L35.4565 102.578L60.272 136.785L75.8524 115.308L75.9535 89.6272ZM79.5726 110.18L79.6582 88.4424L100.081 81.9111L79.5726 110.18ZM75.8275 121.64L62.5561 139.934L75.6841 158.03L75.8275 121.64ZM79.3642 163.102L79.5477 116.512L106.029 80.0089L148.665 66.3737L193.847 81.6046L220.268 118.025L220.633 164.042L177.363 222.079L105.47 199.088L79.3642 163.102ZM75.6595 164.293L60.272 143.082L35.8049 176.808L75.5601 189.522L75.6595 164.293ZM79.2555 190.704L79.3395 169.365L99.5218 197.185L79.2555 190.704ZM75.5449 193.396L34.5264 180.278L75.3755 236.399L75.5449 193.396ZM79.0629 239.601L79.2402 194.577L103.185 202.235L146.055 261.329L79.0629 239.601ZM199.894 83.643L220.218 111.658L220.049 90.4375L199.894 83.643ZM220.019 86.5289L196.15 78.4829L180.078 56.3277L219.679 43.6629L220.019 86.5289ZM223.759 91.6881L223.959 116.815L239.683 138.49L264.369 105.378L223.759 91.6881ZM263.913 101.326L223.729 87.7795L223.395 45.6593L263.913 101.326ZM190.103 76.4445L154.599 64.4759L176.37 57.5135L190.103 76.4445ZM148.695 62.4858L174.086 54.3656L149.359 20.2811L124.627 54.3725L148.695 62.4858ZM118.684 56.2673L103.744 76.8614L79.6735 84.5593L79.8365 43.1717L118.684 56.2673ZM122.355 57.5047L142.761 64.3836L109.692 74.9591L122.355 57.5047ZM181.087 223.27L220.681 170.163L221.203 236.1L181.087 223.27ZM224.342 165.252L224.881 233.299L264.591 178.742L264.411 178.873L239.642 144.731L224.342 165.252ZM224.009 123.181L224.294 159.131L237.368 141.595L224.009 123.181ZM153.959 20.3246L216.8 40.7056L177.794 53.1798L153.959 20.3246ZM32.9653 105.442V174.426L57.9879 139.934L32.9653 105.442ZM152.958 261L219.477 239.426L178.753 226.402L152.958 261ZM175.028 225.211L149.379 259.614L109.133 204.137L175.028 225.211ZM241.957 141.625L265.035 173.435V110.672L241.957 141.625ZM75 38.8332L96.2277 9.66909L40.653 49.9729L75 38.8332ZM40.653 231.027L96.2277 271.331L75 242.167L40.653 231.027ZM71.3 237.083L32.9653 184.416V224.65L71.3 237.083ZM29.2653 179.333V215.382L8.03782 150.169L29.2653 179.333ZM29.2653 107.95L5.57345 140.5L29.2653 173.05V107.95ZM29.2653 101.667L8.03782 130.831L29.2653 65.6183V101.667ZM32.9653 96.5836V56.3495L71.3 43.9165L32.9653 96.5836ZM80.9868 244.108L104.679 276.658L143.013 264.225L80.9868 244.108ZM149 266.167L114.653 277.307H183.347L149 266.167ZM201.772 271.331L257.347 231.027L223 242.167L201.772 271.331ZM217.013 244.108L154.987 264.225L193.321 276.658L217.013 244.108ZM226.7 237.083L265.035 224.65V184.416L226.7 237.083ZM268.734 179.333V215.382L289.962 150.169L268.734 179.333ZM289.962 130.831L268.734 65.6179V101.667L289.962 130.831ZM268.734 173.05L292.426 140.5L268.734 107.95V173.05ZM265.035 96.5836V56.3495L226.7 43.9165L265.035 96.5836ZM223 38.8332L257.347 49.973L201.772 9.66886L223 38.8332ZM217.013 36.8915L154.987 16.7746L193.321 4.34169L217.013 36.8915Z" fill="#F05555" fill-opacity="0.3"/>
</svg>
