<svg width="298" height="201" viewBox="0 0 298 201" fill="none" xmlns="http://www.w3.org/2000/svg">
<g clip-path="url(#clip0_1450_6610)">
<path d="M138.139 88.7933C135.643 91.4456 134.326 95.3343 134.326 100.031C134.326 109.273 139.359 115.013 147.457 115.013C154.127 115.013 158.689 111.151 159.936 104.424L160.047 103.83H153.288L153.205 104.231C152.574 107.359 150.515 109.155 147.547 109.155C142.77 109.155 141.065 104.479 141.065 100.107C141.065 93.2691 144.414 90.8309 147.547 90.8309C151.977 90.8309 152.782 93.7802 153.218 95.3688L153.315 95.7349H159.999L159.957 95.2031C159.583 90.2783 155.534 84.9737 147.478 84.9737C145.74 84.9272 144.012 85.243 142.404 85.9007C140.795 86.5585 139.343 87.5437 138.139 88.7933Z" fill="#424242"/>
<path d="M178.649 85.699L173.178 100.376C172.291 98.553 166.065 85.699 166.065 85.699H158.397L169.927 107.56C169.109 109.017 168.762 109.238 167.514 109.238C166.814 109.218 166.123 109.08 165.469 108.831L164.776 108.506V114.57L165.15 114.66C166.359 114.89 167.587 115.011 168.818 115.019C171.771 115.019 173.865 114.156 175.799 109.742L186.289 85.699H178.649Z" fill="#424242"/>
<path d="M185.263 95.21L185.221 95.7418H191.905L192.009 95.3757C192.445 93.7871 193.25 90.8378 197.708 90.8378C198.803 90.8378 202.353 91.2591 203.607 96.3635H195.981V102.11H203.899C203.566 104.59 202.318 109.142 197.659 109.142C194.699 109.142 192.64 107.346 192.009 104.217L191.925 103.816H185.18L185.291 104.41C186.566 111.158 191.114 115.04 197.784 115.04C205.93 115.04 210.998 109.3 210.998 100.059C210.998 90.8171 205.777 85.0013 197.708 85.0013C189.638 85.0013 185.637 90.2852 185.263 95.21Z" fill="#424242"/>
<path d="M229.675 85.699L219.844 96.1632V85.699H213.084V114.301H219.844V104.68L221.993 102.476L230.312 114.329H238.999L226.728 97.5653L238.563 85.699H229.675Z" fill="#424242"/>
<path d="M104.557 105.011C104.272 105.294 94.6979 114.681 94.0254 115.372C96.1062 116.79 98.4949 117.697 100.996 118.018C103.496 118.338 106.038 118.064 108.411 117.216C108.98 117.009 109.985 116.753 110.574 116.47L111.171 115.835C113.983 112.804 115.902 109.058 116.717 105.011C112.668 103.298 107.364 102.704 104.557 105.011Z" fill="url(#paint0_linear_1450_6610)"/>
<path d="M104.557 92.9997C107.233 95.6728 113.452 95.9007 116.343 93.6559C115.649 90.6583 112.876 85.3674 109.874 82.8395L109.042 82.0797C106.965 80.2635 104.586 78.8214 102.012 77.818L100.48 77.2793L98.0466 76.6507C96.3902 76.3343 94.7068 76.1793 93.0202 76.188C91.3897 76.188 89.7635 76.3546 88.1671 76.6853L85.6228 77.376L84.1738 77.894C82.0581 78.7902 80.0846 79.9885 78.3154 81.4511C80.8579 80.6762 83.5472 80.505 86.1681 80.9511C88.7889 81.3973 91.2685 82.4485 93.4084 84.0206C93.4084 84.0206 104.259 92.7027 104.557 92.9997Z" fill="url(#paint1_linear_1450_6610)"/>
<path d="M76.499 117.112C78.7055 119.269 81.3154 120.972 84.1807 122.127L85.6297 122.645L88.181 123.336C91.3824 123.977 94.6778 123.998 97.8872 123.398L100.494 122.742L102.213 122.127C104.402 121.236 106.452 120.038 108.3 118.57C105.669 119.31 102.906 119.465 100.207 119.022C97.5089 118.579 94.9416 117.55 92.6875 116.007L77.6014 100.991C75.7859 103.636 74.8189 106.767 74.8282 109.97C74.8304 111.692 75.1041 113.403 75.6393 115.04C75.868 115.711 76.1341 116.368 76.4366 117.009L76.499 117.112Z" fill="url(#paint2_linear_1450_6610)"/>
<path d="M75.8749 83.5233C73.7131 85.7249 72.0055 88.3273 70.8485 91.1832L70.3216 92.6268L69.6283 95.1686C68.9637 98.3579 68.9637 101.649 69.6283 104.839L70.3216 107.373L70.8485 108.824C71.7406 110.935 72.944 112.903 74.4189 114.66C73.9216 113.046 73.66 111.369 73.6425 109.68C73.6339 106.07 74.799 102.554 76.9633 99.6582L92.0425 84.6492C89.9603 83.2312 87.5714 82.3232 85.0703 81.9991C82.5692 81.675 80.0267 81.9441 77.6497 82.7843C77.0881 82.9915 76.5058 83.2263 75.9234 83.5095L75.8749 83.5233Z" fill="url(#paint3_linear_1450_6610)"/>
<path d="M112.834 82.8809C116.999 87.6187 119.295 93.7022 119.295 100C119.295 106.298 116.999 112.381 112.834 117.119C112.017 118.069 111.127 118.953 110.172 119.765L108.917 120.801C108.626 121.015 108.328 121.229 108.009 121.443C106.423 122.545 104.722 123.472 102.934 124.206C96.5771 126.745 89.4776 126.717 83.1405 124.13C81.4017 123.381 79.7452 122.455 78.1973 121.367L77.3168 120.732C76.8662 120.386 76.4433 120.041 76.0134 119.668C75.0528 118.846 74.1559 117.952 73.3304 116.995C69.2469 112.265 67.0013 106.232 67.0013 99.9932C67.0013 93.754 69.2469 87.7218 73.3304 82.9914C74.1577 82.036 75.0544 81.1426 76.0134 80.3184C76.4433 79.9454 76.8662 79.6277 77.3168 79.2547C77.608 79.0337 77.9061 78.8265 78.1973 78.6193C79.7511 77.5638 81.4071 76.666 83.1405 75.9393C89.4699 73.3157 96.5827 73.2859 102.934 75.8564C104.724 76.5706 106.427 77.486 108.009 78.5847C108.328 78.7781 108.626 79.013 108.917 79.2271C109.34 79.5448 109.77 79.8833 110.193 80.2355L112.834 82.8809ZM121.085 98.1179V97.959C122.326 95.286 124.669 95.1962 127.248 97.6689C127.248 93.5869 126.374 90.3544 124.398 88.524C121.625 86.0582 118.7 87.6675 116.315 84.3176C116.037 81.389 118.055 80.1733 121.528 80.9746C119.448 77.4727 117.063 75.1174 114.457 74.5096C113.926 74.3829 113.377 74.3455 112.834 74.399C111.926 74.4849 111.032 74.6821 110.172 74.9861C109.753 75.1236 109.327 75.2389 108.896 75.3315C108.597 75.3914 108.293 75.4261 107.988 75.4351C107.072 75.4806 106.16 75.2903 105.34 74.8825C103.669 72.5065 104.757 70.5035 107.988 69.4536C108.055 69.4405 108.118 69.4147 108.175 69.3776C108.117 69.3433 108.054 69.3177 107.988 69.3016C106.407 68.3674 104.698 67.6693 102.913 67.2295C101.549 66.8786 100.118 66.8786 98.7535 67.2295C95.9387 68.1827 95.287 70.5173 93.0616 71.6017C92.4927 71.8741 91.8802 72.0447 91.2521 72.1059H91.0926C88.4095 70.8557 88.3194 68.528 90.8014 65.9586C87.6608 65.9586 84.9985 66.4905 83.085 67.6025C82.55 67.95 82.0608 68.363 81.6291 68.832C79.3967 71.3807 80.5407 74.0261 78.1627 76.2778C77.9277 76.4998 77.6775 76.7052 77.4139 76.8925H77.2544C76.8185 76.9212 76.3807 76.8956 75.951 76.8165C74.0653 76.3607 73.3789 74.5096 74.0653 71.6984L73.268 72.175C70.1828 74.1089 68.0822 76.3192 67.5206 78.6883C66.7788 82.356 69.6767 84.0758 67.8742 87.8609C65.4476 89.5808 63.3747 88.4687 62.3625 85.0566C60.3311 88.6069 59.4714 91.8601 60.2479 94.4088C61.4404 97.8623 64.6919 97.959 65.1703 101.903V102.069C63.9432 104.742 61.5791 104.832 59 102.386C59 106.441 59.9013 109.701 61.8702 111.524C64.6434 113.963 67.5761 112.36 69.961 115.717C70.2383 118.632 68.2139 119.861 64.7405 119.053C66.8204 122.576 69.2122 124.959 71.819 125.546C72.3006 125.641 72.791 125.685 73.2819 125.677C74.1977 125.6 75.0996 125.405 75.9649 125.097C76.3948 124.959 76.8177 124.834 77.2683 124.724C77.5595 124.676 77.8576 124.613 78.1488 124.593C79.1068 124.539 80.0623 124.734 80.922 125.159C82.5859 127.556 81.4905 129.586 78.1488 130.616C78.1306 130.62 78.1115 130.62 78.0933 130.616C78.0933 130.616 78.1488 130.616 78.1488 130.664C79.6962 131.571 81.3588 132.268 83.092 132.736C84.5289 133.124 86.0436 133.124 87.4805 132.736C90.2537 131.811 90.8915 129.504 93.0685 128.412C93.671 128.123 94.3177 127.936 94.982 127.86H95.1414C97.8314 129.103 97.9146 131.438 95.4396 134.007C98.4415 134.007 100.986 133.53 102.886 132.501C103.535 132.148 104.126 131.698 104.64 131.168C106.844 128.654 105.756 126.064 107.96 123.833C108.255 123.553 108.576 123.301 108.917 123.08C108.899 123.086 108.88 123.086 108.862 123.08C108.862 123.08 108.862 123.08 108.917 123.032C108.973 122.983 108.917 123.032 108.966 123.032C108.951 123.049 108.935 123.066 108.917 123.08C109.343 123.059 109.77 123.078 110.193 123.135C112.183 123.508 112.966 125.387 112.273 128.281C112.488 128.171 112.694 128.044 112.89 127.901C116.079 125.94 118.235 123.688 118.797 121.257C119.538 117.568 116.634 115.876 118.422 112.084C118.422 112.084 118.422 112.139 118.422 112.16C120.842 110.468 122.915 111.58 123.927 114.971C126.007 111.449 126.832 108.188 126.055 105.647C124.801 102.172 121.528 102.069 121.085 98.1179Z" fill="#B5B5B7"/>
</g>
<defs>
<linearGradient id="paint0_linear_1450_6610" x1="118.603" y1="101.288" x2="86.7504" y2="128.772" gradientUnits="userSpaceOnUse">
<stop offset="0.3" stop-color="#C6C6C8"/>
<stop offset="0.38" stop-color="#C0C0C2"/>
<stop offset="0.51" stop-color="#AEAEB0"/>
<stop offset="0.65" stop-color="#909194"/>
<stop offset="0.81" stop-color="#68696C"/>
<stop offset="0.87" stop-color="#55565A"/>
</linearGradient>
<linearGradient id="paint1_linear_1450_6610" x1="91.0304" y1="78.6814" x2="116.729" y2="107.255" gradientUnits="userSpaceOnUse">
<stop offset="0.04" stop-color="#FFEC85"/>
<stop offset="0.05" stop-color="#FFEC83"/>
<stop offset="0.13" stop-color="#FDE860"/>
<stop offset="0.21" stop-color="#FBE443"/>
<stop offset="0.3" stop-color="#F9E12A"/>
<stop offset="0.41" stop-color="#F8DF17"/>
<stop offset="0.53" stop-color="#F7DD0A"/>
<stop offset="0.69" stop-color="#F6DC02"/>
<stop offset="1" stop-color="#F6DC00"/>
</linearGradient>
<linearGradient id="paint2_linear_1450_6610" x1="97.7693" y1="122.514" x2="68.8075" y2="97.1057" gradientUnits="userSpaceOnUse">
<stop offset="0.3" stop-color="#939496"/>
<stop offset="0.46" stop-color="#797A7D"/>
<stop offset="0.64" stop-color="#65666A"/>
<stop offset="0.82" stop-color="#595A5E"/>
<stop offset="1" stop-color="#55565A"/>
</linearGradient>
<linearGradient id="paint3_linear_1450_6610" x1="66.966" y1="107.159" x2="88.8069" y2="85.4654" gradientUnits="userSpaceOnUse">
<stop offset="0.35" stop-color="#BFBB74"/>
<stop offset="0.95" stop-color="#92911A"/>
</linearGradient>
<clipPath id="clip0_1450_6610">
<rect width="180" height="68" fill="white" transform="translate(59 66)"/>
</clipPath>
</defs>
</svg>
