<svg width="298" height="200" viewBox="0 0 298 200" fill="none" xmlns="http://www.w3.org/2000/svg">
<g clip-path="url(#clip0_1450_6655)">
<path d="M87.3408 140.349L96.3877 131.258L93.3502 128.206L87.6795 133.906L77.3762 123.546L74 126.948L87.3408 140.349ZM91.0667 115.265L93.3502 117.552L98.0375 112.826L100.758 115.561L96.0599 120.286L98.9663 123.196L104.768 117.366L107.489 120.1L98.3107 129.333L84.9589 115.933L94.1478 106.689L96.8684 109.424L91.0667 115.265ZM120.775 106.776L111.695 104.162C112.201 103.074 112.352 101.855 112.126 100.677C111.901 99.4987 111.31 98.4216 110.439 97.5984C109.917 97.1111 109.304 96.7331 108.635 96.4865C107.965 96.2398 107.253 96.1296 106.541 96.1622C105.829 96.1948 105.13 96.3696 104.486 96.6763C103.842 96.9831 103.265 97.4156 102.79 97.9485L96.0271 104.742L109.434 118.153L112.821 114.751L102.026 103.899L104.211 101.712C104.433 101.48 104.698 101.294 104.992 101.165C105.286 101.036 105.603 100.967 105.924 100.961C106.244 100.954 106.563 101.012 106.862 101.129C107.16 101.247 107.433 101.423 107.663 101.646C108.117 102.115 108.366 102.744 108.355 103.397C108.345 104.049 108.077 104.67 107.609 105.125L105.62 107.126L117.158 110.408L120.775 106.776ZM114.667 85.4887C118.841 81.299 124.359 81.7037 128.259 85.6309C132.16 89.5581 132.575 95.1043 128.401 99.294C124.228 103.484 118.721 103.079 114.809 99.1189C110.898 95.159 110.493 89.6456 114.667 85.4559M117.311 88.1797C115.192 90.3019 115.902 92.8945 118.48 95.4871C121.059 98.0797 123.627 98.7689 125.746 96.6576C127.866 94.5464 127.156 91.9428 124.577 89.3502C121.999 86.7576 119.431 85.9919 117.311 88.1797ZM132.28 78.4438L129.789 70.8739L133.744 66.903L137.055 79.8878L142.278 85.1386L138.901 88.5407L133.701 83.3118L121.321 79.3846L125.047 75.6434L132.204 78.4329L132.28 78.4438ZM194.002 124.651L207.354 111.251L203.792 107.673L190.451 121.074L194.002 124.651ZM142.955 73.3462L153.335 68.3688L145.665 76.07L148.757 79.1768L162.087 65.7653L157.858 61.5099L147.817 66.4326L152.843 56.4669L148.473 52.0803L135.132 65.4809L138.213 68.5876L145.883 60.8864L140.934 71.3115L142.955 73.3462ZM166.086 75.2496L163.802 77.5359L168.926 82.6773L166.206 85.4121L161.092 80.2707L158.186 83.1805L164.414 89.4377L161.693 92.1726L152.078 82.5132L165.419 69.1017L175.034 78.7611L172.314 81.4959L166.086 75.2496ZM178.957 109.544L188.004 118.645L191.052 115.582L185.381 109.894L195.685 99.5346L192.298 96.1435L178.957 109.544ZM214.904 118.831L210.621 133.041H210.61L219.831 123.787L223 126.97L209.659 140.371L205.474 136.17L209.124 121.522H209.135L200.022 130.679L196.941 127.583L210.271 114.182L214.904 118.831ZM176.433 107.006L179 97.8828C180.086 98.3963 181.307 98.5501 182.486 98.3219C183.664 98.0937 184.74 97.4955 185.556 96.6139C186.038 96.0898 186.412 95.4755 186.656 94.8063C186.899 94.1371 187.009 93.4263 186.977 92.7146C186.946 92.003 186.774 91.3046 186.472 90.6596C186.17 90.0146 185.744 89.4358 185.217 88.9564L178.039 81.7365L164.687 95.1808L168.074 98.5829L178.891 87.7312L181.459 90.3676C181.683 90.591 181.86 90.8563 181.982 91.1484C182.103 91.4406 182.166 91.7538 182.166 92.0702C182.167 92.3867 182.105 92.7001 181.985 92.9926C181.864 93.2851 181.687 93.551 181.464 93.7751C181.241 93.9992 180.976 94.1772 180.684 94.2987C180.393 94.4203 180.08 94.4831 179.764 94.4836C179.448 94.4841 179.135 94.4223 178.842 94.3017C178.55 94.1811 178.285 94.004 178.061 93.7806L175.613 91.3412L172.772 103.374L176.433 107.006Z" fill="#424242"/>
<path d="M89.876 142.3H207.146L148.506 83.3707L89.876 142.3Z" fill="#66C05D"/>
</g>
<defs>
<clipPath id="clip0_1450_6655">
<rect width="149" height="121" fill="white" transform="translate(74 37)"/>
</clipPath>
</defs>
</svg>
