<svg width="72" height="72" viewBox="0 0 72 72" fill="none" xmlns="http://www.w3.org/2000/svg">
<path fill-rule="evenodd" clip-rule="evenodd" d="M36.0002 58.2011C41.2747 61.8506 47.7462 64 54.7397 64C59.4679 64 63.9576 63.0175 68 61.2532C66.9621 49.9206 59.564 40.3442 49.2604 35.8472C49.3432 34.9423 49.3855 34.0262 49.3855 33.1006C49.3855 22.7619 44.1067 13.6092 36 8C27.8934 13.6092 22.6145 22.7619 22.6145 33.1006C22.6145 34.0262 22.6568 34.9423 22.7397 35.8472C12.4361 40.3442 5.03786 49.9206 4 61.2532C8.04243 63.0175 12.5321 64 17.2603 64C24.2538 64 30.7257 61.8506 36.0002 58.2011ZM24.1721 36.6521C24.1721 36.6521 24.1721 36.6521 24.1721 36.6521C25.1794 44.7608 29.5943 51.8631 36 56.5966C41.2049 52.7504 45.0954 47.3404 46.9115 41.0973C47.1722 40.2009 47.3902 39.2874 47.5632 38.3589C47.6682 37.7953 47.7566 37.2263 47.8279 36.6521C44.5358 35.3333 40.9545 34.5484 37.2011 34.4099C36.8027 34.3952 36.4022 34.3878 36 34.3878C31.8092 34.3878 27.8137 35.1933 24.1721 36.6521ZM24.0377 35.3136C27.735 33.8859 31.7721 33.1003 36 33.1003C40.2279 33.1003 44.2651 33.8859 47.9623 35.3136C48.0184 34.583 48.047 33.845 48.047 33.1006C48.047 23.5299 43.3277 15.0194 36 9.6042C28.6724 15.0194 23.9531 23.5299 23.9531 33.1006C23.9531 33.845 23.9816 34.583 24.0377 35.3136ZM37.1226 57.3881C43.538 52.5276 47.9807 45.3661 49.1057 37.1973C58.4948 41.4521 65.2867 50.1366 66.5676 60.4486C62.9276 61.9068 58.933 62.7125 54.7397 62.7125C48.188 62.7125 42.1141 60.7439 37.1226 57.3881ZM34.8774 57.3881C29.8859 60.7439 23.812 62.7125 17.2603 62.7125C13.067 62.7125 9.07239 61.9068 5.43235 60.4486C6.71327 50.1366 13.5052 41.452 22.8944 37.1972C24.0194 45.366 28.4621 52.5276 34.8774 57.3881Z" fill="#F05555"/>
</svg>
