<svg width="72" height="72" viewBox="0 0 72 72" fill="none" xmlns="http://www.w3.org/2000/svg">
<path fill-rule="evenodd" clip-rule="evenodd" d="M62.913 20.2754L35.9565 5L9 20.2754V51.6901L35.9565 67L62.913 51.6901V20.2754ZM44.7064 20.2754L36.8323 6.52908L61.0905 20.2754H44.7064ZM43.6709 20.2754L35.9564 6.80778L28.242 20.2754H43.6709ZM27.7273 21.1739H44.1856L52.5496 35.7754L44.1856 50.3768H27.7273L19.3634 35.7754L27.7273 21.1739ZM27.2065 20.2754L35.0805 6.52921L10.8226 20.2754H27.2065ZM9.89855 21.0597V50.491L18.3279 35.7754L9.89855 21.0597ZM18.8457 34.8715L10.9995 21.1739H26.6918L18.8457 34.8715ZM18.8457 36.6793L10.9995 50.3768H26.6918L18.8457 36.6793ZM27.2065 51.2754H10.0893L35.4605 65.6849L27.2065 51.2754ZM36.4523 65.6851L61.8238 51.2754H44.7064L36.4523 65.6851ZM43.6709 51.2754H28.242L35.9564 64.7429L43.6709 51.2754ZM45.2211 50.3768H60.9135L53.0673 36.6793L45.2211 50.3768ZM53.5851 35.7754L62.0145 50.491V21.0597L53.5851 35.7754ZM53.0673 34.8715L45.2211 21.1739H60.9135L53.0673 34.8715Z" fill="#F05555"/>
</svg>
