<svg width="72" height="72" viewBox="0 0 72 72" fill="none" xmlns="http://www.w3.org/2000/svg">
<path d="M24.2983 29.9444L35.9191 23.1543L47.6993 29.9464V43.1493L35.9191 49.8201L24.2983 43.1512V29.9444Z" stroke="#F05555"/>
<path d="M18.7393 26.6868L35.999 16.9683L53.2587 26.6868V45.8524L35.999 55.4904L18.7393 45.8524L18.7393 26.6868Z" stroke="#F05555"/>
<path d="M24.0586 29.7754L18.6073 26.6437" stroke="#F05555"/>
<path d="M47.9155 29.7891L53.5193 26.5697" stroke="#F05555"/>
<path d="M35.9985 50.0195L35.9985 55.6428" stroke="#F05555"/>
<path d="M35.9995 62.5039L35.9995 69.4588" stroke="#F05555" stroke-width="0.5"/>
<path d="M58.8438 23.5117L64.8142 20.0817" stroke="#F05555"/>
<path d="M13.1562 23.5117L7.18581 20.0817" stroke="#F05555"/>
<path d="M13.3453 23.6411L36.0004 10.7878L58.6555 23.6411V49.3326L36.0004 62.1859L13.3453 49.3326V23.6411Z" stroke="#F05555"/>
<path d="M7.5 20.1811L36.0001 3.57865L64.5002 20.1811V52.9409L36.0001 69.3955L7.5 52.9409L7.5 20.1811Z" stroke="#F05555"/>
</svg>
