<svg width="72" height="72" viewBox="0 0 72 72" fill="none" xmlns="http://www.w3.org/2000/svg">
<path fill-rule="evenodd" clip-rule="evenodd" d="M36.4787 67.66L71 43.1395L57.7481 4H14.2519L1 43.1395L1.5 43.4947V43.6175H1.6729L36 68L36.4703 67.666L36.4761 67.6678L36.4787 67.66ZM35.769 66.6448L43.4902 43.6175H3.34984L35.769 66.6448ZM2.21301 42.6613H27.2361L14.7374 5.67056L2.21301 42.6613ZM15.5469 4.95617H56.0526L23.1972 27.5978L15.5469 4.95617ZM57.1611 5.37087L36.8551 19.3644L69.5209 41.8755L57.1611 5.37087ZM69.4815 43.027L37.003 66.0965L49.3826 29.1762L69.4815 43.027ZM23.5203 28.5539L28.287 42.6613H43.8108L48.5296 28.5883L35.9999 19.9537L23.5203 28.5539Z" fill="#F05555"/>
</svg>
