<svg width="133" height="100" viewBox="0 0 133 100" fill="none" xmlns="http://www.w3.org/2000/svg">
<path d="M73.9475 37.2315L72.9424 42.2322L74.9525 41.6021C79.9176 39.1618 90.9231 34.8112 108.914 33.001H107.416C96.1226 32.9568 84.8714 34.379 73.9475 37.2315Z" fill="#ECECEC"/>
<mask id="mask0_1467_7428" style="mask-type:alpha" maskUnits="userSpaceOnUse" x="72" y="33" width="37" height="10">
<path d="M73.9475 37.2315L72.9424 42.2322L74.9525 41.6021C79.9176 39.1618 90.9231 34.8112 108.914 33.001H107.416C96.1226 32.9568 84.8714 34.379 73.9475 37.2315Z" fill="white"/>
</mask>
<g mask="url(#mask0_1467_7428)">
<path d="M108.914 33.002H72.9521V42.2031H108.914V33.002Z" fill="#ECECEC"/>
</g>
<path d="M74.9932 41.573C88.6426 37.5811 102.703 35.1419 116.905 34.3021C120.04 34.1121 121.849 34.1021 121.849 34.1021C121.196 33.9721 120.483 33.8521 119.719 33.742C116.137 33.2653 112.528 33.0181 108.914 33.002C90.9235 34.8022 79.918 39.1527 74.9932 41.563" fill="#ECECEC"/>
<mask id="mask1_1467_7428" style="mask-type:alpha" maskUnits="userSpaceOnUse" x="74" y="33" width="48" height="9">
<path d="M74.9932 41.573C88.6426 37.5811 102.703 35.1419 116.905 34.3021C120.04 34.1121 121.849 34.1021 121.849 34.1021C121.196 33.9721 120.483 33.8521 119.719 33.742C116.137 33.2653 112.528 33.0181 108.914 33.002C90.9235 34.8022 79.918 39.1527 74.9932 41.563" fill="white"/>
</mask>
<g mask="url(#mask1_1467_7428)">
<path d="M121.849 33.0117H74.9932V41.5728H121.849V33.0117Z" fill="#ECECEC"/>
</g>
<path d="M19.4424 34.0805C26.0859 34.4206 35.4431 35.6207 37.2221 39.6512C37.408 39.9811 37.505 40.3532 37.5035 40.7314C37.5035 44.9919 23.2415 48.7324 23.2415 48.7324L32.2269 57.6135H42.4183C39.4301 54.3114 36.098 51.3343 32.4781 48.7324C39.5136 48.5024 45.4435 45.2719 45.4435 40.2913C45.4584 39.5075 45.3149 38.7286 45.0214 38.001C43.946 35.3607 40.8604 34.0605 36.8703 34.0605L19.4424 34.0805Z" fill="#ECECEC"/>
<mask id="mask2_1467_7428" style="mask-type:alpha" maskUnits="userSpaceOnUse" x="19" y="34" width="27" height="24">
<path d="M19.4424 34.0805C26.0859 34.4206 35.4431 35.6207 37.2221 39.6512C37.408 39.9811 37.505 40.3532 37.5035 40.7314C37.5035 44.9919 23.2415 48.7324 23.2415 48.7324L32.2269 57.6135H42.4183C39.4301 54.3114 36.098 51.3343 32.4781 48.7324C39.5136 48.5024 45.4435 45.2719 45.4435 40.2913C45.4584 39.5075 45.3149 38.7286 45.0214 38.001C43.946 35.3607 40.8604 34.0605 36.8703 34.0605L19.4424 34.0805Z" fill="white"/>
</mask>
<g mask="url(#mask2_1467_7428)">
<path d="M45.4435 34.0801H19.4424V57.593H45.4435V34.0801Z" fill="#ECECEC"/>
</g>
<path d="M12.7487 34.082L11.1406 37.8225H32.2471C32.2471 37.8225 36.1367 37.7425 37.2222 39.6527C35.4432 35.6522 26.0659 34.4221 19.4425 34.082H12.7487Z" fill="#ECECEC"/>
<mask id="mask3_1467_7428" style="mask-type:alpha" maskUnits="userSpaceOnUse" x="11" y="34" width="27" height="6">
<path d="M12.7487 34.082L11.1406 37.8225H32.2471C32.2471 37.8225 36.1367 37.7425 37.2222 39.6527C35.4432 35.6522 26.0659 34.4221 19.4425 34.082H12.7487Z" fill="white"/>
</mask>
<g mask="url(#mask3_1467_7428)">
<path d="M37.2222 34.082H11.1406V39.6527H37.2222V34.082Z" fill="#ECECEC"/>
</g>
<path d="M15.3118 40.2227L9 57.5548H17.2617L23.5635 40.2227H15.3118Z" fill="#ECECEC"/>
<mask id="mask4_1467_7428" style="mask-type:alpha" maskUnits="userSpaceOnUse" x="9" y="40" width="15" height="18">
<path d="M15.3118 40.2227L9 57.5548H17.2617L23.5635 40.2227H15.3118Z" fill="white"/>
</mask>
<g mask="url(#mask4_1467_7428)">
<path d="M23.5635 40.2227H9V57.5548H23.5635V40.2227Z" fill="#ECECEC"/>
</g>
<path d="M100.693 40.002C98.6827 40.202 96.5921 40.442 94.5418 40.702L90.5215 57.6142H96.8735L101.085 40.002H100.693Z" fill="#ECECEC"/>
<mask id="mask5_1467_7428" style="mask-type:alpha" maskUnits="userSpaceOnUse" x="90" y="40" width="12" height="18">
<path d="M100.693 40.002C98.6827 40.202 96.5921 40.442 94.5418 40.702L90.5215 57.6142H96.8735L101.085 40.002H100.693Z" fill="white"/>
</mask>
<g mask="url(#mask5_1467_7428)">
<path d="M101.085 39.9629H90.5322V57.6151H101.085V39.9629Z" fill="#ECECEC"/>
</g>
<path d="M83.5461 42.2829C82.0921 48.7637 80.7587 53.9843 79.546 57.9448C79.1854 59.3453 78.4965 60.6408 77.5358 61.7253C76.2668 62.8028 74.7282 63.5182 73.0834 63.7955V63.8456L72.2793 67.226C74.2894 67.066 79.5861 66.3559 82.8225 63.2255C84.4752 61.4706 85.6604 59.332 86.2699 57.0047L90.1896 41.3027C87.9182 41.6328 85.697 41.9728 83.5461 42.3029" fill="#ECECEC"/>
<mask id="mask6_1467_7428" style="mask-type:alpha" maskUnits="userSpaceOnUse" x="72" y="41" width="19" height="27">
<path d="M83.5461 42.2829C82.0921 48.7637 80.7587 53.9843 79.546 57.9448C79.1854 59.3453 78.4965 60.6408 77.5358 61.7253C76.2668 62.8028 74.7282 63.5182 73.0834 63.7955V63.8456L72.2793 67.226C74.2894 67.066 79.5861 66.3559 82.8225 63.2255C84.4752 61.4706 85.6604 59.332 86.2699 57.0047L90.1896 41.3027C87.9182 41.6328 85.697 41.9728 83.5461 42.3029" fill="white"/>
</mask>
<g mask="url(#mask6_1467_7428)">
<path d="M90.1892 41.2734H72.2588V67.2267H90.1892V41.2734Z" fill="#ECECEC"/>
</g>
<path d="M72.5601 44.2021L69.3037 57.6138H75.6658L79.1433 43.002C76.7814 43.402 74.5703 43.8121 72.5601 44.1821" fill="#ECECEC"/>
<mask id="mask7_1467_7428" style="mask-type:alpha" maskUnits="userSpaceOnUse" x="69" y="43" width="11" height="15">
<path d="M72.5601 44.2021L69.3037 57.6138H75.6658L79.1433 43.002C76.7814 43.402 74.5703 43.8121 72.5601 44.1821" fill="white"/>
</mask>
<g mask="url(#mask7_1467_7428)">
<path d="M79.1337 43.0215H69.3242V57.6133H79.1337V43.0215Z" fill="#ECECEC"/>
</g>
<path d="M62.8119 39.4219C62.8119 39.4219 61.5153 46.5428 60.3394 50.5433C60.2107 51.045 60.0358 51.5338 59.8167 52.0034V52.0535C59.7472 52.1877 59.67 52.3179 59.5856 52.4435C58.9725 53.3536 57.9373 53.9637 55.7965 54.1537C53.0526 54.3837 51.7259 53.6937 52.138 51.8134L55.1532 39.4519H48.3992L45.1226 53.4936C44.9416 54.2667 45.0758 55.0797 45.4959 55.7545C45.916 56.4294 46.5877 56.9111 47.3639 57.0941C48.4328 57.4626 49.5599 57.6354 50.6907 57.6041C61.1334 57.6041 64.7617 57.3741 66.1688 53.0936C66.9125 50.8333 69.4152 39.4219 69.4152 39.4219H62.8119Z" fill="#ECECEC"/>
<mask id="mask8_1467_7428" style="mask-type:alpha" maskUnits="userSpaceOnUse" x="45" y="39" width="25" height="19">
<path d="M62.8119 39.4219C62.8119 39.4219 61.5153 46.5428 60.3394 50.5433C60.2107 51.045 60.0358 51.5338 59.8167 52.0034V52.0535C59.7472 52.1877 59.67 52.3179 59.5856 52.4435C58.9725 53.3536 57.9373 53.9637 55.7965 54.1537C53.0526 54.3837 51.7259 53.6937 52.138 51.8134L55.1532 39.4519H48.3992L45.1226 53.4936C44.9416 54.2667 45.0758 55.0797 45.4959 55.7545C45.916 56.4294 46.5877 56.9111 47.3639 57.0941C48.4328 57.4626 49.5599 57.6354 50.6907 57.6041C61.1334 57.6041 64.7617 57.3741 66.1688 53.0936C66.9125 50.8333 69.4152 39.4219 69.4152 39.4219H62.8119Z" fill="white"/>
</mask>
<g mask="url(#mask8_1467_7428)">
<path d="M69.4251 39.4219H44.8311V57.6141H69.4251V39.4219Z" fill="#ECECEC"/>
</g>
<path d="M101.014 50.1939C100.854 52.3842 102.08 56.0947 107.578 57.2748C112.703 58.3849 118.854 56.1747 120.402 55.5246L121.568 51.144C118.892 53.009 115.868 54.3216 112.673 55.0045C107.055 56.0046 100.733 54.4645 101.215 48.8438C101.109 49.277 101.042 49.7188 101.014 50.1639" fill="#ECECEC"/>
<mask id="mask9_1467_7428" style="mask-type:alpha" maskUnits="userSpaceOnUse" x="101" y="48" width="21" height="10">
<path d="M101.014 50.1939C100.854 52.3842 102.08 56.0947 107.578 57.2748C112.703 58.3849 118.854 56.1747 120.402 55.5246L121.568 51.144C118.892 53.009 115.868 54.3216 112.673 55.0045C107.055 56.0046 100.733 54.4645 101.215 48.8438C101.109 49.277 101.042 49.7188 101.014 50.1639" fill="white"/>
</mask>
<g mask="url(#mask9_1467_7428)">
<path d="M121.548 48.873H100.733V58.3842H121.548V48.873Z" fill="#ECECEC"/>
</g>
<path d="M115.176 43.0827C119.025 41.9925 119.196 47.5132 113.698 48.6034C108.201 49.6935 108.08 49.6735 108.08 49.6735C108.08 49.6735 109.085 44.7929 115.176 43.0827ZM115.347 39.2722C111.88 39.3296 108.516 40.4547 105.718 42.4926C103.478 43.9944 101.875 46.2668 101.215 48.8734C100.733 54.4941 107.055 56.0443 112.673 55.0342C115.87 54.3422 118.894 53.0193 121.568 51.1437C120.081 51.9138 108.985 57.4745 108.08 51.2137C108.181 51.2137 116.895 49.6935 118.372 49.4035C120.04 49.0834 123.659 47.8933 123.98 44.7529C124.087 43.6733 123.762 42.5951 123.076 41.7525C121.89 40.2623 119.608 39.2422 116.422 39.2422C116.08 39.2422 115.729 39.2422 115.417 39.2422" fill="#ECECEC"/>
<mask id="mask10_1467_7428" style="mask-type:alpha" maskUnits="userSpaceOnUse" x="101" y="39" width="23" height="17">
<path d="M115.176 43.0827C119.025 41.9925 119.196 47.5132 113.698 48.6034C108.201 49.6935 108.08 49.6735 108.08 49.6735C108.08 49.6735 109.085 44.7929 115.176 43.0827ZM115.347 39.2722C111.88 39.3296 108.516 40.4547 105.718 42.4926C103.478 43.9944 101.875 46.2668 101.215 48.8734C100.733 54.4941 107.055 56.0443 112.673 55.0342C115.87 54.3422 118.894 53.0193 121.568 51.1437C120.081 51.9138 108.985 57.4745 108.08 51.2137C108.181 51.2137 116.895 49.6935 118.372 49.4035C120.04 49.0834 123.659 47.8933 123.98 44.7529C124.087 43.6733 123.762 42.5951 123.076 41.7525C121.89 40.2623 119.608 39.2422 116.422 39.2422C116.08 39.2422 115.729 39.2422 115.417 39.2422" fill="white"/>
</mask>
<g mask="url(#mask10_1467_7428)">
<path d="M124.071 39.2324H100.733V57.4747H124.071V39.2324Z" fill="#ECECEC"/>
</g>
</svg>
