<svg width="133" height="100" viewBox="0 0 133 100" fill="none" xmlns="http://www.w3.org/2000/svg">
<g clip-path="url(#clip0_1467_7178)">
<path d="M32.4156 53.1784C32.4156 52.8728 32.2294 52.6247 31.8481 52.4387C31.4713 52.2571 31.0058 52.0844 30.4517 51.9338C29.8931 51.7788 29.2857 51.6194 28.6208 51.4599C27.9602 51.296 27.3484 51.0746 26.7943 50.7867C26.2401 50.5032 25.7702 50.1401 25.3934 49.7016C25.0166 49.2631 24.8259 48.6962 24.8259 48.0008C24.8259 47.4295 24.9545 46.929 25.2072 46.4994C25.4643 46.0653 25.8101 45.7021 26.249 45.401C26.6879 45.0998 27.2154 44.8739 27.8228 44.7189C28.4346 44.5639 29.0907 44.4886 29.8 44.4886C30.5581 44.4886 31.2231 44.5417 31.7905 44.648C32.3624 44.7588 32.8589 44.8872 33.2845 45.0422C33.7101 45.1972 34.0736 45.37 34.3706 45.5648C34.6721 45.7553 34.9336 45.928 35.1464 46.083L33.8741 48.1425C33.6436 48.0008 33.3776 47.8591 33.0761 47.7129C32.7747 47.5668 32.4599 47.4295 32.1274 47.3099C31.7949 47.1859 31.4491 47.084 31.0856 47.0087C30.7221 46.929 30.363 46.8936 30.0084 46.8936C29.3611 46.8936 28.838 46.9777 28.439 47.146C28.0356 47.3143 27.8361 47.5801 27.8361 47.9344C27.8361 48.209 28.0223 48.4349 28.4035 48.6032C28.7804 48.7715 29.2458 48.9309 29.8 49.0771C30.3586 49.2232 30.9659 49.3827 31.6309 49.551C32.2915 49.7193 32.9032 49.9407 33.4574 50.2109C34.0115 50.4811 34.4815 50.831 34.8583 51.2606C35.2351 51.6946 35.4257 52.2483 35.4257 52.9259C35.4257 54.0952 34.9957 55.0164 34.1401 55.6897C33.2845 56.3584 32.0166 56.695 30.332 56.695C29.0064 56.695 27.8627 56.5002 26.8962 56.106C25.9342 55.7118 25.1584 55.2556 24.5732 54.7285L25.9608 52.5583C26.1603 52.7266 26.4263 52.9126 26.7588 53.1208C27.0913 53.329 27.4637 53.5194 27.8804 53.6877C28.2971 53.8605 28.7405 54.0022 29.2104 54.1173C29.6803 54.2325 30.1502 54.2901 30.6113 54.2901C31.1034 54.2901 31.5289 54.2059 31.8836 54.0376C32.2383 53.8649 32.4156 53.5814 32.4156 53.1784ZM38.2985 47.3542H36.0065V44.8119H38.2985V42.1766L41.3086 41.3218V44.8119H47.3688V47.3542H41.3086V50.6627C41.3086 51.8452 41.5303 52.7045 41.978 53.2404C42.4258 53.7719 43.0509 54.0376 43.8533 54.0376C44.27 54.0376 44.6468 53.9845 44.9837 53.887C45.3251 53.7852 45.631 53.6567 45.9014 53.5017C46.1718 53.3511 46.4157 53.1784 46.6418 52.9968C46.8634 52.8108 47.0673 52.6425 47.2535 52.4874L48.6411 54.5691C48.3796 54.8747 48.0515 55.1582 47.657 55.4106C47.2668 55.6675 46.8412 55.889 46.3846 56.0838C45.9324 56.2743 45.4581 56.4249 44.9616 56.5312C44.4695 56.6419 43.9818 56.695 43.503 56.695C41.7785 56.695 40.4752 56.2123 39.6062 55.2512C38.7329 54.2856 38.2985 52.7576 38.2985 50.6627V47.3542ZM50.1972 45.5958C50.8134 45.3212 51.5271 45.0821 52.3384 44.8828C53.1453 44.679 54.1073 44.5816 55.2156 44.5816C56.018 44.5816 56.7007 44.6746 57.2637 44.8695C57.8267 45.0599 58.2834 45.3345 58.6291 45.6889C58.9794 46.0432 59.2276 46.4684 59.3828 46.96C59.538 47.456 59.6133 48.0097 59.6133 48.6253C59.6133 49.4137 59.5867 50.0825 59.5335 50.6361C59.4803 51.1897 59.4537 51.6858 59.4537 52.1154C59.4537 52.4387 59.467 52.8019 59.4981 53.205C59.5291 53.4175 59.5513 53.6257 59.569 53.8295H61.0718V56.3717H57.2327L56.9312 54.7994H56.816C56.5056 55.2778 56.0668 55.6897 55.4949 56.0351C54.923 56.3806 54.1516 56.5533 53.1807 56.5533C52.0237 56.5533 51.106 56.2477 50.4277 55.6321C49.7494 55.0164 49.4081 54.1971 49.4081 53.1784C49.4081 52.5317 49.5278 51.9737 49.7672 51.5042C50.0066 51.0347 50.3523 50.6494 50.809 50.3482C51.2656 50.047 51.8109 49.8256 52.4537 49.6794C53.0921 49.5333 53.8058 49.458 54.5949 49.458C54.8698 49.458 55.1624 49.4757 55.4727 49.5067C55.7786 49.5333 56.1599 49.5643 56.6076 49.5953C56.6386 49.4447 56.6519 49.2897 56.6519 49.1347V48.6962C56.6519 48.1115 56.4835 47.6908 56.1421 47.4339C55.8052 47.1814 55.3042 47.053 54.6393 47.053C53.8546 47.053 53.1408 47.1549 52.5113 47.3542C51.8774 47.5535 51.3454 47.7528 50.9154 47.9565L50.1972 45.5958ZM54.1516 54.0819C54.892 54.0819 55.4505 53.949 55.8185 53.6789C56.1909 53.4087 56.4613 53.1164 56.6298 52.8108V51.4245C56.4746 51.3935 56.2441 51.358 55.9338 51.3182C55.6279 51.2827 55.2954 51.2606 54.9407 51.2606C54.6481 51.2606 54.3555 51.2872 54.0585 51.3403C53.7659 51.3979 53.5044 51.4821 53.2738 51.5972C53.0433 51.7124 52.8571 51.863 52.7197 52.049C52.5778 52.2306 52.5113 52.4564 52.5113 52.7178C52.5113 53.1518 52.6354 53.484 52.8926 53.7232C53.1453 53.9623 53.5664 54.0819 54.1516 54.0819ZM62.2555 56.3717V53.8295H64.9864V47.3542H62.2333V44.8119H64.9864V44.1653C64.9864 43.4389 65.1149 42.8144 65.3676 42.2918C65.6247 41.7691 65.9572 41.3351 66.374 40.9985C66.7907 40.6575 67.2739 40.4094 67.8192 40.2456C68.3689 40.0817 68.9364 40.002 69.5215 40.002C70.5855 40.002 71.4633 40.0905 72.1504 40.2677C72.8331 40.4449 73.4006 40.6663 73.8484 40.9276L72.9706 43.2174C72.6159 43.0447 72.2347 42.8941 71.8224 42.7524C71.4145 42.6151 70.887 42.5442 70.2397 42.5442C69.4063 42.5442 68.8255 42.7347 68.493 43.1111C68.1605 43.492 67.9965 44.0545 67.9965 44.8119H72.8553V47.3542H67.9965V53.8295H72.8775V56.3717H62.2555ZM74.7572 56.3717V53.8295H77.488V47.3542H74.7306V44.8119H77.488V44.1653C77.488 43.4389 77.6121 42.8144 77.8693 42.2918C78.122 41.7691 78.4589 41.3351 78.8756 40.9985C79.2923 40.6575 79.7711 40.4094 80.3208 40.2456C80.8705 40.0817 81.4336 40.002 82.0232 40.002C83.0872 40.002 83.9605 40.0905 84.6476 40.2677C85.3348 40.4449 85.9022 40.6663 86.35 40.9276L85.4678 43.2174C85.1131 43.0447 84.7319 42.8941 84.324 42.7524C83.9162 42.6151 83.3886 42.5442 82.7369 42.5442C81.9079 42.5442 81.3227 42.7347 80.9902 43.1111C80.6622 43.492 80.4937 44.0545 80.4937 44.8119H85.3525V47.3542H80.4937V53.8295H85.3791V56.3717H74.7572ZM97.3222 55.26C96.6882 55.7384 95.9479 56.0971 95.1012 56.3363C94.25 56.5755 93.3633 56.695 92.4368 56.695C91.4349 56.695 90.5438 56.5489 89.7636 56.2566C88.9877 55.9643 88.3316 55.5479 87.7997 55.0164C87.2677 54.485 86.8598 53.8427 86.585 53.0898C86.3057 52.3324 86.1682 51.4998 86.1682 50.5918C86.1682 49.6219 86.3278 48.7582 86.6515 48.0008C86.9795 47.2479 87.4273 46.6057 88.008 46.083C88.5843 45.5604 89.267 45.1618 90.0562 44.8916C90.8408 44.6215 91.6964 44.4886 92.623 44.4886C93.4875 44.4886 94.2987 44.586 95.0524 44.7898C95.8105 44.9891 96.3868 45.1795 96.7902 45.3655V49.4358H94.2455V47.3099C93.7668 47.1992 93.288 47.146 92.8092 47.146C92.3747 47.146 91.9491 47.2124 91.5235 47.3409C91.1024 47.4738 90.7211 47.6819 90.3886 47.9654C90.0606 48.2533 89.7902 48.612 89.5818 49.0416C89.3735 49.4757 89.267 49.9895 89.267 50.5918C89.267 51.0834 89.3513 51.5396 89.5242 51.956C89.6926 52.3723 89.932 52.7355 90.2379 53.0411C90.5482 53.3511 90.9295 53.5947 91.3861 53.7719C91.8383 53.949 92.3437 54.0376 92.9023 54.0376C93.7801 54.0376 94.5027 53.9136 95.0657 53.6656C95.6287 53.4176 96.0499 53.205 96.3247 53.0189L97.3222 55.26ZM97.996 50.5918C97.996 49.6219 98.1423 48.7582 98.4349 48.0008C98.7275 47.2479 99.1442 46.6057 99.6851 46.083C100.226 45.5604 100.869 45.1618 101.618 44.8916C102.367 44.6215 103.201 44.4886 104.127 44.4886C105.098 44.4886 105.967 44.6347 106.729 44.9271C107.496 45.2194 108.139 45.6313 108.662 46.1628C109.19 46.6942 109.584 47.3409 109.855 48.0938C110.125 48.8512 110.258 49.6794 110.258 50.5918C110.258 51.5618 110.112 52.4254 109.819 53.1784C109.527 53.9357 109.11 54.5735 108.569 55.1006C108.033 55.6232 107.386 56.0218 106.641 56.292C105.892 56.5577 105.054 56.695 104.127 56.695C103.156 56.695 102.287 56.5489 101.525 56.2566C100.762 55.9643 100.115 55.5479 99.592 55.0164C99.0689 54.485 98.6699 53.8427 98.3995 53.0898C98.129 52.3324 97.996 51.4998 97.996 50.5918ZM101.095 50.5918C101.095 51.1012 101.166 51.5706 101.303 52.0003C101.445 52.4343 101.645 52.8108 101.906 53.1341C102.168 53.4574 102.487 53.7099 102.855 53.887C103.227 54.0642 103.648 54.1528 104.127 54.1528C105.023 54.1528 105.75 53.8649 106.313 53.298C106.876 52.7266 107.159 51.8231 107.159 50.5918C107.159 49.5288 106.898 48.6696 106.375 48.0141C105.847 47.3586 105.098 47.0309 104.127 47.0309C103.697 47.0309 103.294 47.0973 102.926 47.2257C102.553 47.3586 102.234 47.5712 101.964 47.8635C101.693 48.1558 101.481 48.5279 101.33 48.9708C101.175 49.4181 101.095 49.9585 101.095 50.5918ZM110.378 44.8119H114.315L114.66 46.1982H114.754C115.556 45.0599 116.85 44.4886 118.641 44.4886C119.351 44.4886 120.002 44.5993 120.597 44.8252C121.191 45.0466 121.7 45.3965 122.122 45.8749C122.547 46.3532 122.875 46.9556 123.106 47.6775C123.336 48.4039 123.456 49.272 123.456 50.2906C123.456 51.2783 123.323 52.1686 123.061 52.9614C122.8 53.7542 122.419 54.4274 121.926 54.9854C121.434 55.5391 120.831 55.9643 120.122 56.2566C119.413 56.5489 118.602 56.695 117.693 56.695C117.214 56.695 116.744 56.6596 116.279 56.5888C115.818 56.5223 115.432 56.4072 115.122 56.2566V60.9957H112.116V47.3542H110.378V44.8119ZM117.737 47.0309C117.152 47.0309 116.616 47.177 116.132 47.4693C115.645 47.7617 115.308 48.2001 115.122 48.7892V53.5947C115.339 53.7674 115.654 53.9003 116.061 54.0022C116.469 54.0996 116.882 54.1528 117.298 54.1528C117.733 54.1528 118.132 54.0775 118.5 53.9313C118.872 53.7852 119.196 53.5504 119.475 53.2271C119.75 52.9038 119.967 52.4963 120.122 52.0003C120.277 51.5086 120.353 50.9151 120.353 50.2198C120.353 49.2055 120.104 48.4172 119.612 47.8635C119.12 47.3099 118.495 47.0309 117.737 47.0309Z" fill="#ECECEC"/>
<path d="M11.9608 45.3621C11.6593 45.6012 11.2116 45.7164 10.6175 45.7164C10.1476 45.7164 9.74419 45.65 9.40283 45.5082C9.06147 45.3709 8.79105 45.2115 8.58269 45.0255L9.07034 44.2548C9.14127 44.3168 9.2388 44.3833 9.35407 44.4541C9.47376 44.5294 9.60233 44.5958 9.74862 44.6579C9.89935 44.7154 10.0545 44.7686 10.223 44.8084C10.387 44.8483 10.551 44.866 10.7151 44.866C10.888 44.866 11.0387 44.8394 11.1672 44.7774C11.2914 44.7199 11.3534 44.618 11.3534 44.4763C11.3534 44.37 11.2869 44.2814 11.1539 44.2149C11.0165 44.1485 10.8525 44.0909 10.6574 44.0378C10.4624 43.9802 10.2451 43.9271 10.0102 43.8695C9.77966 43.8119 9.56243 43.7322 9.36293 43.6303C9.17231 43.5284 9.00384 43.4 8.87085 43.245C8.73785 43.0944 8.67135 42.8907 8.67135 42.6471C8.67135 42.4433 8.71569 42.2706 8.80878 42.1156C8.89745 41.9606 9.01714 41.8365 9.17231 41.7302C9.3319 41.6195 9.51366 41.5398 9.73089 41.4867C9.94368 41.4335 10.1786 41.4025 10.4313 41.4025C10.6973 41.4025 10.9323 41.4246 11.1318 41.4645C11.3313 41.4999 11.5086 41.5442 11.6593 41.6018C11.8056 41.655 11.9386 41.717 12.0406 41.7878C12.147 41.8543 12.2401 41.9118 12.3154 41.9694L11.8677 42.6958C11.7835 42.6471 11.6904 42.5939 11.584 42.5452C11.482 42.4965 11.3667 42.4433 11.247 42.4035C11.1318 42.3592 11.0121 42.3237 10.8835 42.2972C10.755 42.2706 10.6264 42.2529 10.5023 42.2529C10.2717 42.2529 10.09 42.2839 9.94812 42.3459C9.80625 42.4035 9.73089 42.4965 9.73089 42.6205C9.73089 42.7179 9.80182 42.7976 9.93482 42.8597C10.0678 42.9217 10.2318 42.9748 10.4313 43.028C10.622 43.0767 10.8392 43.1343 11.0742 43.1918C11.3091 43.2538 11.5219 43.3336 11.7214 43.4266C11.9165 43.5196 12.0805 43.6436 12.2135 43.7986C12.3465 43.9536 12.4174 44.1485 12.4174 44.3832C12.4174 44.804 12.2667 45.1273 11.9608 45.3621ZM10.4978 39.002L0 45.7828L2.42053 48.1214L2.59786 48.0416C7.99751 45.6632 12.9982 45.6632 18.3978 48.0416L18.5796 48.1214L20.9957 45.7828L10.4978 39.002V39.002Z" fill="#ECECEC"/>
<path d="M14.7981 57.5592L14.0888 58.0464L13.7829 57.3156C13.4238 56.3589 12.2756 55.7123 11.5264 55.7123H9.47382C8.71574 55.7123 7.57197 56.3589 7.21732 57.3156L6.90256 58.0641L6.19768 57.5769C5.25784 56.8594 4.74802 56.0533 4.77905 54.729L4.78348 49.9324C6.49914 50.765 8.51624 51.1592 10.4846 51.1769C12.4485 51.1592 14.4656 50.765 16.1857 49.9324L16.1901 54.729C16.2212 56.0533 15.7379 56.8417 14.7981 57.5592ZM7.91776 58.7595C7.61187 58.5469 7.50991 58.1438 7.6695 57.8072L7.69167 57.7585C7.82023 57.4883 8.09066 57.3156 8.38325 57.3156H12.6125C12.9096 57.3156 13.18 57.4883 13.3041 57.7585L13.3307 57.8072C13.4681 58.0995 13.4061 58.445 13.1844 58.6709L11.7569 59.6541C11.3712 59.818 10.919 59.5345 10.919 59.0961V58.5424H10.0767V59.0961C10.0767 59.57 9.55362 59.8623 9.15019 59.6098C9.15019 59.6098 7.95766 58.7905 7.91776 58.7595ZM10.4979 47.1465C8.02416 47.1686 5.546 47.7533 3.07227 48.8428L3.0767 54.7246C3.03237 56.7354 3.83921 57.8825 5.17361 58.9012L8.96843 61.5099C10.059 62.161 10.9412 62.161 12.0273 61.5099L15.8488 58.8835C17.1876 57.8692 17.9634 56.7354 17.9191 54.7246L17.9235 48.8428C15.4498 47.7533 12.9716 47.1686 10.4979 47.1465Z" fill="#ECECEC"/>
<path d="M9.92598 53.1176C9.37627 55.5226 5.56814 55.5757 5.35978 53.3479L5.35535 52.4134C5.31545 51.9794 5.70557 51.6339 6.21539 51.6427L9.04378 51.6737C9.3408 51.6737 9.60679 51.7978 9.77526 51.9838H11.1939C11.3623 51.7978 11.6328 51.6737 11.9298 51.6737L14.7537 51.6427C15.268 51.6339 15.6537 51.9794 15.6138 52.4134L15.6094 53.3479C15.4054 55.5757 11.5929 55.5226 11.0432 53.1176C10.9057 52.5108 10.0501 52.5728 9.92598 53.1176Z" fill="#ECECEC"/>
<path d="M125.992 44.4947H126.396C126.489 44.4947 126.56 44.4682 126.608 44.4062C126.657 44.3442 126.684 44.2777 126.684 44.198C126.684 44.1227 126.657 44.0563 126.608 43.9987C126.56 43.9411 126.489 43.9101 126.396 43.9101H125.992V44.4947ZM125.677 45.4603V43.6311H126.378C126.582 43.6311 126.733 43.6842 126.839 43.7861C126.945 43.888 126.994 44.0075 126.994 44.1404C126.994 44.2511 126.967 44.3442 126.919 44.4239C126.866 44.4992 126.781 44.5612 126.666 44.6055V44.6542C126.759 44.6586 126.826 44.6896 126.866 44.7472C126.91 44.8048 126.928 44.8712 126.928 44.9421V45.4603H126.617V44.9509C126.617 44.8358 126.56 44.7782 126.444 44.7782H125.992V45.4603H125.677ZM126.271 45.9608C126.693 45.9608 127.034 45.8323 127.287 45.5799C127.544 45.323 127.672 44.9864 127.672 44.5612C127.672 44.1404 127.544 43.7994 127.287 43.5469C127.034 43.29 126.693 43.1616 126.271 43.1616C125.855 43.1616 125.513 43.29 125.256 43.5469C124.999 43.7994 124.871 44.1404 124.871 44.5612C124.871 44.9864 124.999 45.323 125.256 45.5799C125.513 45.8323 125.855 45.9608 126.271 45.9608ZM126.271 46.2752C125.939 46.2752 125.646 46.1999 125.385 46.0582C125.123 45.912 124.919 45.7083 124.769 45.4514C124.613 45.1945 124.538 44.8978 124.538 44.5612C124.538 44.229 124.613 43.9323 124.769 43.6754C124.919 43.4141 125.123 43.2147 125.385 43.0686C125.646 42.9224 125.939 42.8516 126.271 42.8516C126.6 42.8516 126.897 42.9224 127.158 43.0686C127.415 43.2147 127.624 43.4141 127.774 43.6754C127.925 43.9323 128 44.229 128 44.5612C128 44.8978 127.925 45.1945 127.774 45.4514C127.624 45.7083 127.415 45.912 127.158 46.0582C126.897 46.1999 126.6 46.2752 126.271 46.2752Z" fill="#ECECEC"/>
</g>
<defs>
<clipPath id="clip0_1467_7178">
<rect width="128" height="23" fill="white" transform="translate(0 39)"/>
</clipPath>
</defs>
</svg>
