<svg width="133" height="100" viewBox="0 0 133 100" fill="none" xmlns="http://www.w3.org/2000/svg">
<path d="M28.1622 55.0616C22.3878 55.0616 17.5469 52.8191 16.4314 49.8558V52.1986C17.5469 55.167 22.3878 57.4076 28.1622 57.4076C33.5885 57.4076 38.1921 55.4288 39.6524 52.7308V50.3814C38.1931 53.0818 33.5917 55.0616 28.1622 55.0616ZM28.1622 58.7841C22.3846 58.7841 17.5437 56.5403 16.4314 53.5727V56.0058C16.954 57.3991 18.3069 58.6372 20.1928 59.5545L7.36588 59.513V41.066H29.134V43.0884H31.8865V41.6291C31.8865 40.3614 30.8636 39.3268 29.6204 39.3268H2.26803C1.02012 39.3268 0 40.3614 0 41.6291V58.9541C0 60.2187 1.02012 61.2522 2.26803 61.2522H29.6204C33.1947 61.2522 38.4039 58.8424 39.6524 56.5316V54.1037C38.1931 56.8041 33.5917 58.7841 28.1622 58.7841ZM20.7369 51.99C21.3117 52.304 21.9663 52.5762 22.6912 52.7968C24.2814 52.1814 26.159 51.825 28.1622 51.825C30.1537 51.825 32.0143 52.1782 33.5981 52.7817C34.3229 52.5592 34.9807 52.2899 35.5715 51.9791C33.6769 50.7859 31.0563 50.0474 28.1622 50.0474C25.2628 50.0474 22.6326 50.7902 20.7369 51.99ZM18.0674 49.1574C18.1855 49.4778 18.3452 49.7856 18.54 50.0783C20.1215 47.7366 23.8386 46.0825 28.1622 46.0825C32.5284 46.0825 36.2836 47.7675 37.8365 50.1505C38.0335 49.894 38.1995 49.6289 38.3368 49.3503C37.2671 46.4655 33.1074 44.3039 28.1622 44.3039C23.3319 44.3039 19.2457 46.3676 18.0674 49.1574ZM37.4172 50.6371C35.6673 48.5581 32.1729 47.1331 28.1622 47.1331C24.176 47.1331 20.6984 48.54 18.9432 50.6009C19.2159 50.9073 19.5329 51.1936 19.8958 51.4578C21.8066 49.912 24.804 48.9126 28.1622 48.9126C31.5225 48.9126 34.5199 49.912 36.4326 51.4578C36.7988 51.2053 37.1298 50.9317 37.4172 50.6371ZM103.326 39.5407V39.2831H98.3063L85.7389 49.643V39.2831H78.3667V61.3405H85.8124V52.0749L95.2992 61.3405H103.7V61.1202L91.6879 49.0595L103.326 39.5407ZM121.201 58.8647C115.039 58.9299 110.541 54.9356 110.541 50.5518C110.539 45.7802 115.154 41.8813 120.814 41.8854C123.445 41.8875 125.908 42.2228 128.369 43.6746C128.442 43.7162 128.508 43.7621 128.578 43.8098H128.989L130 40.6232C127.269 39.5948 124.061 39 120.629 39C110.087 39 102.648 43.9525 102.648 50.0281C102.648 56.1007 107.278 61.6228 120.979 61.6226C124.343 61.6226 126.962 61.0508 129.438 60.1963L130 57.3916H129.689C127.339 58.4656 124.342 58.8811 121.201 58.8647ZM57.1789 58.604L53.115 58.6063V42.0035H57.5812C63.8774 42.0035 67.1255 45.7587 67.1255 50.0472C67.1255 56.7134 61.9289 58.4102 57.1789 58.604ZM69.6931 41.4841C67.5217 40.0163 63.2747 39.2414 58.5658 39.2704L45.2384 39.2831V61.3395L57.8782 61.3405H58.0059C58.7425 61.3405 59.7941 61.3054 61.1555 61.2362C62.5179 61.1692 64.7532 61.017 66.2582 60.6199C71.5153 59.2311 74.9171 55.0672 74.9171 50.126C74.9171 47.0201 73.3014 43.5099 69.6931 41.4841Z" fill="#ECECEC"/>
</svg>
