<svg width="133" height="100" viewBox="0 0 133 100" fill="none" xmlns="http://www.w3.org/2000/svg">
<g clip-path="url(#clip0_1467_7401)">
<path d="M1 39.2188V61.7809L21.0255 50.4994L1 39.2188Z" fill="#ECECEC"/>
<path d="M30.9376 49.8142C31.2966 49.4401 31.6852 49.0316 32.1027 48.5904L33.6074 47.0072C34.1236 46.4645 34.6292 45.9261 35.1262 45.3904C35.6196 44.8572 36.0833 44.367 36.506 43.9266C36.5648 43.8724 36.6083 43.8042 36.6323 43.7286C36.6563 43.6529 36.6601 43.5724 36.6431 43.4949C36.6082 43.3203 36.4484 43.1449 36.1759 43.1449H35.2842C35.1989 43.1449 35.1148 43.1644 35.0384 43.2019C34.962 43.2393 34.8955 43.2937 34.8441 43.3608C34.4458 43.7736 34.0188 44.2268 33.5629 44.7178L30.8075 47.6754C30.3665 48.151 29.963 48.5801 29.6041 48.9568C29.5386 49.0204 29.5028 49.0445 29.5036 49.0462C29.4375 49.0563 29.3705 49.0603 29.3036 49.0583H28.7796V43.6385C28.7796 43.3522 28.5753 43.1449 28.2932 43.1449H27.5404C27.4762 43.1424 27.4122 43.1529 27.3523 43.1758C27.2924 43.1987 27.2379 43.2335 27.1923 43.2781C27.1467 43.3226 27.1108 43.3759 27.087 43.4347C27.0632 43.4934 27.052 43.5564 27.0539 43.6196V56.2393C27.0539 56.5368 27.267 56.7527 27.5605 56.7527H28.2941C28.5753 56.7527 28.7796 56.5446 28.7796 56.2582V50.6647H29.2635C29.3525 50.6647 29.4015 50.6716 29.4119 50.6665C29.4285 50.6794 29.4635 50.7069 29.5211 50.7619L35.2126 56.5059C35.313 56.6357 35.4266 56.7114 35.5515 56.7355C35.61 56.7467 35.6711 56.7527 35.7401 56.7527H36.7296C36.8341 56.756 36.9364 56.7229 37.0186 56.6592C37.1007 56.5955 37.1573 56.5052 37.1785 56.4044C37.1956 56.3281 37.1926 56.2488 37.1698 56.174C37.147 56.0992 37.1052 56.0314 37.0484 55.977L30.9376 49.8151" fill="#ECECEC"/>
<path d="M45.6898 44.3628C45.2444 43.9698 44.6854 43.6576 44.0322 43.4357C43.3859 43.2164 42.6357 43.1055 41.8052 43.1055C40.8544 43.1056 39.9037 43.1248 38.9537 43.1631C38.6708 43.1631 38.4673 43.3712 38.4673 43.6567V56.2781C38.4673 56.5533 38.6708 56.7528 38.9537 56.7528H39.7065C39.7707 56.7552 39.8346 56.7446 39.8944 56.7216C39.9542 56.6986 40.0085 56.6638 40.054 56.6193C40.0996 56.5748 40.1353 56.5215 40.1591 56.4628C40.1828 56.4041 40.1941 56.3412 40.1921 56.2781V52.0254C40.2672 52.028 40.3458 52.0323 40.4279 52.0366C40.6768 52.0503 41.0558 52.0563 41.5676 52.0563C42.2663 52.0594 42.962 51.9668 43.6348 51.7811C44.2686 51.6101 44.8639 51.3227 45.3893 50.934C45.8983 50.549 46.3116 50.0549 46.598 49.4892C46.8949 48.9105 47.0452 48.2293 47.0452 47.4648C47.0452 46.8628 46.9316 46.2909 46.7081 45.7654C46.4799 45.2287 46.1319 44.7496 45.6898 44.3636M45.3203 47.5044C45.3203 48.0444 45.2216 48.5028 45.0269 48.8657C44.8403 49.2215 44.5684 49.527 44.2348 49.7558C43.8942 49.9906 43.4968 50.1635 43.0523 50.2675C42.5885 50.3759 42.089 50.4309 41.5676 50.4309C41.1091 50.4318 40.6505 50.4261 40.1921 50.4137V44.7309C40.3205 44.724 40.4629 44.718 40.6218 44.7119C41.3187 44.6861 42.3842 44.6431 43.2226 44.8805C43.6462 45.0018 44.0199 45.1815 44.3308 45.4154C44.633 45.6442 44.8758 45.9357 45.054 46.2814C45.2313 46.6263 45.3203 47.0382 45.3203 47.5044Z" fill="#ECECEC"/>
<path d="M58.604 43.1449H57.7918C57.5805 43.1449 57.3988 43.2524 57.3316 43.3891L52.1012 51.0044C51.8366 51.3923 51.5719 51.7827 51.3091 52.1766C51.0436 52.5705 50.792 52.948 50.5536 53.3101L50.2305 53.8072C50.234 53.5552 50.2366 53.2912 50.2366 53.0125V43.6196C50.2386 43.5564 50.2273 43.4934 50.2035 43.4347C50.1797 43.3759 50.1439 43.3226 50.0982 43.2781C50.0526 43.2335 49.9981 43.1987 49.9383 43.1758C49.8784 43.1529 49.8144 43.1424 49.7502 43.1449H48.9982C48.9354 43.1444 48.8732 43.1564 48.8152 43.1803C48.7573 43.2041 48.7048 43.2393 48.6611 43.2837C48.6173 43.328 48.5832 43.3807 48.5606 43.4384C48.5381 43.4962 48.5278 43.5578 48.5301 43.6196V56.2582C48.5301 56.5437 48.7353 56.7527 49.0166 56.7527H49.889C50.0637 56.7527 50.2226 56.6718 50.3493 56.5084L55.5019 49.0436L57.0652 46.7062C57.1805 46.535 57.2888 46.3699 57.391 46.2099C57.3723 46.9729 57.3635 47.7361 57.3648 48.4993V56.2771C57.3648 56.5523 57.5682 56.7518 57.8512 56.7518H58.6031C58.6659 56.7523 58.7281 56.7403 58.786 56.7164C58.8439 56.6926 58.8963 56.6574 58.94 56.613C58.9837 56.5686 59.0178 56.5159 59.0402 56.4582C59.0626 56.4005 59.0729 56.3389 59.0704 56.2771V43.6196C59.0704 43.3504 58.8695 43.1466 58.6031 43.1466" fill="#ECECEC"/>
<path d="M71.0523 43.1449H61.7818C61.7177 43.1425 61.6538 43.1531 61.5941 43.1761C61.5344 43.1991 61.4801 43.2339 61.4346 43.2785C61.3892 43.323 61.3535 43.3763 61.3298 43.435C61.3062 43.4937 61.295 43.5565 61.2971 43.6196V56.2582C61.2971 56.5437 61.5006 56.7527 61.7818 56.7527H62.5355C62.8176 56.7527 63.0228 56.5446 63.0228 56.2582V44.7686H69.813V56.2771C69.813 56.5523 70.0165 56.7518 70.2994 56.7518H71.0523C71.1164 56.7542 71.1803 56.7436 71.2401 56.7206C71.2999 56.6977 71.3542 56.6628 71.3997 56.6183C71.4453 56.5738 71.481 56.5205 71.5048 56.4618C71.5285 56.4031 71.5398 56.3403 71.5378 56.2771V43.6385C71.5378 43.353 71.3343 43.1449 71.0523 43.1449ZM83.1593 44.7462L83.2754 44.6138C83.3214 44.5602 83.3545 44.4972 83.3724 44.4293C83.3902 44.3614 83.3923 44.2904 83.3785 44.2216L83.2737 43.544C83.253 43.4297 83.1914 43.3266 83.1 43.2534C83.0087 43.1802 82.8936 43.1417 82.7759 43.1449H73.2303C73.0173 43.1449 72.8339 43.2748 72.7352 43.5328L72.571 44.2165C72.5562 44.2859 72.5577 44.3578 72.5752 44.4266C72.5928 44.4954 72.626 44.5594 72.6723 44.6138L72.8531 44.7703H77.1211V56.2582C77.1211 56.5437 77.3341 56.7527 77.6276 56.7527H78.3402C78.6337 56.7527 78.8468 56.5446 78.8468 56.2582V44.7703H82.9147L83.1593 44.7462ZM94.7799 47.1732C94.4943 46.3303 94.0768 45.5925 93.5371 44.9776C92.9954 44.3597 92.3284 43.8602 91.5791 43.5113C90.1232 42.8259 88.1329 42.7803 86.5513 43.4571C85.7995 43.7786 85.1265 44.2552 84.5776 44.8546C84.0239 45.4557 83.5855 46.1936 83.2728 47.0484C82.9619 47.8981 82.8038 48.8631 82.8038 49.9191C82.8038 50.9064 82.9436 51.8352 83.2187 52.6815C83.4759 53.4983 83.8937 54.2575 84.4483 54.9157C84.9918 55.5493 85.6693 56.0582 86.4334 56.407C87.208 56.7656 88.0971 56.9453 89.0735 56.9453C89.9267 56.9453 90.7398 56.7905 91.4926 56.4809C92.2469 56.1723 92.9205 55.6995 93.4629 55.0981C94.0104 54.4969 94.441 53.7479 94.7484 52.8732C95.0506 52.0046 95.2052 50.9984 95.2052 49.8804C95.212 48.9614 95.0683 48.0472 94.7799 47.1732ZM93.4594 49.8994C93.4594 50.725 93.3581 51.4861 93.1581 52.1629C92.9616 52.8285 92.6708 53.4021 92.2943 53.8708C91.9291 54.3275 91.4609 54.6941 90.9267 54.9415C90.3879 55.1927 89.7652 55.3199 89.0735 55.3199C88.3355 55.3199 87.6788 55.1746 87.1251 54.8899C86.575 54.6112 86.0947 54.2155 85.719 53.7315C85.3247 53.2136 85.0301 52.6289 84.85 52.0064C84.6473 51.3222 84.5459 50.6129 84.5487 49.9002C84.5487 49.0084 84.671 48.2198 84.9138 47.5533C85.1531 46.8945 85.4771 46.3381 85.8771 45.9004C86.2736 45.4678 86.7417 45.1349 87.2666 44.9139C87.8071 44.6884 88.3887 44.574 88.9757 44.5777C89.6377 44.5777 90.2499 44.711 90.794 44.9733C91.3375 45.235 91.8169 45.6097 92.1992 46.0715C92.6085 46.5744 92.9216 47.1464 93.1231 47.7597C93.3458 48.4133 93.4594 49.1322 93.4594 49.9002" fill="#ECECEC"/>
<path d="M106.816 43.1446H97.5472C97.483 43.1421 97.419 43.1526 97.3591 43.1755C97.2992 43.1984 97.2448 43.2332 97.1992 43.2778C97.1535 43.3223 97.1177 43.3756 97.0939 43.4343C97.0701 43.4931 97.0588 43.5561 97.0608 43.6193V56.2578C97.0608 56.5434 97.2651 56.7523 97.5472 56.7523H98.3C98.5821 56.7523 98.7865 56.5442 98.7865 56.2578V44.7682H105.578V56.2768C105.578 56.552 105.782 56.7515 106.064 56.7515H106.815C106.879 56.7541 106.943 56.7437 107.003 56.7208C107.063 56.698 107.118 56.6632 107.164 56.6186C107.209 56.5741 107.245 56.5207 107.269 56.4619C107.293 56.4031 107.304 56.3401 107.302 56.2768V43.6382C107.302 43.3527 107.098 43.1446 106.816 43.1446ZM117.256 44.3632C116.811 43.9702 116.253 43.658 115.598 43.4361C114.952 43.2168 114.203 43.1059 113.373 43.1059C112.762 43.1059 112.194 43.1127 111.67 43.1256C111.143 43.1385 110.753 43.1514 110.521 43.1635C110.238 43.1635 110.033 43.3716 110.033 43.6571V56.2785C110.033 56.5537 110.238 56.7532 110.521 56.7532H111.273C111.337 56.7557 111.401 56.7452 111.461 56.7223C111.52 56.6994 111.575 56.6645 111.62 56.62C111.666 56.5754 111.702 56.5221 111.725 56.4634C111.749 56.4046 111.76 56.3417 111.758 56.2785V52.0258C111.833 52.0284 111.912 52.0327 111.994 52.037C112.243 52.0507 112.623 52.0567 113.135 52.0567C113.834 52.0595 114.529 51.9669 115.202 51.7815C115.836 51.6105 116.431 51.3231 116.957 50.9344C117.466 50.5494 117.878 50.0553 118.164 49.4896C118.461 48.9109 118.611 48.2297 118.611 47.4652C118.611 46.8658 118.498 46.293 118.276 45.765C118.047 45.2286 117.698 44.7498 117.256 44.364M116.886 47.5048C116.886 48.044 116.788 48.5024 116.594 48.8661C116.401 49.2282 116.134 49.5283 115.803 49.7571C115.462 49.991 115.065 50.1639 114.619 50.2679C114.156 50.3763 113.657 50.4313 113.134 50.4313C112.676 50.4322 112.217 50.4265 111.758 50.4141V44.7313C111.886 44.7252 112.029 44.7184 112.189 44.7123C112.885 44.6865 113.953 44.6435 114.788 44.8809C115.214 45.0022 115.587 45.1819 115.898 45.4175C116.201 45.6437 116.443 45.9353 116.62 46.2818C116.796 46.6267 116.886 47.0386 116.886 47.5048ZM131.573 47.1728C131.289 46.3317 130.871 45.593 130.332 44.9772C129.79 44.3594 129.122 43.8599 128.372 43.5109C127.611 43.1523 126.742 42.9708 125.789 42.9708C124.949 42.9651 124.117 43.1305 123.345 43.4567C122.594 43.7783 121.921 44.2548 121.372 44.8542C120.817 45.4571 120.378 46.1958 120.068 47.0481C119.756 47.8961 119.6 48.861 119.6 49.9188C119.6 50.9078 119.739 51.8366 120.014 52.682C120.291 53.5377 120.707 54.2902 121.244 54.9154C121.787 55.5489 122.463 56.0578 123.227 56.4066C124.003 56.7652 124.891 56.945 125.869 56.945C126.721 56.945 127.534 56.7902 128.288 56.4806C129.042 56.1715 129.715 55.6988 130.258 55.0977C130.805 54.4957 131.236 53.7475 131.543 52.8729C131.847 52.0043 131.999 50.9981 131.999 49.8801C132.006 48.961 131.862 48.0468 131.573 47.1728ZM130.254 49.899C130.254 50.7229 130.152 51.484 129.953 52.1625C129.756 52.829 129.464 53.4035 129.089 53.8705C128.724 54.3267 128.256 54.6933 127.723 54.9412C127.183 55.1923 126.559 55.3196 125.869 55.3196C125.13 55.3196 124.474 55.1742 123.921 54.8896C123.371 54.6106 122.89 54.215 122.513 53.7312C122.119 53.2132 121.825 52.6285 121.646 52.006C121.442 51.3217 121.341 50.612 121.344 49.899C121.344 49.0063 121.466 48.2168 121.708 47.5521C121.946 46.895 122.27 46.3386 122.671 45.9C123.056 45.4752 123.531 45.1383 124.062 44.9127C124.602 44.6873 125.183 44.5729 125.769 44.5765C126.433 44.5765 127.044 44.7098 127.588 44.9721C128.132 45.2336 128.611 45.608 128.994 46.0694C129.386 46.5416 129.696 47.11 129.916 47.7593C130.141 48.4103 130.254 49.1302 130.254 49.8999" fill="#ECECEC"/>
<path d="M44.8414 59.6625L44.6449 60.089C41.1612 65.8269 34.7894 69.3873 27.9861 69.3873C20.4623 69.3873 13.5604 65.0538 10.4033 58.3492L8.01123 59.5618C11.6251 67.1178 19.4659 72 27.9861 72C35.5151 72 42.4075 68.3158 46.499 62.1272L132 62.1255V59.6607L44.8414 59.6625ZM44.1864 40.2187H47.3182C45.4106 36.8159 42.6104 33.9798 39.2099 32.0064C35.8094 30.033 31.9332 28.9948 27.9861 29C19.4659 29 11.6251 33.8822 8.01298 41.4391L10.4033 42.6517C13.5595 35.9445 20.4615 31.6118 27.9861 31.6118C34.5064 31.6118 40.6241 34.8902 44.1882 40.2179" fill="#ECECEC"/>
</g>
<defs>
<clipPath id="clip0_1467_7401">
<rect width="131" height="43" fill="white" transform="translate(1 29)"/>
</clipPath>
</defs>
</svg>
