<svg width="133" height="100" viewBox="0 0 133 100" fill="none" xmlns="http://www.w3.org/2000/svg">
<g clip-path="url(#clip0_1467_7576)">
<path fill-rule="evenodd" clip-rule="evenodd" d="M94.0227 41.0732C99.2455 39.7666 99.7932 47.3249 95.2152 48.462C92.7689 49.0697 90.999 47.571 90.949 45.4204C90.8989 43.2591 92.2518 41.5163 94.0227 41.0732ZM67.3684 67.2789L68.9359 67.2945C69.5347 66.3094 72.82 60.7703 73.2155 60.4625C73.6109 61.1761 74.0871 62.9621 74.3794 63.8207C74.737 64.8744 75.1713 66.3359 75.5903 67.2877L77.1221 67.3024C77.1303 66.8446 74.0493 57.5631 73.6855 57.2867C73.1685 57.3916 72.2958 59.1109 71.9974 59.599C71.466 60.4665 70.9602 61.2644 70.4135 62.1475C69.9843 62.8425 67.4052 66.8623 67.3684 67.2789ZM95.0058 61.8966C95.4768 61.4535 95.9162 61.1654 96.4047 60.7762C96.9136 60.3694 100.471 57.7993 100.658 57.3818C100.057 57.0995 98.6221 57.2348 98.2206 57.5494C97.586 58.0454 94.127 60.887 93.5149 61.135L93.9951 57.321L92.7761 57.3122C92.4419 57.3877 92.7331 57.2622 92.5267 57.423C92.3663 57.6915 91.0828 66.6172 91.1268 67.2985L92.6115 67.2936C92.7709 66.5564 92.8445 65.8164 92.9631 65.0224C93.0622 64.3549 93.0479 63.3434 93.4556 62.917C93.8838 62.9895 93.7908 63.0885 94.0994 63.4237L96.6101 66.2055C96.9218 66.5819 97.2764 66.9515 97.5655 67.3004L99.5664 67.2857C99.4969 66.8152 97.725 65.0607 97.2876 64.5441L95.0058 61.8966ZM127.191 58.5659C132.565 57.422 132.852 65.2547 127.964 66.082C122.667 66.9789 122.198 59.6284 127.191 58.5659ZM132.86 63.0718C134.336 55.7439 123.693 54.9558 122.301 61.58C120.749 68.9717 131.563 69.5019 132.86 63.0718ZM57.8006 60.1469C58.4516 59.746 58.5905 59.3108 59.5961 58.8805C61.7736 57.9493 65.1427 58.4041 65.3859 61.4653L60.8754 61.4947L60.7651 62.7797L65.247 62.7954C64.8944 64.4461 63.5691 65.6556 61.8809 66.032C59.1383 66.6447 58.2789 65.4596 57.1906 64.4412L55.9633 65.1704C56.6234 68.3424 66.0359 69.101 66.9422 62.6611C67.3612 59.6862 65.8049 57.7748 63.4025 57.2083C60.8243 56.6006 57.493 57.8297 56.741 59.4137C56.9831 59.7215 57.3796 59.9538 57.8006 60.1469ZM80.6087 61.3408C80.9827 59.8734 82.5104 58.6521 84.2741 58.4933C86.3168 58.31 87.8486 59.5235 87.9242 61.3428L80.6087 61.3408ZM80.3001 62.6827C81.6459 62.5788 89.0892 62.7935 89.3303 62.5651C89.6859 62.2279 89.3743 60.5272 89.2312 60.0911C88.2523 57.0985 84.3283 56.0115 81.3434 58.0679C78.9941 59.6862 77.6228 63.1414 79.9424 66.0536C81.8778 68.4825 86.7593 67.6631 88.2962 65.5086C88.1051 65.091 87.6473 64.7862 87.2181 64.5941C86.5989 65.0616 86.4885 65.4429 85.4544 65.8468C83.1572 66.7456 80.298 65.8664 80.3001 62.6827ZM5.09991 63.2973L32.6607 63.9452C32.3419 64.5676 29.3457 66.5006 28.8869 67.2181C27.7067 67.221 13.5456 64.7107 11.0574 64.3079C9.1322 63.9962 6.97708 63.707 5.09991 63.2973ZM6.4733 57.7543C6.82073 56.6349 7.48699 55.2312 7.97135 54.1667C13.4291 42.1681 20.3114 30.4606 28.3259 20.0764C30.9439 16.6849 32.4716 15.0833 35.1561 12.0682C35.5423 11.6339 36.04 11.2154 36.4314 10.8106C36.7849 10.4459 37.2744 9.87939 37.7169 9.64611L26.9362 62.618L6.4733 57.7543ZM34.8127 32.4632C34.8424 31.5398 39.1148 10.8968 39.6175 8.5522C39.8291 7.56514 40.2347 5.98016 40.2961 5.00977C39.5 5.46066 36.1289 8.95016 35.0713 9.84607C34.4152 10.4018 34.0678 10.9772 33.3831 11.6114C32.863 12.0937 32.3091 12.8259 31.7962 13.363C30.7222 14.4902 28.2196 17.5965 27.209 18.8972C25.2654 21.3987 23.423 23.9668 21.5438 26.6692L19.5726 29.6314C18.6764 31.0066 18.9646 30.2871 16.0666 31.2311C9.21497 33.462 3.18391 39.1305 0.928651 46.5133C-1.45025 54.3 1.01755 62.3965 5.17246 67.2259C12.5319 75.7801 24.5092 78.5178 34.8883 73.4463C40.9879 70.4674 45.5127 65.1165 47.2437 58.7737C49.7596 49.5539 46.3067 40.9193 39.0739 35.047C38.2922 34.4128 35.9521 32.8121 34.8127 32.4632ZM108.277 57.2896C107.11 57.2534 102.142 57.1201 101.423 57.3504C101.28 57.6611 101.211 58.1679 101.253 58.6051L103.856 58.6129C103.734 60.3743 102.609 66.4114 102.735 67.2975L103.907 67.2818C104.255 67.222 104.045 67.2641 104.17 67.1936C104.422 66.7103 105.31 59.7421 105.442 58.6129L108.155 58.5855L108.277 57.2896ZM114.818 58.5022C117.276 58.0542 119.11 59.498 119.103 61.7839C119.097 63.9628 117.532 65.6439 115.672 66.0428C110.05 67.2504 109.576 59.4559 114.818 58.5022ZM111.986 57.3298C111.709 57.2828 111.506 57.2749 111.221 57.2759C110.815 57.2779 110.77 57.2524 110.499 57.3759C110.278 57.8297 108.675 69.5441 108.589 70.8703C109.121 70.883 109.672 70.9281 110.177 70.7978L110.878 65.738C111.634 66.4124 111.93 67.0054 113.281 67.3828C114.412 67.6994 115.801 67.5651 116.834 67.1602C123.025 64.7323 121.219 55.8174 114.616 57.1456C113.297 57.4102 112.804 57.9052 111.884 58.4443L111.986 57.3298ZM130.273 48.8031C130.011 48.5473 128.094 47.2671 127.816 47.1563C127.091 47.5906 127.149 47.9376 126.02 48.3228C123.562 49.1618 120.22 48.1601 120.747 44.746C121.389 40.5733 126.963 40.3342 128.245 42.5151C128.732 42.4083 130.693 41.3712 131.054 41.1007C129.672 38.9109 126.768 37.5357 123.036 38.4708C120.35 39.1432 118.066 41.3271 117.596 44.3216C116.651 50.3459 122.333 52.42 126.848 51.036C128.082 50.6586 129.98 49.5549 130.273 48.8031ZM103.475 55.689L106.855 55.7017C107.179 55.0146 107.683 54.2569 108.096 53.5904L117.084 38.5355L113.695 38.5228C113.045 39.3197 110.077 44.7509 109.223 45.8703C108.914 45.5302 106.694 38.7511 106.632 38.5296L103.494 38.5257C103.687 39.5069 106.023 46.0625 106.552 47.6396C107.244 49.7009 107.408 49.0128 105.739 51.7839L103.475 55.689ZM55.9858 51.0958L59.2813 51.1056L60.6251 41.5682L65.3113 41.579L63.9962 51.0889L67.2141 51.1036C67.4522 50.6802 69.0044 39.7284 69.0412 38.5188L59.3304 38.5218C57.3806 38.5188 57.7945 38.2052 57.537 39.997C57.0107 43.661 56.3772 47.4377 55.9858 51.0958ZM77.6105 41.1115C82.8118 40.2136 82.5819 47.9268 78.1603 48.61C72.9386 49.4167 72.821 41.9388 77.6105 41.1115ZM80.6199 49.8333L80.4697 51.0967L83.6743 51.0997L85.3614 38.5345L82.1415 38.5218L81.9105 40.1999C81.1748 39.4128 80.6608 38.6943 79.175 38.3414C75.7497 37.5269 71.7757 40.1764 71.0675 44.0452C69.9905 49.9235 75.9163 53.3541 79.8975 50.3587C80.1713 50.1528 80.344 49.9597 80.6199 49.8333ZM91.84 39.7745L91.9974 38.5179C91.2238 38.5179 89.4325 38.4061 88.8276 38.6002L86.4793 55.6998L89.7115 55.7076L90.5627 49.4226C91.2698 50.1175 91.6285 50.8625 93.2482 51.2722C96.7 52.1446 100.69 49.4177 101.405 45.5782C102.513 39.6078 96.4057 36.3124 92.5676 39.2628C92.2641 39.4951 92.1783 39.6255 91.84 39.7745Z" fill="#ECECEC"/>
</g>
<defs>
<clipPath id="clip0_1467_7576">
<rect width="133" height="71" fill="white" transform="translate(0 5)"/>
</clipPath>
</defs>
</svg>
