<svg width="133" height="100" viewBox="0 0 133 100" fill="none" xmlns="http://www.w3.org/2000/svg">
<path d="M20.5199 30.084H41.4017L37.2877 35.1594H24.5702L20.5199 30.084ZM41.3835 40.2245L20.5086 40.1847L16.3968 45.2748L37.2797 45.3021L41.3823 40.2245H41.3835ZM12.2863 50.3605H20.4881L8.24279 65.5672L0 65.5616L12.2863 50.3605ZM37.2922 75.7237L49.6035 60.4907H28.674L32.8221 55.421H53.6629L57.7894 50.3605H28.7388L16.4515 65.5616H37.2888L33.1885 70.6392L12.3352 70.646L8.24165 75.7237" fill="#1E3B71"/>
<path d="M49.604 60.4912H28.6745L32.8226 55.4215H45.5059L49.604 60.4912ZM12.3357 70.6454L8.24328 65.5689L29.0852 65.5643L33.189 70.6385L12.3357 70.6454ZM20.4886 50.3609H12.2867L8.20801 45.3015L16.3973 45.2765L20.4886 50.3609ZM41.4033 30.0845L37.2927 25H8.23873L20.5102 40.1852L41.3828 40.225L45.4843 45.3015H24.6458L28.7382 50.3609H57.7899L45.5048 35.1599H24.5719L20.5216 30.0845" fill="#2FA2DC"/>
<path d="M100.644 32.2101V40.784H86.5829C85.1517 40.784 85.1505 46.0755 86.5829 46.0755H94.4924C104.892 46.0755 104.889 68.516 94.4924 68.516H79.1843V59.9409H93.2466C94.6812 59.9409 94.6767 54.6471 93.2466 54.6471H85.3405C74.944 54.6471 74.9383 32.209 85.3405 32.209" fill="#1E3B71"/>
<path d="M73.4998 32.2051H64.9248V68.5098H73.4998V32.2051Z" fill="#1E3B71"/>
<path d="M127.354 32.2101V40.784H113.292C111.862 40.784 111.857 46.0755 113.292 46.0755H121.2C131.602 46.0755 131.598 68.516 121.2 68.516H105.894V59.9409H119.955C121.391 59.9409 121.387 54.6471 119.955 54.6471H112.048C101.653 54.6471 101.648 32.209 112.048 32.209" fill="#1E3B71"/>
</svg>
