<svg width="133" height="100" viewBox="0 0 133 100" fill="none" xmlns="http://www.w3.org/2000/svg">
<g clip-path="url(#clip0_1467_8560)">
<path d="M43.6885 39.9464H81.5508V31.621H43.6885V39.9464ZM43.6885 24.3123H81.5508V16H43.6885V24.3123Z" fill="#47C2C7"/>
<path d="M13.4711 73.1698C11.9899 73.7319 10.4237 74.0066 8.84889 73.9805C3.20091 73.9805 0.376953 71.1118 0.376953 65.3746C0.376953 59.95 3.20091 57.2362 8.84889 57.2333C10.425 57.2142 11.9913 57.4963 13.4711 58.0658V60.8351C12.0799 60.2142 10.5818 59.901 9.07018 59.915C5.29279 59.915 3.40416 61.7422 3.40416 65.3966C3.40416 69.3606 5.29279 71.3441 9.07018 71.347C10.5821 71.3595 12.0802 71.0447 13.4711 70.4225V73.1698Z" fill="#D8D8D8"/>
<path d="M30.9115 73.1692V70.3999C32.6276 71.04 34.439 71.3531 36.2602 71.3244C38.6735 71.3244 39.8803 70.4773 39.8803 68.783C39.8803 67.5532 39.1385 66.9369 37.6548 66.9339H35.1913C31.9734 66.9339 30.3631 65.3945 30.3604 62.3155C30.3604 58.9269 32.6526 57.2327 37.2372 57.2327C38.9378 57.2226 40.629 57.4962 42.2478 58.0433V60.8126C40.6435 60.1934 38.9464 59.8817 37.2372 59.8924C34.5942 59.8924 33.2789 60.6987 33.2789 62.3155C33.2789 63.5483 33.9164 64.1646 35.1913 64.1646H37.6548C41.0814 64.1646 42.7947 65.7041 42.7947 68.783C42.7947 72.2505 40.6166 73.9827 36.2602 73.9798C34.4477 74.007 32.6426 73.7334 30.9115 73.1692Z" fill="#D8D8D8"/>
<path d="M26.4269 65.5138C27.7296 64.8653 28.4102 63.7084 28.4812 62.0521C28.4812 61.9557 28.4812 61.8594 28.4812 61.7585C28.4812 58.7585 26.5187 57.257 22.5938 57.2541C22.4477 57.2541 22.3057 57.2541 22.1763 57.2541H22.1261C21.9592 57.2541 21.7921 57.2541 21.6168 57.2541C19.9163 57.2448 18.2252 57.5183 16.6063 58.0647V60.834C17.0576 60.6616 17.5176 60.5153 17.9842 60.3958C19.1694 60.0758 20.3888 59.9153 21.6126 59.9183C21.7921 59.9183 21.9508 59.9183 22.1178 59.9183C24.36 60.019 25.5124 60.7946 25.5625 62.2362C25.5124 63.52 24.8026 64.1729 23.4248 64.1729H19.6376V66.8283H23.4665C24.875 66.8283 25.5793 67.5192 25.5793 68.9009C25.5793 70.4082 24.4185 71.2013 22.1261 71.3065H22.0886C21.9258 71.3065 21.7755 71.3065 21.6 71.3065C20.3762 71.3094 19.1569 71.1489 17.9717 70.8289C17.505 70.7093 17.0451 70.5631 16.5938 70.3907V73.1599C18.2126 73.7064 19.9037 73.98 21.6043 73.9706C21.7796 73.9706 21.9467 73.9706 22.1136 73.9706H22.1638C22.3099 73.9706 22.4519 73.9706 22.5813 73.9706C26.5062 73.9706 28.4686 72.3917 28.4686 69.2339C28.4686 69.1725 28.4686 69.12 28.4686 69.0586C28.4436 67.319 27.7588 66.1228 26.4269 65.5138Z" fill="#D8D8D8"/>
<path d="M44.335 67.744C44.335 63.6777 46.2431 61.6445 50.0594 61.6445C53.8758 61.6445 55.7825 63.6777 55.7797 67.744C55.7797 71.8073 53.8743 73.839 50.0636 73.839C46.2529 73.839 44.3433 71.8073 44.335 67.744ZM50.0636 71.4948C51.9342 71.4948 52.8694 70.2284 52.8694 67.6957C52.8694 65.2244 51.9342 63.9888 50.0636 63.9888C48.193 63.9888 47.2563 65.2273 47.2535 67.7045C47.2535 70.2313 48.1902 71.4948 50.0636 71.4948Z" fill="#D8D8D8"/>
<path d="M60.5361 57.293V73.8035H57.6133V57.293H60.5361Z" fill="#D8D8D8"/>
<path d="M73.53 61.6797V73.8041H70.8998V72.2573C69.6917 73.2466 68.2067 73.7903 66.6744 73.8041C64.3112 73.8041 63.1289 72.3435 63.1289 69.4223V61.6797H66.0518V69.3258C66.0518 70.6404 66.6071 71.3327 67.7222 71.3327C68.785 71.2871 69.802 70.869 70.6114 70.1452V61.6797H73.53Z" fill="#D8D8D8"/>
<path d="M76.1152 59.7168H78.7125V61.6799H81.6353V64.1029H79.046V69.6809C79.046 70.8144 79.514 71.3811 80.4494 71.3811H81.6353V73.8042H79.0381C77.0893 73.8042 76.1152 72.7146 76.1152 70.5354V59.7168Z" fill="#D8D8D8"/>
<path d="M86.5147 57.293V59.7161H83.5918V57.293H86.5147ZM86.5147 61.6747V73.7991H83.5918V61.6791L86.5147 61.6747Z" fill="#D8D8D8"/>
<path d="M88.7158 67.744C88.7158 63.6777 90.6224 61.6445 94.4356 61.6445C98.2495 61.6445 100.16 63.6777 100.169 67.744C100.169 71.8073 98.2581 73.839 94.4356 73.839C90.6139 73.839 88.7073 71.8073 88.7158 67.744ZM94.4356 71.4948C96.3064 71.4948 97.2418 70.2284 97.2418 67.6957C97.2418 65.2244 96.3064 63.9888 94.4356 63.9888C92.5655 63.9888 91.6301 65.2273 91.6301 67.7045C91.6301 70.2313 92.5655 71.4948 94.4356 71.4948Z" fill="#D8D8D8"/>
<path d="M102.361 73.8041V61.6797H104.616L104.979 63.4587C105.458 62.9036 106.042 62.4589 106.693 62.1527C107.344 61.8465 108.049 61.6854 108.762 61.6797C111.501 61.6797 112.87 63.1738 112.867 66.1622V73.8041H109.944V66.1622C109.944 64.8214 109.309 64.151 108.04 64.151C107.01 64.1851 106.026 64.6066 105.268 65.3385V73.8041H102.361Z" fill="#D8D8D8"/>
<path d="M115.618 73.2313V70.6855C117.037 71.2525 118.547 71.5276 120.065 71.4961C121.323 71.4961 121.951 71.0726 121.948 70.2254C121.946 69.3783 121.528 68.9752 120.695 69.0161H118.608C116.261 69.0161 115.088 67.8038 115.088 65.3792C115.088 62.8378 116.8 61.5656 120.224 61.5627C121.621 61.5552 123.009 61.7906 124.332 62.2594V64.8008C123.003 64.2531 121.585 63.9779 120.157 63.9902C118.578 63.9902 117.79 64.4138 117.79 65.2609C117.79 66.108 118.248 66.5126 119.167 66.4746H121.038C123.605 66.4746 124.888 67.687 124.888 70.1115C124.888 72.653 123.252 73.9222 119.982 73.9193C118.501 73.9447 117.027 73.7123 115.618 73.2313Z" fill="#D8D8D8"/>
</g>
<defs>
<clipPath id="clip0_1467_8560">
<rect width="133" height="100" fill="white"/>
</clipPath>
</defs>
</svg>
