<svg width="133" height="100" viewBox="0 0 133 100" fill="none" xmlns="http://www.w3.org/2000/svg">
<path d="M19.8985 58.6992V51.164C20.814 51.164 21.7218 51.1532 22.629 51.1669C23.6509 51.1822 24.6253 50.985 25.5202 50.4952C27.4018 49.4649 28.3706 47.8475 28.5045 45.7194C28.6113 44.0236 28.2436 42.4636 27.042 41.2064C24.5703 38.6202 19.8813 39.0945 17.8776 42.0976C17.189 43.1295 16.8472 44.2486 16.8609 45.4855C16.8705 46.3611 16.8626 47.2368 16.8626 48.1475H9.38265C9.00949 43.9425 9.66464 40.0556 12.5039 36.7277C17.1332 31.3015 25.6938 30.3879 31.27 34.8115C34.2587 37.1826 35.7822 40.3637 36.0397 44.1324C36.381 49.1232 34.5231 53.1639 30.5252 56.1636C28.3359 57.8061 25.8215 58.634 23.075 58.6956C22.0383 58.7187 21.0008 58.6992 19.8985 58.6992Z" fill="#00ADB2"/>
<path d="M17.0817 50.9512V67.9646C16.9242 67.9772 16.7861 67.9977 16.6482 67.9979C14.7857 68 12.9232 68.0031 11.0609 67.998C9.88214 67.9948 9.11516 67.2313 9.11091 66.0457C9.10338 63.8968 9.10878 61.7478 9.10878 59.5989V58.9542C8.87179 58.9395 8.66648 58.9163 8.46136 58.9159C6.33018 58.9132 4.1992 58.9159 2.06803 58.9132C0.734357 58.9117 0.00117433 58.1831 0.000401744 56.8643C-0.00037084 55.0737 0.000208598 53.2828 0.000208598 51.492V50.9512H17.0817Z" fill="#00ADB2"/>
<path d="M51.6194 58.8642V57.038C52.1025 57.038 52.562 57.0382 53.0214 57.0378C54.5042 57.037 55.5578 56.3299 55.9994 55.0405C56.4695 53.6678 56.1046 52.175 55.102 51.3688C54.0486 50.5218 52.5513 50.4639 51.3418 51.2166C50.7761 51.5683 50.4731 51.9847 50.4852 52.7353C50.5372 55.9402 50.5073 59.1462 50.5065 62.3518C50.5065 62.4569 50.4974 62.5618 50.4897 62.7291C49.8842 62.7291 49.2987 62.7555 48.7174 62.7198C48.3328 62.6962 48.2633 62.3793 48.2637 62.0498C48.265 61.0112 48.2641 59.9725 48.2641 58.9337C48.2641 56.4802 48.2531 54.0267 48.2787 51.5733C48.2818 51.2873 48.4145 50.9331 48.6106 50.7289C50.3641 48.9031 52.4725 48.225 54.9421 48.9295C56.8376 49.4704 58.2928 51.4403 58.3772 53.4071C58.4533 55.1778 57.9644 56.6917 56.5467 57.8253C55.7738 58.4432 54.8845 58.8092 53.8931 58.8571C53.148 58.8932 52.3995 58.8642 51.6194 58.8642Z" fill="#ECECEC"/>
<path d="M95.9589 58.9027C95.0743 58.9027 94.3046 58.9292 93.5388 58.8854C93.3317 58.8736 93.0895 58.6887 92.9437 58.5157C91.7908 57.1484 90.658 55.7643 89.5169 54.3872C89.4078 54.2557 89.2838 54.1365 89.0796 53.9186V58.8894C88.4617 58.8894 87.8912 58.9277 87.3312 58.8666C87.1591 58.8477 86.9944 58.5725 86.87 58.3855C86.8117 58.298 86.8559 58.1414 86.8559 58.016C86.8557 53.969 86.8629 49.922 86.8443 45.875C86.8426 45.4712 86.9675 45.2722 87.3256 45.1189C87.8805 44.8813 88.4131 44.5916 89.0499 44.2773V53.1308C89.0923 53.1433 89.135 53.1559 89.1775 53.1682C89.5486 52.7443 89.9242 52.3244 90.2897 51.8956C91.0671 50.983 91.8286 50.0565 92.6229 49.1587C92.7642 48.9988 93.0283 48.8762 93.2425 48.8649C93.9374 48.8281 94.6354 48.851 95.4584 48.851C94.0266 50.4737 92.6632 52.0186 91.2639 53.604C92.806 55.3444 94.3415 57.0775 95.9589 58.9027Z" fill="#ECECEC"/>
<path d="M77.3999 58.9006C76.8147 58.9006 76.314 58.9045 75.8136 58.8993C75.4221 58.8952 75.2315 58.7042 75.2324 58.298C75.238 55.8993 75.232 53.5006 75.2415 51.1022C75.2421 50.9364 75.2915 50.7344 75.3933 50.611C77.3331 48.2534 81.3787 47.6041 83.6134 50.2848C84.3076 51.1176 84.6481 52.099 84.6775 53.1485C84.7308 55.0408 84.6925 56.9356 84.6925 58.866H82.5266C82.5266 58.6447 82.5289 58.4367 82.5262 58.2287C82.5036 56.4946 82.4816 54.7607 82.4565 53.0267C82.4333 51.4307 80.5387 49.8705 78.4286 50.9164C77.7315 51.2619 77.3265 51.7179 77.3717 52.6269C77.465 54.5019 77.3999 56.3847 77.3999 58.2642V58.9006Z" fill="#ECECEC"/>
<path d="M43.123 45.7949C43.123 46.727 43.14 47.55 43.1153 48.3721C43.1041 48.7504 43.2275 48.8714 43.6043 48.8592C44.3869 48.8341 45.1709 48.8517 45.9821 48.8517V50.7651H43.1769C43.1549 50.9533 43.1255 51.0896 43.1251 51.226C43.1218 52.6769 43.1172 54.1278 43.1251 55.5787C43.1309 56.6376 43.5373 57.0343 44.5932 57.0378C45.3252 57.0403 46.0571 57.0383 46.8306 57.0383V58.8848C45.7753 58.8848 44.7077 58.9343 43.6466 58.8736C41.8212 58.7693 40.947 57.7951 40.9464 55.9658C40.9453 53.0997 40.9518 50.2336 40.9385 47.3675C40.9368 47.0204 41.014 46.814 41.3555 46.6679C41.9255 46.4242 42.4702 46.1215 43.123 45.7949Z" fill="#ECECEC"/>
<path d="M68.3662 44.2734V58.8884C67.7901 58.8884 67.2068 58.9112 66.6264 58.8807C66.209 58.8589 66.209 58.5239 66.2094 58.2027C66.213 55.7318 66.2113 53.2611 66.2113 50.7904C66.2113 49.1073 66.2188 47.4242 66.2042 45.7415C66.2016 45.4501 66.2851 45.2975 66.5549 45.1752C67.1517 44.9048 67.73 44.5935 68.3662 44.2734Z" fill="#ECECEC"/>
<path d="M72.8465 58.9016C72.2908 58.9016 71.7731 58.9081 71.2557 58.8993C70.9216 58.8933 70.7195 58.7376 70.7197 58.3733C70.7215 55.2258 70.7207 52.0783 70.7207 48.8906H72.8465V58.9016Z" fill="#ECECEC"/>
<path d="M60.0889 52.7637H64.1254V54.9738C63.1997 54.9738 62.2623 54.9779 61.3252 54.9671C61.2387 54.9661 61.1112 54.8923 61.0737 54.8172C60.7442 54.1539 60.4309 53.4826 60.0889 52.7637Z" fill="#ECECEC"/>
<path d="M71.7843 46.4666C71.623 46.4664 71.4617 46.4666 71.3004 46.4664C70.551 46.4662 70.2534 46.1427 70.3044 45.384C70.3579 44.588 71.1173 43.9756 71.9513 44.0559C72.7656 44.1345 73.3785 44.8505 73.3012 45.633C73.2406 46.2458 72.9961 46.466 72.3755 46.4666H71.7843Z" fill="#ECECEC"/>
<path d="M97.6497 57.9402C97.7924 57.9402 98.0016 57.9641 98.0016 57.7596C98.0016 57.6018 97.8726 57.5828 97.7488 57.5828H97.4618V57.9402H97.6497ZM98.1227 58.5013H97.9748L97.6872 58.0377H97.4618V58.5013H97.3368V57.495H97.7778C98.0443 57.495 98.1343 57.5952 98.1343 57.7611C98.1343 57.9589 97.997 58.0325 97.8183 58.0377L98.1227 58.5013ZM98.4302 57.9962C98.4302 57.5595 98.1113 57.2159 97.6731 57.2159C97.2331 57.2159 96.9111 57.5595 96.9111 57.9962C96.9111 58.4398 97.2331 58.7817 97.6731 58.7817C98.1113 58.7817 98.4302 58.4398 98.4302 57.9962ZM96.7695 57.9962C96.7695 57.5025 97.173 57.0977 97.6731 57.0977C98.1716 57.0977 98.5726 57.5025 98.5726 57.9962C98.5726 58.4966 98.1716 58.9014 97.6731 58.9014C97.173 58.9014 96.7695 58.4966 96.7695 57.9962Z" fill="#ECECEC"/>
</svg>
