<svg width="133" height="100" viewBox="0 0 133 100" fill="none" xmlns="http://www.w3.org/2000/svg">
<path d="M35.7361 55.0949C35.7361 52.5466 34.2032 51.2725 31.1392 51.2725H25.8262V59.0568H31.2508C34.2413 59.0568 35.7361 57.7361 35.7361 55.0949ZM38.4272 55.067C38.4272 56.9329 37.8151 58.4168 36.5908 59.5184C35.3767 60.6201 33.7221 61.1705 31.6287 61.1705H25.8262V68.8559H23.1494V49.1309H31.4605C33.6756 49.1309 35.3903 49.6491 36.6052 50.6848C37.8202 51.7206 38.4272 53.1815 38.4272 55.067Z" fill="#E62D25"/>
<path d="M42.8018 68.8559V49.1309H57.7853V51.3156H45.4785V57.6423H56.9441V59.7983H45.4785V66.672H58.3603V68.8559H42.8018Z" fill="#E62D25"/>
<path d="M74.1871 66.6162V51.3705H68.9308L68.2434 56.5229C67.8976 59.0796 67.5154 61.1654 67.0936 62.7803C66.6733 64.3951 66.1694 65.6735 65.5801 66.6162H74.1871ZM76.7937 66.6162H79.2465V74.5671H76.7244V68.8567H63.0716V74.5671H60.5479V66.6162H62.5669C63.2957 65.7107 63.9129 64.4416 64.4168 62.8082C64.9308 61.1654 65.3612 58.9866 65.7061 56.2701L66.6454 49.1309H76.7937V66.6162Z" fill="#E62D25"/>
<path d="M19.6625 26H0V45.6633H19.6625V26Z" fill="#E62D25"/>
<path d="M19.6625 49.1309H0V68.7942H19.6625V49.1309Z" fill="#E62D25"/>
<path d="M42.8119 26H23.1494V45.6633H42.8119V26Z" fill="#E62D25"/>
<path d="M113.668 51.2632C111.535 51.2632 109.874 51.9505 108.688 53.3261C107.503 54.6924 106.911 56.5685 106.911 58.9553C106.911 61.3142 107.526 63.214 108.757 64.653C109.998 66.0827 111.671 66.798 113.778 66.798C116.478 66.798 118.507 65.4638 119.866 62.7946L122 63.8608C121.206 65.5179 120.089 66.7802 118.648 67.6452C117.216 68.5101 115.552 68.943 113.654 68.943C111.712 68.943 110.029 68.5422 108.606 67.7407C107.193 66.9307 106.112 65.7783 105.364 64.2844C104.626 62.7811 104.256 61.0048 104.256 58.9553C104.256 55.8854 105.086 53.4808 106.747 51.7409C108.405 50 110.704 49.1309 113.641 49.1309C115.694 49.1309 117.408 49.5316 118.785 50.3331C120.163 51.1355 121.175 52.3234 121.822 53.8994L119.346 54.7195C118.899 53.5984 118.179 52.7436 117.185 52.1509C116.2 51.5582 115.027 51.2632 113.668 51.2632Z" fill="#ECECEC"/>
<path d="M99.038 58.9553C99.038 56.5601 98.4361 54.6789 97.2329 53.3126C96.0374 51.9455 94.3465 51.2632 92.1567 51.2632C89.95 51.2632 88.2447 51.937 87.0407 53.2847C85.8367 54.6332 85.2347 56.5229 85.2347 58.9553C85.2347 61.3692 85.8418 63.2859 87.0542 64.708C88.2768 66.1199 89.9677 66.8259 92.1305 66.8259C94.3549 66.8259 96.0611 66.1419 97.2465 64.7756C98.4411 63.4 99.038 61.4605 99.038 58.9553ZM101.706 58.9553C101.706 60.9684 101.319 62.7304 100.544 64.2429C99.7761 65.7555 98.6736 66.9172 97.2329 67.7272C95.7914 68.538 94.0911 68.943 92.1305 68.943C90.1512 68.943 88.4408 68.5422 86.9993 67.7407C85.5679 66.9392 84.4721 65.7834 83.7154 64.27C82.9587 62.749 82.5791 60.9777 82.5791 58.9553C82.5791 55.8769 83.4237 53.4715 85.1113 51.7409C86.7989 50 89.1476 49.1309 92.1567 49.1309C94.1174 49.1309 95.8185 49.5223 97.26 50.3061C98.7007 51.0797 99.7998 52.2101 100.557 53.6956C101.323 55.1786 101.706 56.9329 101.706 58.9553Z" fill="#ECECEC"/>
</svg>
