<svg width="133" height="100" viewBox="0 0 133 100" fill="none" xmlns="http://www.w3.org/2000/svg">
<g clip-path="url(#clip0_1467_8610)">
<path d="M35.4025 60.3927C35.3843 60.4286 35.3708 60.4601 35.3571 60.4826C34.9495 61.1613 34.4828 61.7953 33.9254 62.3617C33.35 62.937 32.7067 63.409 31.941 63.7102C31.4063 63.9169 30.8581 64.0204 30.2826 63.9979C29.9066 63.9845 29.5533 63.8901 29.2089 63.7507C28.6335 63.5214 28.0853 63.2336 27.5461 62.9325C26.1779 62.1549 24.8684 61.2828 23.5771 60.3838C23.5138 60.3388 23.4457 60.2938 23.3823 60.2444C23.3144 60.195 23.2871 60.132 23.3053 60.069C23.3234 60.0106 23.3868 59.9746 23.4729 59.9746C23.559 59.9746 23.6451 59.9791 23.7357 59.9837C24.1571 59.9971 24.574 60.0106 24.9953 60.0285C25.6205 60.051 26.2457 60.0735 26.8755 60.0915C27.5007 60.114 28.1261 60.1365 28.7559 60.1545C29.3811 60.1769 30.0063 60.1994 30.6361 60.2173C31.2659 60.2398 31.8957 60.2623 32.5254 60.2803C33.1507 60.3028 33.7759 60.3253 34.4058 60.3433C34.7228 60.3522 35.0356 60.3657 35.3482 60.3793C35.3571 60.3882 35.3754 60.3882 35.4025 60.3927Z" fill="url(#paint0_radial_1467_8610)"/>
<path d="M3.54688 60.3838C3.70098 60.3792 3.84142 60.3702 3.98186 60.3657C4.54362 60.3477 5.10537 60.3253 5.66273 60.3074C5.99356 60.2983 6.31968 60.2894 6.65051 60.2758L8.15025 60.2219C8.48997 60.2091 8.82976 60.1987 9.16962 60.1904L10.6557 60.1365C10.973 60.1275 11.2946 60.1186 11.6117 60.105C12.1826 60.087 12.7535 60.0645 13.3289 60.0421C13.8318 60.0241 14.3348 60.0106 14.8376 59.9926C15.0189 59.9881 15.2002 59.9791 15.3813 59.9746H15.5217C15.5806 59.9791 15.626 60.0062 15.6441 60.0645C15.6622 60.1186 15.6441 60.1634 15.6033 60.2039L15.5354 60.2578C14.158 61.2243 12.7626 62.1593 11.2946 62.982C10.8144 63.2518 10.325 63.5034 9.81746 63.7102C9.28743 63.9305 8.73463 64.0159 8.15921 63.9754C7.63814 63.9349 7.1444 63.7866 6.67313 63.5573C6.09316 63.2741 5.5812 62.8921 5.11904 62.447C4.51188 61.8626 4.00919 61.1973 3.58316 60.4737C3.57602 60.4419 3.56376 60.4116 3.54688 60.3838Z" fill="url(#paint1_radial_1467_8610)"/>
<path d="M20.043 48.2774C20.043 47.8593 20.0339 47.4413 20.043 47.0276C20.0656 46.241 20.0882 45.4544 20.1245 44.6676C20.1471 44.1733 20.188 43.6787 20.2332 43.1844C20.3012 42.402 20.3917 41.6199 20.5141 40.8422C20.6954 39.6825 20.931 38.5317 21.2753 37.4034C21.4656 36.792 21.683 36.1896 21.973 35.6142C22.0636 35.4344 22.1723 35.2636 22.2675 35.0882C22.3084 35.0164 22.3582 35.0029 22.4351 35.0164C22.9199 35.1108 23.4047 35.1961 23.8851 35.2906C24.2838 35.3715 24.6734 35.4794 25.0494 35.6367C26.0598 36.0548 26.8663 36.7246 27.4779 37.6236C27.8631 38.19 28.144 38.8104 28.2935 39.4802C28.3659 39.7994 28.3931 40.1275 28.3977 40.4557C28.4203 41.521 28.2346 42.5594 27.9266 43.5753C27.6275 44.5643 27.2288 45.5172 26.7983 46.4569C26.2094 47.7335 25.5433 48.9741 24.8455 50.1968C23.5996 52.368 22.2495 54.4764 20.8221 56.5351C20.7995 56.5667 20.7769 56.6026 20.7497 56.6295C20.7134 56.67 20.6727 56.6925 20.6138 56.6745C20.5896 56.6675 20.5676 56.6542 20.5501 56.6361C20.5326 56.618 20.5202 56.5956 20.5141 56.5712C20.5006 56.5171 20.496 56.4588 20.4915 56.4004C20.4462 55.8879 20.3963 55.3754 20.3556 54.8675C20.3056 54.2517 20.2558 53.6357 20.2106 53.0199C20.1795 52.5858 20.1553 52.1512 20.138 51.7163C20.1063 51.0555 20.0837 50.3947 20.0565 49.7339C20.0519 49.581 20.0519 49.4236 20.0474 49.2708C20.043 48.9382 20.0339 48.6101 20.0293 48.2774H20.043Z" fill="url(#paint2_radial_1467_8610)"/>
<path d="M18.9156 48.4524C18.8975 49.1221 18.8838 49.7965 18.8658 50.4662C18.8521 50.9202 18.834 51.3788 18.8069 51.8328C18.7706 52.4535 18.7298 53.0738 18.6845 53.6938C18.6573 54.1032 18.6256 54.5123 18.5893 54.921C18.5532 55.3526 18.5078 55.7886 18.4671 56.2201C18.458 56.3145 18.4489 56.4135 18.4399 56.5079C18.4308 56.6023 18.3991 56.6473 18.3356 56.6653C18.2541 56.6832 18.2043 56.6428 18.1634 56.5798C17.9777 56.3141 17.7935 56.0474 17.6108 55.7797C16.3784 53.9636 15.2049 52.1115 14.113 50.2055C13.5693 49.257 13.0528 48.2995 12.5679 47.3241C12.0696 46.3126 11.6074 45.2877 11.2359 44.2223C11.0002 43.548 10.8055 42.8602 10.6696 42.1545C10.6015 41.8038 10.5653 41.4533 10.5472 41.0936C10.529 40.7385 10.5381 40.3834 10.5745 40.0282C10.6513 39.318 10.86 38.6526 11.2133 38.0279C11.7614 37.0613 12.5181 36.3106 13.5149 35.8026C13.9952 35.5555 14.5026 35.3891 15.0282 35.2858C15.463 35.2003 15.8935 35.1195 16.3284 35.034C16.401 35.0204 16.4734 35.016 16.5415 35.0026C16.6049 34.9935 16.6456 35.0071 16.6773 35.0654C16.786 35.2587 16.9039 35.4521 17.0036 35.6499C17.3932 36.4455 17.6606 37.2816 17.8871 38.1358C18.1091 38.9674 18.2767 39.808 18.4082 40.6576C18.4942 41.233 18.5712 41.8085 18.6347 42.3882C18.6982 42.9773 18.748 43.5706 18.7886 44.1595C18.8295 44.7617 18.8567 45.3642 18.8747 45.9665C18.8929 46.47 18.8975 46.9734 18.9065 47.4769C18.911 47.8006 18.9065 48.1242 18.9065 48.4478C18.911 48.4524 18.911 48.4524 18.9156 48.4524Z" fill="url(#paint3_radial_1467_8610)"/>
<path d="M32.9921 40.1133C33.1417 40.2616 33.2821 40.3965 33.418 40.5403C34.1248 41.291 34.7456 42.1091 35.2393 43.0128C35.5702 43.615 35.8375 44.2444 35.996 44.9098C36.2769 46.101 36.1908 47.2653 35.6654 48.3801C35.3119 49.1308 34.818 49.7825 34.1882 50.3309C33.8439 50.6321 33.5041 50.9424 33.1507 51.2301C32.3669 51.8639 31.5332 52.4348 30.6859 52.9832C28.9959 54.0801 27.247 55.078 25.4664 56.022C24.4606 56.5569 23.4412 57.0648 22.4308 57.5864C22.4036 57.5998 22.3719 57.6178 22.3402 57.6269C22.2314 57.6583 22.1454 57.5909 22.1636 57.4784C22.168 57.4335 22.1908 57.3885 22.2088 57.348C22.4399 56.8671 22.6664 56.3861 22.8975 55.9097C23.6857 54.3117 24.5274 52.7405 25.4212 51.1985C26.3505 49.5934 27.3281 48.0163 28.3526 46.4696C29.3901 44.9052 30.4685 43.3678 31.6057 41.871C32.027 41.3136 32.4665 40.7696 32.8969 40.2166C32.9241 40.1942 32.9513 40.1627 32.9921 40.1133Z" fill="url(#paint4_radial_1467_8610)"/>
<path d="M5.96638 40.1133C6.09771 40.275 6.22449 40.4279 6.34701 40.5853C7.52944 42.0732 8.6487 43.6107 9.72242 45.175C11.0544 47.1124 12.3095 49.0948 13.483 51.1312C14.1354 52.2549 14.7606 53.3968 15.3587 54.5476C15.8435 55.4871 16.3147 56.4356 16.7587 57.393C16.7723 57.4245 16.7858 57.4515 16.7995 57.4829C16.8312 57.5864 16.7541 57.6763 16.6454 57.6492C16.6047 57.6403 16.5639 57.6178 16.5276 57.5998C15.325 57.0066 14.1347 56.3891 12.9574 55.7478C11.6389 55.033 10.3341 54.2869 9.06091 53.4957C7.96898 52.8124 6.89511 52.1021 5.8847 51.3065C5.50878 51.0097 5.15077 50.6951 4.80188 50.376C4.54377 50.1378 4.28992 49.8994 4.06795 49.6253C3.4743 48.8926 3.0621 48.0744 2.88537 47.1483C2.73142 46.3258 2.78122 45.5121 3.0123 44.7075C3.23882 43.9297 3.59227 43.206 4.0227 42.5227C4.55273 41.6822 5.17355 40.909 5.87119 40.2032C5.90307 40.1763 5.9301 40.1492 5.96638 40.1133Z" fill="url(#paint5_radial_1467_8610)"/>
<path d="M38.6063 49.9316C38.6198 49.972 38.6334 50.0035 38.6471 50.0395C38.8008 50.5271 38.8966 51.031 38.9325 51.5408C39.0095 52.6332 38.8554 53.6941 38.4476 54.71C38.1124 55.5416 37.6185 56.2789 36.9933 56.9308C36.4579 57.4891 35.8333 57.9553 35.1448 58.3107C34.6328 58.5759 34.0935 58.7513 33.5363 58.8861C33.0833 58.994 32.6211 59.0704 32.1498 59.0659C31.8555 59.0659 31.5655 59.0795 31.2709 59.0795C28.634 59.0839 26.0016 59.0839 23.3647 59.0839H23.2469C23.1925 59.0795 23.1471 59.0524 23.1291 58.9985C23.1065 58.9446 23.12 58.8907 23.1608 58.8502C23.188 58.8232 23.2243 58.8007 23.256 58.7783C24.0715 58.2568 24.8871 57.7308 25.7116 57.2229C27.4379 56.1576 29.1912 55.1461 30.9583 54.1436C33.3188 52.804 35.6974 51.496 38.0898 50.2103C38.2302 50.1339 38.3706 50.062 38.5111 49.9856C38.5337 49.9674 38.5654 49.954 38.6063 49.9316Z" fill="url(#paint6_radial_1467_8610)"/>
<path d="M0.352535 49.9531C0.520152 50.0431 0.674104 50.1196 0.823653 50.2049C3.50597 51.6389 6.17007 53.0999 8.8114 54.6102C10.5377 55.5947 12.2548 56.5971 13.9404 57.649C14.5384 58.0222 15.1274 58.4087 15.7209 58.7909C15.7526 58.8134 15.7889 58.8359 15.8115 58.8628C15.8795 58.9437 15.8387 59.0561 15.7345 59.0786C15.7074 59.083 15.6756 59.083 15.6484 59.083C15.1637 59.083 14.6789 59.083 14.1894 59.0875C13.5326 59.0921 12.8802 59.0921 12.2232 59.0966C11.7837 59.0966 11.3442 59.101 10.9092 59.101C9.99853 59.101 9.08787 59.1055 8.18177 59.1055C7.73768 59.1055 7.29814 59.11 6.8542 59.0921C6.0477 59.065 5.26382 58.9122 4.51182 58.62C2.87619 57.9817 1.65748 56.8803 0.814695 55.3565C0.434066 54.6643 0.198431 53.927 0.0806139 53.1493C-0.000916956 52.6009 -0.0235391 52.0525 0.02626 51.504C0.0670303 51.0095 0.162759 50.521 0.311694 50.0475C0.325358 50.0161 0.334468 49.9936 0.352535 49.9531Z" fill="url(#paint7_radial_1467_8610)"/>
<path d="M68.3693 59.3918C68.1159 59.3514 67.8522 59.3212 67.5987 59.2809C66.6353 59.1296 65.7327 58.8168 64.9315 58.2316C63.9277 57.4951 63.309 56.4863 62.9743 55.3059C62.7513 54.5291 62.6701 53.7422 62.6701 52.935V44.8945V44.6625C62.8629 44.6019 65.327 44.5918 65.6211 44.6524V52.9654C65.6211 53.5404 65.7024 54.1053 65.9052 54.6501C66.3209 55.76 67.1525 56.3652 68.3086 56.5368C68.907 56.6276 69.5052 56.5972 70.0933 56.446C71.0263 56.1938 71.6652 55.6186 72.0202 54.7208C72.2433 54.1458 72.3143 53.5303 72.3143 52.9149V44.9449V44.6625C72.5069 44.6019 74.9712 44.5817 75.2451 44.6422C75.2451 44.7129 75.2551 44.7936 75.2551 44.8742C75.2551 47.5981 75.2653 50.312 75.2551 53.0359C75.2551 54.0145 75.093 54.9629 74.7278 55.8708C74.0484 57.5758 72.7908 58.6453 71.0263 59.1093C70.6208 59.2203 70.1948 59.2505 69.7791 59.3212C69.6878 59.3312 69.6066 59.3514 69.5153 59.3717C69.1503 59.3918 68.7649 59.3918 68.3693 59.3918ZM109.948 44.6321H112.97C112.949 44.7229 112.929 44.8137 112.899 44.8844C112.371 46.3875 111.844 47.9008 111.317 49.4041C110.222 52.5416 109.126 55.6792 108.021 58.8168C107.889 59.2102 107.97 59.1598 107.534 59.1699H105.658C105.435 59.1699 105.435 59.1699 105.354 58.9479C104.299 55.9314 103.255 52.9149 102.2 49.8983C102.17 49.8278 102.139 49.7571 102.088 49.6159C102.038 49.737 102.007 49.8077 101.977 49.8783C101.48 51.3107 100.973 52.7434 100.476 54.176C99.9283 55.7498 99.3807 57.3337 98.8332 58.9075C98.7418 59.1799 98.7825 59.1799 98.4579 59.1799H96.531C96.2877 59.1799 96.2877 59.1799 96.2066 58.9479C94.5637 54.2567 92.9209 49.5553 91.268 44.8641C91.2476 44.8037 91.2273 44.7431 91.2071 44.6625H94.3305C95.3952 47.9614 96.4703 51.2704 97.5351 54.5895H97.5858C97.606 54.5291 97.6365 54.4686 97.6567 54.3979C98.7114 51.2402 99.756 48.0722 100.811 44.9146C100.831 44.8641 100.851 44.8037 100.861 44.7533C100.882 44.6623 100.953 44.622 101.044 44.622C101.774 44.622 102.504 44.622 103.234 44.6321C103.255 44.6321 103.285 44.6422 103.326 44.6623C104.421 47.9513 105.516 51.2603 106.611 54.5695C106.723 54.5291 106.723 54.4382 106.753 54.3677C107.037 53.5101 107.311 52.6526 107.585 51.7951C108.335 49.4747 109.086 47.1643 109.836 44.844C109.887 44.7632 109.917 44.7028 109.948 44.6321ZM45.9072 59.1194V44.6422H48.8379C48.8379 44.733 48.8481 44.8239 48.8481 44.9147V50.4735H55.5716C55.5818 50.3726 55.5918 50.2717 55.5918 50.1708V44.9449V44.6422H58.5023C58.553 44.8037 58.5733 58.8066 58.5226 59.1194C58.3198 59.18 55.8453 59.18 55.5918 59.1093V53.2782C55.3586 53.2176 49.1017 53.2176 48.8581 53.2782V59.1093C48.6047 59.18 46.1303 59.18 45.9072 59.1194ZM126.447 56.5267V59.0992C126.245 59.1496 115.728 59.1598 115.475 59.1093C115.414 58.9176 115.414 44.8945 115.465 44.6524C115.647 44.6019 125.91 44.5919 126.173 44.6422V47.2148C126.062 47.2249 125.95 47.235 125.839 47.235H118.355V50.2314H123.679C123.76 50.4432 123.77 52.6123 123.689 52.8746H118.385C118.324 53.1066 118.314 56.2744 118.385 56.5165C121.052 56.5267 123.73 56.5267 126.447 56.5267ZM92.272 59.1296C92.1604 59.1397 92.0893 59.1395 92.0184 59.1395C91.1564 59.1395 90.2945 59.1296 89.4426 59.1496C89.2397 59.1496 89.1586 59.0791 89.0876 58.9075C88.7328 58.0602 88.3575 57.2228 88.0026 56.3753C87.9214 56.1938 87.8302 56.1231 87.6273 56.1231C85.5585 56.1332 83.4897 56.1332 81.4211 56.1231C81.2283 56.1231 81.137 56.1735 81.056 56.3551C80.701 57.2026 80.3157 58.0399 79.9505 58.8773C79.91 58.958 79.8796 59.0388 79.8391 59.1194H76.8475C76.888 59.0287 76.9082 58.9479 76.9387 58.8773C78.2165 56.0021 79.4841 53.1269 80.7619 50.2415C81.5649 48.4331 82.366 46.6239 83.1653 44.8138C83.2363 44.6625 83.3073 44.5918 83.4897 44.5918C84.1997 44.6019 84.9197 44.6019 85.6296 44.5918C85.8324 44.5918 85.9135 44.6625 85.9946 44.8339C86.9479 47.0029 87.9012 49.162 88.8544 51.3209C89.9598 53.8127 91.055 56.3147 92.1604 58.8066C92.1807 58.9176 92.2213 59.0084 92.272 59.1296ZM86.7451 53.4699C86.7249 53.4093 86.7147 53.3487 86.6842 53.2983C86.532 52.9452 86.3801 52.5821 86.2279 52.2289C85.7005 50.9981 85.163 49.7775 84.6256 48.5465C84.5952 48.476 84.585 48.3751 84.4734 48.3245C83.7331 50.0397 83.003 51.7447 82.2627 53.4598C82.5061 53.5202 86.5119 53.5303 86.7451 53.4699ZM130.068 44.612H132.887L132.917 44.6422C132.927 44.6524 132.927 44.6524 132.927 44.6625C132.938 49.3839 132.938 54.1053 132.938 58.8269C132.938 58.9075 132.938 58.9882 132.927 59.069C132.927 59.0791 132.917 59.0992 132.897 59.1194H130.047C130.068 54.287 130.068 49.4646 130.068 44.6119V44.612Z" fill="#ECECEC"/>
</g>
<defs>
<radialGradient id="paint0_radial_1467_8610" cx="0" cy="0" r="1" gradientUnits="userSpaceOnUse" gradientTransform="translate(24.4433 38.8894) rotate(120.852) scale(29.2442 30.009)">
<stop stop-color="#F7BFA4"/>
<stop offset="0.234" stop-color="#E76C44"/>
<stop offset="0.421" stop-color="#E50012"/>
<stop offset="0.704" stop-color="#CA000C"/>
<stop offset="0.96" stop-color="#A00000"/>
</radialGradient>
<radialGradient id="paint1_radial_1467_8610" cx="0" cy="0" r="1" gradientUnits="userSpaceOnUse" gradientTransform="translate(24.4437 38.8894) rotate(120.852) scale(29.2442 30.009)">
<stop stop-color="#F7BFA4"/>
<stop offset="0.234" stop-color="#E76C44"/>
<stop offset="0.421" stop-color="#E50012"/>
<stop offset="0.704" stop-color="#CA000C"/>
<stop offset="0.96" stop-color="#A00000"/>
</radialGradient>
<radialGradient id="paint2_radial_1467_8610" cx="0" cy="0" r="1" gradientUnits="userSpaceOnUse" gradientTransform="translate(24.4431 38.8888) rotate(120.852) scale(29.2442 30.009)">
<stop stop-color="#F7BFA4"/>
<stop offset="0.234" stop-color="#E76C44"/>
<stop offset="0.421" stop-color="#E50012"/>
<stop offset="0.704" stop-color="#CA000C"/>
<stop offset="0.96" stop-color="#A00000"/>
</radialGradient>
<radialGradient id="paint3_radial_1467_8610" cx="0" cy="0" r="1" gradientUnits="userSpaceOnUse" gradientTransform="translate(24.4439 38.8885) rotate(120.852) scale(29.2442 30.009)">
<stop stop-color="#F7BFA4"/>
<stop offset="0.234" stop-color="#E76C44"/>
<stop offset="0.421" stop-color="#E50012"/>
<stop offset="0.704" stop-color="#CA000C"/>
<stop offset="0.96" stop-color="#A00000"/>
</radialGradient>
<radialGradient id="paint4_radial_1467_8610" cx="0" cy="0" r="1" gradientUnits="userSpaceOnUse" gradientTransform="translate(24.4433 38.8881) rotate(120.852) scale(29.2442 30.009)">
<stop stop-color="#F7BFA4"/>
<stop offset="0.234" stop-color="#E76C44"/>
<stop offset="0.421" stop-color="#E50012"/>
<stop offset="0.704" stop-color="#CA000C"/>
<stop offset="0.96" stop-color="#A00000"/>
</radialGradient>
<radialGradient id="paint5_radial_1467_8610" cx="0" cy="0" r="1" gradientUnits="userSpaceOnUse" gradientTransform="translate(24.4437 38.8881) rotate(120.852) scale(29.2442 30.009)">
<stop stop-color="#F7BFA4"/>
<stop offset="0.234" stop-color="#E76C44"/>
<stop offset="0.421" stop-color="#E50012"/>
<stop offset="0.704" stop-color="#CA000C"/>
<stop offset="0.96" stop-color="#A00000"/>
</radialGradient>
<radialGradient id="paint6_radial_1467_8610" cx="0" cy="0" r="1" gradientUnits="userSpaceOnUse" gradientTransform="translate(24.4438 38.8888) rotate(120.852) scale(29.2442 30.009)">
<stop stop-color="#F7BFA4"/>
<stop offset="0.234" stop-color="#E76C44"/>
<stop offset="0.421" stop-color="#E50012"/>
<stop offset="0.704" stop-color="#CA000C"/>
<stop offset="0.96" stop-color="#A00000"/>
</radialGradient>
<radialGradient id="paint7_radial_1467_8610" cx="0" cy="0" r="1" gradientUnits="userSpaceOnUse" gradientTransform="translate(24.4435 38.8879) rotate(120.852) scale(29.2442 30.009)">
<stop stop-color="#F7BFA4"/>
<stop offset="0.234" stop-color="#E76C44"/>
<stop offset="0.421" stop-color="#E50012"/>
<stop offset="0.704" stop-color="#CA000C"/>
<stop offset="0.96" stop-color="#A00000"/>
</radialGradient>
<clipPath id="clip0_1467_8610">
<rect width="133" height="29" fill="white" transform="translate(0 35)"/>
</clipPath>
</defs>
</svg>
