<svg width="133" height="100" viewBox="0 0 133 100" fill="none" xmlns="http://www.w3.org/2000/svg">
<g clip-path="url(#clip0_1467_8269)">
<path d="M66.5 84C103.227 84 133 69.0015 133 50.5C133 31.9985 103.227 17 66.5 17C29.7731 17 0 31.9985 0 50.5C0 69.0015 29.7731 84 66.5 84Z" fill="#2B6BB4"/>
<path d="M30.357 53.5251C31.0159 53.5135 31.6598 53.3243 32.2219 52.9771C32.7841 52.6299 33.244 52.1374 33.5541 51.5506C34.3692 50.2669 34.7999 48.7732 34.7947 47.2486C34.8386 46.5163 34.6033 45.7948 34.137 45.232C33.9006 44.9864 33.6148 44.7949 33.2988 44.6702C32.9828 44.5456 32.644 44.4907 32.3052 44.5094C31.6349 44.519 30.979 44.7075 30.4043 45.0558C29.8296 45.4041 29.3565 45.8997 29.0331 46.4924C28.193 47.7294 27.7431 49.1939 27.7426 50.6935C27.7062 51.4583 27.9694 52.2067 28.4753 52.7773C28.7199 53.0274 29.0137 53.2232 29.3378 53.352C29.6618 53.4808 30.009 53.5397 30.357 53.5251Z" fill="#2B6BB4"/>
<path d="M27.076 54.4499C27.3946 55.1624 27.9184 55.7615 28.5793 56.1691C29.2402 56.5768 30.0074 56.7741 30.7811 56.7353C31.9197 56.7152 33.0363 56.4156 34.0344 55.8622C35.0325 55.3088 35.882 54.5183 36.5094 53.5592C38.0426 51.5821 38.8804 49.1463 38.8906 46.6357C38.9404 45.202 38.473 43.7988 37.5751 42.6866C37.1402 42.1611 36.5907 41.7443 35.9696 41.4688C35.3485 41.1932 34.6726 41.0666 33.9949 41.0986C33.0566 41.1206 32.1357 41.3592 31.3029 41.7961C30.4701 42.2331 29.7476 42.8568 29.1908 43.6193H29.1242L29.5821 41.4767H25.877L18.7666 73.8088C19.8989 74.397 21.0812 74.9683 22.2968 75.4893L27.026 54.4247L27.076 54.4499ZM29.0326 46.4677C29.356 45.8751 29.8291 45.3794 30.4038 45.0311C30.9785 44.6828 31.6344 44.4943 32.3047 44.4847C32.6435 44.466 32.9823 44.5209 33.2983 44.6455C33.6142 44.7702 33.9001 44.9618 34.1365 45.2073C34.6027 45.7702 34.8381 46.4916 34.7942 47.2239C34.8042 48.757 34.3733 50.2602 33.5536 51.5511C33.2435 52.1379 32.7836 52.6304 32.2214 52.9776C31.6593 53.3248 31.0154 53.514 30.3564 53.5256C30.0048 53.5338 29.6554 53.4669 29.3311 53.3293C29.0068 53.1918 28.715 52.9867 28.4748 52.7274C28.2202 52.4408 28.0243 52.1061 27.8986 51.7427C27.7728 51.3792 27.7196 50.9943 27.7421 50.61C27.7543 49.1304 28.2036 47.6881 29.0326 46.4677Z" fill="white"/>
<path fill-rule="evenodd" clip-rule="evenodd" d="M41.4134 46.2895C42.3292 42.8278 44.8492 41.0969 48.9734 41.0969C50.3438 41.0317 51.708 41.3209 52.9366 41.9372C53.3959 42.1517 53.7849 42.4943 54.0578 42.9245C54.3307 43.3547 54.4761 43.8546 54.4769 44.3654C54.4722 44.6478 54.4415 44.929 54.3853 45.2056L52.6202 53.7676C52.5517 54.1104 52.521 54.4598 52.5286 54.8095C52.5286 55.3472 52.7034 55.6497 53.0531 55.759L52.9283 56.3471H48.7985C48.7292 55.761 48.7292 55.1687 48.7985 54.5826C48.1093 55.2862 47.2847 55.8399 46.3754 56.2099C45.4662 56.5798 44.4916 56.758 43.5115 56.7336C42.4618 56.7973 41.4261 56.4649 40.6057 55.801C40.2469 55.4597 39.9653 55.0443 39.7799 54.5832C39.5946 54.1221 39.5099 53.6261 39.5317 53.129C39.5149 52.4638 39.635 51.8022 39.8843 51.1861C40.1337 50.57 40.5069 50.0128 40.9804 49.5496C42.0042 48.5647 43.3209 47.9475 44.7271 47.7936L48.8901 47.239C49.9975 47.0962 50.5553 46.5584 50.5553 45.6342C50.5673 45.4189 50.52 45.2044 50.4186 45.0146C50.3172 44.8247 50.1657 44.6669 49.9808 44.5587C49.5091 44.3097 48.9807 44.1909 48.4488 44.2142C46.7004 44.2142 45.6097 44.9116 45.21 46.3232L41.4134 46.2895ZM49.7977 49.1379C48.6566 49.6657 47.4287 49.9762 46.1758 50.0538C44.4274 50.289 43.5448 51.1041 43.5448 52.4989C43.5339 52.6988 43.5679 52.8986 43.6443 53.0834C43.7207 53.2682 43.8376 53.4332 43.9861 53.5659C44.3477 53.8381 44.7931 53.9721 45.2433 53.9441C46.1834 53.9327 47.099 53.6403 47.8744 53.1038C48.237 52.9021 48.5563 52.6296 48.8136 52.3021C49.0709 51.9747 49.261 51.5988 49.373 51.1965L49.7977 49.1379Z" fill="white"/>
<path fill-rule="evenodd" clip-rule="evenodd" d="M58.7073 41.4929H62.4124L61.8712 44.0556H61.9211C63.2283 42.0811 64.727 41.098 66.4338 41.098C66.7318 41.0946 67.0297 41.1143 67.3247 41.1569L66.4921 45.1227C66.1468 45.0812 65.799 45.0644 65.4514 45.0723C64.4145 44.9773 63.3818 45.2934 62.572 45.9538C61.7622 46.6141 61.2391 47.5667 61.1135 48.6097L59.4483 56.3482H55.5684L58.7073 41.4929Z" fill="white"/>
<path fill-rule="evenodd" clip-rule="evenodd" d="M76.5992 46.0474C76.6417 45.8973 76.6613 45.7414 76.6575 45.5853C76.6653 45.362 76.6185 45.1401 76.5212 44.9394C76.4239 44.7386 76.2792 44.5651 76.0997 44.4342C75.622 44.125 75.0591 43.9779 74.4928 44.0141C73.8308 43.993 73.1762 44.1588 72.6027 44.493C72.3746 44.6098 72.1825 44.7875 72.0475 45.0067C71.9124 45.226 71.8395 45.4784 71.8367 45.7366C71.8336 45.8617 71.8565 45.9862 71.9038 46.1019C71.9511 46.2177 72.0218 46.3222 72.1115 46.4087C72.4128 46.632 72.7599 46.7842 73.1273 46.8541L76.2745 47.6943C77.2667 47.8961 78.1784 48.3868 78.8972 49.1059C79.3973 49.7475 79.6489 50.551 79.6049 51.3661C79.624 52.1782 79.4271 52.9807 79.0347 53.69C78.6423 54.3993 78.0687 54.9895 77.3736 55.3992C75.7967 56.3893 73.9682 56.8945 72.1115 56.8528C70.6162 56.9064 69.1337 56.5585 67.8153 55.8445C67.2902 55.5728 66.8511 55.1579 66.5479 54.647C66.2447 54.1361 66.0896 53.5496 66.1001 52.9541C66.1075 52.5196 66.1691 52.0877 66.2833 51.6686H70.1799C70.1431 51.8429 70.1209 52.0199 70.1133 52.1979C70.0996 52.4575 70.154 52.7161 70.2709 52.9477C70.3879 53.1793 70.5632 53.3757 70.7793 53.5171C71.3347 53.8404 71.9707 53.995 72.6111 53.9624C73.3668 54.0054 74.1202 53.8429 74.7925 53.4919C75.0255 53.3686 75.2198 53.1822 75.3536 52.9536C75.4874 52.725 75.5555 52.4634 75.5502 52.1979C75.555 52.054 75.531 51.9106 75.4795 51.7763C75.428 51.642 75.35 51.5196 75.2504 51.4165C74.8963 51.134 74.4789 50.9436 74.0348 50.862L70.4463 49.9209C69.68 49.744 68.9891 49.3262 68.473 48.7278C67.9637 48.0963 67.7029 47.2976 67.7403 46.4844C67.7308 45.7007 67.9229 44.9279 68.298 44.2415C68.6731 43.5552 69.2182 42.9789 69.8801 42.5689C71.4303 41.5516 73.2524 41.0384 75.1005 41.0985C76.4787 41.0568 77.8362 41.4441 78.9888 42.2076C79.4768 42.5056 79.8785 42.9281 80.1532 43.4326C80.428 43.937 80.5663 44.5057 80.5541 45.0812C80.5555 45.4258 80.4934 45.7677 80.3709 46.0895L76.5992 46.0474Z" fill="white"/>
<path fill-rule="evenodd" clip-rule="evenodd" d="M95.4251 51.9956C93.9708 55.1549 91.3925 56.7345 87.6902 56.7345C86.1439 56.802 84.6306 56.2699 83.4606 55.2473C82.8959 54.7123 82.4541 54.0589 82.1664 53.3331C81.8788 52.6073 81.7521 51.8267 81.7954 51.0462C81.762 48.4787 82.6693 45.9893 84.3432 44.0555C85.1162 43.0973 86.0952 42.3293 87.2059 41.8096C88.3167 41.2899 89.5301 41.0321 90.7542 41.0558C91.5111 40.9989 92.2714 41.1065 92.9836 41.3716C93.6957 41.6366 94.3432 42.0528 94.8823 42.592C95.4214 43.1312 95.8395 43.781 96.1084 44.4973C96.3773 45.2136 96.4907 45.9799 96.4409 46.7442C96.4258 47.8246 96.269 48.8982 95.9746 49.9371H85.717C85.7041 50.1862 85.7041 50.4358 85.717 50.6849C85.717 52.6006 86.5829 53.5585 88.3147 53.5585C88.9328 53.6118 89.5535 53.4898 90.1066 53.2062C90.6597 52.9227 91.1234 52.4888 91.4453 51.9536L95.4251 51.9956ZM92.536 47.4416C92.5749 47.1631 92.5972 46.8825 92.6026 46.6014C92.6264 46.286 92.5847 45.9692 92.48 45.6711C92.3753 45.373 92.21 45.1003 91.9948 44.8705C91.5063 44.4597 90.881 44.2524 90.2463 44.2907C88.4868 44.2907 87.1851 45.3326 86.3414 47.4164L92.536 47.4416Z" fill="white"/>
<path fill-rule="evenodd" clip-rule="evenodd" d="M107.997 46.8022V46.5837C108.042 46.2886 108.018 45.987 107.928 45.7026C107.838 45.4183 107.683 45.1591 107.476 44.9455C107.269 44.7319 107.016 44.5698 106.737 44.4721C106.457 44.3744 106.159 44.3436 105.865 44.3823C105.227 44.3958 104.606 44.5865 104.068 44.9333C103.53 45.2802 103.098 45.7698 102.818 46.3485C102.046 47.6474 101.643 49.1357 101.652 50.6504C101.608 51.3994 101.813 52.1418 102.235 52.7594C102.43 53.0141 102.684 53.217 102.974 53.3502C103.264 53.4835 103.582 53.5431 103.9 53.524C105.324 53.524 106.398 52.6838 107.123 50.9277H111.052C109.632 54.8152 107.092 56.7617 103.434 56.7673C101.899 56.8259 100.403 56.2702 99.2711 55.2213C98.7361 54.7067 98.3154 54.0833 98.037 53.3924C97.7585 52.7015 97.6286 51.9588 97.6559 51.2134C97.6347 48.6369 98.5365 46.1394 100.195 44.1807C100.952 43.2027 101.924 42.4152 103.033 41.8801C104.143 41.3451 105.36 41.077 106.59 41.097C107.996 41.0508 109.376 41.496 110.495 42.3574C111.004 42.7501 111.414 43.26 111.689 43.8445C111.964 44.4291 112.097 45.0715 112.077 45.7183C112.071 46.0876 112.035 46.4557 111.968 46.819L107.997 46.8022Z" fill="white"/>
<path d="M18.7665 73.8081L21.3226 62.1289H4.1377C7.38485 66.5737 12.3971 70.4976 18.7665 73.8081Z" fill="#2B6BB4"/>
<path d="M21.6807 60.541L21.3311 62.1291H25.3026L25.6606 60.541H21.6807Z" fill="white"/>
<path d="M3.05566 60.541C3.39703 61.0788 3.75505 61.6081 4.13805 62.1291H21.323L21.6727 60.541H3.05566Z" fill="white"/>
<path d="M25.6608 60.541L25.3027 62.1291H128.879C129.262 61.6081 129.62 61.0788 129.953 60.541H25.6608Z" fill="white"/>
</g>
<defs>
<clipPath id="clip0_1467_8269">
<rect width="133" height="67" fill="white" transform="translate(0 17)"/>
</clipPath>
</defs>
</svg>
