<svg width="133" height="100" viewBox="0 0 133 100" fill="none" xmlns="http://www.w3.org/2000/svg">
<g clip-path="url(#clip0_1467_8296)">
<path d="M8.12156 42.1465L0 42.1735V58.2373L2.73236 58.2103L2.71863 51.9077H7.70278C9.26119 51.9077 10.5175 51.4686 11.4306 50.604C12.3574 49.7326 12.8311 48.5301 12.8311 47.0305C12.8311 45.5376 12.4123 44.3419 11.5885 43.4705C10.7509 42.5923 9.58385 42.1465 8.12156 42.1465ZM10.0781 47.0643C10.0781 48.7666 9.24746 49.5231 7.37325 49.5231H2.73236V44.5311H7.65473C9.32984 44.5311 10.0781 45.3147 10.0781 47.0643Z" fill="#1090CF"/>
<path d="M19.2368 46.9414C17.3557 46.9414 15.8728 47.5224 14.8293 48.664C13.8819 49.6773 13.4082 51.0553 13.4082 52.7576C13.4082 54.4397 13.8956 55.8312 14.8705 56.9053C15.4128 57.4795 16.0582 57.9051 16.779 58.1753C17.4793 58.432 18.31 58.5671 19.2368 58.5671C21.2071 58.5671 22.738 57.9996 23.7953 56.8783C24.7358 55.8785 25.2164 54.487 25.2164 52.7576C25.2164 51.008 24.7358 49.6165 23.7816 48.6167C22.7449 47.5088 21.214 46.9414 19.2368 46.9414ZM15.9346 52.7576C15.9346 52.1699 16.017 51.6498 16.168 51.2039C16.3191 50.7716 16.5319 50.4068 16.8065 50.1096C17.39 49.4949 18.1864 49.1909 19.2368 49.1909C21.5916 49.1909 22.69 50.3258 22.69 52.7576C22.69 53.3521 22.6213 53.879 22.484 54.3181C22.3536 54.7369 22.1614 55.0747 21.8868 55.3719C21.3238 56.0136 20.4588 56.3244 19.2368 56.3244C18.1521 56.3244 17.3557 56.0271 16.7928 55.3989C16.2161 54.7504 15.9346 53.8857 15.9346 52.7576Z" fill="#1090CF"/>
<path d="M35.6577 52.231C35.0947 51.9473 34.1404 51.7312 32.7537 51.5825C30.9893 51.3664 30.3234 51.2178 30.0831 51.1367C29.5064 50.9205 29.4309 50.6503 29.4309 50.4139C29.4309 49.9816 29.5819 49.6978 29.9115 49.5019C30.1998 49.3331 30.7833 49.1304 31.9436 49.1304C34.1473 49.1304 34.4288 50.0289 34.4288 50.8192V51.1975H36.9895V50.8192C36.9895 49.0629 36.1176 46.9688 31.9848 46.9688C31.2159 46.9688 30.5293 47.0295 29.9321 47.1511C29.3142 47.2727 28.7856 47.4551 28.3256 47.7118C27.3988 48.313 26.9251 49.2317 26.9251 50.4409C26.9251 51.6906 27.4812 52.6093 28.5384 53.1025C28.8268 53.2308 29.4584 53.4402 31.6621 53.7577C33.6805 54.0482 34.0512 54.136 34.113 54.1563C34.5935 54.3454 34.7995 54.6291 34.7995 55.1088C34.7995 55.46 34.7995 56.3922 32.2044 56.3922C30.701 56.3922 30.0488 56.1085 29.733 55.8451C29.4515 55.6357 29.3005 55.3047 29.2524 54.8656H26.6299C26.6985 55.4262 26.8221 55.9194 27.0075 56.3179C27.2272 56.8043 27.5361 57.2029 27.9068 57.4933C28.3805 57.8716 28.9847 58.1486 29.7124 58.3107C30.392 58.4593 31.2296 58.5404 32.2044 58.5404C36.4815 58.5404 37.3808 56.5814 37.3808 54.9399C37.3808 53.6834 36.7767 52.7444 35.6577 52.231Z" fill="#1090CF"/>
<path d="M94.1772 52.231C93.6211 51.9473 92.6668 51.7312 91.2732 51.5825C89.5088 51.3664 88.8429 51.2178 88.6026 51.1367C88.0328 50.9205 87.9504 50.6503 87.9504 50.4139C87.9504 49.9816 88.1014 49.6978 88.431 49.5019C88.7193 49.3331 89.3028 49.1304 90.4631 49.1304C92.6737 49.1304 92.9551 50.0289 92.9551 50.8192V51.1975H95.509V50.8192C95.509 49.0629 94.644 46.9688 90.5043 46.9688C89.7422 46.9688 89.0488 47.0295 88.4516 47.1511C87.8337 47.2727 87.3119 47.4551 86.8451 47.7118C85.9183 48.313 85.4515 49.2317 85.4515 50.4409C85.4515 51.6906 86.0075 52.6093 87.0648 53.1025C87.3463 53.2308 87.9847 53.4402 90.1816 53.7577C92.2068 54.0482 92.5707 54.136 92.6325 54.1563C93.113 54.3454 93.319 54.6291 93.319 55.1088C93.319 55.46 93.319 56.3922 90.7239 56.3922C89.2273 56.3922 88.5683 56.1085 88.2593 55.8451C87.9779 55.6357 87.8268 55.3047 87.7788 54.8656H85.1562C85.2249 55.4262 85.3485 55.9194 85.527 56.3179C85.7535 56.8043 86.0556 57.2029 86.4332 57.4933C86.9 57.8716 87.511 58.1486 88.2387 58.3107C88.9184 58.4593 89.756 58.5404 90.7239 58.5404C95.0078 58.5404 95.9072 56.5814 95.9072 54.9399C95.9072 53.6834 95.3031 52.7444 94.1772 52.231Z" fill="#1090CF"/>
<path d="M59.8164 48.0155C59.6929 47.8939 59.5967 47.8196 59.5212 47.7655C58.6768 47.2184 57.5921 46.9414 56.2946 46.9414C54.3998 46.9414 52.9237 47.4751 51.9008 48.5154C50.9191 49.4814 50.4248 50.8729 50.4248 52.636C50.4248 53.5074 50.5484 54.2911 50.7887 54.9801C51.0289 55.6826 51.3997 56.2973 51.8871 56.8107C52.9169 57.8173 54.3654 58.3307 56.1916 58.3307C57.6813 58.3307 58.8965 57.9929 59.8233 57.3241V57.5673C59.8096 59.5804 59.5761 59.9249 59.0819 60.4383C58.6013 60.9314 57.7431 61.1813 56.5349 61.1813C55.0863 61.1813 54.4204 60.9044 54.1183 60.6679C53.83 60.445 53.6103 59.9789 53.4798 59.3237L53.3837 58.817L50.8779 58.844L50.8916 59.5331C50.926 59.7965 50.974 60.0532 51.0358 60.2964C51.2761 61.1949 51.7086 61.8974 52.3333 62.3703C53.2121 63.0525 54.5989 63.3835 56.576 63.3835C61.3817 63.3835 62.384 60.5666 62.384 58.2023V47.2589H59.8233L59.8164 48.0155ZM57.9422 55.8312C57.5578 55.9866 57.0909 56.0609 56.576 56.0609C54.1252 56.0609 53.0336 55.0071 53.0336 52.636C53.0336 51.5417 53.3219 50.7243 53.9192 50.1299C54.5096 49.5422 55.3472 49.2517 56.4731 49.2517C57.6058 49.2517 58.4228 49.5422 58.9789 50.1299C59.5418 50.7378 59.8233 51.5349 59.8233 52.582C59.8233 53.7169 59.535 54.5883 58.972 55.1625C58.6699 55.4529 58.3267 55.6826 57.9422 55.8312Z" fill="#1090CF"/>
<path d="M66.9908 47.5764C66.9427 47.6102 66.9015 47.6372 66.8672 47.671V47.2657H64.3477L64.3614 58.2023H66.8672V52.8454C66.8672 49.6908 68.3295 49.326 69.4348 49.326C69.73 49.326 71.1236 49.3395 71.1236 49.3395V46.9414H69.6545C68.5011 46.9414 67.6361 47.1441 66.9908 47.5764Z" fill="#1090CF"/>
<path d="M80.7765 54.8652C80.2891 55.865 79.3966 56.3379 78.0167 56.3379C76.8428 56.3379 75.9709 56.0069 75.3667 55.3178C74.948 54.8517 74.7008 54.2843 74.6184 53.5953H83.7904V52.9941C83.7904 51.2039 83.3304 49.7583 82.4105 48.7113C81.8956 48.1101 81.2502 47.6575 80.4882 47.367C79.7468 47.0833 78.8886 46.9414 77.9206 46.9414C76.0876 46.9414 74.6322 47.4616 73.5955 48.4883C72.5589 49.5151 72.0371 50.9067 72.0371 52.636C72.0371 54.3586 72.5383 55.7637 73.5269 56.7905C74.5978 57.9524 76.1151 58.5401 78.0305 58.5401C78.7856 58.5401 79.4996 58.432 80.1518 58.2226C80.8109 58.0132 81.3944 57.7092 81.9093 57.3039C82.7057 56.6351 83.2343 55.8177 83.5089 54.8652H80.7765ZM75.4972 49.961C75.8061 49.6637 76.1562 49.4408 76.5476 49.299C76.9457 49.1504 77.4057 49.076 77.9206 49.076C78.9092 49.076 79.685 49.38 80.296 50.0083C80.7559 50.4744 81.0443 50.9743 81.161 51.5147H74.7077C74.8793 50.8594 75.1471 50.3393 75.4972 49.961Z" fill="#1090CF"/>
<path d="M48.9975 57.8586V57.2641H46.5192V57.8721C46.5192 57.8721 46.5192 58.2031 46.5192 58.3112C46.5123 58.4733 46.4231 59.1016 46.3887 59.2434C46.3132 59.5136 46.224 59.8244 46.1759 59.9932C46.1347 60.0946 46.0935 60.1959 46.0455 60.2905C45.5992 61.1416 44.6244 61.5402 43.6701 61.378C42.2696 61.1349 41.2535 59.8379 41.4458 58.4395C41.5419 57.737 41.7066 57.0412 42.0362 56.413C42.654 55.2241 43.4161 54.1027 44.1781 53.0084C44.3292 52.799 44.8646 52.0154 45.5031 50.7994C46.1553 51.0899 46.7251 51.252 47.1096 51.3398C47.8098 51.502 48.2355 51.5425 48.565 51.4614C48.6062 51.4547 48.9151 51.4074 48.9906 51.2858C49.0181 51.2453 48.9426 51.1574 48.8602 51.1372C47.8167 50.867 46.8075 50.5292 46.018 49.7456C46.6908 48.2932 47.3773 46.4356 47.7755 44.3144C48.0638 42.754 48.414 41.2003 48.4826 39.5858C48.565 38.255 48.5101 36.7621 48.3247 35.5124C47.9265 32.8644 46.7526 30.9865 44.9333 29.0612C42.5648 26.5483 39.242 25.3932 35.8231 25.0689C32.1983 24.7244 30.0907 25.7174 28.4842 27.0279C26.5688 28.5816 26.1912 30.034 26.0539 32.1078C25.9441 33.7696 26.2668 34.7153 27.118 36.4311C27.7359 37.6741 30.3104 39.8222 31.0312 41.0112C31.7177 42.1528 31.5324 42.2946 32.0335 43.5376C32.2807 44.1523 33.537 45.1926 34.6973 45.0305C35.8437 44.8751 36.7568 44.0713 37.3816 42.4838C37.615 41.9096 37.6287 41.3557 37.6905 40.8625C37.869 39.5385 37.8278 38.4577 37.9582 36.8162C37.972 36.6405 37.9926 36.4176 37.9102 36.3231C37.6836 36.0528 37.3816 36.1609 37.2511 36.4176C37.1619 36.5865 37.1413 36.7824 37.0863 36.9648C36.5646 38.7009 35.4868 41.2273 35.4387 41.3759C35.2739 41.788 34.8757 42.6054 34.6011 42.5784C34.457 42.5581 34.3471 42.5581 34.2716 42.2946C34.1892 42.0109 33.8185 40.6666 32.5759 39.1535C30.379 36.4717 29.1707 35.1814 28.7657 33.4116C28.3195 31.4661 29.2188 29.399 30.9145 28.4668C31.7933 27.9804 33.6469 27.2441 35.6309 27.4535C38.0681 27.7102 40.773 28.5613 42.455 30.3852C44.4596 32.5537 45.7434 33.7831 45.812 37.7281C45.8532 40.0452 45.3383 42.7405 44.7617 44.9832C44.693 45.1994 44.6175 45.429 44.5351 45.6655C44.3292 46.287 44.1369 46.8206 43.9516 47.3002C43.8967 47.2259 43.8005 47.0908 43.7731 47.0503C43.4641 46.6315 43.1964 46.2397 42.8875 45.8816C42.5167 45.4426 42.146 44.9832 41.6792 44.659C41.1025 44.2469 40.4778 44.1456 39.9697 44.6995C39.7157 44.9765 39.5441 45.375 39.7226 45.8209C40.2718 47.1651 41.3222 48.1514 42.4893 49.0769C42.5511 49.1241 42.7639 49.2592 43.0042 49.4214C42.5923 50.2185 42.1323 50.9886 41.5144 52.0086C40.6425 53.4542 39.6402 55.1565 39.3175 55.9469C38.6997 57.4533 38.6379 59.007 39.0155 60.5877C39.1802 61.2767 39.5304 61.8509 40.0178 62.3711C41.5762 64.0058 44.233 64.3976 46.2514 63.614C46.7114 63.4316 47.1714 63.0939 47.4872 62.7088C48.3247 61.6955 48.8053 60.5674 48.9495 59.3312C48.9632 59.2029 48.9769 58.8449 48.9838 58.5341C48.9906 58.4733 48.9906 58.426 48.9906 58.3923C48.9975 58.2572 48.9975 57.8586 48.9975 57.8586ZM44.9196 40.7882C44.9196 41.484 44.3429 42.0515 43.6358 42.0515C42.9287 42.0515 42.3588 41.484 42.3588 40.7882C42.3588 40.0925 42.9287 39.5318 43.6358 39.5318C44.3429 39.5318 44.9196 40.0925 44.9196 40.7882Z" fill="#003D52"/>
<path d="M106.981 42.1465L98.8594 42.1735V58.2373L101.592 58.2103L101.578 51.9077H106.562C108.121 51.9077 109.377 51.4686 110.29 50.604C111.217 49.7326 111.69 48.5301 111.69 47.0305C111.69 45.5376 111.272 44.3419 110.448 43.4705C109.61 42.5923 108.443 42.1465 106.981 42.1465ZM108.938 47.0643C108.938 48.7666 108.107 49.5231 106.233 49.5231H101.592V44.5311H106.514C108.189 44.5311 108.938 45.3147 108.938 47.0643Z" fill="#1090CF"/>
<path d="M127.02 46.9414C125.139 46.9414 123.656 47.5224 122.613 48.664C121.665 49.6773 121.191 51.0553 121.191 52.7576C121.191 54.4397 121.679 55.8312 122.654 56.9053C123.196 57.4795 123.841 57.9051 124.562 58.1753C125.262 58.432 126.093 58.5671 127.02 58.5671C128.99 58.5671 130.521 57.9996 131.578 56.8783C132.519 55.8785 133 54.487 133 52.7576C133 51.008 132.519 49.6165 131.565 48.6167C130.528 47.5088 128.997 46.9414 127.02 46.9414ZM123.718 52.7576C123.718 52.1699 123.8 51.6498 123.951 51.2039C124.102 50.7716 124.315 50.4068 124.59 50.1096C125.173 49.4949 125.97 49.1909 127.02 49.1909C129.375 49.1909 130.473 50.3258 130.473 52.7576C130.473 53.3521 130.405 53.879 130.267 54.3181C130.137 54.7369 129.945 55.0747 129.67 55.3719C129.107 56.0136 128.242 56.3244 127.02 56.3244C125.935 56.3244 125.139 56.0271 124.576 55.3989C123.999 54.7504 123.718 53.8857 123.718 52.7576Z" fill="#1090CF"/>
<path d="M116.201 47.5764C116.16 47.6102 116.118 47.6372 116.077 47.671V47.2657H113.558L113.571 58.2023H116.077V52.8454C116.077 49.6908 117.539 49.326 118.645 49.326C118.94 49.326 120.334 49.3395 120.334 49.3395V46.9414H118.864C117.711 46.9414 116.846 47.1441 116.201 47.5764Z" fill="#1090CF"/>
</g>
<defs>
<clipPath id="clip0_1467_8296">
<rect width="133" height="39" fill="white" transform="translate(0 25)"/>
</clipPath>
</defs>
</svg>
