<svg width="133" height="100" viewBox="0 0 133 100" fill="none" xmlns="http://www.w3.org/2000/svg">
<g clip-path="url(#clip0_1467_8155)">
<path d="M37.806 35.4857L24.3612 42.5714L9.9972 34.9714L8.10114 34V42.2857L2.12571 39.1429L0.287109 38.1714V40.2857V55.2571V56.8571L16.4897 65.4286L32.6349 56.9143L40.5064 52.7429V36.2286V34.0571L37.806 35.4857ZM16.4897 63.2571L2.12571 55.6571V54.2286V41.3143L4.65378 42.6286L8.1586 44.4571V52.6857L22.2928 60.1714L16.4897 63.2571ZM38.6104 50.0571V51.5429L24.3612 59.0857L9.9972 51.4857V37.2L12.5253 38.5143L24.3612 44.7429L38.6104 37.2V50.0571Z" fill="#037394"/>
<path d="M57.0863 35.9434V37.3719H53.524V46.3434H51.9727V35.9434H57.0863Z" fill="#037394"/>
<path d="M63.8083 45.6001C63.2337 46.2286 62.4293 46.5143 61.3951 46.5143C60.3609 46.5143 59.5565 46.2286 58.982 45.6001C58.4074 44.9715 58.1201 44.1143 58.1201 43.0286V39.2572C58.1201 38.1715 58.4074 37.3143 58.982 36.6858C59.5565 36.0572 60.3609 35.7715 61.3951 35.7715C62.4293 35.7715 63.2337 36.0572 63.8083 36.6858C64.3828 37.3143 64.6701 38.1715 64.6701 39.2572V43.0858C64.6701 44.1143 64.3828 44.9715 63.8083 45.6001ZM61.3951 45.0858C61.9697 45.0858 62.3719 44.9143 62.6592 44.5715C62.9464 44.2286 63.0613 43.7143 63.0613 43.0858V39.2572C63.0613 38.6286 62.9464 38.1143 62.6592 37.7715C62.3719 37.4286 61.9697 37.2572 61.3951 37.2572C60.246 37.2572 59.7289 37.9429 59.7289 39.2572V43.0858C59.7289 44.4001 60.3035 45.0858 61.3951 45.0858Z" fill="#037394"/>
<path d="M69.3241 35.9434C70.3584 35.9434 71.1627 36.2291 71.7373 36.8576C72.3119 37.4291 72.5991 38.2862 72.5991 39.3148C72.5991 40.4005 72.3119 41.2576 71.7373 41.8291C71.1627 42.4005 70.3584 42.6862 69.3241 42.6862H68.0601V46.3434H66.5088V35.9434H69.3241ZM69.3241 41.2576C70.4733 41.2576 71.0478 40.6291 71.0478 39.3148C71.0478 38.0005 70.4733 37.3719 69.3241 37.3719H68.0601V41.2576H69.3241Z" fill="#037394"/>
<path d="M73.9785 46.3434V35.9434H75.4724V40.5148C75.4724 41.5434 75.4149 42.5719 75.3 43.5434L75.3575 43.6005C75.7022 42.6862 75.9895 42.0576 76.1044 41.7719L78.6899 36.0005H80.2412V46.4005H78.7474V41.8862C78.7474 40.8576 78.8048 39.8862 78.8623 38.8576L78.8048 38.8005C78.5176 39.6005 78.2303 40.2862 78.0579 40.7434L75.4724 46.4576L73.9785 46.3434Z" fill="#037394"/>
<path d="M86.504 40.972C87.7106 41.3148 88.3426 42.172 88.3426 43.4863C88.3426 44.4577 88.0554 45.2006 87.4233 45.7148C86.7913 46.2863 86.0444 46.572 85.0676 46.572C84.0909 46.572 83.2865 46.2863 82.6545 45.6577C82.0799 45.0291 81.7352 44.2863 81.6777 43.372H83.2291C83.2865 43.8863 83.4014 44.2863 83.7462 44.6291C84.0909 44.972 84.4931 45.1434 85.0102 45.1434C85.5273 45.1434 85.9295 44.972 86.2742 44.6863C86.619 44.4006 86.7913 43.9434 86.7913 43.4291C86.7913 42.8577 86.619 42.4577 86.2742 42.172C85.9295 41.8863 85.4698 41.7148 84.8953 41.7148H84.0909V40.3434H84.7229C85.9295 40.3434 86.504 39.772 86.504 38.6863C86.504 38.2291 86.3891 37.8291 86.1019 37.5434C85.872 37.2577 85.4698 37.1434 85.0102 37.1434C83.976 37.1434 83.4589 37.7148 83.4014 38.9148H81.8501C81.9076 37.9434 82.1948 37.1434 82.7119 36.572C83.229 36.0006 84.0909 35.7148 85.0102 35.7148C85.9295 35.7148 86.6764 36.0006 87.251 36.5148C87.8255 37.0291 88.0554 37.772 88.0554 38.6863C88.1128 39.8291 87.5383 40.572 86.504 40.972Z" fill="#037394"/>
<path d="M95.2946 45.6001C94.72 46.2286 93.9157 46.5143 92.8814 46.5143C91.8472 46.5143 91.0428 46.2286 90.4683 45.6001C89.8937 44.9715 89.6064 44.1143 89.6064 43.0286V39.2572C89.6064 38.1715 89.8937 37.3143 90.4683 36.6858C91.0428 36.0572 91.8472 35.7715 92.8814 35.7715C93.9157 35.7715 94.72 36.0572 95.2946 36.6858C95.8692 37.3143 96.1564 38.1715 96.1564 39.2572V43.0858C96.1564 44.1143 95.8692 44.9715 95.2946 45.6001ZM92.8814 45.0858C93.456 45.0858 93.8582 44.9143 94.1455 44.5715C94.4328 44.2286 94.5477 43.7143 94.5477 43.0858V39.2572C94.5477 38.6286 94.4328 38.1143 94.1455 37.7715C93.8582 37.4286 93.456 37.2572 92.8814 37.2572C91.7323 37.2572 91.2152 37.9429 91.2152 39.2572V43.0858C91.1578 44.4001 91.7323 45.0858 92.8814 45.0858Z" fill="#037394"/>
<path d="M102.534 35.9434H104.085V46.3434H102.534V41.7719H99.5464V46.3434H97.9951V35.9434H99.5464V40.3434H102.534V35.9434Z" fill="#037394"/>
<path d="M111.44 35.9434V37.3719H109.199V46.3434H107.648V37.3719H105.407V35.9434H111.44Z" fill="#037394"/>
<path d="M111.497 43.1439V41.8867H115.232V43.1439H111.497Z" fill="#037394"/>
<path d="M121.552 40.9719C122.012 41.1434 122.357 41.4862 122.644 41.8862C122.931 42.2862 123.046 42.8005 123.046 43.3719C123.046 44.2862 122.759 45.0291 122.184 45.5434C121.61 46.0576 120.863 46.3434 119.944 46.3434H116.898V35.9434H119.829C120.691 35.9434 121.38 36.1719 121.897 36.7434C122.414 37.2576 122.702 37.9434 122.702 38.8005C122.644 39.8291 122.299 40.5719 121.552 40.9719ZM119.599 37.3719H118.392V40.3434H119.599C120.518 40.3434 121.035 39.8291 121.035 38.8005C121.093 37.8291 120.576 37.3719 119.599 37.3719ZM119.771 44.9148C120.92 44.9148 121.495 44.4005 121.495 43.3719C121.495 42.8576 121.323 42.4576 121.035 42.1719C120.691 41.8862 120.288 41.7719 119.714 41.7719H118.45V44.9719H119.771V44.9148Z" fill="#037394"/>
<path d="M127.47 46.5148C126.493 46.5148 125.746 46.2291 125.172 45.6577C124.597 45.0863 124.367 44.2863 124.367 43.2577V38.972C124.367 37.9434 124.654 37.1434 125.172 36.572C125.746 36.0006 126.493 35.7148 127.412 35.7148C128.389 35.7148 129.136 36.0006 129.711 36.572C130.285 37.1434 130.572 37.8863 130.572 38.9148H129.021C128.906 37.7148 128.389 37.1434 127.355 37.1434C126.895 37.1434 126.493 37.3148 126.263 37.6006C125.976 37.8863 125.861 38.3434 125.861 38.972V43.2577C125.861 43.8863 125.976 44.3434 126.263 44.6291C126.551 44.9148 126.895 45.0863 127.412 45.0863C128.447 45.0863 129.021 44.5148 129.136 43.3148H130.687C130.63 44.3434 130.343 45.1434 129.768 45.6577C129.194 46.2863 128.447 46.5148 127.47 46.5148Z" fill="#037394"/>
<path d="M54.156 57.4289V56.7432H51.9727V52.6289H52.6047V56.1718H53.7538V52.6289H54.3858V56.1718H54.7306V57.4289H54.156Z" fill="#037394"/>
<path d="M56.2246 56.7417V52.6275H56.7992V54.3989C56.7992 54.7989 56.7992 55.1989 56.7417 55.5989C56.8566 55.256 56.9715 54.9703 57.029 54.856L58.0632 52.5703H58.6952V56.6846H58.1207V54.9703C58.1207 54.5703 58.1207 54.1703 58.1781 53.7703C58.0632 54.1132 57.9483 54.3417 57.8908 54.5132L56.7992 56.7417H56.2246Z" fill="#037394"/>
<path d="M61.7398 57.0852V56.628H61.6249C61.1652 56.628 60.8205 56.5137 60.5907 56.228C60.3034 55.9423 60.1885 55.5994 60.1885 55.1423V54.228C60.1885 53.7709 60.3034 53.3709 60.5907 53.1423C60.878 52.8566 61.2227 52.7423 61.6249 52.7423H61.7398V52.2852H62.3718V52.7423H62.4867C62.9464 52.7423 63.2911 52.8566 63.5209 53.1423C63.8082 53.428 63.9231 53.7709 63.9231 54.228V55.1423C63.9231 55.5994 63.8082 55.9994 63.5209 56.228C63.2337 56.5137 62.8889 56.628 62.4867 56.628H62.3718V57.0852H61.7398ZM61.6249 56.0566H61.7398V53.3137H61.6249C61.1078 53.3137 60.8205 53.5994 60.8205 54.2852V55.1423C60.8205 55.428 60.878 55.7137 61.0503 55.828C61.1652 55.9994 61.3951 56.0566 61.6249 56.0566ZM62.3718 56.0566H62.4867C63.0613 56.0566 63.2911 55.7709 63.2911 55.1423V54.228C63.2911 53.5994 63.0038 53.2566 62.4867 53.2566H62.3718V56.0566Z" fill="#037394"/>
<path d="M66.5661 52.6289C66.9683 52.6289 67.313 52.7432 67.5429 52.9718C67.7727 53.2003 67.8876 53.5432 67.8876 53.9432C67.8876 54.3432 67.7727 54.686 67.5429 54.9146C67.313 55.1432 66.9683 55.2575 66.5661 55.2575H66.049V56.686H65.417V52.6289H66.5661ZM66.5087 54.7432C66.9683 54.7432 67.1981 54.4575 67.1981 53.9432C67.1981 53.4289 66.9683 53.2003 66.5087 53.2003H65.9916V54.7432H66.5087Z" fill="#037394"/>
<path d="M71.5082 56.456C71.2784 56.6846 70.9336 56.7989 70.5315 56.7989C70.1293 56.7989 69.7845 56.6846 69.5547 56.456C69.3249 56.2275 69.21 55.8846 69.21 55.4275V53.9417C69.21 53.5417 69.3249 53.1989 69.5547 52.9132C69.7845 52.6846 70.1293 52.5703 70.5315 52.5703C70.9336 52.5703 71.2784 52.6846 71.5082 52.9132C71.738 53.1417 71.8529 53.4846 71.8529 53.9417V55.4275C71.8529 55.8846 71.738 56.2275 71.5082 56.456ZM70.5315 56.2275C70.7613 56.2275 70.9336 56.1703 71.0486 55.9989C71.1635 55.8275 71.2209 55.656 71.2209 55.4275V53.9417C71.2209 53.656 71.1635 53.4846 71.0486 53.3703C70.9336 53.256 70.7613 53.1417 70.5315 53.1417C70.0718 53.1417 69.842 53.4275 69.842 53.9417V55.4275C69.8994 55.9417 70.0718 56.2275 70.5315 56.2275Z" fill="#037394"/>
<path d="M75.2995 54.6289C75.4719 54.686 75.6443 54.8003 75.7017 54.9718C75.8166 55.1432 75.8741 55.3146 75.8741 55.5432C75.8741 55.886 75.7592 56.1718 75.5294 56.4003C75.2995 56.6289 75.0123 56.686 74.6675 56.686H73.4609V52.6289H74.6101C74.9548 52.6289 75.2421 52.7432 75.4144 52.9146C75.6443 53.1432 75.7017 53.3718 75.7017 53.7146C75.7592 54.1718 75.5868 54.4575 75.2995 54.6289ZM74.5526 53.2003H74.093V54.4003H74.5526C74.8973 54.4003 75.1272 54.1718 75.1272 53.7718C75.1272 53.3718 74.8973 53.2003 74.5526 53.2003ZM74.6101 56.1718C75.0697 56.1718 75.2995 55.9432 75.2995 55.5432C75.2995 55.3146 75.2421 55.2003 75.1272 55.086C75.0123 54.9718 74.8399 54.9146 74.6101 54.9146H74.093V56.1718H74.6101Z" fill="#037394"/>
<path d="M79.5512 56.456C79.3214 56.6846 78.9766 56.7989 78.5744 56.7989C78.1722 56.7989 77.8275 56.6846 77.5977 56.456C77.3678 56.2275 77.2529 55.8846 77.2529 55.4275V53.9417C77.2529 53.5417 77.3678 53.1989 77.5977 52.9132C77.8275 52.6846 78.1722 52.5703 78.5744 52.5703C78.9766 52.5703 79.3214 52.6846 79.5512 52.9132C79.781 53.1417 79.8959 53.4846 79.8959 53.9417V55.4275C79.8959 55.8846 79.781 56.2275 79.5512 56.456ZM78.6319 56.2275C78.8617 56.2275 79.0341 56.1703 79.149 55.9989C79.2639 55.8275 79.3213 55.656 79.3213 55.4275V53.9417C79.3213 53.656 79.2639 53.4846 79.149 53.3703C79.0341 53.256 78.8617 53.1417 78.6319 53.1417C78.1722 53.1417 77.9424 53.4275 77.9424 53.9417V55.4275C77.9424 55.9417 78.1722 56.2275 78.6319 56.2275Z" fill="#037394"/>
<path d="M82.1369 56.1718H83.6882V56.7432H81.5049V52.6289H83.6308V53.2003H82.1369V54.4003H83.5158V54.9146H82.1369V56.1718Z" fill="#037394"/>
<path d="M88.5721 54.2289C88.9743 54.2289 89.2616 54.3432 89.4914 54.5718C89.7787 54.8003 89.8936 55.086 89.8936 55.486C89.8936 55.886 89.7787 56.2289 89.5489 56.4003C89.3191 56.6289 89.0318 56.686 88.6296 56.686H87.4805V52.6289H89.6638V53.2003H88.055V54.286H88.5721V54.2289ZM88.5721 56.1718C88.802 56.1718 88.9743 56.1146 89.0892 56.0003C89.2042 55.886 89.2616 55.7146 89.2616 55.486C89.2616 55.2575 89.2042 55.086 89.0892 54.9718C88.9743 54.8575 88.802 54.8003 88.5721 54.8003H88.055V56.1718H88.5721Z" fill="#037394"/>
<path d="M92.8811 52.6289H93.5131L92.4789 55.886C92.364 56.2289 92.2491 56.4575 92.0767 56.6289C91.9043 56.7432 91.6745 56.8575 91.3298 56.8575H91.1574V56.286H91.3298C91.5021 56.286 91.617 56.2289 91.6745 56.1718C91.732 56.1146 91.8469 55.9432 91.9043 55.7146L91.9618 55.5432L90.8701 52.6289H91.5021L92.1916 54.6289L92.8811 52.6289Z" fill="#037394"/>
<path d="M96.961 56.1718H97.3632V57.4289H96.7887V56.7432H94.7777V57.4289H94.2031V56.1718H94.433C94.7202 55.886 94.8926 55.3718 94.8926 54.6289L94.9501 52.6289H96.961V56.1718ZM96.3865 56.1718V53.2003H95.5246L95.4672 54.8003C95.4672 55.3718 95.3522 55.886 95.1224 56.1718H96.3865Z" fill="#037394"/>
<path d="M100.351 52.6289H100.983L99.9486 55.886C99.8337 56.2289 99.7188 56.4575 99.5464 56.6289C99.3741 56.8003 99.1442 56.8575 98.7995 56.8575H98.6271V56.286H98.7995C98.9719 56.286 99.0868 56.2289 99.1442 56.1718C99.2017 56.0575 99.3166 55.9432 99.3741 55.7146L99.4315 55.5432L98.3398 52.6289H99.0868L99.7762 54.6289L100.351 52.6289Z" fill="#037394"/>
<path d="M106.326 56.1718H106.728V57.4289H106.153V56.7432H102.361V52.6289H102.936V56.1718H104.028V52.6289H104.66V56.1718H105.751V52.6289H106.326V56.1718Z" fill="#037394"/>
<path d="M108.797 56.1718H110.291V56.7432H108.165V52.6289H110.233V53.2003H108.797V54.4003H110.119V54.9146H108.797V56.1718Z" fill="#037394"/>
<path d="M112.474 56.1718H114.025V56.7432H111.899V52.6289H113.968V53.2003H112.474V54.4003H113.853V54.9146H112.474V56.1718Z" fill="#037394"/>
<path d="M53.237 60.9141H53.8116V65.2569H53.237V63.3712H52.0305V65.2569H51.3984V60.9141H52.0305V62.7998H53.237V60.9141Z" fill="#037394"/>
<path d="M57.3738 65.2569L57.1439 64.3998H56.0523L55.8224 65.2569H55.1904L56.2821 60.9141H56.9141L58.0058 65.2569H57.3738ZM56.1672 63.8283H57.029L56.7417 62.6855C56.6843 62.3998 56.6268 62.1141 56.5694 61.7712C56.5119 62.1141 56.5119 62.3998 56.4545 62.6283L56.1672 63.8283Z" fill="#037394"/>
<path d="M60.821 60.9141H61.453V65.2569H60.821V63.6569C60.6486 63.7141 60.4763 63.7712 60.2465 63.7712C59.8443 63.7712 59.557 63.6569 59.3272 63.4283C59.0973 63.1998 58.9824 62.8569 58.9824 62.3998V60.9141H59.6144V62.3998C59.6144 62.9141 59.8443 63.1426 60.3039 63.1426C60.4763 63.1426 60.6486 63.0855 60.821 63.0283V60.9141Z" fill="#037394"/>
<path d="M63.2344 65.2569V60.9141H63.8089V62.7998C63.8089 63.2569 63.8089 63.6569 63.7515 64.0569C63.8664 63.6569 63.9813 63.4283 64.0388 63.3141L65.073 60.9141H65.705V65.2569H65.1304V63.3712C65.1304 62.9712 65.1304 62.5141 65.1879 62.1141C65.073 62.4569 64.9581 62.7426 64.9006 62.9141L63.8664 65.2569H63.2344Z" fill="#037394"/>
<path d="M69.3249 60.9141H69.8995V65.2569H69.3249V63.3712H68.1183V65.2569H67.4863V60.9141H68.1183V62.7998H69.3249V60.9141Z" fill="#037394"/>
<path d="M73.4617 65.2569L73.2318 64.3998H72.0827L71.9103 65.2569H71.2783L72.37 60.9141H73.002L74.0937 65.2569H73.4617ZM72.2551 63.8283H73.1169L72.8296 62.6855C72.7722 62.3998 72.7147 62.1141 72.6573 61.7712C72.5998 62.1712 72.5424 62.4569 72.4849 62.6855L72.2551 63.8283Z" fill="#037394"/>
<path d="M76.1047 64.6855H77.5985V65.2569H75.4727V60.9141H77.5411V61.5426H76.1047V62.7998H77.4262V63.3712H76.1047V64.6855Z" fill="#037394"/>
<path d="M81.218 60.9141V61.5426H80.3562V65.2569H79.7241V61.5426H78.8623V60.9141H81.218Z" fill="#037394"/>
<path d="M83.8041 65.3146C83.4019 65.3146 83.1146 65.2003 82.8848 64.9717C82.655 64.7431 82.54 64.4003 82.54 64.0003V62.2289C82.54 61.7717 82.655 61.486 82.8848 61.2574C83.1146 60.9717 83.4019 60.8574 83.8041 60.8574C84.1488 60.8574 84.4935 60.9717 84.7234 61.2003C84.9532 61.4289 85.0681 61.7717 85.0681 62.1717H84.4361C84.3786 61.7146 84.2063 61.4289 83.8041 61.4289C83.6317 61.4289 83.4593 61.486 83.3444 61.6003C83.2295 61.7146 83.1721 61.9431 83.1721 62.1717V63.9431C83.1721 64.1717 83.2295 64.4003 83.3444 64.5146C83.4593 64.6289 83.6317 64.686 83.8041 64.686C84.2063 64.686 84.4361 64.4574 84.4935 63.9431H85.1256C85.1256 64.3431 85.0107 64.686 84.7808 64.9146C84.4935 65.2003 84.2063 65.3146 83.8041 65.3146Z" fill="#037394"/>
<path d="M86.2744 65.2584L87.1937 63.6012C86.9639 63.5441 86.7341 63.3727 86.6192 63.1441C86.5042 62.9155 86.4468 62.6298 86.4468 62.3441C86.4468 61.8869 86.5617 61.5441 86.7915 61.3155C87.0213 61.0869 87.3086 60.9727 87.7108 60.9727H88.745V65.3155H88.1705V63.7155H87.7683L86.9064 65.2584H86.2744ZM87.6534 63.0869H88.1705V61.5441H87.7108C87.2512 61.5441 87.0788 61.8298 87.0788 62.3441C87.0788 62.6298 87.1363 62.8012 87.2512 62.9155C87.3086 63.0298 87.481 63.0869 87.6534 63.0869Z" fill="#037394"/>
<path d="M93.8588 65.3146C93.4566 65.3146 93.1693 65.2003 92.9395 64.9717C92.7096 64.7431 92.5947 64.4003 92.5947 64.0003V62.2289C92.5947 61.7717 92.7096 61.486 92.9395 61.2574C93.1693 60.9717 93.4566 60.8574 93.8588 60.8574C94.261 60.8574 94.5482 60.9717 94.7781 61.2003C95.0079 61.4289 95.1228 61.7717 95.1228 62.1717H94.4908C94.4908 61.7146 94.261 61.4289 93.8588 61.4289C93.6864 61.4289 93.514 61.486 93.3991 61.6003C93.2842 61.7146 93.2267 61.9431 93.2267 62.1717V63.9431C93.2267 64.1717 93.2842 64.4003 93.3991 64.5146C93.514 64.6289 93.6864 64.686 93.8588 64.686C94.261 64.686 94.4908 64.4574 94.5482 63.9431H95.1803C95.1803 64.3431 95.0653 64.686 94.8355 64.9146C94.5482 65.2003 94.261 65.3146 93.8588 65.3146Z" fill="#037394"/>
<path d="M97.2482 64.6855H98.7995V65.2569H96.6162V60.9141H98.7421V61.5426H97.2482V62.7998H98.6272V63.3712H97.2482V64.6855Z" fill="#037394"/>
<path d="M102.362 60.9141V61.5426H100.983V65.2569H100.351V60.9141H102.362Z" fill="#037394"/>
<path d="M105.924 64.9717C105.695 65.2003 105.35 65.3717 104.948 65.3717C104.545 65.3717 104.201 65.2574 103.971 64.9717C103.799 64.686 103.684 64.3431 103.684 63.886V62.286C103.684 61.8289 103.799 61.486 104.028 61.2003C104.258 60.9717 104.603 60.8574 105.005 60.8574C105.407 60.8574 105.752 60.9717 105.982 61.2574C106.212 61.486 106.327 61.886 106.327 62.3431V63.9431C106.269 64.3431 106.154 64.686 105.924 64.9717ZM105.005 64.7431C105.235 64.7431 105.407 64.686 105.522 64.5146C105.637 64.3431 105.695 64.1717 105.695 63.886V62.286C105.695 62.0003 105.637 61.8289 105.522 61.6574C105.407 61.486 105.235 61.4289 105.005 61.4289C104.545 61.4289 104.316 61.7146 104.316 62.286V63.886C104.316 64.4574 104.545 64.7431 105.005 64.7431Z" fill="#037394"/>
<path d="M110.406 64.6855H110.809V65.9998H110.234V65.2569H108.223V65.9998H107.648V64.6855H107.878C108.166 64.3998 108.338 63.8283 108.338 63.0283L108.395 60.9141H110.464L110.406 64.6855ZM109.774 64.6855V61.5426H108.912L108.855 63.1998C108.855 63.8283 108.74 64.3426 108.51 64.6855H109.774Z" fill="#037394"/>
<path d="M114.026 60.9141H114.658V65.2569H114.026V63.3712H112.82V65.2569H112.188V60.9141H112.82V62.7998H114.026V60.9141Z" fill="#037394"/>
<path d="M116.094 65.2584L117.013 63.6012C116.783 63.5441 116.553 63.3727 116.438 63.1441C116.324 62.9155 116.266 62.6298 116.266 62.3441C116.266 61.8869 116.381 61.5441 116.611 61.3155C116.841 61.0869 117.128 60.9727 117.53 60.9727H118.622V65.3155H117.99V63.7155H117.588L116.726 65.2584H116.094ZM117.473 63.0869H117.932V61.5441H117.473C117.013 61.5441 116.841 61.8298 116.841 62.3441C116.841 62.6298 116.898 62.8012 117.013 62.9155C117.128 63.0298 117.3 63.0869 117.473 63.0869Z" fill="#037394"/>
</g>
<defs>
<clipPath id="clip0_1467_8155">
<rect width="131" height="32" fill="white" transform="translate(0 34)"/>
</clipPath>
</defs>
</svg>
