<svg width="80" height="81" viewBox="0 0 80 81" fill="none" xmlns="http://www.w3.org/2000/svg">
<circle cx="8" cy="42.5" r="4" fill="#F05555"/>
<path d="M54 40.5C54 51.4575 52.3328 61.3332 49.6703 68.4331C48.3376 71.9868 46.7749 74.7932 45.0904 76.6932C43.4049 78.5943 41.6824 79.5 40 79.5C38.3176 79.5 36.5951 78.5943 34.9096 76.6932C33.2251 74.7932 31.6624 71.9868 30.3297 68.4331C27.6672 61.3332 26 51.4575 26 40.5C26 29.5425 27.6672 19.6668 30.3297 12.5669C31.6624 9.01317 33.2251 6.20679 34.9096 4.3068C36.5951 2.40565 38.3176 1.5 40 1.5C41.6824 1.5 43.4049 2.40565 45.0904 4.3068C46.7749 6.20679 48.3376 9.01317 49.6703 12.5669C52.3328 19.6668 54 29.5425 54 40.5Z" stroke="#ADADAD" stroke-width="2"/>
<path d="M40 26.5C50.9575 26.5 60.8332 28.1672 67.9331 30.8297C71.4868 32.1624 74.2932 33.7251 76.1932 35.4096C78.0943 37.0951 79 38.8176 79 40.5C79 42.1824 78.0943 43.9049 76.1932 45.5904C74.2932 47.2749 71.4868 48.8376 67.9331 50.1703C60.8332 52.8328 50.9575 54.5 40 54.5C29.0425 54.5 19.1668 52.8328 12.0669 50.1703C8.51317 48.8376 5.70679 47.2749 3.8068 45.5904C1.90565 43.9049 1 42.1824 1 40.5C1 38.8176 1.90565 37.0951 3.8068 35.4096C5.70679 33.7251 8.51317 32.1624 12.0669 30.8297C19.1668 28.1672 29.0425 26.5 40 26.5Z" stroke="#ADADAD" stroke-width="2"/>
<path d="M49.9005 30.6015C57.6486 38.3496 63.4528 46.5116 66.5906 53.4148C68.1611 56.8699 69.0405 59.9593 69.1929 62.4939C69.3453 65.0301 68.7677 66.8885 67.5781 68.0781C66.3885 69.2677 64.5301 69.8453 61.9939 69.6929C59.4593 69.5405 56.3699 68.6611 52.9148 67.0906C46.0116 63.9528 37.8496 58.1486 30.1015 50.4005C22.3533 42.6523 16.5491 34.4903 13.4113 27.5872C11.8408 24.132 10.9614 21.0426 10.809 18.508C10.6566 15.9718 11.2342 14.1134 12.4238 12.9238C13.6134 11.7342 15.4718 11.1566 18.008 11.309C20.5426 11.4614 23.632 12.3408 27.0872 13.9113C33.9903 17.0491 42.1523 22.8533 49.9005 30.6015Z" stroke="#ADADAD" stroke-width="2"/>
<path d="M12.4238 68.0781C11.2342 66.8885 10.6566 65.0301 10.809 62.4939C10.9614 59.9593 11.8408 56.8699 13.4113 53.4148C16.5491 46.5116 22.3533 38.3496 30.1015 30.6015C37.8496 22.8533 46.0116 17.0491 52.9148 13.9113C56.3699 12.3408 59.4593 11.4614 61.9939 11.309C64.5301 11.1566 66.3885 11.7342 67.5781 12.9238C68.7677 14.1134 69.3453 15.9718 69.1929 18.508C69.0405 21.0426 68.1611 24.132 66.5906 27.5872C63.4528 34.4903 57.6486 42.6523 49.9005 50.4005C42.1523 58.1486 33.9903 63.9528 27.0872 67.0906C23.632 68.6611 20.5426 69.5405 18.008 69.6929C15.4718 69.8453 13.6134 69.2677 12.4238 68.0781Z" stroke="#ADADAD" stroke-width="2"/>
</svg>
